<svg xmlns="http://www.w3.org/2000/svg" width="512" height="512" viewBox="0 0 512 512">
<g>
<path d="M 227.00 433.00 C227.00,432.45 224.55,432.00 221.56,432.00 C218.57,432.00 215.84,431.55 215.50,431.00 C215.16,430.45 213.11,430.00 210.94,430.00 C208.77,430.00 207.00,429.55 207.00,429.00 C207.00,428.45 205.20,428.00 203.00,428.00 C200.80,428.00 199.00,427.55 199.00,427.00 C199.00,426.45 197.92,426.00 196.60,426.00 C195.28,426.00 191.64,424.65 188.50,423.00 C185.36,421.35 182.00,420.00 181.02,420.00 C180.04,420.00 178.67,419.30 177.96,418.45 C177.25,417.60 174.83,416.06 172.59,415.03 C170.34,414.00 167.18,411.77 165.56,410.08 C163.95,408.39 162.14,407.00 161.54,407.00 C160.15,407.00 142.77,389.57 143.46,388.87 C143.75,388.58 142.87,387.29 141.50,386.00 C140.12,384.71 139.00,383.11 139.00,382.45 C139.00,381.79 138.34,380.70 137.54,380.04 C135.44,378.29 129.00,364.88 129.00,362.24 C129.00,361.01 128.55,360.00 128.00,360.00 C127.45,360.00 127.00,358.65 127.00,357.00 C127.00,355.35 126.55,354.00 126.00,354.00 C125.45,354.00 125.00,352.65 125.00,351.00 C125.00,349.35 124.55,348.00 124.00,348.00 C123.45,348.00 123.00,345.75 123.00,343.00 C123.00,340.25 122.55,338.00 122.00,338.00 C121.45,338.00 121.00,335.35 121.00,332.06 C121.00,328.79 120.55,325.84 120.00,325.50 C119.34,325.09 119.00,289.82 119.00,222.94 C119.00,155.65 118.66,121.00 118.00,121.00 C117.44,121.00 117.00,118.33 117.00,115.00 C117.00,111.67 116.56,109.00 116.00,109.00 C115.45,109.00 115.00,108.32 115.00,107.49 C115.00,105.03 112.85,101.85 107.04,95.75 C103.58,92.12 100.74,90.00 99.34,90.00 C98.12,90.00 96.84,89.55 96.50,89.00 C96.16,88.45 94.56,88.00 92.94,88.00 C91.32,88.00 90.00,87.55 90.00,87.00 C90.00,86.45 87.49,86.00 84.43,86.00 C77.05,86.00 73.86,83.00 77.43,79.43 C79.57,77.29 213.43,77.29 215.57,79.43 C219.35,83.21 215.95,86.00 207.57,86.00 C203.86,86.00 201.00,86.43 201.00,87.00 C201.00,87.55 199.23,88.00 197.06,88.00 C194.89,88.00 192.84,88.45 192.50,89.00 C192.16,89.55 191.08,90.00 190.09,90.00 C184.44,90.00 172.00,102.02 172.00,107.49 C172.00,108.32 171.55,109.00 171.00,109.00 C170.44,109.00 170.00,111.67 170.00,115.00 C170.00,118.33 169.56,121.00 169.00,121.00 C168.34,121.00 168.00,155.31 168.00,221.94 C168.00,288.16 168.34,323.09 169.00,323.50 C169.55,323.84 170.00,327.69 170.00,332.06 C170.00,336.69 170.42,340.00 171.00,340.00 C171.55,340.00 172.00,342.25 172.00,345.00 C172.00,347.75 172.45,350.00 173.00,350.00 C173.55,350.00 174.00,351.35 174.00,353.00 C174.00,354.65 174.45,356.00 175.00,356.00 C175.55,356.00 176.00,357.35 176.00,359.00 C176.00,360.65 176.45,362.00 177.00,362.00 C177.55,362.00 178.00,363.04 178.00,364.31 C178.00,367.18 184.05,379.36 187.09,382.60 C188.33,383.92 188.94,385.00 188.45,385.00 C186.47,385.00 202.78,400.26 206.69,402.06 C208.99,403.13 211.14,404.42 211.46,404.93 C212.26,406.23 217.96,408.99 219.90,409.03 C220.78,409.05 222.33,409.69 223.35,410.46 C224.36,411.23 225.75,411.65 226.44,411.39 C227.12,411.12 228.26,411.60 228.96,412.45 C229.72,413.36 231.84,414.00 234.12,414.00 C236.26,414.00 238.00,414.45 238.00,415.00 C238.00,415.58 241.31,416.00 245.94,416.00 C250.31,416.00 254.16,416.45 254.50,417.00 C254.85,417.56 259.66,418.00 265.50,418.00 C271.34,418.00 276.15,417.56 276.50,417.00 C276.84,416.45 280.89,416.00 285.50,416.00 C290.11,416.00 294.16,415.55 294.50,415.00 C294.84,414.45 296.61,414.00 298.44,414.00 C300.26,414.00 302.26,413.39 302.87,412.65 C303.49,411.91 305.27,411.27 306.84,411.22 C308.40,411.18 311.34,410.21 313.37,409.07 C315.40,407.93 317.65,407.00 318.38,407.00 C320.26,407.00 325.57,404.22 327.02,402.48 C327.69,401.67 328.99,401.00 329.90,401.00 C330.81,401.00 332.21,400.10 333.00,399.00 C333.79,397.90 335.02,397.00 335.74,397.00 C337.43,397.00 352.00,382.43 352.00,380.74 C352.00,380.02 352.90,378.79 354.00,378.00 C355.10,377.21 356.00,375.76 356.00,374.78 C356.00,373.80 356.45,373.00 357.00,373.00 C357.55,373.00 358.00,372.34 358.00,371.53 C358.00,370.72 358.90,368.46 360.00,366.50 C361.10,364.54 362.00,362.11 362.00,361.09 C362.00,360.08 362.65,358.71 363.44,358.05 C364.23,357.39 364.63,356.21 364.33,355.41 C364.02,354.62 364.38,353.25 365.11,352.36 C365.85,351.48 366.32,349.53 366.17,348.05 C366.01,346.56 366.54,344.80 367.34,344.13 C368.30,343.33 368.68,341.60 368.43,339.06 C368.18,336.46 368.55,334.78 369.58,333.94 C370.73,332.98 371.05,330.84 370.90,325.14 C370.77,320.18 371.09,317.47 371.85,317.22 C372.71,316.93 373.00,292.28 373.00,220.54 C373.00,138.35 372.79,124.07 371.57,123.06 C370.61,122.26 370.33,120.76 370.71,118.42 C371.11,115.94 370.78,114.41 369.54,113.04 C368.58,111.99 368.12,110.62 368.50,110.00 C368.88,109.38 368.59,108.11 367.85,107.19 C365.90,104.75 364.00,101.19 364.00,99.98 C364.00,98.36 357.25,92.00 355.53,92.00 C354.69,92.00 354.00,91.55 354.00,91.00 C354.00,90.45 352.65,90.00 351.00,90.00 C349.35,90.00 348.00,89.55 348.00,89.00 C348.00,88.45 346.23,88.00 344.06,88.00 C341.89,88.00 339.84,87.55 339.50,87.00 C339.16,86.45 336.05,86.00 332.60,86.00 C327.58,86.00 325.94,85.60 324.50,84.00 C322.75,82.07 322.75,81.93 324.50,80.00 C326.27,78.05 327.58,78.00 379.73,78.00 C424.69,78.00 433.37,78.23 434.57,79.43 C437.91,82.76 434.95,86.00 428.57,86.00 C426.06,86.00 424.00,86.45 424.00,87.00 C424.00,87.55 422.95,88.00 421.67,88.00 C418.56,88.00 410.48,92.17 406.85,95.65 C403.79,98.57 401.00,103.35 401.00,105.65 C401.00,106.39 400.55,107.00 400.00,107.00 C399.45,107.00 399.00,108.35 399.00,110.00 C399.00,111.65 398.55,113.00 398.00,113.00 C397.43,113.00 397.00,116.00 397.00,120.00 C397.00,124.00 396.57,127.00 396.00,127.00 C395.34,127.00 395.00,160.65 395.00,225.94 C395.00,290.82 394.66,325.09 394.00,325.50 C393.45,325.84 393.00,328.79 393.00,332.06 C393.00,335.35 392.55,338.00 392.00,338.00 C391.45,338.00 391.00,340.25 391.00,343.00 C391.00,345.75 390.55,348.00 390.00,348.00 C389.45,348.00 389.00,349.80 389.00,352.00 C389.00,354.20 388.55,356.00 388.00,356.00 C387.45,356.00 387.00,357.11 387.00,358.47 C387.00,359.83 386.10,362.54 385.00,364.50 C383.90,366.46 383.00,368.63 383.00,369.33 C383.00,371.21 378.14,380.64 376.45,382.04 C375.65,382.70 375.00,383.80 375.00,384.47 C375.00,385.14 374.10,386.50 373.00,387.50 C371.90,388.50 371.00,389.81 371.00,390.43 C371.00,391.84 353.82,409.00 352.40,409.00 C351.82,409.00 350.29,410.12 349.00,411.50 C347.71,412.88 346.11,414.00 345.45,414.00 C344.79,414.00 343.70,414.66 343.04,415.46 C341.49,417.32 328.02,424.00 325.80,424.00 C324.88,424.00 323.84,424.45 323.50,425.00 C323.16,425.55 321.81,426.00 320.50,426.00 C319.19,426.00 317.84,426.45 317.50,427.00 C317.16,427.55 315.56,428.00 313.94,428.00 C312.32,428.00 311.00,428.45 311.00,429.00 C311.00,429.55 309.20,430.00 307.00,430.00 C304.80,430.00 303.00,430.45 303.00,431.00 C303.00,431.56 300.33,432.00 297.00,432.00 C293.67,432.00 291.00,432.44 291.00,433.00 C291.00,433.65 279.67,434.00 259.00,434.00 C238.33,434.00 227.00,433.65 227.00,433.00 Z" fill="rgba(29,42,75,1)"/>
<path d="M 253.25 346.50 C252.56,345.72 252.00,344.39 252.00,343.54 C252.00,342.69 251.55,342.00 251.00,342.00 C250.45,342.00 250.00,341.10 250.00,340.00 C250.00,338.90 249.55,338.00 249.00,338.00 C248.45,338.00 248.00,337.10 248.00,336.00 C248.00,334.90 247.55,334.00 247.00,334.00 C246.45,334.00 246.00,333.10 246.00,332.00 C246.00,330.90 245.55,330.00 245.00,330.00 C244.45,330.00 244.00,329.16 244.00,328.12 C244.00,327.09 243.30,325.67 242.45,324.96 C241.60,324.25 240.06,321.82 239.03,319.56 C238.00,317.30 236.23,314.61 235.10,313.59 C233.97,312.57 233.24,311.41 233.48,311.02 C233.73,310.64 232.36,308.81 230.46,306.96 C228.56,305.12 227.00,303.11 227.00,302.49 C227.00,301.88 225.65,300.08 224.00,298.50 C222.35,296.92 221.00,295.15 221.00,294.58 C221.00,294.00 215.52,288.04 208.83,281.33 C198.19,270.66 196.82,268.92 197.98,267.52 C198.91,266.41 199.63,266.23 200.36,266.96 C200.93,267.53 202.86,268.00 204.64,268.00 C206.42,268.00 208.16,268.45 208.50,269.00 C208.84,269.55 210.19,270.00 211.50,270.00 C212.81,270.00 214.16,270.45 214.50,271.00 C214.84,271.55 216.44,272.00 218.06,272.00 C219.68,272.00 221.00,272.45 221.00,273.00 C221.00,273.55 221.90,274.00 223.00,274.00 C224.10,274.00 225.00,274.45 225.00,275.00 C225.00,275.55 225.72,276.00 226.61,276.00 C227.49,276.00 229.10,277.12 230.18,278.50 C231.26,279.88 233.01,281.00 234.07,281.00 C235.13,281.00 236.00,281.45 236.00,282.00 C236.00,282.55 236.80,283.00 237.78,283.00 C238.76,283.00 240.21,283.90 241.00,285.00 C241.79,286.10 243.05,287.00 243.80,287.00 C244.55,287.00 246.89,288.80 249.00,291.00 C251.11,293.20 253.36,295.00 253.99,295.00 C255.49,295.00 258.00,292.47 258.00,290.97 C258.00,290.33 259.35,288.54 261.00,287.00 C262.65,285.46 264.00,283.57 264.00,282.81 C264.00,282.05 266.25,279.21 269.00,276.50 C271.75,273.79 274.00,271.10 274.00,270.53 C274.00,269.17 312.19,231.00 313.56,231.00 C314.13,231.00 316.35,229.20 318.50,227.00 C320.65,224.80 322.91,223.00 323.52,223.00 C324.13,223.00 325.92,221.65 327.50,220.00 C329.08,218.35 331.09,217.00 331.97,217.00 C332.84,217.00 334.21,216.10 335.00,215.00 C335.79,213.90 337.14,213.00 338.00,213.00 C338.86,213.00 340.21,212.10 341.00,211.00 C342.75,208.57 348.00,208.22 348.00,210.54 C348.00,211.38 343.95,216.09 339.00,221.00 C334.05,225.91 330.00,230.55 330.00,231.32 C330.00,232.08 327.52,235.05 324.50,237.91 C321.48,240.77 319.00,243.72 319.00,244.47 C319.00,245.21 317.65,246.96 316.00,248.35 C314.35,249.73 313.00,251.52 313.00,252.32 C313.00,253.12 311.65,254.84 310.01,256.14 C308.36,257.44 307.01,259.28 307.01,260.24 C307.00,261.20 306.10,262.55 305.00,263.23 C303.90,263.92 303.00,265.20 303.00,266.09 C303.00,266.97 302.10,268.50 301.00,269.50 C299.90,270.50 299.00,271.85 299.00,272.50 C299.00,273.15 298.10,274.50 297.00,275.50 C295.90,276.50 295.00,277.85 295.00,278.50 C295.00,279.15 294.10,280.50 293.00,281.50 C291.90,282.50 291.00,283.86 291.00,284.53 C291.00,285.20 290.30,286.33 289.45,287.04 C288.60,287.75 287.05,290.20 286.00,292.50 C284.95,294.80 283.40,297.25 282.55,297.96 C281.70,298.67 281.00,299.81 281.00,300.50 C281.00,301.19 280.31,302.32 279.48,303.02 C278.64,303.72 278.19,304.52 278.48,304.82 C278.78,305.11 278.08,306.35 276.93,307.58 C274.60,310.06 266.00,326.68 266.00,328.71 C266.00,329.42 265.55,330.00 265.00,330.00 C264.45,330.00 264.00,330.90 264.00,332.00 C264.00,333.10 263.55,334.00 263.00,334.00 C262.45,334.00 262.00,334.80 262.00,335.78 C262.00,336.76 261.10,338.21 260.00,339.00 C258.90,339.79 258.00,341.50 258.00,342.79 C258.00,344.09 257.36,345.79 256.57,346.57 C254.85,348.29 254.82,348.29 253.25,346.50 Z" fill="rgba(202,170,102,1)"/>
</g>
</svg>