<svg xmlns="http://www.w3.org/2000/svg" width="512" height="512" viewBox="0 0 512 512" fill="none">
  <path d="M 155 221 L 138 253 L 136 312 L 146 344 L 172 370 L 202 380 L 314 380 L 349 366 L 370 342 L 379 312 L 378 257 L 367 230 L 341 206 L 312 197 L 266 197 L 265 169 L 250 169 L 249 197 L 188 200 Z M 307 261 L 318 262 L 325 268 L 328 275 L 327 309 L 321 317 L 315 320 L 308 320 L 303 318 L 295 308 L 295 273 L 297 269 Z M 200 261 L 207 261 L 212 263 L 220 273 L 220 307 L 218 312 L 212 318 L 207 320 L 200 320 L 194 317 L 190 313 L 187 306 L 187 275 L 190 268 L 195 263 Z" fill="#283553" fill-rule="evenodd"/>
  <path d="M 113 242 L 99 249 L 92 258 L 89 268 L 89 308 L 91 315 L 98 326 L 110 333 L 123 334 L 125 333 L 125 243 Z" fill="#283553" fill-rule="evenodd"/>
  <path d="M 391 242 L 390 333 L 401 334 L 408 332 L 417 326 L 424 315 L 426 307 L 426 269 L 424 261 L 416 249 L 406 243 Z" fill="#283553" fill-rule="evenodd"/>
  <path d="M 255 109 L 241 114 L 234 120 L 228 132 L 228 146 L 232 155 L 238 162 L 249 168 L 260 169 L 266 168 L 280 159 L 286 149 L 287 133 L 283 123 L 278 117 L 268 111 Z" fill="#c59658" fill-rule="evenodd"/>
  <path d="M 307 261 L 318 262 L 325 268 L 328 275 L 327 309 L 321 317 L 315 320 L 308 320 L 303 318 L 295 308 L 295 273 L 297 269 Z" fill="#283553" fill-rule="evenodd"/>
  <path d="M 200 261 L 207 261 L 212 263 L 220 273 L 220 307 L 218 312 L 212 318 L 207 320 L 200 320 L 194 317 L 190 313 L 187 306 L 187 275 L 190 268 L 195 263 Z" fill="#283553" fill-rule="evenodd"/>
  <path d="M 316 263 L 307 264 L 303 266 L 298 273 L 298 309 L 307 318 L 321 315 L 324 308 L 326 307 L 326 278 L 323 268 L 321 268 Z" fill="#f3ece4" fill-rule="evenodd"/>
  <path d="M 199 264 L 194 266 L 189 274 L 189 307 L 191 308 L 194 314 L 200 317 L 208 318 L 217 309 L 217 271 L 209 264 Z" fill="#f3ece4" fill-rule="evenodd"/>
  <path d="M 423 14 L 423 24 L 434 25 L 434 35 L 423 36 L 423 47 L 433 46 L 434 35 L 444 35 L 445 45 L 457 48 L 457 58 L 446 59 L 445 69 L 456 69 L 457 58 L 467 58 L 468 69 L 478 69 L 478 59 L 467 58 L 467 48 L 478 46 L 478 37 L 467 35 L 467 25 L 478 24 L 478 14 L 468 14 L 467 25 L 457 25 L 456 14 L 446 14 L 446 24 L 456 24 L 457 35 L 468 36 L 467 48 L 457 48 L 456 37 L 445 36 L 444 25 L 433 24 L 433 14 Z" fill="#f4f4f4" fill-rule="evenodd"/>
  <path d="M 429 287 L 429 297 L 434 298 L 434 308 L 444 308 L 445 297 L 456 297 L 457 308 L 467 308 L 467 298 L 478 297 L 478 287 L 468 287 L 467 276 L 457 276 L 456 287 L 445 287 L 444 276 L 434 276 L 434 286 Z M 456 287 L 467 286 L 468 297 L 457 298 Z M 433 287 L 444 286 L 445 297 L 434 298 Z" fill="#f4f4f4" fill-rule="evenodd"/>
  <path d="M 400 14 L 400 24 L 389 25 L 389 35 L 400 36 L 400 47 L 389 48 L 389 58 L 399 58 L 400 69 L 410 69 L 410 59 L 421 58 L 421 48 L 411 48 L 410 59 L 400 59 L 399 48 L 410 46 L 411 35 L 421 35 L 421 25 L 411 25 L 410 14 Z M 399 25 L 410 24 L 411 35 L 405 37 L 400 36 L 398 32 Z" fill="#f4f4f4" fill-rule="evenodd"/>
  <path d="M 218 14 L 218 24 L 207 25 L 207 35 L 217 35 L 218 46 L 228 47 L 230 55 L 228 59 L 218 59 L 217 48 L 207 48 L 207 58 L 217 58 L 218 69 L 228 69 L 228 59 L 239 58 L 239 48 L 228 47 L 228 36 L 239 35 L 239 25 L 229 25 L 228 14 Z M 217 25 L 228 24 L 229 35 L 218 36 Z" fill="#f4f4f4" fill-rule="evenodd"/>
  <path d="M 423 469 L 423 479 L 433 479 L 434 490 L 444 490 L 445 479 L 456 479 L 457 490 L 467 490 L 467 480 L 478 479 L 478 469 L 468 469 L 467 458 L 457 458 L 457 468 L 446 469 L 446 477 L 444 480 L 433 479 L 433 469 L 444 468 L 444 458 L 434 458 L 434 468 Z M 456 469 L 467 468 L 468 479 L 457 480 Z" fill="#f4f4f4" fill-rule="evenodd"/>
  <path d="M 332 469 L 332 479 L 342 479 L 343 490 L 353 490 L 353 480 L 364 479 L 364 472 L 366 468 L 377 469 L 377 479 L 366 480 L 366 490 L 376 490 L 376 480 L 387 479 L 387 469 L 377 469 L 376 458 L 366 458 L 365 469 L 354 469 L 353 458 L 343 458 L 343 468 Z M 342 469 L 353 468 L 354 479 L 343 480 Z" fill="#f4f4f4" fill-rule="evenodd"/>
  <path d="M 264 14 L 264 24 L 270 23 L 275 25 L 275 35 L 269 37 L 264 36 L 264 47 L 270 46 L 275 48 L 275 58 L 264 59 L 264 69 L 274 69 L 273 63 L 275 58 L 285 58 L 286 69 L 296 69 L 296 59 L 286 59 L 285 48 L 274 47 L 275 35 L 285 35 L 286 46 L 296 47 L 296 36 L 285 35 L 285 25 L 291 23 L 296 24 L 296 14 L 286 14 L 285 25 L 275 25 L 273 14 Z" fill="#f4f4f4" fill-rule="evenodd"/>
  <path d="M 423 128 L 423 138 L 434 139 L 434 149 L 423 150 L 424 161 L 433 160 L 434 149 L 444 149 L 445 138 L 457 139 L 457 149 L 452 151 L 446 150 L 446 160 L 456 160 L 457 149 L 467 149 L 468 160 L 478 160 L 478 150 L 467 149 L 467 139 L 478 138 L 478 128 L 468 128 L 467 139 L 457 139 L 455 134 L 456 128 L 446 128 L 444 139 L 434 139 L 433 128 Z" fill="#f4f4f4" fill-rule="evenodd"/>
  <path d="M 332 128 L 332 138 L 343 139 L 343 149 L 332 151 L 332 160 L 342 160 L 342 150 L 353 149 L 354 138 L 365 138 L 366 149 L 376 149 L 377 160 L 387 161 L 387 150 L 376 149 L 376 139 L 387 138 L 387 128 L 377 128 L 376 139 L 366 139 L 364 133 L 365 128 L 354 128 L 353 139 L 343 139 L 342 128 Z" fill="#f4f4f4" fill-rule="evenodd"/>
  <path d="M 423 423 L 423 434 L 434 435 L 434 445 L 423 446 L 423 456 L 433 456 L 434 445 L 444 445 L 446 449 L 446 456 L 456 456 L 456 446 L 467 445 L 468 456 L 478 456 L 478 446 L 467 445 L 467 435 L 478 434 L 478 424 L 468 424 L 468 434 L 457 435 L 456 446 L 445 446 L 444 435 L 434 435 L 433 424 Z" fill="#f4f4f4" fill-rule="evenodd"/>
  <path d="M 364 14 L 355 14 L 353 25 L 343 25 L 342 14 L 332 14 L 332 24 L 343 25 L 343 35 L 338 37 L 332 36 L 332 47 L 343 48 L 343 58 L 332 59 L 332 69 L 342 69 L 342 59 L 353 58 L 353 48 L 364 46 L 364 36 L 355 37 L 353 48 L 342 47 L 342 36 L 353 35 L 353 25 L 364 24 Z" fill="#f4f4f4" fill-rule="evenodd"/>
  <path d="M 173 14 L 173 24 L 179 23 L 184 25 L 184 35 L 173 36 L 173 46 L 184 48 L 184 58 L 173 59 L 173 69 L 183 69 L 184 58 L 194 58 L 195 69 L 205 69 L 205 59 L 195 59 L 194 48 L 183 47 L 183 36 L 194 35 L 194 25 L 205 24 L 205 14 L 195 14 L 194 25 L 184 25 L 183 14 Z" fill="#f4f4f4" fill-rule="evenodd"/>
  <path d="M 332 446 L 332 456 L 342 456 L 343 445 L 353 445 L 355 453 L 354 456 L 364 456 L 364 449 L 366 445 L 376 445 L 377 456 L 387 456 L 387 446 L 376 445 L 376 435 L 387 434 L 387 424 L 377 424 L 377 434 L 366 435 L 365 446 L 353 445 L 353 435 L 364 433 L 365 424 L 354 424 L 354 434 L 343 435 L 342 446 Z" fill="#f4f4f4" fill-rule="evenodd"/>
  <path d="M 457 71 L 457 81 L 446 82 L 445 92 L 456 92 L 456 82 L 467 81 L 468 92 L 465 94 L 457 94 L 457 103 L 464 103 L 468 105 L 468 115 L 457 116 L 456 105 L 446 105 L 446 115 L 456 115 L 457 126 L 467 126 L 467 116 L 478 115 L 478 105 L 467 104 L 467 93 L 478 92 L 478 82 L 468 82 L 467 71 Z" fill="#f4f4f4" fill-rule="evenodd"/>
  <path d="M 150 14 L 150 24 L 139 25 L 139 35 L 148 35 L 150 24 L 161 25 L 161 35 L 150 36 L 150 46 L 161 48 L 161 58 L 150 59 L 148 56 L 149 48 L 139 48 L 139 58 L 149 58 L 150 69 L 160 69 L 160 59 L 171 58 L 171 48 L 160 47 L 160 36 L 171 35 L 171 25 L 161 25 L 160 14 Z" fill="#f4f4f4" fill-rule="evenodd"/>
  <path d="M 491 219 L 491 229 L 480 230 L 480 240 L 491 241 L 491 252 L 480 253 L 480 263 L 490 263 L 491 274 L 501 274 L 501 264 L 511 263 L 511 253 L 502 253 L 503 258 L 501 264 L 490 263 L 490 253 L 501 251 L 501 242 L 494 242 L 490 240 L 490 230 L 501 229 L 503 232 L 502 240 L 511 240 L 511 230 L 501 229 L 501 219 Z" fill="#f4f4f4" fill-rule="evenodd"/>
  <path d="M 275 71 L 275 81 L 264 82 L 264 92 L 274 92 L 275 103 L 283 103 L 286 105 L 286 115 L 280 116 L 281 119 L 285 121 L 286 115 L 296 115 L 296 105 L 285 104 L 285 93 L 296 92 L 296 82 L 286 82 L 285 71 Z M 274 82 L 285 81 L 286 92 L 281 94 L 275 93 Z" fill="#f4f4f4" fill-rule="evenodd"/>
  <path d="M 25 230 L 25 240 L 36 241 L 36 252 L 25 253 L 25 263 L 35 263 L 36 274 L 46 274 L 46 264 L 57 263 L 57 253 L 47 253 L 46 242 L 36 241 L 34 236 L 34 230 Z M 35 253 L 46 252 L 47 263 L 36 264 L 34 258 Z" fill="#f4f4f4" fill-rule="evenodd"/>
  <path d="M 25 25 L 25 35 L 36 36 L 36 47 L 25 48 L 25 58 L 35 58 L 36 69 L 46 69 L 46 59 L 57 58 L 57 48 L 47 48 L 46 37 L 36 36 L 34 25 Z M 35 48 L 46 47 L 47 58 L 36 59 Z" fill="#f4f4f4" fill-rule="evenodd"/>
  <path d="M 423 219 L 423 229 L 433 229 L 434 240 L 444 240 L 445 229 L 457 230 L 457 240 L 453 242 L 446 242 L 446 252 L 456 251 L 455 245 L 457 240 L 467 240 L 468 229 L 478 229 L 478 219 L 468 219 L 469 226 L 467 230 L 457 230 L 456 219 L 446 219 L 444 230 L 434 230 L 433 219 Z" fill="#f4f4f4" fill-rule="evenodd"/>
  <path d="M 387 14 L 377 14 L 377 24 L 366 25 L 366 35 L 377 36 L 377 47 L 366 48 L 366 58 L 355 59 L 354 69 L 365 69 L 364 61 L 366 58 L 376 58 L 377 69 L 387 69 L 387 59 L 376 58 L 376 48 L 387 47 L 387 37 L 376 35 L 376 25 L 387 24 Z" fill="#f4f4f4" fill-rule="evenodd"/>
  <path d="M 161 71 L 161 81 L 150 82 L 150 92 L 139 93 L 139 103 L 147 104 L 150 92 L 160 92 L 161 104 L 150 105 L 150 115 L 160 115 L 161 126 L 171 126 L 171 116 L 160 115 L 160 105 L 164 103 L 171 104 L 171 94 L 160 92 L 160 82 L 171 81 L 171 71 Z" fill="#f4f4f4" fill-rule="evenodd"/>
  <path d="M 59 333 L 59 343 L 64 342 L 70 344 L 70 354 L 59 355 L 59 365 L 69 365 L 69 355 L 80 354 L 81 343 L 92 343 L 93 354 L 103 354 L 104 365 L 114 365 L 114 355 L 104 355 L 103 344 L 93 344 L 91 333 L 82 333 L 80 344 L 70 344 L 69 333 Z" fill="#f4f4f4" fill-rule="evenodd"/>
  <path d="M 59 219 L 59 229 L 69 229 L 70 240 L 80 240 L 82 244 L 80 253 L 70 253 L 69 242 L 59 241 L 59 252 L 64 251 L 70 253 L 70 263 L 59 264 L 59 274 L 69 274 L 69 264 L 80 263 L 80 253 L 85 251 L 91 251 L 92 243 L 80 240 L 80 230 L 69 229 L 69 219 Z" fill="#f4f4f4" fill-rule="evenodd"/>
  <path d="M 343 71 L 343 81 L 332 82 L 332 92 L 342 92 L 343 103 L 350 104 L 353 103 L 353 93 L 364 92 L 365 84 L 364 82 L 353 81 L 353 71 Z M 342 82 L 353 81 L 354 92 L 343 93 Z" fill="#f4f4f4" fill-rule="evenodd"/>
  <path d="M 222 423 L 218 424 L 217 435 L 207 435 L 207 445 L 217 445 L 218 456 L 228 456 L 228 446 L 239 445 L 239 435 L 229 435 L 228 424 Z M 217 435 L 228 434 L 230 439 L 229 445 L 218 446 Z" fill="#f4f4f4" fill-rule="evenodd"/>
  <path d="M 13 14 L 12 25 L 0 25 L 0 35 L 13 36 L 13 47 L 0 48 L 0 58 L 12 58 L 13 69 L 23 69 L 23 59 L 12 58 L 12 48 L 16 46 L 23 46 L 23 36 L 13 36 L 12 25 L 23 24 L 23 14 Z" fill="#f4f4f4" fill-rule="evenodd"/>
  <path d="M 184 458 L 184 468 L 173 469 L 173 479 L 183 479 L 184 490 L 194 490 L 194 480 L 205 479 L 205 469 L 195 469 L 194 458 Z M 183 469 L 194 468 L 195 479 L 184 480 Z" fill="#f4f4f4" fill-rule="evenodd"/>
  <path d="M 309 128 L 309 138 L 298 139 L 298 149 L 308 149 L 309 160 L 319 160 L 319 150 L 330 149 L 330 139 L 320 139 L 319 128 Z M 308 139 L 319 138 L 321 145 L 320 149 L 315 151 L 309 150 Z" fill="#f4f4f4" fill-rule="evenodd"/>
  <path d="M 127 14 L 127 24 L 116 25 L 116 35 L 127 36 L 127 47 L 116 48 L 116 58 L 126 58 L 127 69 L 137 69 L 137 59 L 126 58 L 126 48 L 137 46 L 137 37 L 126 35 L 126 25 L 137 24 L 137 14 Z" fill="#f4f4f4" fill-rule="evenodd"/>
  <path d="M 366 71 L 366 81 L 377 82 L 377 92 L 366 93 L 366 103 L 377 105 L 377 115 L 366 116 L 366 126 L 376 126 L 376 116 L 387 115 L 387 105 L 376 104 L 376 93 L 387 92 L 387 82 L 377 82 L 376 71 Z" fill="#f4f4f4" fill-rule="evenodd"/>
  <path d="M 241 14 L 241 24 L 252 25 L 252 35 L 247 37 L 241 36 L 241 47 L 252 48 L 252 58 L 241 59 L 241 69 L 251 69 L 251 59 L 262 58 L 262 48 L 251 47 L 251 36 L 262 35 L 262 25 L 252 25 L 251 14 Z" fill="#f4f4f4" fill-rule="evenodd"/>
  <path d="M 116 71 L 116 81 L 127 82 L 127 92 L 116 93 L 116 103 L 122 103 L 127 105 L 127 115 L 116 116 L 116 126 L 126 126 L 126 116 L 137 115 L 137 105 L 126 104 L 126 93 L 137 92 L 137 82 L 127 82 L 126 71 Z" fill="#f4f4f4" fill-rule="evenodd"/>
  <path d="M 332 173 L 332 183 L 342 183 L 343 172 L 353 172 L 355 183 L 365 183 L 365 173 L 376 172 L 377 183 L 387 183 L 387 173 L 377 173 L 376 162 L 366 162 L 365 173 L 354 173 L 353 162 L 343 162 L 343 172 Z" fill="#f4f4f4" fill-rule="evenodd"/>
  <path d="M 207 71 L 207 81 L 217 81 L 218 92 L 228 92 L 229 81 L 240 81 L 241 92 L 251 92 L 251 82 L 262 81 L 262 71 L 252 71 L 251 82 L 241 82 L 239 77 L 239 71 L 229 71 L 229 81 L 218 82 L 217 71 Z" fill="#f4f4f4" fill-rule="evenodd"/>
  <path d="M 93 71 L 93 81 L 104 82 L 104 92 L 98 94 L 93 93 L 93 103 L 101 103 L 104 105 L 104 115 L 93 116 L 93 126 L 103 126 L 103 116 L 114 115 L 114 105 L 103 104 L 103 93 L 114 92 L 114 82 L 104 82 L 103 71 Z" fill="#f4f4f4" fill-rule="evenodd"/>
  <path d="M 104 128 L 104 138 L 93 139 L 93 149 L 104 150 L 104 161 L 93 162 L 93 172 L 103 172 L 104 183 L 114 183 L 114 173 L 103 172 L 103 162 L 107 160 L 114 160 L 114 150 L 104 150 L 103 139 L 114 138 L 114 128 Z" fill="#f4f4f4" fill-rule="evenodd"/>
  <path d="M 59 14 L 59 24 L 69 24 L 70 35 L 80 35 L 82 39 L 80 48 L 70 48 L 69 59 L 59 59 L 59 69 L 69 69 L 69 59 L 80 58 L 80 48 L 91 47 L 91 37 L 85 37 L 80 35 L 80 25 L 69 24 L 69 14 Z" fill="#f4f4f4" fill-rule="evenodd"/>
  <path d="M 389 458 L 389 468 L 400 469 L 400 479 L 389 480 L 389 490 L 398 490 L 400 479 L 410 479 L 411 490 L 421 490 L 421 480 L 410 479 L 410 469 L 421 468 L 421 458 L 411 458 L 410 469 L 400 469 L 399 458 Z" fill="#f4f4f4" fill-rule="evenodd"/>
  <path d="M 298 458 L 298 468 L 309 469 L 309 479 L 298 480 L 298 490 L 308 490 L 309 479 L 319 479 L 321 490 L 330 490 L 330 480 L 319 479 L 319 469 L 330 468 L 330 458 L 320 458 L 319 469 L 309 469 L 308 458 Z" fill="#f4f4f4" fill-rule="evenodd"/>
  <path d="M 478 378 L 468 378 L 467 367 L 457 367 L 457 377 L 446 378 L 445 388 L 434 390 L 434 399 L 444 399 L 445 388 L 456 388 L 455 380 L 457 377 L 468 378 L 468 388 L 457 390 L 457 399 L 467 399 L 468 388 L 479 388 Z" fill="#f4f4f4" fill-rule="evenodd"/>
  <path d="M 389 185 L 389 195 L 400 196 L 400 206 L 389 207 L 389 217 L 399 217 L 398 210 L 400 206 L 410 206 L 411 217 L 421 217 L 421 207 L 410 206 L 410 196 L 421 195 L 421 185 L 411 185 L 410 196 L 400 196 L 398 190 L 399 185 Z" fill="#f4f4f4" fill-rule="evenodd"/>
  <path d="M 173 128 L 173 138 L 184 139 L 184 149 L 173 151 L 173 160 L 183 160 L 182 153 L 184 149 L 194 149 L 195 160 L 205 160 L 205 150 L 202 151 L 194 149 L 194 139 L 205 138 L 205 128 L 195 128 L 194 139 L 184 139 L 183 128 Z" fill="#f4f4f4" fill-rule="evenodd"/>
  <path d="M 25 185 L 25 195 L 36 196 L 36 206 L 25 207 L 25 217 L 35 217 L 34 210 L 36 206 L 46 206 L 47 217 L 57 217 L 57 207 L 46 206 L 46 196 L 57 195 L 57 185 L 47 185 L 46 196 L 36 196 L 34 191 L 35 185 Z" fill="#f4f4f4" fill-rule="evenodd"/>
  <path d="M 207 458 L 207 468 L 218 469 L 218 479 L 207 480 L 207 490 L 217 490 L 218 479 L 228 479 L 229 490 L 239 490 L 239 481 L 228 479 L 228 469 L 239 468 L 239 458 L 230 458 L 230 465 L 228 469 L 218 469 L 217 458 Z" fill="#f4f4f4" fill-rule="evenodd"/>
  <path d="M 400 128 L 400 138 L 389 139 L 389 149 L 399 149 L 400 160 L 408 160 L 411 162 L 411 172 L 421 172 L 421 162 L 411 162 L 410 151 L 399 149 L 400 138 L 410 138 L 412 141 L 411 149 L 421 149 L 421 139 L 411 139 L 410 128 Z" fill="#f4f4f4" fill-rule="evenodd"/>
  <path d="M 25 276 L 25 286 L 36 287 L 36 297 L 25 298 L 25 308 L 34 308 L 34 300 L 36 297 L 46 297 L 47 308 L 57 308 L 57 298 L 46 297 L 46 287 L 57 286 L 57 276 L 47 276 L 46 287 L 36 287 L 34 284 L 34 276 Z" fill="#f4f4f4" fill-rule="evenodd"/>
  <path d="M 298 93 L 298 104 L 309 105 L 309 115 L 298 116 L 298 126 L 308 126 L 309 115 L 319 115 L 321 120 L 320 126 L 330 126 L 330 116 L 320 116 L 319 105 L 309 105 L 308 94 Z" fill="#f4f4f4" fill-rule="evenodd"/>
  <path d="M 457 185 L 457 195 L 467 195 L 468 206 L 457 207 L 455 196 L 446 196 L 446 206 L 456 206 L 457 217 L 467 217 L 467 207 L 478 206 L 478 196 L 468 196 L 467 185 Z" fill="#f4f4f4" fill-rule="evenodd"/>
  <path d="M 184 93 L 184 104 L 173 105 L 173 115 L 183 115 L 184 126 L 194 126 L 194 116 L 205 115 L 205 105 L 195 105 L 195 115 L 184 116 L 183 105 L 186 103 L 194 103 L 194 94 Z" fill="#f4f4f4" fill-rule="evenodd"/>
  <path d="M 298 71 L 298 81 L 308 81 L 309 92 L 319 92 L 321 104 L 330 104 L 330 94 L 319 92 L 319 82 L 330 81 L 330 71 L 321 71 L 319 82 L 309 82 L 308 71 Z" fill="#f4f4f4" fill-rule="evenodd"/>
  <path d="M 311 36 L 309 37 L 309 46 L 320 48 L 320 58 L 309 59 L 308 48 L 298 48 L 298 58 L 308 58 L 309 69 L 319 69 L 319 59 L 330 58 L 330 48 L 320 48 L 319 37 Z" fill="#f4f4f4" fill-rule="evenodd"/>
  <path d="M 57 94 L 47 94 L 47 104 L 36 105 L 36 115 L 25 116 L 25 126 L 35 126 L 34 119 L 36 115 L 46 115 L 47 126 L 57 126 L 57 116 L 46 115 L 46 105 L 57 104 Z" fill="#f4f4f4" fill-rule="evenodd"/>
  <path d="M 389 104 L 398 103 L 400 92 L 410 92 L 411 81 L 421 81 L 421 71 L 411 71 L 410 82 L 400 82 L 399 71 L 389 71 L 389 81 L 400 82 L 400 92 L 389 93 Z" fill="#f4f4f4" fill-rule="evenodd"/>
  <path d="M 43 332 L 36 333 L 35 344 L 25 344 L 25 354 L 34 354 L 36 343 L 47 344 L 47 354 L 36 355 L 36 365 L 46 365 L 46 355 L 57 354 L 57 344 L 47 344 L 46 333 Z" fill="#f4f4f4" fill-rule="evenodd"/>
  <path d="M 173 424 L 173 434 L 176 433 L 184 435 L 184 445 L 173 446 L 173 456 L 183 456 L 184 445 L 194 445 L 195 456 L 205 456 L 205 446 L 195 446 L 194 435 L 184 435 L 182 424 Z" fill="#f4f4f4" fill-rule="evenodd"/>
  <path d="M 57 71 L 47 71 L 46 82 L 36 82 L 34 71 L 25 71 L 25 81 L 36 82 L 36 92 L 32 94 L 25 93 L 25 104 L 34 104 L 36 92 L 46 92 L 47 81 L 57 81 Z" fill="#f4f4f4" fill-rule="evenodd"/>
  <path d="M 309 424 L 309 434 L 298 435 L 298 445 L 308 445 L 309 456 L 319 456 L 319 446 L 330 445 L 330 435 L 321 435 L 319 446 L 309 446 L 308 435 L 319 434 L 319 424 Z" fill="#f4f4f4" fill-rule="evenodd"/>
  <path d="M 173 458 L 173 467 L 184 469 L 184 479 L 194 479 L 195 490 L 205 490 L 205 480 L 194 479 L 194 469 L 199 467 L 205 468 L 205 458 L 195 458 L 194 469 L 184 469 L 183 458 Z" fill="#fefefe" fill-rule="evenodd"/>
  <path d="M 264 458 L 264 468 L 274 468 L 275 479 L 285 479 L 286 490 L 296 490 L 296 481 L 285 479 L 285 469 L 296 468 L 296 458 L 286 458 L 285 469 L 275 469 L 273 464 L 273 458 Z" fill="#fefefe" fill-rule="evenodd"/>
  <path d="M 275 458 L 275 468 L 264 469 L 264 479 L 274 479 L 275 490 L 285 490 L 285 481 L 274 479 L 274 469 L 285 468 L 286 479 L 296 479 L 296 469 L 286 469 L 285 458 Z" fill="#f4f4f4" fill-rule="evenodd"/>
  <path d="M 127 424 L 127 434 L 116 435 L 116 445 L 126 445 L 127 456 L 137 456 L 137 446 L 127 446 L 126 435 L 137 434 L 139 439 L 139 445 L 148 445 L 148 435 L 138 435 L 137 424 Z" fill="#f4f4f4" fill-rule="evenodd"/>
  <path d="M 478 333 L 468 333 L 468 343 L 457 344 L 457 354 L 446 355 L 446 365 L 455 365 L 455 358 L 457 354 L 467 354 L 468 365 L 478 365 L 478 355 L 467 354 L 467 344 L 478 342 Z" fill="#f4f4f4" fill-rule="evenodd"/>
  <path d="M 93 458 L 93 468 L 103 468 L 104 479 L 93 480 L 91 476 L 91 469 L 82 469 L 82 479 L 92 479 L 93 490 L 103 490 L 103 480 L 114 479 L 114 469 L 104 469 L 103 458 Z" fill="#f4f4f4" fill-rule="evenodd"/>
  <path d="M 70 185 L 70 195 L 59 196 L 59 206 L 69 206 L 70 217 L 80 217 L 80 207 L 70 207 L 69 196 L 80 195 L 82 198 L 82 206 L 91 206 L 91 196 L 81 196 L 80 185 Z" fill="#f4f4f4" fill-rule="evenodd"/>
  <path d="M 25 367 L 25 377 L 35 377 L 36 388 L 46 388 L 47 399 L 57 399 L 57 389 L 52 390 L 46 388 L 46 378 L 57 377 L 57 367 L 47 367 L 46 378 L 36 378 L 34 375 L 35 367 Z" fill="#f4f4f4" fill-rule="evenodd"/>
  <path d="M 91 128 L 82 128 L 82 135 L 80 139 L 70 139 L 69 128 L 59 128 L 59 138 L 70 139 L 70 149 L 66 151 L 59 151 L 59 160 L 69 160 L 69 150 L 80 149 L 80 139 L 91 138 Z" fill="#f4f4f4" fill-rule="evenodd"/>
  <path d="M 353 366 L 343 373 L 342 378 L 332 378 L 332 388 L 342 388 L 343 399 L 353 399 L 353 390 L 342 388 L 343 377 L 353 377 L 354 388 L 365 388 L 364 378 L 353 377 Z" fill="#f4f4f4" fill-rule="evenodd"/>
  <path d="M 0 458 L 0 468 L 13 469 L 13 479 L 0 480 L 0 490 L 12 490 L 12 480 L 23 479 L 23 469 L 13 469 L 12 458 Z" fill="#f4f4f4" fill-rule="evenodd"/>
  <path d="M 0 276 L 0 286 L 13 287 L 13 297 L 0 298 L 0 308 L 12 308 L 12 298 L 23 297 L 23 287 L 13 287 L 12 276 Z" fill="#f4f4f4" fill-rule="evenodd"/>
  <path d="M 0 185 L 0 195 L 13 196 L 13 206 L 0 207 L 0 217 L 12 217 L 12 207 L 23 206 L 23 196 L 13 196 L 12 185 Z" fill="#f4f4f4" fill-rule="evenodd"/>
  <path d="M 13 219 L 13 229 L 0 230 L 0 240 L 12 240 L 13 251 L 23 252 L 23 241 L 15 242 L 12 240 L 12 230 L 23 229 L 23 219 Z" fill="#f4f4f4" fill-rule="evenodd"/>
  <path d="M 387 333 L 377 333 L 377 343 L 371 344 L 364 356 L 361 358 L 360 361 L 356 363 L 356 365 L 364 365 L 364 358 L 366 354 L 376 354 L 377 365 L 387 365 L 387 355 L 376 354 L 376 344 L 379 342 L 387 342 Z" fill="#f4f4f4" fill-rule="evenodd"/>
  <path d="M 13 333 L 13 343 L 0 344 L 0 354 L 12 354 L 13 365 L 23 365 L 23 355 L 12 354 L 12 344 L 23 342 L 23 333 Z" fill="#f4f4f4" fill-rule="evenodd"/>
  <path d="M 139 344 L 139 354 L 149 354 L 150 365 L 159 365 L 161 367 L 161 377 L 150 378 L 150 388 L 160 388 L 160 378 L 171 377 L 171 372 L 168 372 L 167 369 L 154 360 L 154 358 L 149 354 L 148 349 L 144 346 L 144 344 Z" fill="#f4f4f4" fill-rule="evenodd"/>
  <path d="M 171 185 L 161 185 L 161 195 L 150 196 L 150 206 L 139 207 L 139 217 L 148 217 L 150 206 L 160 206 L 161 212 L 166 209 L 167 207 L 160 206 L 160 196 L 166 194 L 171 195 Z" fill="#f4f4f4" fill-rule="evenodd"/>
  <path d="M 491 14 L 491 24 L 480 25 L 480 35 L 490 35 L 491 46 L 501 47 L 501 36 L 490 35 L 490 25 L 501 24 L 501 14 Z" fill="#f4f4f4" fill-rule="evenodd"/>
  <path d="M 468 242 L 467 253 L 457 253 L 457 263 L 467 263 L 468 274 L 478 274 L 478 264 L 467 263 L 467 253 L 478 252 L 478 241 Z" fill="#f4f4f4" fill-rule="evenodd"/>
  <path d="M 127 151 L 126 162 L 116 162 L 116 172 L 126 172 L 127 183 L 137 183 L 137 173 L 126 172 L 126 162 L 129 160 L 137 161 L 137 150 Z" fill="#f4f4f4" fill-rule="evenodd"/>
  <path d="M 81 219 L 82 229 L 93 230 L 93 240 L 103 240 L 103 230 L 114 229 L 114 219 L 104 219 L 103 230 L 93 230 L 91 223 L 92 219 Z" fill="#f4f4f4" fill-rule="evenodd"/>
  <path d="M 211 93 L 207 94 L 207 104 L 217 104 L 218 115 L 207 116 L 207 126 L 217 126 L 217 116 L 228 115 L 228 105 L 218 105 L 217 94 Z" fill="#f4f4f4" fill-rule="evenodd"/>
  <path d="M 480 458 L 480 468 L 491 469 L 491 479 L 480 480 L 480 490 L 490 490 L 490 480 L 501 479 L 501 469 L 491 469 L 490 458 Z" fill="#f4f4f4" fill-rule="evenodd"/>
  <path d="M 252 458 L 252 468 L 241 469 L 241 479 L 251 479 L 252 490 L 262 490 L 262 480 L 251 479 L 251 469 L 262 468 L 262 458 Z" fill="#f4f4f4" fill-rule="evenodd"/>
  <path d="M 161 458 L 161 468 L 150 469 L 150 479 L 160 479 L 161 490 L 171 490 L 171 480 L 160 479 L 160 469 L 171 468 L 171 458 Z" fill="#f4f4f4" fill-rule="evenodd"/>
  <path d="M 116 458 L 116 468 L 127 469 L 127 479 L 116 480 L 116 490 L 126 490 L 126 480 L 137 479 L 137 469 L 127 469 L 126 458 Z" fill="#f4f4f4" fill-rule="evenodd"/>
  <path d="M 70 458 L 70 468 L 59 469 L 59 479 L 69 479 L 70 490 L 80 490 L 80 480 L 69 479 L 69 469 L 80 468 L 80 458 Z" fill="#f4f4f4" fill-rule="evenodd"/>
  <path d="M 47 458 L 47 468 L 36 469 L 36 479 L 46 479 L 47 490 L 57 490 L 57 480 L 46 479 L 46 469 L 57 468 L 57 458 Z" fill="#f4f4f4" fill-rule="evenodd"/>
  <path d="M 241 424 L 241 434 L 252 435 L 252 445 L 241 446 L 241 456 L 251 456 L 251 446 L 262 445 L 262 435 L 252 435 L 251 424 Z" fill="#f4f4f4" fill-rule="evenodd"/>
  <path d="M 36 424 L 36 434 L 47 435 L 47 445 L 36 446 L 36 456 L 46 456 L 46 446 L 57 445 L 57 435 L 47 435 L 46 424 Z" fill="#f4f4f4" fill-rule="evenodd"/>
  <path d="M 389 412 L 389 422 L 399 422 L 400 411 L 410 411 L 411 422 L 421 422 L 421 412 L 411 412 L 410 401 L 400 401 L 400 411 Z" fill="#f4f4f4" fill-rule="evenodd"/>
  <path d="M 332 401 L 332 411 L 342 411 L 343 422 L 353 422 L 353 412 L 364 411 L 364 401 L 354 401 L 353 412 L 343 412 L 342 401 Z" fill="#f4f4f4" fill-rule="evenodd"/>
  <path d="M 173 401 L 173 411 L 183 411 L 184 422 L 194 422 L 194 412 L 205 411 L 205 401 L 195 401 L 194 412 L 184 412 L 183 401 Z" fill="#f4f4f4" fill-rule="evenodd"/>
  <path d="M 491 333 L 491 343 L 480 344 L 480 354 L 490 354 L 491 365 L 501 365 L 501 355 L 490 354 L 490 344 L 501 343 L 501 333 Z" fill="#f4f4f4" fill-rule="evenodd"/>
  <path d="M 480 276 L 480 286 L 491 287 L 491 297 L 480 298 L 480 308 L 490 308 L 490 298 L 501 297 L 501 287 L 491 287 L 490 276 Z" fill="#f4f4f4" fill-rule="evenodd"/>
  <path d="M 434 185 L 434 195 L 423 196 L 423 206 L 433 206 L 434 217 L 444 217 L 444 207 L 433 206 L 433 196 L 444 195 L 444 185 Z" fill="#f4f4f4" fill-rule="evenodd"/>
  <path d="M 116 185 L 116 195 L 127 196 L 127 206 L 116 207 L 116 217 L 126 217 L 126 207 L 137 206 L 137 196 L 127 196 L 126 185 Z" fill="#f4f4f4" fill-rule="evenodd"/>
  <path d="M 93 185 L 93 195 L 104 196 L 104 206 L 93 207 L 93 217 L 103 217 L 103 207 L 114 206 L 114 196 L 104 196 L 103 185 Z" fill="#f4f4f4" fill-rule="evenodd"/>
  <path d="M 298 162 L 298 172 L 308 172 L 309 183 L 319 183 L 319 173 L 330 172 L 330 162 L 320 162 L 319 173 L 309 173 L 308 162 Z" fill="#f4f4f4" fill-rule="evenodd"/>
  <path d="M 36 128 L 36 138 L 47 139 L 47 149 L 36 150 L 36 160 L 46 160 L 46 150 L 57 149 L 57 139 L 47 139 L 46 128 Z" fill="#f4f4f4" fill-rule="evenodd"/>
  <path d="M 332 105 L 332 115 L 342 115 L 343 126 L 353 126 L 353 116 L 364 115 L 364 105 L 354 105 L 353 116 L 343 116 L 342 105 Z" fill="#f4f4f4" fill-rule="evenodd"/>
  <path d="M 298 25 L 298 35 L 308 35 L 309 24 L 319 24 L 320 35 L 330 35 L 330 25 L 320 25 L 319 14 L 309 14 L 309 24 Z" fill="#f4f4f4" fill-rule="evenodd"/>
  <path d="M 332 458 L 332 468 L 343 469 L 343 479 L 332 480 L 332 490 L 342 490 L 342 480 L 353 479 L 353 469 L 343 469 L 342 458 Z" fill="#fefefe" fill-rule="evenodd"/>
  <path d="M 309 458 L 309 468 L 298 469 L 298 479 L 308 479 L 309 490 L 319 490 L 319 480 L 308 479 L 308 469 L 319 468 L 319 458 Z" fill="#fefefe" fill-rule="evenodd"/>
  <path d="M 127 458 L 127 468 L 116 469 L 116 479 L 126 479 L 127 490 L 137 490 L 137 480 L 126 479 L 126 469 L 137 468 L 137 458 Z" fill="#fefefe" fill-rule="evenodd"/>
  <path d="M 59 458 L 59 468 L 70 469 L 70 479 L 59 480 L 59 490 L 69 490 L 69 480 L 80 479 L 80 469 L 70 469 L 69 458 Z" fill="#fefefe" fill-rule="evenodd"/>
  <path d="M 207 412 L 207 422 L 217 422 L 218 411 L 228 411 L 229 421 L 239 422 L 239 412 L 229 412 L 228 401 L 218 401 L 218 411 Z" fill="#f4f4f4" fill-rule="evenodd"/>
  <path d="M 423 401 L 423 411 L 433 411 L 434 422 L 444 422 L 444 412 L 455 411 L 456 401 L 446 401 L 446 407 L 444 412 L 434 412 L 433 401 Z" fill="#f4f4f4" fill-rule="evenodd"/>
  <path d="M 423 333 L 423 342 L 434 344 L 434 354 L 423 355 L 423 365 L 433 365 L 433 355 L 444 354 L 444 344 L 434 344 L 433 333 Z" fill="#f4f4f4" fill-rule="evenodd"/>
  <path d="M 70 276 L 70 286 L 59 287 L 59 297 L 69 297 L 70 308 L 80 308 L 80 299 L 69 297 L 69 287 L 80 286 L 80 276 Z" fill="#f4f4f4" fill-rule="evenodd"/>
  <path d="M 366 185 L 366 194 L 377 196 L 377 206 L 366 207 L 366 217 L 376 217 L 376 207 L 387 206 L 387 196 L 377 196 L 376 185 Z" fill="#f4f4f4" fill-rule="evenodd"/>
  <path d="M 173 82 L 173 92 L 182 92 L 184 81 L 194 81 L 195 92 L 205 92 L 205 82 L 195 82 L 194 71 L 184 71 L 184 81 Z" fill="#f4f4f4" fill-rule="evenodd"/>
  <path d="M 150 458 L 150 468 L 161 469 L 161 479 L 150 481 L 150 490 L 160 490 L 160 480 L 171 479 L 171 469 L 161 469 L 160 458 Z" fill="#fefefe" fill-rule="evenodd"/>
  <path d="M 264 412 L 264 422 L 273 422 L 275 411 L 285 411 L 286 422 L 296 422 L 296 412 L 286 412 L 285 401 L 275 401 L 275 411 Z" fill="#fefefe" fill-rule="evenodd"/>
  <path d="M 207 14 L 207 24 L 217 24 L 218 35 L 228 35 L 228 25 L 239 24 L 239 14 L 230 14 L 228 25 L 218 25 L 217 14 Z" fill="#fefefe" fill-rule="evenodd"/>
  <path d="M 292 423 L 286 424 L 285 435 L 275 435 L 275 445 L 285 445 L 286 456 L 296 456 L 296 446 L 285 445 L 285 435 L 291 433 L 296 434 L 296 424 Z" fill="#f4f4f4" fill-rule="evenodd"/>
  <path d="M 480 185 L 480 195 L 484 194 L 491 196 L 491 206 L 480 207 L 480 217 L 490 217 L 490 207 L 501 206 L 501 196 L 491 196 L 490 185 Z" fill="#f4f4f4" fill-rule="evenodd"/>
  <path d="M 173 173 L 173 183 L 183 183 L 182 176 L 184 172 L 194 172 L 195 183 L 205 183 L 205 173 L 195 173 L 194 162 L 184 162 L 184 172 Z" fill="#f4f4f4" fill-rule="evenodd"/>
  <path d="M 389 116 L 389 126 L 399 126 L 400 115 L 410 115 L 412 120 L 411 126 L 421 126 L 421 116 L 411 116 L 410 105 L 400 105 L 400 115 Z" fill="#f4f4f4" fill-rule="evenodd"/>
  <path d="M 423 458 L 423 468 L 428 467 L 434 469 L 434 479 L 423 480 L 423 490 L 433 490 L 433 480 L 444 479 L 444 469 L 434 469 L 433 458 Z" fill="#fefefe" fill-rule="evenodd"/>
  <path d="M 25 412 L 25 422 L 34 422 L 36 411 L 46 411 L 47 422 L 57 422 L 57 412 L 47 412 L 46 401 L 36 401 L 36 411 Z" fill="#f4f4f4" fill-rule="evenodd"/>
  <path d="M 491 458 L 491 468 L 480 469 L 480 479 L 490 479 L 491 490 L 501 490 L 501 481 L 490 479 L 490 469 L 501 468 L 501 458 Z" fill="#fefefe" fill-rule="evenodd"/>
  <path d="M 173 25 L 173 35 L 182 35 L 184 24 L 194 24 L 195 35 L 205 35 L 205 25 L 195 25 L 194 14 L 184 14 L 184 24 Z" fill="#fefefe" fill-rule="evenodd"/>
  <path d="M 218 458 L 218 468 L 207 469 L 207 479 L 217 479 L 218 490 L 228 490 L 228 480 L 224 481 L 217 479 L 217 469 L 228 468 L 228 458 Z" fill="#fefefe" fill-rule="evenodd"/>
  <path d="M 264 435 L 264 445 L 274 445 L 275 456 L 285 456 L 285 446 L 296 445 L 296 435 L 286 435 L 285 446 L 275 446 L 273 441 L 274 435 Z" fill="#fefefe" fill-rule="evenodd"/>
  <path d="M 173 48 L 173 58 L 183 58 L 184 69 L 194 69 L 194 59 L 205 58 L 205 48 L 195 48 L 194 59 L 184 59 L 182 56 L 183 48 Z" fill="#fefefe" fill-rule="evenodd"/>
  <path d="M 480 367 L 480 377 L 491 378 L 491 388 L 480 390 L 480 399 L 490 399 L 490 389 L 501 388 L 501 378 L 491 378 L 490 367 Z" fill="#f4f4f4" fill-rule="evenodd"/>
  <path d="M 389 367 L 389 377 L 399 377 L 400 388 L 410 388 L 410 378 L 421 377 L 421 367 L 411 367 L 412 375 L 410 378 L 400 378 L 398 367 Z" fill="#f4f4f4" fill-rule="evenodd"/>
  <path d="M 173 139 L 173 149 L 183 149 L 182 144 L 184 138 L 194 138 L 195 149 L 205 149 L 205 139 L 195 139 L 194 128 L 184 128 L 184 138 Z" fill="#fefefe" fill-rule="evenodd"/>
  <path d="M 173 71 L 173 81 L 183 81 L 184 92 L 194 92 L 194 82 L 205 81 L 205 71 L 195 71 L 194 82 L 184 82 L 182 78 L 183 71 Z" fill="#fefefe" fill-rule="evenodd"/>
  <path d="M 25 321 L 25 331 L 34 331 L 34 325 L 36 320 L 46 320 L 47 331 L 57 331 L 57 321 L 47 321 L 46 310 L 36 310 L 36 320 Z" fill="#f4f4f4" fill-rule="evenodd"/>
  <path d="M 491 276 L 491 286 L 480 287 L 480 297 L 490 297 L 491 308 L 501 308 L 501 298 L 490 297 L 490 287 L 495 285 L 501 286 L 501 276 Z" fill="#fefefe" fill-rule="evenodd"/>
  <path d="M 389 344 L 389 354 L 399 354 L 400 365 L 410 365 L 410 355 L 421 354 L 421 344 L 411 344 L 410 355 L 400 355 L 398 344 Z" fill="#f4f4f4" fill-rule="evenodd"/>
  <path d="M 116 367 L 116 377 L 127 378 L 127 388 L 124 390 L 116 390 L 116 399 L 126 399 L 126 389 L 137 388 L 137 378 L 127 378 L 126 367 Z" fill="#f4f4f4" fill-rule="evenodd"/>
  <path d="M 93 367 L 93 377 L 104 378 L 104 388 L 99 390 L 93 390 L 93 399 L 103 399 L 103 389 L 114 388 L 114 378 L 104 378 L 103 367 Z" fill="#f4f4f4" fill-rule="evenodd"/>
  <path d="M 104 37 L 104 47 L 93 48 L 93 58 L 103 58 L 104 69 L 114 69 L 114 59 L 103 58 L 103 48 L 108 46 L 114 46 L 114 37 Z" fill="#f4f4f4" fill-rule="evenodd"/>
  <path d="M 377 458 L 377 468 L 366 469 L 366 479 L 376 479 L 377 490 L 387 490 L 387 480 L 376 479 L 376 469 L 380 467 L 387 467 L 387 458 Z" fill="#fefefe" fill-rule="evenodd"/>
  <path d="M 59 105 L 59 115 L 69 115 L 70 126 L 80 126 L 80 116 L 91 115 L 91 105 L 82 105 L 82 113 L 80 116 L 70 116 L 69 105 Z" fill="#f4f4f4" fill-rule="evenodd"/>
  <path d="M 91 424 L 82 424 L 80 435 L 70 435 L 70 445 L 59 446 L 59 456 L 69 456 L 69 446 L 80 445 L 80 435 L 91 433 Z" fill="#f4f4f4" fill-rule="evenodd"/>
  <path d="M 389 230 L 389 239 L 399 239 L 398 233 L 400 229 L 410 229 L 412 236 L 411 240 L 421 240 L 421 230 L 411 230 L 410 219 L 400 219 L 400 229 Z" fill="#f4f4f4" fill-rule="evenodd"/>
  <path d="M 446 253 L 446 263 L 456 263 L 457 274 L 467 274 L 467 264 L 478 263 L 478 253 L 469 253 L 469 260 L 467 264 L 457 264 L 455 260 L 455 253 Z" fill="#fefefe" fill-rule="evenodd"/>
  <path d="M 480 48 L 480 58 L 490 58 L 491 69 L 501 69 L 501 59 L 511 58 L 511 48 L 503 48 L 503 54 L 501 59 L 491 59 L 490 48 Z" fill="#f4f4f4" fill-rule="evenodd"/>
  <path d="M 480 435 L 480 445 L 490 445 L 491 456 L 501 456 L 501 446 L 511 445 L 511 435 L 503 435 L 503 443 L 501 446 L 491 446 L 490 435 Z" fill="#f4f4f4" fill-rule="evenodd"/>
  <path d="M 207 492 L 207 502 L 217 502 L 218 511 L 228 511 L 229 502 L 239 502 L 239 492 L 229 492 L 228 503 L 218 503 L 217 492 Z" fill="#fefefe" fill-rule="evenodd"/>
  <path d="M 332 492 L 332 502 L 342 502 L 343 511 L 353 511 L 354 502 L 364 502 L 365 492 L 355 492 L 353 503 L 343 503 L 342 492 Z" fill="#f4f4f4" fill-rule="evenodd"/>
  <path d="M 173 492 L 173 502 L 183 502 L 184 511 L 194 511 L 195 502 L 205 501 L 205 492 L 195 492 L 194 503 L 184 503 L 183 492 Z" fill="#f4f4f4" fill-rule="evenodd"/>
  <path d="M 425 320 L 434 321 L 434 331 L 444 331 L 444 321 L 455 320 L 456 310 L 446 310 L 444 321 L 434 321 L 433 310 L 428 310 Z" fill="#f4f4f4" fill-rule="evenodd"/>
  <path d="M 90 318 L 87 314 L 87 309 L 82 310 L 80 321 L 70 321 L 69 310 L 59 310 L 59 320 L 69 320 L 70 331 L 80 331 L 80 321 L 90 320 Z" fill="#f4f4f4" fill-rule="evenodd"/>
  <path d="M 298 503 L 298 511 L 308 511 L 309 502 L 319 502 L 320 511 L 330 511 L 330 503 L 319 502 L 319 492 L 309 492 L 309 502 Z" fill="#f4f4f4" fill-rule="evenodd"/>
  <path d="M 389 503 L 389 511 L 398 511 L 400 502 L 410 502 L 411 511 L 421 511 L 421 503 L 410 502 L 410 492 L 400 492 L 400 502 Z" fill="#f4f4f4" fill-rule="evenodd"/>
  <path d="M 207 503 L 207 511 L 217 511 L 218 502 L 228 502 L 230 506 L 229 511 L 239 511 L 239 503 L 228 502 L 228 492 L 218 492 L 218 502 Z" fill="#f4f4f4" fill-rule="evenodd"/>
  <path d="M 332 196 L 333 200 L 342 203 L 343 195 L 353 195 L 354 206 L 364 206 L 364 196 L 354 196 L 353 185 L 343 185 L 343 195 Z" fill="#f4f4f4" fill-rule="evenodd"/>
  <path d="M 423 242 L 423 251 L 429 251 L 434 253 L 434 263 L 428 265 L 429 274 L 433 274 L 433 264 L 444 263 L 444 253 L 434 253 L 433 242 Z" fill="#f4f4f4" fill-rule="evenodd"/>
  <path d="M 377 219 L 377 229 L 370 231 L 375 240 L 377 241 L 379 251 L 388 252 L 387 242 L 376 240 L 376 230 L 387 229 L 387 219 Z" fill="#f4f4f4" fill-rule="evenodd"/>
  <path d="M 0 435 L 0 445 L 12 445 L 13 456 L 23 456 L 23 446 L 13 446 L 12 435 Z" fill="#f4f4f4" fill-rule="evenodd"/>
  <path d="M 23 401 L 13 401 L 12 412 L 0 412 L 0 422 L 12 422 L 12 412 L 23 411 Z" fill="#f4f4f4" fill-rule="evenodd"/>
  <path d="M 0 367 L 0 377 L 12 377 L 13 388 L 23 388 L 23 378 L 13 378 L 12 367 Z" fill="#f4f4f4" fill-rule="evenodd"/>
  <path d="M 23 310 L 13 310 L 12 321 L 0 321 L 0 331 L 12 331 L 12 321 L 23 320 Z" fill="#f4f4f4" fill-rule="evenodd"/>
  <path d="M 0 253 L 0 263 L 12 263 L 13 274 L 23 274 L 23 264 L 13 264 L 12 253 Z" fill="#f4f4f4" fill-rule="evenodd"/>
  <path d="M 0 162 L 0 172 L 12 172 L 13 183 L 23 183 L 23 173 L 13 173 L 12 162 Z" fill="#f4f4f4" fill-rule="evenodd"/>
  <path d="M 23 128 L 13 128 L 12 139 L 0 139 L 0 149 L 12 149 L 12 139 L 23 138 Z" fill="#f4f4f4" fill-rule="evenodd"/>
  <path d="M 23 105 L 13 105 L 12 116 L 0 116 L 0 126 L 12 126 L 12 116 L 23 115 Z" fill="#f4f4f4" fill-rule="evenodd"/>
  <path d="M 0 71 L 0 81 L 12 81 L 13 92 L 23 92 L 23 82 L 13 82 L 12 71 Z" fill="#f4f4f4" fill-rule="evenodd"/>
  <path d="M 23 458 L 13 458 L 12 469 L 0 469 L 0 479 L 12 479 L 12 469 L 23 468 Z" fill="#fefefe" fill-rule="evenodd"/>
  <path d="M 23 435 L 13 435 L 12 446 L 0 446 L 0 456 L 12 456 L 12 446 L 23 445 Z" fill="#fefefe" fill-rule="evenodd"/>
  <path d="M 0 401 L 0 411 L 12 411 L 13 422 L 23 422 L 23 412 L 13 412 L 12 401 Z" fill="#fefefe" fill-rule="evenodd"/>
  <path d="M 23 367 L 13 367 L 12 378 L 0 378 L 0 388 L 12 388 L 12 378 L 23 377 Z" fill="#fefefe" fill-rule="evenodd"/>
  <path d="M 23 344 L 13 344 L 12 355 L 0 355 L 0 365 L 12 365 L 12 355 L 23 354 Z" fill="#fefefe" fill-rule="evenodd"/>
  <path d="M 0 310 L 0 320 L 12 320 L 13 331 L 23 331 L 23 321 L 13 321 L 12 310 Z" fill="#fefefe" fill-rule="evenodd"/>
  <path d="M 0 287 L 0 297 L 12 297 L 13 308 L 23 308 L 23 298 L 13 298 L 12 287 Z" fill="#fefefe" fill-rule="evenodd"/>
  <path d="M 23 253 L 13 253 L 12 264 L 0 264 L 0 274 L 12 274 L 12 264 L 23 263 Z" fill="#fefefe" fill-rule="evenodd"/>
  <path d="M 0 219 L 0 229 L 12 229 L 13 240 L 23 240 L 23 230 L 13 230 L 12 219 Z" fill="#fefefe" fill-rule="evenodd"/>
  <path d="M 23 162 L 13 162 L 12 173 L 0 173 L 0 183 L 12 183 L 12 173 L 23 172 Z" fill="#fefefe" fill-rule="evenodd"/>
  <path d="M 0 128 L 0 138 L 12 138 L 13 149 L 23 149 L 23 139 L 13 139 L 12 128 Z" fill="#fefefe" fill-rule="evenodd"/>
  <path d="M 23 71 L 13 71 L 12 82 L 0 82 L 0 92 L 12 92 L 12 82 L 23 81 Z" fill="#fefefe" fill-rule="evenodd"/>
  <path d="M 23 48 L 13 48 L 12 59 L 0 59 L 0 69 L 12 69 L 12 59 L 23 58 Z" fill="#fefefe" fill-rule="evenodd"/>
  <path d="M 0 14 L 0 24 L 12 24 L 13 35 L 23 35 L 23 25 L 13 25 L 12 14 Z" fill="#fefefe" fill-rule="evenodd"/>
  <path d="M 0 105 L 0 115 L 12 115 L 13 126 L 23 126 L 23 117 L 12 115 L 12 105 Z" fill="#fefefe" fill-rule="evenodd"/>
  <path d="M 23 185 L 13 185 L 12 196 L 0 196 L 0 206 L 12 206 L 12 196 L 16 194 L 23 194 Z" fill="#fefefe" fill-rule="evenodd"/>
  <path d="M 93 219 L 93 229 L 103 229 L 104 240 L 114 240 L 114 230 L 104 230 L 103 219 Z" fill="#fefefe" fill-rule="evenodd"/>
  <path d="M 421 435 L 411 435 L 411 445 L 400 446 L 400 456 L 410 456 L 410 446 L 421 445 Z" fill="#f4f4f4" fill-rule="evenodd"/>
  <path d="M 171 435 L 161 435 L 161 445 L 150 446 L 150 456 L 160 456 L 160 446 L 171 445 Z" fill="#f4f4f4" fill-rule="evenodd"/>
  <path d="M 93 435 L 93 445 L 103 445 L 104 456 L 114 456 L 114 446 L 104 446 L 103 435 Z" fill="#f4f4f4" fill-rule="evenodd"/>
  <path d="M 501 401 L 491 401 L 491 411 L 480 412 L 480 422 L 490 422 L 490 412 L 501 411 Z" fill="#f4f4f4" fill-rule="evenodd"/>
  <path d="M 478 401 L 468 401 L 468 411 L 457 412 L 457 422 L 467 422 L 467 412 L 478 411 Z" fill="#f4f4f4" fill-rule="evenodd"/>
  <path d="M 387 401 L 377 401 L 377 411 L 366 412 L 366 422 L 376 422 L 376 412 L 387 411 Z" fill="#f4f4f4" fill-rule="evenodd"/>
  <path d="M 319 401 L 309 401 L 309 411 L 298 412 L 298 422 L 308 422 L 308 412 L 319 411 Z" fill="#f4f4f4" fill-rule="evenodd"/>
  <path d="M 296 401 L 286 401 L 286 411 L 275 412 L 275 422 L 285 422 L 285 412 L 296 411 Z" fill="#f4f4f4" fill-rule="evenodd"/>
  <path d="M 241 401 L 241 411 L 251 411 L 252 422 L 262 422 L 262 412 L 252 412 L 251 401 Z" fill="#f4f4f4" fill-rule="evenodd"/>
  <path d="M 150 401 L 150 411 L 160 411 L 161 422 L 171 422 L 171 412 L 161 412 L 160 401 Z" fill="#f4f4f4" fill-rule="evenodd"/>
  <path d="M 137 401 L 127 401 L 127 411 L 116 412 L 116 422 L 126 422 L 126 412 L 137 411 Z" fill="#f4f4f4" fill-rule="evenodd"/>
  <path d="M 114 401 L 104 401 L 104 411 L 93 412 L 93 422 L 103 422 L 103 412 L 114 411 Z" fill="#f4f4f4" fill-rule="evenodd"/>
  <path d="M 59 401 L 59 411 L 69 411 L 70 422 L 80 422 L 80 412 L 70 412 L 69 401 Z" fill="#f4f4f4" fill-rule="evenodd"/>
  <path d="M 444 367 L 434 367 L 434 377 L 423 378 L 423 388 L 433 388 L 433 378 L 444 377 Z" fill="#f4f4f4" fill-rule="evenodd"/>
  <path d="M 366 367 L 366 377 L 376 377 L 377 388 L 387 388 L 387 378 L 377 378 L 376 367 Z" fill="#f4f4f4" fill-rule="evenodd"/>
  <path d="M 80 367 L 70 367 L 70 377 L 59 378 L 59 388 L 69 388 L 69 378 L 80 377 Z" fill="#f4f4f4" fill-rule="evenodd"/>
  <path d="M 116 344 L 116 354 L 126 354 L 127 365 L 137 365 L 137 355 L 127 355 L 126 344 Z" fill="#f4f4f4" fill-rule="evenodd"/>
  <path d="M 501 310 L 491 310 L 491 320 L 480 321 L 480 331 L 490 331 L 490 321 L 501 320 Z" fill="#f4f4f4" fill-rule="evenodd"/>
  <path d="M 478 310 L 468 310 L 468 320 L 457 321 L 457 331 L 467 331 L 467 321 L 478 320 Z" fill="#f4f4f4" fill-rule="evenodd"/>
  <path d="M 36 219 L 36 229 L 46 229 L 47 240 L 57 240 L 57 230 L 47 230 L 46 219 Z" fill="#f4f4f4" fill-rule="evenodd"/>
  <path d="M 480 162 L 480 172 L 490 172 L 491 183 L 501 183 L 501 173 L 491 173 L 490 162 Z" fill="#f4f4f4" fill-rule="evenodd"/>
  <path d="M 457 162 L 457 172 L 467 172 L 468 183 L 478 183 L 478 173 L 468 173 L 467 162 Z" fill="#f4f4f4" fill-rule="evenodd"/>
  <path d="M 444 162 L 434 162 L 434 172 L 423 173 L 423 183 L 433 183 L 433 173 L 444 172 Z" fill="#f4f4f4" fill-rule="evenodd"/>
  <path d="M 207 162 L 207 172 L 217 172 L 218 183 L 228 183 L 228 173 L 218 173 L 217 162 Z" fill="#f4f4f4" fill-rule="evenodd"/>
  <path d="M 80 162 L 70 162 L 70 172 L 59 173 L 59 183 L 69 183 L 69 173 L 80 172 Z" fill="#f4f4f4" fill-rule="evenodd"/>
  <path d="M 57 162 L 47 162 L 47 172 L 36 173 L 36 183 L 46 183 L 46 173 L 57 172 Z" fill="#f4f4f4" fill-rule="evenodd"/>
  <path d="M 501 128 L 491 128 L 491 138 L 480 139 L 480 149 L 490 149 L 490 139 L 501 138 Z" fill="#f4f4f4" fill-rule="evenodd"/>
  <path d="M 150 128 L 150 138 L 160 138 L 161 149 L 171 149 L 171 139 L 161 139 L 160 128 Z" fill="#f4f4f4" fill-rule="evenodd"/>
  <path d="M 137 128 L 127 128 L 127 138 L 116 139 L 116 149 L 126 149 L 126 139 L 137 138 Z" fill="#f4f4f4" fill-rule="evenodd"/>
  <path d="M 501 105 L 491 105 L 491 115 L 480 116 L 480 126 L 490 126 L 490 116 L 501 115 Z" fill="#f4f4f4" fill-rule="evenodd"/>
  <path d="M 423 105 L 423 115 L 433 115 L 434 126 L 444 126 L 444 116 L 434 116 L 433 105 Z" fill="#f4f4f4" fill-rule="evenodd"/>
  <path d="M 480 71 L 480 81 L 490 81 L 491 92 L 501 92 L 501 82 L 491 82 L 490 71 Z" fill="#f4f4f4" fill-rule="evenodd"/>
  <path d="M 444 71 L 434 71 L 434 81 L 423 82 L 423 92 L 433 92 L 433 82 L 444 81 Z" fill="#f4f4f4" fill-rule="evenodd"/>
  <path d="M 80 71 L 70 71 L 70 81 L 59 82 L 59 92 L 69 92 L 69 82 L 80 81 Z" fill="#f4f4f4" fill-rule="evenodd"/>
  <path d="M 444 48 L 434 48 L 434 58 L 423 59 L 423 69 L 433 69 L 433 59 L 444 58 Z" fill="#f4f4f4" fill-rule="evenodd"/>
  <path d="M 114 14 L 104 14 L 104 24 L 93 25 L 93 35 L 103 35 L 103 25 L 114 24 Z" fill="#f4f4f4" fill-rule="evenodd"/>
  <path d="M 36 14 L 36 24 L 46 24 L 47 35 L 57 35 L 57 25 L 47 25 L 46 14 Z" fill="#f4f4f4" fill-rule="evenodd"/>
  <path d="M 0 492 L 0 502 L 12 502 L 13 511 L 23 511 L 23 503 L 12 502 L 12 492 Z" fill="#fefefe" fill-rule="evenodd"/>
  <path d="M 501 435 L 491 435 L 491 445 L 480 446 L 480 456 L 490 456 L 490 446 L 501 445 Z" fill="#fefefe" fill-rule="evenodd"/>
  <path d="M 423 435 L 423 445 L 433 445 L 434 456 L 444 456 L 444 446 L 434 446 L 433 435 Z" fill="#fefefe" fill-rule="evenodd"/>
  <path d="M 387 435 L 377 435 L 377 445 L 366 446 L 366 456 L 376 456 L 376 446 L 387 445 Z" fill="#fefefe" fill-rule="evenodd"/>
  <path d="M 332 435 L 332 445 L 342 445 L 343 456 L 353 456 L 353 446 L 343 446 L 342 435 Z" fill="#fefefe" fill-rule="evenodd"/>
  <path d="M 241 435 L 241 445 L 251 445 L 252 456 L 262 456 L 262 446 L 252 446 L 251 435 Z" fill="#fefefe" fill-rule="evenodd"/>
  <path d="M 228 435 L 218 435 L 218 445 L 207 446 L 207 456 L 217 456 L 217 446 L 228 445 Z" fill="#fefefe" fill-rule="evenodd"/>
  <path d="M 205 435 L 195 435 L 195 445 L 184 446 L 184 456 L 194 456 L 194 446 L 205 445 Z" fill="#fefefe" fill-rule="evenodd"/>
  <path d="M 150 435 L 150 445 L 160 445 L 161 456 L 171 456 L 171 446 L 161 446 L 160 435 Z" fill="#fefefe" fill-rule="evenodd"/>
  <path d="M 137 435 L 127 435 L 127 445 L 116 446 L 116 456 L 126 456 L 126 446 L 137 445 Z" fill="#fefefe" fill-rule="evenodd"/>
  <path d="M 114 435 L 104 435 L 104 445 L 93 446 L 93 456 L 103 456 L 103 446 L 114 445 Z" fill="#fefefe" fill-rule="evenodd"/>
  <path d="M 59 435 L 59 445 L 69 445 L 70 456 L 80 456 L 80 446 L 70 446 L 69 435 Z" fill="#fefefe" fill-rule="evenodd"/>
  <path d="M 36 435 L 36 445 L 46 445 L 47 456 L 57 456 L 57 446 L 47 446 L 46 435 Z" fill="#fefefe" fill-rule="evenodd"/>
  <path d="M 480 401 L 480 411 L 490 411 L 491 422 L 501 422 L 501 412 L 491 412 L 490 401 Z" fill="#fefefe" fill-rule="evenodd"/>
  <path d="M 444 401 L 434 401 L 434 411 L 423 412 L 423 422 L 433 422 L 433 412 L 444 411 Z" fill="#fefefe" fill-rule="evenodd"/>
  <path d="M 366 401 L 366 411 L 376 411 L 377 422 L 387 422 L 387 412 L 377 412 L 376 401 Z" fill="#fefefe" fill-rule="evenodd"/>
  <path d="M 353 401 L 343 401 L 343 411 L 332 412 L 332 422 L 342 422 L 342 412 L 353 411 Z" fill="#fefefe" fill-rule="evenodd"/>
  <path d="M 298 401 L 298 411 L 308 411 L 309 422 L 319 422 L 319 412 L 309 412 L 308 401 Z" fill="#fefefe" fill-rule="evenodd"/>
  <path d="M 262 401 L 252 401 L 252 411 L 241 412 L 241 422 L 251 422 L 251 412 L 262 411 Z" fill="#fefefe" fill-rule="evenodd"/>
  <path d="M 207 401 L 207 411 L 217 411 L 218 422 L 228 422 L 228 412 L 218 412 L 217 401 Z" fill="#fefefe" fill-rule="evenodd"/>
  <path d="M 184 401 L 184 411 L 194 411 L 195 422 L 205 422 L 205 412 L 195 412 L 194 401 Z" fill="#fefefe" fill-rule="evenodd"/>
  <path d="M 171 401 L 161 401 L 161 411 L 150 412 L 150 422 L 160 422 L 160 412 L 171 411 Z" fill="#fefefe" fill-rule="evenodd"/>
  <path d="M 116 401 L 116 411 L 126 411 L 127 422 L 137 422 L 137 412 L 127 412 L 126 401 Z" fill="#fefefe" fill-rule="evenodd"/>
  <path d="M 93 401 L 93 411 L 103 411 L 104 422 L 114 422 L 114 412 L 104 412 L 103 401 Z" fill="#fefefe" fill-rule="evenodd"/>
  <path d="M 80 401 L 70 401 L 70 411 L 59 412 L 59 422 L 69 422 L 69 412 L 80 411 Z" fill="#fefefe" fill-rule="evenodd"/>
  <path d="M 57 401 L 47 401 L 47 411 L 36 412 L 36 422 L 46 422 L 46 412 L 57 411 Z" fill="#fefefe" fill-rule="evenodd"/>
  <path d="M 501 367 L 491 367 L 491 377 L 480 378 L 480 388 L 490 388 L 490 378 L 501 377 Z" fill="#fefefe" fill-rule="evenodd"/>
  <path d="M 387 367 L 377 367 L 377 377 L 366 378 L 366 388 L 376 388 L 376 378 L 387 377 Z" fill="#fefefe" fill-rule="evenodd"/>
  <path d="M 137 367 L 127 367 L 127 377 L 116 378 L 116 388 L 126 388 L 126 378 L 137 377 Z" fill="#fefefe" fill-rule="evenodd"/>
  <path d="M 114 367 L 104 367 L 104 377 L 93 378 L 93 388 L 103 388 L 103 378 L 114 377 Z" fill="#fefefe" fill-rule="evenodd"/>
  <path d="M 501 344 L 491 344 L 491 354 L 480 355 L 480 365 L 490 365 L 490 355 L 501 354 Z" fill="#fefefe" fill-rule="evenodd"/>
  <path d="M 423 344 L 423 354 L 433 354 L 434 365 L 444 365 L 444 355 L 434 355 L 433 344 Z" fill="#fefefe" fill-rule="evenodd"/>
  <path d="M 387 344 L 377 344 L 377 354 L 366 355 L 366 365 L 376 365 L 376 355 L 387 354 Z" fill="#fefefe" fill-rule="evenodd"/>
  <path d="M 137 344 L 127 344 L 127 354 L 116 355 L 116 365 L 126 365 L 126 355 L 137 354 Z" fill="#fefefe" fill-rule="evenodd"/>
  <path d="M 114 344 L 104 344 L 104 354 L 93 355 L 93 365 L 103 365 L 103 355 L 114 354 Z" fill="#fefefe" fill-rule="evenodd"/>
  <path d="M 59 344 L 59 354 L 69 354 L 70 365 L 80 365 L 80 355 L 70 355 L 69 344 Z" fill="#fefefe" fill-rule="evenodd"/>
  <path d="M 36 344 L 36 354 L 46 354 L 47 365 L 57 365 L 57 355 L 47 355 L 46 344 Z" fill="#fefefe" fill-rule="evenodd"/>
  <path d="M 480 310 L 480 320 L 490 320 L 491 331 L 501 331 L 501 321 L 491 321 L 490 310 Z" fill="#fefefe" fill-rule="evenodd"/>
  <path d="M 80 310 L 70 310 L 70 320 L 59 321 L 59 331 L 69 331 L 69 321 L 80 320 Z" fill="#fefefe" fill-rule="evenodd"/>
  <path d="M 57 310 L 47 310 L 47 320 L 36 321 L 36 331 L 46 331 L 46 321 L 57 320 Z" fill="#fefefe" fill-rule="evenodd"/>
  <path d="M 501 253 L 491 253 L 491 263 L 480 264 L 480 274 L 490 274 L 490 264 L 501 263 Z" fill="#fefefe" fill-rule="evenodd"/>
  <path d="M 36 253 L 36 263 L 46 263 L 47 274 L 57 274 L 57 264 L 47 264 L 46 253 Z" fill="#fefefe" fill-rule="evenodd"/>
  <path d="M 480 219 L 480 229 L 490 229 L 491 240 L 501 240 L 501 230 L 491 230 L 490 219 Z" fill="#fefefe" fill-rule="evenodd"/>
  <path d="M 116 219 L 116 229 L 126 229 L 127 240 L 137 240 L 137 230 L 127 230 L 126 219 Z" fill="#fefefe" fill-rule="evenodd"/>
  <path d="M 80 219 L 70 219 L 70 229 L 59 230 L 59 240 L 69 240 L 69 230 L 80 229 Z" fill="#fefefe" fill-rule="evenodd"/>
  <path d="M 57 219 L 47 219 L 47 229 L 36 230 L 36 240 L 46 240 L 46 230 L 57 229 Z" fill="#fefefe" fill-rule="evenodd"/>
  <path d="M 501 185 L 491 185 L 491 195 L 480 196 L 480 206 L 490 206 L 490 196 L 501 195 Z" fill="#fefefe" fill-rule="evenodd"/>
  <path d="M 114 185 L 104 185 L 104 195 L 93 196 L 93 206 L 103 206 L 103 196 L 114 195 Z" fill="#fefefe" fill-rule="evenodd"/>
  <path d="M 501 162 L 491 162 L 491 172 L 480 173 L 480 183 L 490 183 L 490 173 L 501 172 Z" fill="#fefefe" fill-rule="evenodd"/>
  <path d="M 423 162 L 423 172 L 433 172 L 434 183 L 444 183 L 444 173 L 434 173 L 433 162 Z" fill="#fefefe" fill-rule="evenodd"/>
  <path d="M 387 162 L 377 162 L 377 172 L 366 173 L 366 183 L 376 183 L 376 173 L 387 172 Z" fill="#fefefe" fill-rule="evenodd"/>
  <path d="M 332 162 L 332 172 L 342 172 L 343 183 L 353 183 L 353 173 L 343 173 L 342 162 Z" fill="#fefefe" fill-rule="evenodd"/>
  <path d="M 296 162 L 286 162 L 286 172 L 275 173 L 275 183 L 285 183 L 285 173 L 296 172 Z" fill="#fefefe" fill-rule="evenodd"/>
  <path d="M 228 162 L 218 162 L 218 172 L 207 173 L 207 183 L 217 183 L 217 173 L 228 172 Z" fill="#fefefe" fill-rule="evenodd"/>
  <path d="M 205 162 L 195 162 L 195 172 L 184 173 L 184 183 L 194 183 L 194 173 L 205 172 Z" fill="#fefefe" fill-rule="evenodd"/>
  <path d="M 150 162 L 150 172 L 160 172 L 161 183 L 171 183 L 171 173 L 161 173 L 160 162 Z" fill="#fefefe" fill-rule="evenodd"/>
  <path d="M 137 162 L 127 162 L 127 172 L 116 173 L 116 183 L 126 183 L 126 173 L 137 172 Z" fill="#fefefe" fill-rule="evenodd"/>
  <path d="M 114 162 L 104 162 L 104 172 L 93 173 L 93 183 L 103 183 L 103 173 L 114 172 Z" fill="#fefefe" fill-rule="evenodd"/>
  <path d="M 59 162 L 59 172 L 69 172 L 70 183 L 80 183 L 80 173 L 70 173 L 69 162 Z" fill="#fefefe" fill-rule="evenodd"/>
  <path d="M 36 162 L 36 172 L 46 172 L 47 183 L 57 183 L 57 173 L 47 173 L 46 162 Z" fill="#fefefe" fill-rule="evenodd"/>
  <path d="M 480 128 L 480 138 L 490 138 L 491 149 L 501 149 L 501 139 L 491 139 L 490 128 Z" fill="#fefefe" fill-rule="evenodd"/>
  <path d="M 444 128 L 434 128 L 434 138 L 423 139 L 423 149 L 433 149 L 433 139 L 444 138 Z" fill="#fefefe" fill-rule="evenodd"/>
  <path d="M 366 128 L 366 138 L 376 138 L 377 149 L 387 149 L 387 139 L 377 139 L 376 128 Z" fill="#fefefe" fill-rule="evenodd"/>
  <path d="M 353 128 L 343 128 L 343 138 L 332 139 L 332 149 L 342 149 L 342 139 L 353 138 Z" fill="#fefefe" fill-rule="evenodd"/>
  <path d="M 298 128 L 298 138 L 308 138 L 309 149 L 319 149 L 319 139 L 309 139 L 308 128 Z" fill="#fefefe" fill-rule="evenodd"/>
  <path d="M 171 128 L 161 128 L 161 138 L 150 139 L 150 149 L 160 149 L 160 139 L 171 138 Z" fill="#fefefe" fill-rule="evenodd"/>
  <path d="M 116 128 L 116 138 L 126 138 L 127 149 L 137 149 L 137 139 L 127 139 L 126 128 Z" fill="#fefefe" fill-rule="evenodd"/>
  <path d="M 93 128 L 93 138 L 103 138 L 104 149 L 114 149 L 114 139 L 104 139 L 103 128 Z" fill="#fefefe" fill-rule="evenodd"/>
  <path d="M 80 128 L 70 128 L 70 138 L 59 139 L 59 149 L 69 149 L 69 139 L 80 138 Z" fill="#fefefe" fill-rule="evenodd"/>
  <path d="M 57 128 L 47 128 L 47 138 L 36 139 L 36 149 L 46 149 L 46 139 L 57 138 Z" fill="#fefefe" fill-rule="evenodd"/>
  <path d="M 457 105 L 457 115 L 467 115 L 468 126 L 478 126 L 478 116 L 468 116 L 467 105 Z" fill="#fefefe" fill-rule="evenodd"/>
  <path d="M 353 105 L 343 105 L 343 115 L 332 116 L 332 126 L 342 126 L 342 116 L 353 115 Z" fill="#fefefe" fill-rule="evenodd"/>
  <path d="M 298 105 L 298 115 L 308 115 L 309 126 L 319 126 L 319 116 L 309 116 L 308 105 Z" fill="#fefefe" fill-rule="evenodd"/>
  <path d="M 184 105 L 184 115 L 194 115 L 195 126 L 205 126 L 205 116 L 195 116 L 194 105 Z" fill="#fefefe" fill-rule="evenodd"/>
  <path d="M 80 105 L 70 105 L 70 115 L 59 116 L 59 126 L 69 126 L 69 116 L 80 115 Z" fill="#fefefe" fill-rule="evenodd"/>
  <path d="M 501 71 L 491 71 L 491 81 L 480 82 L 480 92 L 490 92 L 490 82 L 501 81 Z" fill="#fefefe" fill-rule="evenodd"/>
  <path d="M 423 71 L 423 81 L 433 81 L 434 92 L 444 92 L 444 82 L 434 82 L 433 71 Z" fill="#fefefe" fill-rule="evenodd"/>
  <path d="M 387 71 L 377 71 L 377 81 L 366 82 L 366 92 L 376 92 L 376 82 L 387 81 Z" fill="#fefefe" fill-rule="evenodd"/>
  <path d="M 241 71 L 241 81 L 251 81 L 252 92 L 262 92 L 262 82 L 252 82 L 251 71 Z" fill="#fefefe" fill-rule="evenodd"/>
  <path d="M 228 71 L 218 71 L 218 81 L 207 82 L 207 92 L 217 92 L 217 82 L 228 81 Z" fill="#fefefe" fill-rule="evenodd"/>
  <path d="M 150 71 L 150 81 L 160 81 L 161 92 L 171 92 L 171 82 L 161 82 L 160 71 Z" fill="#fefefe" fill-rule="evenodd"/>
  <path d="M 137 71 L 127 71 L 127 81 L 116 82 L 116 92 L 126 92 L 126 82 L 137 81 Z" fill="#fefefe" fill-rule="evenodd"/>
  <path d="M 114 71 L 104 71 L 104 81 L 93 82 L 93 92 L 103 92 L 103 82 L 114 81 Z" fill="#fefefe" fill-rule="evenodd"/>
  <path d="M 59 71 L 59 81 L 69 81 L 70 92 L 80 92 L 80 82 L 70 82 L 69 71 Z" fill="#fefefe" fill-rule="evenodd"/>
  <path d="M 36 71 L 36 81 L 46 81 L 47 92 L 57 92 L 57 82 L 47 82 L 46 71 Z" fill="#fefefe" fill-rule="evenodd"/>
  <path d="M 501 48 L 491 48 L 491 58 L 480 59 L 480 69 L 490 69 L 490 59 L 501 58 Z" fill="#fefefe" fill-rule="evenodd"/>
  <path d="M 423 48 L 423 58 L 433 58 L 434 69 L 444 69 L 444 59 L 434 59 L 433 48 Z" fill="#fefefe" fill-rule="evenodd"/>
  <path d="M 387 48 L 377 48 L 377 58 L 366 59 L 366 69 L 376 69 L 376 59 L 387 58 Z" fill="#fefefe" fill-rule="evenodd"/>
  <path d="M 332 48 L 332 58 L 342 58 L 343 69 L 353 69 L 353 59 L 343 59 L 342 48 Z" fill="#fefefe" fill-rule="evenodd"/>
  <path d="M 319 48 L 309 48 L 309 58 L 298 59 L 298 69 L 308 69 L 308 59 L 319 58 Z" fill="#fefefe" fill-rule="evenodd"/>
  <path d="M 241 48 L 241 58 L 251 58 L 252 69 L 262 69 L 262 59 L 252 59 L 251 48 Z" fill="#fefefe" fill-rule="evenodd"/>
  <path d="M 150 48 L 150 58 L 160 58 L 161 69 L 171 69 L 171 59 L 161 59 L 160 48 Z" fill="#fefefe" fill-rule="evenodd"/>
  <path d="M 137 48 L 127 48 L 127 58 L 116 59 L 116 69 L 126 69 L 126 59 L 137 58 Z" fill="#fefefe" fill-rule="evenodd"/>
  <path d="M 114 48 L 104 48 L 104 58 L 93 59 L 93 69 L 103 69 L 103 59 L 114 58 Z" fill="#fefefe" fill-rule="evenodd"/>
  <path d="M 59 48 L 59 58 L 69 58 L 70 69 L 80 69 L 80 59 L 70 59 L 69 48 Z" fill="#fefefe" fill-rule="evenodd"/>
  <path d="M 36 48 L 36 58 L 46 58 L 47 69 L 57 69 L 57 59 L 47 59 L 46 48 Z" fill="#fefefe" fill-rule="evenodd"/>
  <path d="M 480 14 L 480 24 L 490 24 L 491 35 L 501 35 L 501 25 L 491 25 L 490 14 Z" fill="#fefefe" fill-rule="evenodd"/>
  <path d="M 444 14 L 434 14 L 434 24 L 423 25 L 423 35 L 433 35 L 433 25 L 444 24 Z" fill="#fefefe" fill-rule="evenodd"/>
  <path d="M 366 14 L 366 24 L 376 24 L 377 35 L 387 35 L 387 25 L 377 25 L 376 14 Z" fill="#fefefe" fill-rule="evenodd"/>
  <path d="M 353 14 L 343 14 L 343 24 L 332 25 L 332 35 L 342 35 L 342 25 L 353 24 Z" fill="#fefefe" fill-rule="evenodd"/>
  <path d="M 262 14 L 252 14 L 252 24 L 241 25 L 241 35 L 251 35 L 251 25 L 262 24 Z" fill="#fefefe" fill-rule="evenodd"/>
  <path d="M 171 14 L 161 14 L 161 24 L 150 25 L 150 35 L 160 35 L 160 25 L 171 24 Z" fill="#fefefe" fill-rule="evenodd"/>
  <path d="M 116 14 L 116 24 L 126 24 L 127 35 L 137 35 L 137 25 L 127 25 L 126 14 Z" fill="#fefefe" fill-rule="evenodd"/>
  <path d="M 93 14 L 93 24 L 103 24 L 104 35 L 114 35 L 114 25 L 104 25 L 103 14 Z" fill="#fefefe" fill-rule="evenodd"/>
  <path d="M 80 14 L 70 14 L 70 24 L 59 25 L 59 35 L 69 35 L 69 25 L 80 24 Z" fill="#fefefe" fill-rule="evenodd"/>
  <path d="M 57 14 L 47 14 L 47 24 L 36 25 L 36 35 L 46 35 L 46 25 L 57 24 Z" fill="#fefefe" fill-rule="evenodd"/>
  <path d="M 57 287 L 47 287 L 47 297 L 37 298 L 36 308 L 46 308 L 46 298 L 57 297 Z" fill="#fefefe" fill-rule="evenodd"/>
  <path d="M 241 458 L 241 467 L 251 468 L 253 479 L 262 479 L 262 469 L 252 469 L 251 458 Z" fill="#fefefe" fill-rule="evenodd"/>
  <path d="M 59 253 L 59 263 L 69 263 L 70 274 L 80 274 L 80 264 L 70 264 L 68 253 Z" fill="#fefefe" fill-rule="evenodd"/>
  <path d="M 319 162 L 309 162 L 309 172 L 298 173 L 298 183 L 307 183 L 309 172 L 319 172 Z" fill="#fefefe" fill-rule="evenodd"/>
  <path d="M 480 105 L 480 115 L 490 115 L 491 126 L 501 126 L 501 117 L 490 115 L 490 105 Z" fill="#fefefe" fill-rule="evenodd"/>
  <path d="M 93 105 L 93 115 L 103 115 L 104 126 L 114 126 L 114 117 L 103 115 L 103 105 Z" fill="#fefefe" fill-rule="evenodd"/>
  <path d="M 296 48 L 286 48 L 286 58 L 275 60 L 275 69 L 285 69 L 285 59 L 296 58 Z" fill="#fefefe" fill-rule="evenodd"/>
  <path d="M 228 48 L 218 48 L 218 58 L 207 60 L 207 69 L 217 69 L 217 59 L 228 58 Z" fill="#fefefe" fill-rule="evenodd"/>
  <path d="M 114 458 L 104 458 L 104 468 L 93 469 L 93 479 L 103 479 L 103 469 L 108 467 L 114 468 Z" fill="#fefefe" fill-rule="evenodd"/>
  <path d="M 36 458 L 36 468 L 46 468 L 47 479 L 57 479 L 57 469 L 47 469 L 46 458 Z" fill="#fefefe" fill-rule="evenodd"/>
  <path d="M 319 435 L 309 435 L 309 445 L 305 447 L 298 446 L 298 456 L 308 456 L 308 446 L 319 445 Z" fill="#fefefe" fill-rule="evenodd"/>
  <path d="M 298 14 L 298 24 L 308 24 L 309 35 L 319 35 L 319 25 L 309 25 L 308 14 Z" fill="#fefefe" fill-rule="evenodd"/>
  <path d="M 150 185 L 150 195 L 160 195 L 161 206 L 171 205 L 171 196 L 160 195 L 160 185 Z" fill="#fefefe" fill-rule="evenodd"/>
  <path d="M 57 105 L 47 105 L 47 115 L 36 117 L 36 126 L 46 126 L 46 116 L 57 115 Z" fill="#fefefe" fill-rule="evenodd"/>
  <path d="M 275 14 L 275 23 L 286 25 L 286 35 L 296 35 L 296 25 L 286 25 L 285 14 Z" fill="#fefefe" fill-rule="evenodd"/>
  <path d="M 364 367 L 355 367 L 355 373 L 353 378 L 343 378 L 342 375 L 338 376 L 343 378 L 343 388 L 353 388 L 353 378 L 358 376 L 364 377 Z" fill="#fefefe" fill-rule="evenodd"/>
  <path d="M 150 367 L 150 377 L 160 377 L 161 388 L 171 388 L 171 378 L 161 378 L 160 367 Z" fill="#fefefe" fill-rule="evenodd"/>
  <path d="M 59 276 L 59 286 L 69 286 L 70 297 L 80 297 L 80 287 L 70 287 L 69 276 Z" fill="#fefefe" fill-rule="evenodd"/>
  <path d="M 332 71 L 332 80 L 343 82 L 343 92 L 353 92 L 353 82 L 343 82 L 342 71 Z" fill="#fefefe" fill-rule="evenodd"/>
  <path d="M 400 48 L 400 58 L 410 58 L 412 66 L 411 69 L 421 69 L 421 60 L 410 58 L 410 48 Z" fill="#fefefe" fill-rule="evenodd"/>
  <path d="M 23 492 L 13 492 L 13 502 L 0 503 L 0 511 L 12 511 L 13 502 L 23 502 Z" fill="#f4f4f4" fill-rule="evenodd"/>
  <path d="M 389 162 L 389 172 L 399 172 L 400 183 L 410 183 L 410 174 L 399 172 L 399 162 Z" fill="#f4f4f4" fill-rule="evenodd"/>
  <path d="M 444 310 L 434 310 L 434 320 L 423 322 L 423 331 L 433 331 L 433 321 L 444 320 Z" fill="#fefefe" fill-rule="evenodd"/>
  <path d="M 400 185 L 400 195 L 410 195 L 412 206 L 421 206 L 421 196 L 411 196 L 410 185 Z" fill="#fefefe" fill-rule="evenodd"/>
  <path d="M 400 435 L 400 445 L 410 445 L 412 456 L 421 456 L 421 446 L 411 446 L 410 435 Z" fill="#fefefe" fill-rule="evenodd"/>
  <path d="M 400 367 L 400 377 L 410 377 L 412 388 L 421 388 L 421 378 L 411 378 L 410 367 Z" fill="#fefefe" fill-rule="evenodd"/>
  <path d="M 400 71 L 400 81 L 410 81 L 412 92 L 421 92 L 421 82 L 411 82 L 410 71 Z" fill="#fefefe" fill-rule="evenodd"/>
  <path d="M 319 71 L 309 71 L 309 81 L 298 82 L 298 92 L 307 92 L 309 81 L 319 81 Z" fill="#fefefe" fill-rule="evenodd"/>
  <path d="M 467 128 L 457 128 L 457 138 L 446 139 L 446 149 L 455 149 L 455 143 L 457 138 L 467 138 Z" fill="#fefefe" fill-rule="evenodd"/>
  <path d="M 478 48 L 469 48 L 469 56 L 467 59 L 457 59 L 457 69 L 467 69 L 467 59 L 478 58 Z" fill="#fefefe" fill-rule="evenodd"/>
  <path d="M 278 162 L 275 166 L 275 172 L 285 172 L 286 183 L 296 183 L 296 173 L 286 173 L 285 162 Z" fill="#f4f4f4" fill-rule="evenodd"/>
  <path d="M 423 185 L 423 194 L 430 194 L 434 196 L 434 206 L 444 206 L 444 196 L 434 196 L 433 185 Z" fill="#fefefe" fill-rule="evenodd"/>
  <path d="M 332 185 L 332 194 L 342 195 L 343 204 L 347 206 L 353 206 L 353 196 L 343 196 L 342 185 Z" fill="#fefefe" fill-rule="evenodd"/>
  <path d="M 139 162 L 139 172 L 149 172 L 150 183 L 160 183 L 160 174 L 150 173 L 148 169 L 148 162 Z" fill="#f4f4f4" fill-rule="evenodd"/>
  <path d="M 366 219 L 366 224 L 370 229 L 377 230 L 377 240 L 387 240 L 387 230 L 377 230 L 376 219 Z" fill="#fefefe" fill-rule="evenodd"/>
  <path d="M 264 71 L 264 80 L 275 82 L 275 92 L 285 92 L 285 82 L 275 82 L 273 78 L 273 71 Z" fill="#fefefe" fill-rule="evenodd"/>
  <path d="M 91 378 L 82 378 L 81 388 L 77 390 L 70 390 L 70 399 L 80 399 L 81 388 L 92 388 Z" fill="#f4f4f4" fill-rule="evenodd"/>
  <path d="M 137 219 L 127 219 L 127 229 L 116 230 L 116 239 L 126 238 L 127 229 L 137 229 Z" fill="#f4f4f4" fill-rule="evenodd"/>
  <path d="M 264 25 L 264 35 L 274 35 L 275 46 L 285 46 L 285 37 L 275 36 L 273 32 L 273 25 Z" fill="#fefefe" fill-rule="evenodd"/>
  <path d="M 207 128 L 207 138 L 217 138 L 218 149 L 227 149 L 226 139 L 217 138 L 217 128 Z" fill="#fefefe" fill-rule="evenodd"/>
  <path d="M 501 492 L 491 492 L 491 502 L 480 503 L 480 511 L 490 511 L 491 502 L 501 502 Z" fill="#f4f4f4" fill-rule="evenodd"/>
  <path d="M 478 492 L 468 492 L 468 502 L 457 503 L 457 511 L 467 511 L 468 502 L 478 502 Z" fill="#f4f4f4" fill-rule="evenodd"/>
  <path d="M 423 492 L 423 502 L 433 502 L 434 511 L 444 511 L 444 503 L 433 502 L 433 492 Z" fill="#f4f4f4" fill-rule="evenodd"/>
  <path d="M 387 492 L 377 492 L 377 502 L 366 503 L 366 511 L 376 511 L 377 502 L 387 502 Z" fill="#f4f4f4" fill-rule="evenodd"/>
  <path d="M 296 492 L 286 492 L 286 502 L 275 503 L 275 511 L 285 511 L 286 502 L 296 502 Z" fill="#f4f4f4" fill-rule="evenodd"/>
  <path d="M 150 492 L 150 502 L 160 502 L 161 511 L 171 511 L 171 503 L 160 502 L 160 492 Z" fill="#f4f4f4" fill-rule="evenodd"/>
  <path d="M 137 492 L 127 492 L 127 502 L 116 503 L 116 511 L 126 511 L 127 502 L 137 502 Z" fill="#f4f4f4" fill-rule="evenodd"/>
  <path d="M 114 492 L 104 492 L 104 502 L 93 503 L 93 511 L 103 511 L 104 502 L 114 502 Z" fill="#f4f4f4" fill-rule="evenodd"/>
  <path d="M 59 492 L 59 502 L 69 502 L 70 511 L 80 511 L 80 503 L 69 502 L 69 492 Z" fill="#f4f4f4" fill-rule="evenodd"/>
  <path d="M 36 492 L 36 502 L 46 502 L 47 511 L 57 511 L 57 503 L 46 502 L 46 492 Z" fill="#f4f4f4" fill-rule="evenodd"/>
  <path d="M 480 492 L 480 502 L 490 502 L 491 511 L 501 511 L 501 503 L 490 502 L 490 492 Z" fill="#fefefe" fill-rule="evenodd"/>
  <path d="M 444 492 L 434 492 L 434 502 L 423 503 L 423 511 L 433 511 L 434 502 L 444 502 Z" fill="#fefefe" fill-rule="evenodd"/>
  <path d="M 366 492 L 366 502 L 376 502 L 377 511 L 387 511 L 387 503 L 376 502 L 376 492 Z" fill="#fefefe" fill-rule="evenodd"/>
  <path d="M 353 492 L 343 492 L 343 502 L 332 503 L 332 511 L 342 511 L 343 502 L 353 502 Z" fill="#fefefe" fill-rule="evenodd"/>
  <path d="M 275 492 L 275 502 L 285 502 L 286 511 L 296 511 L 296 503 L 285 502 L 285 492 Z" fill="#fefefe" fill-rule="evenodd"/>
  <path d="M 262 492 L 252 492 L 252 502 L 241 503 L 241 511 L 251 511 L 252 502 L 262 502 Z" fill="#fefefe" fill-rule="evenodd"/>
  <path d="M 184 492 L 184 502 L 194 502 L 195 511 L 205 511 L 205 503 L 194 502 L 194 492 Z" fill="#fefefe" fill-rule="evenodd"/>
  <path d="M 171 492 L 161 492 L 161 502 L 150 503 L 150 511 L 160 511 L 161 502 L 171 502 Z" fill="#fefefe" fill-rule="evenodd"/>
  <path d="M 116 492 L 116 502 L 126 502 L 127 511 L 137 511 L 137 503 L 126 502 L 126 492 Z" fill="#fefefe" fill-rule="evenodd"/>
  <path d="M 93 492 L 93 502 L 103 502 L 104 511 L 114 511 L 114 503 L 103 502 L 103 492 Z" fill="#fefefe" fill-rule="evenodd"/>
  <path d="M 80 492 L 70 492 L 70 502 L 59 503 L 59 511 L 69 511 L 70 502 L 80 502 Z" fill="#fefefe" fill-rule="evenodd"/>
  <path d="M 57 492 L 47 492 L 47 502 L 36 503 L 36 511 L 46 511 L 47 502 L 57 502 Z" fill="#fefefe" fill-rule="evenodd"/>
  <path d="M 227 128 L 218 128 L 217 139 L 207 139 L 207 149 L 217 149 L 217 139 L 225 138 Z" fill="#f4f4f4" fill-rule="evenodd"/>
  <path d="M 241 492 L 241 501 L 251 502 L 252 511 L 262 511 L 262 503 L 251 502 L 251 492 Z" fill="#f4f4f4" fill-rule="evenodd"/>
  <path d="M 330 492 L 320 492 L 320 502 L 309 503 L 309 511 L 319 511 L 320 502 L 330 502 Z" fill="#fefefe" fill-rule="evenodd"/>
  <path d="M 424 253 L 428 263 L 434 264 L 434 274 L 444 274 L 444 264 L 434 264 L 432 253 Z" fill="#fefefe" fill-rule="evenodd"/>
  <path d="M 330 380 L 321 382 L 320 388 L 317 390 L 309 390 L 309 399 L 319 399 L 319 389 L 330 388 Z" fill="#fefefe" fill-rule="evenodd"/>
  <path d="M 308 139 L 319 138 L 321 145 L 320 149 L 315 151 L 309 150 Z" fill="#f4f4f4" fill-rule="evenodd"/>
  <path d="M 229 162 L 230 172 L 240 172 L 241 183 L 246 183 L 248 174 L 241 173 L 239 166 L 236 162 Z" fill="#f4f4f4" fill-rule="evenodd"/>
  <path d="M 205 383 L 195 382 L 194 389 L 184 390 L 184 399 L 194 399 L 194 389 L 205 388 Z" fill="#f4f4f4" fill-rule="evenodd"/>
  <path d="M 399 25 L 410 24 L 411 35 L 405 37 L 400 36 L 398 32 Z" fill="#f4f4f4" fill-rule="evenodd"/>
  <path d="M 228 383 L 218 383 L 218 388 L 215 390 L 207 389 L 207 399 L 217 399 L 217 389 L 228 388 Z" fill="#f4f4f4" fill-rule="evenodd"/>
  <path d="M 35 253 L 46 252 L 47 263 L 36 264 L 34 258 Z" fill="#f4f4f4" fill-rule="evenodd"/>
  <path d="M 274 82 L 285 81 L 286 92 L 281 94 L 275 93 Z" fill="#f4f4f4" fill-rule="evenodd"/>
  <path d="M 217 435 L 228 434 L 230 439 L 229 445 L 218 446 Z" fill="#f4f4f4" fill-rule="evenodd"/>
  <path d="M 0 0 L 0 12 L 12 12 L 12 0 Z" fill="#f4f4f4" fill-rule="evenodd"/>
  <path d="M 456 469 L 467 468 L 468 479 L 457 480 Z" fill="#f4f4f4" fill-rule="evenodd"/>
  <path d="M 342 469 L 353 468 L 354 479 L 343 480 Z" fill="#f4f4f4" fill-rule="evenodd"/>
  <path d="M 183 469 L 194 468 L 195 479 L 184 480 Z" fill="#f4f4f4" fill-rule="evenodd"/>
  <path d="M 456 287 L 467 286 L 468 297 L 457 298 Z" fill="#f4f4f4" fill-rule="evenodd"/>
  <path d="M 433 287 L 444 286 L 445 297 L 434 298 Z" fill="#f4f4f4" fill-rule="evenodd"/>
  <path d="M 342 82 L 353 81 L 354 92 L 343 93 Z" fill="#f4f4f4" fill-rule="evenodd"/>
  <path d="M 35 48 L 46 47 L 47 58 L 36 59 Z" fill="#f4f4f4" fill-rule="evenodd"/>
  <path d="M 217 25 L 228 24 L 229 35 L 218 36 Z" fill="#f4f4f4" fill-rule="evenodd"/>
  <path d="M 428 276 L 430 278 L 430 280 L 428 281 L 428 285 L 434 287 L 434 297 L 444 297 L 444 287 L 434 287 L 433 276 Z" fill="#fefefe" fill-rule="evenodd"/>
  <path d="M 480 0 L 480 12 L 490 12 L 490 0 Z" fill="#f4f4f4" fill-rule="evenodd"/>
  <path d="M 457 0 L 457 12 L 467 12 L 467 0 Z" fill="#f4f4f4" fill-rule="evenodd"/>
  <path d="M 434 0 L 434 12 L 444 12 L 444 0 Z" fill="#f4f4f4" fill-rule="evenodd"/>
  <path d="M 411 0 L 411 12 L 421 12 L 421 0 Z" fill="#f4f4f4" fill-rule="evenodd"/>
  <path d="M 389 0 L 389 12 L 399 12 L 399 0 Z" fill="#f4f4f4" fill-rule="evenodd"/>
  <path d="M 366 0 L 366 12 L 376 12 L 376 0 Z" fill="#f4f4f4" fill-rule="evenodd"/>
  <path d="M 343 0 L 343 12 L 353 12 L 353 0 Z" fill="#f4f4f4" fill-rule="evenodd"/>
  <path d="M 298 0 L 298 12 L 308 12 L 308 0 Z" fill="#f4f4f4" fill-rule="evenodd"/>
  <path d="M 275 0 L 275 12 L 285 12 L 285 0 Z" fill="#f4f4f4" fill-rule="evenodd"/>
  <path d="M 252 0 L 252 12 L 262 12 L 262 0 Z" fill="#f4f4f4" fill-rule="evenodd"/>
  <path d="M 207 0 L 207 12 L 217 12 L 217 0 Z" fill="#f4f4f4" fill-rule="evenodd"/>
  <path d="M 184 0 L 184 12 L 194 12 L 194 0 Z" fill="#f4f4f4" fill-rule="evenodd"/>
  <path d="M 161 0 L 161 12 L 171 12 L 171 0 Z" fill="#f4f4f4" fill-rule="evenodd"/>
  <path d="M 116 0 L 116 12 L 126 12 L 126 0 Z" fill="#f4f4f4" fill-rule="evenodd"/>
  <path d="M 93 0 L 93 12 L 103 12 L 103 0 Z" fill="#f4f4f4" fill-rule="evenodd"/>
  <path d="M 70 0 L 70 12 L 80 12 L 80 0 Z" fill="#f4f4f4" fill-rule="evenodd"/>
  <path d="M 47 0 L 47 12 L 57 12 L 57 0 Z" fill="#f4f4f4" fill-rule="evenodd"/>
  <path d="M 491 0 L 491 12 L 501 12 L 501 0 Z" fill="#fefefe" fill-rule="evenodd"/>
  <path d="M 423 0 L 423 12 L 433 12 L 433 0 Z" fill="#fefefe" fill-rule="evenodd"/>
  <path d="M 400 0 L 400 12 L 410 12 L 410 0 Z" fill="#fefefe" fill-rule="evenodd"/>
  <path d="M 377 0 L 377 12 L 387 12 L 387 0 Z" fill="#fefefe" fill-rule="evenodd"/>
  <path d="M 332 0 L 332 12 L 342 12 L 342 0 Z" fill="#fefefe" fill-rule="evenodd"/>
  <path d="M 309 0 L 309 12 L 319 12 L 319 0 Z" fill="#fefefe" fill-rule="evenodd"/>
  <path d="M 286 0 L 286 12 L 296 12 L 296 0 Z" fill="#fefefe" fill-rule="evenodd"/>
  <path d="M 241 0 L 241 12 L 251 12 L 251 0 Z" fill="#fefefe" fill-rule="evenodd"/>
  <path d="M 218 0 L 218 12 L 228 12 L 228 0 Z" fill="#fefefe" fill-rule="evenodd"/>
  <path d="M 195 0 L 195 12 L 205 12 L 205 0 Z" fill="#fefefe" fill-rule="evenodd"/>
  <path d="M 150 0 L 150 12 L 160 12 L 160 0 Z" fill="#fefefe" fill-rule="evenodd"/>
  <path d="M 127 0 L 127 12 L 137 12 L 137 0 Z" fill="#fefefe" fill-rule="evenodd"/>
  <path d="M 104 0 L 104 12 L 114 12 L 114 0 Z" fill="#fefefe" fill-rule="evenodd"/>
  <path d="M 59 0 L 59 12 L 69 12 L 69 0 Z" fill="#fefefe" fill-rule="evenodd"/>
  <path d="M 36 0 L 36 12 L 46 12 L 46 0 Z" fill="#fefefe" fill-rule="evenodd"/>
  <path d="M 13 0 L 13 12 L 23 12 L 23 0 Z" fill="#fefefe" fill-rule="evenodd"/>
  <path d="M 25 0 L 25 12 L 35 12 L 35 0 Z" fill="#f4f4f4" fill-rule="evenodd"/>
  <path d="M 173 0 L 173 12 L 183 12 L 183 0 Z" fill="#fefefe" fill-rule="evenodd"/>
  <path d="M 264 0 L 264 12 L 274 12 L 274 0 Z" fill="#fefefe" fill-rule="evenodd"/>
  <path d="M 0 93 L 0 103 L 12 103 L 12 94 Z" fill="#f4f4f4" fill-rule="evenodd"/>
  <path d="M 229 0 L 229 12 L 239 12 L 239 0 Z" fill="#f4f4f4" fill-rule="evenodd"/>
  <path d="M 139 0 L 139 12 L 148 12 L 148 0 Z" fill="#f4f4f4" fill-rule="evenodd"/>
  <path d="M 321 0 L 320 12 L 330 12 L 330 0 Z" fill="#f4f4f4" fill-rule="evenodd"/>
  <path d="M 0 242 L 0 252 L 12 251 L 12 242 Z" fill="#fefefe" fill-rule="evenodd"/>
  <path d="M 446 0 L 446 12 L 455 12 L 456 0 Z" fill="#fefefe" fill-rule="evenodd"/>
  <path d="M 12 390 L 0 390 L 0 399 L 12 399 Z" fill="#f4f4f4" fill-rule="evenodd"/>
  <path d="M 469 0 L 468 12 L 478 12 L 478 0 Z" fill="#fefefe" fill-rule="evenodd"/>
  <path d="M 0 424 L 0 433 L 12 433 L 12 424 Z" fill="#fefefe" fill-rule="evenodd"/>
  <path d="M 0 333 L 0 342 L 12 342 L 12 333 Z" fill="#fefefe" fill-rule="evenodd"/>
  <path d="M 0 151 L 0 160 L 12 160 L 12 151 Z" fill="#fefefe" fill-rule="evenodd"/>
  <path d="M 0 37 L 0 46 L 12 46 L 12 37 Z" fill="#fefefe" fill-rule="evenodd"/>
  <path d="M 355 0 L 355 12 L 364 12 L 364 0 Z" fill="#fefefe" fill-rule="evenodd"/>
  <path d="M 82 0 L 82 12 L 91 12 L 91 0 Z" fill="#fefefe" fill-rule="evenodd"/>
  <path d="M 480 93 L 480 103 L 490 103 L 490 94 Z" fill="#f4f4f4" fill-rule="evenodd"/>
  <path d="M 354 151 L 354 160 L 364 161 L 364 150 Z" fill="#f4f4f4" fill-rule="evenodd"/>
  <path d="M 195 37 L 195 46 L 205 47 L 205 36 Z" fill="#f4f4f4" fill-rule="evenodd"/>
  <path d="M 412 93 L 411 103 L 421 104 L 421 94 Z" fill="#f4f4f4" fill-rule="evenodd"/>
  <path d="M 139 116 L 139 126 L 149 126 L 148 116 Z" fill="#f4f4f4" fill-rule="evenodd"/>
  <path d="M 59 36 L 59 47 L 69 46 L 69 37 Z" fill="#f4f4f4" fill-rule="evenodd"/>
  <path d="M 446 264 L 446 274 L 456 274 L 455 264 Z" fill="#f4f4f4" fill-rule="evenodd"/>
  <path d="M 184 185 L 184 195 L 194 195 L 194 185 Z" fill="#f4f4f4" fill-rule="evenodd"/>
  <path d="M 161 162 L 161 172 L 171 172 L 171 162 Z" fill="#f4f4f4" fill-rule="evenodd"/>
  <path d="M 457 492 L 457 502 L 467 502 L 467 492 Z" fill="#fefefe" fill-rule="evenodd"/>
  <path d="M 457 469 L 457 479 L 467 479 L 467 469 Z" fill="#fefefe" fill-rule="evenodd"/>
  <path d="M 457 446 L 457 456 L 467 456 L 467 446 Z" fill="#fefefe" fill-rule="evenodd"/>
  <path d="M 400 412 L 400 422 L 410 422 L 410 412 Z" fill="#fefefe" fill-rule="evenodd"/>
  <path d="M 457 401 L 457 411 L 467 411 L 467 401 Z" fill="#fefefe" fill-rule="evenodd"/>
  <path d="M 457 378 L 457 388 L 467 388 L 467 378 Z" fill="#fefefe" fill-rule="evenodd"/>
  <path d="M 434 378 L 434 388 L 444 388 L 444 378 Z" fill="#fefefe" fill-rule="evenodd"/>
  <path d="M 70 378 L 70 388 L 80 388 L 80 378 Z" fill="#fefefe" fill-rule="evenodd"/>
  <path d="M 47 378 L 47 388 L 57 388 L 57 378 Z" fill="#fefefe" fill-rule="evenodd"/>
  <path d="M 457 355 L 457 365 L 467 365 L 467 355 Z" fill="#fefefe" fill-rule="evenodd"/>
  <path d="M 400 344 L 400 354 L 410 354 L 410 344 Z" fill="#fefefe" fill-rule="evenodd"/>
  <path d="M 457 310 L 457 320 L 467 320 L 467 310 Z" fill="#fefefe" fill-rule="evenodd"/>
  <path d="M 457 287 L 457 297 L 467 297 L 467 287 Z" fill="#fefefe" fill-rule="evenodd"/>
  <path d="M 423 230 L 423 240 L 433 240 L 433 230 Z" fill="#fefefe" fill-rule="evenodd"/>
  <path d="M 457 219 L 457 229 L 467 229 L 467 219 Z" fill="#fefefe" fill-rule="evenodd"/>
  <path d="M 457 196 L 457 206 L 467 206 L 467 196 Z" fill="#fefefe" fill-rule="evenodd"/>
  <path d="M 366 196 L 366 206 L 376 206 L 376 196 Z" fill="#fefefe" fill-rule="evenodd"/>
  <path d="M 116 196 L 116 206 L 126 206 L 126 196 Z" fill="#fefefe" fill-rule="evenodd"/>
  <path d="M 70 196 L 70 206 L 80 206 L 80 196 Z" fill="#fefefe" fill-rule="evenodd"/>
  <path d="M 47 196 L 47 206 L 57 206 L 57 196 Z" fill="#fefefe" fill-rule="evenodd"/>
  <path d="M 457 173 L 457 183 L 467 183 L 467 173 Z" fill="#fefefe" fill-rule="evenodd"/>
  <path d="M 400 162 L 400 172 L 410 172 L 410 162 Z" fill="#fefefe" fill-rule="evenodd"/>
  <path d="M 400 139 L 400 149 L 410 149 L 410 139 Z" fill="#fefefe" fill-rule="evenodd"/>
  <path d="M 434 105 L 434 115 L 444 115 L 444 105 Z" fill="#fefefe" fill-rule="evenodd"/>
  <path d="M 366 105 L 366 115 L 376 115 L 376 105 Z" fill="#fefefe" fill-rule="evenodd"/>
  <path d="M 207 105 L 207 115 L 217 115 L 217 105 Z" fill="#fefefe" fill-rule="evenodd"/>
  <path d="M 161 105 L 161 115 L 171 115 L 171 105 Z" fill="#fefefe" fill-rule="evenodd"/>
  <path d="M 116 105 L 116 115 L 126 115 L 126 105 Z" fill="#fefefe" fill-rule="evenodd"/>
  <path d="M 457 82 L 457 92 L 467 92 L 467 82 Z" fill="#fefefe" fill-rule="evenodd"/>
  <path d="M 400 25 L 400 35 L 410 35 L 410 25 Z" fill="#fefefe" fill-rule="evenodd"/>
  <path d="M 457 14 L 457 24 L 467 24 L 467 14 Z" fill="#fefefe" fill-rule="evenodd"/>
</svg>
