<svg xmlns="http://www.w3.org/2000/svg" width="512" height="512" viewBox="0 0 512 512" fill="none">
  <path d="M 155 221 L 138 253 L 136 312 L 146 344 L 172 370 L 202 380 L 314 380 L 349 366 L 370 342 L 379 312 L 378 257 L 367 230 L 341 206 L 312 197 L 266 197 L 265 169 L 250 169 L 249 197 L 188 200 Z M 307 261 L 318 262 L 325 268 L 328 275 L 327 309 L 321 317 L 315 320 L 308 320 L 303 318 L 295 308 L 295 273 L 297 269 Z M 200 261 L 207 261 L 212 263 L 220 273 L 220 307 L 218 312 L 212 318 L 207 320 L 200 320 L 194 317 L 190 313 L 187 306 L 187 275 L 190 268 L 195 263 Z" fill="#283553" fill-rule="evenodd"/>
  <path d="M 113 242 L 99 249 L 92 258 L 89 268 L 89 308 L 91 315 L 98 326 L 110 333 L 123 334 L 125 333 L 125 243 Z" fill="#283553" fill-rule="evenodd"/>
  <path d="M 391 242 L 390 333 L 401 334 L 408 332 L 417 326 L 424 315 L 426 307 L 426 269 L 424 261 L 416 249 L 406 243 Z" fill="#283553" fill-rule="evenodd"/>
  <path d="M 255 109 L 241 114 L 234 120 L 228 132 L 228 146 L 232 155 L 238 162 L 249 168 L 260 169 L 266 168 L 280 159 L 286 149 L 287 133 L 283 123 L 278 117 L 268 111 Z" fill="#c59658" fill-rule="evenodd"/>
  <path d="M 307 261 L 318 262 L 325 268 L 328 275 L 327 309 L 321 317 L 315 320 L 308 320 L 303 318 L 295 308 L 295 273 L 297 269 Z" fill="#283553" fill-rule="evenodd"/>
  <path d="M 200 261 L 207 261 L 212 263 L 220 273 L 220 307 L 218 312 L 212 318 L 207 320 L 200 320 L 194 317 L 190 313 L 187 306 L 187 275 L 190 268 L 195 263 Z" fill="#283553" fill-rule="evenodd"/>
  <path d="M 316 263 L 307 264 L 303 266 L 298 273 L 298 309 L 307 318 L 321 315 L 324 308 L 326 307 L 326 278 L 323 268 L 321 268 Z" fill="#f3ece4" fill-rule="evenodd"/>
  <path d="M 199 264 L 194 266 L 189 274 L 189 307 L 191 308 L 194 314 L 200 317 L 208 318 L 217 309 L 217 271 L 209 264 Z" fill="#f3ece4" fill-rule="evenodd"/>
</svg>
