<svg xmlns="http://www.w3.org/2000/svg" width="1024" height="1024" viewBox="0 0 1024 1024">
<g>
<path d="M 640.01 755.82 L 629.50 758.43 L 516.00 758.61 C453.58,758.71 399.81,758.39 396.52,757.90 C366.02,753.38 335.95,738.48 313.13,716.57 C290.52,694.87 275.33,665.86 269.94,634.09 C267.99,622.65 267.89,618.92 268.26,569.72 C268.63,521.13 268.80,516.88 270.74,508.50 C277.92,477.53 289.62,456.23 311.43,434.43 C325.98,419.88 337.12,411.82 353.44,404.04 C364.74,398.64 369.83,396.86 384.39,393.21 C394.34,390.72 395.29,390.67 444.50,390.09 L 494.50 389.50 L 494.77 361.20 C494.91,345.64 495.39,333.13 495.84,333.40 C499.52,335.67 521.07,335.70 528.19,333.44 C529.86,332.91 529.98,334.59 530.23,361.19 L 530.50 389.50 L 581.00 390.05 L 631.50 390.60 L 643.14 393.70 C670.72,401.06 693.34,414.07 713.00,433.91 C735.12,456.23 748.89,482.43 754.56,513.00 C756.02,520.86 756.39,530.06 756.75,566.24 C757.31,623.06 756.36,633.89 748.82,657.00 C740.93,681.17 723.60,706.92 704.26,723.21 C685.24,739.22 664.52,749.74 640.01,755.82 ZM 247.08 664.08 C244.33,666.83 243.69,667.00 236.33,666.93 C219.29,666.77 204.11,660.34 191.89,648.12 C183.25,639.48 178.92,631.91 175.93,620.23 C174.18,613.39 174.00,608.94 174.00,572.57 C174.00,535.09 174.14,531.97 176.07,525.00 C181.10,506.83 192.13,493.34 208.27,485.59 C219.11,480.39 225.07,479.00 236.46,479.00 C244.57,479.00 244.90,479.09 247.41,482.08 L 250.00 485.15 L 250.00 661.15 ZM 806.28 664.59 C803.65,665.42 796.96,666.37 791.42,666.69 C781.35,667.27 781.33,667.27 778.18,664.39 L 775.03 661.50 L 774.96 589.00 C774.96,578.68 774.95,569.37 774.94,560.96 C774.85,486.83 774.85,483.32 776.51,482.14 C776.78,481.95 777.09,481.82 777.45,481.45 C779.64,479.27 780.76,479.00 787.70,479.01 C806.41,479.02 819.12,484.11 831.84,496.69 C838.18,502.96 840.54,506.18 843.79,513.00 C850.28,526.64 850.50,528.60 850.50,573.50 C850.50,618.32 850.32,619.82 843.26,634.00 C836.50,647.55 821.88,659.65 806.28,664.59 ZM 393.42 632.94 C411.36,639.84 430.79,629.11 434.97,610.00 C435.80,606.18 436.07,595.33 435.84,574.50 L 435.50 544.50 L 432.70 538.80 C426.76,526.70 415.53,520.26 402.07,521.23 C390.42,522.07 381.56,528.25 376.57,539.00 L 374.02 544.50 L 374.00 611.68 L 377.07 617.82 C380.65,624.99 386.28,630.19 393.42,632.94 ZM 609.50 633.42 C614.93,635.35 624.64,635.34 630.36,633.39 C636.77,631.21 645.13,623.39 648.12,616.77 C650.47,611.56 650.50,611.12 650.50,578.50 C650.50,540.70 650.27,539.42 642.11,530.68 C635.83,523.97 631.13,521.76 622.00,521.24 C615.98,520.89 613.36,521.24 608.71,522.99 C600.98,525.90 593.90,532.97 591.04,540.63 C588.99,546.11 588.91,547.68 589.20,579.92 L 589.50 613.50 L 592.60 619.00 C596.02,625.06 603.15,631.15 609.50,633.42 Z" fill="rgb(40,53,83)"/>
<path d="M 530.18 355.92 C529.96,334.36 529.74,332.95 528.19,333.44 C521.07,335.70 499.52,335.67 495.84,333.40 C495.39,333.13 494.91,345.64 494.77,361.20 L 494.50 389.50 L 495.01 333.50 L 485.76 329.13 C478.16,325.53 475.18,323.40 468.97,317.13 C457.61,305.63 452.50,294.71 451.34,279.44 C450.52,268.59 452.27,259.41 457.08,249.32 C468.87,224.63 496.95,210.19 523.00,215.42 C535.97,218.02 544.97,222.87 554.59,232.45 C570.63,248.40 576.40,268.40 571.02,289.40 C568.15,300.65 563.69,308.37 555.03,317.09 C549.16,323.01 545.57,325.64 538.73,329.02 L 529.97 333.34 Z" fill="rgb(198,150,87)"/>
<path d="M 0.00 512.00 L 0.00 0.00 L 512.00 0.00 L 1024.00 0.00 L 1024.00 512.00 L 1024.00 1024.00 L 512.00 1024.00 L 0.00 1024.00 L 0.00 512.00 ZM 640.01 755.82 C664.52,749.74 685.24,739.22 704.26,723.21 C723.60,706.92 740.93,681.17 748.82,657.00 C756.36,633.89 757.31,623.06 756.75,566.24 C756.39,530.06 756.02,520.86 754.56,513.00 C748.89,482.43 735.12,456.23 713.00,433.91 C693.34,414.07 670.72,401.06 643.14,393.70 L 631.50 390.60 L 581.00 390.05 L 530.50 389.50 L 530.23 361.42 L 529.97 333.34 L 538.73 329.02 C545.57,325.64 549.16,323.01 555.03,317.09 C563.69,308.37 568.15,300.65 571.02,289.40 C576.40,268.40 570.63,248.40 554.59,232.45 C544.97,222.87 535.97,218.02 523.00,215.42 C496.95,210.19 468.87,224.63 457.08,249.32 C452.27,259.41 450.52,268.59 451.34,279.44 C452.50,294.71 457.61,305.63 468.97,317.13 C475.18,323.40 478.16,325.53 485.76,329.13 L 495.01 333.50 L 494.75 361.50 L 494.50 389.50 L 444.50 390.09 C395.29,390.67 394.34,390.72 384.39,393.21 C369.83,396.86 364.74,398.64 353.44,404.04 C337.12,411.82 325.98,419.88 311.43,434.43 C289.62,456.23 277.92,477.53 270.74,508.50 C268.80,516.88 268.63,521.13 268.26,569.72 C267.89,618.92 267.99,622.65 269.94,634.09 C275.33,665.86 290.52,694.87 313.13,716.57 C335.95,738.48 366.02,753.38 396.52,757.90 C399.81,758.39 453.58,758.71 516.00,758.61 L 629.50 758.43 L 640.01 755.82 ZM 247.08 664.08 L 250.00 661.15 L 250.00 573.15 L 250.00 485.15 L 247.41 482.08 C244.90,479.09 244.57,479.00 236.46,479.00 C225.07,479.00 219.11,480.39 208.27,485.59 C192.13,493.34 181.10,506.83 176.07,525.00 C174.14,531.97 174.00,535.09 174.00,572.57 C174.00,608.94 174.18,613.39 175.93,620.23 C178.92,631.91 183.25,639.48 191.89,648.12 C204.11,660.34 219.29,666.77 236.33,666.93 C243.69,667.00 244.33,666.83 247.08,664.08 ZM 806.28 664.59 C821.88,659.65 836.50,647.55 843.26,634.00 C850.32,619.82 850.50,618.32 850.50,573.50 C850.50,528.60 850.28,526.64 843.79,513.00 C840.54,506.18 838.18,502.96 831.84,496.69 C819.12,484.11 806.41,479.02 787.70,479.01 C780.76,479.00 779.64,479.27 777.45,481.45 C774.60,484.31 774.86,472.81 774.96,589.00 L 775.03 661.50 L 778.18 664.39 C781.33,667.27 781.35,667.27 791.42,666.69 C796.96,666.37 803.65,665.42 806.28,664.59 ZM 393.42 632.94 C386.28,630.19 380.65,624.99 377.07,617.82 L 374.00 611.68 L 374.01 578.09 L 374.02 544.50 L 376.57 539.00 C381.56,528.25 390.42,522.07 402.07,521.23 C415.53,520.26 426.76,526.70 432.70,538.80 L 435.50 544.50 L 435.84 574.50 C436.07,595.33 435.80,606.18 434.97,610.00 C430.79,629.11 411.36,639.84 393.42,632.94 ZM 609.50 633.42 C603.15,631.15 596.02,625.06 592.60,619.00 L 589.50 613.50 L 589.20 579.92 C588.91,547.68 588.99,546.11 591.04,540.63 C593.90,532.97 600.98,525.90 608.71,522.99 C613.36,521.24 615.98,520.89 622.00,521.24 C631.13,521.76 635.83,523.97 642.11,530.68 C650.27,539.42 650.50,540.70 650.50,578.50 C650.50,611.12 650.47,611.56 648.12,616.77 C645.13,623.39 636.77,631.21 630.36,633.39 C624.64,635.34 614.93,635.35 609.50,633.42 Z" fill="rgb(248,248,248)"/>
</g>
</svg>