<svg xmlns="http://www.w3.org/2000/svg" width="1024" height="1024" viewBox="0 0 1024 1024">
<g>
<path d="M 746.46 465.47 C741.40,466.79 729.41,466.99 660.54,466.90 C616.52,466.84 578.87,466.41 576.87,465.94 C562.85,462.62 548.01,450.84 541.39,437.79 C540.64,436.29 539.98,435.03 539.43,433.72 C536.00,425.73 536.00,416.26 536.03,343.85 L 536.04 341.04 L 536.04 334.50 C536.07,266.14 536.07,256.06 539.76,247.58 C540.51,245.85 541.42,244.19 542.51,242.11 C549.10,229.57 563.31,219.10 577.80,216.10 C581.38,215.36 608.47,215.00 661.39,215.00 C736.42,215.00 740.01,215.08 747.50,217.00 C760.87,220.42 770.15,226.96 777.73,238.29 C779.60,241.08 781.07,243.06 782.23,245.21 C786.53,253.17 786.52,263.46 786.50,326.27 C786.50,330.89 786.50,335.79 786.50,341.00 L 786.50 424.50 L 783.96 431.02 C777.20,448.36 763.37,461.07 746.46,465.47 Z" fill="rgb(37,49,76)"/>
<path d="M 445.11 466.00 C439.47,467.05 407.17,467.03 328.00,465.96 C287.98,465.41 280.67,465.08 275.55,463.58 C260.46,459.15 247.97,448.60 241.39,434.72 L 237.50 426.50 L 237.22 343.00 L 236.93 259.50 L 239.46 251.36 C244.38,235.56 255.55,224.23 272.58,217.76 L 278.50 215.52 L 358.00 215.22 C446.18,214.89 447.40,214.97 459.50,221.29 C467.59,225.52 477.91,236.04 481.88,244.11 C488.03,256.62 488.14,258.49 487.77,344.69 C487.43,421.95 487.42,422.55 485.21,429.13 C481.99,438.76 478.36,444.67 471.43,451.61 C464.50,458.54 453.80,464.39 445.11,466.00 Z" fill="rgb(138,24,40)"/>
<path d="M 744.06 766.49 C737.99,767.77 724.97,767.99 660.18,767.94 C588.52,767.89 583.03,767.77 576.35,766.01 C558.74,761.40 546.28,750.75 538.92,734.00 L 536.50 728.50 L 536.20 645.50 C535.98,586.16 536.22,560.80 537.04,556.55 C540.58,538.11 556.59,521.47 575.54,516.53 C580.58,515.22 592.73,515.00 660.66,515.00 C715.56,515.00 741.53,515.35 745.20,516.13 C763.77,520.07 780.27,536.55 785.13,556.00 C786.24,560.44 786.49,576.87 786.46,641.50 C786.42,713.96 786.25,722.10 784.69,727.89 C779.47,747.25 763.53,762.39 744.06,766.49 Z" fill="rgb(176,164,157)"/>
<path d="M 445.26 766.53 C439.71,767.71 424.63,767.95 361.00,767.90 L 355.65 767.89 C289.07,767.84 278.95,767.83 270.43,764.15 C268.67,763.39 266.99,762.48 264.90,761.38 C252.15,754.68 244.17,745.47 239.10,731.60 L 236.50 724.50 L 236.50 559.50 L 238.74 552.38 C244.21,534.99 258.86,521.14 276.70,516.49 C285.26,514.26 438.77,514.27 447.32,516.50 C465.74,521.29 480.64,536.23 485.42,554.70 C486.80,560.00 487.00,571.27 487.00,641.67 C487.00,716.98 486.87,723.00 485.17,729.14 C482.78,737.75 479.01,744.08 471.74,751.67 C464.73,758.99 454.96,764.48 445.26,766.53 Z" fill="rgb(195,145,86)"/>

</g>
</svg>