<svg xmlns="http://www.w3.org/2000/svg" width="512" height="512" viewBox="0 0 512 512" fill="none">
  <path d="M 191 91 L 170 105 L 163 129 L 168 146 L 184 163 L 201 171 L 230 172 L 230 404 L 284 404 L 285 172 L 314 171 L 334 161 L 349 142 L 351 117 L 334 95 L 303 91 L 279 105 L 257 140 L 229 99 L 208 90 Z M 328 116 L 332 123 L 332 130 L 330 136 L 322 145 L 312 151 L 275 163 L 272 162 L 280 138 L 289 124 L 298 115 L 309 110 L 319 110 Z M 187 116 L 197 110 L 207 110 L 217 115 L 227 125 L 233 134 L 239 147 L 243 162 L 240 163 L 206 152 L 193 145 L 186 137 L 183 129 L 184 121 Z" fill="#c7985d" fill-rule="evenodd"/>
  <path d="M 286 252 L 286 404 L 365 404 L 378 399 L 390 386 L 394 373 L 394 252 Z M 370 304 L 372 308 L 371 313 L 337 359 L 332 363 L 328 363 L 309 342 L 308 335 L 313 331 L 317 331 L 331 345 L 358 307 L 362 303 Z" fill="#7a1625" fill-rule="evenodd"/>
  <path d="M 121 252 L 121 372 L 127 389 L 139 400 L 148 401 L 150 404 L 229 402 L 229 252 Z" fill="#7a1625" fill-rule="evenodd"/>
  <path d="M 286 172 L 286 251 L 395 251 L 403 243 L 406 236 L 405 198 L 400 185 L 393 178 L 382 173 L 314 174 L 313 172 Z" fill="#8b1a2a" fill-rule="evenodd"/>
  <path d="M 228 172 L 202 172 L 201 174 L 134 173 L 121 179 L 114 187 L 109 200 L 109 235 L 112 243 L 120 251 L 229 251 Z" fill="#8b1a2a" fill-rule="evenodd"/>
  <path d="M 328 116 L 332 123 L 332 130 L 330 136 L 322 145 L 312 151 L 275 163 L 272 162 L 280 138 L 289 124 L 298 115 L 309 110 L 319 110 Z" fill="#c7985d" fill-rule="evenodd"/>
  <path d="M 187 116 L 197 110 L 207 110 L 217 115 L 227 125 L 233 134 L 239 147 L 243 162 L 240 163 L 206 152 L 193 145 L 186 137 L 183 129 L 184 121 Z" fill="#c7985d" fill-rule="evenodd"/>
  <path d="M 370 304 L 372 308 L 371 313 L 337 359 L 332 363 L 328 363 L 309 342 L 308 335 L 313 331 L 317 331 L 331 345 L 358 307 L 362 303 Z" fill="#7a1625" fill-rule="evenodd"/>
  <path d="M 368 305 L 362 305 L 331 347 L 317 333 L 312 333 L 310 335 L 310 341 L 328 361 L 333 361 L 365 319 L 370 311 Z" fill="#c7985d" fill-rule="evenodd"/>
</svg>
