<svg xmlns="http://www.w3.org/2000/svg" width="1024" height="1024" viewBox="0 0 1024 1024">
<g>
<path d="M 726.50 806.51 C722.25,807.11 602.27,807.69 580.75,807.22 L 568.00 806.94 L 568.00 500.45 L 677.50 500.45 L 787.00 500.45 L 787.00 619.97 C787.00,718.86 786.75,740.90 785.57,747.58 C782.20,766.77 769.12,787.50 761.04,786.48 C759.37,786.27 758.00,786.50 758.00,786.99 C758.00,788.69 760.09,789.17 761.71,787.84 C763.17,786.63 763.20,786.73 762.09,788.82 C759.02,794.58 738.38,804.84 726.50,806.51 ZM 448.25 807.10 C415.77,807.50 329.95,807.39 314.50,806.92 C293.28,806.28 289.86,805.54 276.50,798.72 C264.98,792.84 252.06,779.73 246.23,768.00 C244.77,765.07 243.59,763.00 242.63,760.83 C238.49,751.52 238.47,740.37 238.29,650.37 C238.28,642.19 238.26,633.34 238.24,623.79 L 237.95 500.09 L 339.23 500.59 C346.26,500.62 352.84,500.65 358.99,500.68 C444.71,501.11 447.95,501.12 451.09,500.60 C451.44,500.54 451.79,500.48 452.25,500.41 L 456.00 499.82 L 456.00 807.00 ZM 651.80 719.24 C654.76,721.16 661.08,721.56 663.97,720.02 C665.47,719.22 691.59,684.40 732.35,628.88 C740.76,617.42 740.93,611.56 732.99,606.21 C729.23,603.68 724.61,603.79 720.37,606.52 C718.46,607.75 710.28,618.66 670.75,672.73 C664.23,681.65 658.49,689.19 658.01,689.49 C657.53,689.79 652.36,684.41 646.52,677.55 C633.53,662.28 631.98,661.00 626.50,661.00 C619.24,661.00 613.25,668.00 614.63,674.88 C615.29,678.20 647.18,716.27 651.80,719.24 Z" fill="rgb(122,22,36)"/>
<path d="M 787.94 500.00 C787.36,500.00 787.00,545.27 787.00,619.41 L 787.00 500.45 L 677.50 500.45 L 568.00 500.45 L 568.00 340.08 L 662.25 340.63 C766.29,341.23 762.45,340.99 776.00,347.74 C786.10,352.78 798.14,364.65 803.33,374.70 C810.39,388.36 811.00,392.84 811.00,431.43 C811.00,469.57 810.41,474.00 804.07,483.89 C800.85,488.91 789.75,500.00 787.94,500.00 ZM 456.00 339.73 L 456.00 499.82 L 452.25 500.41 C451.79,500.48 451.44,500.54 451.09,500.60 C447.95,501.12 444.71,501.11 358.99,500.68 C352.84,500.65 346.26,500.62 339.23,500.59 L 237.95 500.09 L 238.24 623.79 C238.26,633.34 238.28,642.19 238.29,650.37 C238.41,707.67 238.46,733.01 239.54,746.26 C238.28,731.10 238.33,700.17 238.01,623.84 L 237.50 500.18 L 232.51 496.84 C225.68,492.27 218.57,482.58 216.04,474.39 C214.15,468.27 214.00,465.19 214.00,432.10 C214.00,391.90 214.21,390.26 221.17,376.00 C228.97,359.99 245.95,346.53 263.46,342.47 C269.13,341.16 279.23,340.92 328.34,340.92 C360.33,340.92 402.14,340.65 421.25,340.33 ZM 761.70 789.45 C761.85,789.23 761.98,789.02 762.09,788.82 C763.20,786.73 763.17,786.63 761.71,787.84 C760.09,789.17 758.00,788.69 758.00,786.99 C758.00,786.50 759.37,786.27 761.04,786.48 C762.98,786.73 765.20,785.72 767.51,783.79 C765.67,785.77 763.73,787.67 761.70,789.45 ZM 726.50 806.51 C733.16,805.57 742.58,801.93 750.11,797.90 C742.64,802.34 734.57,805.37 726.50,806.51 ZM 778.45 768.60 C781.39,762.76 783.84,756.08 785.21,749.49 C784.70,753.08 784.04,755.51 783.20,757.87 C782.72,759.20 782.19,760.50 781.59,761.98 C780.67,764.23 779.62,766.44 778.45,768.60 Z" fill="rgb(139,25,41)"/>
<path d="M 448.25 807.10 L 456.00 807.00 L 456.00 339.73 L 421.25 340.33 C402.14,340.65 360.33,340.92 328.34,340.92 C281.35,340.92 270.07,341.14 264.22,342.31 C264.61,342.21 265.00,342.12 265.39,342.02 C273.61,340.11 277.45,340.00 336.29,339.95 L 398.50 339.90 L 392.24 337.49 C368.82,328.48 347.09,312.13 336.47,295.53 C326.79,280.39 322.66,266.94 322.65,250.50 C322.63,229.40 329.35,213.57 344.96,197.95 C352.79,190.11 356.03,187.65 363.00,184.22 C375.99,177.83 385.10,175.75 400.00,175.75 C409.49,175.75 414.35,176.24 420.18,177.81 C438.77,182.82 452.88,191.00 467.86,205.46 C483.58,220.63 496.86,240.51 507.03,264.08 C509.66,270.16 512.03,275.37 512.30,275.64 C512.58,275.91 513.35,274.42 514.03,272.32 C515.79,266.86 526.15,245.75 531.12,237.50 C549.91,206.28 575.44,185.39 604.00,177.84 C616.57,174.52 634.12,174.77 646.46,178.44 C668.20,184.92 684.97,198.55 694.22,217.27 C700.31,229.58 701.45,234.79 701.47,250.50 C701.50,265.96 699.88,273.32 693.78,285.46 C686.59,299.77 674.93,312.94 661.34,322.11 C653.37,327.49 636.03,336.30 629.55,338.27 C626.21,339.28 637.08,339.59 691.00,340.03 C756.69,340.55 760.96,340.40 772.02,345.77 C762.00,341.04 754.92,341.17 662.25,340.63 L 568.00 340.08 L 568.00 806.94 L 580.75 807.22 C581.08,807.23 581.42,807.23 581.79,807.24 C525.37,807.33 462.16,807.37 411.24,807.32 C425.94,807.28 439.18,807.21 448.25,807.10 ZM 468.00 317.87 L 468.54 318.04 C479.50,321.52 481.54,322.17 481.91,321.64 C482.00,321.51 482.00,321.33 482.00,321.11 L 482.00 321.06 C482.00,318.46 474.25,295.04 469.83,284.30 C454.95,248.08 431.74,223.46 408.22,218.93 C387.00,214.86 367.63,227.41 365.35,246.73 C363.19,264.91 375.62,282.76 398.13,293.79 C408.24,298.75 415.87,301.50 442.50,309.83 C449.65,312.06 461.12,315.68 468.00,317.87 ZM 543.41 317.83 L 542.75 321.95 L 548.63 320.07 C551.86,319.03 561.47,316.07 570.00,313.49 C618.60,298.79 633.49,292.29 645.41,280.62 C655.18,271.05 658.25,264.71 658.82,252.93 C659.19,245.09 658.96,243.59 656.57,238.35 C649.67,223.24 633.05,215.36 615.69,218.96 C612.51,219.62 606.22,222.00 601.71,224.26 C595.20,227.51 591.63,230.23 584.48,237.43 C573.95,248.02 567.19,257.85 559.01,274.50 C553.14,286.44 544.67,309.96 543.41,317.83 ZM 651.80 719.24 C647.18,716.27 615.29,678.20 614.63,674.88 C613.25,668.00 619.24,661.00 626.50,661.00 C631.98,661.00 633.53,662.28 646.52,677.55 C652.36,684.41 657.53,689.79 658.01,689.49 C658.49,689.19 664.23,681.65 670.75,672.73 C710.28,618.66 718.46,607.75 720.37,606.52 C724.61,603.79 729.23,603.68 732.99,606.21 C740.93,611.56 740.76,617.42 732.35,628.88 C691.59,684.40 665.47,719.22 663.97,720.02 C661.08,721.56 654.76,721.16 651.80,719.24 ZM 241.44 352.67 C232.81,358.84 225.55,367.02 221.17,376.00 C225.67,366.77 232.73,358.76 241.44,352.67 ZM 726.50 806.51 C728.27,806.26 730.04,805.92 731.80,805.49 C730.04,805.93 728.27,806.28 726.50,806.55 C726.25,806.58 725.13,806.62 723.23,806.65 C725.02,806.61 726.15,806.56 726.50,806.51 ZM 761.70 789.45 C763.73,787.67 765.67,785.77 767.51,783.79 C767.54,783.76 767.57,783.73 767.61,783.71 C765.73,785.74 763.75,787.67 761.67,789.49 ZM 778.45 768.60 C779.62,766.45 780.66,764.25 781.58,762.00 C780.65,764.29 779.58,766.53 778.39,768.72 Z" fill="rgb(199,151,93)"/>

</g>
</svg>