<svg xmlns="http://www.w3.org/2000/svg" width="512" height="512" viewBox="0 0 512 512">
<g>
<path d="M 288.58 360.67 C281.32,363.05 278.72,363.35 263.00,363.63 C250.48,363.86 243.65,363.54 239.00,362.52 C215.39,357.32 200.70,343.83 194.33,321.50 C192.85,316.29 192.55,308.28 192.06,261.00 C191.57,212.85 191.31,206.15 189.85,203.50 C187.22,198.74 183.88,196.22 178.50,194.93 C175.75,194.27 172.90,193.56 172.17,193.36 C171.43,193.16 171.02,192.44 171.25,191.75 C171.57,190.78 179.35,190.50 205.58,190.50 C234.93,190.50 239.50,190.70 239.50,191.99 C239.50,193.02 237.85,193.71 234.03,194.26 C222.52,195.92 217.61,200.68 216.50,211.29 C216.14,214.70 216.02,239.77 216.23,267.00 C216.57,310.25 216.84,317.26 218.36,322.50 C223.54,340.42 231.39,349.08 246.51,353.59 C253.82,355.77 271.86,356.03 280.00,354.07 C298.44,349.63 309.15,338.54 313.69,319.21 C315.31,312.30 315.50,306.18 315.50,260.00 L 315.50 208.50 L 313.00 203.50 C310.12,197.74 306.44,195.48 297.97,194.26 C294.15,193.71 292.50,193.02 292.50,191.99 C292.50,190.71 296.28,190.50 319.50,190.50 C341.88,190.50 346.50,190.74 346.50,191.89 C346.50,192.71 344.59,193.76 341.85,194.46 C335.19,196.15 332.11,198.52 329.66,203.83 C327.56,208.37 327.48,209.95 326.91,262.00 C326.41,307.72 326.08,316.43 324.64,321.91 C319.38,341.87 307.72,354.40 288.58,360.67 Z" fill="rgba(30,42,74,1)"/>
<path d="M 263.57 312.75 C260.96,317.84 258.68,322.00 258.50,322.00 C258.32,322.00 256.29,318.51 253.99,314.25 C248.87,304.75 241.78,295.11 235.11,288.58 C232.35,285.88 230.30,283.32 230.57,282.89 C231.88,280.76 248.30,288.01 255.09,293.73 C256.76,295.13 258.46,295.88 258.86,295.39 C259.27,294.90 262.16,291.31 265.29,287.41 C277.50,272.16 304.00,249.68 304.00,254.57 C304.00,254.88 301.03,258.42 297.41,262.42 C286.05,274.96 272.92,294.49 263.57,312.75 Z" fill="rgba(200,168,100,1)"/>
<path d="M 123.79 487.45 C105.79,484.65 86.51,476.30 70.90,464.56 C51.96,450.31 37.78,430.39 29.95,407.01 C29.15,404.63 28.47,402.60 27.87,400.53 C23.98,387.06 24.01,372.46 24.01,256.50 C24.01,140.67 23.97,125.99 27.88,112.44 C28.49,110.32 29.20,108.24 30.02,105.79 C44.29,63.20 80.98,32.08 124.70,25.49 C139.29,23.29 373.71,23.29 388.30,25.49 C432.02,32.08 468.71,63.20 482.98,105.79 C483.80,108.24 484.51,110.32 485.12,112.44 C489.03,125.99 488.99,140.67 488.99,256.50 C488.99,372.33 489.03,387.01 485.12,400.56 C484.51,402.68 483.80,404.76 482.98,407.21 C468.71,449.80 432.02,480.92 388.30,487.51 C374.42,489.60 137.27,489.55 123.79,487.45 ZM 126.52 484.89 C135.08,486.13 376.77,486.21 385.50,484.97 C411.34,481.29 434.02,470.07 452.05,452.05 C470.07,434.02 481.29,411.34 484.97,385.50 C485.58,381.16 485.96,332.09 485.96,256.50 C485.96,180.91 485.58,131.84 484.97,127.50 C481.29,101.66 470.07,78.98 452.05,60.95 C434.02,42.93 411.34,31.71 385.50,28.03 C376.03,26.69 136.97,26.69 127.50,28.03 C101.66,31.71 78.98,42.93 60.95,60.95 C42.93,78.98 31.71,101.66 28.03,127.50 C26.69,136.97 26.69,376.03 28.03,385.50 C35.42,437.45 75.00,477.38 126.52,484.89 Z" fill="rgba(225,237,253,1)"/>
<path d="M 126.52 484.89 C75.00,477.38 35.42,437.45 28.03,385.50 C26.69,376.03 26.69,136.97 28.03,127.50 C31.71,101.66 42.93,78.98 60.95,60.95 C78.98,42.93 101.66,31.71 127.50,28.03 C136.97,26.69 376.03,26.69 385.50,28.03 C411.34,31.71 434.02,42.93 452.05,60.95 C470.07,78.98 481.29,101.66 484.97,127.50 C485.58,131.84 485.96,180.91 485.96,256.50 C485.96,332.09 485.58,381.16 484.97,385.50 C481.29,411.34 470.07,434.02 452.05,452.05 C434.02,470.07 411.34,481.29 385.50,484.97 C376.77,486.21 135.08,486.13 126.52,484.89 ZM 288.58 360.67 C307.72,354.40 319.38,341.87 324.64,321.91 C326.08,316.43 326.41,307.72 326.91,262.00 C327.48,209.95 327.56,208.37 329.66,203.83 C332.11,198.52 335.19,196.15 341.85,194.46 C344.59,193.76 346.50,192.71 346.50,191.89 C346.50,190.74 341.88,190.50 319.50,190.50 C296.28,190.50 292.50,190.71 292.50,191.99 C292.50,193.02 294.15,193.71 297.97,194.26 C306.44,195.48 310.12,197.74 313.00,203.50 L 315.50 208.50 L 315.50 260.00 C315.50,306.18 315.31,312.30 313.69,319.21 C309.15,338.54 298.44,349.63 280.00,354.07 C271.86,356.03 253.82,355.77 246.51,353.59 C231.39,349.08 223.54,340.42 218.36,322.50 C216.84,317.26 216.57,310.25 216.23,267.00 C216.02,239.77 216.14,214.70 216.50,211.29 C217.61,200.68 222.52,195.92 234.03,194.26 C237.85,193.71 239.50,193.02 239.50,191.99 C239.50,190.70 234.93,190.50 205.58,190.50 C179.35,190.50 171.57,190.78 171.25,191.75 C171.02,192.44 171.43,193.16 172.17,193.36 C172.90,193.56 175.75,194.27 178.50,194.93 C183.88,196.22 187.22,198.74 189.85,203.50 C191.31,206.15 191.57,212.85 192.06,261.00 C192.55,308.28 192.85,316.29 194.33,321.50 C200.70,343.83 215.39,357.32 239.00,362.52 C243.65,363.54 250.48,363.86 263.00,363.63 C278.72,363.35 281.32,363.05 288.58,360.67 ZM 263.57 312.75 C272.92,294.49 286.05,274.96 297.41,262.42 C301.03,258.42 304.00,254.88 304.00,254.57 C304.00,249.68 277.50,272.16 265.29,287.41 C262.16,291.31 259.27,294.90 258.86,295.39 C258.46,295.88 256.76,295.13 255.09,293.73 C248.30,288.01 231.88,280.76 230.57,282.89 C230.30,283.32 232.35,285.88 235.11,288.58 C241.78,295.11 248.87,304.75 253.99,314.25 C256.29,318.51 258.32,322.00 258.50,322.00 C258.68,322.00 260.96,317.84 263.57,312.75 Z" fill="rgba(247,249,252,1)"/>
</g>
</svg>