<svg xmlns="http://www.w3.org/2000/svg" width="512" height="512" viewBox="0 0 512 512" fill="none">
  <path d="M 27 0 L 0 27 L 0 511 L 113 511 L 127 487 L 127 511 L 511 511 L 511 127 L 487 113 L 511 113 L 511 27 L 487 0 L 251 0 L 263 27 L 238 0 L 238 27 L 213 0 L 127 0 L 138 27 L 113 0 Z M 475 488 L 487 487 L 488 499 L 476 500 Z M 450 488 L 462 487 L 463 499 L 458 501 L 451 501 Z M 425 488 L 437 487 L 438 499 L 426 500 Z M 400 488 L 412 487 L 413 499 L 410 501 L 401 500 Z M 375 488 L 387 487 L 388 499 L 384 501 L 376 500 Z M 350 488 L 362 487 L 363 499 L 359 501 L 351 500 Z M 325 488 L 337 487 L 338 499 L 326 500 Z M 300 488 L 313 487 L 313 499 L 308 501 L 301 501 Z M 275 488 L 287 487 L 288 499 L 276 500 Z M 250 488 L 263 487 L 264 500 L 251 500 Z M 225 488 L 238 487 L 239 499 L 226 501 Z M 200 488 L 213 487 L 214 499 L 210 501 L 202 500 L 200 495 Z M 176 488 L 188 487 L 189 499 L 177 500 Z M 151 488 L 163 487 L 164 500 L 152 500 Z M 101 488 L 113 487 L 114 499 L 102 500 Z M 76 488 L 88 487 L 89 500 L 77 501 Z M 51 488 L 63 487 L 64 500 L 52 501 Z M 26 488 L 38 487 L 39 500 L 27 500 Z M 487 476 L 499 475 L 500 487 L 488 488 Z M 462 476 L 474 475 L 475 487 L 463 488 Z M 437 476 L 450 475 L 451 487 L 438 488 Z M 412 476 L 425 475 L 426 487 L 413 488 Z M 387 476 L 400 475 L 401 487 L 388 488 Z M 363 476 L 375 475 L 376 487 L 364 488 L 362 484 Z M 338 476 L 350 475 L 351 487 L 339 488 Z M 288 476 L 300 475 L 301 487 L 289 488 Z M 263 476 L 275 475 L 276 487 L 264 488 Z M 238 476 L 250 475 L 251 487 L 239 488 Z M 213 476 L 225 475 L 226 487 L 214 488 Z M 188 476 L 200 475 L 201 487 L 189 488 Z M 163 476 L 175 475 L 176 487 L 164 488 Z M 138 476 L 150 475 L 151 487 L 139 488 Z M 113 476 L 126 475 L 127 487 L 114 488 Z M 88 476 L 101 475 L 102 487 L 89 488 Z M 64 476 L 76 475 L 77 487 L 65 488 Z M 39 476 L 51 475 L 52 487 L 40 488 Z M 14 476 L 26 475 L 27 487 L 15 488 Z M 475 463 L 487 462 L 488 475 L 476 476 Z M 450 463 L 462 462 L 463 475 L 451 476 Z M 425 463 L 437 462 L 438 475 L 426 476 Z M 400 463 L 412 462 L 413 475 L 401 476 Z M 375 463 L 387 462 L 388 475 L 376 476 Z M 350 463 L 362 462 L 363 475 L 351 476 Z M 325 463 L 338 462 L 338 475 L 326 476 Z M 300 463 L 313 462 L 315 475 L 326 476 L 326 487 L 314 488 L 313 476 L 300 475 Z M 275 463 L 287 462 L 289 475 L 276 476 Z M 250 463 L 263 462 L 264 475 L 251 476 Z M 225 463 L 238 462 L 239 475 L 226 476 Z M 201 463 L 213 462 L 214 475 L 201 476 Z M 176 463 L 188 462 L 189 475 L 177 476 Z M 151 463 L 163 462 L 164 475 L 152 476 Z M 126 463 L 138 462 L 139 475 L 127 476 Z M 101 463 L 113 462 L 114 475 L 102 476 Z M 76 463 L 88 462 L 89 475 L 77 476 Z M 51 463 L 63 462 L 64 475 L 52 476 Z M 26 463 L 38 462 L 39 475 L 27 476 Z M 487 451 L 499 450 L 500 462 L 488 463 Z M 462 451 L 474 450 L 475 462 L 463 463 Z M 437 451 L 450 450 L 451 462 L 438 463 Z M 412 451 L 425 450 L 426 462 L 413 463 Z M 387 451 L 400 450 L 401 462 L 388 463 Z M 363 451 L 375 450 L 376 462 L 364 463 L 362 456 Z M 338 451 L 350 450 L 351 462 L 339 463 Z M 313 451 L 325 450 L 326 462 L 314 463 Z M 288 451 L 300 450 L 301 462 L 289 463 Z M 263 451 L 275 450 L 276 462 L 264 463 Z M 238 451 L 250 450 L 251 462 L 239 463 Z M 213 451 L 225 450 L 226 462 L 214 463 Z M 188 451 L 200 450 L 201 462 L 189 463 Z M 163 451 L 175 450 L 176 462 L 164 463 Z M 138 451 L 150 450 L 151 462 L 139 463 Z M 113 451 L 126 450 L 127 462 L 114 463 Z M 88 451 L 101 450 L 102 462 L 89 463 Z M 64 451 L 76 450 L 77 462 L 65 463 L 63 458 Z M 39 451 L 51 450 L 52 462 L 39 463 Z M 14 451 L 26 450 L 27 462 L 15 463 Z M 475 438 L 487 437 L 488 450 L 476 451 Z M 450 438 L 462 437 L 463 450 L 451 451 Z M 425 438 L 437 437 L 438 450 L 426 451 Z M 400 438 L 412 437 L 413 450 L 401 451 Z M 375 438 L 387 437 L 388 450 L 376 451 Z M 350 438 L 362 437 L 363 450 L 351 451 Z M 325 438 L 337 437 L 338 450 L 326 451 Z M 300 438 L 312 437 L 314 440 L 314 450 L 301 451 Z M 275 438 L 287 437 L 289 450 L 276 451 Z M 250 438 L 263 437 L 264 450 L 251 451 Z M 225 438 L 238 437 L 239 450 L 226 451 Z M 200 438 L 213 437 L 214 450 L 201 451 Z M 176 438 L 188 437 L 189 450 L 177 451 Z M 151 438 L 163 437 L 164 450 L 152 451 Z M 126 438 L 138 437 L 139 450 L 127 451 Z M 101 438 L 113 437 L 114 450 L 102 451 Z M 76 438 L 88 437 L 89 450 L 77 451 Z M 51 438 L 63 437 L 64 450 L 52 451 Z M 26 438 L 38 437 L 39 450 L 27 451 Z M 487 426 L 499 425 L 500 437 L 488 438 Z M 462 426 L 474 425 L 475 437 L 463 438 Z M 437 426 L 450 425 L 450 437 L 438 438 Z M 412 426 L 425 425 L 426 437 L 413 438 Z M 387 426 L 400 425 L 401 437 L 388 438 Z M 113 426 L 126 425 L 127 437 L 114 438 Z M 88 426 L 101 425 L 102 437 L 89 438 Z M 64 426 L 76 425 L 77 437 L 65 438 Z M 39 426 L 51 425 L 52 437 L 39 438 Z M 14 426 L 26 425 L 27 437 L 15 438 Z M 475 413 L 487 412 L 488 425 L 476 426 Z M 450 413 L 462 412 L 463 425 L 451 426 Z M 425 413 L 437 412 L 438 425 L 426 426 Z M 76 413 L 88 412 L 89 425 L 77 426 Z M 51 413 L 62 412 L 64 414 L 64 425 L 52 426 Z M 26 413 L 37 412 L 39 414 L 39 425 L 27 426 Z M 487 401 L 499 400 L 500 412 L 488 413 Z M 462 401 L 474 400 L 475 412 L 463 413 Z M 437 401 L 449 400 L 451 403 L 450 412 L 438 413 Z M 64 401 L 76 400 L 77 412 L 65 413 Z M 39 401 L 51 400 L 52 412 L 40 413 L 38 411 Z M 14 401 L 26 400 L 27 412 L 15 413 L 13 407 Z M 475 389 L 487 388 L 488 400 L 476 401 Z M 450 389 L 462 388 L 463 400 L 451 401 Z M 425 389 L 437 388 L 438 400 L 426 401 Z M 76 389 L 88 388 L 89 400 L 77 401 Z M 26 389 L 38 388 L 39 400 L 27 401 Z M 52 388 L 58 387 L 64 389 L 63 401 L 51 400 Z M 487 376 L 499 375 L 500 387 L 488 388 Z M 462 376 L 474 375 L 475 387 L 463 388 Z M 437 376 L 450 375 L 450 387 L 438 388 Z M 64 376 L 76 375 L 77 387 L 65 388 L 63 382 Z M 39 376 L 51 375 L 52 387 L 40 388 Z M 14 376 L 26 375 L 27 387 L 15 388 Z M 475 364 L 487 363 L 488 375 L 476 376 Z M 450 364 L 462 363 L 463 375 L 451 376 Z M 425 364 L 437 363 L 438 375 L 426 376 Z M 76 364 L 88 363 L 89 375 L 77 376 Z M 51 364 L 63 363 L 64 375 L 52 376 Z M 26 364 L 38 363 L 39 375 L 27 376 Z M 487 351 L 499 350 L 500 362 L 488 364 Z M 462 351 L 474 350 L 475 363 L 463 363 Z M 437 351 L 450 350 L 450 362 L 446 364 L 438 363 Z M 64 351 L 76 350 L 77 362 L 70 364 L 65 363 Z M 39 351 L 51 350 L 52 363 L 40 363 Z M 14 351 L 26 350 L 27 363 L 15 363 Z M 475 339 L 487 338 L 488 350 L 476 351 Z M 450 339 L 462 338 L 463 350 L 451 351 Z M 425 339 L 437 338 L 438 350 L 426 351 Z M 76 339 L 88 338 L 89 350 L 77 351 Z M 51 339 L 63 338 L 64 350 L 52 351 Z M 26 339 L 38 338 L 39 350 L 27 351 Z M 487 326 L 499 325 L 500 338 L 488 339 Z M 462 326 L 474 325 L 476 338 L 463 339 Z M 437 326 L 450 325 L 451 338 L 438 339 Z M 64 326 L 76 325 L 77 338 L 65 339 Z M 39 326 L 51 325 L 52 338 L 39 339 Z M 14 326 L 26 325 L 27 338 L 15 339 Z M 475 314 L 487 313 L 488 325 L 476 326 Z M 450 314 L 462 313 L 463 325 L 451 326 Z M 425 314 L 437 313 L 438 325 L 426 326 Z M 76 314 L 88 313 L 89 325 L 77 326 Z M 51 314 L 63 313 L 64 325 L 52 326 Z M 26 314 L 38 313 L 39 325 L 27 326 Z M 487 301 L 499 300 L 500 313 L 488 314 Z M 462 301 L 474 300 L 475 313 L 463 314 Z M 437 301 L 450 300 L 450 313 L 438 314 Z M 64 301 L 76 300 L 77 313 L 65 314 L 63 311 Z M 39 301 L 51 300 L 52 313 L 40 314 L 38 310 Z M 14 301 L 26 300 L 27 313 L 15 314 Z M 475 289 L 487 288 L 488 300 L 476 301 Z M 450 289 L 462 288 L 463 300 L 451 301 Z M 425 289 L 437 288 L 438 300 L 426 301 Z M 76 289 L 88 288 L 89 300 L 77 301 Z M 51 289 L 63 288 L 64 300 L 52 301 Z M 26 289 L 38 288 L 39 300 L 27 301 Z M 487 276 L 499 275 L 500 288 L 488 289 Z M 462 276 L 474 275 L 475 288 L 463 289 Z M 437 276 L 449 275 L 451 278 L 451 288 L 438 289 Z M 65 276 L 77 276 L 76 289 L 64 288 Z M 39 276 L 51 275 L 52 288 L 40 289 Z M 14 276 L 26 275 L 27 288 L 15 289 Z M 475 264 L 487 263 L 488 275 L 476 276 Z M 450 264 L 462 263 L 463 275 L 451 276 Z M 425 264 L 437 263 L 438 275 L 426 276 Z M 76 264 L 88 263 L 89 275 L 77 276 Z M 51 264 L 63 263 L 64 275 L 52 276 Z M 26 264 L 38 263 L 39 275 L 27 276 Z M 487 251 L 498 250 L 500 252 L 500 263 L 488 264 Z M 462 251 L 474 250 L 475 263 L 463 264 Z M 437 251 L 450 250 L 451 263 L 438 264 Z M 66 250 L 77 251 L 76 264 L 64 263 L 64 252 Z M 14 251 L 26 250 L 27 263 L 15 264 Z M 475 239 L 487 238 L 488 250 L 476 251 Z M 450 239 L 462 238 L 463 250 L 451 251 Z M 425 239 L 437 238 L 438 250 L 426 251 Z M 76 239 L 88 238 L 89 250 L 77 251 Z M 51 239 L 63 238 L 64 250 L 52 251 Z M 26 239 L 38 238 L 39 250 L 52 251 L 52 263 L 40 264 L 39 253 L 37 251 L 26 250 Z M 487 227 L 499 226 L 500 238 L 488 239 Z M 462 227 L 474 226 L 475 238 L 463 239 Z M 437 227 L 450 226 L 451 238 L 438 239 Z M 64 227 L 76 226 L 77 238 L 65 239 Z M 39 227 L 51 226 L 52 238 L 40 239 L 38 235 Z M 14 227 L 26 226 L 27 238 L 15 239 Z M 475 214 L 487 213 L 488 225 L 476 226 Z M 450 214 L 462 213 L 463 225 L 451 226 Z M 425 214 L 437 213 L 438 225 L 426 226 Z M 76 214 L 88 213 L 89 225 L 77 226 Z M 51 214 L 63 213 L 64 225 L 52 226 Z M 26 214 L 38 213 L 39 225 L 27 226 Z M 487 202 L 499 201 L 500 213 L 488 214 Z M 462 202 L 474 201 L 475 213 L 463 214 Z M 437 202 L 450 201 L 451 213 L 438 214 Z M 64 202 L 76 201 L 77 213 L 64 214 Z M 38 202 L 51 201 L 52 213 L 40 214 Z M 14 202 L 26 201 L 27 213 L 15 214 Z M 475 189 L 487 188 L 488 200 L 476 201 Z M 450 189 L 462 188 L 463 200 L 451 201 Z M 76 189 L 88 188 L 89 200 L 77 201 Z M 51 189 L 63 188 L 64 200 L 52 202 Z M 26 189 L 38 188 L 39 200 L 27 201 Z M 487 177 L 499 176 L 500 188 L 488 189 Z M 462 177 L 474 176 L 475 188 L 463 189 Z M 437 177 L 450 176 L 451 188 L 438 189 Z M 64 177 L 76 176 L 77 188 L 65 189 Z M 39 177 L 51 176 L 52 188 L 40 189 L 38 186 Z M 14 177 L 26 176 L 27 188 L 15 189 Z M 475 164 L 487 163 L 488 176 L 476 177 Z M 450 164 L 462 163 L 463 176 L 451 176 Z M 425 164 L 437 163 L 438 175 L 434 177 L 426 177 Z M 76 164 L 88 163 L 89 176 L 77 176 Z M 51 164 L 63 163 L 64 176 L 52 177 Z M 26 164 L 38 163 L 39 176 L 27 177 Z M 487 152 L 499 151 L 500 163 L 488 164 Z M 462 152 L 474 151 L 475 163 L 463 164 Z M 437 152 L 449 151 L 451 163 L 438 164 Z M 64 152 L 76 151 L 77 163 L 65 164 Z M 39 152 L 51 151 L 52 163 L 40 164 Z M 14 152 L 26 151 L 27 163 L 15 164 L 13 161 Z M 425 139 L 437 138 L 438 151 L 426 152 Z M 76 139 L 88 138 L 89 151 L 77 152 Z M 51 139 L 63 138 L 64 150 L 62 152 L 52 152 Z M 26 139 L 38 138 L 39 151 L 27 152 Z M 487 127 L 499 126 L 500 138 L 488 139 Z M 462 127 L 474 126 L 475 137 L 488 139 L 488 151 L 476 152 L 475 141 L 473 139 L 462 138 Z M 437 127 L 449 126 L 451 138 L 463 139 L 463 151 L 451 152 L 450 141 L 448 139 L 437 138 Z M 64 127 L 76 126 L 77 138 L 65 139 Z M 39 127 L 51 126 L 52 138 L 40 139 Z M 14 127 L 26 126 L 27 138 L 15 139 Z M 475 114 L 487 113 L 488 126 L 476 127 Z M 450 114 L 462 113 L 463 126 L 451 127 Z M 425 114 L 437 113 L 438 126 L 426 127 Z M 76 114 L 88 113 L 89 126 L 77 127 Z M 51 114 L 63 113 L 65 126 L 52 127 Z M 26 114 L 38 113 L 39 126 L 27 127 Z M 462 102 L 474 101 L 475 113 L 463 114 Z M 437 102 L 450 101 L 450 113 L 438 114 Z M 413 102 L 425 101 L 426 113 L 413 114 Z M 387 102 L 400 101 L 401 113 L 388 114 Z M 313 102 L 325 101 L 326 113 L 314 114 Z M 288 102 L 300 101 L 301 113 L 289 114 Z M 263 102 L 275 101 L 276 113 L 264 114 Z M 238 102 L 250 101 L 251 113 L 239 114 Z M 213 102 L 225 101 L 226 113 L 214 114 Z M 188 102 L 200 101 L 201 113 L 189 114 Z M 88 102 L 101 101 L 102 113 L 89 114 Z M 64 102 L 76 101 L 77 113 L 64 114 Z M 39 102 L 51 101 L 52 113 L 40 114 Z M 14 102 L 26 101 L 27 113 L 15 114 Z M 477 88 L 488 89 L 487 102 L 475 101 L 475 90 Z M 450 89 L 462 88 L 463 101 L 451 102 Z M 425 89 L 437 88 L 438 101 L 426 102 Z M 400 89 L 412 88 L 413 101 L 401 102 Z M 375 89 L 387 88 L 388 101 L 376 102 Z M 300 89 L 312 88 L 314 91 L 313 101 L 301 102 Z M 275 89 L 287 88 L 288 101 L 276 102 Z M 250 89 L 263 88 L 264 101 L 251 102 Z M 225 89 L 238 88 L 239 101 L 227 102 L 225 99 Z M 200 89 L 213 88 L 214 101 L 201 102 Z M 101 89 L 113 88 L 114 101 L 102 102 Z M 76 89 L 88 88 L 89 101 L 77 102 Z M 51 89 L 62 88 L 64 90 L 64 101 L 52 102 Z M 26 89 L 38 88 L 39 101 L 27 102 Z M 487 77 L 499 76 L 500 88 L 488 89 Z M 462 77 L 474 76 L 476 85 L 475 88 L 463 89 Z M 437 77 L 450 76 L 451 88 L 438 89 Z M 412 77 L 425 76 L 426 88 L 413 89 Z M 387 77 L 400 76 L 401 88 L 388 89 Z M 363 77 L 375 76 L 376 88 L 364 89 Z M 313 77 L 325 76 L 326 88 L 314 89 Z M 288 77 L 300 76 L 301 88 L 289 89 Z M 263 77 L 275 76 L 276 88 L 264 89 Z M 238 77 L 250 76 L 251 88 L 239 89 Z M 213 77 L 225 76 L 226 88 L 214 89 Z M 188 77 L 200 76 L 201 88 L 189 89 Z M 114 101 L 138 113 L 175 76 L 170 91 L 189 89 L 189 119 L 321 120 L 333 108 L 325 89 L 344 91 L 338 77 L 350 76 L 376 102 L 373 120 L 387 113 L 400 126 L 412 113 L 402 128 L 412 137 L 426 127 L 415 139 L 426 152 L 421 199 L 437 188 L 438 200 L 419 214 L 426 387 L 416 400 L 426 412 L 411 407 L 412 426 L 399 418 L 375 438 L 363 426 L 350 438 L 338 426 L 325 438 L 313 426 L 300 438 L 288 426 L 275 438 L 263 426 L 250 438 L 238 426 L 225 438 L 213 426 L 200 438 L 151 426 L 139 438 L 138 426 L 102 426 L 103 408 L 88 412 L 88 152 L 98 141 L 88 127 L 109 130 L 102 113 L 125 122 Z M 138 77 L 150 76 L 151 88 L 139 89 Z M 113 77 L 126 76 L 127 88 L 139 89 L 139 101 L 127 102 L 126 91 L 124 89 L 113 88 Z M 88 77 L 101 76 L 102 88 L 89 89 Z M 64 77 L 76 76 L 77 88 L 65 89 Z M 39 77 L 51 76 L 52 88 L 40 89 Z M 14 77 L 26 76 L 27 88 L 15 89 Z M 450 65 L 462 64 L 463 76 L 451 77 Z M 425 65 L 437 64 L 438 76 L 426 77 Z M 400 65 L 412 64 L 413 76 L 401 77 Z M 375 65 L 387 64 L 388 76 L 376 77 Z M 350 65 L 362 64 L 364 72 L 363 76 L 351 77 Z M 300 65 L 313 64 L 314 76 L 301 77 Z M 275 65 L 287 64 L 288 76 L 276 77 Z M 250 65 L 263 64 L 264 76 L 251 77 Z M 200 66 L 202 64 L 213 64 L 214 76 L 201 77 Z M 176 65 L 188 64 L 189 76 L 177 77 Z M 101 65 L 113 64 L 114 76 L 102 77 Z M 76 65 L 88 64 L 89 76 L 77 77 Z M 51 65 L 63 64 L 64 76 L 52 77 Z M 26 65 L 38 64 L 39 76 L 27 77 Z M 337 64 L 339 69 L 339 76 L 326 77 L 325 65 L 334 63 Z M 153 63 L 161 63 L 164 65 L 163 77 L 151 76 L 151 65 Z M 126 64 L 138 64 L 139 76 L 127 77 Z M 487 52 L 499 51 L 500 63 L 488 64 Z M 462 52 L 474 51 L 476 55 L 475 62 L 477 64 L 488 65 L 488 76 L 476 77 L 475 66 L 473 64 L 462 64 Z M 437 52 L 450 51 L 451 63 L 438 64 Z M 412 52 L 425 51 L 426 63 L 423 65 L 413 64 Z M 387 52 L 400 51 L 401 63 L 388 64 Z M 363 52 L 375 51 L 376 63 L 364 64 L 362 57 Z M 338 52 L 350 51 L 351 63 L 339 64 Z M 313 52 L 325 51 L 326 63 L 314 64 Z M 288 52 L 300 51 L 301 63 L 293 65 L 289 64 Z M 263 52 L 275 51 L 276 63 L 264 64 Z M 238 52 L 250 51 L 251 63 L 239 64 Z M 213 52 L 225 51 L 226 62 L 228 64 L 239 65 L 239 76 L 226 77 L 225 65 L 213 63 Z M 188 52 L 200 51 L 201 63 L 189 64 Z M 163 52 L 175 51 L 176 63 L 173 65 L 164 64 Z M 138 52 L 150 51 L 151 63 L 139 64 Z M 113 52 L 126 51 L 127 63 L 114 64 Z M 88 52 L 101 51 L 102 63 L 89 64 Z M 64 52 L 76 51 L 77 63 L 65 64 Z M 39 52 L 51 51 L 52 63 L 40 64 L 38 61 Z M 14 52 L 26 51 L 27 63 L 15 64 Z M 475 40 L 487 39 L 488 51 L 476 52 Z M 450 40 L 462 39 L 463 51 L 451 52 Z M 425 40 L 437 39 L 438 51 L 426 52 Z M 400 40 L 412 39 L 413 51 L 401 52 Z M 375 40 L 387 39 L 388 51 L 376 52 Z M 350 40 L 362 39 L 363 51 L 351 52 Z M 300 40 L 312 39 L 314 44 L 313 51 L 301 52 Z M 275 40 L 287 39 L 288 51 L 276 52 Z M 250 40 L 263 39 L 264 51 L 251 52 Z M 225 40 L 238 39 L 239 51 L 226 52 Z M 200 40 L 213 39 L 214 51 L 201 52 Z M 176 40 L 188 39 L 189 51 L 177 52 Z M 151 40 L 163 39 L 164 51 L 152 52 Z M 126 40 L 138 39 L 139 51 L 127 52 Z M 101 40 L 113 39 L 114 51 L 102 52 Z M 76 40 L 88 39 L 89 51 L 77 52 Z M 51 40 L 63 39 L 64 51 L 52 52 Z M 26 40 L 38 39 L 39 51 L 27 52 Z M 487 27 L 499 26 L 500 38 L 488 39 Z M 462 27 L 474 26 L 475 38 L 463 40 Z M 437 27 L 449 26 L 451 29 L 451 38 L 438 40 Z M 412 27 L 425 26 L 426 38 L 422 40 L 413 40 Z M 387 27 L 400 26 L 401 39 L 388 39 Z M 363 27 L 375 26 L 376 38 L 364 40 L 362 33 Z M 350 26 L 351 38 L 338 40 L 337 52 L 326 52 L 325 40 L 336 39 L 338 37 L 339 26 Z M 313 27 L 325 26 L 326 38 L 314 39 Z M 288 27 L 300 26 L 301 38 L 289 39 Z M 263 27 L 275 26 L 276 38 L 268 40 L 264 39 Z M 238 27 L 250 26 L 251 38 L 239 39 Z M 213 27 L 225 26 L 226 38 L 214 39 Z M 188 27 L 200 26 L 201 38 L 197 40 L 189 40 Z M 163 27 L 175 26 L 176 38 L 164 39 Z M 138 27 L 150 26 L 151 38 L 139 39 Z M 113 27 L 126 26 L 127 38 L 123 40 L 114 39 Z M 88 27 L 101 26 L 102 38 L 95 40 L 89 39 Z M 64 27 L 76 26 L 77 38 L 74 40 L 65 39 Z M 39 27 L 51 26 L 52 38 L 45 40 L 40 39 Z M 14 27 L 26 26 L 27 38 L 15 39 Z M 475 15 L 487 14 L 488 26 L 476 27 Z M 450 15 L 462 14 L 463 26 L 451 27 Z M 425 15 L 437 14 L 438 26 L 426 27 Z M 400 15 L 412 14 L 413 26 L 401 27 Z M 375 15 L 387 14 L 388 26 L 376 27 Z M 350 15 L 362 14 L 363 26 L 351 27 Z M 325 15 L 338 14 L 338 26 L 326 27 Z M 300 15 L 312 14 L 314 16 L 314 26 L 301 27 Z M 275 15 L 287 14 L 288 26 L 276 27 Z M 200 15 L 213 14 L 214 26 L 202 27 L 200 23 Z M 176 15 L 188 14 L 189 26 L 177 27 Z M 151 15 L 163 14 L 164 26 L 152 27 Z M 101 15 L 113 14 L 114 26 L 102 27 Z M 76 15 L 88 14 L 89 26 L 77 27 Z M 51 15 L 63 14 L 64 26 L 52 27 Z M 26 15 L 38 14 L 39 26 L 27 27 Z" fill="#f7f6f6" fill-rule="evenodd"/>
  <path d="M 114 101 L 138 113 L 175 76 L 170 91 L 189 89 L 189 119 L 321 120 L 333 108 L 325 89 L 344 91 L 338 77 L 350 76 L 376 102 L 373 120 L 387 113 L 400 126 L 412 113 L 402 128 L 412 137 L 426 127 L 415 139 L 426 152 L 421 199 L 437 188 L 438 200 L 419 214 L 426 387 L 416 400 L 426 412 L 411 407 L 412 426 L 399 418 L 375 438 L 363 426 L 350 438 L 338 426 L 325 438 L 313 426 L 300 438 L 288 426 L 275 438 L 263 426 L 250 438 L 238 426 L 225 438 L 213 426 L 200 438 L 151 426 L 139 438 L 138 426 L 102 426 L 103 408 L 88 412 L 88 152 L 98 141 L 88 127 L 109 130 L 102 113 L 125 122 Z" fill="#f7f6f6" fill-rule="evenodd"/>
  <path d="M 95 204 L 95 390 L 118 420 L 374 424 L 392 421 L 412 405 L 418 388 L 418 204 Z M 325 323 L 330 321 L 373 321 L 383 327 L 386 332 L 386 379 L 379 388 L 375 390 L 328 390 L 321 385 L 317 377 L 317 334 L 319 329 Z M 230 323 L 235 321 L 275 321 L 281 323 L 286 328 L 289 335 L 289 340 L 287 341 L 289 343 L 289 366 L 287 367 L 288 377 L 281 385 L 277 387 L 234 387 L 225 381 L 222 374 L 222 335 L 224 334 L 224 329 Z M 133 324 L 140 321 L 179 321 L 180 323 L 185 323 L 192 330 L 191 333 L 193 334 L 193 375 L 186 385 L 182 387 L 138 387 L 129 380 L 127 376 L 127 332 Z M 327 234 L 333 232 L 371 232 L 377 234 L 383 240 L 385 246 L 385 284 L 383 290 L 375 297 L 329 297 L 320 289 L 319 243 Z M 228 236 L 233 233 L 236 234 L 237 232 L 276 232 L 282 235 L 287 240 L 289 245 L 289 285 L 282 295 L 278 297 L 233 297 L 225 291 L 223 287 L 223 244 Z M 133 235 L 140 232 L 180 232 L 187 235 L 188 238 L 191 239 L 193 244 L 193 286 L 185 296 L 178 296 L 177 298 L 175 296 L 137 297 L 131 293 L 131 291 L 127 287 L 127 244 Z" fill="#f8f4f1" fill-rule="evenodd"/>
  <path d="M 95 157 L 95 201 L 418 201 L 416 149 L 404 132 L 384 123 L 371 123 L 371 146 L 359 159 L 347 159 L 337 151 L 334 123 L 180 123 L 179 147 L 167 159 L 146 152 L 143 123 L 129 123 L 109 132 Z" fill="#8e1929" fill-rule="evenodd"/>
  <path d="M 376 65 L 376 76 L 364 77 L 364 88 L 376 89 L 372 112 L 378 121 L 387 122 L 387 115 L 375 113 L 376 101 L 387 101 L 388 113 L 400 113 L 400 102 L 412 101 L 413 88 L 426 89 L 426 101 L 414 102 L 413 113 L 401 115 L 401 126 L 412 126 L 413 138 L 426 139 L 426 151 L 419 153 L 420 163 L 426 164 L 426 176 L 420 180 L 426 200 L 437 200 L 438 188 L 450 188 L 451 200 L 462 200 L 462 189 L 474 188 L 474 177 L 462 176 L 462 164 L 474 163 L 474 152 L 462 151 L 462 139 L 474 138 L 474 127 L 462 126 L 462 114 L 474 113 L 474 102 L 462 101 L 462 89 L 474 88 L 474 77 L 463 77 L 462 65 L 451 65 L 450 77 L 438 77 L 437 65 L 426 65 L 425 77 L 413 77 L 412 65 L 401 65 L 400 77 L 388 77 L 387 65 Z M 426 151 L 430 150 L 438 152 L 437 164 L 425 163 Z M 438 138 L 450 138 L 451 151 L 458 150 L 463 152 L 463 163 L 451 164 L 451 175 L 463 177 L 462 189 L 451 189 L 450 177 L 438 177 L 437 189 L 425 188 L 425 177 L 430 175 L 437 175 L 437 164 L 449 163 L 450 161 L 449 152 L 437 151 Z M 425 127 L 437 126 L 438 138 L 426 139 Z M 412 114 L 425 113 L 426 126 L 413 127 Z M 425 102 L 437 101 L 438 113 L 426 114 Z M 438 88 L 450 88 L 451 101 L 463 102 L 463 113 L 451 114 L 451 126 L 463 127 L 462 139 L 451 139 L 449 127 L 437 126 L 437 114 L 449 113 L 450 110 L 449 102 L 437 101 Z M 387 89 L 400 88 L 401 101 L 388 102 Z M 450 77 L 462 76 L 463 88 L 451 89 Z M 425 77 L 437 76 L 438 88 L 426 89 Z M 400 77 L 412 76 L 413 88 L 401 89 Z M 375 77 L 387 76 L 388 88 L 376 89 Z" fill="#fefefe" fill-rule="evenodd"/>
  <path d="M 462 389 L 451 389 L 451 400 L 463 401 L 463 412 L 451 413 L 451 425 L 463 426 L 463 437 L 451 438 L 451 450 L 463 451 L 462 463 L 451 463 L 449 451 L 437 450 L 437 438 L 450 435 L 449 426 L 437 425 L 437 413 L 450 410 L 449 401 L 437 400 L 437 389 L 426 389 L 426 400 L 415 401 L 413 412 L 401 417 L 400 426 L 383 424 L 388 426 L 387 438 L 376 438 L 375 426 L 364 426 L 364 437 L 376 438 L 376 450 L 363 454 L 364 462 L 376 463 L 376 475 L 364 476 L 363 482 L 364 487 L 376 488 L 376 499 L 387 499 L 388 487 L 400 487 L 401 499 L 409 500 L 413 487 L 425 487 L 426 499 L 437 499 L 438 487 L 450 487 L 451 499 L 458 500 L 463 487 L 474 487 L 474 476 L 462 475 L 462 463 L 474 462 L 474 451 L 462 450 L 462 438 L 474 437 L 474 426 L 462 425 L 462 413 L 474 412 L 474 401 L 463 401 Z M 450 476 L 462 475 L 463 487 L 451 488 L 449 480 Z M 425 476 L 437 475 L 438 487 L 426 488 Z M 400 476 L 412 475 L 413 487 L 401 488 Z M 375 476 L 387 475 L 388 487 L 376 488 Z M 437 463 L 450 462 L 451 475 L 438 476 Z M 412 463 L 425 462 L 426 475 L 413 476 Z M 387 463 L 400 462 L 401 475 L 388 476 Z M 425 451 L 437 450 L 438 462 L 426 463 Z M 400 451 L 412 450 L 413 462 L 401 463 Z M 375 451 L 387 450 L 388 462 L 376 463 Z M 412 438 L 425 437 L 426 450 L 413 451 Z M 387 438 L 400 437 L 401 450 L 388 451 Z M 425 426 L 437 425 L 438 437 L 426 438 Z M 400 426 L 412 425 L 413 437 L 401 438 Z M 412 413 L 425 412 L 426 425 L 413 426 Z M 425 401 L 437 400 L 438 412 L 426 413 Z" fill="#fefefe" fill-rule="evenodd"/>
  <path d="M 177 438 L 177 450 L 189 451 L 189 462 L 177 463 L 177 475 L 189 476 L 189 487 L 177 488 L 177 499 L 188 499 L 189 487 L 200 487 L 202 499 L 207 500 L 213 499 L 214 487 L 225 487 L 226 499 L 231 500 L 238 499 L 239 487 L 250 487 L 253 500 L 263 499 L 264 487 L 275 487 L 276 499 L 287 499 L 287 488 L 275 487 L 275 476 L 287 475 L 287 463 L 275 462 L 275 451 L 287 450 L 287 438 L 276 438 L 275 426 L 264 426 L 264 437 L 255 439 L 250 437 L 250 426 L 239 426 L 236 439 L 225 437 L 225 426 L 214 426 L 213 438 L 201 438 L 200 426 L 189 426 L 189 437 Z M 250 476 L 263 475 L 264 487 L 251 488 Z M 225 476 L 238 475 L 239 487 L 226 488 Z M 200 476 L 213 475 L 214 487 L 201 488 Z M 263 463 L 275 462 L 276 475 L 264 476 Z M 238 463 L 250 462 L 251 475 L 239 476 Z M 213 463 L 225 462 L 226 475 L 214 476 Z M 250 451 L 263 450 L 264 462 L 251 463 Z M 225 451 L 238 450 L 239 462 L 226 463 Z M 213 450 L 214 462 L 202 463 L 200 476 L 189 476 L 188 463 L 200 462 L 201 450 Z M 263 438 L 275 437 L 276 450 L 264 451 Z M 238 438 L 250 437 L 251 450 L 239 451 Z M 213 438 L 225 437 L 226 450 L 214 451 Z M 188 438 L 200 437 L 201 450 L 189 451 Z" fill="#fefefe" fill-rule="evenodd"/>
  <path d="M 138 65 L 127 65 L 126 77 L 114 77 L 113 65 L 102 65 L 101 77 L 89 77 L 88 65 L 77 65 L 77 76 L 65 77 L 65 88 L 77 89 L 77 101 L 65 102 L 63 114 L 51 113 L 51 102 L 63 101 L 63 90 L 51 88 L 51 77 L 63 76 L 63 65 L 52 65 L 52 76 L 40 77 L 40 88 L 52 89 L 52 101 L 40 102 L 40 113 L 52 114 L 52 126 L 40 127 L 40 138 L 52 139 L 52 151 L 40 152 L 40 163 L 51 163 L 52 175 L 63 176 L 63 164 L 51 163 L 51 152 L 63 150 L 63 139 L 52 139 L 51 127 L 63 126 L 64 113 L 76 113 L 77 126 L 65 127 L 65 138 L 77 139 L 77 151 L 65 152 L 65 163 L 76 163 L 77 175 L 89 177 L 88 189 L 77 189 L 76 177 L 65 177 L 65 188 L 76 188 L 77 200 L 88 200 L 93 188 L 88 164 L 94 152 L 88 151 L 88 139 L 100 138 L 102 126 L 113 126 L 113 114 L 125 113 L 127 101 L 139 102 L 139 113 L 127 115 L 127 122 L 138 121 L 143 103 L 138 89 L 150 88 L 150 77 L 139 77 Z M 76 152 L 88 151 L 89 163 L 77 164 Z M 76 127 L 88 126 L 89 138 L 77 139 Z M 88 114 L 101 113 L 102 126 L 89 127 Z M 101 102 L 113 101 L 114 113 L 102 114 Z M 76 102 L 88 101 L 89 113 L 81 115 L 77 114 Z M 113 89 L 126 88 L 127 101 L 114 102 Z M 88 89 L 101 88 L 102 101 L 89 102 Z M 126 77 L 138 76 L 139 88 L 127 89 Z M 101 77 L 113 76 L 114 88 L 102 89 Z M 76 77 L 88 76 L 89 88 L 77 89 Z" fill="#fefefe" fill-rule="evenodd"/>
  <path d="M 77 389 L 77 400 L 65 401 L 65 412 L 77 413 L 77 425 L 65 426 L 65 437 L 77 438 L 77 450 L 65 451 L 64 457 L 65 462 L 77 463 L 77 475 L 65 476 L 65 487 L 77 488 L 77 500 L 65 501 L 65 511 L 76 511 L 76 501 L 88 499 L 89 487 L 101 487 L 102 499 L 113 499 L 114 487 L 126 487 L 127 499 L 138 499 L 138 488 L 150 487 L 150 476 L 138 475 L 138 463 L 150 462 L 150 451 L 139 451 L 138 439 L 126 437 L 126 426 L 131 424 L 114 426 L 113 418 L 107 413 L 102 414 L 101 426 L 89 426 L 88 413 L 101 412 L 101 405 L 98 401 L 88 400 L 88 389 Z M 126 476 L 138 475 L 139 487 L 127 488 Z M 101 476 L 113 475 L 114 487 L 102 488 Z M 76 476 L 88 475 L 89 487 L 77 488 Z M 113 463 L 126 462 L 127 475 L 114 476 Z M 88 463 L 101 462 L 102 475 L 89 476 Z M 126 451 L 138 450 L 139 462 L 127 463 Z M 101 451 L 113 450 L 114 462 L 102 463 Z M 76 451 L 88 450 L 89 462 L 77 463 Z M 113 438 L 126 437 L 127 450 L 114 451 Z M 88 438 L 101 437 L 102 450 L 89 451 Z M 101 426 L 113 425 L 114 437 L 102 438 Z M 76 426 L 88 425 L 89 437 L 77 438 Z M 76 401 L 88 400 L 89 412 L 77 413 Z" fill="#fefefe" fill-rule="evenodd"/>
  <path d="M 419 227 L 426 250 L 438 251 L 437 264 L 426 264 L 425 252 L 419 252 L 419 262 L 426 264 L 426 275 L 419 277 L 420 288 L 426 289 L 426 300 L 419 302 L 419 312 L 426 314 L 426 325 L 419 327 L 426 350 L 419 352 L 419 362 L 425 362 L 426 350 L 437 350 L 438 362 L 449 362 L 449 351 L 438 351 L 437 339 L 449 338 L 451 325 L 462 325 L 463 338 L 451 339 L 451 350 L 462 350 L 463 362 L 474 363 L 474 351 L 462 350 L 462 339 L 474 338 L 474 326 L 462 325 L 462 314 L 474 313 L 474 302 L 462 300 L 462 289 L 474 288 L 474 276 L 462 275 L 462 264 L 474 263 L 474 251 L 463 252 L 462 264 L 451 264 L 449 259 L 451 250 L 462 250 L 463 238 L 474 238 L 474 227 L 463 227 L 462 239 L 451 239 L 449 227 L 438 227 L 438 238 L 426 239 L 425 227 Z M 425 326 L 437 325 L 438 338 L 426 339 Z M 462 300 L 463 313 L 451 314 L 450 326 L 438 326 L 437 314 L 449 313 L 449 304 L 451 300 Z M 425 301 L 437 300 L 438 313 L 426 314 Z M 437 289 L 450 288 L 451 300 L 445 302 L 438 301 Z M 425 276 L 437 275 L 438 288 L 426 289 Z M 437 264 L 450 263 L 451 275 L 463 276 L 463 288 L 451 289 L 449 276 L 437 275 Z M 437 239 L 450 238 L 451 250 L 438 251 Z" fill="#fefefe" fill-rule="evenodd"/>
  <path d="M 325 323 L 330 321 L 373 321 L 383 327 L 386 332 L 386 379 L 379 388 L 375 390 L 328 390 L 321 385 L 317 377 L 317 334 L 319 329 Z" fill="#f8f4f1" fill-rule="evenodd"/>
  <path d="M 230 323 L 235 321 L 275 321 L 281 323 L 286 328 L 289 335 L 289 340 L 287 341 L 289 343 L 289 366 L 287 367 L 288 377 L 281 385 L 277 387 L 234 387 L 225 381 L 222 374 L 222 335 L 224 334 L 224 329 Z" fill="#f8f4f1" fill-rule="evenodd"/>
  <path d="M 133 324 L 140 321 L 179 321 L 180 323 L 185 323 L 192 330 L 191 333 L 193 334 L 193 375 L 186 385 L 182 387 L 138 387 L 129 380 L 127 376 L 127 332 Z" fill="#f8f4f1" fill-rule="evenodd"/>
  <path d="M 133 235 L 140 232 L 180 232 L 187 235 L 188 238 L 191 239 L 193 244 L 193 286 L 185 296 L 178 296 L 177 298 L 175 296 L 137 297 L 131 293 L 131 291 L 127 287 L 127 244 Z" fill="#f8f4f1" fill-rule="evenodd"/>
  <path d="M 228 236 L 233 233 L 236 234 L 237 232 L 276 232 L 282 235 L 287 240 L 289 245 L 289 285 L 282 295 L 278 297 L 233 297 L 225 291 L 223 287 L 223 244 Z" fill="#f8f4f1" fill-rule="evenodd"/>
  <path d="M 327 234 L 333 232 L 371 232 L 377 234 L 383 240 L 385 246 L 385 284 L 383 290 L 375 297 L 329 297 L 320 289 L 319 243 Z" fill="#f8f4f1" fill-rule="evenodd"/>
  <path d="M 325 326 L 320 333 L 320 378 L 323 384 L 332 388 L 371 388 L 378 386 L 382 382 L 384 376 L 384 335 L 381 328 L 374 324 L 329 324 Z M 375 341 L 375 345 L 347 374 L 343 373 L 328 358 L 329 355 L 334 352 L 342 359 L 347 361 L 367 339 L 372 338 Z" fill="#c5965b" fill-rule="evenodd"/>
  <path d="M 177 65 L 177 76 L 189 77 L 189 88 L 177 90 L 176 95 L 181 101 L 189 102 L 189 113 L 182 115 L 182 121 L 188 119 L 189 113 L 200 113 L 202 121 L 212 121 L 214 113 L 225 113 L 225 102 L 213 101 L 214 88 L 225 88 L 227 101 L 238 101 L 239 113 L 250 113 L 252 121 L 262 121 L 263 115 L 250 113 L 251 101 L 263 101 L 264 113 L 275 113 L 275 102 L 287 101 L 287 89 L 275 88 L 275 77 L 287 76 L 287 65 L 276 65 L 275 77 L 264 77 L 263 65 L 251 65 L 250 77 L 239 77 L 238 65 L 227 65 L 225 77 L 214 77 L 213 65 L 202 65 L 200 77 L 189 77 L 188 65 Z M 200 102 L 213 101 L 214 113 L 208 115 L 201 114 Z M 263 89 L 275 88 L 276 101 L 264 102 Z M 238 89 L 250 88 L 251 101 L 239 102 Z M 188 89 L 200 88 L 201 101 L 189 102 Z M 250 77 L 263 76 L 264 88 L 251 89 Z M 225 77 L 238 76 L 239 88 L 226 89 Z M 200 77 L 213 76 L 214 88 L 201 89 Z" fill="#fefefe" fill-rule="evenodd"/>
  <path d="M 230 326 L 225 334 L 225 375 L 228 381 L 233 384 L 280 383 L 284 379 L 286 374 L 286 334 L 284 329 L 277 324 L 234 324 Z" fill="#b7aaa0" fill-rule="evenodd"/>
  <path d="M 134 326 L 130 332 L 131 379 L 137 384 L 182 384 L 186 382 L 190 376 L 190 332 L 187 327 L 181 324 L 139 324 Z" fill="#b7aaa0" fill-rule="evenodd"/>
  <path d="M 133 238 L 130 243 L 130 287 L 133 292 L 140 295 L 181 295 L 189 289 L 190 243 L 187 238 L 181 235 L 139 235 Z" fill="#b7aaa0" fill-rule="evenodd"/>
  <path d="M 229 238 L 226 243 L 226 287 L 228 291 L 235 295 L 276 295 L 281 293 L 286 286 L 285 241 L 277 235 L 235 235 Z" fill="#b7aaa0" fill-rule="evenodd"/>
  <path d="M 325 238 L 322 243 L 322 287 L 324 291 L 332 295 L 372 295 L 377 293 L 382 285 L 382 244 L 380 240 L 372 235 L 332 235 Z" fill="#b7aaa0" fill-rule="evenodd"/>
  <path d="M 58 388 L 52 389 L 51 401 L 39 403 L 40 412 L 52 413 L 52 425 L 40 426 L 38 438 L 26 437 L 26 426 L 38 425 L 38 414 L 26 412 L 26 401 L 38 400 L 38 389 L 27 389 L 27 400 L 15 401 L 14 406 L 15 412 L 27 413 L 27 425 L 15 426 L 15 437 L 27 438 L 27 450 L 15 451 L 15 462 L 27 463 L 27 475 L 15 476 L 15 487 L 26 487 L 27 499 L 38 499 L 38 488 L 26 487 L 26 476 L 38 475 L 38 463 L 27 463 L 26 451 L 38 450 L 39 437 L 52 438 L 52 450 L 40 451 L 40 462 L 52 463 L 52 475 L 40 476 L 40 487 L 52 488 L 52 500 L 40 501 L 39 511 L 51 511 L 52 500 L 63 500 L 63 488 L 51 487 L 51 476 L 63 475 L 63 463 L 51 462 L 51 451 L 63 450 L 63 438 L 51 437 L 51 426 L 63 425 L 63 414 L 51 412 L 51 401 L 63 400 L 63 389 Z" fill="#fefefe" fill-rule="evenodd"/>
  <path d="M 289 426 L 289 437 L 301 438 L 301 450 L 289 451 L 289 462 L 301 463 L 301 475 L 289 476 L 289 487 L 300 487 L 301 499 L 312 499 L 312 488 L 301 488 L 300 476 L 312 475 L 314 462 L 325 462 L 326 475 L 314 476 L 314 487 L 325 487 L 326 499 L 337 499 L 337 488 L 326 488 L 325 476 L 337 475 L 339 462 L 350 462 L 351 475 L 339 476 L 339 487 L 350 487 L 351 499 L 362 499 L 362 488 L 350 487 L 350 476 L 362 475 L 362 463 L 350 462 L 350 451 L 362 450 L 362 438 L 351 438 L 350 426 L 339 426 L 339 437 L 351 438 L 351 450 L 339 451 L 338 463 L 326 463 L 325 451 L 337 450 L 337 438 L 326 439 L 325 451 L 314 451 L 312 438 L 301 438 L 300 426 Z M 300 451 L 313 450 L 314 462 L 301 463 Z" fill="#fefefe" fill-rule="evenodd"/>
  <path d="M 51 227 L 39 229 L 40 238 L 52 239 L 52 250 L 40 252 L 40 263 L 52 264 L 52 275 L 40 277 L 40 288 L 51 288 L 52 300 L 40 301 L 39 310 L 52 314 L 52 325 L 40 326 L 39 338 L 27 339 L 26 351 L 15 351 L 15 362 L 27 364 L 27 375 L 15 376 L 15 387 L 26 387 L 26 376 L 38 375 L 38 364 L 26 363 L 26 351 L 38 350 L 42 337 L 52 339 L 52 350 L 40 351 L 40 362 L 52 364 L 52 375 L 40 376 L 40 387 L 51 387 L 51 376 L 63 375 L 63 364 L 51 363 L 51 351 L 63 350 L 63 339 L 51 338 L 51 326 L 63 325 L 63 314 L 51 313 L 51 301 L 63 300 L 63 289 L 51 288 L 51 276 L 63 275 L 63 264 L 51 263 L 51 251 L 63 250 L 63 239 L 52 239 Z" fill="#fefefe" fill-rule="evenodd"/>
  <path d="M 350 91 L 340 96 L 336 103 L 335 143 L 338 151 L 343 156 L 347 158 L 359 158 L 367 152 L 370 146 L 370 104 L 368 99 L 363 94 L 356 91 Z" fill="#25324f" fill-rule="evenodd"/>
  <path d="M 158 91 L 151 94 L 146 99 L 144 104 L 144 146 L 147 152 L 153 157 L 167 158 L 171 156 L 178 147 L 178 103 L 170 93 Z" fill="#25324f" fill-rule="evenodd"/>
  <path d="M 65 227 L 65 238 L 76 238 L 77 250 L 89 251 L 88 264 L 77 264 L 76 252 L 65 252 L 65 263 L 77 264 L 77 275 L 65 277 L 65 288 L 76 288 L 77 300 L 65 301 L 64 309 L 65 313 L 77 314 L 77 325 L 65 326 L 65 338 L 76 338 L 77 350 L 65 351 L 65 362 L 76 362 L 77 350 L 88 350 L 89 362 L 94 362 L 94 352 L 88 350 L 88 339 L 94 337 L 94 327 L 88 325 L 88 314 L 94 312 L 94 302 L 89 302 L 88 314 L 76 313 L 76 301 L 88 300 L 88 289 L 94 287 L 94 277 L 88 275 L 88 264 L 94 262 L 94 252 L 88 250 L 88 239 L 94 237 L 94 227 L 89 227 L 88 239 L 77 239 L 76 227 Z M 76 326 L 88 325 L 89 338 L 77 339 Z M 76 276 L 88 275 L 89 288 L 77 289 Z" fill="#fefefe" fill-rule="evenodd"/>
  <path d="M 364 27 L 364 39 L 375 38 L 376 26 L 387 26 L 388 38 L 400 38 L 401 26 L 413 27 L 413 39 L 401 40 L 400 52 L 388 52 L 387 40 L 376 40 L 376 51 L 364 52 L 364 63 L 375 63 L 376 51 L 387 51 L 388 63 L 400 63 L 401 51 L 412 51 L 413 63 L 425 63 L 426 51 L 437 51 L 438 63 L 450 63 L 451 51 L 462 51 L 463 63 L 474 63 L 474 52 L 463 52 L 462 40 L 451 40 L 450 52 L 438 52 L 437 40 L 426 40 L 425 52 L 412 51 L 412 40 L 425 38 L 426 26 L 437 26 L 438 38 L 449 38 L 449 27 L 438 27 L 437 15 L 426 15 L 425 27 L 413 27 L 412 15 L 401 15 L 400 27 L 388 27 L 387 15 L 376 15 L 376 26 Z" fill="#fefefe" fill-rule="evenodd"/>
  <path d="M 488 227 L 488 238 L 476 239 L 476 250 L 488 251 L 488 263 L 476 264 L 476 275 L 488 276 L 488 288 L 476 289 L 476 300 L 488 301 L 488 313 L 476 314 L 476 325 L 488 326 L 488 338 L 476 339 L 476 350 L 488 351 L 488 363 L 476 364 L 476 375 L 487 375 L 488 387 L 499 387 L 499 376 L 487 375 L 487 364 L 499 362 L 499 351 L 488 351 L 487 339 L 499 338 L 499 326 L 511 325 L 511 314 L 501 314 L 499 326 L 487 325 L 487 314 L 499 313 L 499 302 L 487 300 L 487 289 L 499 288 L 499 276 L 511 275 L 511 264 L 501 264 L 499 276 L 487 275 L 487 264 L 499 263 L 499 252 L 487 250 L 487 239 L 499 238 L 499 227 Z" fill="#fefefe" fill-rule="evenodd"/>
  <path d="M 511 65 L 500 65 L 499 77 L 488 77 L 487 65 L 476 65 L 476 76 L 488 77 L 488 88 L 476 90 L 476 101 L 488 102 L 488 113 L 476 114 L 476 126 L 488 127 L 488 138 L 476 139 L 476 151 L 488 152 L 488 163 L 476 164 L 476 176 L 487 176 L 488 188 L 476 189 L 476 200 L 487 200 L 487 189 L 499 188 L 499 177 L 487 176 L 487 164 L 499 163 L 499 152 L 487 151 L 487 139 L 499 138 L 500 126 L 511 126 L 511 114 L 501 114 L 499 102 L 487 101 L 487 89 L 499 88 L 499 77 L 511 76 Z M 487 114 L 499 113 L 501 118 L 500 126 L 488 127 Z" fill="#fefefe" fill-rule="evenodd"/>
  <path d="M 337 65 L 326 65 L 325 77 L 314 77 L 312 72 L 313 65 L 301 65 L 301 76 L 289 77 L 289 88 L 301 89 L 301 101 L 289 102 L 289 113 L 300 113 L 301 121 L 312 121 L 314 113 L 325 113 L 325 102 L 334 101 L 337 98 L 337 90 L 325 88 L 325 77 L 337 76 Z M 301 76 L 313 76 L 314 88 L 326 89 L 326 101 L 314 102 L 313 114 L 300 113 L 300 102 L 312 101 L 313 98 L 312 89 L 300 88 Z" fill="#fefefe" fill-rule="evenodd"/>
  <path d="M 27 65 L 27 76 L 15 77 L 15 88 L 27 89 L 27 101 L 15 102 L 15 113 L 27 114 L 27 126 L 15 127 L 15 138 L 27 139 L 27 151 L 15 152 L 14 159 L 15 163 L 27 164 L 27 176 L 15 177 L 15 188 L 26 188 L 27 200 L 38 200 L 38 189 L 26 188 L 26 177 L 38 176 L 38 164 L 26 163 L 26 152 L 38 151 L 38 139 L 26 138 L 26 127 L 38 126 L 38 114 L 26 113 L 26 102 L 38 101 L 38 89 L 26 88 L 26 77 L 38 76 L 38 65 Z" fill="#fefefe" fill-rule="evenodd"/>
  <path d="M 509 388 L 501 389 L 499 401 L 488 401 L 487 389 L 476 389 L 476 400 L 488 401 L 488 412 L 476 413 L 476 425 L 488 426 L 488 437 L 476 438 L 476 450 L 488 451 L 488 462 L 476 463 L 476 475 L 488 476 L 488 487 L 476 488 L 476 499 L 487 499 L 487 488 L 499 487 L 499 476 L 487 475 L 487 463 L 499 462 L 500 450 L 511 450 L 511 438 L 501 438 L 499 451 L 487 450 L 487 438 L 499 437 L 499 426 L 487 425 L 487 413 L 499 412 L 500 400 L 511 400 Z" fill="#fefefe" fill-rule="evenodd"/>
  <path d="M 201 15 L 202 26 L 214 27 L 214 38 L 225 38 L 226 26 L 238 26 L 239 38 L 250 38 L 251 26 L 263 26 L 264 38 L 267 39 L 275 38 L 276 26 L 287 26 L 287 15 L 275 14 L 275 0 L 264 0 L 264 13 L 276 15 L 275 27 L 264 27 L 262 15 L 252 15 L 250 27 L 239 27 L 238 15 L 225 14 L 225 0 L 214 0 L 214 13 L 226 15 L 225 27 L 214 27 L 213 15 Z" fill="#fefefe" fill-rule="evenodd"/>
  <path d="M 15 227 L 15 238 L 27 239 L 27 250 L 15 251 L 15 263 L 27 264 L 27 275 L 15 276 L 15 288 L 27 289 L 27 300 L 15 301 L 15 313 L 27 314 L 27 325 L 15 326 L 15 338 L 26 337 L 27 325 L 38 325 L 38 314 L 26 313 L 26 301 L 38 300 L 38 289 L 26 288 L 26 276 L 38 275 L 38 264 L 26 263 L 26 251 L 38 250 L 38 239 L 27 239 L 26 227 Z" fill="#fefefe" fill-rule="evenodd"/>
  <path d="M 65 0 L 65 13 L 77 15 L 77 26 L 65 27 L 65 38 L 76 38 L 77 26 L 88 26 L 89 38 L 92 39 L 101 38 L 102 26 L 113 26 L 114 38 L 125 38 L 127 26 L 138 26 L 139 38 L 150 38 L 150 27 L 139 27 L 138 15 L 127 15 L 126 27 L 114 27 L 113 15 L 102 15 L 101 27 L 89 27 L 88 15 L 76 14 L 76 0 Z" fill="#fefefe" fill-rule="evenodd"/>
  <path d="M 438 138 L 450 138 L 451 151 L 458 150 L 463 152 L 463 163 L 451 164 L 451 175 L 463 177 L 462 189 L 451 189 L 450 177 L 438 177 L 437 189 L 425 188 L 425 177 L 430 175 L 437 175 L 437 164 L 449 163 L 450 161 L 449 152 L 437 151 Z" fill="#fefefe" fill-rule="evenodd"/>
  <path d="M 201 42 L 202 51 L 214 52 L 214 63 L 225 63 L 226 51 L 238 51 L 239 63 L 250 63 L 251 51 L 263 51 L 264 63 L 275 63 L 275 52 L 287 51 L 287 40 L 276 40 L 275 52 L 264 52 L 263 40 L 251 40 L 250 52 L 239 52 L 238 40 L 226 40 L 225 52 L 214 52 L 213 40 L 202 40 Z" fill="#fefefe" fill-rule="evenodd"/>
  <path d="M 65 52 L 65 63 L 76 63 L 77 51 L 88 51 L 89 63 L 101 63 L 102 51 L 113 51 L 114 63 L 126 63 L 127 51 L 138 51 L 139 63 L 150 63 L 150 52 L 139 52 L 138 40 L 127 40 L 126 52 L 114 52 L 113 40 L 102 40 L 101 52 L 89 52 L 88 40 L 77 40 L 77 51 Z" fill="#fefefe" fill-rule="evenodd"/>
  <path d="M 164 426 L 164 437 L 152 438 L 152 450 L 164 451 L 164 462 L 152 463 L 152 475 L 164 476 L 164 487 L 152 488 L 152 499 L 163 500 L 164 511 L 175 511 L 175 501 L 163 500 L 163 488 L 175 487 L 175 476 L 163 475 L 163 463 L 175 462 L 175 451 L 163 450 L 163 438 L 175 437 L 175 426 Z" fill="#fefefe" fill-rule="evenodd"/>
  <path d="M 438 88 L 450 88 L 451 101 L 463 102 L 463 113 L 451 114 L 451 126 L 463 127 L 462 139 L 451 139 L 449 127 L 437 126 L 437 114 L 449 113 L 450 110 L 449 102 L 437 101 Z" fill="#fefefe" fill-rule="evenodd"/>
  <path d="M 375 341 L 375 345 L 347 374 L 343 373 L 328 358 L 329 355 L 334 352 L 342 359 L 347 361 L 367 339 L 372 338 Z" fill="#c5965b" fill-rule="evenodd"/>
  <path d="M 419 378 L 419 387 L 425 387 L 426 375 L 437 375 L 438 387 L 449 387 L 451 375 L 462 375 L 463 387 L 474 387 L 474 376 L 463 376 L 462 364 L 451 364 L 450 376 L 438 376 L 437 364 L 426 364 L 426 375 L 420 376 Z" fill="#fefefe" fill-rule="evenodd"/>
  <path d="M 419 203 L 419 212 L 426 214 L 426 225 L 437 225 L 438 213 L 450 213 L 451 225 L 462 225 L 462 214 L 474 213 L 474 202 L 463 202 L 462 214 L 451 214 L 449 206 L 450 202 L 438 202 L 438 213 L 426 214 L 425 202 Z" fill="#fefefe" fill-rule="evenodd"/>
  <path d="M 301 76 L 313 76 L 314 88 L 326 89 L 326 101 L 314 102 L 313 114 L 300 113 L 300 102 L 312 101 L 313 98 L 312 89 L 300 88 Z" fill="#fefefe" fill-rule="evenodd"/>
  <path d="M 39 203 L 40 213 L 52 214 L 52 225 L 63 225 L 64 213 L 76 213 L 77 225 L 88 225 L 88 214 L 94 213 L 93 202 L 89 202 L 88 214 L 77 214 L 76 202 L 65 202 L 65 210 L 63 214 L 52 214 L 51 202 Z" fill="#fefefe" fill-rule="evenodd"/>
  <path d="M 289 38 L 300 38 L 301 26 L 313 26 L 314 38 L 325 38 L 325 27 L 337 26 L 338 17 L 337 15 L 326 15 L 326 26 L 314 27 L 312 15 L 301 15 L 301 26 L 289 27 Z" fill="#fefefe" fill-rule="evenodd"/>
  <path d="M 374 341 L 372 339 L 367 340 L 347 362 L 342 360 L 334 353 L 331 354 L 329 358 L 343 372 L 347 373 L 374 345 Z" fill="#8e1929" fill-rule="evenodd"/>
  <path d="M 438 0 L 438 13 L 450 14 L 451 26 L 463 27 L 463 38 L 474 38 L 474 27 L 463 27 L 462 15 L 450 14 L 450 0 Z" fill="#fefefe" fill-rule="evenodd"/>
  <path d="M 462 300 L 463 313 L 451 314 L 450 326 L 438 326 L 437 314 L 449 313 L 449 304 L 451 300 Z" fill="#fefefe" fill-rule="evenodd"/>
  <path d="M 113 77 L 126 76 L 127 88 L 139 89 L 139 101 L 127 102 L 126 91 L 124 89 L 113 88 Z" fill="#f7f6f6" fill-rule="evenodd"/>
  <path d="M 213 450 L 214 462 L 202 463 L 200 476 L 189 476 L 188 463 L 200 462 L 201 450 Z" fill="#fefefe" fill-rule="evenodd"/>
  <path d="M 437 264 L 450 263 L 451 275 L 463 276 L 463 288 L 451 289 L 449 276 L 437 275 Z" fill="#fefefe" fill-rule="evenodd"/>
  <path d="M 300 463 L 313 462 L 315 475 L 326 476 L 326 487 L 314 488 L 313 476 L 300 475 Z" fill="#f7f6f6" fill-rule="evenodd"/>
  <path d="M 476 214 L 476 225 L 487 225 L 488 213 L 499 213 L 501 218 L 500 224 L 511 225 L 511 214 L 500 214 L 499 202 L 488 202 L 488 213 Z" fill="#fefefe" fill-rule="evenodd"/>
  <path d="M 437 127 L 449 126 L 451 138 L 463 139 L 463 151 L 451 152 L 450 141 L 448 139 L 437 138 Z" fill="#f7f6f6" fill-rule="evenodd"/>
  <path d="M 462 127 L 474 126 L 475 137 L 488 139 L 488 151 L 476 152 L 475 141 L 473 139 L 462 138 Z" fill="#f7f6f6" fill-rule="evenodd"/>
  <path d="M 213 52 L 225 51 L 226 62 L 228 64 L 239 65 L 239 76 L 226 77 L 225 65 L 213 63 Z" fill="#f7f6f6" fill-rule="evenodd"/>
  <path d="M 26 239 L 38 238 L 39 250 L 52 251 L 52 263 L 40 264 L 39 253 L 37 251 L 26 250 Z" fill="#f7f6f6" fill-rule="evenodd"/>
  <path d="M 462 52 L 474 51 L 476 55 L 475 62 L 477 64 L 488 65 L 488 76 L 476 77 L 475 66 L 473 64 L 462 64 Z" fill="#f7f6f6" fill-rule="evenodd"/>
  <path d="M 350 26 L 351 38 L 338 40 L 337 52 L 326 52 L 325 40 L 336 39 L 338 37 L 339 26 Z" fill="#f7f6f6" fill-rule="evenodd"/>
  <path d="M 65 376 L 65 387 L 76 387 L 77 375 L 88 375 L 89 387 L 94 387 L 94 376 L 88 375 L 88 364 L 77 364 L 77 375 Z" fill="#fefefe" fill-rule="evenodd"/>
  <path d="M 153 64 L 152 76 L 163 76 L 164 88 L 175 88 L 175 77 L 164 77 L 163 65 Z" fill="#fefefe" fill-rule="evenodd"/>
  <path d="M 177 15 L 177 26 L 188 26 L 189 38 L 200 38 L 200 27 L 189 27 L 188 15 Z" fill="#fefefe" fill-rule="evenodd"/>
  <path d="M 63 40 L 52 40 L 52 51 L 40 52 L 40 63 L 51 63 L 51 52 L 63 51 Z" fill="#fefefe" fill-rule="evenodd"/>
  <path d="M 312 40 L 301 40 L 301 51 L 289 52 L 289 63 L 300 63 L 300 52 L 312 51 Z" fill="#fefefe" fill-rule="evenodd"/>
  <path d="M 362 65 L 351 65 L 351 76 L 339 77 L 339 88 L 350 88 L 350 77 L 362 76 Z" fill="#fefefe" fill-rule="evenodd"/>
  <path d="M 152 40 L 152 51 L 163 51 L 164 63 L 175 63 L 175 52 L 164 52 L 163 40 Z" fill="#fefefe" fill-rule="evenodd"/>
  <path d="M 362 15 L 351 15 L 351 26 L 339 27 L 339 39 L 350 38 L 351 26 L 362 26 Z" fill="#fefefe" fill-rule="evenodd"/>
  <path d="M 15 202 L 15 213 L 26 213 L 27 225 L 38 225 L 38 214 L 27 214 L 26 202 Z" fill="#fefefe" fill-rule="evenodd"/>
  <path d="M 40 177 L 40 188 L 51 188 L 52 200 L 63 200 L 63 189 L 52 189 L 51 177 Z" fill="#fefefe" fill-rule="evenodd"/>
  <path d="M 476 40 L 476 51 L 487 51 L 488 63 L 499 63 L 499 52 L 488 52 L 487 40 Z" fill="#fefefe" fill-rule="evenodd"/>
  <path d="M 362 40 L 351 40 L 351 51 L 339 52 L 339 63 L 350 63 L 350 52 L 362 51 Z" fill="#fefefe" fill-rule="evenodd"/>
  <path d="M 337 40 L 326 40 L 326 51 L 314 52 L 314 63 L 325 63 L 325 52 L 337 51 Z" fill="#fefefe" fill-rule="evenodd"/>
  <path d="M 177 40 L 177 51 L 188 51 L 189 63 L 200 63 L 200 52 L 189 52 L 188 40 Z" fill="#fefefe" fill-rule="evenodd"/>
  <path d="M 38 40 L 27 40 L 27 51 L 15 52 L 15 63 L 26 63 L 26 52 L 38 51 Z" fill="#fefefe" fill-rule="evenodd"/>
  <path d="M 476 15 L 476 26 L 487 26 L 488 38 L 499 38 L 499 27 L 488 27 L 487 15 Z" fill="#fefefe" fill-rule="evenodd"/>
  <path d="M 152 15 L 152 26 L 163 26 L 164 38 L 175 38 L 175 27 L 164 27 L 163 15 Z" fill="#fefefe" fill-rule="evenodd"/>
  <path d="M 63 15 L 52 15 L 52 26 L 40 27 L 40 38 L 51 38 L 51 27 L 63 26 Z" fill="#fefefe" fill-rule="evenodd"/>
  <path d="M 38 15 L 27 15 L 27 26 L 15 27 L 15 38 L 26 38 L 26 27 L 38 26 Z" fill="#fefefe" fill-rule="evenodd"/>
  <path d="M 250 463 L 263 462 L 264 475 L 251 476 Z" fill="#f7f6f6" fill-rule="evenodd"/>
  <path d="M 225 463 L 238 462 L 239 475 L 226 476 Z" fill="#f7f6f6" fill-rule="evenodd"/>
  <path d="M 225 438 L 238 437 L 239 450 L 226 451 Z" fill="#f7f6f6" fill-rule="evenodd"/>
  <path d="M 200 438 L 213 437 L 214 450 L 201 451 Z" fill="#f7f6f6" fill-rule="evenodd"/>
  <path d="M 250 89 L 263 88 L 264 101 L 251 102 Z" fill="#f7f6f6" fill-rule="evenodd"/>
  <path d="M 200 89 L 213 88 L 214 101 L 201 102 Z" fill="#f7f6f6" fill-rule="evenodd"/>
  <path d="M 437 463 L 450 462 L 451 475 L 438 476 Z" fill="#fefefe" fill-rule="evenodd"/>
  <path d="M 412 463 L 425 462 L 426 475 L 413 476 Z" fill="#fefefe" fill-rule="evenodd"/>
  <path d="M 387 463 L 400 462 L 401 475 L 388 476 Z" fill="#fefefe" fill-rule="evenodd"/>
  <path d="M 412 438 L 425 437 L 426 450 L 413 451 Z" fill="#fefefe" fill-rule="evenodd"/>
  <path d="M 387 438 L 400 437 L 401 450 L 388 451 Z" fill="#fefefe" fill-rule="evenodd"/>
  <path d="M 412 413 L 425 412 L 426 425 L 413 426 Z" fill="#fefefe" fill-rule="evenodd"/>
  <path d="M 113 463 L 126 462 L 127 475 L 114 476 Z" fill="#fefefe" fill-rule="evenodd"/>
  <path d="M 88 463 L 101 462 L 102 475 L 89 476 Z" fill="#fefefe" fill-rule="evenodd"/>
  <path d="M 113 438 L 126 437 L 127 450 L 114 451 Z" fill="#fefefe" fill-rule="evenodd"/>
  <path d="M 88 438 L 101 437 L 102 450 L 89 451 Z" fill="#fefefe" fill-rule="evenodd"/>
  <path d="M 412 114 L 425 113 L 426 126 L 413 127 Z" fill="#fefefe" fill-rule="evenodd"/>
  <path d="M 387 89 L 400 88 L 401 101 L 388 102 Z" fill="#fefefe" fill-rule="evenodd"/>
  <path d="M 88 114 L 101 113 L 102 126 L 89 127 Z" fill="#fefefe" fill-rule="evenodd"/>
  <path d="M 113 89 L 126 88 L 127 101 L 114 102 Z" fill="#fefefe" fill-rule="evenodd"/>
  <path d="M 88 89 L 101 88 L 102 101 L 89 102 Z" fill="#fefefe" fill-rule="evenodd"/>
  <path d="M 0 0 L 0 14 L 12 14 L 14 12 L 14 0 Z" fill="#f7f6f6" fill-rule="evenodd"/>
  <path d="M 250 438 L 263 437 L 264 450 L 251 451 Z" fill="#f7f6f6" fill-rule="evenodd"/>
  <path d="M 437 251 L 450 250 L 451 263 L 438 264 Z" fill="#f7f6f6" fill-rule="evenodd"/>
  <path d="M 201 463 L 213 462 L 214 475 L 201 476 Z" fill="#f7f6f6" fill-rule="evenodd"/>
  <path d="M 300 438 L 312 437 L 314 440 L 314 450 L 301 451 Z" fill="#f7f6f6" fill-rule="evenodd"/>
  <path d="M 437 276 L 449 275 L 451 278 L 451 288 L 438 289 Z" fill="#f7f6f6" fill-rule="evenodd"/>
  <path d="M 225 89 L 238 88 L 239 101 L 227 102 L 225 99 Z" fill="#f7f6f6" fill-rule="evenodd"/>
  <path d="M 437 326 L 450 325 L 451 338 L 438 339 Z" fill="#f7f6f6" fill-rule="evenodd"/>
  <path d="M 39 301 L 51 300 L 52 313 L 40 314 L 38 310 Z" fill="#f7f6f6" fill-rule="evenodd"/>
  <path d="M 300 89 L 312 88 L 314 91 L 313 101 L 301 102 Z" fill="#f7f6f6" fill-rule="evenodd"/>
  <path d="M 250 488 L 263 487 L 264 500 L 251 500 Z" fill="#f7f6f6" fill-rule="evenodd"/>
  <path d="M 437 301 L 450 300 L 450 313 L 438 314 Z" fill="#f7f6f6" fill-rule="evenodd"/>
  <path d="M 412 27 L 425 26 L 426 38 L 422 40 L 413 40 Z" fill="#f7f6f6" fill-rule="evenodd"/>
  <path d="M 225 488 L 238 487 L 239 499 L 226 501 Z" fill="#f7f6f6" fill-rule="evenodd"/>
  <path d="M 387 27 L 400 26 L 401 39 L 388 39 Z" fill="#f7f6f6" fill-rule="evenodd"/>
  <path d="M 88 27 L 101 26 L 102 38 L 95 40 L 89 39 Z" fill="#f7f6f6" fill-rule="evenodd"/>
  <path d="M 200 102 L 213 101 L 214 113 L 208 115 L 201 114 Z" fill="#fefefe" fill-rule="evenodd"/>
  <path d="M 325 463 L 338 462 L 338 475 L 326 476 Z" fill="#f7f6f6" fill-rule="evenodd"/>
  <path d="M 64 301 L 76 300 L 77 313 L 65 314 L 63 311 Z" fill="#f7f6f6" fill-rule="evenodd"/>
  <path d="M 275 463 L 287 462 L 289 475 L 276 476 Z" fill="#f7f6f6" fill-rule="evenodd"/>
  <path d="M 275 438 L 287 437 L 289 450 L 276 451 Z" fill="#f7f6f6" fill-rule="evenodd"/>
  <path d="M 462 326 L 474 325 L 476 338 L 463 339 Z" fill="#f7f6f6" fill-rule="evenodd"/>
  <path d="M 51 114 L 63 113 L 65 126 L 52 127 Z" fill="#f7f6f6" fill-rule="evenodd"/>
  <path d="M 412 52 L 425 51 L 426 63 L 423 65 L 413 64 Z" fill="#f7f6f6" fill-rule="evenodd"/>
  <path d="M 437 27 L 449 26 L 451 29 L 451 38 L 438 40 Z" fill="#f7f6f6" fill-rule="evenodd"/>
  <path d="M 113 27 L 126 26 L 127 38 L 123 40 L 114 39 Z" fill="#f7f6f6" fill-rule="evenodd"/>
  <path d="M 437 289 L 450 288 L 451 300 L 445 302 L 438 301 Z" fill="#fefefe" fill-rule="evenodd"/>
  <path d="M 487 114 L 499 113 L 501 118 L 500 126 L 488 127 Z" fill="#fefefe" fill-rule="evenodd"/>
  <path d="M 200 488 L 213 487 L 214 499 L 210 501 L 202 500 L 200 495 Z" fill="#f7f6f6" fill-rule="evenodd"/>
  <path d="M 39 326 L 51 325 L 52 338 L 39 339 Z" fill="#f7f6f6" fill-rule="evenodd"/>
  <path d="M 412 476 L 425 475 L 426 487 L 413 488 Z" fill="#f7f6f6" fill-rule="evenodd"/>
  <path d="M 387 476 L 400 475 L 401 487 L 388 488 Z" fill="#f7f6f6" fill-rule="evenodd"/>
  <path d="M 113 476 L 126 475 L 127 487 L 114 488 Z" fill="#f7f6f6" fill-rule="evenodd"/>
  <path d="M 88 476 L 101 475 L 102 487 L 89 488 Z" fill="#f7f6f6" fill-rule="evenodd"/>
  <path d="M 475 463 L 487 462 L 488 475 L 476 476 Z" fill="#f7f6f6" fill-rule="evenodd"/>
  <path d="M 450 463 L 462 462 L 463 475 L 451 476 Z" fill="#f7f6f6" fill-rule="evenodd"/>
  <path d="M 425 463 L 437 462 L 438 475 L 426 476 Z" fill="#f7f6f6" fill-rule="evenodd"/>
  <path d="M 400 463 L 412 462 L 413 475 L 401 476 Z" fill="#f7f6f6" fill-rule="evenodd"/>
  <path d="M 375 463 L 387 462 L 388 475 L 376 476 Z" fill="#f7f6f6" fill-rule="evenodd"/>
  <path d="M 350 463 L 362 462 L 363 475 L 351 476 Z" fill="#f7f6f6" fill-rule="evenodd"/>
  <path d="M 176 463 L 188 462 L 189 475 L 177 476 Z" fill="#f7f6f6" fill-rule="evenodd"/>
  <path d="M 151 463 L 163 462 L 164 475 L 152 476 Z" fill="#f7f6f6" fill-rule="evenodd"/>
  <path d="M 126 463 L 138 462 L 139 475 L 127 476 Z" fill="#f7f6f6" fill-rule="evenodd"/>
  <path d="M 101 463 L 113 462 L 114 475 L 102 476 Z" fill="#f7f6f6" fill-rule="evenodd"/>
  <path d="M 76 463 L 88 462 L 89 475 L 77 476 Z" fill="#f7f6f6" fill-rule="evenodd"/>
  <path d="M 51 463 L 63 462 L 64 475 L 52 476 Z" fill="#f7f6f6" fill-rule="evenodd"/>
  <path d="M 26 463 L 38 462 L 39 475 L 27 476 Z" fill="#f7f6f6" fill-rule="evenodd"/>
  <path d="M 437 451 L 450 450 L 451 462 L 438 463 Z" fill="#f7f6f6" fill-rule="evenodd"/>
  <path d="M 412 451 L 425 450 L 426 462 L 413 463 Z" fill="#f7f6f6" fill-rule="evenodd"/>
  <path d="M 387 451 L 400 450 L 401 462 L 388 463 Z" fill="#f7f6f6" fill-rule="evenodd"/>
  <path d="M 113 451 L 126 450 L 127 462 L 114 463 Z" fill="#f7f6f6" fill-rule="evenodd"/>
  <path d="M 88 451 L 101 450 L 102 462 L 89 463 Z" fill="#f7f6f6" fill-rule="evenodd"/>
  <path d="M 475 438 L 487 437 L 488 450 L 476 451 Z" fill="#f7f6f6" fill-rule="evenodd"/>
  <path d="M 450 438 L 462 437 L 463 450 L 451 451 Z" fill="#f7f6f6" fill-rule="evenodd"/>
  <path d="M 425 438 L 437 437 L 438 450 L 426 451 Z" fill="#f7f6f6" fill-rule="evenodd"/>
  <path d="M 400 438 L 412 437 L 413 450 L 401 451 Z" fill="#f7f6f6" fill-rule="evenodd"/>
  <path d="M 375 438 L 387 437 L 388 450 L 376 451 Z" fill="#f7f6f6" fill-rule="evenodd"/>
  <path d="M 350 438 L 362 437 L 363 450 L 351 451 Z" fill="#f7f6f6" fill-rule="evenodd"/>
  <path d="M 325 438 L 337 437 L 338 450 L 326 451 Z" fill="#f7f6f6" fill-rule="evenodd"/>
  <path d="M 176 438 L 188 437 L 189 450 L 177 451 Z" fill="#f7f6f6" fill-rule="evenodd"/>
  <path d="M 151 438 L 163 437 L 164 450 L 152 451 Z" fill="#f7f6f6" fill-rule="evenodd"/>
  <path d="M 126 438 L 138 437 L 139 450 L 127 451 Z" fill="#f7f6f6" fill-rule="evenodd"/>
  <path d="M 101 438 L 113 437 L 114 450 L 102 451 Z" fill="#f7f6f6" fill-rule="evenodd"/>
  <path d="M 76 438 L 88 437 L 89 450 L 77 451 Z" fill="#f7f6f6" fill-rule="evenodd"/>
  <path d="M 51 438 L 63 437 L 64 450 L 52 451 Z" fill="#f7f6f6" fill-rule="evenodd"/>
  <path d="M 26 438 L 38 437 L 39 450 L 27 451 Z" fill="#f7f6f6" fill-rule="evenodd"/>
  <path d="M 412 426 L 425 425 L 426 437 L 413 438 Z" fill="#f7f6f6" fill-rule="evenodd"/>
  <path d="M 387 426 L 400 425 L 401 437 L 388 438 Z" fill="#f7f6f6" fill-rule="evenodd"/>
  <path d="M 113 426 L 126 425 L 127 437 L 114 438 Z" fill="#f7f6f6" fill-rule="evenodd"/>
  <path d="M 88 426 L 101 425 L 102 437 L 89 438 Z" fill="#f7f6f6" fill-rule="evenodd"/>
  <path d="M 475 413 L 487 412 L 488 425 L 476 426 Z" fill="#f7f6f6" fill-rule="evenodd"/>
  <path d="M 450 413 L 462 412 L 463 425 L 451 426 Z" fill="#f7f6f6" fill-rule="evenodd"/>
  <path d="M 425 413 L 437 412 L 438 425 L 426 426 Z" fill="#f7f6f6" fill-rule="evenodd"/>
  <path d="M 76 413 L 88 412 L 89 425 L 77 426 Z" fill="#f7f6f6" fill-rule="evenodd"/>
  <path d="M 487 326 L 499 325 L 500 338 L 488 339 Z" fill="#f7f6f6" fill-rule="evenodd"/>
  <path d="M 14 326 L 26 325 L 27 338 L 15 339 Z" fill="#f7f6f6" fill-rule="evenodd"/>
  <path d="M 487 301 L 499 300 L 500 313 L 488 314 Z" fill="#f7f6f6" fill-rule="evenodd"/>
  <path d="M 462 301 L 474 300 L 475 313 L 463 314 Z" fill="#f7f6f6" fill-rule="evenodd"/>
  <path d="M 14 301 L 26 300 L 27 313 L 15 314 Z" fill="#f7f6f6" fill-rule="evenodd"/>
  <path d="M 487 276 L 499 275 L 500 288 L 488 289 Z" fill="#f7f6f6" fill-rule="evenodd"/>
  <path d="M 462 276 L 474 275 L 475 288 L 463 289 Z" fill="#f7f6f6" fill-rule="evenodd"/>
  <path d="M 39 276 L 51 275 L 52 288 L 40 289 Z" fill="#f7f6f6" fill-rule="evenodd"/>
  <path d="M 14 276 L 26 275 L 27 288 L 15 289 Z" fill="#f7f6f6" fill-rule="evenodd"/>
  <path d="M 462 251 L 474 250 L 475 263 L 463 264 Z" fill="#f7f6f6" fill-rule="evenodd"/>
  <path d="M 14 251 L 26 250 L 27 263 L 15 264 Z" fill="#f7f6f6" fill-rule="evenodd"/>
  <path d="M 437 177 L 450 176 L 451 188 L 438 189 Z" fill="#f7f6f6" fill-rule="evenodd"/>
  <path d="M 76 139 L 88 138 L 89 151 L 77 152 Z" fill="#f7f6f6" fill-rule="evenodd"/>
  <path d="M 26 139 L 38 138 L 39 151 L 27 152 Z" fill="#f7f6f6" fill-rule="evenodd"/>
  <path d="M 450 114 L 462 113 L 463 126 L 451 127 Z" fill="#f7f6f6" fill-rule="evenodd"/>
  <path d="M 425 114 L 437 113 L 438 126 L 426 127 Z" fill="#f7f6f6" fill-rule="evenodd"/>
  <path d="M 26 114 L 38 113 L 39 126 L 27 127 Z" fill="#f7f6f6" fill-rule="evenodd"/>
  <path d="M 387 102 L 400 101 L 401 113 L 388 114 Z" fill="#f7f6f6" fill-rule="evenodd"/>
  <path d="M 88 102 L 101 101 L 102 113 L 89 114 Z" fill="#f7f6f6" fill-rule="evenodd"/>
  <path d="M 450 89 L 462 88 L 463 101 L 451 102 Z" fill="#f7f6f6" fill-rule="evenodd"/>
  <path d="M 425 89 L 437 88 L 438 101 L 426 102 Z" fill="#f7f6f6" fill-rule="evenodd"/>
  <path d="M 400 89 L 412 88 L 413 101 L 401 102 Z" fill="#f7f6f6" fill-rule="evenodd"/>
  <path d="M 375 89 L 387 88 L 388 101 L 376 102 Z" fill="#f7f6f6" fill-rule="evenodd"/>
  <path d="M 275 89 L 287 88 L 288 101 L 276 102 Z" fill="#f7f6f6" fill-rule="evenodd"/>
  <path d="M 101 89 L 113 88 L 114 101 L 102 102 Z" fill="#f7f6f6" fill-rule="evenodd"/>
  <path d="M 76 89 L 88 88 L 89 101 L 77 102 Z" fill="#f7f6f6" fill-rule="evenodd"/>
  <path d="M 26 89 L 38 88 L 39 101 L 27 102 Z" fill="#f7f6f6" fill-rule="evenodd"/>
  <path d="M 437 77 L 450 76 L 451 88 L 438 89 Z" fill="#f7f6f6" fill-rule="evenodd"/>
  <path d="M 412 77 L 425 76 L 426 88 L 413 89 Z" fill="#f7f6f6" fill-rule="evenodd"/>
  <path d="M 387 77 L 400 76 L 401 88 L 388 89 Z" fill="#f7f6f6" fill-rule="evenodd"/>
  <path d="M 88 77 L 101 76 L 102 88 L 89 89 Z" fill="#f7f6f6" fill-rule="evenodd"/>
  <path d="M 300 65 L 313 64 L 314 76 L 301 77 Z" fill="#f7f6f6" fill-rule="evenodd"/>
  <path d="M 250 65 L 263 64 L 264 76 L 251 77 Z" fill="#f7f6f6" fill-rule="evenodd"/>
  <path d="M 387 52 L 400 51 L 401 63 L 388 64 Z" fill="#f7f6f6" fill-rule="evenodd"/>
  <path d="M 113 52 L 126 51 L 127 63 L 114 64 Z" fill="#f7f6f6" fill-rule="evenodd"/>
  <path d="M 88 52 L 101 51 L 102 63 L 89 64 Z" fill="#f7f6f6" fill-rule="evenodd"/>
  <path d="M 250 40 L 263 39 L 264 51 L 251 52 Z" fill="#f7f6f6" fill-rule="evenodd"/>
  <path d="M 225 40 L 238 39 L 239 51 L 226 52 Z" fill="#f7f6f6" fill-rule="evenodd"/>
  <path d="M 200 40 L 213 39 L 214 51 L 201 52 Z" fill="#f7f6f6" fill-rule="evenodd"/>
  <path d="M 300 451 L 313 450 L 314 462 L 301 463 Z" fill="#fefefe" fill-rule="evenodd"/>
  <path d="M 250 476 L 263 475 L 264 487 L 251 488 Z" fill="#fefefe" fill-rule="evenodd"/>
  <path d="M 225 476 L 238 475 L 239 487 L 226 488 Z" fill="#fefefe" fill-rule="evenodd"/>
  <path d="M 200 476 L 213 475 L 214 487 L 201 488 Z" fill="#fefefe" fill-rule="evenodd"/>
  <path d="M 263 463 L 275 462 L 276 475 L 264 476 Z" fill="#fefefe" fill-rule="evenodd"/>
  <path d="M 238 463 L 250 462 L 251 475 L 239 476 Z" fill="#fefefe" fill-rule="evenodd"/>
  <path d="M 213 463 L 225 462 L 226 475 L 214 476 Z" fill="#fefefe" fill-rule="evenodd"/>
  <path d="M 250 451 L 263 450 L 264 462 L 251 463 Z" fill="#fefefe" fill-rule="evenodd"/>
  <path d="M 225 451 L 238 450 L 239 462 L 226 463 Z" fill="#fefefe" fill-rule="evenodd"/>
  <path d="M 263 438 L 275 437 L 276 450 L 264 451 Z" fill="#fefefe" fill-rule="evenodd"/>
  <path d="M 238 438 L 250 437 L 251 450 L 239 451 Z" fill="#fefefe" fill-rule="evenodd"/>
  <path d="M 213 438 L 225 437 L 226 450 L 214 451 Z" fill="#fefefe" fill-rule="evenodd"/>
  <path d="M 188 438 L 200 437 L 201 450 L 189 451 Z" fill="#fefefe" fill-rule="evenodd"/>
  <path d="M 425 326 L 437 325 L 438 338 L 426 339 Z" fill="#fefefe" fill-rule="evenodd"/>
  <path d="M 425 301 L 437 300 L 438 313 L 426 314 Z" fill="#fefefe" fill-rule="evenodd"/>
  <path d="M 425 276 L 437 275 L 438 288 L 426 289 Z" fill="#fefefe" fill-rule="evenodd"/>
  <path d="M 437 239 L 450 238 L 451 250 L 438 251 Z" fill="#fefefe" fill-rule="evenodd"/>
  <path d="M 76 326 L 88 325 L 89 338 L 77 339 Z" fill="#fefefe" fill-rule="evenodd"/>
  <path d="M 76 276 L 88 275 L 89 288 L 77 289 Z" fill="#fefefe" fill-rule="evenodd"/>
  <path d="M 263 89 L 275 88 L 276 101 L 264 102 Z" fill="#fefefe" fill-rule="evenodd"/>
  <path d="M 238 89 L 250 88 L 251 101 L 239 102 Z" fill="#fefefe" fill-rule="evenodd"/>
  <path d="M 188 89 L 200 88 L 201 101 L 189 102 Z" fill="#fefefe" fill-rule="evenodd"/>
  <path d="M 250 77 L 263 76 L 264 88 L 251 89 Z" fill="#fefefe" fill-rule="evenodd"/>
  <path d="M 225 77 L 238 76 L 239 88 L 226 89 Z" fill="#fefefe" fill-rule="evenodd"/>
  <path d="M 200 77 L 213 76 L 214 88 L 201 89 Z" fill="#fefefe" fill-rule="evenodd"/>
  <path d="M 51 413 L 62 412 L 64 414 L 64 425 L 52 426 Z" fill="#f7f6f6" fill-rule="evenodd"/>
  <path d="M 26 413 L 37 412 L 39 414 L 39 425 L 27 426 Z" fill="#f7f6f6" fill-rule="evenodd"/>
  <path d="M 487 251 L 498 250 L 500 252 L 500 263 L 488 264 Z" fill="#f7f6f6" fill-rule="evenodd"/>
  <path d="M 66 250 L 77 251 L 76 264 L 64 263 L 64 252 Z" fill="#f7f6f6" fill-rule="evenodd"/>
  <path d="M 51 139 L 63 138 L 64 150 L 62 152 L 52 152 Z" fill="#f7f6f6" fill-rule="evenodd"/>
  <path d="M 51 89 L 62 88 L 64 90 L 64 101 L 52 102 Z" fill="#f7f6f6" fill-rule="evenodd"/>
  <path d="M 300 488 L 313 487 L 313 499 L 308 501 L 301 501 Z" fill="#f7f6f6" fill-rule="evenodd"/>
  <path d="M 76 488 L 88 487 L 89 500 L 77 501 Z" fill="#f7f6f6" fill-rule="evenodd"/>
  <path d="M 437 476 L 450 475 L 451 487 L 438 488 Z" fill="#f7f6f6" fill-rule="evenodd"/>
  <path d="M 437 227 L 450 226 L 451 238 L 438 239 Z" fill="#f7f6f6" fill-rule="evenodd"/>
  <path d="M 475 164 L 487 163 L 488 176 L 476 177 Z" fill="#f7f6f6" fill-rule="evenodd"/>
  <path d="M 425 139 L 437 138 L 438 151 L 426 152 Z" fill="#f7f6f6" fill-rule="evenodd"/>
  <path d="M 475 114 L 487 113 L 488 126 L 476 127 Z" fill="#f7f6f6" fill-rule="evenodd"/>
  <path d="M 437 52 L 450 51 L 451 63 L 438 64 Z" fill="#f7f6f6" fill-rule="evenodd"/>
  <path d="M 437 426 L 450 425 L 450 437 L 438 438 Z" fill="#f7f6f6" fill-rule="evenodd"/>
  <path d="M 462 351 L 474 350 L 475 363 L 463 363 Z" fill="#f7f6f6" fill-rule="evenodd"/>
  <path d="M 437 351 L 450 350 L 450 362 L 446 364 L 438 363 Z" fill="#f7f6f6" fill-rule="evenodd"/>
  <path d="M 65 276 L 77 276 L 76 289 L 64 288 Z" fill="#f7f6f6" fill-rule="evenodd"/>
  <path d="M 450 164 L 462 163 L 463 176 L 451 176 Z" fill="#f7f6f6" fill-rule="evenodd"/>
  <path d="M 413 102 L 425 101 L 426 113 L 413 114 Z" fill="#f7f6f6" fill-rule="evenodd"/>
  <path d="M 437 202 L 450 201 L 451 213 L 438 214 Z" fill="#f7f6f6" fill-rule="evenodd"/>
  <path d="M 26 164 L 38 163 L 39 176 L 27 177 Z" fill="#f7f6f6" fill-rule="evenodd"/>
  <path d="M 76 114 L 88 113 L 89 126 L 77 127 Z" fill="#f7f6f6" fill-rule="evenodd"/>
  <path d="M 437 376 L 450 375 L 450 387 L 438 388 Z" fill="#f7f6f6" fill-rule="evenodd"/>
  <path d="M 477 88 L 488 89 L 487 102 L 475 101 L 475 90 Z" fill="#f7f6f6" fill-rule="evenodd"/>
  <path d="M 188 27 L 200 26 L 201 38 L 197 40 L 189 40 Z" fill="#f7f6f6" fill-rule="evenodd"/>
  <path d="M 51 488 L 63 487 L 64 500 L 52 501 Z" fill="#f7f6f6" fill-rule="evenodd"/>
  <path d="M 450 488 L 462 487 L 463 499 L 458 501 L 451 501 Z" fill="#f7f6f6" fill-rule="evenodd"/>
  <path d="M 300 15 L 312 14 L 314 16 L 314 26 L 301 27 Z" fill="#f7f6f6" fill-rule="evenodd"/>
  <path d="M 437 401 L 449 400 L 451 403 L 450 412 L 438 413 Z" fill="#f7f6f6" fill-rule="evenodd"/>
  <path d="M 64 326 L 76 325 L 77 338 L 65 339 Z" fill="#f7f6f6" fill-rule="evenodd"/>
  <path d="M 64 27 L 76 26 L 77 38 L 74 40 L 65 39 Z" fill="#f7f6f6" fill-rule="evenodd"/>
  <path d="M 26 488 L 38 487 L 39 500 L 27 500 Z" fill="#f7f6f6" fill-rule="evenodd"/>
  <path d="M 425 164 L 437 163 L 438 175 L 434 177 L 426 177 Z" fill="#f7f6f6" fill-rule="evenodd"/>
  <path d="M 437 102 L 450 101 L 450 113 L 438 114 Z" fill="#f7f6f6" fill-rule="evenodd"/>
  <path d="M 200 66 L 202 64 L 213 64 L 214 76 L 201 77 Z" fill="#f7f6f6" fill-rule="evenodd"/>
  <path d="M 337 64 L 339 69 L 339 76 L 326 77 L 325 65 L 334 63 Z" fill="#f7f6f6" fill-rule="evenodd"/>
  <path d="M 200 15 L 213 14 L 214 26 L 202 27 L 200 23 Z" fill="#f7f6f6" fill-rule="evenodd"/>
  <path d="M 51 164 L 63 163 L 64 176 L 52 177 Z" fill="#f7f6f6" fill-rule="evenodd"/>
  <path d="M 153 63 L 161 63 L 164 65 L 163 77 L 151 76 L 151 65 Z" fill="#f7f6f6" fill-rule="evenodd"/>
  <path d="M 14 351 L 26 350 L 27 363 L 15 363 Z" fill="#f7f6f6" fill-rule="evenodd"/>
  <path d="M 76 164 L 88 163 L 89 176 L 77 176 Z" fill="#f7f6f6" fill-rule="evenodd"/>
  <path d="M 437 152 L 449 151 L 451 163 L 438 164 Z" fill="#f7f6f6" fill-rule="evenodd"/>
  <path d="M 300 40 L 312 39 L 314 44 L 313 51 L 301 52 Z" fill="#f7f6f6" fill-rule="evenodd"/>
  <path d="M 39 351 L 51 350 L 52 363 L 40 363 Z" fill="#f7f6f6" fill-rule="evenodd"/>
  <path d="M 38 202 L 51 201 L 52 213 L 40 214 Z" fill="#f7f6f6" fill-rule="evenodd"/>
  <path d="M 462 27 L 474 26 L 475 38 L 463 40 Z" fill="#f7f6f6" fill-rule="evenodd"/>
  <path d="M 39 401 L 51 400 L 52 412 L 40 413 L 38 411 Z" fill="#f7f6f6" fill-rule="evenodd"/>
  <path d="M 39 52 L 51 51 L 52 63 L 40 64 L 38 61 Z" fill="#f7f6f6" fill-rule="evenodd"/>
  <path d="M 151 488 L 163 487 L 164 500 L 152 500 Z" fill="#f7f6f6" fill-rule="evenodd"/>
  <path d="M 363 27 L 375 26 L 376 38 L 364 40 L 362 33 Z" fill="#f7f6f6" fill-rule="evenodd"/>
  <path d="M 325 15 L 338 14 L 338 26 L 326 27 Z" fill="#f7f6f6" fill-rule="evenodd"/>
  <path d="M 375 488 L 387 487 L 388 499 L 384 501 L 376 500 Z" fill="#f7f6f6" fill-rule="evenodd"/>
  <path d="M 363 476 L 375 475 L 376 487 L 364 488 L 362 484 Z" fill="#f7f6f6" fill-rule="evenodd"/>
  <path d="M 39 227 L 51 226 L 52 238 L 40 239 L 38 235 Z" fill="#f7f6f6" fill-rule="evenodd"/>
  <path d="M 39 426 L 51 425 L 52 437 L 39 438 Z" fill="#f7f6f6" fill-rule="evenodd"/>
  <path d="M 64 202 L 76 201 L 77 213 L 64 214 Z" fill="#f7f6f6" fill-rule="evenodd"/>
  <path d="M 64 102 L 76 101 L 77 113 L 64 114 Z" fill="#f7f6f6" fill-rule="evenodd"/>
  <path d="M 363 451 L 375 450 L 376 462 L 364 463 L 362 456 Z" fill="#f7f6f6" fill-rule="evenodd"/>
  <path d="M 64 376 L 76 375 L 77 387 L 65 388 L 63 382 Z" fill="#f7f6f6" fill-rule="evenodd"/>
  <path d="M 64 351 L 76 350 L 77 362 L 70 364 L 65 363 Z" fill="#f7f6f6" fill-rule="evenodd"/>
  <path d="M 39 177 L 51 176 L 52 188 L 40 189 L 38 186 Z" fill="#f7f6f6" fill-rule="evenodd"/>
  <path d="M 14 152 L 26 151 L 27 163 L 15 164 L 13 161 Z" fill="#f7f6f6" fill-rule="evenodd"/>
  <path d="M 39 27 L 51 26 L 52 38 L 45 40 L 40 39 Z" fill="#f7f6f6" fill-rule="evenodd"/>
  <path d="M 76 102 L 88 101 L 89 113 L 81 115 L 77 114 Z" fill="#fefefe" fill-rule="evenodd"/>
  <path d="M 39 451 L 51 450 L 52 462 L 39 463 Z" fill="#f7f6f6" fill-rule="evenodd"/>
  <path d="M 487 351 L 499 350 L 500 362 L 488 364 Z" fill="#f7f6f6" fill-rule="evenodd"/>
  <path d="M 51 189 L 63 188 L 64 200 L 52 202 Z" fill="#f7f6f6" fill-rule="evenodd"/>
  <path d="M 126 64 L 138 64 L 139 76 L 127 77 Z" fill="#f7f6f6" fill-rule="evenodd"/>
  <path d="M 400 488 L 412 487 L 413 499 L 410 501 L 401 500 Z" fill="#f7f6f6" fill-rule="evenodd"/>
  <path d="M 350 488 L 362 487 L 363 499 L 359 501 L 351 500 Z" fill="#f7f6f6" fill-rule="evenodd"/>
  <path d="M 64 451 L 76 450 L 77 462 L 65 463 L 63 458 Z" fill="#f7f6f6" fill-rule="evenodd"/>
  <path d="M 14 401 L 26 400 L 27 412 L 15 413 L 13 407 Z" fill="#f7f6f6" fill-rule="evenodd"/>
  <path d="M 52 388 L 58 387 L 64 389 L 63 401 L 51 400 Z" fill="#f7f6f6" fill-rule="evenodd"/>
  <path d="M 462 77 L 474 76 L 476 85 L 475 88 L 463 89 Z" fill="#f7f6f6" fill-rule="evenodd"/>
  <path d="M 350 65 L 362 64 L 364 72 L 363 76 L 351 77 Z" fill="#f7f6f6" fill-rule="evenodd"/>
  <path d="M 363 52 L 375 51 L 376 63 L 364 64 L 362 57 Z" fill="#f7f6f6" fill-rule="evenodd"/>
  <path d="M 288 52 L 300 51 L 301 63 L 293 65 L 289 64 Z" fill="#f7f6f6" fill-rule="evenodd"/>
  <path d="M 163 52 L 175 51 L 176 63 L 173 65 L 164 64 Z" fill="#f7f6f6" fill-rule="evenodd"/>
  <path d="M 263 27 L 275 26 L 276 38 L 268 40 L 264 39 Z" fill="#f7f6f6" fill-rule="evenodd"/>
  <path d="M 450 476 L 462 475 L 463 487 L 451 488 L 449 480 Z" fill="#fefefe" fill-rule="evenodd"/>
  <path d="M 426 151 L 430 150 L 438 152 L 437 164 L 425 163 Z" fill="#fefefe" fill-rule="evenodd"/>
  <path d="M 475 488 L 487 487 L 488 499 L 476 500 Z" fill="#f7f6f6" fill-rule="evenodd"/>
  <path d="M 425 488 L 437 487 L 438 499 L 426 500 Z" fill="#f7f6f6" fill-rule="evenodd"/>
  <path d="M 325 488 L 337 487 L 338 499 L 326 500 Z" fill="#f7f6f6" fill-rule="evenodd"/>
  <path d="M 275 488 L 287 487 L 288 499 L 276 500 Z" fill="#f7f6f6" fill-rule="evenodd"/>
  <path d="M 176 488 L 188 487 L 189 499 L 177 500 Z" fill="#f7f6f6" fill-rule="evenodd"/>
  <path d="M 101 488 L 113 487 L 114 499 L 102 500 Z" fill="#f7f6f6" fill-rule="evenodd"/>
  <path d="M 487 476 L 499 475 L 500 487 L 488 488 Z" fill="#f7f6f6" fill-rule="evenodd"/>
  <path d="M 462 476 L 474 475 L 475 487 L 463 488 Z" fill="#f7f6f6" fill-rule="evenodd"/>
  <path d="M 338 476 L 350 475 L 351 487 L 339 488 Z" fill="#f7f6f6" fill-rule="evenodd"/>
  <path d="M 288 476 L 300 475 L 301 487 L 289 488 Z" fill="#f7f6f6" fill-rule="evenodd"/>
  <path d="M 263 476 L 275 475 L 276 487 L 264 488 Z" fill="#f7f6f6" fill-rule="evenodd"/>
  <path d="M 238 476 L 250 475 L 251 487 L 239 488 Z" fill="#f7f6f6" fill-rule="evenodd"/>
  <path d="M 213 476 L 225 475 L 226 487 L 214 488 Z" fill="#f7f6f6" fill-rule="evenodd"/>
  <path d="M 188 476 L 200 475 L 201 487 L 189 488 Z" fill="#f7f6f6" fill-rule="evenodd"/>
  <path d="M 163 476 L 175 475 L 176 487 L 164 488 Z" fill="#f7f6f6" fill-rule="evenodd"/>
  <path d="M 138 476 L 150 475 L 151 487 L 139 488 Z" fill="#f7f6f6" fill-rule="evenodd"/>
  <path d="M 64 476 L 76 475 L 77 487 L 65 488 Z" fill="#f7f6f6" fill-rule="evenodd"/>
  <path d="M 39 476 L 51 475 L 52 487 L 40 488 Z" fill="#f7f6f6" fill-rule="evenodd"/>
  <path d="M 14 476 L 26 475 L 27 487 L 15 488 Z" fill="#f7f6f6" fill-rule="evenodd"/>
  <path d="M 487 451 L 499 450 L 500 462 L 488 463 Z" fill="#f7f6f6" fill-rule="evenodd"/>
  <path d="M 462 451 L 474 450 L 475 462 L 463 463 Z" fill="#f7f6f6" fill-rule="evenodd"/>
  <path d="M 338 451 L 350 450 L 351 462 L 339 463 Z" fill="#f7f6f6" fill-rule="evenodd"/>
  <path d="M 313 451 L 325 450 L 326 462 L 314 463 Z" fill="#f7f6f6" fill-rule="evenodd"/>
  <path d="M 288 451 L 300 450 L 301 462 L 289 463 Z" fill="#f7f6f6" fill-rule="evenodd"/>
  <path d="M 263 451 L 275 450 L 276 462 L 264 463 Z" fill="#f7f6f6" fill-rule="evenodd"/>
  <path d="M 238 451 L 250 450 L 251 462 L 239 463 Z" fill="#f7f6f6" fill-rule="evenodd"/>
  <path d="M 213 451 L 225 450 L 226 462 L 214 463 Z" fill="#f7f6f6" fill-rule="evenodd"/>
  <path d="M 188 451 L 200 450 L 201 462 L 189 463 Z" fill="#f7f6f6" fill-rule="evenodd"/>
  <path d="M 163 451 L 175 450 L 176 462 L 164 463 Z" fill="#f7f6f6" fill-rule="evenodd"/>
  <path d="M 138 451 L 150 450 L 151 462 L 139 463 Z" fill="#f7f6f6" fill-rule="evenodd"/>
  <path d="M 14 451 L 26 450 L 27 462 L 15 463 Z" fill="#f7f6f6" fill-rule="evenodd"/>
  <path d="M 487 426 L 499 425 L 500 437 L 488 438 Z" fill="#f7f6f6" fill-rule="evenodd"/>
  <path d="M 462 426 L 474 425 L 475 437 L 463 438 Z" fill="#f7f6f6" fill-rule="evenodd"/>
  <path d="M 64 426 L 76 425 L 77 437 L 65 438 Z" fill="#f7f6f6" fill-rule="evenodd"/>
  <path d="M 14 426 L 26 425 L 27 437 L 15 438 Z" fill="#f7f6f6" fill-rule="evenodd"/>
  <path d="M 487 401 L 499 400 L 500 412 L 488 413 Z" fill="#f7f6f6" fill-rule="evenodd"/>
  <path d="M 462 401 L 474 400 L 475 412 L 463 413 Z" fill="#f7f6f6" fill-rule="evenodd"/>
  <path d="M 64 401 L 76 400 L 77 412 L 65 413 Z" fill="#f7f6f6" fill-rule="evenodd"/>
  <path d="M 475 389 L 487 388 L 488 400 L 476 401 Z" fill="#f7f6f6" fill-rule="evenodd"/>
  <path d="M 450 389 L 462 388 L 463 400 L 451 401 Z" fill="#f7f6f6" fill-rule="evenodd"/>
  <path d="M 425 389 L 437 388 L 438 400 L 426 401 Z" fill="#f7f6f6" fill-rule="evenodd"/>
  <path d="M 76 389 L 88 388 L 89 400 L 77 401 Z" fill="#f7f6f6" fill-rule="evenodd"/>
  <path d="M 26 389 L 38 388 L 39 400 L 27 401 Z" fill="#f7f6f6" fill-rule="evenodd"/>
  <path d="M 487 376 L 499 375 L 500 387 L 488 388 Z" fill="#f7f6f6" fill-rule="evenodd"/>
  <path d="M 462 376 L 474 375 L 475 387 L 463 388 Z" fill="#f7f6f6" fill-rule="evenodd"/>
  <path d="M 39 376 L 51 375 L 52 387 L 40 388 Z" fill="#f7f6f6" fill-rule="evenodd"/>
  <path d="M 14 376 L 26 375 L 27 387 L 15 388 Z" fill="#f7f6f6" fill-rule="evenodd"/>
  <path d="M 475 364 L 487 363 L 488 375 L 476 376 Z" fill="#f7f6f6" fill-rule="evenodd"/>
  <path d="M 450 364 L 462 363 L 463 375 L 451 376 Z" fill="#f7f6f6" fill-rule="evenodd"/>
  <path d="M 425 364 L 437 363 L 438 375 L 426 376 Z" fill="#f7f6f6" fill-rule="evenodd"/>
  <path d="M 76 364 L 88 363 L 89 375 L 77 376 Z" fill="#f7f6f6" fill-rule="evenodd"/>
  <path d="M 51 364 L 63 363 L 64 375 L 52 376 Z" fill="#f7f6f6" fill-rule="evenodd"/>
  <path d="M 26 364 L 38 363 L 39 375 L 27 376 Z" fill="#f7f6f6" fill-rule="evenodd"/>
  <path d="M 475 339 L 487 338 L 488 350 L 476 351 Z" fill="#f7f6f6" fill-rule="evenodd"/>
  <path d="M 450 339 L 462 338 L 463 350 L 451 351 Z" fill="#f7f6f6" fill-rule="evenodd"/>
  <path d="M 425 339 L 437 338 L 438 350 L 426 351 Z" fill="#f7f6f6" fill-rule="evenodd"/>
  <path d="M 76 339 L 88 338 L 89 350 L 77 351 Z" fill="#f7f6f6" fill-rule="evenodd"/>
  <path d="M 51 339 L 63 338 L 64 350 L 52 351 Z" fill="#f7f6f6" fill-rule="evenodd"/>
  <path d="M 26 339 L 38 338 L 39 350 L 27 351 Z" fill="#f7f6f6" fill-rule="evenodd"/>
  <path d="M 475 314 L 487 313 L 488 325 L 476 326 Z" fill="#f7f6f6" fill-rule="evenodd"/>
  <path d="M 450 314 L 462 313 L 463 325 L 451 326 Z" fill="#f7f6f6" fill-rule="evenodd"/>
  <path d="M 425 314 L 437 313 L 438 325 L 426 326 Z" fill="#f7f6f6" fill-rule="evenodd"/>
  <path d="M 76 314 L 88 313 L 89 325 L 77 326 Z" fill="#f7f6f6" fill-rule="evenodd"/>
  <path d="M 51 314 L 63 313 L 64 325 L 52 326 Z" fill="#f7f6f6" fill-rule="evenodd"/>
  <path d="M 26 314 L 38 313 L 39 325 L 27 326 Z" fill="#f7f6f6" fill-rule="evenodd"/>
  <path d="M 475 289 L 487 288 L 488 300 L 476 301 Z" fill="#f7f6f6" fill-rule="evenodd"/>
  <path d="M 450 289 L 462 288 L 463 300 L 451 301 Z" fill="#f7f6f6" fill-rule="evenodd"/>
  <path d="M 425 289 L 437 288 L 438 300 L 426 301 Z" fill="#f7f6f6" fill-rule="evenodd"/>
  <path d="M 76 289 L 88 288 L 89 300 L 77 301 Z" fill="#f7f6f6" fill-rule="evenodd"/>
  <path d="M 51 289 L 63 288 L 64 300 L 52 301 Z" fill="#f7f6f6" fill-rule="evenodd"/>
  <path d="M 26 289 L 38 288 L 39 300 L 27 301 Z" fill="#f7f6f6" fill-rule="evenodd"/>
  <path d="M 475 264 L 487 263 L 488 275 L 476 276 Z" fill="#f7f6f6" fill-rule="evenodd"/>
  <path d="M 450 264 L 462 263 L 463 275 L 451 276 Z" fill="#f7f6f6" fill-rule="evenodd"/>
  <path d="M 425 264 L 437 263 L 438 275 L 426 276 Z" fill="#f7f6f6" fill-rule="evenodd"/>
  <path d="M 76 264 L 88 263 L 89 275 L 77 276 Z" fill="#f7f6f6" fill-rule="evenodd"/>
  <path d="M 51 264 L 63 263 L 64 275 L 52 276 Z" fill="#f7f6f6" fill-rule="evenodd"/>
  <path d="M 26 264 L 38 263 L 39 275 L 27 276 Z" fill="#f7f6f6" fill-rule="evenodd"/>
  <path d="M 475 239 L 487 238 L 488 250 L 476 251 Z" fill="#f7f6f6" fill-rule="evenodd"/>
  <path d="M 450 239 L 462 238 L 463 250 L 451 251 Z" fill="#f7f6f6" fill-rule="evenodd"/>
  <path d="M 425 239 L 437 238 L 438 250 L 426 251 Z" fill="#f7f6f6" fill-rule="evenodd"/>
  <path d="M 76 239 L 88 238 L 89 250 L 77 251 Z" fill="#f7f6f6" fill-rule="evenodd"/>
  <path d="M 51 239 L 63 238 L 64 250 L 52 251 Z" fill="#f7f6f6" fill-rule="evenodd"/>
  <path d="M 487 227 L 499 226 L 500 238 L 488 239 Z" fill="#f7f6f6" fill-rule="evenodd"/>
  <path d="M 462 227 L 474 226 L 475 238 L 463 239 Z" fill="#f7f6f6" fill-rule="evenodd"/>
  <path d="M 64 227 L 76 226 L 77 238 L 65 239 Z" fill="#f7f6f6" fill-rule="evenodd"/>
  <path d="M 14 227 L 26 226 L 27 238 L 15 239 Z" fill="#f7f6f6" fill-rule="evenodd"/>
  <path d="M 475 214 L 487 213 L 488 225 L 476 226 Z" fill="#f7f6f6" fill-rule="evenodd"/>
  <path d="M 450 214 L 462 213 L 463 225 L 451 226 Z" fill="#f7f6f6" fill-rule="evenodd"/>
  <path d="M 425 214 L 437 213 L 438 225 L 426 226 Z" fill="#f7f6f6" fill-rule="evenodd"/>
  <path d="M 76 214 L 88 213 L 89 225 L 77 226 Z" fill="#f7f6f6" fill-rule="evenodd"/>
  <path d="M 51 214 L 63 213 L 64 225 L 52 226 Z" fill="#f7f6f6" fill-rule="evenodd"/>
  <path d="M 26 214 L 38 213 L 39 225 L 27 226 Z" fill="#f7f6f6" fill-rule="evenodd"/>
  <path d="M 487 202 L 499 201 L 500 213 L 488 214 Z" fill="#f7f6f6" fill-rule="evenodd"/>
  <path d="M 462 202 L 474 201 L 475 213 L 463 214 Z" fill="#f7f6f6" fill-rule="evenodd"/>
  <path d="M 14 202 L 26 201 L 27 213 L 15 214 Z" fill="#f7f6f6" fill-rule="evenodd"/>
  <path d="M 475 189 L 487 188 L 488 200 L 476 201 Z" fill="#f7f6f6" fill-rule="evenodd"/>
  <path d="M 450 189 L 462 188 L 463 200 L 451 201 Z" fill="#f7f6f6" fill-rule="evenodd"/>
  <path d="M 76 189 L 88 188 L 89 200 L 77 201 Z" fill="#f7f6f6" fill-rule="evenodd"/>
  <path d="M 26 189 L 38 188 L 39 200 L 27 201 Z" fill="#f7f6f6" fill-rule="evenodd"/>
  <path d="M 487 177 L 499 176 L 500 188 L 488 189 Z" fill="#f7f6f6" fill-rule="evenodd"/>
  <path d="M 462 177 L 474 176 L 475 188 L 463 189 Z" fill="#f7f6f6" fill-rule="evenodd"/>
  <path d="M 64 177 L 76 176 L 77 188 L 65 189 Z" fill="#f7f6f6" fill-rule="evenodd"/>
  <path d="M 14 177 L 26 176 L 27 188 L 15 189 Z" fill="#f7f6f6" fill-rule="evenodd"/>
  <path d="M 487 152 L 499 151 L 500 163 L 488 164 Z" fill="#f7f6f6" fill-rule="evenodd"/>
  <path d="M 462 152 L 474 151 L 475 163 L 463 164 Z" fill="#f7f6f6" fill-rule="evenodd"/>
  <path d="M 64 152 L 76 151 L 77 163 L 65 164 Z" fill="#f7f6f6" fill-rule="evenodd"/>
  <path d="M 39 152 L 51 151 L 52 163 L 40 164 Z" fill="#f7f6f6" fill-rule="evenodd"/>
  <path d="M 487 127 L 499 126 L 500 138 L 488 139 Z" fill="#f7f6f6" fill-rule="evenodd"/>
  <path d="M 64 127 L 76 126 L 77 138 L 65 139 Z" fill="#f7f6f6" fill-rule="evenodd"/>
  <path d="M 39 127 L 51 126 L 52 138 L 40 139 Z" fill="#f7f6f6" fill-rule="evenodd"/>
  <path d="M 14 127 L 26 126 L 27 138 L 15 139 Z" fill="#f7f6f6" fill-rule="evenodd"/>
  <path d="M 462 102 L 474 101 L 475 113 L 463 114 Z" fill="#f7f6f6" fill-rule="evenodd"/>
  <path d="M 313 102 L 325 101 L 326 113 L 314 114 Z" fill="#f7f6f6" fill-rule="evenodd"/>
  <path d="M 288 102 L 300 101 L 301 113 L 289 114 Z" fill="#f7f6f6" fill-rule="evenodd"/>
  <path d="M 263 102 L 275 101 L 276 113 L 264 114 Z" fill="#f7f6f6" fill-rule="evenodd"/>
  <path d="M 238 102 L 250 101 L 251 113 L 239 114 Z" fill="#f7f6f6" fill-rule="evenodd"/>
  <path d="M 213 102 L 225 101 L 226 113 L 214 114 Z" fill="#f7f6f6" fill-rule="evenodd"/>
  <path d="M 188 102 L 200 101 L 201 113 L 189 114 Z" fill="#f7f6f6" fill-rule="evenodd"/>
  <path d="M 39 102 L 51 101 L 52 113 L 40 114 Z" fill="#f7f6f6" fill-rule="evenodd"/>
  <path d="M 14 102 L 26 101 L 27 113 L 15 114 Z" fill="#f7f6f6" fill-rule="evenodd"/>
  <path d="M 487 77 L 499 76 L 500 88 L 488 89 Z" fill="#f7f6f6" fill-rule="evenodd"/>
  <path d="M 363 77 L 375 76 L 376 88 L 364 89 Z" fill="#f7f6f6" fill-rule="evenodd"/>
  <path d="M 313 77 L 325 76 L 326 88 L 314 89 Z" fill="#f7f6f6" fill-rule="evenodd"/>
  <path d="M 288 77 L 300 76 L 301 88 L 289 89 Z" fill="#f7f6f6" fill-rule="evenodd"/>
  <path d="M 263 77 L 275 76 L 276 88 L 264 89 Z" fill="#f7f6f6" fill-rule="evenodd"/>
  <path d="M 238 77 L 250 76 L 251 88 L 239 89 Z" fill="#f7f6f6" fill-rule="evenodd"/>
  <path d="M 213 77 L 225 76 L 226 88 L 214 89 Z" fill="#f7f6f6" fill-rule="evenodd"/>
  <path d="M 188 77 L 200 76 L 201 88 L 189 89 Z" fill="#f7f6f6" fill-rule="evenodd"/>
  <path d="M 138 77 L 150 76 L 151 88 L 139 89 Z" fill="#f7f6f6" fill-rule="evenodd"/>
  <path d="M 64 77 L 76 76 L 77 88 L 65 89 Z" fill="#f7f6f6" fill-rule="evenodd"/>
  <path d="M 39 77 L 51 76 L 52 88 L 40 89 Z" fill="#f7f6f6" fill-rule="evenodd"/>
  <path d="M 14 77 L 26 76 L 27 88 L 15 89 Z" fill="#f7f6f6" fill-rule="evenodd"/>
  <path d="M 450 65 L 462 64 L 463 76 L 451 77 Z" fill="#f7f6f6" fill-rule="evenodd"/>
  <path d="M 425 65 L 437 64 L 438 76 L 426 77 Z" fill="#f7f6f6" fill-rule="evenodd"/>
  <path d="M 400 65 L 412 64 L 413 76 L 401 77 Z" fill="#f7f6f6" fill-rule="evenodd"/>
  <path d="M 375 65 L 387 64 L 388 76 L 376 77 Z" fill="#f7f6f6" fill-rule="evenodd"/>
  <path d="M 275 65 L 287 64 L 288 76 L 276 77 Z" fill="#f7f6f6" fill-rule="evenodd"/>
  <path d="M 176 65 L 188 64 L 189 76 L 177 77 Z" fill="#f7f6f6" fill-rule="evenodd"/>
  <path d="M 101 65 L 113 64 L 114 76 L 102 77 Z" fill="#f7f6f6" fill-rule="evenodd"/>
  <path d="M 76 65 L 88 64 L 89 76 L 77 77 Z" fill="#f7f6f6" fill-rule="evenodd"/>
  <path d="M 51 65 L 63 64 L 64 76 L 52 77 Z" fill="#f7f6f6" fill-rule="evenodd"/>
  <path d="M 26 65 L 38 64 L 39 76 L 27 77 Z" fill="#f7f6f6" fill-rule="evenodd"/>
  <path d="M 487 52 L 499 51 L 500 63 L 488 64 Z" fill="#f7f6f6" fill-rule="evenodd"/>
  <path d="M 338 52 L 350 51 L 351 63 L 339 64 Z" fill="#f7f6f6" fill-rule="evenodd"/>
  <path d="M 313 52 L 325 51 L 326 63 L 314 64 Z" fill="#f7f6f6" fill-rule="evenodd"/>
  <path d="M 263 52 L 275 51 L 276 63 L 264 64 Z" fill="#f7f6f6" fill-rule="evenodd"/>
  <path d="M 238 52 L 250 51 L 251 63 L 239 64 Z" fill="#f7f6f6" fill-rule="evenodd"/>
  <path d="M 188 52 L 200 51 L 201 63 L 189 64 Z" fill="#f7f6f6" fill-rule="evenodd"/>
  <path d="M 138 52 L 150 51 L 151 63 L 139 64 Z" fill="#f7f6f6" fill-rule="evenodd"/>
  <path d="M 64 52 L 76 51 L 77 63 L 65 64 Z" fill="#f7f6f6" fill-rule="evenodd"/>
  <path d="M 14 52 L 26 51 L 27 63 L 15 64 Z" fill="#f7f6f6" fill-rule="evenodd"/>
  <path d="M 475 40 L 487 39 L 488 51 L 476 52 Z" fill="#f7f6f6" fill-rule="evenodd"/>
  <path d="M 450 40 L 462 39 L 463 51 L 451 52 Z" fill="#f7f6f6" fill-rule="evenodd"/>
  <path d="M 425 40 L 437 39 L 438 51 L 426 52 Z" fill="#f7f6f6" fill-rule="evenodd"/>
  <path d="M 400 40 L 412 39 L 413 51 L 401 52 Z" fill="#f7f6f6" fill-rule="evenodd"/>
  <path d="M 375 40 L 387 39 L 388 51 L 376 52 Z" fill="#f7f6f6" fill-rule="evenodd"/>
  <path d="M 350 40 L 362 39 L 363 51 L 351 52 Z" fill="#f7f6f6" fill-rule="evenodd"/>
  <path d="M 275 40 L 287 39 L 288 51 L 276 52 Z" fill="#f7f6f6" fill-rule="evenodd"/>
  <path d="M 176 40 L 188 39 L 189 51 L 177 52 Z" fill="#f7f6f6" fill-rule="evenodd"/>
  <path d="M 151 40 L 163 39 L 164 51 L 152 52 Z" fill="#f7f6f6" fill-rule="evenodd"/>
  <path d="M 126 40 L 138 39 L 139 51 L 127 52 Z" fill="#f7f6f6" fill-rule="evenodd"/>
  <path d="M 101 40 L 113 39 L 114 51 L 102 52 Z" fill="#f7f6f6" fill-rule="evenodd"/>
  <path d="M 76 40 L 88 39 L 89 51 L 77 52 Z" fill="#f7f6f6" fill-rule="evenodd"/>
  <path d="M 51 40 L 63 39 L 64 51 L 52 52 Z" fill="#f7f6f6" fill-rule="evenodd"/>
  <path d="M 26 40 L 38 39 L 39 51 L 27 52 Z" fill="#f7f6f6" fill-rule="evenodd"/>
  <path d="M 487 27 L 499 26 L 500 38 L 488 39 Z" fill="#f7f6f6" fill-rule="evenodd"/>
  <path d="M 313 27 L 325 26 L 326 38 L 314 39 Z" fill="#f7f6f6" fill-rule="evenodd"/>
  <path d="M 288 27 L 300 26 L 301 38 L 289 39 Z" fill="#f7f6f6" fill-rule="evenodd"/>
  <path d="M 238 27 L 250 26 L 251 38 L 239 39 Z" fill="#f7f6f6" fill-rule="evenodd"/>
  <path d="M 213 27 L 225 26 L 226 38 L 214 39 Z" fill="#f7f6f6" fill-rule="evenodd"/>
  <path d="M 163 27 L 175 26 L 176 38 L 164 39 Z" fill="#f7f6f6" fill-rule="evenodd"/>
  <path d="M 138 27 L 150 26 L 151 38 L 139 39 Z" fill="#f7f6f6" fill-rule="evenodd"/>
  <path d="M 14 27 L 26 26 L 27 38 L 15 39 Z" fill="#f7f6f6" fill-rule="evenodd"/>
  <path d="M 475 15 L 487 14 L 488 26 L 476 27 Z" fill="#f7f6f6" fill-rule="evenodd"/>
  <path d="M 450 15 L 462 14 L 463 26 L 451 27 Z" fill="#f7f6f6" fill-rule="evenodd"/>
  <path d="M 425 15 L 437 14 L 438 26 L 426 27 Z" fill="#f7f6f6" fill-rule="evenodd"/>
  <path d="M 400 15 L 412 14 L 413 26 L 401 27 Z" fill="#f7f6f6" fill-rule="evenodd"/>
  <path d="M 375 15 L 387 14 L 388 26 L 376 27 Z" fill="#f7f6f6" fill-rule="evenodd"/>
  <path d="M 350 15 L 362 14 L 363 26 L 351 27 Z" fill="#f7f6f6" fill-rule="evenodd"/>
  <path d="M 275 15 L 287 14 L 288 26 L 276 27 Z" fill="#f7f6f6" fill-rule="evenodd"/>
  <path d="M 176 15 L 188 14 L 189 26 L 177 27 Z" fill="#f7f6f6" fill-rule="evenodd"/>
  <path d="M 151 15 L 163 14 L 164 26 L 152 27 Z" fill="#f7f6f6" fill-rule="evenodd"/>
  <path d="M 101 15 L 113 14 L 114 26 L 102 27 Z" fill="#f7f6f6" fill-rule="evenodd"/>
  <path d="M 76 15 L 88 14 L 89 26 L 77 27 Z" fill="#f7f6f6" fill-rule="evenodd"/>
  <path d="M 51 15 L 63 14 L 64 26 L 52 27 Z" fill="#f7f6f6" fill-rule="evenodd"/>
  <path d="M 26 15 L 38 14 L 39 26 L 27 27 Z" fill="#f7f6f6" fill-rule="evenodd"/>
  <path d="M 425 476 L 437 475 L 438 487 L 426 488 Z" fill="#fefefe" fill-rule="evenodd"/>
  <path d="M 400 476 L 412 475 L 413 487 L 401 488 Z" fill="#fefefe" fill-rule="evenodd"/>
  <path d="M 375 476 L 387 475 L 388 487 L 376 488 Z" fill="#fefefe" fill-rule="evenodd"/>
  <path d="M 425 451 L 437 450 L 438 462 L 426 463 Z" fill="#fefefe" fill-rule="evenodd"/>
  <path d="M 400 451 L 412 450 L 413 462 L 401 463 Z" fill="#fefefe" fill-rule="evenodd"/>
  <path d="M 375 451 L 387 450 L 388 462 L 376 463 Z" fill="#fefefe" fill-rule="evenodd"/>
  <path d="M 425 426 L 437 425 L 438 437 L 426 438 Z" fill="#fefefe" fill-rule="evenodd"/>
  <path d="M 400 426 L 412 425 L 413 437 L 401 438 Z" fill="#fefefe" fill-rule="evenodd"/>
  <path d="M 425 401 L 437 400 L 438 412 L 426 413 Z" fill="#fefefe" fill-rule="evenodd"/>
  <path d="M 126 476 L 138 475 L 139 487 L 127 488 Z" fill="#fefefe" fill-rule="evenodd"/>
  <path d="M 101 476 L 113 475 L 114 487 L 102 488 Z" fill="#fefefe" fill-rule="evenodd"/>
  <path d="M 76 476 L 88 475 L 89 487 L 77 488 Z" fill="#fefefe" fill-rule="evenodd"/>
  <path d="M 126 451 L 138 450 L 139 462 L 127 463 Z" fill="#fefefe" fill-rule="evenodd"/>
  <path d="M 101 451 L 113 450 L 114 462 L 102 463 Z" fill="#fefefe" fill-rule="evenodd"/>
  <path d="M 76 451 L 88 450 L 89 462 L 77 463 Z" fill="#fefefe" fill-rule="evenodd"/>
  <path d="M 101 426 L 113 425 L 114 437 L 102 438 Z" fill="#fefefe" fill-rule="evenodd"/>
  <path d="M 76 426 L 88 425 L 89 437 L 77 438 Z" fill="#fefefe" fill-rule="evenodd"/>
  <path d="M 76 401 L 88 400 L 89 412 L 77 413 Z" fill="#fefefe" fill-rule="evenodd"/>
  <path d="M 425 127 L 437 126 L 438 138 L 426 139 Z" fill="#fefefe" fill-rule="evenodd"/>
  <path d="M 425 102 L 437 101 L 438 113 L 426 114 Z" fill="#fefefe" fill-rule="evenodd"/>
  <path d="M 450 77 L 462 76 L 463 88 L 451 89 Z" fill="#fefefe" fill-rule="evenodd"/>
  <path d="M 425 77 L 437 76 L 438 88 L 426 89 Z" fill="#fefefe" fill-rule="evenodd"/>
  <path d="M 400 77 L 412 76 L 413 88 L 401 89 Z" fill="#fefefe" fill-rule="evenodd"/>
  <path d="M 375 77 L 387 76 L 388 88 L 376 89 Z" fill="#fefefe" fill-rule="evenodd"/>
  <path d="M 76 152 L 88 151 L 89 163 L 77 164 Z" fill="#fefefe" fill-rule="evenodd"/>
  <path d="M 76 127 L 88 126 L 89 138 L 77 139 Z" fill="#fefefe" fill-rule="evenodd"/>
  <path d="M 101 102 L 113 101 L 114 113 L 102 114 Z" fill="#fefefe" fill-rule="evenodd"/>
  <path d="M 126 77 L 138 76 L 139 88 L 127 89 Z" fill="#fefefe" fill-rule="evenodd"/>
  <path d="M 101 77 L 113 76 L 114 88 L 102 89 Z" fill="#fefefe" fill-rule="evenodd"/>
  <path d="M 76 77 L 88 76 L 89 88 L 77 89 Z" fill="#fefefe" fill-rule="evenodd"/>
  <path d="M 0 438 L 0 450 L 13 450 L 13 438 Z" fill="#fefefe" fill-rule="evenodd"/>
  <path d="M 89 0 L 89 13 L 101 13 L 101 0 Z" fill="#fefefe" fill-rule="evenodd"/>
  <path d="M 0 463 L 0 475 L 13 475 L 13 463 Z" fill="#fefefe" fill-rule="evenodd"/>
  <path d="M 0 413 L 0 425 L 13 425 L 13 413 Z" fill="#fefefe" fill-rule="evenodd"/>
  <path d="M 0 139 L 0 151 L 13 151 L 13 139 Z" fill="#fefefe" fill-rule="evenodd"/>
  <path d="M 0 114 L 0 126 L 13 126 L 13 114 Z" fill="#fefefe" fill-rule="evenodd"/>
  <path d="M 413 0 L 413 13 L 425 13 L 425 0 Z" fill="#fefefe" fill-rule="evenodd"/>
  <path d="M 388 0 L 388 13 L 400 13 L 400 0 Z" fill="#fefefe" fill-rule="evenodd"/>
  <path d="M 0 89 L 0 101 L 13 101 L 12 89 Z" fill="#fefefe" fill-rule="evenodd"/>
  <path d="M 0 488 L 0 500 L 13 499 L 13 488 Z" fill="#fefefe" fill-rule="evenodd"/>
  <path d="M 114 0 L 114 13 L 125 13 L 126 0 Z" fill="#fefefe" fill-rule="evenodd"/>
  <path d="M 500 0 L 500 12 L 502 14 L 511 14 L 511 0 Z" fill="#f7f6f6" fill-rule="evenodd"/>
  <path d="M 0 289 L 0 300 L 13 300 L 13 289 Z" fill="#fefefe" fill-rule="evenodd"/>
  <path d="M 0 164 L 0 175 L 13 175 L 13 164 Z" fill="#fefefe" fill-rule="evenodd"/>
  <path d="M 363 0 L 364 13 L 375 13 L 375 0 Z" fill="#fefefe" fill-rule="evenodd"/>
  <path d="M 0 239 L 0 250 L 13 250 L 13 239 Z" fill="#fefefe" fill-rule="evenodd"/>
  <path d="M 189 0 L 189 13 L 200 13 L 200 0 Z" fill="#fefefe" fill-rule="evenodd"/>
  <path d="M 40 0 L 40 13 L 51 13 L 51 0 Z" fill="#fefefe" fill-rule="evenodd"/>
  <path d="M 15 0 L 15 13 L 26 13 L 26 0 Z" fill="#fefefe" fill-rule="evenodd"/>
  <path d="M 0 389 L 0 400 L 13 400 L 13 389 Z" fill="#fefefe" fill-rule="evenodd"/>
  <path d="M 0 364 L 0 375 L 13 375 L 13 364 Z" fill="#fefefe" fill-rule="evenodd"/>
  <path d="M 0 339 L 0 350 L 13 350 L 13 339 Z" fill="#fefefe" fill-rule="evenodd"/>
  <path d="M 0 314 L 0 325 L 13 325 L 13 314 Z" fill="#fefefe" fill-rule="evenodd"/>
  <path d="M 0 264 L 0 275 L 13 275 L 13 264 Z" fill="#fefefe" fill-rule="evenodd"/>
  <path d="M 0 214 L 0 225 L 13 225 L 13 214 Z" fill="#fefefe" fill-rule="evenodd"/>
  <path d="M 0 189 L 0 200 L 13 200 L 13 189 Z" fill="#fefefe" fill-rule="evenodd"/>
  <path d="M 0 65 L 0 76 L 13 76 L 13 65 Z" fill="#fefefe" fill-rule="evenodd"/>
  <path d="M 0 40 L 0 51 L 13 51 L 13 40 Z" fill="#fefefe" fill-rule="evenodd"/>
  <path d="M 0 15 L 0 26 L 13 26 L 13 15 Z" fill="#fefefe" fill-rule="evenodd"/>
  <path d="M 488 0 L 488 13 L 499 13 L 499 0 Z" fill="#fefefe" fill-rule="evenodd"/>
  <path d="M 463 0 L 463 13 L 474 13 L 474 0 Z" fill="#fefefe" fill-rule="evenodd"/>
  <path d="M 339 0 L 339 13 L 350 13 L 350 0 Z" fill="#fefefe" fill-rule="evenodd"/>
  <path d="M 314 0 L 314 13 L 325 13 L 325 0 Z" fill="#fefefe" fill-rule="evenodd"/>
  <path d="M 289 0 L 289 13 L 300 13 L 300 0 Z" fill="#fefefe" fill-rule="evenodd"/>
  <path d="M 239 0 L 239 13 L 250 13 L 250 0 Z" fill="#fefefe" fill-rule="evenodd"/>
  <path d="M 164 0 L 164 13 L 175 13 L 175 0 Z" fill="#fefefe" fill-rule="evenodd"/>
  <path d="M 139 0 L 139 13 L 150 13 L 150 0 Z" fill="#fefefe" fill-rule="evenodd"/>
  <path d="M 501 463 L 501 475 L 511 475 L 511 463 Z" fill="#fefefe" fill-rule="evenodd"/>
  <path d="M 501 89 L 501 101 L 511 101 L 511 89 Z" fill="#fefefe" fill-rule="evenodd"/>
  <path d="M 501 413 L 501 425 L 511 425 L 511 413 Z" fill="#fefefe" fill-rule="evenodd"/>
  <path d="M 314 426 L 314 437 L 325 437 L 325 426 Z" fill="#fefefe" fill-rule="evenodd"/>
  <path d="M 139 426 L 139 437 L 150 437 L 150 426 Z" fill="#fefefe" fill-rule="evenodd"/>
  <path d="M 438 501 L 438 511 L 450 511 L 450 501 Z" fill="#fefefe" fill-rule="evenodd"/>
  <path d="M 413 501 L 413 511 L 425 511 L 425 501 Z" fill="#fefefe" fill-rule="evenodd"/>
  <path d="M 388 501 L 388 511 L 400 511 L 400 501 Z" fill="#fefefe" fill-rule="evenodd"/>
  <path d="M 114 501 L 114 511 L 126 511 L 126 501 Z" fill="#fefefe" fill-rule="evenodd"/>
  <path d="M 89 501 L 89 511 L 101 511 L 101 501 Z" fill="#fefefe" fill-rule="evenodd"/>
  <path d="M 501 139 L 501 151 L 511 151 L 511 139 Z" fill="#fefefe" fill-rule="evenodd"/>
  <path d="M 501 488 L 501 499 L 511 500 L 511 488 Z" fill="#fefefe" fill-rule="evenodd"/>
  <path d="M 501 164 L 500 174 L 506 176 L 511 175 L 511 164 Z" fill="#fefefe" fill-rule="evenodd"/>
  <path d="M 500 364 L 501 375 L 511 375 L 511 364 Z" fill="#fefefe" fill-rule="evenodd"/>
  <path d="M 364 501 L 364 511 L 375 511 L 375 501 Z" fill="#fefefe" fill-rule="evenodd"/>
  <path d="M 501 339 L 501 350 L 511 350 L 511 339 Z" fill="#fefefe" fill-rule="evenodd"/>
  <path d="M 501 189 L 501 200 L 511 200 L 511 189 Z" fill="#fefefe" fill-rule="evenodd"/>
  <path d="M 501 289 L 500 299 L 511 300 L 511 289 Z" fill="#fefefe" fill-rule="evenodd"/>
  <path d="M 501 239 L 501 250 L 511 250 L 511 239 Z" fill="#fefefe" fill-rule="evenodd"/>
  <path d="M 501 15 L 501 26 L 511 26 L 511 15 Z" fill="#fefefe" fill-rule="evenodd"/>
  <path d="M 488 501 L 488 511 L 499 511 L 499 501 Z" fill="#fefefe" fill-rule="evenodd"/>
  <path d="M 463 501 L 463 511 L 474 511 L 474 501 Z" fill="#fefefe" fill-rule="evenodd"/>
  <path d="M 339 501 L 339 511 L 350 511 L 350 501 Z" fill="#fefefe" fill-rule="evenodd"/>
  <path d="M 314 501 L 314 511 L 325 511 L 325 501 Z" fill="#fefefe" fill-rule="evenodd"/>
  <path d="M 289 501 L 289 511 L 300 511 L 300 501 Z" fill="#fefefe" fill-rule="evenodd"/>
  <path d="M 264 501 L 264 511 L 275 511 L 275 501 Z" fill="#fefefe" fill-rule="evenodd"/>
  <path d="M 239 501 L 239 511 L 250 511 L 250 501 Z" fill="#fefefe" fill-rule="evenodd"/>
  <path d="M 214 501 L 214 511 L 225 511 L 225 501 Z" fill="#fefefe" fill-rule="evenodd"/>
  <path d="M 189 501 L 189 511 L 200 511 L 200 501 Z" fill="#fefefe" fill-rule="evenodd"/>
  <path d="M 139 501 L 139 511 L 150 511 L 150 501 Z" fill="#fefefe" fill-rule="evenodd"/>
  <path d="M 15 501 L 15 511 L 26 511 L 26 501 Z" fill="#fefefe" fill-rule="evenodd"/>
  <path d="M 501 40 L 501 51 L 511 51 L 511 40 Z" fill="#fefefe" fill-rule="evenodd"/>
</svg>
