<svg width="500" height="500" viewBox="0 0 500 500" fill="none" xmlns="http://www.w3.org/2000/svg">
  <rect x="90" y="110" width="320" height="300" rx="40" fill="#EAE0D5"/>
  
  <path d="M90 150V150C90 127.909 107.909 110 130 110H370C392.091 110 410 127.909 410 150V180H90V150Z" fill="#911F27"/>
  
  <rect x="140" y="80" width="30" height="60" rx="15" fill="#2D3E50"/>
  <rect x="330" y="80" width="30" height="60" rx="15" fill="#2D3E50"/>
  
  <rect x="125" y="215" width="60" height="55" rx="10" fill="#B9AFA3"/>
  <rect x="220" y="215" width="60" height="55" rx="10" fill="#B9AFA3"/>
  <rect x="315" y="215" width="60" height="55" rx="10" fill="#B9AFA3"/>
  
  <rect x="125" y="300" width="60" height="55" rx="10" fill="#B9AFA3"/>
  <rect x="220" y="300" width="60" height="55" rx="10" fill="#B9AFA3"/>
  
  <rect x="315" y="300" width="60" height="60" rx="12" fill="#C69355"/>
  
  <path d="M325 330L340 345L370 315" stroke="#911F27" stroke-width="12" stroke-linecap="round" stroke-linejoin="round"/>
</svg>
