<svg xmlns="http://www.w3.org/2000/svg" width="1024" height="1024" viewBox="0 0 1024 1024">
<g>
<path d="M 714.50 313.00 C707.76,315.32 698.60,315.52 692.10,313.49 C685.52,311.44 677.60,305.52 673.53,299.60 C667.18,290.39 667.00,288.95 667.00,246.93 C667.00,213.02 667.19,208.57 668.85,203.24 C671.35,195.21 676.10,188.61 682.33,184.53 C701.23,172.14 725.25,178.28 735.68,198.16 C738.39,203.33 738.49,204.11 738.99,222.50 C739.27,232.95 739.27,251.85 738.99,264.50 L 738.48 287.50 L 735.35 294.00 C730.57,303.90 724.28,309.64 714.50,313.00 ZM 333.42 312.15 C327.38,314.84 315.34,315.60 309.50,313.66 C298.60,310.04 290.90,303.28 286.16,293.18 L 283.50 287.50 L 283.52 247.00 C283.53,207.15 283.57,206.41 285.82,200.80 C292.89,183.17 312.27,174.24 331.08,179.95 C337.39,181.87 339.16,182.98 344.51,188.33 C349.03,192.86 351.28,196.10 352.96,200.50 C355.20,206.40 355.23,207.16 355.11,245.63 C355.01,275.81 354.66,285.82 353.59,289.37 C350.45,299.80 343.48,307.68 333.42,312.15 Z" fill="rgb(36,51,79)"/>
<path d="M 714.50 313.00 C724.28,309.64 730.57,303.90 735.35,294.00 L 738.48 287.50 L 738.99 264.50 C739.27,251.85 739.27,232.95 738.99,222.50 L 739.50 241.50 L 754.00 242.13 C770.10,242.83 776.71,244.28 787.91,249.56 C801.90,256.16 812.94,265.67 821.40,278.41 C826.20,285.65 829.33,292.81 832.48,303.76 L 835.02 312.58 L 834.50 400.50 L 186.00 401.00 L 185.91 396.25 C184.85,339.73 185.78,310.88 189.02,300.50 C198.15,271.23 221.73,249.64 251.21,243.58 C255.71,242.66 263.87,242.00 270.81,242.00 L 282.71 242.00 L 283.25 224.25 C283.36,220.40 283.51,217.09 283.71,214.19 C283.53,220.39 283.52,230.23 283.52,247.00 L 283.50 287.50 L 286.16 293.18 C290.90,303.28 298.60,310.04 309.50,313.66 C315.34,315.60 327.38,314.84 333.42,312.15 C343.48,307.68 350.45,299.80 353.59,289.37 C354.66,285.82 355.01,275.81 355.11,245.63 C355.16,229.68 355.18,220.21 355.04,214.17 C355.17,216.97 355.24,220.18 355.28,223.88 L 355.50 241.50 L 666.50 241.50 L 667.07 223.50 C667.08,223.17 667.09,222.85 667.10,222.54 C667.02,228.34 667.00,236.14 667.00,246.93 C667.00,288.95 667.18,290.39 673.53,299.60 C677.60,305.52 685.52,311.44 692.10,313.49 C698.60,315.52 707.76,315.32 714.50,313.00 ZM 696.35 740.18 C693.21,743.13 689.65,744.20 686.34,743.17 C684.02,742.45 663.03,724.08 658.04,718.39 C654.05,713.84 654.01,709.84 657.92,705.92 C660.03,703.82 661.81,703.00 664.32,703.00 C667.28,703.00 669.21,704.29 677.64,711.97 C683.06,716.91 688.00,720.96 688.60,720.97 C689.21,720.99 699.30,710.66 711.03,698.01 C728.85,678.80 732.92,674.92 735.77,674.38 C739.70,673.65 743.67,675.98 745.78,680.28 C746.81,682.39 746.81,683.45 745.78,685.86 C744.69,688.40 704.76,732.28 696.35,740.18 ZM 668.30 205.22 C668.57,203.51 668.89,202.23 669.28,201.24 C671.23,196.16 674.07,191.91 677.49,188.49 C673.63,192.39 670.65,197.44 668.85,203.24 C668.64,203.90 668.46,204.54 668.30,205.22 ZM 298.79 184.60 C307.89,178.22 319.52,176.45 331.08,179.95 C319.54,176.45 307.79,178.46 298.79,184.60 ZM 353.38 201.64 C353.25,201.27 353.11,200.90 352.96,200.50 C351.28,196.10 349.03,192.86 344.51,188.33 C349.26,193.08 351.90,196.47 353.38,201.64 ZM 286.58 199.04 C287.35,197.19 288.31,195.53 289.51,193.87 C288.41,195.49 287.42,197.22 286.58,199.04 Z" fill="rgb(142,25,41)"/>
<path d="M 556.06 764.25 L 550.64 767.00 L 465.50 766.98 L 460.50 764.62 C454.49,761.78 450.82,758.04 448.08,752.00 C446.14,747.70 446.04,745.60 446.03,705.50 L 446.02 663.50 L 448.37 658.44 C451.13,652.53 457.37,646.80 462.86,645.16 C465.53,644.36 479.83,644.00 509.05,644.00 C549.89,644.00 551.52,644.07 555.67,646.08 C561.06,648.69 567.28,655.65 568.82,660.81 C570.35,665.90 570.47,743.78 568.95,749.22 C567.32,755.11 562.11,761.19 556.06,764.25 ZM 364.81 764.41 L 359.61 767.00 L 274.50 766.98 L 269.44 764.63 C263.53,761.87 257.80,755.63 256.16,750.14 C254.61,744.97 254.55,666.17 256.09,660.62 C256.69,658.45 259.15,654.62 261.66,651.94 C269.08,644.00 269.09,644.00 316.81,644.00 C345.38,644.00 359.47,644.36 362.14,645.16 C367.16,646.66 373.48,652.12 376.28,657.36 C378.46,661.42 378.51,662.34 378.79,703.37 C379.11,749.50 378.96,750.95 372.99,758.19 C371.35,760.19 367.66,762.99 364.81,764.41 ZM 363.57 586.11 C359.81,587.81 356.28,587.95 317.50,587.89 C294.40,587.86 274.37,587.48 272.99,587.07 C265.26,584.71 258.24,578.07 256.16,571.14 C255.36,568.47 255.00,554.55 255.01,526.38 C255.02,485.67 255.03,485.48 257.35,480.49 C260.11,474.57 265.12,469.88 271.14,467.59 C275.00,466.12 280.46,465.96 319.08,466.21 L 362.66 466.50 L 367.55 469.53 C370.58,471.40 373.60,474.42 375.47,477.45 L 378.50 482.34 L 378.78 525.16 C379.06,567.13 379.02,568.09 376.90,573.00 C374.50,578.60 369.68,583.33 363.57,586.11 ZM 555.50 585.65 C550.50,587.98 550.47,587.98 508.50,587.92 C461.75,587.85 461.53,587.83 454.64,581.22 C452.91,579.56 451.58,578.32 450.55,576.87 C447.04,571.92 447.04,564.50 447.04,529.82 L 447.04 527.50 C447.04,487.39 447.14,485.30 449.08,481.00 C451.82,474.96 455.49,471.22 461.50,468.38 L 466.50 466.02 L 508.78 466.01 C554.34,466.00 554.38,466.00 561.47,471.41 C563.17,472.70 565.89,476.18 567.53,479.13 L 570.50 484.50 L 570.50 526.00 C570.50,558.59 570.21,568.33 569.13,571.38 C567.21,576.81 561.40,582.89 555.50,585.65 ZM 745.24 586.81 C740.74,588.16 661.34,588.39 656.99,587.07 C652.26,585.63 648.29,583.10 645.15,579.51 C643.92,578.12 642.94,577.01 642.15,575.78 C639.00,570.84 639.00,563.89 639.02,528.06 L 639.02 527.13 C639.04,487.43 639.14,485.29 641.08,481.00 C643.93,474.68 648.51,470.33 654.74,468.00 C659.75,466.12 662.54,466.00 700.67,466.00 C728.89,466.00 742.46,466.36 745.19,467.18 C750.47,468.76 757.31,474.96 760.17,480.76 C762.50,485.49 762.50,485.57 762.50,526.50 C762.50,563.77 762.33,567.93 760.68,572.22 C758.46,577.96 750.89,585.12 745.24,586.81 ZM 679.94 186.28 C680.71,185.65 681.50,185.07 682.33,184.53 C701.23,172.14 725.25,178.28 735.68,198.16 C724.10,176.08 696.62,172.53 679.94,186.28 Z" fill="rgb(182,169,160)"/>
<path d="M 746.88 772.44 C742.49,773.75 734.96,773.99 700.57,773.93 C658.39,773.86 655.97,773.67 648.37,769.70 C644.50,767.69 640.27,762.78 637.87,757.50 C636.19,753.82 636.04,749.92 636.04,708.50 C636.04,667.08 636.19,663.18 637.87,659.50 C640.66,653.38 644.90,648.95 650.46,646.37 L 655.50 644.02 L 700.00 644.02 C728.56,644.01 745.88,644.39 748.35,645.08 C753.03,646.38 760.38,652.94 763.33,658.46 C765.47,662.44 765.50,663.24 765.50,708.50 L 765.50 754.50 L 762.81 759.08 C758.95,765.64 753.01,770.62 746.88,772.44 ZM 696.35 740.18 C704.76,732.28 744.69,688.40 745.78,685.86 C746.81,683.45 746.81,682.39 745.78,680.28 C743.67,675.98 739.70,673.65 735.77,674.38 C732.92,674.92 728.85,678.80 711.03,698.01 C699.30,710.66 689.21,720.99 688.60,720.97 C688.00,720.96 683.06,716.91 677.64,711.97 C669.21,704.29 667.28,703.00 664.32,703.00 C661.81,703.00 660.03,703.82 657.92,705.92 C654.01,709.84 654.05,713.84 658.04,718.39 C663.03,724.08 684.02,742.45 686.34,743.17 C689.65,744.20 693.21,743.13 696.35,740.18 Z" fill="rgb(197,149,90)"/>
</g>
</svg>