<svg xmlns="http://www.w3.org/2000/svg" width="1024" height="1024" viewBox="0 0 1024 1024">
<g>
<path d="M 341.25 816.77 C336.38,819.03 333.89,819.48 325.00,819.72 C315.97,819.96 313.64,819.68 308.33,817.66 C291.02,811.07 279.25,797.53 276.04,780.50 C275.21,776.10 274.99,705.69 275.21,517.00 L 275.51 259.50 L 277.82 252.00 C282.46,236.99 290.45,222.51 300.13,211.57 C310.53,199.81 330.49,187.49 346.46,182.98 C360.42,179.04 369.00,178.86 520.50,179.25 C652.70,179.59 667.14,179.78 673.23,181.29 C706.49,189.54 734.00,214.12 744.50,244.99 C745.13,246.85 745.69,248.32 746.19,249.81 C750.02,261.28 750.02,274.03 749.99,479.66 C749.99,492.76 749.98,506.65 749.98,521.36 C749.98,534.02 749.98,546.06 749.98,557.52 C749.98,772.43 749.98,782.30 746.00,790.15 C745.59,790.95 745.15,791.72 744.66,792.69 C738.40,805.04 727.60,814.24 714.81,818.13 C705.07,821.09 691.91,820.51 683.79,816.78 C678.19,814.20 661.62,801.88 549.99,717.35 C537.62,707.97 525.92,699.45 523.99,698.41 C519.19,695.81 505.98,695.81 501.06,698.42 C498.02,700.04 465.21,724.63 373.75,793.86 C359.03,805.00 344.41,815.31 341.25,816.77 ZM 468.10 563.25 C474.71,566.80 483.77,567.06 490.49,563.90 C494.89,561.83 511.68,544.40 591.51,459.00 C603.59,446.08 621.47,427.04 631.24,416.71 C641.01,406.37 649.98,396.02 651.18,393.71 C654.59,387.12 654.27,377.91 650.40,371.05 C644.57,360.74 633.78,356.16 622.82,359.36 C619.69,360.27 615.68,362.24 613.91,363.73 C610.41,366.67 566.26,413.36 513.13,470.28 L 479.76 506.03 L 475.13 501.81 C472.58,499.48 457.38,484.77 441.33,469.12 C425.29,453.46 410.47,439.63 408.39,438.37 C406.32,437.12 402.28,435.80 399.42,435.45 C379.54,432.96 364.93,453.21 373.90,470.80 C376.90,476.68 461.51,559.72 468.10,563.25 Z" fill="rgb(137,27,43)"/>
<path d="M 468.10 563.25 C461.51,559.72 376.90,476.68 373.90,470.80 C364.93,453.21 379.54,432.96 399.42,435.45 C402.28,435.80 406.32,437.12 408.39,438.37 C410.47,439.63 425.29,453.46 441.33,469.12 C457.38,484.77 472.58,499.48 475.13,501.81 L 479.76 506.03 L 513.13 470.28 C566.26,413.36 610.41,366.67 613.91,363.73 C615.68,362.24 619.69,360.27 622.82,359.36 C633.78,356.16 644.57,360.74 650.40,371.05 C654.27,377.91 654.59,387.12 651.18,393.71 C649.98,396.02 641.01,406.37 631.24,416.71 C621.47,427.04 603.59,446.08 591.51,459.00 C511.68,544.40 494.89,561.83 490.49,563.90 C483.77,567.06 474.71,566.80 468.10,563.25 Z" fill="rgb(198,151,95)"/>

</g>
</svg>