<svg xmlns="http://www.w3.org/2000/svg" width="512" height="512" viewBox="0 0 512 512" fill="none">
  <path d="M 162 99 L 140 131 L 143 400 L 156 410 L 170 410 L 249 351 L 262 349 L 342 409 L 365 407 L 375 393 L 375 131 L 367 112 L 334 92 L 181 92 Z M 329 190 L 328 199 L 246 285 L 233 283 L 186 234 L 187 226 L 191 221 L 197 218 L 204 219 L 242 253 L 310 181 L 320 180 Z" fill="#891c2b" fill-rule="evenodd"/>
  <path d="M 329 190 L 328 199 L 246 285 L 233 283 L 186 234 L 187 226 L 191 221 L 197 218 L 204 219 L 242 253 L 310 181 L 320 180 Z" fill="#891c2b" fill-rule="evenodd"/>
  <path d="M 327 188 L 318 181 L 309 183 L 242 255 L 203 220 L 192 222 L 188 228 L 188 235 L 234 282 L 238 284 L 247 283 L 326 200 Z" fill="#c6985c" fill-rule="evenodd"/>
  <path d="M 41 105 L 41 116 L 52 116 L 54 125 L 52 130 L 41 130 L 41 142 L 52 142 L 53 154 L 65 154 L 66 142 L 78 142 L 79 154 L 90 154 L 90 143 L 78 142 L 78 130 L 90 129 L 90 117 L 79 117 L 78 105 L 66 105 L 65 117 L 53 117 L 52 105 Z M 52 130 L 65 129 L 66 142 L 53 143 Z M 65 117 L 78 116 L 79 129 L 66 130 Z" fill="#fefefe" fill-rule="evenodd"/>
  <path d="M 105 41 L 105 52 L 117 53 L 117 65 L 105 66 L 105 77 L 117 79 L 117 90 L 129 90 L 129 79 L 138 77 L 143 79 L 143 90 L 154 90 L 154 79 L 142 78 L 142 66 L 154 65 L 154 53 L 143 53 L 142 41 L 130 41 L 129 53 L 117 53 L 116 41 Z M 116 66 L 129 65 L 130 78 L 117 79 Z M 129 53 L 142 52 L 143 65 L 130 66 Z" fill="#fefefe" fill-rule="evenodd"/>
  <path d="M 53 169 L 53 180 L 41 181 L 41 193 L 53 194 L 53 206 L 41 207 L 41 218 L 52 218 L 53 206 L 65 206 L 66 218 L 78 218 L 78 207 L 90 206 L 90 194 L 78 193 L 78 181 L 90 180 L 90 169 L 79 169 L 79 180 L 72 182 L 65 180 L 65 169 Z M 65 194 L 78 193 L 79 206 L 66 207 Z M 52 181 L 65 180 L 66 193 L 53 194 Z" fill="#fefefe" fill-rule="evenodd"/>
  <path d="M 41 41 L 41 52 L 52 52 L 54 58 L 52 66 L 41 66 L 41 78 L 52 78 L 54 90 L 65 90 L 66 78 L 78 78 L 79 90 L 90 90 L 90 79 L 78 78 L 78 66 L 90 65 L 90 53 L 79 53 L 78 41 L 66 41 L 65 53 L 53 53 L 52 41 Z M 52 66 L 65 65 L 66 78 L 53 79 Z M 65 53 L 78 52 L 79 65 L 66 66 Z" fill="#efefef" fill-rule="evenodd"/>
  <path d="M 437 425 L 437 436 L 432 438 L 425 437 L 425 449 L 437 450 L 437 462 L 425 463 L 425 474 L 436 474 L 437 462 L 449 462 L 450 474 L 462 474 L 462 463 L 474 462 L 474 450 L 462 449 L 462 437 L 474 436 L 474 425 L 463 425 L 463 436 L 457 438 L 449 436 L 449 425 Z M 449 450 L 462 449 L 463 462 L 450 463 Z M 436 437 L 449 436 L 450 449 L 437 450 Z" fill="#fefefe" fill-rule="evenodd"/>
  <path d="M 117 41 L 117 52 L 105 53 L 105 65 L 117 66 L 117 78 L 105 79 L 105 90 L 116 90 L 117 78 L 129 78 L 130 90 L 141 90 L 141 81 L 143 78 L 154 78 L 154 66 L 142 65 L 142 53 L 154 52 L 154 41 L 143 41 L 142 53 L 130 53 L 129 41 Z M 129 66 L 142 65 L 143 78 L 130 79 Z M 116 53 L 129 52 L 130 65 L 117 66 Z" fill="#efefef" fill-rule="evenodd"/>
  <path d="M 233 41 L 233 52 L 245 53 L 245 65 L 233 66 L 233 77 L 244 78 L 246 90 L 251 90 L 252 88 L 257 90 L 257 79 L 265 77 L 271 79 L 271 90 L 282 90 L 282 79 L 270 78 L 270 66 L 282 65 L 282 53 L 271 53 L 270 41 L 258 41 L 257 53 L 245 53 L 244 41 Z M 244 66 L 257 65 L 258 78 L 245 79 Z M 257 53 L 270 52 L 271 65 L 258 66 Z" fill="#fefefe" fill-rule="evenodd"/>
  <path d="M 53 233 L 53 244 L 66 245 L 66 257 L 53 258 L 52 246 L 41 245 L 41 257 L 52 257 L 54 270 L 66 271 L 66 283 L 53 284 L 52 271 L 41 271 L 41 282 L 52 283 L 54 295 L 65 295 L 66 283 L 78 283 L 79 295 L 90 295 L 90 284 L 78 283 L 78 271 L 90 270 L 90 258 L 79 258 L 78 246 L 65 244 L 65 233 Z M 65 258 L 78 257 L 79 270 L 66 271 Z" fill="#efefef" fill-rule="evenodd"/>
  <path d="M 130 425 L 130 436 L 124 438 L 117 438 L 116 450 L 105 450 L 105 462 L 116 462 L 117 474 L 129 474 L 130 462 L 142 462 L 143 474 L 154 474 L 154 463 L 142 462 L 142 450 L 154 449 L 154 437 L 143 437 L 142 425 Z M 116 450 L 129 449 L 130 462 L 117 463 Z M 129 437 L 142 436 L 143 449 L 130 450 Z" fill="#fefefe" fill-rule="evenodd"/>
  <path d="M 374 41 L 374 50 L 372 53 L 361 53 L 361 65 L 372 65 L 374 69 L 374 77 L 381 77 L 386 79 L 386 90 L 398 90 L 398 79 L 410 78 L 410 66 L 398 65 L 398 53 L 410 52 L 410 41 L 399 41 L 398 53 L 386 53 L 385 41 Z M 385 66 L 398 65 L 399 78 L 386 79 Z M 372 53 L 385 52 L 386 65 L 373 66 Z" fill="#efefef" fill-rule="evenodd"/>
  <path d="M 245 41 L 245 52 L 233 53 L 233 65 L 244 65 L 245 77 L 257 78 L 258 89 L 269 89 L 271 78 L 282 77 L 282 66 L 270 65 L 270 53 L 282 52 L 282 41 L 271 41 L 270 53 L 258 53 L 257 41 Z M 257 66 L 270 65 L 271 78 L 258 79 Z M 244 53 L 257 52 L 258 65 L 245 66 Z" fill="#efefef" fill-rule="evenodd"/>
  <path d="M 54 105 L 54 114 L 52 117 L 41 117 L 41 129 L 52 129 L 54 135 L 54 142 L 66 143 L 66 154 L 78 154 L 78 143 L 83 141 L 90 141 L 90 130 L 78 129 L 78 117 L 90 116 L 90 105 L 79 105 L 78 117 L 66 117 L 65 105 Z M 65 130 L 78 129 L 79 142 L 66 143 Z M 52 117 L 65 116 L 66 129 L 53 130 Z" fill="#efefef" fill-rule="evenodd"/>
  <path d="M 425 233 L 425 244 L 436 244 L 438 257 L 450 258 L 449 271 L 437 271 L 436 258 L 425 258 L 425 270 L 436 270 L 438 275 L 437 282 L 449 282 L 450 270 L 462 270 L 463 282 L 474 282 L 474 271 L 462 270 L 462 258 L 474 257 L 474 245 L 463 245 L 462 233 L 450 233 L 449 245 L 437 245 L 436 233 Z M 449 245 L 462 244 L 463 257 L 450 258 Z" fill="#fefefe" fill-rule="evenodd"/>
  <path d="M 54 41 L 52 53 L 41 53 L 41 65 L 53 66 L 53 78 L 41 79 L 41 90 L 52 90 L 53 78 L 65 78 L 66 90 L 78 90 L 78 79 L 65 78 L 65 66 L 78 65 L 79 77 L 90 78 L 90 66 L 78 65 L 78 53 L 90 52 L 90 41 L 79 41 L 78 53 L 66 53 L 65 41 Z M 52 53 L 65 52 L 66 65 L 53 66 Z" fill="#fefefe" fill-rule="evenodd"/>
  <path d="M 437 169 L 438 180 L 450 181 L 450 193 L 437 194 L 436 181 L 425 181 L 425 193 L 437 194 L 437 206 L 425 207 L 425 218 L 436 218 L 437 206 L 449 206 L 450 218 L 462 218 L 462 207 L 474 206 L 474 194 L 462 193 L 462 181 L 474 180 L 474 169 L 463 169 L 462 181 L 450 181 L 449 169 Z M 449 194 L 462 193 L 463 206 L 450 207 Z" fill="#fefefe" fill-rule="evenodd"/>
  <path d="M 425 105 L 425 116 L 437 117 L 437 129 L 425 130 L 425 142 L 436 141 L 437 129 L 449 129 L 450 142 L 438 143 L 438 154 L 449 154 L 450 142 L 462 142 L 463 154 L 474 154 L 474 143 L 462 142 L 462 130 L 474 129 L 474 117 L 463 117 L 462 105 L 450 105 L 449 117 L 437 117 L 436 105 Z M 449 117 L 462 116 L 463 129 L 450 130 Z" fill="#fefefe" fill-rule="evenodd"/>
  <path d="M 53 425 L 53 436 L 66 437 L 66 449 L 53 450 L 52 438 L 41 438 L 41 449 L 53 450 L 53 462 L 41 463 L 41 474 L 52 474 L 53 462 L 65 462 L 66 474 L 78 474 L 78 463 L 90 462 L 90 450 L 78 449 L 78 437 L 90 436 L 90 425 L 79 425 L 79 436 L 73 438 L 65 436 L 65 425 Z M 65 450 L 78 449 L 79 462 L 66 463 Z" fill="#fefefe" fill-rule="evenodd"/>
  <path d="M 309 425 L 309 436 L 306 438 L 297 437 L 297 449 L 308 449 L 309 436 L 321 436 L 322 449 L 310 450 L 309 462 L 297 463 L 297 474 L 308 474 L 309 462 L 321 462 L 322 474 L 334 474 L 334 463 L 346 462 L 346 450 L 334 449 L 334 437 L 346 436 L 346 425 L 335 425 L 335 436 L 330 438 L 321 436 L 321 425 Z M 321 450 L 334 449 L 335 462 L 322 463 Z" fill="#fefefe" fill-rule="evenodd"/>
  <path d="M 41 361 L 41 372 L 53 373 L 53 385 L 41 386 L 41 398 L 52 398 L 53 410 L 65 410 L 66 398 L 78 398 L 79 410 L 90 410 L 90 399 L 78 398 L 78 386 L 90 385 L 90 374 L 78 372 L 78 361 L 66 361 L 66 372 L 79 373 L 78 386 L 66 386 L 65 374 L 53 373 L 52 361 Z M 52 386 L 65 385 L 66 398 L 53 399 Z" fill="#fefefe" fill-rule="evenodd"/>
  <path d="M 425 41 L 425 52 L 436 52 L 438 56 L 436 66 L 425 66 L 425 78 L 436 77 L 437 65 L 449 65 L 450 78 L 438 79 L 437 90 L 449 90 L 450 78 L 462 78 L 463 90 L 474 90 L 474 79 L 462 78 L 462 66 L 474 65 L 474 53 L 463 53 L 462 41 L 450 41 L 449 53 L 437 53 L 436 41 Z M 449 53 L 462 52 L 463 65 L 450 66 Z" fill="#efefef" fill-rule="evenodd"/>
  <path d="M 425 246 L 425 257 L 437 258 L 437 270 L 425 271 L 425 283 L 436 282 L 437 270 L 449 270 L 450 282 L 462 283 L 463 295 L 474 295 L 474 284 L 462 283 L 462 271 L 474 270 L 474 258 L 462 257 L 462 245 L 474 244 L 474 233 L 463 233 L 463 244 L 459 246 L 450 246 L 449 258 L 437 258 L 436 246 Z M 449 258 L 462 257 L 463 270 L 450 271 Z" fill="#efefef" fill-rule="evenodd"/>
  <path d="M 310 41 L 308 53 L 297 53 L 297 65 L 308 65 L 310 70 L 308 79 L 297 79 L 297 90 L 308 90 L 308 79 L 321 77 L 322 65 L 334 65 L 335 78 L 322 79 L 323 90 L 333 90 L 335 78 L 346 78 L 346 66 L 334 65 L 334 53 L 346 52 L 346 41 L 335 41 L 334 53 L 322 53 L 321 41 Z M 308 53 L 321 52 L 322 65 L 309 66 Z" fill="#fefefe" fill-rule="evenodd"/>
  <path d="M 322 41 L 322 52 L 310 53 L 309 65 L 297 66 L 297 77 L 308 78 L 308 66 L 321 65 L 322 77 L 334 78 L 335 90 L 346 90 L 346 79 L 334 78 L 334 66 L 347 65 L 349 78 L 359 78 L 359 66 L 348 66 L 346 53 L 334 52 L 334 41 Z M 321 53 L 334 52 L 335 65 L 322 66 Z" fill="#efefef" fill-rule="evenodd"/>
  <path d="M 66 233 L 66 244 L 54 245 L 52 258 L 41 258 L 41 270 L 52 270 L 53 257 L 65 257 L 66 270 L 54 271 L 53 282 L 65 282 L 66 270 L 78 270 L 79 282 L 90 282 L 90 271 L 78 270 L 78 258 L 90 257 L 90 245 L 79 245 L 78 233 Z M 65 245 L 78 244 L 79 257 L 66 258 Z" fill="#fefefe" fill-rule="evenodd"/>
  <path d="M 450 169 L 450 180 L 463 181 L 463 193 L 450 194 L 449 182 L 438 181 L 437 193 L 425 194 L 425 206 L 436 206 L 437 218 L 449 218 L 450 206 L 462 206 L 463 218 L 474 218 L 474 207 L 462 206 L 462 194 L 474 193 L 474 182 L 462 180 L 462 169 Z M 436 194 L 449 193 L 450 206 L 437 207 Z" fill="#efefef" fill-rule="evenodd"/>
  <path d="M 437 41 L 438 52 L 450 53 L 450 65 L 437 66 L 436 53 L 425 53 L 425 65 L 436 65 L 438 78 L 450 79 L 450 90 L 462 90 L 462 79 L 474 78 L 474 66 L 462 65 L 462 53 L 474 52 L 474 41 L 463 41 L 463 52 L 458 54 L 449 52 L 449 41 Z M 449 66 L 462 65 L 463 78 L 450 79 Z" fill="#fefefe" fill-rule="evenodd"/>
  <path d="M 386 41 L 386 52 L 382 54 L 374 53 L 373 56 L 374 65 L 386 66 L 386 78 L 373 79 L 372 66 L 361 66 L 361 78 L 372 78 L 374 81 L 373 90 L 385 90 L 385 79 L 392 77 L 399 79 L 399 90 L 410 90 L 410 79 L 398 78 L 398 66 L 410 65 L 410 53 L 399 53 L 398 41 Z M 385 53 L 398 52 L 399 65 L 386 66 Z" fill="#fefefe" fill-rule="evenodd"/>
  <path d="M 438 105 L 436 117 L 425 117 L 425 129 L 436 129 L 438 132 L 438 142 L 449 141 L 450 129 L 462 129 L 463 142 L 450 143 L 450 154 L 462 154 L 462 143 L 466 141 L 474 141 L 474 130 L 462 129 L 462 117 L 474 116 L 474 105 L 463 105 L 462 117 L 450 117 L 449 105 Z M 436 117 L 449 116 L 450 129 L 437 130 Z" fill="#efefef" fill-rule="evenodd"/>
  <path d="M 386 425 L 386 436 L 382 438 L 373 438 L 374 445 L 372 450 L 361 450 L 361 462 L 372 462 L 373 449 L 385 449 L 386 462 L 374 463 L 374 474 L 385 474 L 386 462 L 398 462 L 399 474 L 410 474 L 410 463 L 398 462 L 398 450 L 410 449 L 410 437 L 399 437 L 398 425 Z M 385 437 L 398 436 L 399 449 L 386 450 Z" fill="#fefefe" fill-rule="evenodd"/>
  <path d="M 233 425 L 233 436 L 245 437 L 245 449 L 233 450 L 233 462 L 244 462 L 245 474 L 257 474 L 258 462 L 270 462 L 271 474 L 282 474 L 282 463 L 270 462 L 270 450 L 282 449 L 282 437 L 271 438 L 270 450 L 258 450 L 257 438 L 245 437 L 244 425 Z M 244 450 L 257 449 L 258 462 L 245 463 Z" fill="#fefefe" fill-rule="evenodd"/>
  <path d="M 450 425 L 450 436 L 463 437 L 463 449 L 450 450 L 449 438 L 438 438 L 436 450 L 425 450 L 425 462 L 436 462 L 438 474 L 449 474 L 450 462 L 462 462 L 463 474 L 474 474 L 474 463 L 462 462 L 462 450 L 474 449 L 474 438 L 462 436 L 462 425 Z M 436 450 L 449 449 L 450 462 L 437 463 Z" fill="#efefef" fill-rule="evenodd"/>
  <path d="M 90 297 L 79 297 L 79 308 L 75 310 L 66 310 L 65 322 L 53 322 L 52 310 L 41 310 L 41 321 L 53 322 L 53 334 L 41 335 L 41 346 L 51 347 L 53 334 L 65 334 L 66 346 L 78 346 L 78 335 L 90 334 L 90 322 L 78 321 L 78 309 L 90 308 Z M 65 322 L 78 321 L 79 334 L 66 335 Z" fill="#fefefe" fill-rule="evenodd"/>
  <path d="M 218 425 L 207 425 L 207 436 L 202 438 L 194 438 L 193 450 L 181 450 L 180 437 L 169 437 L 169 449 L 180 449 L 182 454 L 180 463 L 169 463 L 169 474 L 180 474 L 181 462 L 193 462 L 194 474 L 206 474 L 206 463 L 218 462 L 218 450 L 206 449 L 206 437 L 218 436 Z M 193 450 L 206 449 L 207 462 L 194 463 Z" fill="#fefefe" fill-rule="evenodd"/>
  <path d="M 322 425 L 322 436 L 335 437 L 335 449 L 322 450 L 321 438 L 310 438 L 310 449 L 322 450 L 322 462 L 309 463 L 308 450 L 297 450 L 297 462 L 308 462 L 309 474 L 321 474 L 322 462 L 334 462 L 335 474 L 346 474 L 348 462 L 359 462 L 359 450 L 348 450 L 347 463 L 335 463 L 334 450 L 346 449 L 346 438 L 334 436 L 334 425 Z" fill="#efefef" fill-rule="evenodd"/>
  <path d="M 181 41 L 181 52 L 169 53 L 169 65 L 180 65 L 182 77 L 194 79 L 194 90 L 205 90 L 206 79 L 194 79 L 193 66 L 205 65 L 206 53 L 218 52 L 218 41 L 207 41 L 206 53 L 194 53 L 193 41 Z M 180 53 L 193 52 L 194 65 L 181 66 Z" fill="#fefefe" fill-rule="evenodd"/>
  <path d="M 426 309 L 425 321 L 436 321 L 438 334 L 450 335 L 450 347 L 437 348 L 437 359 L 449 359 L 449 348 L 453 346 L 462 346 L 463 334 L 474 334 L 474 322 L 463 322 L 462 310 L 450 310 L 449 322 L 437 322 L 436 310 Z M 449 322 L 462 321 L 463 334 L 450 335 Z" fill="#fefefe" fill-rule="evenodd"/>
  <path d="M 169 41 L 169 52 L 181 53 L 181 65 L 169 66 L 169 78 L 180 77 L 181 65 L 193 65 L 195 78 L 205 77 L 207 65 L 218 65 L 218 53 L 207 53 L 206 41 L 194 41 L 193 53 L 181 53 L 180 41 Z M 193 53 L 206 52 L 207 65 L 194 66 Z" fill="#efefef" fill-rule="evenodd"/>
  <path d="M 425 386 L 425 398 L 436 398 L 438 402 L 437 410 L 449 410 L 450 398 L 462 398 L 463 410 L 474 410 L 474 399 L 462 398 L 462 386 L 474 385 L 473 373 L 463 374 L 462 386 L 450 386 L 449 374 L 444 373 L 437 374 L 436 386 Z M 436 386 L 449 385 L 450 398 L 437 399 Z" fill="#fefefe" fill-rule="evenodd"/>
  <path d="M 282 386 L 271 386 L 270 374 L 258 374 L 257 386 L 245 386 L 244 374 L 233 374 L 233 385 L 245 386 L 245 398 L 233 399 L 233 410 L 244 410 L 245 398 L 257 398 L 258 410 L 270 410 L 270 399 L 282 398 Z M 257 386 L 270 385 L 271 398 L 258 399 Z" fill="#fefefe" fill-rule="evenodd"/>
  <path d="M 233 438 L 233 449 L 245 450 L 245 462 L 233 463 L 233 474 L 244 474 L 245 462 L 257 462 L 258 474 L 270 474 L 270 463 L 282 462 L 282 450 L 271 450 L 270 438 L 258 438 L 257 450 L 245 450 L 244 438 Z M 257 450 L 270 449 L 271 462 L 258 463 Z" fill="#efefef" fill-rule="evenodd"/>
  <path d="M 233 386 L 233 398 L 244 398 L 245 410 L 257 410 L 258 398 L 270 398 L 271 410 L 282 410 L 282 399 L 270 398 L 270 386 L 282 385 L 282 374 L 271 374 L 270 386 L 258 386 L 257 374 L 245 374 L 245 385 Z M 244 386 L 257 385 L 258 398 L 245 399 Z" fill="#efefef" fill-rule="evenodd"/>
  <path d="M 105 438 L 105 449 L 117 450 L 117 462 L 105 463 L 105 474 L 116 474 L 117 462 L 129 462 L 130 474 L 141 474 L 141 466 L 143 462 L 154 462 L 154 450 L 143 450 L 141 446 L 142 438 L 130 438 L 129 450 L 117 450 L 116 438 Z M 129 450 L 142 449 L 143 462 L 130 463 Z" fill="#efefef" fill-rule="evenodd"/>
  <path d="M 117 105 L 117 116 L 105 117 L 105 129 L 117 130 L 117 142 L 105 143 L 105 154 L 116 154 L 117 142 L 129 142 L 130 154 L 138 154 L 138 143 L 129 142 L 129 130 L 139 129 L 138 124 L 142 119 L 141 117 L 129 116 L 129 105 Z M 116 117 L 129 116 L 130 129 L 117 130 Z" fill="#fefefe" fill-rule="evenodd"/>
  <path d="M 66 169 L 66 180 L 79 181 L 79 193 L 66 194 L 65 182 L 54 181 L 54 193 L 66 194 L 66 206 L 53 207 L 52 194 L 41 194 L 41 206 L 52 206 L 54 213 L 53 218 L 65 218 L 66 206 L 78 206 L 79 218 L 90 218 L 90 207 L 78 206 L 78 194 L 90 193 L 90 182 L 78 180 L 78 169 Z" fill="#efefef" fill-rule="evenodd"/>
  <path d="M 105 105 L 105 116 L 117 117 L 117 129 L 105 130 L 105 141 L 116 142 L 118 154 L 129 154 L 129 143 L 137 141 L 137 130 L 129 129 L 129 117 L 141 116 L 142 105 L 130 105 L 129 117 L 117 117 L 116 105 Z M 116 130 L 129 129 L 130 142 L 117 143 Z" fill="#efefef" fill-rule="evenodd"/>
  <path d="M 41 322 L 41 334 L 52 334 L 53 321 L 66 322 L 66 334 L 54 335 L 53 347 L 41 348 L 41 359 L 52 359 L 52 348 L 65 346 L 66 334 L 78 334 L 79 346 L 90 346 L 90 335 L 78 334 L 78 322 L 90 321 L 90 310 L 79 310 L 78 322 L 66 322 L 65 310 L 53 310 L 53 321 Z" fill="#efefef" fill-rule="evenodd"/>
  <path d="M 117 233 L 117 244 L 105 246 L 105 257 L 117 258 L 117 270 L 105 271 L 105 282 L 116 282 L 117 270 L 129 270 L 130 282 L 138 282 L 138 271 L 129 270 L 129 258 L 138 257 L 138 255 L 136 254 L 136 249 L 138 248 L 138 245 L 129 244 L 129 233 Z M 116 245 L 129 244 L 130 257 L 117 258 Z" fill="#fefefe" fill-rule="evenodd"/>
  <path d="M 378 233 L 378 244 L 386 245 L 386 257 L 378 258 L 378 270 L 386 271 L 386 282 L 398 282 L 398 271 L 410 270 L 410 258 L 398 257 L 398 245 L 410 244 L 410 233 L 399 233 L 398 245 L 386 245 L 385 233 Z M 385 258 L 398 257 L 399 270 L 386 271 Z" fill="#fefefe" fill-rule="evenodd"/>
  <path d="M 105 233 L 105 244 L 116 244 L 118 249 L 116 258 L 105 258 L 105 270 L 116 270 L 118 276 L 117 282 L 129 282 L 129 271 L 137 270 L 137 259 L 129 257 L 129 245 L 137 244 L 137 233 L 130 233 L 129 245 L 117 245 L 116 233 Z M 116 258 L 129 257 L 131 264 L 130 270 L 117 271 Z" fill="#efefef" fill-rule="evenodd"/>
  <path d="M 41 374 L 41 385 L 52 385 L 54 398 L 66 399 L 66 410 L 78 410 L 78 399 L 90 398 L 90 386 L 79 386 L 78 374 L 66 374 L 65 386 L 53 386 L 52 374 Z M 65 386 L 78 385 L 79 398 L 66 399 Z" fill="#efefef" fill-rule="evenodd"/>
  <path d="M 386 233 L 386 244 L 377 245 L 379 257 L 386 258 L 386 270 L 377 272 L 377 282 L 385 282 L 386 270 L 398 270 L 399 283 L 386 284 L 386 295 L 398 295 L 398 284 L 410 282 L 410 271 L 398 270 L 398 258 L 410 257 L 410 246 L 399 246 L 398 258 L 386 258 L 385 245 L 398 244 L 398 233 Z" fill="#efefef" fill-rule="evenodd"/>
  <path d="M 41 450 L 41 462 L 52 462 L 54 474 L 65 474 L 66 462 L 78 462 L 79 474 L 90 474 L 90 463 L 78 462 L 78 450 L 90 449 L 90 438 L 79 438 L 78 450 L 66 450 L 65 438 L 54 438 L 54 449 L 66 450 L 65 463 L 53 463 L 52 450 Z" fill="#efefef" fill-rule="evenodd"/>
  <path d="M 373 105 L 374 116 L 386 117 L 386 129 L 377 130 L 379 132 L 377 135 L 378 142 L 385 141 L 386 129 L 398 129 L 399 142 L 386 143 L 386 154 L 398 154 L 398 143 L 410 142 L 410 130 L 398 129 L 398 117 L 410 116 L 410 105 L 399 105 L 398 117 L 386 117 L 385 105 Z" fill="#fefefe" fill-rule="evenodd"/>
  <path d="M 450 374 L 450 385 L 438 386 L 437 395 L 438 398 L 450 399 L 450 410 L 462 410 L 462 399 L 474 398 L 474 386 L 463 386 L 462 374 Z M 449 386 L 462 385 L 463 398 L 450 399 Z" fill="#efefef" fill-rule="evenodd"/>
  <path d="M 386 438 L 386 449 L 374 450 L 374 462 L 385 462 L 386 474 L 398 474 L 398 463 L 410 462 L 410 450 L 399 450 L 397 446 L 397 438 Z M 385 450 L 398 449 L 399 462 L 386 463 Z" fill="#efefef" fill-rule="evenodd"/>
  <path d="M 395 373 L 386 374 L 386 385 L 378 387 L 378 395 L 375 397 L 386 399 L 386 410 L 398 410 L 398 399 L 410 398 L 410 386 L 399 386 L 398 374 Z M 385 386 L 398 385 L 399 398 L 386 399 Z" fill="#fefefe" fill-rule="evenodd"/>
  <path d="M 396 181 L 386 182 L 386 193 L 377 195 L 377 206 L 386 207 L 386 218 L 398 218 L 398 207 L 410 206 L 410 194 L 399 194 L 397 189 L 398 182 Z M 385 194 L 398 193 L 399 206 L 386 207 Z" fill="#efefef" fill-rule="evenodd"/>
  <path d="M 386 169 L 386 180 L 399 181 L 399 193 L 386 194 L 385 182 L 378 182 L 378 193 L 386 194 L 386 206 L 378 207 L 378 218 L 385 218 L 386 206 L 398 206 L 399 218 L 410 218 L 410 207 L 398 206 L 398 194 L 410 193 L 410 181 L 399 181 L 398 169 Z" fill="#fefefe" fill-rule="evenodd"/>
  <path d="M 117 374 L 117 385 L 105 386 L 105 398 L 116 398 L 118 402 L 117 410 L 129 410 L 129 399 L 134 397 L 139 398 L 137 393 L 137 386 L 129 385 L 129 374 Z M 116 386 L 129 385 L 130 398 L 117 399 Z" fill="#efefef" fill-rule="evenodd"/>
  <path d="M 438 310 L 437 321 L 450 322 L 450 334 L 438 335 L 438 346 L 449 346 L 450 334 L 462 334 L 463 346 L 474 347 L 474 335 L 462 334 L 462 322 L 474 321 L 474 310 L 463 310 L 462 322 L 450 322 L 449 310 Z" fill="#efefef" fill-rule="evenodd"/>
  <path d="M 138 374 L 130 374 L 129 386 L 117 386 L 116 374 L 105 374 L 105 385 L 117 386 L 117 398 L 105 399 L 105 410 L 116 410 L 117 398 L 129 398 L 130 410 L 142 410 L 141 400 L 129 398 L 129 386 L 138 385 Z" fill="#fefefe" fill-rule="evenodd"/>
  <path d="M 105 310 L 105 321 L 116 321 L 118 325 L 116 335 L 105 335 L 105 346 L 117 348 L 117 359 L 129 359 L 129 348 L 116 347 L 116 335 L 129 334 L 130 346 L 137 346 L 137 335 L 129 334 L 129 323 L 116 321 L 116 310 Z" fill="#efefef" fill-rule="evenodd"/>
  <path d="M 398 105 L 386 105 L 386 116 L 399 117 L 398 130 L 386 130 L 385 118 L 374 117 L 377 129 L 386 130 L 386 142 L 379 143 L 379 146 L 377 147 L 377 154 L 385 154 L 386 142 L 398 141 L 399 129 L 410 129 L 410 117 L 399 117 L 397 113 Z" fill="#efefef" fill-rule="evenodd"/>
  <path d="M 379 374 L 379 380 L 377 381 L 377 385 L 386 386 L 386 398 L 375 399 L 373 410 L 385 410 L 386 398 L 398 398 L 399 410 L 410 410 L 410 399 L 398 398 L 398 386 L 410 385 L 410 374 L 399 374 L 398 386 L 386 386 L 385 374 Z" fill="#efefef" fill-rule="evenodd"/>
  <path d="M 297 26 L 308 26 L 309 14 L 321 14 L 322 26 L 334 26 L 334 15 L 346 14 L 347 0 L 335 0 L 334 15 L 322 15 L 321 0 L 309 0 L 309 14 L 297 15 Z" fill="#efefef" fill-rule="evenodd"/>
  <path d="M 26 233 L 15 233 L 14 245 L 0 245 L 0 257 L 15 258 L 15 270 L 0 271 L 0 282 L 14 282 L 14 271 L 26 270 L 26 258 L 14 257 L 14 245 L 26 244 Z" fill="#fefefe" fill-rule="evenodd"/>
  <path d="M 138 169 L 130 169 L 129 181 L 117 182 L 118 188 L 116 194 L 105 194 L 105 206 L 116 206 L 117 193 L 130 194 L 130 206 L 118 207 L 117 218 L 129 218 L 129 207 L 138 205 L 138 194 L 129 193 L 129 181 L 136 180 L 136 178 L 138 177 Z" fill="#fefefe" fill-rule="evenodd"/>
  <path d="M 26 105 L 15 105 L 14 117 L 0 117 L 0 129 L 15 130 L 15 142 L 0 143 L 0 154 L 14 154 L 14 143 L 26 142 L 26 130 L 14 129 L 14 117 L 26 116 Z" fill="#fefefe" fill-rule="evenodd"/>
  <path d="M 425 0 L 425 14 L 436 14 L 437 26 L 449 26 L 450 14 L 462 14 L 463 26 L 474 26 L 474 15 L 462 14 L 462 0 L 450 0 L 449 15 L 437 15 L 436 0 Z" fill="#fefefe" fill-rule="evenodd"/>
  <path d="M 297 0 L 297 14 L 308 14 L 309 26 L 321 26 L 322 14 L 334 14 L 335 26 L 346 26 L 346 15 L 334 14 L 334 0 L 322 0 L 321 15 L 309 15 L 308 0 Z" fill="#fefefe" fill-rule="evenodd"/>
  <path d="M 233 26 L 244 26 L 245 14 L 257 14 L 258 26 L 270 26 L 270 15 L 282 14 L 282 0 L 271 0 L 270 15 L 258 15 L 257 0 L 245 0 L 245 14 L 233 15 Z" fill="#fefefe" fill-rule="evenodd"/>
  <path d="M 169 0 L 169 14 L 180 14 L 181 26 L 193 26 L 194 14 L 206 14 L 207 26 L 218 26 L 218 15 L 206 14 L 206 0 L 194 0 L 193 15 L 181 15 L 180 0 Z" fill="#fefefe" fill-rule="evenodd"/>
  <path d="M 105 26 L 116 26 L 117 14 L 129 14 L 130 26 L 142 26 L 142 15 L 154 14 L 154 0 L 143 0 L 142 15 L 130 15 L 129 0 L 117 0 L 117 14 L 105 15 Z" fill="#fefefe" fill-rule="evenodd"/>
  <path d="M 233 0 L 233 14 L 244 14 L 245 26 L 257 26 L 258 14 L 270 14 L 271 26 L 282 26 L 282 15 L 270 14 L 270 0 L 258 0 L 257 15 L 245 15 L 244 0 Z" fill="#efefef" fill-rule="evenodd"/>
  <path d="M 41 0 L 41 14 L 52 14 L 54 26 L 65 26 L 66 14 L 78 14 L 79 26 L 90 26 L 90 15 L 78 14 L 78 0 L 66 0 L 65 15 L 53 15 L 52 0 Z" fill="#fefefe" fill-rule="evenodd"/>
  <path d="M 26 41 L 15 41 L 14 53 L 0 53 L 0 65 L 15 66 L 15 78 L 0 79 L 0 90 L 14 90 L 14 79 L 21 77 L 26 78 L 26 66 L 14 65 L 14 53 L 26 52 Z" fill="#efefef" fill-rule="evenodd"/>
  <path d="M 41 26 L 52 26 L 53 14 L 65 14 L 66 26 L 78 26 L 78 15 L 90 14 L 90 0 L 79 0 L 78 15 L 66 15 L 65 0 L 53 0 L 53 14 L 41 15 Z" fill="#efefef" fill-rule="evenodd"/>
  <path d="M 169 26 L 180 26 L 181 14 L 193 14 L 194 26 L 206 26 L 206 15 L 218 14 L 218 0 L 207 0 L 206 15 L 194 15 L 193 0 L 182 0 L 181 14 L 169 15 Z" fill="#efefef" fill-rule="evenodd"/>
  <path d="M 361 0 L 361 14 L 372 14 L 374 26 L 385 26 L 386 14 L 398 14 L 399 26 L 410 26 L 410 15 L 398 14 L 398 0 L 386 0 L 385 15 L 373 15 L 372 0 Z" fill="#efefef" fill-rule="evenodd"/>
  <path d="M 26 361 L 15 361 L 14 373 L 0 374 L 0 385 L 15 386 L 15 398 L 0 399 L 0 410 L 14 410 L 14 399 L 26 398 L 26 386 L 14 385 L 14 373 L 26 372 Z" fill="#fefefe" fill-rule="evenodd"/>
  <path d="M 182 438 L 180 450 L 169 450 L 169 462 L 180 462 L 181 449 L 193 449 L 194 462 L 182 463 L 181 465 L 182 474 L 193 474 L 193 463 L 205 462 L 205 450 L 194 450 L 193 438 Z" fill="#efefef" fill-rule="evenodd"/>
  <path d="M 425 489 L 425 500 L 436 500 L 437 511 L 449 511 L 450 500 L 462 500 L 463 511 L 474 511 L 474 501 L 462 500 L 462 489 L 450 489 L 449 501 L 437 501 L 436 489 Z" fill="#fefefe" fill-rule="evenodd"/>
  <path d="M 297 489 L 297 500 L 308 500 L 309 511 L 321 511 L 322 500 L 334 500 L 335 511 L 346 511 L 346 501 L 334 500 L 334 489 L 322 489 L 321 501 L 309 501 L 308 489 Z" fill="#fefefe" fill-rule="evenodd"/>
  <path d="M 233 511 L 244 511 L 245 500 L 257 500 L 258 511 L 270 511 L 271 500 L 282 500 L 282 489 L 271 489 L 270 501 L 258 501 L 257 489 L 245 489 L 245 500 L 233 501 Z" fill="#fefefe" fill-rule="evenodd"/>
  <path d="M 169 489 L 169 500 L 180 500 L 181 511 L 193 511 L 194 500 L 206 500 L 207 511 L 218 511 L 218 501 L 206 500 L 206 489 L 194 489 L 193 501 L 181 501 L 180 489 Z" fill="#fefefe" fill-rule="evenodd"/>
  <path d="M 105 511 L 116 511 L 117 500 L 129 500 L 130 511 L 142 511 L 143 500 L 154 500 L 154 489 L 143 489 L 142 501 L 130 501 L 129 489 L 117 489 L 117 500 L 105 501 Z" fill="#fefefe" fill-rule="evenodd"/>
  <path d="M 41 489 L 41 500 L 52 500 L 53 511 L 65 511 L 66 500 L 78 500 L 79 511 L 90 511 L 90 501 L 78 500 L 78 489 L 66 489 L 65 501 L 53 501 L 52 489 Z" fill="#fefefe" fill-rule="evenodd"/>
  <path d="M 489 169 L 489 180 L 501 181 L 501 193 L 489 194 L 489 206 L 500 206 L 501 218 L 511 218 L 511 207 L 500 206 L 500 194 L 511 193 L 511 181 L 500 180 L 500 169 Z" fill="#fefefe" fill-rule="evenodd"/>
  <path d="M 511 105 L 501 105 L 500 117 L 489 117 L 489 129 L 501 130 L 501 142 L 489 143 L 489 154 L 500 154 L 500 143 L 511 142 L 511 130 L 500 129 L 500 117 L 511 116 Z" fill="#fefefe" fill-rule="evenodd"/>
  <path d="M 489 41 L 489 52 L 501 53 L 501 65 L 489 66 L 489 78 L 500 78 L 501 90 L 511 90 L 511 79 L 500 78 L 500 66 L 511 65 L 511 53 L 500 52 L 500 41 Z" fill="#fefefe" fill-rule="evenodd"/>
  <path d="M 233 489 L 233 500 L 244 500 L 245 511 L 257 511 L 258 500 L 270 500 L 271 511 L 282 511 L 282 501 L 270 500 L 270 489 L 258 489 L 257 501 L 245 501 L 244 489 Z" fill="#efefef" fill-rule="evenodd"/>
  <path d="M 511 233 L 501 233 L 500 245 L 489 245 L 489 257 L 501 258 L 501 270 L 489 271 L 489 282 L 500 282 L 500 271 L 511 270 L 511 258 L 500 257 L 500 245 L 511 244 Z" fill="#fefefe" fill-rule="evenodd"/>
  <path d="M 361 511 L 372 511 L 373 500 L 385 500 L 386 511 L 398 511 L 399 500 L 410 500 L 410 489 L 399 489 L 398 501 L 386 501 L 385 489 L 374 489 L 372 501 L 361 501 Z" fill="#fefefe" fill-rule="evenodd"/>
  <path d="M 386 310 L 386 321 L 399 322 L 399 334 L 386 335 L 385 323 L 379 323 L 377 334 L 386 335 L 386 346 L 398 346 L 398 335 L 410 334 L 410 322 L 399 322 L 398 310 Z" fill="#efefef" fill-rule="evenodd"/>
  <path d="M 105 181 L 105 193 L 116 193 L 118 200 L 116 207 L 105 207 L 105 218 L 116 218 L 117 206 L 129 206 L 130 218 L 137 218 L 137 207 L 129 206 L 129 194 L 117 194 L 116 182 Z" fill="#efefef" fill-rule="evenodd"/>
  <path d="M 410 310 L 399 310 L 399 321 L 386 323 L 386 334 L 378 335 L 378 347 L 385 346 L 386 334 L 398 334 L 399 346 L 410 346 L 410 335 L 398 334 L 398 322 L 410 321 Z" fill="#fefefe" fill-rule="evenodd"/>
  <path d="M 0 41 L 0 52 L 15 53 L 15 65 L 0 66 L 0 78 L 14 77 L 14 66 L 26 65 L 26 53 L 15 53 L 14 41 Z" fill="#fefefe" fill-rule="evenodd"/>
  <path d="M 0 181 L 0 193 L 15 194 L 15 206 L 0 207 L 0 218 L 14 218 L 14 207 L 26 206 L 26 194 L 15 194 L 14 182 Z" fill="#efefef" fill-rule="evenodd"/>
  <path d="M 437 0 L 438 14 L 449 14 L 450 26 L 462 26 L 462 15 L 474 14 L 474 0 L 463 0 L 462 15 L 450 15 L 449 0 Z" fill="#efefef" fill-rule="evenodd"/>
  <path d="M 105 0 L 105 14 L 116 14 L 118 19 L 117 26 L 129 26 L 129 15 L 141 14 L 142 0 L 130 0 L 129 15 L 117 15 L 116 0 Z" fill="#efefef" fill-rule="evenodd"/>
  <path d="M 374 0 L 374 14 L 385 14 L 386 26 L 398 26 L 398 15 L 410 14 L 410 0 L 399 0 L 398 15 L 386 15 L 385 0 Z" fill="#fefefe" fill-rule="evenodd"/>
  <path d="M 0 105 L 0 116 L 15 117 L 15 129 L 0 130 L 0 141 L 14 141 L 14 130 L 26 129 L 26 117 L 15 117 L 14 105 Z" fill="#efefef" fill-rule="evenodd"/>
  <path d="M 0 310 L 0 321 L 15 322 L 15 334 L 0 335 L 0 346 L 14 346 L 14 335 L 26 334 L 26 322 L 15 322 L 14 310 Z" fill="#efefef" fill-rule="evenodd"/>
  <path d="M 0 438 L 0 449 L 15 450 L 15 462 L 0 463 L 0 474 L 14 474 L 14 463 L 26 462 L 26 450 L 15 450 L 13 447 L 14 438 Z" fill="#efefef" fill-rule="evenodd"/>
  <path d="M 18 181 L 15 182 L 14 194 L 0 194 L 0 206 L 14 206 L 15 218 L 26 218 L 26 207 L 14 206 L 14 194 L 26 193 L 26 181 Z" fill="#fefefe" fill-rule="evenodd"/>
  <path d="M 15 438 L 14 450 L 0 450 L 0 462 L 14 462 L 15 474 L 26 474 L 26 463 L 14 462 L 14 450 L 26 449 L 26 437 Z" fill="#fefefe" fill-rule="evenodd"/>
  <path d="M 18 245 L 15 246 L 14 258 L 0 258 L 0 270 L 14 270 L 15 282 L 26 282 L 26 271 L 14 270 L 14 258 L 26 257 L 26 245 Z" fill="#efefef" fill-rule="evenodd"/>
  <path d="M 15 310 L 14 322 L 0 322 L 0 334 L 14 334 L 15 346 L 26 347 L 26 335 L 14 334 L 14 322 L 26 321 L 26 310 Z" fill="#fefefe" fill-rule="evenodd"/>
  <path d="M 15 374 L 14 386 L 0 386 L 0 398 L 14 398 L 15 410 L 26 410 L 26 399 L 14 398 L 14 386 L 26 385 L 26 374 Z" fill="#efefef" fill-rule="evenodd"/>
  <path d="M 489 233 L 489 244 L 500 244 L 502 249 L 500 258 L 489 258 L 489 270 L 500 270 L 500 258 L 511 257 L 511 246 L 500 244 L 500 233 Z" fill="#efefef" fill-rule="evenodd"/>
  <path d="M 489 374 L 489 385 L 501 386 L 501 398 L 489 399 L 489 410 L 500 410 L 500 399 L 511 398 L 511 386 L 500 385 L 500 374 Z" fill="#fefefe" fill-rule="evenodd"/>
  <path d="M 511 437 L 501 438 L 500 450 L 489 450 L 489 462 L 500 462 L 501 474 L 511 474 L 511 463 L 500 462 L 500 450 L 511 449 Z" fill="#fefefe" fill-rule="evenodd"/>
  <path d="M 501 310 L 501 321 L 489 322 L 489 334 L 500 334 L 502 341 L 501 346 L 511 347 L 511 335 L 500 334 L 500 322 L 511 321 L 511 310 Z" fill="#fefefe" fill-rule="evenodd"/>
  <path d="M 105 322 L 105 334 L 116 334 L 118 340 L 117 346 L 129 346 L 129 335 L 136 334 L 138 322 L 130 323 L 129 335 L 117 335 L 116 323 Z" fill="#fefefe" fill-rule="evenodd"/>
  <path d="M 0 0 L 0 14 L 14 14 L 15 26 L 26 26 L 26 15 L 14 14 L 14 0 Z" fill="#efefef" fill-rule="evenodd"/>
  <path d="M 26 0 L 15 0 L 15 14 L 0 15 L 0 26 L 14 26 L 14 15 L 26 14 Z" fill="#fefefe" fill-rule="evenodd"/>
  <path d="M 0 489 L 0 500 L 14 500 L 15 511 L 26 511 L 26 501 L 18 502 L 14 500 L 14 489 Z" fill="#efefef" fill-rule="evenodd"/>
  <path d="M 297 386 L 297 398 L 308 398 L 310 402 L 309 410 L 321 410 L 321 399 L 309 399 L 308 387 Z" fill="#fefefe" fill-rule="evenodd"/>
  <path d="M 26 489 L 15 489 L 14 501 L 0 501 L 0 511 L 14 511 L 15 500 L 26 500 Z" fill="#fefefe" fill-rule="evenodd"/>
  <path d="M 489 0 L 489 14 L 500 14 L 502 20 L 501 26 L 511 26 L 511 15 L 500 14 L 500 0 Z" fill="#efefef" fill-rule="evenodd"/>
  <path d="M 511 0 L 502 0 L 500 15 L 489 15 L 489 26 L 500 26 L 500 15 L 511 14 Z" fill="#fefefe" fill-rule="evenodd"/>
  <path d="M 218 386 L 207 386 L 206 399 L 194 399 L 192 397 L 194 399 L 194 410 L 205 410 L 205 401 L 207 398 L 218 398 Z" fill="#efefef" fill-rule="evenodd"/>
  <path d="M 437 489 L 437 499 L 449 500 L 450 511 L 462 511 L 462 502 L 449 500 L 449 489 Z" fill="#efefef" fill-rule="evenodd"/>
  <path d="M 489 386 L 489 398 L 500 398 L 501 410 L 511 410 L 511 399 L 500 398 L 500 386 Z" fill="#efefef" fill-rule="evenodd"/>
  <path d="M 142 489 L 130 489 L 130 500 L 127 502 L 117 502 L 118 511 L 129 511 L 130 500 L 142 500 Z" fill="#efefef" fill-rule="evenodd"/>
  <path d="M 386 489 L 386 500 L 398 500 L 399 511 L 410 511 L 410 502 L 398 500 L 398 489 Z" fill="#efefef" fill-rule="evenodd"/>
  <path d="M 53 489 L 54 500 L 66 501 L 66 511 L 78 511 L 78 502 L 70 502 L 65 500 L 65 489 Z" fill="#efefef" fill-rule="evenodd"/>
  <path d="M 346 489 L 335 489 L 335 500 L 330 502 L 322 502 L 322 511 L 334 511 L 335 500 L 346 500 Z" fill="#efefef" fill-rule="evenodd"/>
  <path d="M 511 322 L 502 322 L 500 335 L 489 335 L 489 346 L 500 346 L 500 335 L 511 334 Z" fill="#efefef" fill-rule="evenodd"/>
  <path d="M 489 182 L 489 193 L 500 193 L 502 196 L 502 206 L 511 206 L 511 194 L 500 193 L 500 182 Z" fill="#efefef" fill-rule="evenodd"/>
  <path d="M 489 438 L 489 449 L 500 449 L 502 462 L 511 462 L 511 450 L 500 449 L 500 438 Z" fill="#efefef" fill-rule="evenodd"/>
  <path d="M 511 271 L 502 271 L 500 284 L 489 284 L 489 295 L 500 295 L 500 284 L 511 282 Z" fill="#efefef" fill-rule="evenodd"/>
  <path d="M 511 489 L 501 489 L 501 500 L 489 501 L 489 511 L 500 511 L 500 501 L 511 500 Z" fill="#fefefe" fill-rule="evenodd"/>
  <path d="M 398 297 L 386 297 L 386 308 L 378 310 L 378 321 L 385 321 L 386 308 L 398 308 Z" fill="#fefefe" fill-rule="evenodd"/>
  <path d="M 116 258 L 129 257 L 131 264 L 130 270 L 117 271 Z" fill="#efefef" fill-rule="evenodd"/>
  <path d="M 449 450 L 462 449 L 463 462 L 450 463 Z" fill="#fefefe" fill-rule="evenodd"/>
  <path d="M 436 437 L 449 436 L 450 449 L 437 450 Z" fill="#fefefe" fill-rule="evenodd"/>
  <path d="M 385 437 L 398 436 L 399 449 L 386 450 Z" fill="#fefefe" fill-rule="evenodd"/>
  <path d="M 321 450 L 334 449 L 335 462 L 322 463 Z" fill="#fefefe" fill-rule="evenodd"/>
  <path d="M 244 450 L 257 449 L 258 462 L 245 463 Z" fill="#fefefe" fill-rule="evenodd"/>
  <path d="M 193 450 L 206 449 L 207 462 L 194 463 Z" fill="#fefefe" fill-rule="evenodd"/>
  <path d="M 116 450 L 129 449 L 130 462 L 117 463 Z" fill="#fefefe" fill-rule="evenodd"/>
  <path d="M 129 437 L 142 436 L 143 449 L 130 450 Z" fill="#fefefe" fill-rule="evenodd"/>
  <path d="M 65 450 L 78 449 L 79 462 L 66 463 Z" fill="#fefefe" fill-rule="evenodd"/>
  <path d="M 436 386 L 449 385 L 450 398 L 437 399 Z" fill="#fefefe" fill-rule="evenodd"/>
  <path d="M 385 386 L 398 385 L 399 398 L 386 399 Z" fill="#fefefe" fill-rule="evenodd"/>
  <path d="M 257 386 L 270 385 L 271 398 L 258 399 Z" fill="#fefefe" fill-rule="evenodd"/>
  <path d="M 52 386 L 65 385 L 66 398 L 53 399 Z" fill="#fefefe" fill-rule="evenodd"/>
  <path d="M 449 322 L 462 321 L 463 334 L 450 335 Z" fill="#fefefe" fill-rule="evenodd"/>
  <path d="M 65 322 L 78 321 L 79 334 L 66 335 Z" fill="#fefefe" fill-rule="evenodd"/>
  <path d="M 449 245 L 462 244 L 463 257 L 450 258 Z" fill="#fefefe" fill-rule="evenodd"/>
  <path d="M 385 258 L 398 257 L 399 270 L 386 271 Z" fill="#fefefe" fill-rule="evenodd"/>
  <path d="M 116 245 L 129 244 L 130 257 L 117 258 Z" fill="#fefefe" fill-rule="evenodd"/>
  <path d="M 65 245 L 78 244 L 79 257 L 66 258 Z" fill="#fefefe" fill-rule="evenodd"/>
  <path d="M 449 194 L 462 193 L 463 206 L 450 207 Z" fill="#fefefe" fill-rule="evenodd"/>
  <path d="M 65 194 L 78 193 L 79 206 L 66 207 Z" fill="#fefefe" fill-rule="evenodd"/>
  <path d="M 52 181 L 65 180 L 66 193 L 53 194 Z" fill="#fefefe" fill-rule="evenodd"/>
  <path d="M 449 117 L 462 116 L 463 129 L 450 130 Z" fill="#fefefe" fill-rule="evenodd"/>
  <path d="M 116 117 L 129 116 L 130 129 L 117 130 Z" fill="#fefefe" fill-rule="evenodd"/>
  <path d="M 52 130 L 65 129 L 66 142 L 53 143 Z" fill="#fefefe" fill-rule="evenodd"/>
  <path d="M 65 117 L 78 116 L 79 129 L 66 130 Z" fill="#fefefe" fill-rule="evenodd"/>
  <path d="M 449 66 L 462 65 L 463 78 L 450 79 Z" fill="#fefefe" fill-rule="evenodd"/>
  <path d="M 385 53 L 398 52 L 399 65 L 386 66 Z" fill="#fefefe" fill-rule="evenodd"/>
  <path d="M 308 53 L 321 52 L 322 65 L 309 66 Z" fill="#fefefe" fill-rule="evenodd"/>
  <path d="M 244 66 L 257 65 L 258 78 L 245 79 Z" fill="#fefefe" fill-rule="evenodd"/>
  <path d="M 257 53 L 270 52 L 271 65 L 258 66 Z" fill="#fefefe" fill-rule="evenodd"/>
  <path d="M 180 53 L 193 52 L 194 65 L 181 66 Z" fill="#fefefe" fill-rule="evenodd"/>
  <path d="M 116 66 L 129 65 L 130 78 L 117 79 Z" fill="#fefefe" fill-rule="evenodd"/>
  <path d="M 129 53 L 142 52 L 143 65 L 130 66 Z" fill="#fefefe" fill-rule="evenodd"/>
  <path d="M 52 53 L 65 52 L 66 65 L 53 66 Z" fill="#fefefe" fill-rule="evenodd"/>
  <path d="M 385 450 L 398 449 L 399 462 L 386 463 Z" fill="#efefef" fill-rule="evenodd"/>
  <path d="M 129 450 L 142 449 L 143 462 L 130 463 Z" fill="#efefef" fill-rule="evenodd"/>
  <path d="M 257 450 L 270 449 L 271 462 L 258 463 Z" fill="#efefef" fill-rule="evenodd"/>
  <path d="M 436 450 L 449 449 L 450 462 L 437 463 Z" fill="#efefef" fill-rule="evenodd"/>
  <path d="M 449 386 L 462 385 L 463 398 L 450 399 Z" fill="#efefef" fill-rule="evenodd"/>
  <path d="M 244 386 L 257 385 L 258 398 L 245 399 Z" fill="#efefef" fill-rule="evenodd"/>
  <path d="M 116 386 L 129 385 L 130 398 L 117 399 Z" fill="#efefef" fill-rule="evenodd"/>
  <path d="M 65 386 L 78 385 L 79 398 L 66 399 Z" fill="#efefef" fill-rule="evenodd"/>
  <path d="M 449 258 L 462 257 L 463 270 L 450 271 Z" fill="#efefef" fill-rule="evenodd"/>
  <path d="M 65 258 L 78 257 L 79 270 L 66 271 Z" fill="#efefef" fill-rule="evenodd"/>
  <path d="M 385 194 L 398 193 L 399 206 L 386 207 Z" fill="#efefef" fill-rule="evenodd"/>
  <path d="M 436 194 L 449 193 L 450 206 L 437 207 Z" fill="#efefef" fill-rule="evenodd"/>
  <path d="M 436 117 L 449 116 L 450 129 L 437 130 Z" fill="#efefef" fill-rule="evenodd"/>
  <path d="M 116 130 L 129 129 L 130 142 L 117 143 Z" fill="#efefef" fill-rule="evenodd"/>
  <path d="M 65 130 L 78 129 L 79 142 L 66 143 Z" fill="#efefef" fill-rule="evenodd"/>
  <path d="M 52 117 L 65 116 L 66 129 L 53 130 Z" fill="#efefef" fill-rule="evenodd"/>
  <path d="M 449 53 L 462 52 L 463 65 L 450 66 Z" fill="#efefef" fill-rule="evenodd"/>
  <path d="M 385 66 L 398 65 L 399 78 L 386 79 Z" fill="#efefef" fill-rule="evenodd"/>
  <path d="M 372 53 L 385 52 L 386 65 L 373 66 Z" fill="#efefef" fill-rule="evenodd"/>
  <path d="M 321 53 L 334 52 L 335 65 L 322 66 Z" fill="#efefef" fill-rule="evenodd"/>
  <path d="M 257 66 L 270 65 L 271 78 L 258 79 Z" fill="#efefef" fill-rule="evenodd"/>
  <path d="M 244 53 L 257 52 L 258 65 L 245 66 Z" fill="#efefef" fill-rule="evenodd"/>
  <path d="M 193 53 L 206 52 L 207 65 L 194 66 Z" fill="#efefef" fill-rule="evenodd"/>
  <path d="M 129 66 L 142 65 L 143 78 L 130 79 Z" fill="#efefef" fill-rule="evenodd"/>
  <path d="M 116 53 L 129 52 L 130 65 L 117 66 Z" fill="#efefef" fill-rule="evenodd"/>
  <path d="M 52 66 L 65 65 L 66 78 L 53 79 Z" fill="#efefef" fill-rule="evenodd"/>
  <path d="M 65 53 L 78 52 L 79 65 L 66 66 Z" fill="#efefef" fill-rule="evenodd"/>
  <path d="M 309 388 L 310 398 L 322 399 L 323 410 L 334 410 L 333 405 L 325 399 L 322 399 L 320 395 L 311 388 Z" fill="#efefef" fill-rule="evenodd"/>
  <path d="M 0 476 L 0 487 L 14 487 L 14 476 Z" fill="#fefefe" fill-rule="evenodd"/>
  <path d="M 0 425 L 0 436 L 14 436 L 14 425 Z" fill="#fefefe" fill-rule="evenodd"/>
  <path d="M 0 348 L 0 359 L 14 359 L 14 348 Z" fill="#fefefe" fill-rule="evenodd"/>
  <path d="M 0 297 L 0 308 L 14 308 L 14 297 Z" fill="#fefefe" fill-rule="evenodd"/>
  <path d="M 0 220 L 0 231 L 14 231 L 14 220 Z" fill="#fefefe" fill-rule="evenodd"/>
  <path d="M 0 169 L 0 180 L 14 180 L 14 169 Z" fill="#fefefe" fill-rule="evenodd"/>
  <path d="M 0 92 L 0 103 L 14 103 L 14 92 Z" fill="#fefefe" fill-rule="evenodd"/>
  <path d="M 476 0 L 476 14 L 487 14 L 487 0 Z" fill="#fefefe" fill-rule="evenodd"/>
  <path d="M 348 0 L 348 14 L 359 14 L 359 0 Z" fill="#fefefe" fill-rule="evenodd"/>
  <path d="M 220 0 L 220 14 L 231 14 L 231 0 Z" fill="#fefefe" fill-rule="evenodd"/>
  <path d="M 92 0 L 92 14 L 103 14 L 103 0 Z" fill="#fefefe" fill-rule="evenodd"/>
  <path d="M 0 361 L 0 372 L 14 372 L 14 361 Z" fill="#efefef" fill-rule="evenodd"/>
  <path d="M 0 284 L 0 295 L 14 295 L 14 284 Z" fill="#efefef" fill-rule="evenodd"/>
  <path d="M 0 233 L 0 244 L 14 244 L 14 233 Z" fill="#efefef" fill-rule="evenodd"/>
  <path d="M 0 156 L 0 167 L 14 167 L 14 156 Z" fill="#efefef" fill-rule="evenodd"/>
  <path d="M 0 28 L 0 39 L 14 39 L 14 28 Z" fill="#efefef" fill-rule="evenodd"/>
  <path d="M 412 0 L 412 14 L 423 14 L 423 0 Z" fill="#efefef" fill-rule="evenodd"/>
  <path d="M 284 0 L 284 14 L 295 14 L 295 0 Z" fill="#efefef" fill-rule="evenodd"/>
  <path d="M 156 0 L 156 14 L 167 14 L 167 0 Z" fill="#efefef" fill-rule="evenodd"/>
  <path d="M 28 0 L 28 14 L 39 14 L 39 0 Z" fill="#efefef" fill-rule="evenodd"/>
  <path d="M 0 412 L 0 423 L 14 423 L 13 412 Z" fill="#efefef" fill-rule="evenodd"/>
  <path d="M 338 410 L 335 408 L 334 412 L 322 412 L 322 423 L 334 423 L 334 412 Z" fill="#fefefe" fill-rule="evenodd"/>
  <path d="M 437 476 L 437 487 L 449 487 L 449 476 Z" fill="#fefefe" fill-rule="evenodd"/>
  <path d="M 386 476 L 386 487 L 398 487 L 398 476 Z" fill="#fefefe" fill-rule="evenodd"/>
  <path d="M 309 476 L 309 487 L 321 487 L 321 476 Z" fill="#fefefe" fill-rule="evenodd"/>
  <path d="M 258 476 L 258 487 L 270 487 L 270 476 Z" fill="#fefefe" fill-rule="evenodd"/>
  <path d="M 181 476 L 181 487 L 193 487 L 193 476 Z" fill="#fefefe" fill-rule="evenodd"/>
  <path d="M 130 476 L 130 487 L 142 487 L 142 476 Z" fill="#fefefe" fill-rule="evenodd"/>
  <path d="M 53 476 L 53 487 L 65 487 L 65 476 Z" fill="#fefefe" fill-rule="evenodd"/>
  <path d="M 412 450 L 412 462 L 423 462 L 423 450 Z" fill="#fefefe" fill-rule="evenodd"/>
  <path d="M 284 450 L 284 462 L 295 462 L 295 450 Z" fill="#fefefe" fill-rule="evenodd"/>
  <path d="M 156 450 L 156 462 L 167 462 L 167 450 Z" fill="#fefefe" fill-rule="evenodd"/>
  <path d="M 28 450 L 28 462 L 39 462 L 39 450 Z" fill="#fefefe" fill-rule="evenodd"/>
  <path d="M 258 425 L 258 436 L 270 436 L 270 425 Z" fill="#fefefe" fill-rule="evenodd"/>
  <path d="M 450 412 L 450 423 L 462 423 L 462 412 Z" fill="#fefefe" fill-rule="evenodd"/>
  <path d="M 245 412 L 245 423 L 257 423 L 257 412 Z" fill="#fefefe" fill-rule="evenodd"/>
  <path d="M 117 412 L 117 423 L 129 423 L 129 412 Z" fill="#fefefe" fill-rule="evenodd"/>
  <path d="M 66 412 L 66 423 L 78 423 L 78 412 Z" fill="#fefefe" fill-rule="evenodd"/>
  <path d="M 476 386 L 476 398 L 487 398 L 487 386 Z" fill="#fefefe" fill-rule="evenodd"/>
  <path d="M 220 386 L 220 398 L 231 398 L 231 386 Z" fill="#fefefe" fill-rule="evenodd"/>
  <path d="M 92 386 L 92 398 L 103 398 L 103 386 Z" fill="#fefefe" fill-rule="evenodd"/>
  <path d="M 450 361 L 450 372 L 462 372 L 462 361 Z" fill="#fefefe" fill-rule="evenodd"/>
  <path d="M 245 361 L 245 372 L 257 372 L 257 361 Z" fill="#fefefe" fill-rule="evenodd"/>
  <path d="M 117 361 L 117 372 L 129 372 L 129 361 Z" fill="#fefefe" fill-rule="evenodd"/>
  <path d="M 386 348 L 386 359 L 398 359 L 398 348 Z" fill="#fefefe" fill-rule="evenodd"/>
  <path d="M 412 322 L 412 334 L 423 334 L 423 322 Z" fill="#fefefe" fill-rule="evenodd"/>
  <path d="M 28 322 L 28 334 L 39 334 L 39 322 Z" fill="#fefefe" fill-rule="evenodd"/>
  <path d="M 117 310 L 117 321 L 129 321 L 129 310 Z" fill="#fefefe" fill-rule="evenodd"/>
  <path d="M 53 297 L 53 308 L 65 308 L 65 297 Z" fill="#fefefe" fill-rule="evenodd"/>
  <path d="M 450 284 L 450 295 L 462 295 L 462 284 Z" fill="#fefefe" fill-rule="evenodd"/>
  <path d="M 117 284 L 117 295 L 129 295 L 129 284 Z" fill="#fefefe" fill-rule="evenodd"/>
  <path d="M 66 284 L 66 295 L 78 295 L 78 284 Z" fill="#fefefe" fill-rule="evenodd"/>
  <path d="M 476 258 L 476 270 L 487 270 L 487 258 Z" fill="#fefefe" fill-rule="evenodd"/>
  <path d="M 92 258 L 92 270 L 103 270 L 103 258 Z" fill="#fefefe" fill-rule="evenodd"/>
  <path d="M 28 245 L 28 257 L 39 257 L 39 245 Z" fill="#fefefe" fill-rule="evenodd"/>
  <path d="M 437 220 L 437 231 L 449 231 L 449 220 Z" fill="#fefefe" fill-rule="evenodd"/>
  <path d="M 386 220 L 386 231 L 398 231 L 398 220 Z" fill="#fefefe" fill-rule="evenodd"/>
  <path d="M 412 194 L 412 206 L 423 206 L 423 194 Z" fill="#fefefe" fill-rule="evenodd"/>
  <path d="M 28 194 L 28 206 L 39 206 L 39 194 Z" fill="#fefefe" fill-rule="evenodd"/>
  <path d="M 450 156 L 450 167 L 462 167 L 462 156 Z" fill="#fefefe" fill-rule="evenodd"/>
  <path d="M 117 156 L 117 167 L 129 167 L 129 156 Z" fill="#fefefe" fill-rule="evenodd"/>
  <path d="M 66 156 L 66 167 L 78 167 L 78 156 Z" fill="#fefefe" fill-rule="evenodd"/>
  <path d="M 476 130 L 476 142 L 487 142 L 487 130 Z" fill="#fefefe" fill-rule="evenodd"/>
  <path d="M 92 130 L 92 142 L 103 142 L 103 130 Z" fill="#fefefe" fill-rule="evenodd"/>
  <path d="M 412 117 L 412 129 L 423 129 L 423 117 Z" fill="#fefefe" fill-rule="evenodd"/>
  <path d="M 28 117 L 28 129 L 39 129 L 39 117 Z" fill="#fefefe" fill-rule="evenodd"/>
  <path d="M 437 92 L 437 103 L 449 103 L 449 92 Z" fill="#fefefe" fill-rule="evenodd"/>
  <path d="M 386 92 L 386 103 L 398 103 L 398 92 Z" fill="#fefefe" fill-rule="evenodd"/>
  <path d="M 130 92 L 130 103 L 142 103 L 142 92 Z" fill="#fefefe" fill-rule="evenodd"/>
  <path d="M 53 92 L 53 103 L 65 103 L 65 92 Z" fill="#fefefe" fill-rule="evenodd"/>
  <path d="M 28 66 L 28 78 L 39 78 L 39 66 Z" fill="#fefefe" fill-rule="evenodd"/>
  <path d="M 348 53 L 348 65 L 359 65 L 359 53 Z" fill="#fefefe" fill-rule="evenodd"/>
  <path d="M 92 53 L 92 65 L 103 65 L 103 53 Z" fill="#fefefe" fill-rule="evenodd"/>
  <path d="M 450 28 L 450 39 L 462 39 L 462 28 Z" fill="#fefefe" fill-rule="evenodd"/>
  <path d="M 322 28 L 322 39 L 334 39 L 334 28 Z" fill="#fefefe" fill-rule="evenodd"/>
  <path d="M 245 28 L 245 39 L 257 39 L 257 28 Z" fill="#fefefe" fill-rule="evenodd"/>
  <path d="M 194 28 L 194 39 L 206 39 L 206 28 Z" fill="#fefefe" fill-rule="evenodd"/>
  <path d="M 117 28 L 117 39 L 129 39 L 129 28 Z" fill="#fefefe" fill-rule="evenodd"/>
  <path d="M 66 28 L 66 39 L 78 39 L 78 28 Z" fill="#fefefe" fill-rule="evenodd"/>
  <path d="M 450 476 L 450 487 L 462 487 L 462 476 Z" fill="#efefef" fill-rule="evenodd"/>
  <path d="M 322 476 L 322 487 L 334 487 L 334 476 Z" fill="#efefef" fill-rule="evenodd"/>
  <path d="M 245 476 L 245 487 L 257 487 L 257 476 Z" fill="#efefef" fill-rule="evenodd"/>
  <path d="M 194 476 L 194 487 L 206 487 L 206 476 Z" fill="#efefef" fill-rule="evenodd"/>
  <path d="M 66 476 L 66 487 L 78 487 L 78 476 Z" fill="#efefef" fill-rule="evenodd"/>
  <path d="M 476 450 L 476 462 L 487 462 L 487 450 Z" fill="#efefef" fill-rule="evenodd"/>
  <path d="M 220 450 L 220 462 L 231 462 L 231 450 Z" fill="#efefef" fill-rule="evenodd"/>
  <path d="M 92 450 L 92 462 L 103 462 L 103 450 Z" fill="#efefef" fill-rule="evenodd"/>
  <path d="M 245 425 L 245 436 L 257 436 L 257 425 Z" fill="#efefef" fill-rule="evenodd"/>
  <path d="M 66 425 L 66 436 L 78 436 L 78 425 Z" fill="#efefef" fill-rule="evenodd"/>
  <path d="M 386 412 L 386 423 L 398 423 L 398 412 Z" fill="#efefef" fill-rule="evenodd"/>
  <path d="M 258 412 L 258 423 L 270 423 L 270 412 Z" fill="#efefef" fill-rule="evenodd"/>
  <path d="M 412 386 L 412 398 L 423 398 L 423 386 Z" fill="#efefef" fill-rule="evenodd"/>
  <path d="M 284 386 L 284 398 L 295 398 L 295 386 Z" fill="#efefef" fill-rule="evenodd"/>
  <path d="M 28 386 L 28 398 L 39 398 L 39 386 Z" fill="#efefef" fill-rule="evenodd"/>
  <path d="M 386 361 L 386 372 L 398 372 L 398 361 Z" fill="#efefef" fill-rule="evenodd"/>
  <path d="M 258 361 L 258 372 L 270 372 L 270 361 Z" fill="#efefef" fill-rule="evenodd"/>
  <path d="M 450 348 L 450 359 L 462 359 L 462 348 Z" fill="#efefef" fill-rule="evenodd"/>
  <path d="M 66 348 L 66 359 L 78 359 L 78 348 Z" fill="#efefef" fill-rule="evenodd"/>
  <path d="M 476 322 L 476 334 L 487 334 L 487 322 Z" fill="#efefef" fill-rule="evenodd"/>
  <path d="M 450 297 L 450 308 L 462 308 L 462 297 Z" fill="#efefef" fill-rule="evenodd"/>
  <path d="M 117 297 L 117 308 L 129 308 L 129 297 Z" fill="#efefef" fill-rule="evenodd"/>
  <path d="M 66 297 L 66 308 L 78 308 L 78 297 Z" fill="#efefef" fill-rule="evenodd"/>
  <path d="M 412 258 L 412 270 L 423 270 L 423 258 Z" fill="#efefef" fill-rule="evenodd"/>
  <path d="M 28 258 L 28 270 L 39 270 L 39 258 Z" fill="#efefef" fill-rule="evenodd"/>
  <path d="M 450 220 L 450 231 L 462 231 L 462 220 Z" fill="#efefef" fill-rule="evenodd"/>
  <path d="M 66 220 L 66 231 L 78 231 L 78 220 Z" fill="#efefef" fill-rule="evenodd"/>
  <path d="M 476 194 L 476 206 L 487 206 L 487 194 Z" fill="#efefef" fill-rule="evenodd"/>
  <path d="M 92 194 L 92 206 L 103 206 L 103 194 Z" fill="#efefef" fill-rule="evenodd"/>
  <path d="M 386 156 L 386 167 L 398 167 L 398 156 Z" fill="#efefef" fill-rule="evenodd"/>
  <path d="M 476 117 L 476 129 L 487 129 L 487 117 Z" fill="#efefef" fill-rule="evenodd"/>
  <path d="M 92 117 L 92 129 L 103 129 L 103 117 Z" fill="#efefef" fill-rule="evenodd"/>
  <path d="M 450 92 L 450 103 L 462 103 L 462 92 Z" fill="#efefef" fill-rule="evenodd"/>
  <path d="M 66 92 L 66 103 L 78 103 L 78 92 Z" fill="#efefef" fill-rule="evenodd"/>
  <path d="M 489 53 L 489 65 L 500 65 L 500 53 Z" fill="#efefef" fill-rule="evenodd"/>
  <path d="M 412 53 L 412 65 L 423 65 L 423 53 Z" fill="#efefef" fill-rule="evenodd"/>
  <path d="M 284 53 L 284 65 L 295 65 L 295 53 Z" fill="#efefef" fill-rule="evenodd"/>
  <path d="M 156 53 L 156 65 L 167 65 L 167 53 Z" fill="#efefef" fill-rule="evenodd"/>
  <path d="M 28 53 L 28 65 L 39 65 L 39 53 Z" fill="#efefef" fill-rule="evenodd"/>
  <path d="M 386 28 L 386 39 L 398 39 L 398 28 Z" fill="#efefef" fill-rule="evenodd"/>
  <path d="M 258 28 L 258 39 L 270 39 L 270 28 Z" fill="#efefef" fill-rule="evenodd"/>
  <path d="M 181 28 L 181 39 L 193 39 L 193 28 Z" fill="#efefef" fill-rule="evenodd"/>
  <path d="M 130 28 L 130 39 L 142 39 L 142 28 Z" fill="#efefef" fill-rule="evenodd"/>
  <path d="M 53 28 L 53 39 L 65 39 L 65 28 Z" fill="#efefef" fill-rule="evenodd"/>
  <path d="M 194 412 L 194 423 L 206 422 L 206 412 Z" fill="#fefefe" fill-rule="evenodd"/>
  <path d="M 53 221 L 53 231 L 65 231 L 65 220 Z" fill="#fefefe" fill-rule="evenodd"/>
  <path d="M 438 297 L 437 308 L 449 308 L 449 297 Z" fill="#fefefe" fill-rule="evenodd"/>
  <path d="M 156 66 L 156 77 L 167 78 L 167 66 Z" fill="#fefefe" fill-rule="evenodd"/>
  <path d="M 181 489 L 182 500 L 193 500 L 193 489 Z" fill="#efefef" fill-rule="evenodd"/>
  <path d="M 28 182 L 28 193 L 39 193 L 39 181 Z" fill="#efefef" fill-rule="evenodd"/>
  <path d="M 220 66 L 220 78 L 231 77 L 231 66 Z" fill="#efefef" fill-rule="evenodd"/>
  <path d="M 412 66 L 412 78 L 423 78 L 423 66 Z" fill="#fefefe" fill-rule="evenodd"/>
  <path d="M 437 412 L 437 423 L 449 423 L 449 412 Z" fill="#efefef" fill-rule="evenodd"/>
  <path d="M 437 156 L 437 167 L 449 167 L 449 156 Z" fill="#efefef" fill-rule="evenodd"/>
  <path d="M 348 438 L 348 449 L 359 449 L 359 437 Z" fill="#fefefe" fill-rule="evenodd"/>
  <path d="M 92 437 L 92 449 L 103 449 L 103 438 Z" fill="#fefefe" fill-rule="evenodd"/>
  <path d="M 207 66 L 207 77 L 218 78 L 218 66 Z" fill="#fefefe" fill-rule="evenodd"/>
  <path d="M 476 54 L 476 65 L 487 65 L 487 53 Z" fill="#fefefe" fill-rule="evenodd"/>
  <path d="M 220 54 L 220 65 L 231 65 L 231 53 Z" fill="#fefefe" fill-rule="evenodd"/>
  <path d="M 309 489 L 310 500 L 321 500 L 321 489 Z" fill="#efefef" fill-rule="evenodd"/>
  <path d="M 92 322 L 92 334 L 103 334 L 103 323 Z" fill="#efefef" fill-rule="evenodd"/>
  <path d="M 476 271 L 476 282 L 487 283 L 487 271 Z" fill="#efefef" fill-rule="evenodd"/>
  <path d="M 373 412 L 373 423 L 385 423 L 385 412 Z" fill="#fefefe" fill-rule="evenodd"/>
  <path d="M 373 29 L 374 39 L 385 39 L 385 28 Z" fill="#fefefe" fill-rule="evenodd"/>
  <path d="M 181 412 L 181 423 L 193 423 L 193 412 Z" fill="#efefef" fill-rule="evenodd"/>
  <path d="M 117 169 L 117 180 L 129 180 L 129 169 Z" fill="#efefef" fill-rule="evenodd"/>
  <path d="M 54 348 L 53 359 L 65 359 L 65 348 Z" fill="#fefefe" fill-rule="evenodd"/>
  <path d="M 425 322 L 425 334 L 436 334 L 436 323 Z" fill="#efefef" fill-rule="evenodd"/>
  <path d="M 476 66 L 476 78 L 487 77 L 487 66 Z" fill="#efefef" fill-rule="evenodd"/>
  <path d="M 310 28 L 309 39 L 321 39 L 321 28 Z" fill="#efefef" fill-rule="evenodd"/>
  <path d="M 412 246 L 412 257 L 423 257 L 423 246 Z" fill="#fefefe" fill-rule="evenodd"/>
  <path d="M 437 361 L 437 372 L 449 372 L 449 361 Z" fill="#efefef" fill-rule="evenodd"/>
  <path d="M 117 92 L 117 103 L 129 103 L 129 92 Z" fill="#efefef" fill-rule="evenodd"/>
  <path d="M 181 425 L 182 436 L 193 436 L 193 425 Z" fill="#fefefe" fill-rule="evenodd"/>
  <path d="M 117 476 L 118 487 L 129 487 L 129 476 Z" fill="#efefef" fill-rule="evenodd"/>
  <path d="M 92 246 L 92 257 L 103 257 L 103 245 Z" fill="#efefef" fill-rule="evenodd"/>
  <path d="M 412 181 L 412 193 L 423 193 L 423 182 Z" fill="#efefef" fill-rule="evenodd"/>
  <path d="M 117 425 L 117 436 L 129 436 L 129 425 Z" fill="#efefef" fill-rule="evenodd"/>
  <path d="M 53 361 L 53 372 L 65 372 L 65 361 Z" fill="#efefef" fill-rule="evenodd"/>
  <path d="M 487 181 L 476 182 L 476 193 L 487 193 Z" fill="#fefefe" fill-rule="evenodd"/>
  <path d="M 284 66 L 284 77 L 295 78 L 295 66 Z" fill="#fefefe" fill-rule="evenodd"/>
  <path d="M 92 66 L 92 77 L 103 78 L 103 66 Z" fill="#efefef" fill-rule="evenodd"/>
  <path d="M 476 246 L 476 257 L 487 257 L 487 246 Z" fill="#efefef" fill-rule="evenodd"/>
  <path d="M 437 233 L 437 244 L 449 244 L 449 233 Z" fill="#efefef" fill-rule="evenodd"/>
  <path d="M 53 156 L 53 167 L 65 167 L 65 156 Z" fill="#efefef" fill-rule="evenodd"/>
  <path d="M 437 28 L 437 39 L 449 39 L 449 28 Z" fill="#efefef" fill-rule="evenodd"/>
  <path d="M 103 181 L 92 182 L 92 193 L 103 193 Z" fill="#fefefe" fill-rule="evenodd"/>
  <path d="M 169 79 L 168 90 L 179 91 L 180 79 Z" fill="#fefefe" fill-rule="evenodd"/>
  <path d="M 310 412 L 309 423 L 321 423 L 321 412 Z" fill="#efefef" fill-rule="evenodd"/>
  <path d="M 130 412 L 130 423 L 142 423 L 141 412 Z" fill="#efefef" fill-rule="evenodd"/>
  <path d="M 437 284 L 438 295 L 449 295 L 449 284 Z" fill="#efefef" fill-rule="evenodd"/>
  <path d="M 489 130 L 489 141 L 500 142 L 500 130 Z" fill="#efefef" fill-rule="evenodd"/>
  <path d="M 231 438 L 220 438 L 220 449 L 231 449 Z" fill="#fefefe" fill-rule="evenodd"/>
  <path d="M 28 374 L 28 385 L 39 385 L 39 374 Z" fill="#fefefe" fill-rule="evenodd"/>
  <path d="M 118 220 L 118 231 L 129 231 L 129 220 Z" fill="#efefef" fill-rule="evenodd"/>
  <path d="M 92 271 L 92 282 L 103 283 L 103 271 Z" fill="#efefef" fill-rule="evenodd"/>
  <path d="M 92 335 L 92 346 L 103 346 L 103 335 Z" fill="#fefefe" fill-rule="evenodd"/>
  <path d="M 207 438 L 207 449 L 218 449 L 218 438 Z" fill="#efefef" fill-rule="evenodd"/>
  <path d="M 476 437 L 476 449 L 487 449 L 487 438 Z" fill="#fefefe" fill-rule="evenodd"/>
  <path d="M 79 489 L 79 500 L 90 500 L 91 489 Z" fill="#efefef" fill-rule="evenodd"/>
  <path d="M 54 412 L 53 423 L 65 423 L 65 412 Z" fill="#efefef" fill-rule="evenodd"/>
  <path d="M 79 156 L 79 167 L 90 167 L 91 156 Z" fill="#efefef" fill-rule="evenodd"/>
  <path d="M 412 130 L 412 142 L 423 141 L 423 130 Z" fill="#efefef" fill-rule="evenodd"/>
  <path d="M 28 130 L 28 142 L 39 141 L 39 130 Z" fill="#efefef" fill-rule="evenodd"/>
  <path d="M 335 28 L 335 39 L 347 39 L 346 28 Z" fill="#efefef" fill-rule="evenodd"/>
  <path d="M 335 412 L 335 423 L 346 423 L 347 413 Z" fill="#efefef" fill-rule="evenodd"/>
  <path d="M 476 489 L 476 500 L 487 500 L 487 489 Z" fill="#fefefe" fill-rule="evenodd"/>
  <path d="M 348 489 L 348 500 L 359 500 L 359 489 Z" fill="#fefefe" fill-rule="evenodd"/>
  <path d="M 220 489 L 220 500 L 231 500 L 231 489 Z" fill="#fefefe" fill-rule="evenodd"/>
  <path d="M 92 489 L 92 500 L 103 500 L 103 489 Z" fill="#fefefe" fill-rule="evenodd"/>
  <path d="M 489 476 L 489 487 L 500 487 L 500 476 Z" fill="#fefefe" fill-rule="evenodd"/>
  <path d="M 463 476 L 463 487 L 474 487 L 474 476 Z" fill="#fefefe" fill-rule="evenodd"/>
  <path d="M 412 476 L 412 487 L 423 487 L 423 476 Z" fill="#fefefe" fill-rule="evenodd"/>
  <path d="M 361 476 L 361 487 L 372 487 L 372 476 Z" fill="#fefefe" fill-rule="evenodd"/>
  <path d="M 335 476 L 335 487 L 346 487 L 346 476 Z" fill="#fefefe" fill-rule="evenodd"/>
  <path d="M 284 476 L 284 487 L 295 487 L 295 476 Z" fill="#fefefe" fill-rule="evenodd"/>
  <path d="M 233 476 L 233 487 L 244 487 L 244 476 Z" fill="#fefefe" fill-rule="evenodd"/>
  <path d="M 207 476 L 207 487 L 218 487 L 218 476 Z" fill="#fefefe" fill-rule="evenodd"/>
  <path d="M 156 476 L 156 487 L 167 487 L 167 476 Z" fill="#fefefe" fill-rule="evenodd"/>
  <path d="M 105 476 L 105 487 L 116 487 L 116 476 Z" fill="#fefefe" fill-rule="evenodd"/>
  <path d="M 79 476 L 79 487 L 90 487 L 90 476 Z" fill="#fefefe" fill-rule="evenodd"/>
  <path d="M 28 476 L 28 487 L 39 487 L 39 476 Z" fill="#fefefe" fill-rule="evenodd"/>
  <path d="M 476 463 L 476 474 L 487 474 L 487 463 Z" fill="#fefefe" fill-rule="evenodd"/>
  <path d="M 348 463 L 348 474 L 359 474 L 359 463 Z" fill="#fefefe" fill-rule="evenodd"/>
  <path d="M 220 463 L 220 474 L 231 474 L 231 463 Z" fill="#fefefe" fill-rule="evenodd"/>
  <path d="M 92 463 L 92 474 L 103 474 L 103 463 Z" fill="#fefefe" fill-rule="evenodd"/>
  <path d="M 489 425 L 489 436 L 500 436 L 500 425 Z" fill="#fefefe" fill-rule="evenodd"/>
  <path d="M 412 425 L 412 436 L 423 436 L 423 425 Z" fill="#fefefe" fill-rule="evenodd"/>
  <path d="M 361 425 L 361 436 L 372 436 L 372 425 Z" fill="#fefefe" fill-rule="evenodd"/>
  <path d="M 284 425 L 284 436 L 295 436 L 295 425 Z" fill="#fefefe" fill-rule="evenodd"/>
  <path d="M 156 425 L 156 436 L 167 436 L 167 425 Z" fill="#fefefe" fill-rule="evenodd"/>
  <path d="M 105 425 L 105 436 L 116 436 L 116 425 Z" fill="#fefefe" fill-rule="evenodd"/>
  <path d="M 28 425 L 28 436 L 39 436 L 39 425 Z" fill="#fefefe" fill-rule="evenodd"/>
  <path d="M 476 412 L 476 423 L 487 423 L 487 412 Z" fill="#fefefe" fill-rule="evenodd"/>
  <path d="M 425 412 L 425 423 L 436 423 L 436 412 Z" fill="#fefefe" fill-rule="evenodd"/>
  <path d="M 399 412 L 399 423 L 410 423 L 410 412 Z" fill="#fefefe" fill-rule="evenodd"/>
  <path d="M 297 412 L 297 423 L 308 423 L 308 412 Z" fill="#fefefe" fill-rule="evenodd"/>
  <path d="M 271 412 L 271 423 L 282 423 L 282 412 Z" fill="#fefefe" fill-rule="evenodd"/>
  <path d="M 220 412 L 220 423 L 231 423 L 231 412 Z" fill="#fefefe" fill-rule="evenodd"/>
  <path d="M 169 412 L 169 423 L 180 423 L 180 412 Z" fill="#fefefe" fill-rule="evenodd"/>
  <path d="M 143 412 L 143 423 L 154 423 L 154 412 Z" fill="#fefefe" fill-rule="evenodd"/>
  <path d="M 92 412 L 92 423 L 103 423 L 103 412 Z" fill="#fefefe" fill-rule="evenodd"/>
  <path d="M 41 412 L 41 423 L 52 423 L 52 412 Z" fill="#fefefe" fill-rule="evenodd"/>
  <path d="M 15 412 L 15 423 L 26 423 L 26 412 Z" fill="#fefefe" fill-rule="evenodd"/>
  <path d="M 412 399 L 412 410 L 423 410 L 423 399 Z" fill="#fefefe" fill-rule="evenodd"/>
  <path d="M 284 399 L 284 410 L 295 410 L 295 399 Z" fill="#fefefe" fill-rule="evenodd"/>
  <path d="M 207 399 L 207 410 L 218 410 L 218 399 Z" fill="#fefefe" fill-rule="evenodd"/>
  <path d="M 28 399 L 28 410 L 39 410 L 39 399 Z" fill="#fefefe" fill-rule="evenodd"/>
  <path d="M 412 374 L 412 385 L 423 385 L 423 374 Z" fill="#fefefe" fill-rule="evenodd"/>
  <path d="M 476 361 L 476 372 L 487 372 L 487 361 Z" fill="#fefefe" fill-rule="evenodd"/>
  <path d="M 425 361 L 425 372 L 436 372 L 436 361 Z" fill="#fefefe" fill-rule="evenodd"/>
  <path d="M 399 361 L 399 372 L 410 372 L 410 361 Z" fill="#fefefe" fill-rule="evenodd"/>
  <path d="M 92 361 L 92 372 L 103 372 L 103 361 Z" fill="#fefefe" fill-rule="evenodd"/>
  <path d="M 489 348 L 489 359 L 500 359 L 500 348 Z" fill="#fefefe" fill-rule="evenodd"/>
  <path d="M 463 348 L 463 359 L 474 359 L 474 348 Z" fill="#fefefe" fill-rule="evenodd"/>
  <path d="M 412 348 L 412 359 L 423 359 L 423 348 Z" fill="#fefefe" fill-rule="evenodd"/>
  <path d="M 105 348 L 105 359 L 116 359 L 116 348 Z" fill="#fefefe" fill-rule="evenodd"/>
  <path d="M 79 348 L 79 359 L 90 359 L 90 348 Z" fill="#fefefe" fill-rule="evenodd"/>
  <path d="M 28 348 L 28 359 L 39 359 L 39 348 Z" fill="#fefefe" fill-rule="evenodd"/>
  <path d="M 476 335 L 476 346 L 487 346 L 487 335 Z" fill="#fefefe" fill-rule="evenodd"/>
  <path d="M 425 335 L 425 346 L 436 346 L 436 335 Z" fill="#fefefe" fill-rule="evenodd"/>
  <path d="M 476 310 L 476 321 L 487 321 L 487 310 Z" fill="#fefefe" fill-rule="evenodd"/>
  <path d="M 92 310 L 92 321 L 103 321 L 103 310 Z" fill="#fefefe" fill-rule="evenodd"/>
  <path d="M 489 297 L 489 308 L 500 308 L 500 297 Z" fill="#fefefe" fill-rule="evenodd"/>
  <path d="M 463 297 L 463 308 L 474 308 L 474 297 Z" fill="#fefefe" fill-rule="evenodd"/>
  <path d="M 412 297 L 412 308 L 423 308 L 423 297 Z" fill="#fefefe" fill-rule="evenodd"/>
  <path d="M 105 297 L 105 308 L 116 308 L 116 297 Z" fill="#fefefe" fill-rule="evenodd"/>
  <path d="M 28 297 L 28 308 L 39 308 L 39 297 Z" fill="#fefefe" fill-rule="evenodd"/>
  <path d="M 476 284 L 476 295 L 487 295 L 487 284 Z" fill="#fefefe" fill-rule="evenodd"/>
  <path d="M 425 284 L 425 295 L 436 295 L 436 284 Z" fill="#fefefe" fill-rule="evenodd"/>
  <path d="M 399 284 L 399 295 L 410 295 L 410 284 Z" fill="#fefefe" fill-rule="evenodd"/>
  <path d="M 92 284 L 92 295 L 103 295 L 103 284 Z" fill="#fefefe" fill-rule="evenodd"/>
  <path d="M 41 284 L 41 295 L 52 295 L 52 284 Z" fill="#fefefe" fill-rule="evenodd"/>
  <path d="M 15 284 L 15 295 L 26 295 L 26 284 Z" fill="#fefefe" fill-rule="evenodd"/>
  <path d="M 412 271 L 412 282 L 423 282 L 423 271 Z" fill="#fefefe" fill-rule="evenodd"/>
  <path d="M 28 271 L 28 282 L 39 282 L 39 271 Z" fill="#fefefe" fill-rule="evenodd"/>
  <path d="M 476 233 L 476 244 L 487 244 L 487 233 Z" fill="#fefefe" fill-rule="evenodd"/>
  <path d="M 92 233 L 92 244 L 103 244 L 103 233 Z" fill="#fefefe" fill-rule="evenodd"/>
  <path d="M 41 233 L 41 244 L 52 244 L 52 233 Z" fill="#fefefe" fill-rule="evenodd"/>
  <path d="M 489 220 L 489 231 L 500 231 L 500 220 Z" fill="#fefefe" fill-rule="evenodd"/>
  <path d="M 463 220 L 463 231 L 474 231 L 474 220 Z" fill="#fefefe" fill-rule="evenodd"/>
  <path d="M 412 220 L 412 231 L 423 231 L 423 220 Z" fill="#fefefe" fill-rule="evenodd"/>
  <path d="M 105 220 L 105 231 L 116 231 L 116 220 Z" fill="#fefefe" fill-rule="evenodd"/>
  <path d="M 79 220 L 79 231 L 90 231 L 90 220 Z" fill="#fefefe" fill-rule="evenodd"/>
  <path d="M 28 220 L 28 231 L 39 231 L 39 220 Z" fill="#fefefe" fill-rule="evenodd"/>
  <path d="M 476 207 L 476 218 L 487 218 L 487 207 Z" fill="#fefefe" fill-rule="evenodd"/>
  <path d="M 92 207 L 92 218 L 103 218 L 103 207 Z" fill="#fefefe" fill-rule="evenodd"/>
  <path d="M 412 169 L 412 180 L 423 180 L 423 169 Z" fill="#fefefe" fill-rule="evenodd"/>
  <path d="M 105 169 L 105 180 L 116 180 L 116 169 Z" fill="#fefefe" fill-rule="evenodd"/>
  <path d="M 28 169 L 28 180 L 39 180 L 39 169 Z" fill="#fefefe" fill-rule="evenodd"/>
  <path d="M 476 156 L 476 167 L 487 167 L 487 156 Z" fill="#fefefe" fill-rule="evenodd"/>
  <path d="M 425 156 L 425 167 L 436 167 L 436 156 Z" fill="#fefefe" fill-rule="evenodd"/>
  <path d="M 399 156 L 399 167 L 410 167 L 410 156 Z" fill="#fefefe" fill-rule="evenodd"/>
  <path d="M 92 156 L 92 167 L 103 167 L 103 156 Z" fill="#fefefe" fill-rule="evenodd"/>
  <path d="M 41 156 L 41 167 L 52 167 L 52 156 Z" fill="#fefefe" fill-rule="evenodd"/>
  <path d="M 15 156 L 15 167 L 26 167 L 26 156 Z" fill="#fefefe" fill-rule="evenodd"/>
  <path d="M 412 143 L 412 154 L 423 154 L 423 143 Z" fill="#fefefe" fill-rule="evenodd"/>
  <path d="M 28 143 L 28 154 L 39 154 L 39 143 Z" fill="#fefefe" fill-rule="evenodd"/>
  <path d="M 476 105 L 476 116 L 487 116 L 487 105 Z" fill="#fefefe" fill-rule="evenodd"/>
  <path d="M 92 105 L 92 116 L 103 116 L 103 105 Z" fill="#fefefe" fill-rule="evenodd"/>
  <path d="M 489 92 L 489 103 L 500 103 L 500 92 Z" fill="#fefefe" fill-rule="evenodd"/>
  <path d="M 463 92 L 463 103 L 474 103 L 474 92 Z" fill="#fefefe" fill-rule="evenodd"/>
  <path d="M 412 92 L 412 103 L 423 103 L 423 92 Z" fill="#fefefe" fill-rule="evenodd"/>
  <path d="M 361 92 L 361 103 L 372 103 L 372 92 Z" fill="#fefefe" fill-rule="evenodd"/>
  <path d="M 105 92 L 105 103 L 116 103 L 116 92 Z" fill="#fefefe" fill-rule="evenodd"/>
  <path d="M 79 92 L 79 103 L 90 103 L 90 92 Z" fill="#fefefe" fill-rule="evenodd"/>
  <path d="M 28 92 L 28 103 L 39 103 L 39 92 Z" fill="#fefefe" fill-rule="evenodd"/>
  <path d="M 476 79 L 476 90 L 487 90 L 487 79 Z" fill="#fefefe" fill-rule="evenodd"/>
  <path d="M 425 79 L 425 90 L 436 90 L 436 79 Z" fill="#fefefe" fill-rule="evenodd"/>
  <path d="M 348 79 L 348 90 L 359 90 L 359 79 Z" fill="#fefefe" fill-rule="evenodd"/>
  <path d="M 92 79 L 92 90 L 103 90 L 103 79 Z" fill="#fefefe" fill-rule="evenodd"/>
  <path d="M 15 79 L 15 90 L 26 90 L 26 79 Z" fill="#fefefe" fill-rule="evenodd"/>
  <path d="M 412 41 L 412 52 L 423 52 L 423 41 Z" fill="#fefefe" fill-rule="evenodd"/>
  <path d="M 361 41 L 361 52 L 372 52 L 372 41 Z" fill="#fefefe" fill-rule="evenodd"/>
  <path d="M 284 41 L 284 52 L 295 52 L 295 41 Z" fill="#fefefe" fill-rule="evenodd"/>
  <path d="M 156 41 L 156 52 L 167 52 L 167 41 Z" fill="#fefefe" fill-rule="evenodd"/>
  <path d="M 28 41 L 28 52 L 39 52 L 39 41 Z" fill="#fefefe" fill-rule="evenodd"/>
  <path d="M 476 28 L 476 39 L 487 39 L 487 28 Z" fill="#fefefe" fill-rule="evenodd"/>
  <path d="M 425 28 L 425 39 L 436 39 L 436 28 Z" fill="#fefefe" fill-rule="evenodd"/>
  <path d="M 399 28 L 399 39 L 410 39 L 410 28 Z" fill="#fefefe" fill-rule="evenodd"/>
  <path d="M 348 28 L 348 39 L 359 39 L 359 28 Z" fill="#fefefe" fill-rule="evenodd"/>
  <path d="M 297 28 L 297 39 L 308 39 L 308 28 Z" fill="#fefefe" fill-rule="evenodd"/>
  <path d="M 271 28 L 271 39 L 282 39 L 282 28 Z" fill="#fefefe" fill-rule="evenodd"/>
  <path d="M 220 28 L 220 39 L 231 39 L 231 28 Z" fill="#fefefe" fill-rule="evenodd"/>
  <path d="M 169 28 L 169 39 L 180 39 L 180 28 Z" fill="#fefefe" fill-rule="evenodd"/>
  <path d="M 143 28 L 143 39 L 154 39 L 154 28 Z" fill="#fefefe" fill-rule="evenodd"/>
  <path d="M 92 28 L 92 39 L 103 39 L 103 28 Z" fill="#fefefe" fill-rule="evenodd"/>
  <path d="M 41 28 L 41 39 L 52 39 L 52 28 Z" fill="#fefefe" fill-rule="evenodd"/>
  <path d="M 15 28 L 15 39 L 26 39 L 26 28 Z" fill="#fefefe" fill-rule="evenodd"/>
  <path d="M 412 15 L 412 26 L 423 26 L 423 15 Z" fill="#fefefe" fill-rule="evenodd"/>
  <path d="M 361 15 L 361 26 L 372 26 L 372 15 Z" fill="#fefefe" fill-rule="evenodd"/>
  <path d="M 284 15 L 284 26 L 295 26 L 295 15 Z" fill="#fefefe" fill-rule="evenodd"/>
  <path d="M 156 15 L 156 26 L 167 26 L 167 15 Z" fill="#fefefe" fill-rule="evenodd"/>
  <path d="M 28 15 L 28 26 L 39 26 L 39 15 Z" fill="#fefefe" fill-rule="evenodd"/>
  <path d="M 489 489 L 489 500 L 500 500 L 500 489 Z" fill="#efefef" fill-rule="evenodd"/>
  <path d="M 463 489 L 463 500 L 474 500 L 474 489 Z" fill="#efefef" fill-rule="evenodd"/>
  <path d="M 412 489 L 412 500 L 423 500 L 423 489 Z" fill="#efefef" fill-rule="evenodd"/>
  <path d="M 361 489 L 361 500 L 372 500 L 372 489 Z" fill="#efefef" fill-rule="evenodd"/>
  <path d="M 284 489 L 284 500 L 295 500 L 295 489 Z" fill="#efefef" fill-rule="evenodd"/>
  <path d="M 207 489 L 207 500 L 218 500 L 218 489 Z" fill="#efefef" fill-rule="evenodd"/>
  <path d="M 156 489 L 156 500 L 167 500 L 167 489 Z" fill="#efefef" fill-rule="evenodd"/>
  <path d="M 105 489 L 105 500 L 116 500 L 116 489 Z" fill="#efefef" fill-rule="evenodd"/>
  <path d="M 28 489 L 28 500 L 39 500 L 39 489 Z" fill="#efefef" fill-rule="evenodd"/>
  <path d="M 476 476 L 476 487 L 487 487 L 487 476 Z" fill="#efefef" fill-rule="evenodd"/>
  <path d="M 425 476 L 425 487 L 436 487 L 436 476 Z" fill="#efefef" fill-rule="evenodd"/>
  <path d="M 399 476 L 399 487 L 410 487 L 410 476 Z" fill="#efefef" fill-rule="evenodd"/>
  <path d="M 374 476 L 374 487 L 385 487 L 385 476 Z" fill="#efefef" fill-rule="evenodd"/>
  <path d="M 348 476 L 348 487 L 359 487 L 359 476 Z" fill="#efefef" fill-rule="evenodd"/>
  <path d="M 297 476 L 297 487 L 308 487 L 308 476 Z" fill="#efefef" fill-rule="evenodd"/>
  <path d="M 271 476 L 271 487 L 282 487 L 282 476 Z" fill="#efefef" fill-rule="evenodd"/>
  <path d="M 220 476 L 220 487 L 231 487 L 231 476 Z" fill="#efefef" fill-rule="evenodd"/>
  <path d="M 169 476 L 169 487 L 180 487 L 180 476 Z" fill="#efefef" fill-rule="evenodd"/>
  <path d="M 143 476 L 143 487 L 154 487 L 154 476 Z" fill="#efefef" fill-rule="evenodd"/>
  <path d="M 92 476 L 92 487 L 103 487 L 103 476 Z" fill="#efefef" fill-rule="evenodd"/>
  <path d="M 41 476 L 41 487 L 52 487 L 52 476 Z" fill="#efefef" fill-rule="evenodd"/>
  <path d="M 15 476 L 15 487 L 26 487 L 26 476 Z" fill="#efefef" fill-rule="evenodd"/>
  <path d="M 489 463 L 489 474 L 500 474 L 500 463 Z" fill="#efefef" fill-rule="evenodd"/>
  <path d="M 412 463 L 412 474 L 423 474 L 423 463 Z" fill="#efefef" fill-rule="evenodd"/>
  <path d="M 361 463 L 361 474 L 372 474 L 372 463 Z" fill="#efefef" fill-rule="evenodd"/>
  <path d="M 284 463 L 284 474 L 295 474 L 295 463 Z" fill="#efefef" fill-rule="evenodd"/>
  <path d="M 207 463 L 207 474 L 218 474 L 218 463 Z" fill="#efefef" fill-rule="evenodd"/>
  <path d="M 156 463 L 156 474 L 167 474 L 167 463 Z" fill="#efefef" fill-rule="evenodd"/>
  <path d="M 28 463 L 28 474 L 39 474 L 39 463 Z" fill="#efefef" fill-rule="evenodd"/>
  <path d="M 412 438 L 412 449 L 423 449 L 423 438 Z" fill="#efefef" fill-rule="evenodd"/>
  <path d="M 361 438 L 361 449 L 372 449 L 372 438 Z" fill="#efefef" fill-rule="evenodd"/>
  <path d="M 284 438 L 284 449 L 295 449 L 295 438 Z" fill="#efefef" fill-rule="evenodd"/>
  <path d="M 156 438 L 156 449 L 167 449 L 167 438 Z" fill="#efefef" fill-rule="evenodd"/>
  <path d="M 28 438 L 28 449 L 39 449 L 39 438 Z" fill="#efefef" fill-rule="evenodd"/>
  <path d="M 476 425 L 476 436 L 487 436 L 487 425 Z" fill="#efefef" fill-rule="evenodd"/>
  <path d="M 425 425 L 425 436 L 436 436 L 436 425 Z" fill="#efefef" fill-rule="evenodd"/>
  <path d="M 399 425 L 399 436 L 410 436 L 410 425 Z" fill="#efefef" fill-rule="evenodd"/>
  <path d="M 374 425 L 374 436 L 385 436 L 385 425 Z" fill="#efefef" fill-rule="evenodd"/>
  <path d="M 348 425 L 348 436 L 359 436 L 359 425 Z" fill="#efefef" fill-rule="evenodd"/>
  <path d="M 297 425 L 297 436 L 308 436 L 308 425 Z" fill="#efefef" fill-rule="evenodd"/>
  <path d="M 271 425 L 271 436 L 282 436 L 282 425 Z" fill="#efefef" fill-rule="evenodd"/>
  <path d="M 220 425 L 220 436 L 231 436 L 231 425 Z" fill="#efefef" fill-rule="evenodd"/>
  <path d="M 194 425 L 194 436 L 205 436 L 205 425 Z" fill="#efefef" fill-rule="evenodd"/>
  <path d="M 169 425 L 169 436 L 180 436 L 180 425 Z" fill="#efefef" fill-rule="evenodd"/>
  <path d="M 143 425 L 143 436 L 154 436 L 154 425 Z" fill="#efefef" fill-rule="evenodd"/>
  <path d="M 92 425 L 92 436 L 103 436 L 103 425 Z" fill="#efefef" fill-rule="evenodd"/>
  <path d="M 41 425 L 41 436 L 52 436 L 52 425 Z" fill="#efefef" fill-rule="evenodd"/>
  <path d="M 15 425 L 15 436 L 26 436 L 26 425 Z" fill="#efefef" fill-rule="evenodd"/>
  <path d="M 489 412 L 489 423 L 500 423 L 500 412 Z" fill="#efefef" fill-rule="evenodd"/>
  <path d="M 463 412 L 463 423 L 474 423 L 474 412 Z" fill="#efefef" fill-rule="evenodd"/>
  <path d="M 412 412 L 412 423 L 423 423 L 423 412 Z" fill="#efefef" fill-rule="evenodd"/>
  <path d="M 361 412 L 361 423 L 372 423 L 372 412 Z" fill="#efefef" fill-rule="evenodd"/>
  <path d="M 284 412 L 284 423 L 295 423 L 295 412 Z" fill="#efefef" fill-rule="evenodd"/>
  <path d="M 233 412 L 233 423 L 244 423 L 244 412 Z" fill="#efefef" fill-rule="evenodd"/>
  <path d="M 207 412 L 207 423 L 218 423 L 218 412 Z" fill="#efefef" fill-rule="evenodd"/>
  <path d="M 105 412 L 105 423 L 116 423 L 116 412 Z" fill="#efefef" fill-rule="evenodd"/>
  <path d="M 79 412 L 79 423 L 90 423 L 90 412 Z" fill="#efefef" fill-rule="evenodd"/>
  <path d="M 28 412 L 28 423 L 39 423 L 39 412 Z" fill="#efefef" fill-rule="evenodd"/>
  <path d="M 476 399 L 476 410 L 487 410 L 487 399 Z" fill="#efefef" fill-rule="evenodd"/>
  <path d="M 425 399 L 425 410 L 436 410 L 436 399 Z" fill="#efefef" fill-rule="evenodd"/>
  <path d="M 297 399 L 297 410 L 308 410 L 308 399 Z" fill="#efefef" fill-rule="evenodd"/>
  <path d="M 220 399 L 220 410 L 231 410 L 231 399 Z" fill="#efefef" fill-rule="evenodd"/>
  <path d="M 92 399 L 92 410 L 103 410 L 103 399 Z" fill="#efefef" fill-rule="evenodd"/>
  <path d="M 41 399 L 41 410 L 52 410 L 52 399 Z" fill="#efefef" fill-rule="evenodd"/>
  <path d="M 476 374 L 476 385 L 487 385 L 487 374 Z" fill="#efefef" fill-rule="evenodd"/>
  <path d="M 425 374 L 425 385 L 436 385 L 436 374 Z" fill="#efefef" fill-rule="evenodd"/>
  <path d="M 92 374 L 92 385 L 103 385 L 103 374 Z" fill="#efefef" fill-rule="evenodd"/>
  <path d="M 489 361 L 489 372 L 500 372 L 500 361 Z" fill="#efefef" fill-rule="evenodd"/>
  <path d="M 463 361 L 463 372 L 474 372 L 474 361 Z" fill="#efefef" fill-rule="evenodd"/>
  <path d="M 412 361 L 412 372 L 423 372 L 423 361 Z" fill="#efefef" fill-rule="evenodd"/>
  <path d="M 105 361 L 105 372 L 116 372 L 116 361 Z" fill="#efefef" fill-rule="evenodd"/>
  <path d="M 79 361 L 79 372 L 90 372 L 90 361 Z" fill="#efefef" fill-rule="evenodd"/>
  <path d="M 28 361 L 28 372 L 39 372 L 39 361 Z" fill="#efefef" fill-rule="evenodd"/>
  <path d="M 476 348 L 476 359 L 487 359 L 487 348 Z" fill="#efefef" fill-rule="evenodd"/>
  <path d="M 425 348 L 425 359 L 436 359 L 436 348 Z" fill="#efefef" fill-rule="evenodd"/>
  <path d="M 399 348 L 399 359 L 410 359 L 410 348 Z" fill="#efefef" fill-rule="evenodd"/>
  <path d="M 92 348 L 92 359 L 103 359 L 103 348 Z" fill="#efefef" fill-rule="evenodd"/>
  <path d="M 15 348 L 15 359 L 26 359 L 26 348 Z" fill="#efefef" fill-rule="evenodd"/>
  <path d="M 412 335 L 412 346 L 423 346 L 423 335 Z" fill="#efefef" fill-rule="evenodd"/>
  <path d="M 28 335 L 28 346 L 39 346 L 39 335 Z" fill="#efefef" fill-rule="evenodd"/>
  <path d="M 489 310 L 489 321 L 500 321 L 500 310 Z" fill="#efefef" fill-rule="evenodd"/>
  <path d="M 412 310 L 412 321 L 423 321 L 423 310 Z" fill="#efefef" fill-rule="evenodd"/>
  <path d="M 28 310 L 28 321 L 39 321 L 39 310 Z" fill="#efefef" fill-rule="evenodd"/>
  <path d="M 476 297 L 476 308 L 487 308 L 487 297 Z" fill="#efefef" fill-rule="evenodd"/>
  <path d="M 425 297 L 425 308 L 436 308 L 436 297 Z" fill="#efefef" fill-rule="evenodd"/>
  <path d="M 399 297 L 399 308 L 410 308 L 410 297 Z" fill="#efefef" fill-rule="evenodd"/>
  <path d="M 92 297 L 92 308 L 103 308 L 103 297 Z" fill="#efefef" fill-rule="evenodd"/>
  <path d="M 41 297 L 41 308 L 52 308 L 52 297 Z" fill="#efefef" fill-rule="evenodd"/>
  <path d="M 15 297 L 15 308 L 26 308 L 26 297 Z" fill="#efefef" fill-rule="evenodd"/>
  <path d="M 412 284 L 412 295 L 423 295 L 423 284 Z" fill="#efefef" fill-rule="evenodd"/>
  <path d="M 105 284 L 105 295 L 116 295 L 116 284 Z" fill="#efefef" fill-rule="evenodd"/>
  <path d="M 28 284 L 28 295 L 39 295 L 39 284 Z" fill="#efefef" fill-rule="evenodd"/>
  <path d="M 412 233 L 412 244 L 423 244 L 423 233 Z" fill="#efefef" fill-rule="evenodd"/>
  <path d="M 79 233 L 79 244 L 90 244 L 90 233 Z" fill="#efefef" fill-rule="evenodd"/>
  <path d="M 28 233 L 28 244 L 39 244 L 39 233 Z" fill="#efefef" fill-rule="evenodd"/>
  <path d="M 476 220 L 476 231 L 487 231 L 487 220 Z" fill="#efefef" fill-rule="evenodd"/>
  <path d="M 425 220 L 425 231 L 436 231 L 436 220 Z" fill="#efefef" fill-rule="evenodd"/>
  <path d="M 399 220 L 399 231 L 410 231 L 410 220 Z" fill="#efefef" fill-rule="evenodd"/>
  <path d="M 92 220 L 92 231 L 103 231 L 103 220 Z" fill="#efefef" fill-rule="evenodd"/>
  <path d="M 41 220 L 41 231 L 52 231 L 52 220 Z" fill="#efefef" fill-rule="evenodd"/>
  <path d="M 15 220 L 15 231 L 26 231 L 26 220 Z" fill="#efefef" fill-rule="evenodd"/>
  <path d="M 489 207 L 489 218 L 500 218 L 500 207 Z" fill="#efefef" fill-rule="evenodd"/>
  <path d="M 412 207 L 412 218 L 423 218 L 423 207 Z" fill="#efefef" fill-rule="evenodd"/>
  <path d="M 28 207 L 28 218 L 39 218 L 39 207 Z" fill="#efefef" fill-rule="evenodd"/>
  <path d="M 476 169 L 476 180 L 487 180 L 487 169 Z" fill="#efefef" fill-rule="evenodd"/>
  <path d="M 425 169 L 425 180 L 436 180 L 436 169 Z" fill="#efefef" fill-rule="evenodd"/>
  <path d="M 399 169 L 399 180 L 410 180 L 410 169 Z" fill="#efefef" fill-rule="evenodd"/>
  <path d="M 92 169 L 92 180 L 103 180 L 103 169 Z" fill="#efefef" fill-rule="evenodd"/>
  <path d="M 41 169 L 41 180 L 52 180 L 52 169 Z" fill="#efefef" fill-rule="evenodd"/>
  <path d="M 15 169 L 15 180 L 26 180 L 26 169 Z" fill="#efefef" fill-rule="evenodd"/>
  <path d="M 489 156 L 489 167 L 500 167 L 500 156 Z" fill="#efefef" fill-rule="evenodd"/>
  <path d="M 463 156 L 463 167 L 474 167 L 474 156 Z" fill="#efefef" fill-rule="evenodd"/>
  <path d="M 412 156 L 412 167 L 423 167 L 423 156 Z" fill="#efefef" fill-rule="evenodd"/>
  <path d="M 105 156 L 105 167 L 116 167 L 116 156 Z" fill="#efefef" fill-rule="evenodd"/>
  <path d="M 28 156 L 28 167 L 39 167 L 39 156 Z" fill="#efefef" fill-rule="evenodd"/>
  <path d="M 476 143 L 476 154 L 487 154 L 487 143 Z" fill="#efefef" fill-rule="evenodd"/>
  <path d="M 425 143 L 425 154 L 436 154 L 436 143 Z" fill="#efefef" fill-rule="evenodd"/>
  <path d="M 399 143 L 399 154 L 410 154 L 410 143 Z" fill="#efefef" fill-rule="evenodd"/>
  <path d="M 92 143 L 92 154 L 103 154 L 103 143 Z" fill="#efefef" fill-rule="evenodd"/>
  <path d="M 41 143 L 41 154 L 52 154 L 52 143 Z" fill="#efefef" fill-rule="evenodd"/>
  <path d="M 15 143 L 15 154 L 26 154 L 26 143 Z" fill="#efefef" fill-rule="evenodd"/>
  <path d="M 489 105 L 489 116 L 500 116 L 500 105 Z" fill="#efefef" fill-rule="evenodd"/>
  <path d="M 412 105 L 412 116 L 423 116 L 423 105 Z" fill="#efefef" fill-rule="evenodd"/>
  <path d="M 28 105 L 28 116 L 39 116 L 39 105 Z" fill="#efefef" fill-rule="evenodd"/>
  <path d="M 476 92 L 476 103 L 487 103 L 487 92 Z" fill="#efefef" fill-rule="evenodd"/>
  <path d="M 425 92 L 425 103 L 436 103 L 436 92 Z" fill="#efefef" fill-rule="evenodd"/>
  <path d="M 399 92 L 399 103 L 410 103 L 410 92 Z" fill="#efefef" fill-rule="evenodd"/>
  <path d="M 374 92 L 374 103 L 385 103 L 385 92 Z" fill="#efefef" fill-rule="evenodd"/>
  <path d="M 143 92 L 143 103 L 154 103 L 154 92 Z" fill="#efefef" fill-rule="evenodd"/>
  <path d="M 92 92 L 92 103 L 103 103 L 103 92 Z" fill="#efefef" fill-rule="evenodd"/>
  <path d="M 41 92 L 41 103 L 52 103 L 52 92 Z" fill="#efefef" fill-rule="evenodd"/>
  <path d="M 15 92 L 15 103 L 26 103 L 26 92 Z" fill="#efefef" fill-rule="evenodd"/>
  <path d="M 489 79 L 489 90 L 500 90 L 500 79 Z" fill="#efefef" fill-rule="evenodd"/>
  <path d="M 412 79 L 412 90 L 423 90 L 423 79 Z" fill="#efefef" fill-rule="evenodd"/>
  <path d="M 361 79 L 361 90 L 372 90 L 372 79 Z" fill="#efefef" fill-rule="evenodd"/>
  <path d="M 156 79 L 156 90 L 167 90 L 167 79 Z" fill="#efefef" fill-rule="evenodd"/>
  <path d="M 28 79 L 28 90 L 39 90 L 39 79 Z" fill="#efefef" fill-rule="evenodd"/>
  <path d="M 476 41 L 476 52 L 487 52 L 487 41 Z" fill="#efefef" fill-rule="evenodd"/>
  <path d="M 348 41 L 348 52 L 359 52 L 359 41 Z" fill="#efefef" fill-rule="evenodd"/>
  <path d="M 297 41 L 297 52 L 308 52 L 308 41 Z" fill="#efefef" fill-rule="evenodd"/>
  <path d="M 220 41 L 220 52 L 231 52 L 231 41 Z" fill="#efefef" fill-rule="evenodd"/>
  <path d="M 92 41 L 92 52 L 103 52 L 103 41 Z" fill="#efefef" fill-rule="evenodd"/>
  <path d="M 489 28 L 489 39 L 500 39 L 500 28 Z" fill="#efefef" fill-rule="evenodd"/>
  <path d="M 463 28 L 463 39 L 474 39 L 474 28 Z" fill="#efefef" fill-rule="evenodd"/>
  <path d="M 412 28 L 412 39 L 423 39 L 423 28 Z" fill="#efefef" fill-rule="evenodd"/>
  <path d="M 361 28 L 361 39 L 372 39 L 372 28 Z" fill="#efefef" fill-rule="evenodd"/>
  <path d="M 284 28 L 284 39 L 295 39 L 295 28 Z" fill="#efefef" fill-rule="evenodd"/>
  <path d="M 233 28 L 233 39 L 244 39 L 244 28 Z" fill="#efefef" fill-rule="evenodd"/>
  <path d="M 207 28 L 207 39 L 218 39 L 218 28 Z" fill="#efefef" fill-rule="evenodd"/>
  <path d="M 156 28 L 156 39 L 167 39 L 167 28 Z" fill="#efefef" fill-rule="evenodd"/>
  <path d="M 105 28 L 105 39 L 116 39 L 116 28 Z" fill="#efefef" fill-rule="evenodd"/>
  <path d="M 79 28 L 79 39 L 90 39 L 90 28 Z" fill="#efefef" fill-rule="evenodd"/>
  <path d="M 28 28 L 28 39 L 39 39 L 39 28 Z" fill="#efefef" fill-rule="evenodd"/>
  <path d="M 476 15 L 476 26 L 487 26 L 487 15 Z" fill="#efefef" fill-rule="evenodd"/>
  <path d="M 425 15 L 425 26 L 436 26 L 436 15 Z" fill="#efefef" fill-rule="evenodd"/>
  <path d="M 348 15 L 348 26 L 359 26 L 359 15 Z" fill="#efefef" fill-rule="evenodd"/>
  <path d="M 220 15 L 220 26 L 231 26 L 231 15 Z" fill="#efefef" fill-rule="evenodd"/>
  <path d="M 143 15 L 143 26 L 154 26 L 154 15 Z" fill="#efefef" fill-rule="evenodd"/>
  <path d="M 92 15 L 92 26 L 103 26 L 103 15 Z" fill="#efefef" fill-rule="evenodd"/>
  <path d="M 284 374 L 284 385 L 295 385 L 295 377 L 289 373 Z" fill="#fefefe" fill-rule="evenodd"/>
  <path d="M 223 374 L 220 377 L 220 385 L 231 385 L 231 374 Z" fill="#efefef" fill-rule="evenodd"/>
  <path d="M 220 79 L 220 90 L 224 90 L 225 88 L 227 90 L 231 90 L 231 79 Z" fill="#fefefe" fill-rule="evenodd"/>
  <path d="M 359 412 L 348 413 L 348 423 L 359 423 Z" fill="#fefefe" fill-rule="evenodd"/>
  <path d="M 310 79 L 310 89 L 321 89 L 321 79 Z" fill="#efefef" fill-rule="evenodd"/>
  <path d="M 182 79 L 181 89 L 193 89 L 192 79 Z" fill="#efefef" fill-rule="evenodd"/>
  <path d="M 502 66 L 502 78 L 511 77 L 511 66 Z" fill="#efefef" fill-rule="evenodd"/>
  <path d="M 502 117 L 502 129 L 511 129 L 511 117 Z" fill="#efefef" fill-rule="evenodd"/>
  <path d="M 412 501 L 412 511 L 423 511 L 423 501 Z" fill="#fefefe" fill-rule="evenodd"/>
  <path d="M 284 501 L 284 511 L 295 511 L 295 501 Z" fill="#fefefe" fill-rule="evenodd"/>
  <path d="M 156 501 L 156 511 L 167 511 L 167 501 Z" fill="#fefefe" fill-rule="evenodd"/>
  <path d="M 28 501 L 28 511 L 39 511 L 39 501 Z" fill="#fefefe" fill-rule="evenodd"/>
  <path d="M 501 412 L 501 423 L 511 423 L 511 412 Z" fill="#fefefe" fill-rule="evenodd"/>
  <path d="M 501 284 L 501 295 L 511 295 L 511 284 Z" fill="#fefefe" fill-rule="evenodd"/>
  <path d="M 501 156 L 501 167 L 511 167 L 511 156 Z" fill="#fefefe" fill-rule="evenodd"/>
  <path d="M 501 28 L 501 39 L 511 39 L 511 28 Z" fill="#fefefe" fill-rule="evenodd"/>
  <path d="M 476 501 L 476 511 L 487 511 L 487 501 Z" fill="#efefef" fill-rule="evenodd"/>
  <path d="M 297 501 L 297 511 L 308 511 L 308 501 Z" fill="#efefef" fill-rule="evenodd"/>
  <path d="M 220 501 L 220 511 L 231 511 L 231 501 Z" fill="#efefef" fill-rule="evenodd"/>
  <path d="M 284 79 L 284 89 L 295 89 L 295 79 Z" fill="#efefef" fill-rule="evenodd"/>
  <path d="M 233 79 L 233 89 L 244 89 L 244 79 Z" fill="#efefef" fill-rule="evenodd"/>
  <path d="M 207 79 L 207 89 L 218 89 L 218 79 Z" fill="#efefef" fill-rule="evenodd"/>
  <path d="M 502 361 L 501 372 L 511 372 L 511 361 Z" fill="#fefefe" fill-rule="evenodd"/>
  <path d="M 501 425 L 502 436 L 511 436 L 511 425 Z" fill="#efefef" fill-rule="evenodd"/>
  <path d="M 501 297 L 501 308 L 511 308 L 511 297 Z" fill="#efefef" fill-rule="evenodd"/>
  <path d="M 501 476 L 502 487 L 511 487 L 511 476 Z" fill="#efefef" fill-rule="evenodd"/>
  <path d="M 348 502 L 348 511 L 359 511 L 359 502 Z" fill="#efefef" fill-rule="evenodd"/>
  <path d="M 169 502 L 169 511 L 180 511 L 180 501 Z" fill="#efefef" fill-rule="evenodd"/>
  <path d="M 501 41 L 502 52 L 511 52 L 511 41 Z" fill="#efefef" fill-rule="evenodd"/>
  <path d="M 143 502 L 143 511 L 154 511 L 154 502 Z" fill="#efefef" fill-rule="evenodd"/>
  <path d="M 167 412 L 165 414 L 156 413 L 156 423 L 167 423 Z" fill="#efefef" fill-rule="evenodd"/>
  <path d="M 502 169 L 502 180 L 511 180 L 511 169 Z" fill="#efefef" fill-rule="evenodd"/>
  <path d="M 425 501 L 425 511 L 436 511 L 436 502 Z" fill="#efefef" fill-rule="evenodd"/>
  <path d="M 374 501 L 374 511 L 385 511 L 385 502 Z" fill="#efefef" fill-rule="evenodd"/>
  <path d="M 92 501 L 92 511 L 103 511 L 103 501 Z" fill="#efefef" fill-rule="evenodd"/>
  <path d="M 501 348 L 502 359 L 511 359 L 511 348 Z" fill="#efefef" fill-rule="evenodd"/>
  <path d="M 501 220 L 502 231 L 511 231 L 511 220 Z" fill="#efefef" fill-rule="evenodd"/>
  <path d="M 41 501 L 41 511 L 52 511 L 52 501 Z" fill="#efefef" fill-rule="evenodd"/>
  <path d="M 502 374 L 502 385 L 511 385 L 511 374 Z" fill="#efefef" fill-rule="evenodd"/>
  <path d="M 193 399 L 189 399 L 185 404 L 182 404 L 181 410 L 193 410 Z" fill="#fefefe" fill-rule="evenodd"/>
  <path d="M 271 361 L 271 372 L 282 372 L 283 366 L 278 365 L 275 362 L 275 360 Z" fill="#fefefe" fill-rule="evenodd"/>
  <path d="M 244 361 L 240 361 L 233 367 L 233 372 L 244 372 Z" fill="#efefef" fill-rule="evenodd"/>
</svg>
