<svg xmlns="http://www.w3.org/2000/svg" width="512" height="512" viewBox="0 0 512 512" fill="none">
  <path d="M 251 160 L 148 248 L 150 387 L 168 399 L 220 399 L 223 313 L 237 296 L 264 290 L 277 294 L 294 313 L 297 399 L 354 398 L 370 378 L 370 247 L 268 162 Z M 264 241 L 284 241 L 287 244 L 288 258 L 287 263 L 283 267 L 265 267 L 261 264 L 259 260 L 260 246 Z M 229 242 L 252 242 L 254 245 L 254 263 L 250 267 L 230 266 L 226 261 L 227 244 Z M 261 211 L 264 209 L 284 209 L 288 215 L 288 229 L 283 236 L 265 235 L 261 232 L 261 230 L 259 229 Z M 228 211 L 231 209 L 252 210 L 254 212 L 254 231 L 249 236 L 232 236 L 226 229 Z" fill="#e9ded4" fill-rule="evenodd"/>
  <path d="M 121 219 L 122 233 L 129 242 L 150 245 L 248 160 L 261 157 L 362 243 L 381 245 L 395 229 L 392 212 L 369 191 L 366 124 L 327 121 L 318 130 L 316 144 L 280 112 L 263 104 L 237 111 L 127 208 Z" fill="#892233" fill-rule="evenodd"/>
  <path d="M 240 296 L 228 307 L 222 322 L 222 398 L 294 398 L 294 322 L 290 310 L 279 298 L 269 293 L 251 292 Z M 278 321 L 283 327 L 282 330 L 257 360 L 253 360 L 237 344 L 236 339 L 241 334 L 244 334 L 255 344 L 273 322 Z" fill="#28314d" fill-rule="evenodd"/>
  <path d="M 278 321 L 283 327 L 282 330 L 257 360 L 253 360 L 237 344 L 236 339 L 241 334 L 244 334 L 255 344 L 273 322 Z" fill="#28314d" fill-rule="evenodd"/>
  <path d="M 261 211 L 264 209 L 284 209 L 288 215 L 288 229 L 283 236 L 265 235 L 261 232 L 261 230 L 259 229 Z" fill="#e9ded4" fill-rule="evenodd"/>
  <path d="M 264 241 L 284 241 L 287 244 L 288 258 L 287 263 L 283 267 L 265 267 L 261 264 L 259 260 L 260 246 Z" fill="#e9ded4" fill-rule="evenodd"/>
  <path d="M 228 211 L 231 209 L 252 210 L 254 212 L 254 231 L 249 236 L 232 236 L 226 229 Z" fill="#e9ded4" fill-rule="evenodd"/>
  <path d="M 229 242 L 252 242 L 254 245 L 254 263 L 250 267 L 230 266 L 226 261 L 227 244 Z" fill="#e9ded4" fill-rule="evenodd"/>
  <path d="M 279 323 L 274 323 L 256 345 L 254 345 L 245 336 L 240 336 L 238 338 L 238 343 L 253 359 L 257 359 L 280 331 L 281 325 Z" fill="#c49967" fill-rule="evenodd"/>
  <path d="M 231 211 L 229 213 L 229 231 L 231 233 L 250 233 L 253 230 L 252 212 L 249 210 Z" fill="#28314d" fill-rule="evenodd"/>
  <path d="M 262 245 L 262 262 L 264 265 L 285 264 L 286 246 L 284 243 L 266 242 Z" fill="#28314d" fill-rule="evenodd"/>
  <path d="M 262 213 L 262 230 L 264 233 L 285 232 L 286 214 L 284 211 L 266 210 Z" fill="#28314d" fill-rule="evenodd"/>
  <path d="M 231 243 L 229 245 L 230 264 L 250 265 L 253 262 L 252 244 L 249 242 Z" fill="#28314d" fill-rule="evenodd"/>
</svg>
