<svg xmlns="http://www.w3.org/2000/svg" width="1024" height="1024" viewBox="0 0 1024 1024">
<g>
<path d="M 586.50 717.50 L 586.50 795.50 L 513.72 795.76 C454.21,795.97 440.85,795.77 440.44,794.69 C440.16,793.97 440.06,758.08 440.23,714.94 L 440.52 636.50 L 443.20 629.25 C447.94,616.43 452.00,609.99 460.99,601.00 C470.78,591.22 477.44,586.99 489.69,582.77 C504.98,577.50 525.28,577.87 539.92,583.69 C561.35,592.20 578.43,611.05 584.68,633.09 C586.37,639.04 586.50,645.09 586.50,717.50 ZM 504.32 716.15 C507.47,717.09 507.64,717.09 510.18,716.11 C511.46,715.61 515.74,711.23 519.71,706.36 C549.70,669.52 560.16,656.20 560.65,654.25 C562.21,648.04 556.64,641.00 550.16,641.00 C547.96,641.00 545.43,641.28 544.54,641.62 C543.65,641.97 535.31,651.79 526.01,663.46 C516.72,675.12 508.42,685.24 507.57,685.94 C506.25,687.04 504.62,685.76 496.26,677.10 C486.82,667.30 486.36,666.98 482.15,666.99 C478.55,667.00 477.22,667.58 474.40,670.40 C471.56,673.24 471.00,674.53 471.00,678.21 C471.00,682.52 471.32,682.95 486.57,699.06 C495.13,708.10 503.12,715.79 504.32,716.15 ZM 564.00 464.25 C558.71,466.89 532.27,466.76 526.33,464.06 C524.04,463.02 521.68,461.26 521.08,460.15 C520.42,458.92 520.00,451.21 520.00,440.47 L 520.00 422.80 L 523.40 419.40 L 526.80 416.00 L 544.77 416.00 C561.68,416.00 562.89,416.13 565.49,418.17 C570.12,421.81 571.00,425.50 571.00,441.22 C571.00,457.65 569.88,461.31 564.00,464.25 ZM 564.00 528.25 C558.71,530.89 532.27,530.76 526.33,528.06 C524.04,527.02 521.68,525.26 521.08,524.15 C520.42,522.92 520.00,515.24 520.00,504.58 L 520.00 487.03 L 525.84 480.50 L 544.81 480.50 C562.38,480.50 563.96,480.65 566.03,482.50 C570.17,486.18 571.00,490.00 571.00,505.22 C571.00,521.65 569.88,525.31 564.00,528.25 ZM 497.64 528.37 C492.32,530.89 466.09,530.68 460.33,528.06 C453.96,525.17 453.55,523.77 453.52,504.83 C453.50,489.45 453.66,487.94 455.60,485.33 C459.21,480.45 461.13,480.03 479.85,480.01 L 497.20 480.00 L 504.00 486.80 L 504.00 503.95 C504.00,523.24 503.37,525.65 497.64,528.37 ZM 497.02 464.38 C493.90,465.63 489.56,465.99 478.23,465.96 C455.83,465.90 454.21,464.69 453.30,447.28 C452.46,431.36 453.50,423.59 457.01,419.67 L 459.84 416.50 L 498.16 416.50 L 504.00 423.03 L 504.00 440.07 C504.00,459.74 503.40,461.82 497.02,464.38 Z" fill="rgb(40,49,76)"/>
<path d="M 295.15 488.52 C285.56,491.76 276.87,491.79 267.89,488.63 C244.48,480.36 232.56,457.93 238.83,433.92 C241.67,423.05 246.05,417.03 260.50,404.15 C288.87,378.86 300.20,368.81 316.50,354.48 C325.85,346.25 348.80,326.00 367.50,309.48 C386.20,292.95 416.51,266.17 434.85,249.96 C471.82,217.30 474.40,215.26 484.67,210.40 C494.12,205.94 502.59,204.03 513.11,204.01 C535.17,203.98 544.97,208.77 572.70,233.14 C582.49,241.74 599.50,256.70 610.50,266.37 C621.50,276.05 630.84,283.97 631.25,283.98 C631.66,283.99 632.01,278.04 632.02,270.75 C632.04,259.60 632.37,256.79 634.08,253.00 C636.57,247.49 641.18,242.54 646.50,239.66 C650.32,237.60 651.92,237.49 682.28,237.19 C717.46,236.84 721.35,237.32 728.03,242.86 C729.98,244.47 732.90,248.20 734.53,251.14 L 737.50 256.50 L 737.83 318.00 L 738.16 379.50 L 757.58 396.50 C768.27,405.85 778.38,415.40 780.05,417.72 C786.76,427.06 790.88,441.35 789.48,450.46 C785.53,476.21 763.47,493.77 739.43,490.31 C727.30,488.56 720.05,484.27 701.50,467.88 C673.07,442.75 621.45,397.26 586.55,366.56 C567.82,350.09 548.00,332.61 542.50,327.72 C537.00,322.83 530.92,318.01 529.00,317.03 C519.94,312.38 507.05,312.40 497.85,317.06 C493.23,319.41 491.94,320.50 454.03,354.00 C440.64,365.83 425.10,379.55 419.48,384.50 C336.48,457.65 310.26,480.56 306.72,483.05 C304.40,484.69 299.19,487.15 295.15,488.52 Z" fill="rgb(137,34,50)"/>

<path d="M 504.32 716.15 C503.12,715.79 495.13,708.10 486.57,699.06 C471.32,682.95 471.00,682.52 471.00,678.21 C471.00,674.53 471.56,673.24 474.40,670.40 C477.22,667.58 478.55,667.00 482.15,666.99 C486.36,666.98 486.82,667.30 496.26,677.10 C504.62,685.76 506.25,687.04 507.57,685.94 C508.42,685.24 516.72,675.12 526.01,663.46 C535.31,651.79 543.65,641.97 544.54,641.62 C545.43,641.28 547.96,641.00 550.16,641.00 C556.64,641.00 562.21,648.04 560.65,654.25 C560.16,656.20 549.70,669.52 519.71,706.36 C515.74,711.23 511.46,715.61 510.18,716.11 C507.64,717.09 507.47,717.09 504.32,716.15 Z" fill="rgb(196,156,100)"/>
<path d="M 339.45 795.00 C325.58,794.51 325.29,794.45 317.56,790.63 C307.80,785.80 301.20,779.14 296.20,769.05 L 292.50 761.60 L 292.24 625.52 L 291.97 489.44 L 296.60 488.08 C304.91,485.62 300.72,489.16 419.48,384.50 C425.10,379.55 440.64,365.83 454.03,354.00 C491.94,320.50 493.23,319.41 497.85,317.06 C507.05,312.40 519.94,312.38 529.00,317.03 C530.92,318.01 537.00,322.83 542.50,327.72 C548.00,332.61 567.82,350.09 586.55,366.56 C621.45,397.26 673.07,442.75 701.50,467.88 C718.16,482.60 726.81,488.13 736.00,489.91 C738.47,490.39 739.83,490.83 739.00,490.89 C737.67,490.99 737.51,506.18 737.62,621.75 C737.74,744.87 737.64,752.92 735.93,759.67 C734.94,763.61 733.23,768.59 732.14,770.72 C729.13,776.63 721.53,784.54 715.19,788.36 C703.40,795.47 705.73,795.24 643.00,795.40 L 586.50 795.54 L 586.50 717.52 C586.50,645.09 586.37,639.04 584.68,633.09 C578.43,611.05 561.35,592.20 539.92,583.69 C525.28,577.87 504.98,577.50 489.69,582.77 C477.44,586.99 470.79,591.22 460.98,601.00 C451.84,610.12 447.25,617.61 442.87,630.50 L 440.50 637.50 L 440.50 716.59 L 440.50 795.69 L 397.00 795.59 C373.08,795.54 347.18,795.28 339.45,795.00 ZM 497.64 528.37 C503.37,525.65 504.00,523.24 504.00,503.95 L 504.00 486.80 L 500.60 483.40 L 497.20 480.00 L 479.85 480.01 C461.13,480.03 459.21,480.45 455.60,485.33 C453.66,487.94 453.50,489.45 453.52,504.83 C453.55,523.77 453.96,525.17 460.33,528.06 C466.09,530.68 492.32,530.89 497.64,528.37 ZM 564.00 528.25 C569.88,525.31 571.00,521.65 571.00,505.22 C571.00,490.00 570.17,486.18 566.03,482.50 C563.96,480.65 562.38,480.50 544.81,480.50 L 525.84 480.50 L 522.92 483.77 L 520.00 487.03 L 520.00 504.58 C520.00,515.24 520.42,522.92 521.08,524.15 C521.68,525.26 524.04,527.02 526.33,528.06 C532.27,530.76 558.71,530.89 564.00,528.25 ZM 497.02 464.38 C503.40,461.82 504.00,459.74 504.00,440.07 L 504.00 423.03 L 501.08 419.77 L 498.16 416.50 L 479.00 416.50 L 459.84 416.50 L 457.01 419.67 C453.50,423.59 452.46,431.36 453.30,447.28 C454.21,464.69 455.83,465.90 478.23,465.96 C489.56,465.99 493.90,465.63 497.02,464.38 ZM 564.00 464.25 C569.88,461.31 571.00,457.65 571.00,441.22 C571.00,425.50 570.12,421.81 565.49,418.17 C562.89,416.13 561.68,416.00 544.77,416.00 L 526.80 416.00 L 523.40 419.40 L 520.00 422.80 L 520.00 440.47 C520.00,451.21 520.42,458.92 521.08,460.15 C521.68,461.26 524.04,463.02 526.33,464.06 C532.27,466.76 558.71,466.89 564.00,464.25 Z" fill="rgb(232,221,212)"/>
</g>
</svg>