<svg xmlns="http://www.w3.org/2000/svg" width="1024" height="1024" viewBox="0 0 1024 1024">
<g>
<path d="M 623.00 666.30 C623.00,795.01 622.74,827.99 621.75,827.97 C621.06,827.95 604.30,820.95 584.50,812.40 C564.70,803.86 540.85,793.57 531.50,789.54 C522.15,785.51 507.08,778.97 498.00,775.02 C468.85,762.31 405.57,735.30 403.25,734.57 L 401.00 733.87 L 401.00 620.77 C401.00,558.70 401.17,508.08 401.39,508.08 L 401.39 508.08 C401.61,508.31 406.61,515.25 412.52,523.50 C430.55,548.67 447.19,569.32 474.74,600.72 C486.99,614.67 488.71,616.24 495.44,619.57 C502.58,623.10 503.06,623.19 512.14,622.82 C526.88,622.22 530.01,620.29 546.29,601.67 C574.42,569.53 593.09,546.29 610.71,521.50 C616.57,513.25 621.74,506.07 622.19,505.55 C622.63,505.03 623.00,577.36 623.00,666.30 Z" fill="rgb(136,170,206)"/>
<path d="M 623.00 666.20 C623.00,577.31 622.63,505.03 622.19,505.55 C621.74,506.07 616.57,513.25 610.71,521.50 C593.09,546.29 574.42,569.53 546.29,601.67 C530.01,620.29 526.88,622.22 512.14,622.82 C503.06,623.19 502.58,623.10 495.44,619.57 C488.71,616.24 486.99,614.67 474.74,600.72 C447.19,569.32 430.55,548.67 412.52,523.50 C406.61,515.25 401.61,508.31 401.39,508.08 L 401.39 508.08 C401.18,508.08 401.00,558.53 401.00,620.44 L 401.00 507.02 L 396.33 499.76 C371.99,461.90 357.69,428.93 350.81,394.86 C348.84,385.10 348.52,380.54 348.56,362.50 C348.60,343.64 348.88,340.21 351.28,328.90 C357.95,297.47 372.09,270.42 393.50,248.13 C411.62,229.27 429.39,217.52 453.27,208.60 C490.09,194.85 529.48,194.54 567.42,207.70 C607.31,221.54 641.71,253.31 659.24,292.50 C686.84,354.16 677.03,419.32 628.68,495.45 L 623.00 504.39 ZM 493.00 428.65 C503.01,431.64 517.57,431.80 528.39,429.03 C540.52,425.93 549.24,420.81 559.08,411.03 C566.26,403.89 568.43,400.94 572.31,393.00 C582.83,371.48 582.21,349.37 570.49,328.42 C563.04,315.10 547.46,302.43 533.00,297.92 C501.84,288.22 468.12,300.59 452.23,327.56 C435.98,355.13 440.05,388.06 462.49,410.52 C471.48,419.53 480.61,424.95 493.00,428.65 Z" fill="rgb(140,27,42)"/>
<path d="M 623.00 666.30 L 623.00 504.39 L 628.68 495.45 C643.24,472.51 654.31,450.58 661.91,429.43 C659.69,436.32 658.20,441.53 658.41,441.74 C658.66,442.00 662.84,440.40 667.69,438.20 C672.53,435.99 683.47,431.19 692.00,427.53 C700.53,423.87 713.58,418.23 721.00,414.99 C757.35,399.14 761.02,397.99 774.96,398.03 C782.16,398.05 786.11,398.60 791.06,400.29 C809.17,406.46 823.51,421.17 829.29,439.50 L 831.50 446.50 L 831.50 738.50 L 829.19 745.19 C824.64,758.36 815.20,769.44 803.06,775.87 C800.00,777.49 786.70,782.05 773.50,786.00 C760.30,789.95 744.78,794.67 739.00,796.48 C723.63,801.32 676.47,815.60 669.50,817.54 C666.20,818.45 656.39,821.41 647.71,824.10 C631.13,829.25 623.95,830.09 619.00,827.46 C617.97,826.92 608.75,822.86 596.57,817.58 C610.69,823.60 621.21,827.96 621.75,827.97 C622.74,827.99 623.00,795.01 623.00,666.30 ZM 357.19 419.63 C365.25,445.27 377.92,471.11 396.33,499.76 L 401.00 507.02 L 401.00 733.87 L 403.25 734.57 C403.26,734.58 403.27,734.58 403.28,734.58 C401.66,734.11 392.74,737.20 371.80,745.51 C355.68,751.90 331.02,761.66 317.00,767.19 C302.98,772.73 289.70,778.05 287.50,779.00 C271.83,785.81 266.56,787.25 255.50,787.75 C247.42,788.12 242.89,787.84 238.42,786.69 C216.88,781.16 201.74,766.83 194.37,745.00 C192.59,739.76 192.49,732.74 192.23,594.29 C192.22,589.91 192.21,585.66 192.21,581.52 C191.96,452.75 191.94,442.12 195.75,433.11 C196.22,432.01 196.74,430.93 197.33,429.67 C203.36,416.68 215.41,405.36 228.50,400.39 C234.04,398.28 237.81,397.62 246.58,397.24 C260.30,396.65 263.26,397.43 286.98,407.98 C349.22,435.65 361.60,441.00 363.37,441.00 C364.59,441.00 364.42,439.92 362.47,435.11 C360.88,431.20 359.01,425.66 357.19,419.63 ZM 673.86 376.43 C676.27,347.36 671.37,319.59 659.24,292.50 C671.55,320.01 676.40,347.37 673.86,376.43 Z" fill="rgb(180,204,231)"/>

</g>
</svg>