<svg xmlns="http://www.w3.org/2000/svg" width="512" height="512" viewBox="0 0 512 512" fill="none">
  <path d="M 254 101 L 226 107 L 199 125 L 182 151 L 176 188 L 182 216 L 203 256 L 246 309 L 262 312 L 289 285 L 319 243 L 334 210 L 338 178 L 331 149 L 313 123 L 288 107 Z M 250 148 L 264 148 L 276 153 L 287 164 L 292 176 L 292 190 L 286 203 L 274 214 L 263 218 L 251 218 L 237 212 L 227 202 L 222 190 L 222 175 L 225 167 L 235 155 Z" fill="#8c1b2a" fill-rule="evenodd"/>
  <path d="M 398 202 L 379 202 L 331 223 L 314 253 L 315 416 L 399 391 L 408 386 L 416 374 L 417 227 L 412 213 Z" fill="#b4cde8" fill-rule="evenodd"/>
  <path d="M 124 200 L 111 204 L 101 215 L 98 224 L 98 370 L 102 381 L 110 390 L 122 395 L 133 395 L 201 368 L 201 255 L 182 222 L 134 201 Z" fill="#b4cde8" fill-rule="evenodd"/>
  <path d="M 202 258 L 202 368 L 312 414 L 313 256 L 272 307 L 261 314 L 245 310 Z" fill="#88acd1" fill-rule="evenodd"/>
  <path d="M 250 148 L 264 148 L 276 153 L 287 164 L 292 176 L 292 190 L 286 203 L 274 214 L 263 218 L 251 218 L 237 212 L 227 202 L 222 190 L 222 175 L 225 167 L 235 155 Z" fill="#8c1b2a" fill-rule="evenodd"/>
</svg>
