<svg xmlns="http://www.w3.org/2000/svg" width="512" height="512" viewBox="0 0 512 512" fill="none">
  <path d="M 0 0 L 18 18 L 0 34 L 18 50 L 0 66 L 18 82 L 0 98 L 18 114 L 0 130 L 18 146 L 0 162 L 18 178 L 0 194 L 18 210 L 0 226 L 18 242 L 0 258 L 18 274 L 0 290 L 18 306 L 0 322 L 18 338 L 0 354 L 18 370 L 0 386 L 18 402 L 0 497 L 511 511 L 497 0 L 481 18 L 465 0 L 449 18 L 433 0 L 417 18 L 401 0 L 385 18 L 369 0 L 353 18 L 337 0 L 321 18 L 305 0 L 289 18 L 273 0 L 257 18 L 241 0 L 225 18 L 209 0 L 193 18 L 177 0 L 161 18 L 145 0 L 129 18 L 113 0 L 97 18 Z M 465 482 L 481 481 L 482 497 L 466 498 Z M 433 482 L 449 481 L 450 497 L 434 498 Z M 401 482 L 417 481 L 418 497 L 402 498 Z M 369 482 L 385 481 L 386 497 L 370 498 Z M 337 482 L 353 481 L 354 497 L 338 498 Z M 305 482 L 321 481 L 322 497 L 306 498 Z M 273 482 L 289 481 L 290 497 L 274 498 Z M 241 482 L 257 481 L 258 497 L 242 498 Z M 209 482 L 225 481 L 226 497 L 210 498 Z M 177 482 L 193 481 L 194 497 L 178 498 Z M 145 482 L 161 481 L 162 497 L 146 498 Z M 113 482 L 129 481 L 130 497 L 114 498 Z M 81 482 L 97 481 L 98 497 L 82 498 Z M 49 482 L 65 481 L 66 497 L 50 498 Z M 17 482 L 33 481 L 34 497 L 18 498 Z M 481 466 L 497 465 L 498 481 L 482 482 Z M 449 466 L 465 465 L 466 481 L 450 482 Z M 417 466 L 433 465 L 434 481 L 418 482 Z M 385 466 L 401 465 L 402 481 L 386 482 Z M 353 466 L 369 465 L 370 481 L 354 482 Z M 321 466 L 337 465 L 338 481 L 322 482 Z M 289 466 L 305 465 L 306 481 L 290 482 Z M 257 466 L 273 465 L 274 481 L 258 482 Z M 225 466 L 241 465 L 242 481 L 226 482 Z M 193 466 L 209 465 L 210 481 L 194 482 Z M 161 466 L 177 465 L 178 481 L 162 482 Z M 129 466 L 145 465 L 146 481 L 130 482 Z M 97 466 L 113 465 L 114 481 L 98 482 Z M 65 466 L 81 465 L 82 481 L 66 482 Z M 33 466 L 49 465 L 50 481 L 34 482 Z M 465 450 L 481 449 L 482 465 L 466 466 Z M 433 450 L 449 449 L 450 465 L 434 466 Z M 401 450 L 417 449 L 418 465 L 402 466 Z M 369 450 L 385 449 L 386 465 L 370 466 Z M 337 450 L 353 449 L 354 465 L 338 466 Z M 305 450 L 321 449 L 322 465 L 306 466 Z M 273 450 L 289 449 L 290 465 L 274 466 Z M 241 450 L 257 449 L 258 465 L 242 466 Z M 209 450 L 225 449 L 226 465 L 210 466 Z M 177 450 L 193 449 L 194 465 L 178 466 Z M 145 450 L 161 449 L 162 465 L 146 466 Z M 113 450 L 129 449 L 130 465 L 114 466 Z M 81 450 L 97 449 L 98 465 L 82 466 Z M 49 450 L 65 449 L 66 465 L 50 466 Z M 17 450 L 33 449 L 34 465 L 18 466 Z M 481 434 L 497 433 L 498 449 L 482 450 Z M 449 434 L 465 433 L 466 449 L 450 450 Z M 417 434 L 433 433 L 434 449 L 418 450 Z M 385 434 L 401 433 L 402 449 L 386 450 Z M 353 434 L 369 433 L 370 449 L 354 450 Z M 321 434 L 337 433 L 338 449 L 322 450 Z M 289 434 L 305 433 L 306 449 L 290 450 Z M 257 434 L 273 433 L 274 449 L 258 450 Z M 225 434 L 241 433 L 242 449 L 226 450 Z M 193 434 L 209 433 L 210 449 L 194 450 Z M 161 434 L 177 433 L 178 449 L 162 450 Z M 129 434 L 145 433 L 146 449 L 130 450 Z M 97 434 L 113 433 L 114 449 L 98 450 Z M 65 434 L 81 433 L 82 449 L 66 450 Z M 33 434 L 49 433 L 50 449 L 34 450 Z M 465 418 L 481 417 L 482 433 L 466 434 Z M 433 418 L 449 417 L 450 433 L 434 434 Z M 401 418 L 417 417 L 418 433 L 402 434 Z M 369 418 L 385 417 L 386 433 L 370 434 Z M 337 418 L 353 417 L 354 433 L 338 434 Z M 273 418 L 289 417 L 290 433 L 274 434 Z M 241 418 L 257 417 L 258 433 L 242 434 Z M 209 418 L 225 417 L 226 433 L 210 434 Z M 177 418 L 193 417 L 194 433 L 178 434 Z M 145 418 L 161 417 L 162 433 L 146 434 Z M 113 418 L 129 417 L 130 433 L 114 434 Z M 81 418 L 97 417 L 98 433 L 82 434 Z M 49 418 L 65 417 L 66 433 L 50 434 Z M 17 418 L 33 417 L 34 433 L 18 434 Z M 481 402 L 497 401 L 498 417 L 482 418 Z M 449 402 L 465 401 L 466 417 L 450 418 Z M 417 402 L 433 401 L 434 417 L 418 418 Z M 385 402 L 401 401 L 402 417 L 386 418 Z M 257 402 L 273 401 L 274 417 L 258 418 Z M 225 402 L 241 401 L 242 417 L 226 418 Z M 193 402 L 209 401 L 210 417 L 194 418 Z M 161 402 L 177 401 L 178 417 L 162 418 Z M 129 402 L 145 401 L 146 417 L 130 418 Z M 97 402 L 113 401 L 114 417 L 98 418 Z M 65 402 L 81 401 L 82 417 L 66 418 Z M 33 402 L 49 401 L 50 417 L 34 418 Z M 465 386 L 481 385 L 482 401 L 466 402 Z M 433 386 L 449 385 L 450 401 L 434 402 Z M 209 386 L 225 385 L 226 401 L 210 402 Z M 177 386 L 193 385 L 194 401 L 178 402 Z M 81 386 L 97 385 L 98 401 L 82 402 Z M 49 386 L 65 385 L 66 401 L 50 402 Z M 17 386 L 33 385 L 34 401 L 18 402 Z M 481 370 L 497 369 L 498 385 L 482 386 Z M 449 370 L 465 369 L 466 385 L 450 386 Z M 65 370 L 81 369 L 82 385 L 66 386 Z M 33 370 L 49 369 L 50 385 L 34 386 Z M 465 354 L 481 353 L 482 369 L 466 370 Z M 433 354 L 449 353 L 450 369 L 434 370 Z M 49 354 L 65 353 L 66 369 L 50 370 Z M 17 354 L 33 353 L 34 369 L 18 370 Z M 481 338 L 497 337 L 498 353 L 482 354 Z M 449 338 L 465 337 L 466 353 L 450 354 Z M 65 338 L 81 337 L 82 353 L 66 354 Z M 33 338 L 49 337 L 50 353 L 34 354 Z M 465 322 L 481 321 L 482 337 L 466 338 Z M 433 322 L 449 321 L 450 337 L 434 338 Z M 49 322 L 65 321 L 66 337 L 50 338 Z M 17 322 L 33 321 L 34 337 L 18 338 Z M 481 306 L 497 305 L 498 321 L 482 322 Z M 449 306 L 465 305 L 466 321 L 450 322 Z M 65 306 L 81 305 L 82 321 L 66 322 Z M 33 306 L 49 305 L 50 321 L 34 322 Z M 465 290 L 481 289 L 482 305 L 466 306 Z M 433 290 L 449 289 L 450 305 L 434 306 Z M 49 290 L 65 289 L 66 305 L 50 306 Z M 17 290 L 33 289 L 34 305 L 18 306 Z M 481 274 L 497 273 L 498 289 L 482 290 Z M 449 274 L 465 273 L 466 289 L 450 290 Z M 65 274 L 81 273 L 82 289 L 66 290 Z M 33 274 L 49 273 L 50 289 L 34 290 Z M 465 258 L 481 257 L 482 273 L 466 274 Z M 433 258 L 449 257 L 450 273 L 434 274 Z M 49 258 L 65 257 L 66 273 L 50 274 Z M 17 258 L 33 257 L 34 273 L 18 274 Z M 481 242 L 497 241 L 498 257 L 482 258 Z M 449 242 L 465 241 L 466 257 L 450 258 Z M 65 242 L 81 241 L 82 257 L 66 258 Z M 33 242 L 49 241 L 50 257 L 34 258 Z M 465 226 L 481 225 L 482 241 L 466 242 Z M 433 226 L 449 225 L 450 241 L 434 242 Z M 49 226 L 65 225 L 66 241 L 50 242 Z M 17 226 L 33 225 L 34 241 L 18 242 Z M 481 210 L 497 209 L 498 225 L 482 226 Z M 449 210 L 465 209 L 466 225 L 450 226 Z M 65 210 L 81 209 L 82 225 L 66 226 Z M 33 210 L 49 209 L 50 225 L 34 226 Z M 465 194 L 481 193 L 482 209 L 466 210 Z M 433 194 L 449 193 L 450 209 L 434 210 Z M 81 194 L 97 193 L 98 209 L 82 210 Z M 49 194 L 65 193 L 66 209 L 50 210 Z M 17 194 L 33 193 L 34 209 L 18 210 Z M 481 178 L 497 177 L 498 193 L 482 194 Z M 449 178 L 465 177 L 466 193 L 450 194 Z M 417 178 L 433 177 L 434 193 L 418 194 Z M 385 178 L 401 177 L 402 193 L 386 194 Z M 353 178 L 369 177 L 370 193 L 354 194 Z M 129 178 L 145 177 L 146 193 L 130 194 Z M 97 178 L 113 177 L 114 193 L 98 194 Z M 65 178 L 81 177 L 82 193 L 66 194 Z M 33 178 L 49 177 L 50 193 L 34 194 Z M 465 162 L 481 161 L 482 177 L 466 178 Z M 433 162 L 449 161 L 450 177 L 434 178 Z M 401 162 L 417 161 L 418 177 L 402 178 Z M 369 162 L 385 161 L 386 177 L 370 178 Z M 145 162 L 161 161 L 162 177 L 146 178 Z M 113 162 L 129 161 L 130 177 L 114 178 Z M 81 162 L 97 161 L 98 177 L 82 178 Z M 49 162 L 65 161 L 66 177 L 50 178 Z M 17 162 L 33 161 L 34 177 L 18 178 Z M 481 146 L 497 145 L 498 161 L 482 162 Z M 449 146 L 465 145 L 466 161 L 450 162 Z M 417 146 L 433 145 L 434 161 L 418 162 Z M 385 146 L 401 145 L 402 161 L 386 162 Z M 353 146 L 369 145 L 370 161 L 354 162 Z M 129 146 L 145 145 L 146 161 L 130 162 Z M 97 146 L 113 145 L 114 161 L 98 162 Z M 65 146 L 81 145 L 82 161 L 66 162 Z M 33 146 L 49 145 L 50 161 L 34 162 Z M 465 130 L 481 129 L 482 145 L 466 146 Z M 433 130 L 449 129 L 450 145 L 434 146 Z M 401 130 L 417 129 L 418 145 L 402 146 Z M 369 130 L 385 129 L 386 145 L 370 146 Z M 337 130 L 353 129 L 354 145 L 338 146 Z M 145 130 L 161 129 L 162 145 L 146 146 Z M 113 130 L 129 129 L 130 145 L 114 146 Z M 81 130 L 97 129 L 98 145 L 82 146 Z M 49 130 L 65 129 L 66 145 L 50 146 Z M 17 130 L 33 129 L 34 145 L 18 146 Z M 481 114 L 497 113 L 498 129 L 482 130 Z M 449 114 L 465 113 L 466 129 L 450 130 Z M 417 114 L 433 113 L 434 129 L 418 130 Z M 385 114 L 401 113 L 402 129 L 386 130 Z M 353 114 L 369 113 L 370 129 L 354 130 Z M 161 114 L 177 113 L 178 129 L 162 130 Z M 129 114 L 145 113 L 146 129 L 130 130 Z M 97 114 L 113 113 L 114 129 L 98 130 Z M 65 114 L 81 113 L 82 129 L 66 130 Z M 33 114 L 49 113 L 50 129 L 34 130 Z M 465 98 L 481 97 L 482 113 L 466 114 Z M 433 98 L 449 97 L 450 113 L 434 114 Z M 401 98 L 417 97 L 418 113 L 402 114 Z M 369 98 L 385 97 L 386 113 L 370 114 Z M 337 98 L 353 97 L 354 113 L 338 114 Z M 305 98 L 321 97 L 322 113 L 306 114 Z M 81 226 L 97 225 L 114 193 L 144 205 L 161 193 L 158 211 L 177 209 L 181 221 L 174 194 L 161 193 L 177 164 L 161 161 L 161 146 L 179 154 L 177 130 L 193 129 L 210 97 L 289 97 L 320 129 L 322 113 L 337 113 L 338 129 L 324 134 L 338 161 L 354 162 L 354 177 L 339 178 L 354 209 L 338 218 L 368 206 L 370 193 L 399 202 L 417 193 L 416 220 L 434 210 L 434 225 L 418 226 L 418 241 L 434 242 L 434 257 L 418 258 L 418 273 L 434 274 L 434 289 L 418 290 L 418 305 L 434 306 L 434 321 L 418 322 L 418 337 L 434 338 L 434 353 L 418 354 L 434 385 L 416 375 L 417 402 L 390 394 L 370 402 L 369 418 L 354 418 L 353 406 L 317 416 L 321 434 L 305 433 L 312 416 L 290 418 L 261 394 L 242 402 L 240 386 L 212 373 L 209 386 L 194 386 L 193 373 L 162 386 L 161 402 L 145 392 L 114 402 L 98 371 L 81 369 L 81 354 L 97 353 L 97 338 L 81 337 L 81 322 L 97 321 L 97 306 L 81 305 L 81 290 L 97 289 L 97 274 L 81 273 L 81 258 L 97 257 Z M 177 98 L 193 97 L 194 113 L 178 114 Z M 145 98 L 161 97 L 162 113 L 146 114 Z M 113 98 L 129 97 L 130 113 L 114 114 Z M 81 98 L 97 97 L 98 113 L 82 114 Z M 49 98 L 65 97 L 66 113 L 50 114 Z M 17 98 L 33 97 L 34 113 L 18 114 Z M 481 82 L 497 81 L 498 97 L 482 98 Z M 449 82 L 465 81 L 466 97 L 450 98 Z M 417 82 L 433 81 L 434 97 L 418 98 Z M 385 82 L 401 81 L 402 97 L 386 98 Z M 353 82 L 369 81 L 370 97 L 354 98 Z M 321 82 L 337 81 L 338 97 L 322 98 Z M 289 82 L 305 81 L 306 97 L 290 98 Z M 257 82 L 273 81 L 274 97 L 258 98 Z M 225 82 L 241 81 L 242 97 L 226 98 Z M 193 82 L 209 81 L 210 97 L 194 98 Z M 161 82 L 177 81 L 178 97 L 162 98 Z M 129 82 L 145 81 L 146 97 L 130 98 Z M 97 82 L 113 81 L 114 97 L 98 98 Z M 65 82 L 81 81 L 82 97 L 66 98 Z M 33 82 L 49 81 L 50 97 L 34 98 Z M 465 66 L 481 65 L 482 81 L 466 82 Z M 433 66 L 449 65 L 450 81 L 434 82 Z M 401 66 L 417 65 L 418 81 L 402 82 Z M 369 66 L 385 65 L 386 81 L 370 82 Z M 337 66 L 353 65 L 354 81 L 338 82 Z M 305 66 L 321 65 L 322 81 L 306 82 Z M 273 66 L 289 65 L 290 81 L 274 82 Z M 241 66 L 257 65 L 258 81 L 242 82 Z M 209 66 L 225 65 L 226 81 L 210 82 Z M 177 66 L 193 65 L 194 81 L 178 82 Z M 145 66 L 161 65 L 162 81 L 146 82 Z M 113 66 L 129 65 L 130 81 L 114 82 Z M 81 66 L 97 65 L 98 81 L 82 82 Z M 49 66 L 65 65 L 66 81 L 50 82 Z M 17 66 L 33 65 L 34 81 L 18 82 Z M 481 50 L 497 49 L 498 65 L 482 66 Z M 449 50 L 465 49 L 466 65 L 450 66 Z M 417 50 L 433 49 L 434 65 L 418 66 Z M 385 50 L 401 49 L 402 65 L 386 66 Z M 353 50 L 369 49 L 370 65 L 354 66 Z M 321 50 L 337 49 L 338 65 L 322 66 Z M 289 50 L 305 49 L 306 65 L 290 66 Z M 257 50 L 273 49 L 274 65 L 258 66 Z M 225 50 L 241 49 L 242 65 L 226 66 Z M 193 50 L 209 49 L 210 65 L 194 66 Z M 161 50 L 177 49 L 178 65 L 162 66 Z M 129 50 L 145 49 L 146 65 L 130 66 Z M 97 50 L 113 49 L 114 65 L 98 66 Z M 65 50 L 81 49 L 82 65 L 66 66 Z M 33 50 L 49 49 L 50 65 L 34 66 Z M 465 34 L 481 33 L 482 49 L 466 50 Z M 433 34 L 449 33 L 450 49 L 434 50 Z M 401 34 L 417 33 L 418 49 L 402 50 Z M 369 34 L 385 33 L 386 49 L 370 50 Z M 337 34 L 353 33 L 354 49 L 338 50 Z M 305 34 L 321 33 L 322 49 L 306 50 Z M 273 34 L 289 33 L 290 49 L 274 50 Z M 241 34 L 257 33 L 258 49 L 242 50 Z M 209 34 L 225 33 L 226 49 L 210 50 Z M 177 34 L 193 33 L 194 49 L 178 50 Z M 145 34 L 161 33 L 162 49 L 146 50 Z M 113 34 L 129 33 L 130 49 L 114 50 Z M 81 34 L 97 33 L 98 49 L 82 50 Z M 49 34 L 65 33 L 66 49 L 50 50 Z M 17 34 L 33 33 L 34 49 L 18 50 Z M 481 18 L 497 17 L 498 33 L 482 34 Z M 449 18 L 465 17 L 466 33 L 450 34 Z M 417 18 L 433 17 L 434 33 L 418 34 Z M 385 18 L 401 17 L 402 33 L 386 34 Z M 353 18 L 369 17 L 370 33 L 354 34 Z M 321 18 L 337 17 L 338 33 L 322 34 Z M 289 18 L 305 17 L 306 33 L 290 34 Z M 257 18 L 273 17 L 274 33 L 258 34 Z M 225 18 L 241 17 L 242 33 L 226 34 Z M 193 18 L 209 17 L 210 33 L 194 34 Z M 161 18 L 177 17 L 178 33 L 162 34 Z M 129 18 L 145 17 L 146 33 L 130 34 Z M 97 18 L 113 17 L 114 33 L 98 34 Z M 65 18 L 81 17 L 82 33 L 66 34 Z M 33 18 L 49 17 L 50 33 L 34 34 Z" fill="#f0f0f0" fill-rule="evenodd"/>
  <path d="M 18 0 L 0 18 L 18 34 L 0 50 L 18 66 L 0 82 L 18 98 L 0 114 L 18 130 L 0 146 L 18 162 L 0 178 L 18 194 L 0 210 L 18 226 L 0 242 L 18 258 L 0 274 L 18 290 L 0 306 L 18 322 L 0 338 L 18 354 L 0 370 L 18 386 L 0 402 L 18 497 L 0 511 L 497 511 L 511 0 L 497 18 L 481 0 L 465 18 L 449 0 L 433 18 L 417 0 L 401 18 L 385 0 L 369 18 L 353 0 L 337 18 L 321 0 L 305 18 L 289 0 L 273 18 L 257 0 L 241 18 L 225 0 L 209 18 L 193 0 L 177 18 L 161 0 L 145 18 L 129 0 L 113 18 Z M 481 482 L 497 481 L 498 497 L 482 498 Z M 449 482 L 465 481 L 466 497 L 450 498 Z M 417 482 L 433 481 L 434 497 L 418 498 Z M 385 482 L 401 481 L 402 497 L 386 498 Z M 353 482 L 369 481 L 370 497 L 354 498 Z M 321 482 L 337 481 L 338 497 L 322 498 Z M 289 482 L 305 481 L 306 497 L 290 498 Z M 257 482 L 273 481 L 274 497 L 258 498 Z M 225 482 L 241 481 L 242 497 L 226 498 Z M 193 482 L 209 481 L 210 497 L 194 498 Z M 161 482 L 177 481 L 178 497 L 162 498 Z M 129 482 L 145 481 L 146 497 L 130 498 Z M 97 482 L 113 481 L 114 497 L 98 498 Z M 65 482 L 81 481 L 82 497 L 66 498 Z M 33 482 L 49 481 L 50 497 L 34 498 Z M 465 466 L 481 465 L 482 481 L 466 482 Z M 433 466 L 449 465 L 450 481 L 434 482 Z M 401 466 L 417 465 L 418 481 L 402 482 Z M 369 466 L 385 465 L 386 481 L 370 482 Z M 337 466 L 353 465 L 354 481 L 338 482 Z M 305 466 L 321 465 L 322 481 L 306 482 Z M 273 466 L 289 465 L 290 481 L 274 482 Z M 241 466 L 257 465 L 258 481 L 242 482 Z M 209 466 L 225 465 L 226 481 L 210 482 Z M 177 466 L 193 465 L 194 481 L 178 482 Z M 145 466 L 161 465 L 162 481 L 146 482 Z M 113 466 L 129 465 L 130 481 L 114 482 Z M 81 466 L 97 465 L 98 481 L 82 482 Z M 49 466 L 65 465 L 66 481 L 50 482 Z M 17 466 L 33 465 L 34 481 L 18 482 Z M 481 450 L 497 449 L 498 465 L 482 466 Z M 449 450 L 465 449 L 466 465 L 450 466 Z M 417 450 L 433 449 L 434 465 L 418 466 Z M 385 450 L 401 449 L 402 465 L 386 466 Z M 353 450 L 369 449 L 370 465 L 354 466 Z M 321 450 L 337 449 L 338 465 L 322 466 Z M 289 450 L 305 449 L 306 465 L 290 466 Z M 257 450 L 273 449 L 274 465 L 258 466 Z M 225 450 L 241 449 L 242 465 L 226 466 Z M 193 450 L 209 449 L 210 465 L 194 466 Z M 161 450 L 177 449 L 178 465 L 162 466 Z M 129 450 L 145 449 L 146 465 L 130 466 Z M 97 450 L 113 449 L 114 465 L 98 466 Z M 65 450 L 81 449 L 82 465 L 66 466 Z M 33 450 L 49 449 L 50 465 L 34 466 Z M 465 434 L 481 433 L 482 449 L 466 450 Z M 433 434 L 449 433 L 450 449 L 434 450 Z M 401 434 L 417 433 L 418 449 L 402 450 Z M 369 434 L 385 433 L 386 449 L 370 450 Z M 337 434 L 353 433 L 354 449 L 338 450 Z M 305 434 L 321 433 L 322 449 L 306 450 Z M 273 434 L 289 433 L 290 449 L 274 450 Z M 241 434 L 257 433 L 258 449 L 242 450 Z M 209 434 L 225 433 L 226 449 L 210 450 Z M 177 434 L 193 433 L 194 449 L 178 450 Z M 145 434 L 161 433 L 162 449 L 146 450 Z M 113 434 L 129 433 L 130 449 L 114 450 Z M 81 434 L 97 433 L 98 449 L 82 450 Z M 49 434 L 65 433 L 66 449 L 50 450 Z M 17 434 L 33 433 L 34 449 L 18 450 Z M 481 418 L 497 417 L 498 433 L 482 434 Z M 449 418 L 465 417 L 466 433 L 450 434 Z M 417 418 L 433 417 L 434 433 L 418 434 Z M 385 418 L 401 417 L 402 433 L 386 434 Z M 353 418 L 369 417 L 370 433 L 354 434 Z M 321 418 L 337 417 L 338 433 L 322 434 Z M 289 418 L 305 417 L 306 433 L 290 434 Z M 257 418 L 273 417 L 274 433 L 258 434 Z M 225 418 L 241 417 L 242 433 L 226 434 Z M 193 418 L 209 417 L 210 433 L 194 434 Z M 161 418 L 177 417 L 178 433 L 162 434 Z M 129 418 L 145 417 L 146 433 L 130 434 Z M 97 418 L 113 417 L 114 433 L 98 434 Z M 65 418 L 81 417 L 82 433 L 66 434 Z M 33 418 L 49 417 L 50 433 L 34 434 Z M 465 402 L 481 401 L 482 417 L 466 418 Z M 433 402 L 449 401 L 450 417 L 434 418 Z M 401 402 L 417 401 L 418 417 L 402 418 Z M 241 402 L 257 401 L 258 417 L 242 418 Z M 209 402 L 225 401 L 226 417 L 210 418 Z M 177 402 L 193 401 L 194 417 L 178 418 Z M 145 402 L 161 401 L 162 417 L 146 418 Z M 113 402 L 129 401 L 130 417 L 114 418 Z M 81 402 L 97 401 L 98 417 L 82 418 Z M 49 402 L 65 401 L 66 417 L 50 418 Z M 17 402 L 33 401 L 34 417 L 18 418 Z M 481 386 L 497 385 L 498 401 L 482 402 Z M 449 386 L 465 385 L 466 401 L 450 402 Z M 417 386 L 433 385 L 434 401 L 418 402 Z M 193 386 L 209 385 L 210 401 L 194 402 Z M 65 386 L 81 385 L 82 401 L 66 402 Z M 33 386 L 49 385 L 50 401 L 34 402 Z M 465 370 L 481 369 L 482 385 L 466 386 Z M 433 370 L 449 369 L 450 385 L 434 386 Z M 49 370 L 65 369 L 66 385 L 50 386 Z M 17 370 L 33 369 L 34 385 L 18 386 Z M 481 354 L 497 353 L 498 369 L 482 370 Z M 449 354 L 465 353 L 466 369 L 450 370 Z M 65 354 L 81 353 L 82 369 L 66 370 Z M 33 354 L 49 353 L 50 369 L 34 370 Z M 465 338 L 481 337 L 482 353 L 466 354 Z M 433 338 L 449 337 L 450 353 L 434 354 Z M 49 338 L 65 337 L 66 353 L 50 354 Z M 17 338 L 33 337 L 34 353 L 18 354 Z M 481 322 L 497 321 L 498 337 L 482 338 Z M 449 322 L 465 321 L 466 337 L 450 338 Z M 65 322 L 81 321 L 82 337 L 66 338 Z M 33 322 L 49 321 L 50 337 L 34 338 Z M 465 306 L 481 305 L 482 321 L 466 322 Z M 433 306 L 449 305 L 450 321 L 434 322 Z M 49 306 L 65 305 L 66 321 L 50 322 Z M 17 306 L 33 305 L 34 321 L 18 322 Z M 481 290 L 497 289 L 498 305 L 482 306 Z M 449 290 L 465 289 L 466 305 L 450 306 Z M 65 290 L 81 289 L 82 305 L 66 306 Z M 33 290 L 49 289 L 50 305 L 34 306 Z M 465 274 L 481 273 L 482 289 L 466 290 Z M 433 274 L 449 273 L 450 289 L 434 290 Z M 49 274 L 65 273 L 66 289 L 50 290 Z M 17 274 L 33 273 L 34 289 L 18 290 Z M 481 258 L 497 257 L 498 273 L 482 274 Z M 449 258 L 465 257 L 466 273 L 450 274 Z M 65 258 L 81 257 L 82 273 L 66 274 Z M 33 258 L 49 257 L 50 273 L 34 274 Z M 465 242 L 481 241 L 482 257 L 466 258 Z M 433 242 L 449 241 L 450 257 L 434 258 Z M 49 242 L 65 241 L 66 257 L 50 258 Z M 17 242 L 33 241 L 34 257 L 18 258 Z M 481 226 L 497 225 L 498 241 L 482 242 Z M 449 226 L 465 225 L 466 241 L 450 242 Z M 65 226 L 81 225 L 82 241 L 66 242 Z M 33 226 L 49 225 L 50 241 L 34 242 Z M 465 210 L 481 209 L 482 225 L 466 226 Z M 433 210 L 449 209 L 450 225 L 434 226 Z M 49 210 L 65 209 L 66 225 L 50 226 Z M 17 210 L 33 209 L 34 225 L 18 226 Z M 481 194 L 497 193 L 498 209 L 482 210 Z M 449 194 L 465 193 L 466 209 L 450 210 Z M 417 194 L 433 193 L 434 209 L 418 210 Z M 65 194 L 81 193 L 82 209 L 66 210 Z M 33 194 L 49 193 L 50 209 L 34 210 Z M 465 178 L 481 177 L 482 193 L 466 194 Z M 433 178 L 449 177 L 450 193 L 434 194 Z M 401 178 L 417 177 L 418 193 L 402 194 Z M 369 178 L 385 177 L 386 193 L 370 194 Z M 145 178 L 161 177 L 162 193 L 146 194 Z M 113 178 L 129 177 L 130 193 L 114 194 Z M 81 178 L 97 177 L 98 193 L 82 194 Z M 49 178 L 65 177 L 66 193 L 50 194 Z M 17 178 L 33 177 L 34 193 L 18 194 Z M 481 162 L 497 161 L 498 177 L 482 178 Z M 449 162 L 465 161 L 466 177 L 450 178 Z M 417 162 L 433 161 L 434 177 L 418 178 Z M 385 162 L 401 161 L 402 177 L 386 178 Z M 353 162 L 369 161 L 370 177 L 354 178 Z M 129 162 L 145 161 L 146 177 L 130 178 Z M 97 162 L 113 161 L 114 177 L 98 178 Z M 65 162 L 81 161 L 82 177 L 66 178 Z M 33 162 L 49 161 L 50 177 L 34 178 Z M 465 146 L 481 145 L 482 161 L 466 162 Z M 433 146 L 449 145 L 450 161 L 434 162 Z M 401 146 L 417 145 L 418 161 L 402 162 Z M 369 146 L 385 145 L 386 161 L 370 162 Z M 145 146 L 161 145 L 162 161 L 146 162 Z M 113 146 L 129 145 L 130 161 L 114 162 Z M 81 146 L 97 145 L 98 161 L 82 162 Z M 49 146 L 65 145 L 66 161 L 50 162 Z M 17 146 L 33 145 L 34 161 L 18 162 Z M 481 130 L 497 129 L 498 145 L 482 146 Z M 449 130 L 465 129 L 466 145 L 450 146 Z M 417 130 L 433 129 L 434 145 L 418 146 Z M 385 130 L 401 129 L 402 145 L 386 146 Z M 353 130 L 369 129 L 370 145 L 354 146 Z M 161 130 L 177 129 L 178 145 L 162 146 Z M 129 130 L 145 129 L 146 145 L 130 146 Z M 97 130 L 113 129 L 114 145 L 98 146 Z M 65 130 L 81 129 L 82 145 L 66 146 Z M 33 130 L 49 129 L 50 145 L 34 146 Z M 465 114 L 481 113 L 482 129 L 466 130 Z M 433 114 L 449 113 L 450 129 L 434 130 Z M 401 114 L 417 113 L 418 129 L 402 130 Z M 369 114 L 385 113 L 386 129 L 370 130 Z M 337 114 L 353 113 L 354 129 L 338 130 Z M 145 114 L 161 113 L 162 129 L 146 130 Z M 113 114 L 129 113 L 130 129 L 114 130 Z M 81 114 L 97 113 L 98 129 L 82 130 Z M 49 114 L 65 113 L 66 129 L 50 130 Z M 17 114 L 33 113 L 34 129 L 18 130 Z M 481 98 L 497 97 L 498 113 L 482 114 Z M 449 98 L 465 97 L 466 113 L 450 114 Z M 417 98 L 433 97 L 434 113 L 418 114 Z M 385 98 L 401 97 L 402 113 L 386 114 Z M 353 98 L 369 97 L 370 113 L 354 114 Z M 321 98 L 337 97 L 338 113 L 322 114 Z M 178 113 L 193 113 L 195 127 L 226 97 L 305 97 L 306 113 L 338 130 L 336 159 L 338 145 L 354 146 L 354 161 L 338 162 L 354 193 L 339 194 L 332 221 L 356 211 L 354 193 L 370 204 L 401 193 L 418 225 L 434 226 L 434 241 L 418 242 L 418 257 L 434 258 L 434 273 L 418 274 L 418 289 L 434 290 L 434 305 L 418 306 L 418 321 L 434 322 L 434 337 L 418 338 L 434 369 L 418 370 L 401 402 L 372 400 L 386 402 L 385 418 L 370 418 L 369 402 L 353 418 L 293 408 L 274 418 L 273 402 L 244 387 L 241 402 L 226 402 L 237 384 L 210 386 L 204 370 L 193 386 L 164 384 L 178 386 L 177 402 L 162 402 L 161 386 L 145 402 L 98 402 L 99 377 L 81 385 L 81 370 L 97 369 L 97 354 L 81 353 L 81 338 L 97 337 L 97 322 L 81 321 L 81 306 L 97 305 L 97 290 L 81 289 L 81 274 L 97 273 L 97 258 L 81 257 L 81 242 L 97 241 L 81 210 L 99 217 L 98 193 L 145 193 L 177 218 L 161 209 L 161 194 L 175 193 L 161 162 L 177 161 L 192 131 L 177 129 Z M 193 98 L 209 97 L 210 113 L 194 114 Z M 161 98 L 177 97 L 178 113 L 162 114 Z M 129 98 L 145 97 L 146 113 L 130 114 Z M 97 98 L 113 97 L 114 113 L 98 114 Z M 65 98 L 81 97 L 82 113 L 66 114 Z M 33 98 L 49 97 L 50 113 L 34 114 Z M 465 82 L 481 81 L 482 97 L 466 98 Z M 433 82 L 449 81 L 450 97 L 434 98 Z M 401 82 L 417 81 L 418 97 L 402 98 Z M 369 82 L 385 81 L 386 97 L 370 98 Z M 337 82 L 353 81 L 354 97 L 338 98 Z M 305 82 L 321 81 L 322 97 L 306 98 Z M 273 82 L 289 81 L 290 97 L 274 98 Z M 241 82 L 257 81 L 258 97 L 242 98 Z M 209 82 L 225 81 L 226 97 L 210 98 Z M 177 82 L 193 81 L 194 97 L 178 98 Z M 145 82 L 161 81 L 162 97 L 146 98 Z M 113 82 L 129 81 L 130 97 L 114 98 Z M 81 82 L 97 81 L 98 97 L 82 98 Z M 49 82 L 65 81 L 66 97 L 50 98 Z M 17 82 L 33 81 L 34 97 L 18 98 Z M 481 66 L 497 65 L 498 81 L 482 82 Z M 449 66 L 465 65 L 466 81 L 450 82 Z M 417 66 L 433 65 L 434 81 L 418 82 Z M 385 66 L 401 65 L 402 81 L 386 82 Z M 353 66 L 369 65 L 370 81 L 354 82 Z M 321 66 L 337 65 L 338 81 L 322 82 Z M 289 66 L 305 65 L 306 81 L 290 82 Z M 257 66 L 273 65 L 274 81 L 258 82 Z M 225 66 L 241 65 L 242 81 L 226 82 Z M 193 66 L 209 65 L 210 81 L 194 82 Z M 161 66 L 177 65 L 178 81 L 162 82 Z M 129 66 L 145 65 L 146 81 L 130 82 Z M 97 66 L 113 65 L 114 81 L 98 82 Z M 65 66 L 81 65 L 82 81 L 66 82 Z M 33 66 L 49 65 L 50 81 L 34 82 Z M 465 50 L 481 49 L 482 65 L 466 66 Z M 433 50 L 449 49 L 450 65 L 434 66 Z M 401 50 L 417 49 L 418 65 L 402 66 Z M 369 50 L 385 49 L 386 65 L 370 66 Z M 337 50 L 353 49 L 354 65 L 338 66 Z M 305 50 L 321 49 L 322 65 L 306 66 Z M 273 50 L 289 49 L 290 65 L 274 66 Z M 241 50 L 257 49 L 258 65 L 242 66 Z M 209 50 L 225 49 L 226 65 L 210 66 Z M 177 50 L 193 49 L 194 65 L 178 66 Z M 145 50 L 161 49 L 162 65 L 146 66 Z M 113 50 L 129 49 L 130 65 L 114 66 Z M 81 50 L 97 49 L 98 65 L 82 66 Z M 49 50 L 65 49 L 66 65 L 50 66 Z M 17 50 L 33 49 L 34 65 L 18 66 Z M 481 34 L 497 33 L 498 49 L 482 50 Z M 449 34 L 465 33 L 466 49 L 450 50 Z M 417 34 L 433 33 L 434 49 L 418 50 Z M 385 34 L 401 33 L 402 49 L 386 50 Z M 353 34 L 369 33 L 370 49 L 354 50 Z M 321 34 L 337 33 L 338 49 L 322 50 Z M 289 34 L 305 33 L 306 49 L 290 50 Z M 257 34 L 273 33 L 274 49 L 258 50 Z M 225 34 L 241 33 L 242 49 L 226 50 Z M 193 34 L 209 33 L 210 49 L 194 50 Z M 161 34 L 177 33 L 178 49 L 162 50 Z M 129 34 L 145 33 L 146 49 L 130 50 Z M 97 34 L 113 33 L 114 49 L 98 50 Z M 65 34 L 81 33 L 82 49 L 66 50 Z M 33 34 L 49 33 L 50 49 L 34 50 Z M 465 18 L 481 17 L 482 33 L 466 34 Z M 433 18 L 449 17 L 450 33 L 434 34 Z M 401 18 L 417 17 L 418 33 L 402 34 Z M 369 18 L 385 17 L 386 33 L 370 34 Z M 337 18 L 353 17 L 354 33 L 338 34 Z M 305 18 L 321 17 L 322 33 L 306 34 Z M 273 18 L 289 17 L 290 33 L 274 34 Z M 241 18 L 257 17 L 258 33 L 242 34 Z M 209 18 L 225 17 L 226 33 L 210 34 Z M 177 18 L 193 17 L 194 33 L 178 34 Z M 145 18 L 161 17 L 162 33 L 146 34 Z M 113 18 L 129 17 L 130 33 L 114 34 Z M 81 18 L 97 17 L 98 33 L 82 34 Z M 49 18 L 65 17 L 66 33 L 50 34 Z M 17 18 L 33 17 L 34 33 L 18 34 Z" fill="#fefefe" fill-rule="evenodd"/>
  <path d="M 178 113 L 193 113 L 195 127 L 226 97 L 305 97 L 306 113 L 338 130 L 336 159 L 338 145 L 354 146 L 354 161 L 338 162 L 354 193 L 339 194 L 332 221 L 356 211 L 354 193 L 370 204 L 401 193 L 418 225 L 434 226 L 434 241 L 418 242 L 418 257 L 434 258 L 434 273 L 418 274 L 418 289 L 434 290 L 434 305 L 418 306 L 418 321 L 434 322 L 434 337 L 418 338 L 434 369 L 418 370 L 401 402 L 372 400 L 386 402 L 385 418 L 370 418 L 369 402 L 353 418 L 293 408 L 274 418 L 273 402 L 244 387 L 241 402 L 226 402 L 237 384 L 210 386 L 204 370 L 193 386 L 164 384 L 178 386 L 177 402 L 162 402 L 161 386 L 145 402 L 98 402 L 99 377 L 81 385 L 81 370 L 97 369 L 97 354 L 81 353 L 81 338 L 97 337 L 97 322 L 81 321 L 81 306 L 97 305 L 97 290 L 81 289 L 81 274 L 97 273 L 97 258 L 81 257 L 81 242 L 97 241 L 81 210 L 99 217 L 98 193 L 145 193 L 177 218 L 161 209 L 161 194 L 175 193 L 161 162 L 177 161 L 192 131 L 177 129 Z" fill="#fefefe" fill-rule="evenodd"/>
  <path d="M 81 226 L 97 225 L 114 193 L 144 205 L 161 193 L 158 211 L 177 209 L 181 221 L 174 194 L 161 193 L 177 164 L 161 161 L 161 146 L 179 154 L 177 130 L 193 129 L 210 97 L 289 97 L 320 129 L 322 113 L 337 113 L 338 129 L 324 134 L 338 161 L 354 162 L 354 177 L 339 178 L 354 209 L 338 218 L 368 206 L 370 193 L 399 202 L 417 193 L 416 220 L 434 210 L 434 225 L 418 226 L 418 241 L 434 242 L 434 257 L 418 258 L 418 273 L 434 274 L 434 289 L 418 290 L 418 305 L 434 306 L 434 321 L 418 322 L 418 337 L 434 338 L 434 353 L 418 354 L 434 385 L 416 375 L 417 402 L 390 394 L 370 402 L 369 418 L 354 418 L 353 406 L 317 416 L 321 434 L 305 433 L 312 416 L 290 418 L 261 394 L 242 402 L 240 386 L 212 373 L 209 386 L 194 386 L 193 373 L 162 386 L 161 402 L 145 392 L 114 402 L 98 371 L 81 369 L 81 354 L 97 353 L 97 338 L 81 337 L 81 322 L 97 321 L 97 306 L 81 305 L 81 290 L 97 289 L 97 274 L 81 273 L 81 258 L 97 257 Z" fill="#f0f0f0" fill-rule="evenodd"/>
  <path d="M 254 101 L 226 107 L 199 125 L 182 151 L 176 188 L 182 216 L 203 256 L 246 309 L 262 312 L 289 285 L 319 243 L 334 210 L 338 178 L 331 149 L 313 123 L 288 107 Z M 250 148 L 264 148 L 276 153 L 287 164 L 292 176 L 292 190 L 286 203 L 274 214 L 263 218 L 251 218 L 237 212 L 227 202 L 222 190 L 222 175 L 225 167 L 235 155 Z" fill="#8c1b2a" fill-rule="evenodd"/>
  <path d="M 398 202 L 379 202 L 331 223 L 314 253 L 315 416 L 399 391 L 408 386 L 416 374 L 417 227 L 412 213 Z" fill="#b4cde8" fill-rule="evenodd"/>
  <path d="M 124 200 L 111 204 L 101 215 L 98 224 L 98 370 L 102 381 L 110 390 L 122 395 L 133 395 L 201 368 L 201 255 L 182 222 L 134 201 Z" fill="#b4cde8" fill-rule="evenodd"/>
  <path d="M 202 258 L 202 368 L 312 414 L 313 256 L 272 307 L 261 314 L 245 310 Z" fill="#88acd1" fill-rule="evenodd"/>
  <path d="M 250 148 L 264 148 L 276 153 L 287 164 L 292 176 L 292 190 L 286 203 L 274 214 L 263 218 L 251 218 L 237 212 L 227 202 L 222 190 L 222 175 L 225 167 L 235 155 Z" fill="#8c1b2a" fill-rule="evenodd"/>
  <path d="M 249 150 L 248 152 L 245 152 L 235 157 L 231 161 L 226 171 L 226 174 L 224 175 L 224 191 L 230 202 L 238 210 L 250 215 L 263 216 L 265 214 L 277 210 L 284 203 L 289 191 L 290 175 L 288 174 L 287 169 L 282 160 L 279 159 L 276 155 L 266 152 L 265 150 Z" fill="#f0f0f0" fill-rule="evenodd"/>
  <path d="M 465 482 L 481 481 L 482 497 L 466 498 Z" fill="#f0f0f0" fill-rule="evenodd"/>
  <path d="M 433 482 L 449 481 L 450 497 L 434 498 Z" fill="#f0f0f0" fill-rule="evenodd"/>
  <path d="M 401 482 L 417 481 L 418 497 L 402 498 Z" fill="#f0f0f0" fill-rule="evenodd"/>
  <path d="M 369 482 L 385 481 L 386 497 L 370 498 Z" fill="#f0f0f0" fill-rule="evenodd"/>
  <path d="M 337 482 L 353 481 L 354 497 L 338 498 Z" fill="#f0f0f0" fill-rule="evenodd"/>
  <path d="M 305 482 L 321 481 L 322 497 L 306 498 Z" fill="#f0f0f0" fill-rule="evenodd"/>
  <path d="M 273 482 L 289 481 L 290 497 L 274 498 Z" fill="#f0f0f0" fill-rule="evenodd"/>
  <path d="M 241 482 L 257 481 L 258 497 L 242 498 Z" fill="#f0f0f0" fill-rule="evenodd"/>
  <path d="M 209 482 L 225 481 L 226 497 L 210 498 Z" fill="#f0f0f0" fill-rule="evenodd"/>
  <path d="M 177 482 L 193 481 L 194 497 L 178 498 Z" fill="#f0f0f0" fill-rule="evenodd"/>
  <path d="M 145 482 L 161 481 L 162 497 L 146 498 Z" fill="#f0f0f0" fill-rule="evenodd"/>
  <path d="M 113 482 L 129 481 L 130 497 L 114 498 Z" fill="#f0f0f0" fill-rule="evenodd"/>
  <path d="M 81 482 L 97 481 L 98 497 L 82 498 Z" fill="#f0f0f0" fill-rule="evenodd"/>
  <path d="M 49 482 L 65 481 L 66 497 L 50 498 Z" fill="#f0f0f0" fill-rule="evenodd"/>
  <path d="M 17 482 L 33 481 L 34 497 L 18 498 Z" fill="#f0f0f0" fill-rule="evenodd"/>
  <path d="M 481 466 L 497 465 L 498 481 L 482 482 Z" fill="#f0f0f0" fill-rule="evenodd"/>
  <path d="M 449 466 L 465 465 L 466 481 L 450 482 Z" fill="#f0f0f0" fill-rule="evenodd"/>
  <path d="M 417 466 L 433 465 L 434 481 L 418 482 Z" fill="#f0f0f0" fill-rule="evenodd"/>
  <path d="M 385 466 L 401 465 L 402 481 L 386 482 Z" fill="#f0f0f0" fill-rule="evenodd"/>
  <path d="M 353 466 L 369 465 L 370 481 L 354 482 Z" fill="#f0f0f0" fill-rule="evenodd"/>
  <path d="M 321 466 L 337 465 L 338 481 L 322 482 Z" fill="#f0f0f0" fill-rule="evenodd"/>
  <path d="M 289 466 L 305 465 L 306 481 L 290 482 Z" fill="#f0f0f0" fill-rule="evenodd"/>
  <path d="M 257 466 L 273 465 L 274 481 L 258 482 Z" fill="#f0f0f0" fill-rule="evenodd"/>
  <path d="M 225 466 L 241 465 L 242 481 L 226 482 Z" fill="#f0f0f0" fill-rule="evenodd"/>
  <path d="M 193 466 L 209 465 L 210 481 L 194 482 Z" fill="#f0f0f0" fill-rule="evenodd"/>
  <path d="M 161 466 L 177 465 L 178 481 L 162 482 Z" fill="#f0f0f0" fill-rule="evenodd"/>
  <path d="M 129 466 L 145 465 L 146 481 L 130 482 Z" fill="#f0f0f0" fill-rule="evenodd"/>
  <path d="M 97 466 L 113 465 L 114 481 L 98 482 Z" fill="#f0f0f0" fill-rule="evenodd"/>
  <path d="M 65 466 L 81 465 L 82 481 L 66 482 Z" fill="#f0f0f0" fill-rule="evenodd"/>
  <path d="M 33 466 L 49 465 L 50 481 L 34 482 Z" fill="#f0f0f0" fill-rule="evenodd"/>
  <path d="M 465 450 L 481 449 L 482 465 L 466 466 Z" fill="#f0f0f0" fill-rule="evenodd"/>
  <path d="M 433 450 L 449 449 L 450 465 L 434 466 Z" fill="#f0f0f0" fill-rule="evenodd"/>
  <path d="M 401 450 L 417 449 L 418 465 L 402 466 Z" fill="#f0f0f0" fill-rule="evenodd"/>
  <path d="M 369 450 L 385 449 L 386 465 L 370 466 Z" fill="#f0f0f0" fill-rule="evenodd"/>
  <path d="M 337 450 L 353 449 L 354 465 L 338 466 Z" fill="#f0f0f0" fill-rule="evenodd"/>
  <path d="M 305 450 L 321 449 L 322 465 L 306 466 Z" fill="#f0f0f0" fill-rule="evenodd"/>
  <path d="M 273 450 L 289 449 L 290 465 L 274 466 Z" fill="#f0f0f0" fill-rule="evenodd"/>
  <path d="M 241 450 L 257 449 L 258 465 L 242 466 Z" fill="#f0f0f0" fill-rule="evenodd"/>
  <path d="M 209 450 L 225 449 L 226 465 L 210 466 Z" fill="#f0f0f0" fill-rule="evenodd"/>
  <path d="M 177 450 L 193 449 L 194 465 L 178 466 Z" fill="#f0f0f0" fill-rule="evenodd"/>
  <path d="M 145 450 L 161 449 L 162 465 L 146 466 Z" fill="#f0f0f0" fill-rule="evenodd"/>
  <path d="M 113 450 L 129 449 L 130 465 L 114 466 Z" fill="#f0f0f0" fill-rule="evenodd"/>
  <path d="M 81 450 L 97 449 L 98 465 L 82 466 Z" fill="#f0f0f0" fill-rule="evenodd"/>
  <path d="M 49 450 L 65 449 L 66 465 L 50 466 Z" fill="#f0f0f0" fill-rule="evenodd"/>
  <path d="M 17 450 L 33 449 L 34 465 L 18 466 Z" fill="#f0f0f0" fill-rule="evenodd"/>
  <path d="M 481 434 L 497 433 L 498 449 L 482 450 Z" fill="#f0f0f0" fill-rule="evenodd"/>
  <path d="M 449 434 L 465 433 L 466 449 L 450 450 Z" fill="#f0f0f0" fill-rule="evenodd"/>
  <path d="M 417 434 L 433 433 L 434 449 L 418 450 Z" fill="#f0f0f0" fill-rule="evenodd"/>
  <path d="M 385 434 L 401 433 L 402 449 L 386 450 Z" fill="#f0f0f0" fill-rule="evenodd"/>
  <path d="M 353 434 L 369 433 L 370 449 L 354 450 Z" fill="#f0f0f0" fill-rule="evenodd"/>
  <path d="M 321 434 L 337 433 L 338 449 L 322 450 Z" fill="#f0f0f0" fill-rule="evenodd"/>
  <path d="M 289 434 L 305 433 L 306 449 L 290 450 Z" fill="#f0f0f0" fill-rule="evenodd"/>
  <path d="M 257 434 L 273 433 L 274 449 L 258 450 Z" fill="#f0f0f0" fill-rule="evenodd"/>
  <path d="M 225 434 L 241 433 L 242 449 L 226 450 Z" fill="#f0f0f0" fill-rule="evenodd"/>
  <path d="M 193 434 L 209 433 L 210 449 L 194 450 Z" fill="#f0f0f0" fill-rule="evenodd"/>
  <path d="M 161 434 L 177 433 L 178 449 L 162 450 Z" fill="#f0f0f0" fill-rule="evenodd"/>
  <path d="M 129 434 L 145 433 L 146 449 L 130 450 Z" fill="#f0f0f0" fill-rule="evenodd"/>
  <path d="M 97 434 L 113 433 L 114 449 L 98 450 Z" fill="#f0f0f0" fill-rule="evenodd"/>
  <path d="M 65 434 L 81 433 L 82 449 L 66 450 Z" fill="#f0f0f0" fill-rule="evenodd"/>
  <path d="M 33 434 L 49 433 L 50 449 L 34 450 Z" fill="#f0f0f0" fill-rule="evenodd"/>
  <path d="M 465 418 L 481 417 L 482 433 L 466 434 Z" fill="#f0f0f0" fill-rule="evenodd"/>
  <path d="M 433 418 L 449 417 L 450 433 L 434 434 Z" fill="#f0f0f0" fill-rule="evenodd"/>
  <path d="M 401 418 L 417 417 L 418 433 L 402 434 Z" fill="#f0f0f0" fill-rule="evenodd"/>
  <path d="M 369 418 L 385 417 L 386 433 L 370 434 Z" fill="#f0f0f0" fill-rule="evenodd"/>
  <path d="M 337 418 L 353 417 L 354 433 L 338 434 Z" fill="#f0f0f0" fill-rule="evenodd"/>
  <path d="M 273 418 L 289 417 L 290 433 L 274 434 Z" fill="#f0f0f0" fill-rule="evenodd"/>
  <path d="M 241 418 L 257 417 L 258 433 L 242 434 Z" fill="#f0f0f0" fill-rule="evenodd"/>
  <path d="M 209 418 L 225 417 L 226 433 L 210 434 Z" fill="#f0f0f0" fill-rule="evenodd"/>
  <path d="M 177 418 L 193 417 L 194 433 L 178 434 Z" fill="#f0f0f0" fill-rule="evenodd"/>
  <path d="M 145 418 L 161 417 L 162 433 L 146 434 Z" fill="#f0f0f0" fill-rule="evenodd"/>
  <path d="M 113 418 L 129 417 L 130 433 L 114 434 Z" fill="#f0f0f0" fill-rule="evenodd"/>
  <path d="M 81 418 L 97 417 L 98 433 L 82 434 Z" fill="#f0f0f0" fill-rule="evenodd"/>
  <path d="M 49 418 L 65 417 L 66 433 L 50 434 Z" fill="#f0f0f0" fill-rule="evenodd"/>
  <path d="M 17 418 L 33 417 L 34 433 L 18 434 Z" fill="#f0f0f0" fill-rule="evenodd"/>
  <path d="M 481 402 L 497 401 L 498 417 L 482 418 Z" fill="#f0f0f0" fill-rule="evenodd"/>
  <path d="M 449 402 L 465 401 L 466 417 L 450 418 Z" fill="#f0f0f0" fill-rule="evenodd"/>
  <path d="M 417 402 L 433 401 L 434 417 L 418 418 Z" fill="#f0f0f0" fill-rule="evenodd"/>
  <path d="M 385 402 L 401 401 L 402 417 L 386 418 Z" fill="#f0f0f0" fill-rule="evenodd"/>
  <path d="M 257 402 L 273 401 L 274 417 L 258 418 Z" fill="#f0f0f0" fill-rule="evenodd"/>
  <path d="M 225 402 L 241 401 L 242 417 L 226 418 Z" fill="#f0f0f0" fill-rule="evenodd"/>
  <path d="M 193 402 L 209 401 L 210 417 L 194 418 Z" fill="#f0f0f0" fill-rule="evenodd"/>
  <path d="M 161 402 L 177 401 L 178 417 L 162 418 Z" fill="#f0f0f0" fill-rule="evenodd"/>
  <path d="M 129 402 L 145 401 L 146 417 L 130 418 Z" fill="#f0f0f0" fill-rule="evenodd"/>
  <path d="M 97 402 L 113 401 L 114 417 L 98 418 Z" fill="#f0f0f0" fill-rule="evenodd"/>
  <path d="M 65 402 L 81 401 L 82 417 L 66 418 Z" fill="#f0f0f0" fill-rule="evenodd"/>
  <path d="M 33 402 L 49 401 L 50 417 L 34 418 Z" fill="#f0f0f0" fill-rule="evenodd"/>
  <path d="M 465 386 L 481 385 L 482 401 L 466 402 Z" fill="#f0f0f0" fill-rule="evenodd"/>
  <path d="M 433 386 L 449 385 L 450 401 L 434 402 Z" fill="#f0f0f0" fill-rule="evenodd"/>
  <path d="M 209 386 L 225 385 L 226 401 L 210 402 Z" fill="#f0f0f0" fill-rule="evenodd"/>
  <path d="M 177 386 L 193 385 L 194 401 L 178 402 Z" fill="#f0f0f0" fill-rule="evenodd"/>
  <path d="M 81 386 L 97 385 L 98 401 L 82 402 Z" fill="#f0f0f0" fill-rule="evenodd"/>
  <path d="M 49 386 L 65 385 L 66 401 L 50 402 Z" fill="#f0f0f0" fill-rule="evenodd"/>
  <path d="M 17 386 L 33 385 L 34 401 L 18 402 Z" fill="#f0f0f0" fill-rule="evenodd"/>
  <path d="M 481 370 L 497 369 L 498 385 L 482 386 Z" fill="#f0f0f0" fill-rule="evenodd"/>
  <path d="M 449 370 L 465 369 L 466 385 L 450 386 Z" fill="#f0f0f0" fill-rule="evenodd"/>
  <path d="M 65 370 L 81 369 L 82 385 L 66 386 Z" fill="#f0f0f0" fill-rule="evenodd"/>
  <path d="M 33 370 L 49 369 L 50 385 L 34 386 Z" fill="#f0f0f0" fill-rule="evenodd"/>
  <path d="M 465 354 L 481 353 L 482 369 L 466 370 Z" fill="#f0f0f0" fill-rule="evenodd"/>
  <path d="M 433 354 L 449 353 L 450 369 L 434 370 Z" fill="#f0f0f0" fill-rule="evenodd"/>
  <path d="M 49 354 L 65 353 L 66 369 L 50 370 Z" fill="#f0f0f0" fill-rule="evenodd"/>
  <path d="M 17 354 L 33 353 L 34 369 L 18 370 Z" fill="#f0f0f0" fill-rule="evenodd"/>
  <path d="M 481 338 L 497 337 L 498 353 L 482 354 Z" fill="#f0f0f0" fill-rule="evenodd"/>
  <path d="M 449 338 L 465 337 L 466 353 L 450 354 Z" fill="#f0f0f0" fill-rule="evenodd"/>
  <path d="M 65 338 L 81 337 L 82 353 L 66 354 Z" fill="#f0f0f0" fill-rule="evenodd"/>
  <path d="M 33 338 L 49 337 L 50 353 L 34 354 Z" fill="#f0f0f0" fill-rule="evenodd"/>
  <path d="M 465 322 L 481 321 L 482 337 L 466 338 Z" fill="#f0f0f0" fill-rule="evenodd"/>
  <path d="M 433 322 L 449 321 L 450 337 L 434 338 Z" fill="#f0f0f0" fill-rule="evenodd"/>
  <path d="M 49 322 L 65 321 L 66 337 L 50 338 Z" fill="#f0f0f0" fill-rule="evenodd"/>
  <path d="M 17 322 L 33 321 L 34 337 L 18 338 Z" fill="#f0f0f0" fill-rule="evenodd"/>
  <path d="M 481 306 L 497 305 L 498 321 L 482 322 Z" fill="#f0f0f0" fill-rule="evenodd"/>
  <path d="M 449 306 L 465 305 L 466 321 L 450 322 Z" fill="#f0f0f0" fill-rule="evenodd"/>
  <path d="M 65 306 L 81 305 L 82 321 L 66 322 Z" fill="#f0f0f0" fill-rule="evenodd"/>
  <path d="M 33 306 L 49 305 L 50 321 L 34 322 Z" fill="#f0f0f0" fill-rule="evenodd"/>
  <path d="M 465 290 L 481 289 L 482 305 L 466 306 Z" fill="#f0f0f0" fill-rule="evenodd"/>
  <path d="M 433 290 L 449 289 L 450 305 L 434 306 Z" fill="#f0f0f0" fill-rule="evenodd"/>
  <path d="M 49 290 L 65 289 L 66 305 L 50 306 Z" fill="#f0f0f0" fill-rule="evenodd"/>
  <path d="M 17 290 L 33 289 L 34 305 L 18 306 Z" fill="#f0f0f0" fill-rule="evenodd"/>
  <path d="M 481 274 L 497 273 L 498 289 L 482 290 Z" fill="#f0f0f0" fill-rule="evenodd"/>
  <path d="M 449 274 L 465 273 L 466 289 L 450 290 Z" fill="#f0f0f0" fill-rule="evenodd"/>
  <path d="M 65 274 L 81 273 L 82 289 L 66 290 Z" fill="#f0f0f0" fill-rule="evenodd"/>
  <path d="M 33 274 L 49 273 L 50 289 L 34 290 Z" fill="#f0f0f0" fill-rule="evenodd"/>
  <path d="M 465 258 L 481 257 L 482 273 L 466 274 Z" fill="#f0f0f0" fill-rule="evenodd"/>
  <path d="M 433 258 L 449 257 L 450 273 L 434 274 Z" fill="#f0f0f0" fill-rule="evenodd"/>
  <path d="M 49 258 L 65 257 L 66 273 L 50 274 Z" fill="#f0f0f0" fill-rule="evenodd"/>
  <path d="M 17 258 L 33 257 L 34 273 L 18 274 Z" fill="#f0f0f0" fill-rule="evenodd"/>
  <path d="M 481 242 L 497 241 L 498 257 L 482 258 Z" fill="#f0f0f0" fill-rule="evenodd"/>
  <path d="M 449 242 L 465 241 L 466 257 L 450 258 Z" fill="#f0f0f0" fill-rule="evenodd"/>
  <path d="M 65 242 L 81 241 L 82 257 L 66 258 Z" fill="#f0f0f0" fill-rule="evenodd"/>
  <path d="M 33 242 L 49 241 L 50 257 L 34 258 Z" fill="#f0f0f0" fill-rule="evenodd"/>
  <path d="M 465 226 L 481 225 L 482 241 L 466 242 Z" fill="#f0f0f0" fill-rule="evenodd"/>
  <path d="M 433 226 L 449 225 L 450 241 L 434 242 Z" fill="#f0f0f0" fill-rule="evenodd"/>
  <path d="M 49 226 L 65 225 L 66 241 L 50 242 Z" fill="#f0f0f0" fill-rule="evenodd"/>
  <path d="M 17 226 L 33 225 L 34 241 L 18 242 Z" fill="#f0f0f0" fill-rule="evenodd"/>
  <path d="M 481 210 L 497 209 L 498 225 L 482 226 Z" fill="#f0f0f0" fill-rule="evenodd"/>
  <path d="M 449 210 L 465 209 L 466 225 L 450 226 Z" fill="#f0f0f0" fill-rule="evenodd"/>
  <path d="M 65 210 L 81 209 L 82 225 L 66 226 Z" fill="#f0f0f0" fill-rule="evenodd"/>
  <path d="M 33 210 L 49 209 L 50 225 L 34 226 Z" fill="#f0f0f0" fill-rule="evenodd"/>
  <path d="M 465 194 L 481 193 L 482 209 L 466 210 Z" fill="#f0f0f0" fill-rule="evenodd"/>
  <path d="M 433 194 L 449 193 L 450 209 L 434 210 Z" fill="#f0f0f0" fill-rule="evenodd"/>
  <path d="M 81 194 L 97 193 L 98 209 L 82 210 Z" fill="#f0f0f0" fill-rule="evenodd"/>
  <path d="M 49 194 L 65 193 L 66 209 L 50 210 Z" fill="#f0f0f0" fill-rule="evenodd"/>
  <path d="M 17 194 L 33 193 L 34 209 L 18 210 Z" fill="#f0f0f0" fill-rule="evenodd"/>
  <path d="M 481 178 L 497 177 L 498 193 L 482 194 Z" fill="#f0f0f0" fill-rule="evenodd"/>
  <path d="M 449 178 L 465 177 L 466 193 L 450 194 Z" fill="#f0f0f0" fill-rule="evenodd"/>
  <path d="M 417 178 L 433 177 L 434 193 L 418 194 Z" fill="#f0f0f0" fill-rule="evenodd"/>
  <path d="M 385 178 L 401 177 L 402 193 L 386 194 Z" fill="#f0f0f0" fill-rule="evenodd"/>
  <path d="M 353 178 L 369 177 L 370 193 L 354 194 Z" fill="#f0f0f0" fill-rule="evenodd"/>
  <path d="M 129 178 L 145 177 L 146 193 L 130 194 Z" fill="#f0f0f0" fill-rule="evenodd"/>
  <path d="M 97 178 L 113 177 L 114 193 L 98 194 Z" fill="#f0f0f0" fill-rule="evenodd"/>
  <path d="M 65 178 L 81 177 L 82 193 L 66 194 Z" fill="#f0f0f0" fill-rule="evenodd"/>
  <path d="M 33 178 L 49 177 L 50 193 L 34 194 Z" fill="#f0f0f0" fill-rule="evenodd"/>
  <path d="M 465 162 L 481 161 L 482 177 L 466 178 Z" fill="#f0f0f0" fill-rule="evenodd"/>
  <path d="M 433 162 L 449 161 L 450 177 L 434 178 Z" fill="#f0f0f0" fill-rule="evenodd"/>
  <path d="M 401 162 L 417 161 L 418 177 L 402 178 Z" fill="#f0f0f0" fill-rule="evenodd"/>
  <path d="M 369 162 L 385 161 L 386 177 L 370 178 Z" fill="#f0f0f0" fill-rule="evenodd"/>
  <path d="M 145 162 L 161 161 L 162 177 L 146 178 Z" fill="#f0f0f0" fill-rule="evenodd"/>
  <path d="M 113 162 L 129 161 L 130 177 L 114 178 Z" fill="#f0f0f0" fill-rule="evenodd"/>
  <path d="M 81 162 L 97 161 L 98 177 L 82 178 Z" fill="#f0f0f0" fill-rule="evenodd"/>
  <path d="M 49 162 L 65 161 L 66 177 L 50 178 Z" fill="#f0f0f0" fill-rule="evenodd"/>
  <path d="M 17 162 L 33 161 L 34 177 L 18 178 Z" fill="#f0f0f0" fill-rule="evenodd"/>
  <path d="M 481 146 L 497 145 L 498 161 L 482 162 Z" fill="#f0f0f0" fill-rule="evenodd"/>
  <path d="M 449 146 L 465 145 L 466 161 L 450 162 Z" fill="#f0f0f0" fill-rule="evenodd"/>
  <path d="M 417 146 L 433 145 L 434 161 L 418 162 Z" fill="#f0f0f0" fill-rule="evenodd"/>
  <path d="M 385 146 L 401 145 L 402 161 L 386 162 Z" fill="#f0f0f0" fill-rule="evenodd"/>
  <path d="M 353 146 L 369 145 L 370 161 L 354 162 Z" fill="#f0f0f0" fill-rule="evenodd"/>
  <path d="M 129 146 L 145 145 L 146 161 L 130 162 Z" fill="#f0f0f0" fill-rule="evenodd"/>
  <path d="M 97 146 L 113 145 L 114 161 L 98 162 Z" fill="#f0f0f0" fill-rule="evenodd"/>
  <path d="M 65 146 L 81 145 L 82 161 L 66 162 Z" fill="#f0f0f0" fill-rule="evenodd"/>
  <path d="M 33 146 L 49 145 L 50 161 L 34 162 Z" fill="#f0f0f0" fill-rule="evenodd"/>
  <path d="M 465 130 L 481 129 L 482 145 L 466 146 Z" fill="#f0f0f0" fill-rule="evenodd"/>
  <path d="M 433 130 L 449 129 L 450 145 L 434 146 Z" fill="#f0f0f0" fill-rule="evenodd"/>
  <path d="M 401 130 L 417 129 L 418 145 L 402 146 Z" fill="#f0f0f0" fill-rule="evenodd"/>
  <path d="M 369 130 L 385 129 L 386 145 L 370 146 Z" fill="#f0f0f0" fill-rule="evenodd"/>
  <path d="M 337 130 L 353 129 L 354 145 L 338 146 Z" fill="#f0f0f0" fill-rule="evenodd"/>
  <path d="M 145 130 L 161 129 L 162 145 L 146 146 Z" fill="#f0f0f0" fill-rule="evenodd"/>
  <path d="M 113 130 L 129 129 L 130 145 L 114 146 Z" fill="#f0f0f0" fill-rule="evenodd"/>
  <path d="M 81 130 L 97 129 L 98 145 L 82 146 Z" fill="#f0f0f0" fill-rule="evenodd"/>
  <path d="M 49 130 L 65 129 L 66 145 L 50 146 Z" fill="#f0f0f0" fill-rule="evenodd"/>
  <path d="M 17 130 L 33 129 L 34 145 L 18 146 Z" fill="#f0f0f0" fill-rule="evenodd"/>
  <path d="M 481 114 L 497 113 L 498 129 L 482 130 Z" fill="#f0f0f0" fill-rule="evenodd"/>
  <path d="M 449 114 L 465 113 L 466 129 L 450 130 Z" fill="#f0f0f0" fill-rule="evenodd"/>
  <path d="M 417 114 L 433 113 L 434 129 L 418 130 Z" fill="#f0f0f0" fill-rule="evenodd"/>
  <path d="M 385 114 L 401 113 L 402 129 L 386 130 Z" fill="#f0f0f0" fill-rule="evenodd"/>
  <path d="M 353 114 L 369 113 L 370 129 L 354 130 Z" fill="#f0f0f0" fill-rule="evenodd"/>
  <path d="M 161 114 L 177 113 L 178 129 L 162 130 Z" fill="#f0f0f0" fill-rule="evenodd"/>
  <path d="M 129 114 L 145 113 L 146 129 L 130 130 Z" fill="#f0f0f0" fill-rule="evenodd"/>
  <path d="M 97 114 L 113 113 L 114 129 L 98 130 Z" fill="#f0f0f0" fill-rule="evenodd"/>
  <path d="M 65 114 L 81 113 L 82 129 L 66 130 Z" fill="#f0f0f0" fill-rule="evenodd"/>
  <path d="M 33 114 L 49 113 L 50 129 L 34 130 Z" fill="#f0f0f0" fill-rule="evenodd"/>
  <path d="M 465 98 L 481 97 L 482 113 L 466 114 Z" fill="#f0f0f0" fill-rule="evenodd"/>
  <path d="M 433 98 L 449 97 L 450 113 L 434 114 Z" fill="#f0f0f0" fill-rule="evenodd"/>
  <path d="M 401 98 L 417 97 L 418 113 L 402 114 Z" fill="#f0f0f0" fill-rule="evenodd"/>
  <path d="M 369 98 L 385 97 L 386 113 L 370 114 Z" fill="#f0f0f0" fill-rule="evenodd"/>
  <path d="M 337 98 L 353 97 L 354 113 L 338 114 Z" fill="#f0f0f0" fill-rule="evenodd"/>
  <path d="M 305 98 L 321 97 L 322 113 L 306 114 Z" fill="#f0f0f0" fill-rule="evenodd"/>
  <path d="M 177 98 L 193 97 L 194 113 L 178 114 Z" fill="#f0f0f0" fill-rule="evenodd"/>
  <path d="M 145 98 L 161 97 L 162 113 L 146 114 Z" fill="#f0f0f0" fill-rule="evenodd"/>
  <path d="M 113 98 L 129 97 L 130 113 L 114 114 Z" fill="#f0f0f0" fill-rule="evenodd"/>
  <path d="M 81 98 L 97 97 L 98 113 L 82 114 Z" fill="#f0f0f0" fill-rule="evenodd"/>
  <path d="M 49 98 L 65 97 L 66 113 L 50 114 Z" fill="#f0f0f0" fill-rule="evenodd"/>
  <path d="M 17 98 L 33 97 L 34 113 L 18 114 Z" fill="#f0f0f0" fill-rule="evenodd"/>
  <path d="M 481 82 L 497 81 L 498 97 L 482 98 Z" fill="#f0f0f0" fill-rule="evenodd"/>
  <path d="M 449 82 L 465 81 L 466 97 L 450 98 Z" fill="#f0f0f0" fill-rule="evenodd"/>
  <path d="M 417 82 L 433 81 L 434 97 L 418 98 Z" fill="#f0f0f0" fill-rule="evenodd"/>
  <path d="M 385 82 L 401 81 L 402 97 L 386 98 Z" fill="#f0f0f0" fill-rule="evenodd"/>
  <path d="M 353 82 L 369 81 L 370 97 L 354 98 Z" fill="#f0f0f0" fill-rule="evenodd"/>
  <path d="M 321 82 L 337 81 L 338 97 L 322 98 Z" fill="#f0f0f0" fill-rule="evenodd"/>
  <path d="M 289 82 L 305 81 L 306 97 L 290 98 Z" fill="#f0f0f0" fill-rule="evenodd"/>
  <path d="M 257 82 L 273 81 L 274 97 L 258 98 Z" fill="#f0f0f0" fill-rule="evenodd"/>
  <path d="M 225 82 L 241 81 L 242 97 L 226 98 Z" fill="#f0f0f0" fill-rule="evenodd"/>
  <path d="M 193 82 L 209 81 L 210 97 L 194 98 Z" fill="#f0f0f0" fill-rule="evenodd"/>
  <path d="M 161 82 L 177 81 L 178 97 L 162 98 Z" fill="#f0f0f0" fill-rule="evenodd"/>
  <path d="M 129 82 L 145 81 L 146 97 L 130 98 Z" fill="#f0f0f0" fill-rule="evenodd"/>
  <path d="M 97 82 L 113 81 L 114 97 L 98 98 Z" fill="#f0f0f0" fill-rule="evenodd"/>
  <path d="M 65 82 L 81 81 L 82 97 L 66 98 Z" fill="#f0f0f0" fill-rule="evenodd"/>
  <path d="M 33 82 L 49 81 L 50 97 L 34 98 Z" fill="#f0f0f0" fill-rule="evenodd"/>
  <path d="M 465 66 L 481 65 L 482 81 L 466 82 Z" fill="#f0f0f0" fill-rule="evenodd"/>
  <path d="M 433 66 L 449 65 L 450 81 L 434 82 Z" fill="#f0f0f0" fill-rule="evenodd"/>
  <path d="M 401 66 L 417 65 L 418 81 L 402 82 Z" fill="#f0f0f0" fill-rule="evenodd"/>
  <path d="M 369 66 L 385 65 L 386 81 L 370 82 Z" fill="#f0f0f0" fill-rule="evenodd"/>
  <path d="M 337 66 L 353 65 L 354 81 L 338 82 Z" fill="#f0f0f0" fill-rule="evenodd"/>
  <path d="M 305 66 L 321 65 L 322 81 L 306 82 Z" fill="#f0f0f0" fill-rule="evenodd"/>
  <path d="M 273 66 L 289 65 L 290 81 L 274 82 Z" fill="#f0f0f0" fill-rule="evenodd"/>
  <path d="M 241 66 L 257 65 L 258 81 L 242 82 Z" fill="#f0f0f0" fill-rule="evenodd"/>
  <path d="M 209 66 L 225 65 L 226 81 L 210 82 Z" fill="#f0f0f0" fill-rule="evenodd"/>
  <path d="M 177 66 L 193 65 L 194 81 L 178 82 Z" fill="#f0f0f0" fill-rule="evenodd"/>
  <path d="M 145 66 L 161 65 L 162 81 L 146 82 Z" fill="#f0f0f0" fill-rule="evenodd"/>
  <path d="M 113 66 L 129 65 L 130 81 L 114 82 Z" fill="#f0f0f0" fill-rule="evenodd"/>
  <path d="M 81 66 L 97 65 L 98 81 L 82 82 Z" fill="#f0f0f0" fill-rule="evenodd"/>
  <path d="M 49 66 L 65 65 L 66 81 L 50 82 Z" fill="#f0f0f0" fill-rule="evenodd"/>
  <path d="M 17 66 L 33 65 L 34 81 L 18 82 Z" fill="#f0f0f0" fill-rule="evenodd"/>
  <path d="M 481 50 L 497 49 L 498 65 L 482 66 Z" fill="#f0f0f0" fill-rule="evenodd"/>
  <path d="M 449 50 L 465 49 L 466 65 L 450 66 Z" fill="#f0f0f0" fill-rule="evenodd"/>
  <path d="M 417 50 L 433 49 L 434 65 L 418 66 Z" fill="#f0f0f0" fill-rule="evenodd"/>
  <path d="M 385 50 L 401 49 L 402 65 L 386 66 Z" fill="#f0f0f0" fill-rule="evenodd"/>
  <path d="M 353 50 L 369 49 L 370 65 L 354 66 Z" fill="#f0f0f0" fill-rule="evenodd"/>
  <path d="M 321 50 L 337 49 L 338 65 L 322 66 Z" fill="#f0f0f0" fill-rule="evenodd"/>
  <path d="M 289 50 L 305 49 L 306 65 L 290 66 Z" fill="#f0f0f0" fill-rule="evenodd"/>
  <path d="M 257 50 L 273 49 L 274 65 L 258 66 Z" fill="#f0f0f0" fill-rule="evenodd"/>
  <path d="M 225 50 L 241 49 L 242 65 L 226 66 Z" fill="#f0f0f0" fill-rule="evenodd"/>
  <path d="M 193 50 L 209 49 L 210 65 L 194 66 Z" fill="#f0f0f0" fill-rule="evenodd"/>
  <path d="M 161 50 L 177 49 L 178 65 L 162 66 Z" fill="#f0f0f0" fill-rule="evenodd"/>
  <path d="M 129 50 L 145 49 L 146 65 L 130 66 Z" fill="#f0f0f0" fill-rule="evenodd"/>
  <path d="M 97 50 L 113 49 L 114 65 L 98 66 Z" fill="#f0f0f0" fill-rule="evenodd"/>
  <path d="M 65 50 L 81 49 L 82 65 L 66 66 Z" fill="#f0f0f0" fill-rule="evenodd"/>
  <path d="M 33 50 L 49 49 L 50 65 L 34 66 Z" fill="#f0f0f0" fill-rule="evenodd"/>
  <path d="M 465 34 L 481 33 L 482 49 L 466 50 Z" fill="#f0f0f0" fill-rule="evenodd"/>
  <path d="M 433 34 L 449 33 L 450 49 L 434 50 Z" fill="#f0f0f0" fill-rule="evenodd"/>
  <path d="M 401 34 L 417 33 L 418 49 L 402 50 Z" fill="#f0f0f0" fill-rule="evenodd"/>
  <path d="M 369 34 L 385 33 L 386 49 L 370 50 Z" fill="#f0f0f0" fill-rule="evenodd"/>
  <path d="M 337 34 L 353 33 L 354 49 L 338 50 Z" fill="#f0f0f0" fill-rule="evenodd"/>
  <path d="M 305 34 L 321 33 L 322 49 L 306 50 Z" fill="#f0f0f0" fill-rule="evenodd"/>
  <path d="M 273 34 L 289 33 L 290 49 L 274 50 Z" fill="#f0f0f0" fill-rule="evenodd"/>
  <path d="M 241 34 L 257 33 L 258 49 L 242 50 Z" fill="#f0f0f0" fill-rule="evenodd"/>
  <path d="M 209 34 L 225 33 L 226 49 L 210 50 Z" fill="#f0f0f0" fill-rule="evenodd"/>
  <path d="M 177 34 L 193 33 L 194 49 L 178 50 Z" fill="#f0f0f0" fill-rule="evenodd"/>
  <path d="M 145 34 L 161 33 L 162 49 L 146 50 Z" fill="#f0f0f0" fill-rule="evenodd"/>
  <path d="M 113 34 L 129 33 L 130 49 L 114 50 Z" fill="#f0f0f0" fill-rule="evenodd"/>
  <path d="M 81 34 L 97 33 L 98 49 L 82 50 Z" fill="#f0f0f0" fill-rule="evenodd"/>
  <path d="M 49 34 L 65 33 L 66 49 L 50 50 Z" fill="#f0f0f0" fill-rule="evenodd"/>
  <path d="M 17 34 L 33 33 L 34 49 L 18 50 Z" fill="#f0f0f0" fill-rule="evenodd"/>
  <path d="M 481 18 L 497 17 L 498 33 L 482 34 Z" fill="#f0f0f0" fill-rule="evenodd"/>
  <path d="M 449 18 L 465 17 L 466 33 L 450 34 Z" fill="#f0f0f0" fill-rule="evenodd"/>
  <path d="M 417 18 L 433 17 L 434 33 L 418 34 Z" fill="#f0f0f0" fill-rule="evenodd"/>
  <path d="M 385 18 L 401 17 L 402 33 L 386 34 Z" fill="#f0f0f0" fill-rule="evenodd"/>
  <path d="M 353 18 L 369 17 L 370 33 L 354 34 Z" fill="#f0f0f0" fill-rule="evenodd"/>
  <path d="M 321 18 L 337 17 L 338 33 L 322 34 Z" fill="#f0f0f0" fill-rule="evenodd"/>
  <path d="M 289 18 L 305 17 L 306 33 L 290 34 Z" fill="#f0f0f0" fill-rule="evenodd"/>
  <path d="M 257 18 L 273 17 L 274 33 L 258 34 Z" fill="#f0f0f0" fill-rule="evenodd"/>
  <path d="M 225 18 L 241 17 L 242 33 L 226 34 Z" fill="#f0f0f0" fill-rule="evenodd"/>
  <path d="M 193 18 L 209 17 L 210 33 L 194 34 Z" fill="#f0f0f0" fill-rule="evenodd"/>
  <path d="M 161 18 L 177 17 L 178 33 L 162 34 Z" fill="#f0f0f0" fill-rule="evenodd"/>
  <path d="M 129 18 L 145 17 L 146 33 L 130 34 Z" fill="#f0f0f0" fill-rule="evenodd"/>
  <path d="M 97 18 L 113 17 L 114 33 L 98 34 Z" fill="#f0f0f0" fill-rule="evenodd"/>
  <path d="M 65 18 L 81 17 L 82 33 L 66 34 Z" fill="#f0f0f0" fill-rule="evenodd"/>
  <path d="M 33 18 L 49 17 L 50 33 L 34 34 Z" fill="#f0f0f0" fill-rule="evenodd"/>
  <path d="M 481 482 L 497 481 L 498 497 L 482 498 Z" fill="#fefefe" fill-rule="evenodd"/>
  <path d="M 449 482 L 465 481 L 466 497 L 450 498 Z" fill="#fefefe" fill-rule="evenodd"/>
  <path d="M 417 482 L 433 481 L 434 497 L 418 498 Z" fill="#fefefe" fill-rule="evenodd"/>
  <path d="M 385 482 L 401 481 L 402 497 L 386 498 Z" fill="#fefefe" fill-rule="evenodd"/>
  <path d="M 353 482 L 369 481 L 370 497 L 354 498 Z" fill="#fefefe" fill-rule="evenodd"/>
  <path d="M 321 482 L 337 481 L 338 497 L 322 498 Z" fill="#fefefe" fill-rule="evenodd"/>
  <path d="M 289 482 L 305 481 L 306 497 L 290 498 Z" fill="#fefefe" fill-rule="evenodd"/>
  <path d="M 257 482 L 273 481 L 274 497 L 258 498 Z" fill="#fefefe" fill-rule="evenodd"/>
  <path d="M 225 482 L 241 481 L 242 497 L 226 498 Z" fill="#fefefe" fill-rule="evenodd"/>
  <path d="M 193 482 L 209 481 L 210 497 L 194 498 Z" fill="#fefefe" fill-rule="evenodd"/>
  <path d="M 161 482 L 177 481 L 178 497 L 162 498 Z" fill="#fefefe" fill-rule="evenodd"/>
  <path d="M 129 482 L 145 481 L 146 497 L 130 498 Z" fill="#fefefe" fill-rule="evenodd"/>
  <path d="M 97 482 L 113 481 L 114 497 L 98 498 Z" fill="#fefefe" fill-rule="evenodd"/>
  <path d="M 65 482 L 81 481 L 82 497 L 66 498 Z" fill="#fefefe" fill-rule="evenodd"/>
  <path d="M 33 482 L 49 481 L 50 497 L 34 498 Z" fill="#fefefe" fill-rule="evenodd"/>
  <path d="M 465 466 L 481 465 L 482 481 L 466 482 Z" fill="#fefefe" fill-rule="evenodd"/>
  <path d="M 433 466 L 449 465 L 450 481 L 434 482 Z" fill="#fefefe" fill-rule="evenodd"/>
  <path d="M 401 466 L 417 465 L 418 481 L 402 482 Z" fill="#fefefe" fill-rule="evenodd"/>
  <path d="M 369 466 L 385 465 L 386 481 L 370 482 Z" fill="#fefefe" fill-rule="evenodd"/>
  <path d="M 337 466 L 353 465 L 354 481 L 338 482 Z" fill="#fefefe" fill-rule="evenodd"/>
  <path d="M 305 466 L 321 465 L 322 481 L 306 482 Z" fill="#fefefe" fill-rule="evenodd"/>
  <path d="M 273 466 L 289 465 L 290 481 L 274 482 Z" fill="#fefefe" fill-rule="evenodd"/>
  <path d="M 241 466 L 257 465 L 258 481 L 242 482 Z" fill="#fefefe" fill-rule="evenodd"/>
  <path d="M 209 466 L 225 465 L 226 481 L 210 482 Z" fill="#fefefe" fill-rule="evenodd"/>
  <path d="M 177 466 L 193 465 L 194 481 L 178 482 Z" fill="#fefefe" fill-rule="evenodd"/>
  <path d="M 145 466 L 161 465 L 162 481 L 146 482 Z" fill="#fefefe" fill-rule="evenodd"/>
  <path d="M 113 466 L 129 465 L 130 481 L 114 482 Z" fill="#fefefe" fill-rule="evenodd"/>
  <path d="M 81 466 L 97 465 L 98 481 L 82 482 Z" fill="#fefefe" fill-rule="evenodd"/>
  <path d="M 49 466 L 65 465 L 66 481 L 50 482 Z" fill="#fefefe" fill-rule="evenodd"/>
  <path d="M 17 466 L 33 465 L 34 481 L 18 482 Z" fill="#fefefe" fill-rule="evenodd"/>
  <path d="M 481 450 L 497 449 L 498 465 L 482 466 Z" fill="#fefefe" fill-rule="evenodd"/>
  <path d="M 449 450 L 465 449 L 466 465 L 450 466 Z" fill="#fefefe" fill-rule="evenodd"/>
  <path d="M 417 450 L 433 449 L 434 465 L 418 466 Z" fill="#fefefe" fill-rule="evenodd"/>
  <path d="M 385 450 L 401 449 L 402 465 L 386 466 Z" fill="#fefefe" fill-rule="evenodd"/>
  <path d="M 353 450 L 369 449 L 370 465 L 354 466 Z" fill="#fefefe" fill-rule="evenodd"/>
  <path d="M 321 450 L 337 449 L 338 465 L 322 466 Z" fill="#fefefe" fill-rule="evenodd"/>
  <path d="M 289 450 L 305 449 L 306 465 L 290 466 Z" fill="#fefefe" fill-rule="evenodd"/>
  <path d="M 257 450 L 273 449 L 274 465 L 258 466 Z" fill="#fefefe" fill-rule="evenodd"/>
  <path d="M 225 450 L 241 449 L 242 465 L 226 466 Z" fill="#fefefe" fill-rule="evenodd"/>
  <path d="M 193 450 L 209 449 L 210 465 L 194 466 Z" fill="#fefefe" fill-rule="evenodd"/>
  <path d="M 161 450 L 177 449 L 178 465 L 162 466 Z" fill="#fefefe" fill-rule="evenodd"/>
  <path d="M 129 450 L 145 449 L 146 465 L 130 466 Z" fill="#fefefe" fill-rule="evenodd"/>
  <path d="M 97 450 L 113 449 L 114 465 L 98 466 Z" fill="#fefefe" fill-rule="evenodd"/>
  <path d="M 65 450 L 81 449 L 82 465 L 66 466 Z" fill="#fefefe" fill-rule="evenodd"/>
  <path d="M 33 450 L 49 449 L 50 465 L 34 466 Z" fill="#fefefe" fill-rule="evenodd"/>
  <path d="M 465 434 L 481 433 L 482 449 L 466 450 Z" fill="#fefefe" fill-rule="evenodd"/>
  <path d="M 433 434 L 449 433 L 450 449 L 434 450 Z" fill="#fefefe" fill-rule="evenodd"/>
  <path d="M 401 434 L 417 433 L 418 449 L 402 450 Z" fill="#fefefe" fill-rule="evenodd"/>
  <path d="M 369 434 L 385 433 L 386 449 L 370 450 Z" fill="#fefefe" fill-rule="evenodd"/>
  <path d="M 337 434 L 353 433 L 354 449 L 338 450 Z" fill="#fefefe" fill-rule="evenodd"/>
  <path d="M 305 434 L 321 433 L 322 449 L 306 450 Z" fill="#fefefe" fill-rule="evenodd"/>
  <path d="M 273 434 L 289 433 L 290 449 L 274 450 Z" fill="#fefefe" fill-rule="evenodd"/>
  <path d="M 241 434 L 257 433 L 258 449 L 242 450 Z" fill="#fefefe" fill-rule="evenodd"/>
  <path d="M 209 434 L 225 433 L 226 449 L 210 450 Z" fill="#fefefe" fill-rule="evenodd"/>
  <path d="M 177 434 L 193 433 L 194 449 L 178 450 Z" fill="#fefefe" fill-rule="evenodd"/>
  <path d="M 145 434 L 161 433 L 162 449 L 146 450 Z" fill="#fefefe" fill-rule="evenodd"/>
  <path d="M 113 434 L 129 433 L 130 449 L 114 450 Z" fill="#fefefe" fill-rule="evenodd"/>
  <path d="M 81 434 L 97 433 L 98 449 L 82 450 Z" fill="#fefefe" fill-rule="evenodd"/>
  <path d="M 49 434 L 65 433 L 66 449 L 50 450 Z" fill="#fefefe" fill-rule="evenodd"/>
  <path d="M 17 434 L 33 433 L 34 449 L 18 450 Z" fill="#fefefe" fill-rule="evenodd"/>
  <path d="M 481 418 L 497 417 L 498 433 L 482 434 Z" fill="#fefefe" fill-rule="evenodd"/>
  <path d="M 449 418 L 465 417 L 466 433 L 450 434 Z" fill="#fefefe" fill-rule="evenodd"/>
  <path d="M 417 418 L 433 417 L 434 433 L 418 434 Z" fill="#fefefe" fill-rule="evenodd"/>
  <path d="M 385 418 L 401 417 L 402 433 L 386 434 Z" fill="#fefefe" fill-rule="evenodd"/>
  <path d="M 353 418 L 369 417 L 370 433 L 354 434 Z" fill="#fefefe" fill-rule="evenodd"/>
  <path d="M 321 418 L 337 417 L 338 433 L 322 434 Z" fill="#fefefe" fill-rule="evenodd"/>
  <path d="M 289 418 L 305 417 L 306 433 L 290 434 Z" fill="#fefefe" fill-rule="evenodd"/>
  <path d="M 257 418 L 273 417 L 274 433 L 258 434 Z" fill="#fefefe" fill-rule="evenodd"/>
  <path d="M 225 418 L 241 417 L 242 433 L 226 434 Z" fill="#fefefe" fill-rule="evenodd"/>
  <path d="M 193 418 L 209 417 L 210 433 L 194 434 Z" fill="#fefefe" fill-rule="evenodd"/>
  <path d="M 161 418 L 177 417 L 178 433 L 162 434 Z" fill="#fefefe" fill-rule="evenodd"/>
  <path d="M 129 418 L 145 417 L 146 433 L 130 434 Z" fill="#fefefe" fill-rule="evenodd"/>
  <path d="M 97 418 L 113 417 L 114 433 L 98 434 Z" fill="#fefefe" fill-rule="evenodd"/>
  <path d="M 65 418 L 81 417 L 82 433 L 66 434 Z" fill="#fefefe" fill-rule="evenodd"/>
  <path d="M 33 418 L 49 417 L 50 433 L 34 434 Z" fill="#fefefe" fill-rule="evenodd"/>
  <path d="M 465 402 L 481 401 L 482 417 L 466 418 Z" fill="#fefefe" fill-rule="evenodd"/>
  <path d="M 433 402 L 449 401 L 450 417 L 434 418 Z" fill="#fefefe" fill-rule="evenodd"/>
  <path d="M 401 402 L 417 401 L 418 417 L 402 418 Z" fill="#fefefe" fill-rule="evenodd"/>
  <path d="M 241 402 L 257 401 L 258 417 L 242 418 Z" fill="#fefefe" fill-rule="evenodd"/>
  <path d="M 209 402 L 225 401 L 226 417 L 210 418 Z" fill="#fefefe" fill-rule="evenodd"/>
  <path d="M 177 402 L 193 401 L 194 417 L 178 418 Z" fill="#fefefe" fill-rule="evenodd"/>
  <path d="M 145 402 L 161 401 L 162 417 L 146 418 Z" fill="#fefefe" fill-rule="evenodd"/>
  <path d="M 113 402 L 129 401 L 130 417 L 114 418 Z" fill="#fefefe" fill-rule="evenodd"/>
  <path d="M 81 402 L 97 401 L 98 417 L 82 418 Z" fill="#fefefe" fill-rule="evenodd"/>
  <path d="M 49 402 L 65 401 L 66 417 L 50 418 Z" fill="#fefefe" fill-rule="evenodd"/>
  <path d="M 17 402 L 33 401 L 34 417 L 18 418 Z" fill="#fefefe" fill-rule="evenodd"/>
  <path d="M 481 386 L 497 385 L 498 401 L 482 402 Z" fill="#fefefe" fill-rule="evenodd"/>
  <path d="M 449 386 L 465 385 L 466 401 L 450 402 Z" fill="#fefefe" fill-rule="evenodd"/>
  <path d="M 417 386 L 433 385 L 434 401 L 418 402 Z" fill="#fefefe" fill-rule="evenodd"/>
  <path d="M 193 386 L 209 385 L 210 401 L 194 402 Z" fill="#fefefe" fill-rule="evenodd"/>
  <path d="M 65 386 L 81 385 L 82 401 L 66 402 Z" fill="#fefefe" fill-rule="evenodd"/>
  <path d="M 33 386 L 49 385 L 50 401 L 34 402 Z" fill="#fefefe" fill-rule="evenodd"/>
  <path d="M 465 370 L 481 369 L 482 385 L 466 386 Z" fill="#fefefe" fill-rule="evenodd"/>
  <path d="M 433 370 L 449 369 L 450 385 L 434 386 Z" fill="#fefefe" fill-rule="evenodd"/>
  <path d="M 49 370 L 65 369 L 66 385 L 50 386 Z" fill="#fefefe" fill-rule="evenodd"/>
  <path d="M 17 370 L 33 369 L 34 385 L 18 386 Z" fill="#fefefe" fill-rule="evenodd"/>
  <path d="M 481 354 L 497 353 L 498 369 L 482 370 Z" fill="#fefefe" fill-rule="evenodd"/>
  <path d="M 449 354 L 465 353 L 466 369 L 450 370 Z" fill="#fefefe" fill-rule="evenodd"/>
  <path d="M 65 354 L 81 353 L 82 369 L 66 370 Z" fill="#fefefe" fill-rule="evenodd"/>
  <path d="M 33 354 L 49 353 L 50 369 L 34 370 Z" fill="#fefefe" fill-rule="evenodd"/>
  <path d="M 465 338 L 481 337 L 482 353 L 466 354 Z" fill="#fefefe" fill-rule="evenodd"/>
  <path d="M 433 338 L 449 337 L 450 353 L 434 354 Z" fill="#fefefe" fill-rule="evenodd"/>
  <path d="M 49 338 L 65 337 L 66 353 L 50 354 Z" fill="#fefefe" fill-rule="evenodd"/>
  <path d="M 17 338 L 33 337 L 34 353 L 18 354 Z" fill="#fefefe" fill-rule="evenodd"/>
  <path d="M 481 322 L 497 321 L 498 337 L 482 338 Z" fill="#fefefe" fill-rule="evenodd"/>
  <path d="M 449 322 L 465 321 L 466 337 L 450 338 Z" fill="#fefefe" fill-rule="evenodd"/>
  <path d="M 65 322 L 81 321 L 82 337 L 66 338 Z" fill="#fefefe" fill-rule="evenodd"/>
  <path d="M 33 322 L 49 321 L 50 337 L 34 338 Z" fill="#fefefe" fill-rule="evenodd"/>
  <path d="M 465 306 L 481 305 L 482 321 L 466 322 Z" fill="#fefefe" fill-rule="evenodd"/>
  <path d="M 433 306 L 449 305 L 450 321 L 434 322 Z" fill="#fefefe" fill-rule="evenodd"/>
  <path d="M 49 306 L 65 305 L 66 321 L 50 322 Z" fill="#fefefe" fill-rule="evenodd"/>
  <path d="M 17 306 L 33 305 L 34 321 L 18 322 Z" fill="#fefefe" fill-rule="evenodd"/>
  <path d="M 481 290 L 497 289 L 498 305 L 482 306 Z" fill="#fefefe" fill-rule="evenodd"/>
  <path d="M 449 290 L 465 289 L 466 305 L 450 306 Z" fill="#fefefe" fill-rule="evenodd"/>
  <path d="M 65 290 L 81 289 L 82 305 L 66 306 Z" fill="#fefefe" fill-rule="evenodd"/>
  <path d="M 33 290 L 49 289 L 50 305 L 34 306 Z" fill="#fefefe" fill-rule="evenodd"/>
  <path d="M 465 274 L 481 273 L 482 289 L 466 290 Z" fill="#fefefe" fill-rule="evenodd"/>
  <path d="M 433 274 L 449 273 L 450 289 L 434 290 Z" fill="#fefefe" fill-rule="evenodd"/>
  <path d="M 49 274 L 65 273 L 66 289 L 50 290 Z" fill="#fefefe" fill-rule="evenodd"/>
  <path d="M 17 274 L 33 273 L 34 289 L 18 290 Z" fill="#fefefe" fill-rule="evenodd"/>
  <path d="M 481 258 L 497 257 L 498 273 L 482 274 Z" fill="#fefefe" fill-rule="evenodd"/>
  <path d="M 449 258 L 465 257 L 466 273 L 450 274 Z" fill="#fefefe" fill-rule="evenodd"/>
  <path d="M 65 258 L 81 257 L 82 273 L 66 274 Z" fill="#fefefe" fill-rule="evenodd"/>
  <path d="M 33 258 L 49 257 L 50 273 L 34 274 Z" fill="#fefefe" fill-rule="evenodd"/>
  <path d="M 465 242 L 481 241 L 482 257 L 466 258 Z" fill="#fefefe" fill-rule="evenodd"/>
  <path d="M 433 242 L 449 241 L 450 257 L 434 258 Z" fill="#fefefe" fill-rule="evenodd"/>
  <path d="M 49 242 L 65 241 L 66 257 L 50 258 Z" fill="#fefefe" fill-rule="evenodd"/>
  <path d="M 17 242 L 33 241 L 34 257 L 18 258 Z" fill="#fefefe" fill-rule="evenodd"/>
  <path d="M 481 226 L 497 225 L 498 241 L 482 242 Z" fill="#fefefe" fill-rule="evenodd"/>
  <path d="M 449 226 L 465 225 L 466 241 L 450 242 Z" fill="#fefefe" fill-rule="evenodd"/>
  <path d="M 65 226 L 81 225 L 82 241 L 66 242 Z" fill="#fefefe" fill-rule="evenodd"/>
  <path d="M 33 226 L 49 225 L 50 241 L 34 242 Z" fill="#fefefe" fill-rule="evenodd"/>
  <path d="M 465 210 L 481 209 L 482 225 L 466 226 Z" fill="#fefefe" fill-rule="evenodd"/>
  <path d="M 433 210 L 449 209 L 450 225 L 434 226 Z" fill="#fefefe" fill-rule="evenodd"/>
  <path d="M 49 210 L 65 209 L 66 225 L 50 226 Z" fill="#fefefe" fill-rule="evenodd"/>
  <path d="M 17 210 L 33 209 L 34 225 L 18 226 Z" fill="#fefefe" fill-rule="evenodd"/>
  <path d="M 481 194 L 497 193 L 498 209 L 482 210 Z" fill="#fefefe" fill-rule="evenodd"/>
  <path d="M 449 194 L 465 193 L 466 209 L 450 210 Z" fill="#fefefe" fill-rule="evenodd"/>
  <path d="M 417 194 L 433 193 L 434 209 L 418 210 Z" fill="#fefefe" fill-rule="evenodd"/>
  <path d="M 65 194 L 81 193 L 82 209 L 66 210 Z" fill="#fefefe" fill-rule="evenodd"/>
  <path d="M 33 194 L 49 193 L 50 209 L 34 210 Z" fill="#fefefe" fill-rule="evenodd"/>
  <path d="M 465 178 L 481 177 L 482 193 L 466 194 Z" fill="#fefefe" fill-rule="evenodd"/>
  <path d="M 433 178 L 449 177 L 450 193 L 434 194 Z" fill="#fefefe" fill-rule="evenodd"/>
  <path d="M 401 178 L 417 177 L 418 193 L 402 194 Z" fill="#fefefe" fill-rule="evenodd"/>
  <path d="M 369 178 L 385 177 L 386 193 L 370 194 Z" fill="#fefefe" fill-rule="evenodd"/>
  <path d="M 145 178 L 161 177 L 162 193 L 146 194 Z" fill="#fefefe" fill-rule="evenodd"/>
  <path d="M 113 178 L 129 177 L 130 193 L 114 194 Z" fill="#fefefe" fill-rule="evenodd"/>
  <path d="M 81 178 L 97 177 L 98 193 L 82 194 Z" fill="#fefefe" fill-rule="evenodd"/>
  <path d="M 49 178 L 65 177 L 66 193 L 50 194 Z" fill="#fefefe" fill-rule="evenodd"/>
  <path d="M 17 178 L 33 177 L 34 193 L 18 194 Z" fill="#fefefe" fill-rule="evenodd"/>
  <path d="M 481 162 L 497 161 L 498 177 L 482 178 Z" fill="#fefefe" fill-rule="evenodd"/>
  <path d="M 449 162 L 465 161 L 466 177 L 450 178 Z" fill="#fefefe" fill-rule="evenodd"/>
  <path d="M 417 162 L 433 161 L 434 177 L 418 178 Z" fill="#fefefe" fill-rule="evenodd"/>
  <path d="M 385 162 L 401 161 L 402 177 L 386 178 Z" fill="#fefefe" fill-rule="evenodd"/>
  <path d="M 353 162 L 369 161 L 370 177 L 354 178 Z" fill="#fefefe" fill-rule="evenodd"/>
  <path d="M 129 162 L 145 161 L 146 177 L 130 178 Z" fill="#fefefe" fill-rule="evenodd"/>
  <path d="M 97 162 L 113 161 L 114 177 L 98 178 Z" fill="#fefefe" fill-rule="evenodd"/>
  <path d="M 65 162 L 81 161 L 82 177 L 66 178 Z" fill="#fefefe" fill-rule="evenodd"/>
  <path d="M 33 162 L 49 161 L 50 177 L 34 178 Z" fill="#fefefe" fill-rule="evenodd"/>
  <path d="M 465 146 L 481 145 L 482 161 L 466 162 Z" fill="#fefefe" fill-rule="evenodd"/>
  <path d="M 433 146 L 449 145 L 450 161 L 434 162 Z" fill="#fefefe" fill-rule="evenodd"/>
  <path d="M 401 146 L 417 145 L 418 161 L 402 162 Z" fill="#fefefe" fill-rule="evenodd"/>
  <path d="M 369 146 L 385 145 L 386 161 L 370 162 Z" fill="#fefefe" fill-rule="evenodd"/>
  <path d="M 145 146 L 161 145 L 162 161 L 146 162 Z" fill="#fefefe" fill-rule="evenodd"/>
  <path d="M 113 146 L 129 145 L 130 161 L 114 162 Z" fill="#fefefe" fill-rule="evenodd"/>
  <path d="M 81 146 L 97 145 L 98 161 L 82 162 Z" fill="#fefefe" fill-rule="evenodd"/>
  <path d="M 49 146 L 65 145 L 66 161 L 50 162 Z" fill="#fefefe" fill-rule="evenodd"/>
  <path d="M 17 146 L 33 145 L 34 161 L 18 162 Z" fill="#fefefe" fill-rule="evenodd"/>
  <path d="M 481 130 L 497 129 L 498 145 L 482 146 Z" fill="#fefefe" fill-rule="evenodd"/>
  <path d="M 449 130 L 465 129 L 466 145 L 450 146 Z" fill="#fefefe" fill-rule="evenodd"/>
  <path d="M 417 130 L 433 129 L 434 145 L 418 146 Z" fill="#fefefe" fill-rule="evenodd"/>
  <path d="M 385 130 L 401 129 L 402 145 L 386 146 Z" fill="#fefefe" fill-rule="evenodd"/>
  <path d="M 353 130 L 369 129 L 370 145 L 354 146 Z" fill="#fefefe" fill-rule="evenodd"/>
  <path d="M 161 130 L 177 129 L 178 145 L 162 146 Z" fill="#fefefe" fill-rule="evenodd"/>
  <path d="M 129 130 L 145 129 L 146 145 L 130 146 Z" fill="#fefefe" fill-rule="evenodd"/>
  <path d="M 97 130 L 113 129 L 114 145 L 98 146 Z" fill="#fefefe" fill-rule="evenodd"/>
  <path d="M 65 130 L 81 129 L 82 145 L 66 146 Z" fill="#fefefe" fill-rule="evenodd"/>
  <path d="M 33 130 L 49 129 L 50 145 L 34 146 Z" fill="#fefefe" fill-rule="evenodd"/>
  <path d="M 465 114 L 481 113 L 482 129 L 466 130 Z" fill="#fefefe" fill-rule="evenodd"/>
  <path d="M 433 114 L 449 113 L 450 129 L 434 130 Z" fill="#fefefe" fill-rule="evenodd"/>
  <path d="M 401 114 L 417 113 L 418 129 L 402 130 Z" fill="#fefefe" fill-rule="evenodd"/>
  <path d="M 369 114 L 385 113 L 386 129 L 370 130 Z" fill="#fefefe" fill-rule="evenodd"/>
  <path d="M 337 114 L 353 113 L 354 129 L 338 130 Z" fill="#fefefe" fill-rule="evenodd"/>
  <path d="M 145 114 L 161 113 L 162 129 L 146 130 Z" fill="#fefefe" fill-rule="evenodd"/>
  <path d="M 113 114 L 129 113 L 130 129 L 114 130 Z" fill="#fefefe" fill-rule="evenodd"/>
  <path d="M 81 114 L 97 113 L 98 129 L 82 130 Z" fill="#fefefe" fill-rule="evenodd"/>
  <path d="M 49 114 L 65 113 L 66 129 L 50 130 Z" fill="#fefefe" fill-rule="evenodd"/>
  <path d="M 17 114 L 33 113 L 34 129 L 18 130 Z" fill="#fefefe" fill-rule="evenodd"/>
  <path d="M 481 98 L 497 97 L 498 113 L 482 114 Z" fill="#fefefe" fill-rule="evenodd"/>
  <path d="M 449 98 L 465 97 L 466 113 L 450 114 Z" fill="#fefefe" fill-rule="evenodd"/>
  <path d="M 417 98 L 433 97 L 434 113 L 418 114 Z" fill="#fefefe" fill-rule="evenodd"/>
  <path d="M 385 98 L 401 97 L 402 113 L 386 114 Z" fill="#fefefe" fill-rule="evenodd"/>
  <path d="M 353 98 L 369 97 L 370 113 L 354 114 Z" fill="#fefefe" fill-rule="evenodd"/>
  <path d="M 321 98 L 337 97 L 338 113 L 322 114 Z" fill="#fefefe" fill-rule="evenodd"/>
  <path d="M 193 98 L 209 97 L 210 113 L 194 114 Z" fill="#fefefe" fill-rule="evenodd"/>
  <path d="M 161 98 L 177 97 L 178 113 L 162 114 Z" fill="#fefefe" fill-rule="evenodd"/>
  <path d="M 129 98 L 145 97 L 146 113 L 130 114 Z" fill="#fefefe" fill-rule="evenodd"/>
  <path d="M 97 98 L 113 97 L 114 113 L 98 114 Z" fill="#fefefe" fill-rule="evenodd"/>
  <path d="M 65 98 L 81 97 L 82 113 L 66 114 Z" fill="#fefefe" fill-rule="evenodd"/>
  <path d="M 33 98 L 49 97 L 50 113 L 34 114 Z" fill="#fefefe" fill-rule="evenodd"/>
  <path d="M 465 82 L 481 81 L 482 97 L 466 98 Z" fill="#fefefe" fill-rule="evenodd"/>
  <path d="M 433 82 L 449 81 L 450 97 L 434 98 Z" fill="#fefefe" fill-rule="evenodd"/>
  <path d="M 401 82 L 417 81 L 418 97 L 402 98 Z" fill="#fefefe" fill-rule="evenodd"/>
  <path d="M 369 82 L 385 81 L 386 97 L 370 98 Z" fill="#fefefe" fill-rule="evenodd"/>
  <path d="M 337 82 L 353 81 L 354 97 L 338 98 Z" fill="#fefefe" fill-rule="evenodd"/>
  <path d="M 305 82 L 321 81 L 322 97 L 306 98 Z" fill="#fefefe" fill-rule="evenodd"/>
  <path d="M 273 82 L 289 81 L 290 97 L 274 98 Z" fill="#fefefe" fill-rule="evenodd"/>
  <path d="M 241 82 L 257 81 L 258 97 L 242 98 Z" fill="#fefefe" fill-rule="evenodd"/>
  <path d="M 209 82 L 225 81 L 226 97 L 210 98 Z" fill="#fefefe" fill-rule="evenodd"/>
  <path d="M 177 82 L 193 81 L 194 97 L 178 98 Z" fill="#fefefe" fill-rule="evenodd"/>
  <path d="M 145 82 L 161 81 L 162 97 L 146 98 Z" fill="#fefefe" fill-rule="evenodd"/>
  <path d="M 113 82 L 129 81 L 130 97 L 114 98 Z" fill="#fefefe" fill-rule="evenodd"/>
  <path d="M 81 82 L 97 81 L 98 97 L 82 98 Z" fill="#fefefe" fill-rule="evenodd"/>
  <path d="M 49 82 L 65 81 L 66 97 L 50 98 Z" fill="#fefefe" fill-rule="evenodd"/>
  <path d="M 17 82 L 33 81 L 34 97 L 18 98 Z" fill="#fefefe" fill-rule="evenodd"/>
  <path d="M 481 66 L 497 65 L 498 81 L 482 82 Z" fill="#fefefe" fill-rule="evenodd"/>
  <path d="M 449 66 L 465 65 L 466 81 L 450 82 Z" fill="#fefefe" fill-rule="evenodd"/>
  <path d="M 417 66 L 433 65 L 434 81 L 418 82 Z" fill="#fefefe" fill-rule="evenodd"/>
  <path d="M 385 66 L 401 65 L 402 81 L 386 82 Z" fill="#fefefe" fill-rule="evenodd"/>
  <path d="M 353 66 L 369 65 L 370 81 L 354 82 Z" fill="#fefefe" fill-rule="evenodd"/>
  <path d="M 321 66 L 337 65 L 338 81 L 322 82 Z" fill="#fefefe" fill-rule="evenodd"/>
  <path d="M 289 66 L 305 65 L 306 81 L 290 82 Z" fill="#fefefe" fill-rule="evenodd"/>
  <path d="M 257 66 L 273 65 L 274 81 L 258 82 Z" fill="#fefefe" fill-rule="evenodd"/>
  <path d="M 225 66 L 241 65 L 242 81 L 226 82 Z" fill="#fefefe" fill-rule="evenodd"/>
  <path d="M 193 66 L 209 65 L 210 81 L 194 82 Z" fill="#fefefe" fill-rule="evenodd"/>
  <path d="M 161 66 L 177 65 L 178 81 L 162 82 Z" fill="#fefefe" fill-rule="evenodd"/>
  <path d="M 129 66 L 145 65 L 146 81 L 130 82 Z" fill="#fefefe" fill-rule="evenodd"/>
  <path d="M 97 66 L 113 65 L 114 81 L 98 82 Z" fill="#fefefe" fill-rule="evenodd"/>
  <path d="M 65 66 L 81 65 L 82 81 L 66 82 Z" fill="#fefefe" fill-rule="evenodd"/>
  <path d="M 33 66 L 49 65 L 50 81 L 34 82 Z" fill="#fefefe" fill-rule="evenodd"/>
  <path d="M 465 50 L 481 49 L 482 65 L 466 66 Z" fill="#fefefe" fill-rule="evenodd"/>
  <path d="M 433 50 L 449 49 L 450 65 L 434 66 Z" fill="#fefefe" fill-rule="evenodd"/>
  <path d="M 401 50 L 417 49 L 418 65 L 402 66 Z" fill="#fefefe" fill-rule="evenodd"/>
  <path d="M 369 50 L 385 49 L 386 65 L 370 66 Z" fill="#fefefe" fill-rule="evenodd"/>
  <path d="M 337 50 L 353 49 L 354 65 L 338 66 Z" fill="#fefefe" fill-rule="evenodd"/>
  <path d="M 305 50 L 321 49 L 322 65 L 306 66 Z" fill="#fefefe" fill-rule="evenodd"/>
  <path d="M 273 50 L 289 49 L 290 65 L 274 66 Z" fill="#fefefe" fill-rule="evenodd"/>
  <path d="M 241 50 L 257 49 L 258 65 L 242 66 Z" fill="#fefefe" fill-rule="evenodd"/>
  <path d="M 209 50 L 225 49 L 226 65 L 210 66 Z" fill="#fefefe" fill-rule="evenodd"/>
  <path d="M 177 50 L 193 49 L 194 65 L 178 66 Z" fill="#fefefe" fill-rule="evenodd"/>
  <path d="M 145 50 L 161 49 L 162 65 L 146 66 Z" fill="#fefefe" fill-rule="evenodd"/>
  <path d="M 113 50 L 129 49 L 130 65 L 114 66 Z" fill="#fefefe" fill-rule="evenodd"/>
  <path d="M 81 50 L 97 49 L 98 65 L 82 66 Z" fill="#fefefe" fill-rule="evenodd"/>
  <path d="M 49 50 L 65 49 L 66 65 L 50 66 Z" fill="#fefefe" fill-rule="evenodd"/>
  <path d="M 17 50 L 33 49 L 34 65 L 18 66 Z" fill="#fefefe" fill-rule="evenodd"/>
  <path d="M 481 34 L 497 33 L 498 49 L 482 50 Z" fill="#fefefe" fill-rule="evenodd"/>
  <path d="M 449 34 L 465 33 L 466 49 L 450 50 Z" fill="#fefefe" fill-rule="evenodd"/>
  <path d="M 417 34 L 433 33 L 434 49 L 418 50 Z" fill="#fefefe" fill-rule="evenodd"/>
  <path d="M 385 34 L 401 33 L 402 49 L 386 50 Z" fill="#fefefe" fill-rule="evenodd"/>
  <path d="M 353 34 L 369 33 L 370 49 L 354 50 Z" fill="#fefefe" fill-rule="evenodd"/>
  <path d="M 321 34 L 337 33 L 338 49 L 322 50 Z" fill="#fefefe" fill-rule="evenodd"/>
  <path d="M 289 34 L 305 33 L 306 49 L 290 50 Z" fill="#fefefe" fill-rule="evenodd"/>
  <path d="M 257 34 L 273 33 L 274 49 L 258 50 Z" fill="#fefefe" fill-rule="evenodd"/>
  <path d="M 225 34 L 241 33 L 242 49 L 226 50 Z" fill="#fefefe" fill-rule="evenodd"/>
  <path d="M 193 34 L 209 33 L 210 49 L 194 50 Z" fill="#fefefe" fill-rule="evenodd"/>
  <path d="M 161 34 L 177 33 L 178 49 L 162 50 Z" fill="#fefefe" fill-rule="evenodd"/>
  <path d="M 129 34 L 145 33 L 146 49 L 130 50 Z" fill="#fefefe" fill-rule="evenodd"/>
  <path d="M 97 34 L 113 33 L 114 49 L 98 50 Z" fill="#fefefe" fill-rule="evenodd"/>
  <path d="M 65 34 L 81 33 L 82 49 L 66 50 Z" fill="#fefefe" fill-rule="evenodd"/>
  <path d="M 33 34 L 49 33 L 50 49 L 34 50 Z" fill="#fefefe" fill-rule="evenodd"/>
  <path d="M 465 18 L 481 17 L 482 33 L 466 34 Z" fill="#fefefe" fill-rule="evenodd"/>
  <path d="M 433 18 L 449 17 L 450 33 L 434 34 Z" fill="#fefefe" fill-rule="evenodd"/>
  <path d="M 401 18 L 417 17 L 418 33 L 402 34 Z" fill="#fefefe" fill-rule="evenodd"/>
  <path d="M 369 18 L 385 17 L 386 33 L 370 34 Z" fill="#fefefe" fill-rule="evenodd"/>
  <path d="M 337 18 L 353 17 L 354 33 L 338 34 Z" fill="#fefefe" fill-rule="evenodd"/>
  <path d="M 305 18 L 321 17 L 322 33 L 306 34 Z" fill="#fefefe" fill-rule="evenodd"/>
  <path d="M 273 18 L 289 17 L 290 33 L 274 34 Z" fill="#fefefe" fill-rule="evenodd"/>
  <path d="M 241 18 L 257 17 L 258 33 L 242 34 Z" fill="#fefefe" fill-rule="evenodd"/>
  <path d="M 209 18 L 225 17 L 226 33 L 210 34 Z" fill="#fefefe" fill-rule="evenodd"/>
  <path d="M 177 18 L 193 17 L 194 33 L 178 34 Z" fill="#fefefe" fill-rule="evenodd"/>
  <path d="M 145 18 L 161 17 L 162 33 L 146 34 Z" fill="#fefefe" fill-rule="evenodd"/>
  <path d="M 113 18 L 129 17 L 130 33 L 114 34 Z" fill="#fefefe" fill-rule="evenodd"/>
  <path d="M 81 18 L 97 17 L 98 33 L 82 34 Z" fill="#fefefe" fill-rule="evenodd"/>
  <path d="M 49 18 L 65 17 L 66 33 L 50 34 Z" fill="#fefefe" fill-rule="evenodd"/>
  <path d="M 17 18 L 33 17 L 34 33 L 18 34 Z" fill="#fefefe" fill-rule="evenodd"/>
</svg>
