<svg xmlns="http://www.w3.org/2000/svg" width="1024" height="1024" viewBox="0 0 1024 1024">
<g>
<path d="M 722.50 443.92 C710.87,446.47 684.56,446.53 672.50,444.04 C635.57,436.42 603.83,412.46 586.69,379.26 C571.74,350.32 569.01,317.54 578.99,287.00 C592.99,244.18 627.34,213.48 672.00,203.88 C680.35,202.09 685.57,201.63 697.50,201.67 C713.95,201.71 725.15,203.57 739.00,208.55 C775.37,221.63 802.78,250.37 814.80,288.00 C818.56,299.78 820.00,309.87 820.00,324.32 C819.98,381.55 779.28,431.48 722.50,443.92 ZM 667.50 375.85 C670.46,377.46 677.65,377.23 681.30,375.40 C685.08,373.52 758.47,300.74 760.57,296.80 C764.96,288.53 759.49,277.12 750.30,275.40 C742.12,273.86 740.83,274.85 706.25,309.32 L 674.00 341.46 L 662.75 330.34 C656.56,324.22 650.52,318.72 649.32,318.11 C648.11,317.50 644.64,317.00 641.60,317.00 C636.84,317.00 635.58,317.43 632.55,320.09 C628.21,323.90 626.49,329.39 627.94,334.75 C628.74,337.70 632.88,342.39 647.23,356.63 C657.28,366.60 666.40,375.25 667.50,375.85 Z" fill="rgb(147,25,41)"/>
<path d="M 722.50 443.92 C779.28,431.48 819.98,381.55 820.00,324.32 C819.98,382.60 777.93,432.98 719.65,444.56 L 711.00 446.27 L 710.86 466.39 C710.78,477.45 710.74,502.48 710.78,522.00 C710.87,563.15 711.90,571.12 719.27,587.98 C725.36,601.89 731.92,611.05 745.45,624.50 C758.19,637.16 762.40,643.40 765.36,654.00 C767.98,663.40 768.28,669.85 766.49,678.50 C761.86,700.97 745.05,717.78 722.50,722.50 C716.47,723.76 686.76,723.95 509.00,723.87 C395.42,723.81 300.14,723.37 297.25,722.89 C270.56,718.44 250.72,695.25 250.88,668.70 C250.98,651.04 256.03,640.82 272.66,624.63 C291.68,606.11 300.05,591.70 305.56,568.00 C307.09,561.44 307.40,551.93 308.02,492.00 C308.78,418.57 308.63,420.79 314.45,396.50 C320.66,370.57 334.01,342.51 350.73,320.20 C358.11,310.36 376.33,291.51 386.00,283.71 C402.56,270.35 427.43,256.36 445.00,250.50 L 452.50 248.00 L 452.15 239.63 C451.71,229.06 453.20,221.86 457.68,212.91 C464.37,199.54 477.39,188.53 492.00,183.88 C501.72,180.78 518.21,180.96 527.70,184.26 C545.39,190.41 559.84,205.91 564.42,223.64 C565.29,227.04 566.00,233.83 566.00,238.81 L 566.00 247.84 L 572.75 250.08 C576.46,251.31 582.38,253.61 585.89,255.18 C589.41,256.76 592.41,257.92 592.55,257.77 C592.65,257.67 593.72,256.25 595.19,254.27 C588.36,264.11 582.89,275.09 578.99,287.00 C569.01,317.54 571.74,350.32 586.69,379.26 C603.83,412.46 635.57,436.42 672.50,444.04 C684.56,446.53 710.87,446.47 722.50,443.92 ZM 527.18 827.08 C503.42,833.16 474.41,825.29 455.12,807.53 C442.00,795.46 430.30,772.17 431.19,759.86 L 431.50 755.50 L 586.50 755.50 L 586.83 758.98 C587.01,760.89 586.40,765.61 585.46,769.48 C578.75,797.29 556.09,819.69 527.18,827.08 ZM 608.11 238.61 C618.99,227.37 631.73,218.57 646.44,212.14 C631.88,218.57 618.94,227.53 608.11,238.61 ZM 655.88 208.41 C661.90,206.26 667.51,204.69 673.25,203.62 C672.84,203.70 672.42,203.79 672.00,203.88 C666.46,205.07 661.08,206.59 655.88,208.41 Z" fill="rgb(204,152,89)"/>
</g>
</svg>