<svg xmlns="http://www.w3.org/2000/svg" width="1024" height="1024" viewBox="0 0 1024 1024">
<g>
<path d="M 363.54 723.48 C352.02,726.41 340.60,724.88 327.47,718.65 C315.15,712.80 306.28,703.09 300.24,688.87 L 297.54 682.50 L 297.23 631.26 L 296.91 580.03 L 364.50 579.50 L 364.75 475.90 L 365.01 372.29 L 383.75 371.70 C420.78,370.52 452.30,364.71 487.85,352.52 C537.50,335.49 589.32,305.16 633.00,267.56 C642.94,259.01 653.30,255.29 664.37,256.31 C673.01,257.10 676.99,258.48 683.78,263.01 C690.82,267.71 696.11,274.18 699.23,281.89 L 701.50 287.50 L 701.15 658.25 L 699.03 663.92 C694.60,675.76 684.72,685.23 672.78,689.07 C667.18,690.87 664.45,691.18 658.01,690.74 C647.48,690.02 642.13,687.44 625.77,675.20 C568.11,632.07 514.44,606.35 452.45,592.14 C440.36,589.37 419.47,586.00 414.50,586.02 C414.06,586.02 413.65,586.01 413.26,586.00 C412.00,585.97 411.02,585.95 410.25,586.34 C407.24,587.86 407.41,595.65 406.95,633.71 C406.43,677.35 406.30,679.81 404.22,686.07 C398.10,704.44 382.68,718.62 363.54,723.48 Z" fill="rgb(41,53,82)"/>
<path d="M 365.01 372.43 L 364.75 475.90 L 364.50 579.50 L 296.91 580.03 L 297.23 631.26 L 296.92 580.33 L 286.32 577.71 C266.51,572.81 245.95,560.62 233.24,546.26 C204.17,513.39 198.20,469.66 217.43,430.50 C230.39,404.10 253.24,385.10 282.50,376.38 L 291.50 373.70 L 338.50 372.94 C347.74,372.79 356.88,372.62 365.01,372.43 ZM 561.60 318.38 C586.47,303.78 611.82,285.80 633.00,267.56 C610.85,286.63 586.60,303.83 561.60,318.38 ZM 462.61 360.27 C445.62,364.85 429.06,367.95 411.75,369.80 C429.40,367.72 446.19,364.59 462.61,360.27 Z" fill="rgb(142,27,43)"/>
<path d="M 701.15 654.43 L 701.49 303.01 C701.62,311.35 701.69,323.64 701.78,342.25 C701.94,372.36 702.16,397.01 702.28,397.01 C702.40,397.02 706.55,397.86 711.50,398.89 C743.08,405.42 767.42,431.01 773.11,463.69 C774.74,473.08 773.72,489.80 770.98,498.50 C761.49,528.62 738.59,549.11 707.78,555.03 L 702.07 556.13 L 701.78 607.31 C701.63,634.98 701.56,647.70 701.15,654.43 ZM 806.89 413.56 C799.67,417.21 794.26,416.52 788.73,411.24 C783.31,406.05 783.09,396.95 788.24,390.79 C791.06,387.42 841.13,359.02 845.51,358.30 C850.11,357.56 857.45,361.05 859.97,365.18 C863.65,371.23 862.30,379.66 856.85,384.64 C854.62,386.67 817.21,408.32 806.89,413.56 ZM 854.76 590.01 C848.36,593.91 844.15,592.88 828.00,583.47 C820.03,578.83 808.16,571.98 801.64,568.26 C794.94,564.44 788.88,560.24 787.71,558.59 C784.69,554.36 784.32,546.41 786.94,542.24 C789.79,537.70 794.61,535.01 799.91,535.00 C803.74,535.00 807.40,536.75 827.41,548.15 C856.93,564.95 857.69,565.45 860.03,569.29 C864.17,576.06 861.69,585.78 854.76,590.01 ZM 874.76 489.01 C871.71,490.87 869.68,490.99 843.00,490.99 C811.65,491.00 810.00,490.72 805.57,484.68 C802.52,480.51 802.68,471.64 805.90,467.14 C810.07,461.29 811.86,461.00 843.22,461.00 C869.68,461.01 871.71,461.14 874.76,462.99 C884.42,468.88 884.42,483.12 874.76,489.01 ZM 674.00 688.66 C685.39,684.58 694.75,675.36 699.03,663.92 L 700.56 659.82 C700.23,661.54 699.78,662.63 699.18,664.08 C694.13,676.19 685.03,684.84 674.00,688.66 Z" fill="rgb(199,157,97)"/>

</g>
</svg>