<svg xmlns="http://www.w3.org/2000/svg" width="512" height="512" viewBox="0 0 512 512" fill="none">
  <path d="M 344 134 L 326 131 L 289 158 L 251 177 L 184 189 L 184 291 L 151 292 L 151 342 L 161 358 L 182 363 L 200 351 L 207 293 L 266 309 L 327 346 L 348 338 L 351 144 Z" fill="#293653" fill-rule="evenodd"/>
  <path d="M 129 196 L 115 209 L 106 229 L 105 245 L 112 266 L 124 280 L 138 288 L 150 291 L 183 291 L 183 188 L 147 189 Z" fill="#8f1b2c" fill-rule="evenodd"/>
  <path d="M 353 201 L 353 278 L 358 278 L 370 273 L 380 264 L 386 253 L 388 245 L 388 235 L 383 220 L 375 210 L 363 203 Z" fill="#c79a5b" fill-rule="evenodd"/>
  <path d="M 441 361 L 441 371 L 439 374 L 427 374 L 427 387 L 439 387 L 441 391 L 439 402 L 427 402 L 427 414 L 439 414 L 439 402 L 447 400 L 454 402 L 454 414 L 467 414 L 467 402 L 480 400 L 480 388 L 468 388 L 466 377 L 468 373 L 480 373 L 480 361 L 468 361 L 468 373 L 463 375 L 453 373 L 453 361 Z M 453 388 L 467 387 L 468 401 L 454 402 Z M 439 374 L 453 373 L 454 387 L 440 388 Z" fill="#f4f4f4" fill-rule="evenodd"/>
  <path d="M 249 361 L 249 373 L 262 374 L 262 387 L 249 388 L 249 401 L 261 401 L 262 414 L 275 414 L 275 402 L 283 400 L 288 401 L 288 388 L 275 387 L 275 374 L 288 373 L 288 361 L 276 361 L 276 373 L 273 375 L 261 373 L 261 361 Z M 261 388 L 275 387 L 276 401 L 262 402 Z" fill="#f4f4f4" fill-rule="evenodd"/>
  <path d="M 386 361 L 386 373 L 399 374 L 399 387 L 386 388 L 386 401 L 398 401 L 399 414 L 412 414 L 412 402 L 416 400 L 425 400 L 425 388 L 412 387 L 412 374 L 425 373 L 425 361 L 413 361 L 413 373 L 405 375 L 398 373 L 398 361 Z M 398 388 L 412 387 L 413 401 L 399 402 Z" fill="#f4f4f4" fill-rule="evenodd"/>
  <path d="M 29 361 L 29 373 L 26 375 L 16 374 L 16 387 L 29 388 L 29 401 L 16 402 L 16 414 L 28 414 L 29 401 L 42 401 L 43 414 L 55 414 L 55 402 L 43 402 L 41 393 L 43 387 L 55 387 L 55 374 L 43 374 L 42 361 Z M 28 374 L 42 373 L 43 387 L 29 388 Z" fill="#f4f4f4" fill-rule="evenodd"/>
  <path d="M 386 113 L 386 125 L 399 126 L 399 139 L 386 140 L 386 152 L 395 152 L 399 154 L 399 166 L 412 166 L 412 154 L 425 152 L 425 140 L 412 139 L 412 126 L 425 125 L 425 113 L 413 113 L 412 126 L 399 126 L 398 113 Z M 398 140 L 412 139 L 413 153 L 399 154 Z" fill="#f4f4f4" fill-rule="evenodd"/>
  <path d="M 399 44 L 399 56 L 395 58 L 386 57 L 386 70 L 399 71 L 399 84 L 386 85 L 386 97 L 398 97 L 399 84 L 412 84 L 413 97 L 425 97 L 425 85 L 412 84 L 412 71 L 425 70 L 425 58 L 418 58 L 412 56 L 412 44 Z M 398 57 L 412 56 L 413 70 L 399 71 Z" fill="#f4f4f4" fill-rule="evenodd"/>
  <path d="M 57 250 L 57 263 L 69 263 L 70 249 L 84 250 L 84 263 L 71 264 L 70 276 L 83 276 L 84 263 L 98 264 L 98 277 L 84 278 L 84 290 L 97 290 L 97 278 L 100 276 L 112 278 L 112 290 L 124 290 L 125 283 L 121 282 L 119 278 L 111 277 L 110 266 L 97 263 L 97 250 L 103 247 L 102 238 L 104 236 L 98 237 L 97 250 L 84 250 L 83 237 L 71 237 L 69 250 Z" fill="#f4f4f4" fill-rule="evenodd"/>
  <path d="M 441 113 L 441 125 L 454 126 L 454 139 L 440 140 L 439 126 L 427 126 L 427 139 L 439 139 L 441 152 L 451 152 L 454 154 L 454 166 L 466 166 L 467 154 L 480 152 L 480 140 L 468 140 L 467 154 L 454 154 L 453 140 L 466 139 L 467 126 L 480 125 L 480 113 L 468 113 L 467 126 L 454 126 L 453 113 Z" fill="#f4f4f4" fill-rule="evenodd"/>
  <path d="M 71 139 L 83 139 L 84 152 L 97 152 L 97 140 L 110 139 L 111 126 L 124 125 L 124 113 L 112 113 L 111 126 L 98 126 L 97 113 L 84 113 L 84 125 L 71 126 Z M 83 126 L 97 125 L 98 139 L 84 140 Z" fill="#f4f4f4" fill-rule="evenodd"/>
  <path d="M 70 321 L 71 332 L 84 333 L 84 345 L 97 345 L 98 332 L 111 332 L 112 345 L 124 345 L 124 333 L 112 333 L 110 330 L 110 319 L 97 318 L 97 306 L 84 306 L 84 318 L 71 319 Z M 83 319 L 97 318 L 98 332 L 84 333 Z" fill="#f4f4f4" fill-rule="evenodd"/>
  <path d="M 290 44 L 290 56 L 303 57 L 303 70 L 290 71 L 290 83 L 303 85 L 303 97 L 316 97 L 316 85 L 329 84 L 329 71 L 317 71 L 316 58 L 303 57 L 302 44 Z M 302 71 L 316 70 L 317 84 L 303 85 Z" fill="#f4f4f4" fill-rule="evenodd"/>
  <path d="M 316 361 L 303 361 L 303 373 L 297 375 L 290 374 L 290 387 L 303 388 L 303 401 L 290 402 L 290 414 L 302 414 L 302 402 L 316 400 L 317 387 L 329 387 L 329 374 L 317 374 Z M 302 374 L 316 373 L 317 387 L 303 388 Z" fill="#f4f4f4" fill-rule="evenodd"/>
  <path d="M 57 208 L 69 208 L 71 221 L 83 221 L 84 208 L 97 208 L 98 221 L 106 221 L 111 209 L 118 204 L 124 195 L 112 195 L 111 209 L 98 209 L 97 195 L 110 194 L 111 183 L 98 182 L 97 195 L 84 195 L 83 182 L 71 182 L 71 194 L 84 195 L 84 208 L 70 209 L 69 195 L 57 195 Z" fill="#f4f4f4" fill-rule="evenodd"/>
  <path d="M 97 361 L 84 361 L 84 373 L 71 374 L 71 384 L 69 388 L 57 388 L 57 401 L 69 400 L 70 387 L 84 388 L 84 401 L 71 402 L 71 414 L 83 414 L 83 402 L 97 400 L 98 387 L 110 387 L 110 374 L 98 375 L 97 388 L 83 387 L 83 374 L 97 373 Z" fill="#f4f4f4" fill-rule="evenodd"/>
  <path d="M 126 44 L 126 56 L 139 57 L 139 70 L 126 71 L 126 84 L 138 84 L 139 97 L 151 97 L 152 85 L 165 83 L 165 71 L 153 71 L 152 85 L 139 85 L 138 71 L 151 70 L 152 57 L 165 56 L 165 44 L 153 44 L 152 57 L 139 57 L 138 44 Z" fill="#f4f4f4" fill-rule="evenodd"/>
  <path d="M 466 237 L 454 237 L 454 249 L 441 250 L 441 263 L 454 264 L 453 278 L 440 278 L 439 264 L 427 264 L 427 277 L 422 279 L 426 280 L 429 276 L 437 276 L 441 281 L 441 290 L 453 290 L 453 278 L 466 276 L 468 263 L 480 263 L 480 250 L 468 251 L 467 264 L 453 263 L 453 250 L 467 249 Z" fill="#f4f4f4" fill-rule="evenodd"/>
  <path d="M 16 237 L 16 249 L 29 250 L 29 263 L 16 264 L 16 276 L 26 276 L 29 278 L 29 290 L 42 290 L 42 278 L 28 277 L 28 264 L 42 263 L 43 276 L 55 277 L 55 264 L 42 263 L 42 250 L 55 249 L 55 237 L 43 237 L 43 249 L 37 251 L 28 249 L 28 237 Z" fill="#f4f4f4" fill-rule="evenodd"/>
  <path d="M 32 57 L 29 58 L 28 71 L 16 71 L 16 84 L 28 84 L 29 97 L 42 97 L 42 85 L 55 84 L 55 71 L 43 71 L 42 58 Z M 28 71 L 42 70 L 43 84 L 29 85 Z" fill="#f4f4f4" fill-rule="evenodd"/>
  <path d="M 262 361 L 262 373 L 249 374 L 249 387 L 261 387 L 262 400 L 275 400 L 275 388 L 288 387 L 288 374 L 276 374 L 275 361 Z M 261 374 L 275 373 L 276 387 L 262 388 Z" fill="#fefefe" fill-rule="evenodd"/>
  <path d="M 29 113 L 29 125 L 16 126 L 16 139 L 28 139 L 29 152 L 42 152 L 42 140 L 55 139 L 55 126 L 43 126 L 42 113 Z M 28 126 L 42 125 L 43 139 L 29 140 Z" fill="#f4f4f4" fill-rule="evenodd"/>
  <path d="M 84 430 L 84 442 L 71 443 L 71 456 L 83 456 L 84 469 L 97 469 L 97 457 L 110 456 L 110 443 L 98 443 L 97 430 Z M 83 443 L 97 442 L 98 456 L 84 457 Z" fill="#fefefe" fill-rule="evenodd"/>
  <path d="M 29 237 L 29 249 L 16 250 L 16 263 L 28 263 L 29 276 L 42 276 L 42 264 L 55 263 L 55 250 L 43 250 L 42 237 Z M 28 250 L 42 249 L 43 263 L 29 264 Z" fill="#fefefe" fill-rule="evenodd"/>
  <path d="M 84 182 L 84 194 L 71 195 L 71 208 L 83 208 L 84 221 L 97 221 L 97 209 L 110 208 L 110 195 L 98 195 L 97 182 Z M 83 195 L 97 194 L 98 208 L 84 209 Z" fill="#fefefe" fill-rule="evenodd"/>
  <path d="M 29 182 L 29 194 L 16 195 L 16 208 L 28 208 L 29 221 L 42 221 L 42 209 L 55 208 L 55 195 L 43 195 L 42 182 Z M 28 195 L 42 194 L 43 208 L 29 209 Z" fill="#fefefe" fill-rule="evenodd"/>
  <path d="M 399 430 L 399 442 L 386 443 L 386 456 L 398 456 L 399 469 L 411 469 L 413 456 L 425 456 L 425 443 L 413 443 L 412 430 Z M 398 443 L 412 442 L 413 456 L 399 457 Z" fill="#f4f4f4" fill-rule="evenodd"/>
  <path d="M 399 361 L 399 373 L 386 374 L 386 387 L 398 387 L 399 400 L 412 400 L 412 388 L 425 387 L 425 374 L 413 374 L 411 361 Z M 398 374 L 412 373 L 413 387 L 399 388 Z" fill="#fefefe" fill-rule="evenodd"/>
  <path d="M 29 306 L 29 318 L 16 319 L 16 332 L 28 332 L 29 345 L 42 345 L 42 333 L 46 331 L 55 332 L 55 319 L 43 319 L 42 306 Z M 28 319 L 42 318 L 43 332 L 29 333 Z" fill="#f4f4f4" fill-rule="evenodd"/>
  <path d="M 262 430 L 262 442 L 249 443 L 249 455 L 262 457 L 262 469 L 275 469 L 275 457 L 282 455 L 288 456 L 288 443 L 276 443 L 275 430 Z M 261 443 L 275 442 L 276 456 L 262 457 Z" fill="#f4f4f4" fill-rule="evenodd"/>
  <path d="M 139 113 L 139 125 L 126 126 L 126 139 L 138 139 L 139 152 L 151 152 L 151 142 L 153 139 L 165 139 L 165 126 L 153 126 L 151 119 L 152 113 Z M 138 126 L 152 125 L 153 139 L 139 140 Z" fill="#f4f4f4" fill-rule="evenodd"/>
  <path d="M 167 0 L 167 15 L 179 15 L 180 28 L 192 28 L 192 20 L 194 15 L 206 15 L 208 18 L 208 28 L 220 28 L 220 16 L 233 15 L 234 11 L 233 0 L 221 0 L 221 15 L 207 16 L 206 0 L 194 0 L 194 15 L 180 16 L 179 0 Z" fill="#f4f4f4" fill-rule="evenodd"/>
  <path d="M 84 237 L 84 249 L 71 250 L 71 263 L 83 263 L 84 276 L 96 276 L 97 264 L 107 263 L 106 255 L 103 253 L 103 250 L 97 249 L 97 237 Z M 83 250 L 97 249 L 98 263 L 84 264 Z" fill="#fefefe" fill-rule="evenodd"/>
  <path d="M 71 44 L 71 56 L 84 57 L 84 70 L 71 71 L 71 84 L 83 84 L 84 97 L 97 97 L 97 85 L 110 84 L 110 71 L 98 71 L 97 85 L 84 85 L 83 71 L 96 70 L 97 58 L 84 57 L 83 44 Z" fill="#f4f4f4" fill-rule="evenodd"/>
  <path d="M 29 292 L 29 304 L 43 305 L 43 318 L 29 319 L 28 306 L 16 305 L 16 318 L 28 318 L 29 331 L 42 332 L 43 345 L 55 345 L 55 333 L 42 332 L 42 319 L 55 318 L 55 305 L 43 305 L 42 292 Z" fill="#fefefe" fill-rule="evenodd"/>
  <path d="M 370 361 L 358 361 L 358 373 L 353 375 L 345 374 L 343 388 L 331 388 L 331 401 L 343 401 L 344 387 L 358 388 L 358 401 L 345 402 L 344 414 L 357 414 L 357 402 L 370 401 L 370 388 L 357 387 L 357 374 L 370 373 Z" fill="#f4f4f4" fill-rule="evenodd"/>
  <path d="M 480 168 L 468 168 L 468 180 L 464 182 L 454 182 L 453 195 L 441 195 L 441 208 L 453 208 L 454 221 L 466 221 L 467 218 L 466 209 L 453 208 L 454 194 L 467 194 L 468 208 L 480 208 L 480 195 L 467 194 L 467 181 L 480 180 Z" fill="#f4f4f4" fill-rule="evenodd"/>
  <path d="M 386 292 L 386 304 L 399 305 L 399 318 L 386 319 L 386 332 L 398 332 L 399 345 L 411 345 L 412 333 L 399 333 L 398 319 L 412 318 L 413 331 L 416 332 L 425 331 L 425 319 L 413 319 L 412 306 L 399 305 L 398 292 Z" fill="#fefefe" fill-rule="evenodd"/>
  <path d="M 84 292 L 84 304 L 98 305 L 98 318 L 84 319 L 83 306 L 75 305 L 71 306 L 71 318 L 83 318 L 84 331 L 97 332 L 98 345 L 110 345 L 110 333 L 97 332 L 97 319 L 110 318 L 110 305 L 98 305 L 97 292 Z" fill="#fefefe" fill-rule="evenodd"/>
  <path d="M 344 44 L 344 56 L 358 57 L 358 70 L 344 71 L 343 58 L 331 58 L 331 70 L 343 70 L 345 84 L 357 84 L 358 97 L 370 97 L 370 85 L 357 84 L 357 71 L 370 70 L 370 57 L 358 57 L 357 44 Z" fill="#f4f4f4" fill-rule="evenodd"/>
  <path d="M 249 57 L 249 70 L 262 71 L 262 84 L 249 85 L 249 97 L 261 97 L 262 84 L 275 84 L 276 97 L 288 97 L 288 85 L 275 84 L 275 71 L 288 70 L 288 58 L 276 58 L 275 71 L 262 71 L 261 58 Z" fill="#f4f4f4" fill-rule="evenodd"/>
  <path d="M 233 361 L 221 361 L 221 373 L 215 375 L 208 374 L 208 385 L 206 388 L 194 388 L 194 401 L 206 401 L 207 387 L 221 388 L 221 401 L 208 402 L 208 414 L 220 414 L 220 402 L 225 400 L 233 400 L 234 398 L 233 388 L 220 387 L 220 374 L 233 373 Z" fill="#f4f4f4" fill-rule="evenodd"/>
  <path d="M 71 430 L 71 442 L 84 443 L 84 456 L 71 457 L 71 469 L 83 469 L 84 456 L 97 456 L 98 469 L 110 469 L 110 457 L 97 456 L 97 443 L 110 442 L 111 430 L 98 430 L 97 443 L 84 443 L 83 430 Z" fill="#f4f4f4" fill-rule="evenodd"/>
  <path d="M 233 113 L 221 113 L 221 125 L 215 127 L 208 127 L 208 139 L 221 140 L 221 153 L 208 154 L 208 166 L 220 166 L 220 154 L 224 152 L 233 152 L 233 140 L 220 139 L 221 125 L 234 125 L 235 139 L 247 139 L 247 126 L 235 126 L 233 121 Z" fill="#f4f4f4" fill-rule="evenodd"/>
  <path d="M 247 430 L 235 430 L 234 443 L 221 443 L 220 430 L 208 430 L 208 440 L 206 443 L 194 443 L 194 456 L 206 456 L 207 442 L 220 442 L 221 456 L 208 457 L 208 469 L 220 469 L 220 457 L 233 456 L 234 443 L 247 442 Z" fill="#f4f4f4" fill-rule="evenodd"/>
  <path d="M 151 361 L 139 361 L 139 373 L 136 375 L 126 374 L 126 387 L 139 388 L 139 401 L 126 402 L 126 414 L 138 414 L 138 402 L 151 401 L 151 392 L 153 387 L 165 387 L 165 375 L 159 374 L 153 375 L 152 388 L 138 387 L 138 374 L 151 373 Z" fill="#f4f4f4" fill-rule="evenodd"/>
  <path d="M 249 113 L 249 125 L 262 126 L 262 139 L 249 140 L 249 152 L 261 152 L 262 139 L 275 139 L 276 152 L 288 152 L 288 140 L 275 139 L 275 126 L 288 125 L 288 113 L 276 113 L 276 125 L 273 127 L 261 125 L 261 113 Z" fill="#f4f4f4" fill-rule="evenodd"/>
  <path d="M 290 430 L 290 442 L 303 443 L 303 456 L 290 457 L 290 469 L 302 469 L 303 456 L 316 456 L 317 469 L 329 469 L 329 457 L 316 456 L 316 443 L 329 442 L 329 430 L 317 430 L 316 443 L 303 443 L 302 430 Z" fill="#f4f4f4" fill-rule="evenodd"/>
  <path d="M 16 430 L 16 442 L 29 443 L 29 456 L 16 457 L 16 469 L 28 469 L 29 456 L 42 456 L 43 469 L 55 469 L 55 457 L 42 456 L 42 443 L 55 442 L 55 430 L 43 430 L 42 443 L 29 443 L 28 430 Z" fill="#f4f4f4" fill-rule="evenodd"/>
  <path d="M 16 182 L 16 194 L 29 195 L 29 208 L 16 209 L 16 221 L 28 221 L 29 208 L 42 208 L 43 221 L 55 221 L 55 209 L 42 208 L 42 195 L 55 194 L 55 182 L 43 182 L 42 195 L 29 195 L 28 182 Z" fill="#f4f4f4" fill-rule="evenodd"/>
  <path d="M 71 361 L 71 373 L 84 374 L 84 387 L 71 388 L 71 400 L 83 400 L 84 387 L 97 387 L 98 400 L 110 400 L 110 388 L 97 387 L 97 374 L 110 373 L 110 361 L 98 361 L 97 374 L 84 374 L 83 361 Z" fill="#fefefe" fill-rule="evenodd"/>
  <path d="M 16 361 L 16 373 L 29 374 L 29 387 L 16 388 L 16 400 L 28 400 L 29 387 L 42 387 L 43 400 L 55 400 L 55 388 L 42 387 L 42 374 L 55 373 L 55 361 L 43 361 L 42 374 L 29 374 L 28 361 Z" fill="#fefefe" fill-rule="evenodd"/>
  <path d="M 71 113 L 71 125 L 84 126 L 84 139 L 71 140 L 71 152 L 83 152 L 84 139 L 97 139 L 98 152 L 110 152 L 110 140 L 97 139 L 97 126 L 110 125 L 110 113 L 98 113 L 97 126 L 84 126 L 83 113 Z" fill="#fefefe" fill-rule="evenodd"/>
  <path d="M 386 430 L 386 442 L 399 443 L 399 456 L 386 457 L 386 469 L 398 469 L 398 457 L 405 455 L 413 457 L 413 469 L 425 469 L 425 457 L 412 456 L 412 443 L 425 442 L 425 430 L 413 430 L 412 443 L 399 443 L 398 430 Z" fill="#fefefe" fill-rule="evenodd"/>
  <path d="M 290 58 L 290 70 L 303 71 L 303 84 L 290 85 L 290 97 L 302 97 L 302 85 L 306 83 L 317 85 L 317 97 L 329 97 L 329 85 L 316 84 L 316 71 L 329 70 L 329 58 L 317 58 L 316 71 L 303 71 L 302 58 Z" fill="#fefefe" fill-rule="evenodd"/>
  <path d="M 495 113 L 495 125 L 482 126 L 482 139 L 494 139 L 496 153 L 508 152 L 508 140 L 511 139 L 511 126 L 508 125 L 508 113 Z M 494 126 L 508 125 L 509 139 L 495 140 Z" fill="#f4f4f4" fill-rule="evenodd"/>
  <path d="M 495 306 L 495 318 L 482 319 L 482 332 L 494 332 L 495 345 L 508 345 L 508 333 L 511 332 L 511 319 L 508 318 L 508 306 Z M 494 319 L 508 318 L 509 332 L 495 333 Z" fill="#f4f4f4" fill-rule="evenodd"/>
  <path d="M 70 28 L 83 28 L 84 15 L 97 15 L 98 28 L 110 28 L 110 19 L 112 15 L 124 15 L 124 0 L 112 0 L 111 16 L 98 16 L 97 0 L 84 0 L 84 15 L 71 16 Z" fill="#f4f4f4" fill-rule="evenodd"/>
  <path d="M 29 0 L 29 15 L 16 16 L 16 28 L 28 28 L 29 15 L 42 15 L 43 29 L 29 30 L 29 42 L 42 42 L 42 30 L 47 28 L 55 28 L 55 16 L 42 15 L 42 0 Z" fill="#f4f4f4" fill-rule="evenodd"/>
  <path d="M 508 361 L 495 361 L 495 373 L 482 374 L 482 387 L 494 387 L 495 373 L 509 374 L 509 387 L 496 388 L 495 401 L 482 402 L 482 414 L 494 414 L 494 402 L 508 400 L 508 388 L 511 387 L 511 374 L 508 373 Z" fill="#f4f4f4" fill-rule="evenodd"/>
  <path d="M 454 430 L 454 442 L 441 443 L 440 453 L 441 456 L 454 457 L 454 469 L 466 469 L 466 457 L 453 456 L 453 443 L 467 442 L 468 456 L 480 456 L 480 443 L 468 443 L 466 437 L 467 430 Z" fill="#f4f4f4" fill-rule="evenodd"/>
  <path d="M 262 113 L 262 125 L 249 126 L 249 139 L 261 139 L 262 152 L 275 152 L 275 140 L 288 139 L 288 126 L 276 127 L 275 140 L 262 140 L 261 126 L 275 125 L 275 113 Z" fill="#fefefe" fill-rule="evenodd"/>
  <path d="M 399 113 L 399 125 L 395 127 L 386 126 L 386 139 L 398 139 L 399 152 L 411 152 L 413 139 L 425 139 L 425 126 L 413 127 L 412 140 L 399 140 L 398 126 L 411 125 L 412 113 Z" fill="#fefefe" fill-rule="evenodd"/>
  <path d="M 262 58 L 262 70 L 249 71 L 249 84 L 261 84 L 262 97 L 275 97 L 275 85 L 261 84 L 261 71 L 275 70 L 276 83 L 279 84 L 288 84 L 288 71 L 276 71 L 275 58 Z" fill="#fefefe" fill-rule="evenodd"/>
  <path d="M 399 58 L 399 70 L 386 71 L 386 84 L 398 83 L 399 70 L 412 70 L 413 84 L 399 85 L 399 97 L 412 97 L 412 85 L 418 83 L 425 84 L 425 71 L 413 71 L 411 58 Z" fill="#fefefe" fill-rule="evenodd"/>
  <path d="M 344 430 L 344 442 L 331 443 L 331 456 L 343 456 L 344 442 L 357 442 L 358 456 L 345 457 L 344 469 L 357 469 L 357 457 L 370 456 L 370 443 L 358 443 L 357 430 Z" fill="#f4f4f4" fill-rule="evenodd"/>
  <path d="M 345 361 L 345 373 L 358 374 L 358 387 L 344 388 L 343 374 L 331 374 L 331 387 L 343 387 L 345 401 L 357 400 L 357 388 L 370 387 L 370 374 L 358 374 L 357 361 Z" fill="#fefefe" fill-rule="evenodd"/>
  <path d="M 467 44 L 454 44 L 454 56 L 451 58 L 441 58 L 441 70 L 454 71 L 454 84 L 441 85 L 440 97 L 453 97 L 453 85 L 466 84 L 466 71 L 453 70 L 453 57 L 466 56 Z" fill="#f4f4f4" fill-rule="evenodd"/>
  <path d="M 29 44 L 29 56 L 43 57 L 43 70 L 29 71 L 28 58 L 16 58 L 16 70 L 28 70 L 29 83 L 39 84 L 42 83 L 43 70 L 55 70 L 55 58 L 45 58 L 42 56 L 42 44 Z" fill="#fefefe" fill-rule="evenodd"/>
  <path d="M 480 306 L 468 306 L 467 319 L 454 319 L 453 306 L 441 305 L 441 318 L 454 319 L 454 332 L 441 333 L 441 345 L 453 345 L 453 333 L 466 332 L 467 319 L 480 318 Z" fill="#f4f4f4" fill-rule="evenodd"/>
  <path d="M 454 113 L 454 125 L 441 127 L 441 139 L 453 139 L 454 152 L 466 152 L 468 139 L 480 139 L 480 127 L 468 126 L 468 139 L 454 140 L 453 126 L 466 125 L 467 121 L 466 113 Z" fill="#fefefe" fill-rule="evenodd"/>
  <path d="M 386 306 L 386 318 L 399 319 L 399 332 L 386 333 L 386 345 L 398 345 L 399 332 L 412 332 L 413 345 L 425 345 L 425 333 L 413 333 L 411 319 L 399 319 L 398 306 Z" fill="#f4f4f4" fill-rule="evenodd"/>
  <path d="M 206 113 L 194 113 L 193 126 L 180 126 L 179 113 L 167 113 L 167 125 L 180 126 L 180 139 L 167 140 L 167 152 L 179 152 L 179 140 L 192 139 L 193 126 L 206 125 Z" fill="#f4f4f4" fill-rule="evenodd"/>
  <path d="M 329 361 L 317 361 L 316 374 L 303 374 L 302 361 L 290 361 L 290 373 L 303 374 L 303 387 L 290 388 L 290 400 L 302 400 L 302 388 L 315 387 L 316 374 L 329 373 Z" fill="#fefefe" fill-rule="evenodd"/>
  <path d="M 208 44 L 208 56 L 221 57 L 221 70 L 208 71 L 208 84 L 220 84 L 221 97 L 233 97 L 233 85 L 220 84 L 220 71 L 233 70 L 234 59 L 220 56 L 220 44 Z" fill="#f4f4f4" fill-rule="evenodd"/>
  <path d="M 192 44 L 180 44 L 180 56 L 176 58 L 167 57 L 167 70 L 180 71 L 180 84 L 167 85 L 167 97 L 179 97 L 179 85 L 192 84 L 192 71 L 179 70 L 179 57 L 192 56 Z" fill="#f4f4f4" fill-rule="evenodd"/>
  <path d="M 370 430 L 358 430 L 358 442 L 345 443 L 344 456 L 331 457 L 331 469 L 343 469 L 344 456 L 357 456 L 358 469 L 370 469 L 370 457 L 357 456 L 357 443 L 370 442 Z" fill="#fefefe" fill-rule="evenodd"/>
  <path d="M 110 58 L 98 58 L 97 71 L 84 71 L 83 58 L 71 58 L 71 70 L 84 71 L 84 84 L 71 85 L 71 97 L 83 97 L 83 85 L 89 83 L 97 83 L 97 71 L 110 70 Z" fill="#fefefe" fill-rule="evenodd"/>
  <path d="M 126 430 L 126 442 L 139 443 L 139 456 L 126 457 L 126 469 L 138 469 L 139 456 L 152 456 L 153 469 L 165 469 L 165 457 L 153 457 L 151 443 L 139 443 L 138 430 Z" fill="#f4f4f4" fill-rule="evenodd"/>
  <path d="M 55 113 L 43 113 L 43 125 L 38 127 L 29 127 L 29 139 L 16 140 L 16 152 L 28 152 L 29 139 L 42 139 L 43 152 L 55 152 L 55 140 L 42 139 L 42 126 L 55 125 Z" fill="#fefefe" fill-rule="evenodd"/>
  <path d="M 249 306 L 249 318 L 262 319 L 262 332 L 249 333 L 249 345 L 261 345 L 262 332 L 275 332 L 276 345 L 288 345 L 288 333 L 276 333 L 275 320 L 262 319 L 261 310 Z" fill="#f4f4f4" fill-rule="evenodd"/>
  <path d="M 290 152 L 294 151 L 301 146 L 303 139 L 309 139 L 314 137 L 317 125 L 329 125 L 329 113 L 317 113 L 316 126 L 303 126 L 302 113 L 290 113 L 290 125 L 303 126 L 303 139 L 290 140 Z" fill="#fefefe" fill-rule="evenodd"/>
  <path d="M 166 364 L 167 373 L 180 374 L 180 387 L 167 388 L 167 401 L 179 401 L 180 414 L 192 414 L 192 402 L 179 401 L 179 388 L 192 387 L 193 376 L 180 374 L 179 366 L 172 366 Z" fill="#f4f4f4" fill-rule="evenodd"/>
  <path d="M 431 184 L 429 182 L 424 181 L 397 196 L 394 202 L 396 207 L 402 209 L 428 195 L 432 190 Z" fill="#c79a5b" fill-rule="evenodd"/>
  <path d="M 395 273 L 395 279 L 400 284 L 423 297 L 427 297 L 431 294 L 431 286 L 419 278 L 404 270 L 398 270 Z" fill="#c79a5b" fill-rule="evenodd"/>
  <path d="M 386 0 L 386 15 L 398 15 L 399 28 L 412 28 L 412 16 L 425 15 L 425 0 L 413 0 L 412 16 L 399 16 L 398 0 Z" fill="#f4f4f4" fill-rule="evenodd"/>
  <path d="M 249 0 L 249 15 L 261 15 L 262 28 L 275 28 L 275 16 L 288 15 L 288 0 L 276 0 L 275 16 L 262 16 L 261 0 Z" fill="#f4f4f4" fill-rule="evenodd"/>
  <path d="M 290 0 L 290 15 L 302 15 L 303 28 L 316 28 L 316 16 L 329 15 L 329 0 L 317 0 L 316 16 L 303 16 L 302 0 Z" fill="#fefefe" fill-rule="evenodd"/>
  <path d="M 71 0 L 71 15 L 83 15 L 84 28 L 97 28 L 97 16 L 110 15 L 110 0 L 98 0 L 97 16 L 84 16 L 83 0 Z" fill="#fefefe" fill-rule="evenodd"/>
  <path d="M 16 0 L 16 15 L 28 15 L 29 28 L 42 28 L 42 16 L 55 15 L 55 0 L 43 0 L 42 16 L 29 16 L 28 0 Z" fill="#fefefe" fill-rule="evenodd"/>
  <path d="M 441 0 L 441 15 L 453 15 L 454 28 L 466 28 L 468 15 L 480 15 L 480 0 L 468 0 L 467 16 L 454 16 L 453 0 Z" fill="#f4f4f4" fill-rule="evenodd"/>
  <path d="M 390 237 L 391 249 L 399 250 L 399 263 L 386 264 L 386 277 L 391 277 L 395 269 L 398 267 L 399 263 L 412 263 L 413 272 L 416 273 L 418 276 L 425 276 L 425 264 L 413 264 L 411 260 L 413 249 L 425 248 L 413 248 L 409 251 L 399 250 L 398 237 Z" fill="#fefefe" fill-rule="evenodd"/>
  <path d="M 331 0 L 331 15 L 343 15 L 345 19 L 344 28 L 357 28 L 357 16 L 370 15 L 370 0 L 358 0 L 357 16 L 344 16 L 343 0 Z" fill="#f4f4f4" fill-rule="evenodd"/>
  <path d="M 482 237 L 482 249 L 495 250 L 495 263 L 482 264 L 482 277 L 494 276 L 495 263 L 508 263 L 509 276 L 511 276 L 511 264 L 508 263 L 508 250 L 511 249 L 511 237 L 509 237 L 508 250 L 495 250 L 494 237 Z" fill="#f4f4f4" fill-rule="evenodd"/>
  <path d="M 482 182 L 482 194 L 495 195 L 495 208 L 482 209 L 482 221 L 494 221 L 495 208 L 508 208 L 509 221 L 511 221 L 511 209 L 508 208 L 508 195 L 511 194 L 511 182 L 509 182 L 508 195 L 495 195 L 494 182 Z" fill="#f4f4f4" fill-rule="evenodd"/>
  <path d="M 482 430 L 482 442 L 494 442 L 496 451 L 494 457 L 482 457 L 482 469 L 494 469 L 495 456 L 508 456 L 509 469 L 511 469 L 511 457 L 508 456 L 508 443 L 511 442 L 511 430 L 509 430 L 508 443 L 495 443 L 494 430 Z" fill="#f4f4f4" fill-rule="evenodd"/>
  <path d="M 506 57 L 495 58 L 494 71 L 482 71 L 482 84 L 494 83 L 495 70 L 509 71 L 509 84 L 495 85 L 495 97 L 508 97 L 508 85 L 511 84 L 511 71 L 508 70 L 508 58 Z" fill="#f4f4f4" fill-rule="evenodd"/>
  <path d="M 146 292 L 139 292 L 138 305 L 126 306 L 126 318 L 139 319 L 139 332 L 126 333 L 126 345 L 138 345 L 138 333 L 141 331 L 147 331 L 147 319 L 138 318 L 138 305 L 147 304 L 147 296 L 149 294 L 147 294 Z" fill="#fefefe" fill-rule="evenodd"/>
  <path d="M 386 16 L 386 28 L 398 28 L 399 15 L 412 15 L 413 28 L 425 28 L 425 16 L 412 15 L 412 0 L 399 0 L 399 15 Z" fill="#fefefe" fill-rule="evenodd"/>
  <path d="M 249 16 L 249 28 L 261 28 L 262 15 L 275 15 L 276 28 L 288 28 L 288 16 L 275 15 L 275 0 L 262 0 L 262 15 Z" fill="#fefefe" fill-rule="evenodd"/>
  <path d="M 290 16 L 290 28 L 302 28 L 303 15 L 316 15 L 317 28 L 329 28 L 329 16 L 316 15 L 316 0 L 304 0 L 303 15 Z" fill="#f4f4f4" fill-rule="evenodd"/>
  <path d="M 331 16 L 331 28 L 343 28 L 344 15 L 357 15 L 358 28 L 370 28 L 370 16 L 357 15 L 357 0 L 345 0 L 344 15 Z" fill="#fefefe" fill-rule="evenodd"/>
  <path d="M 496 292 L 496 301 L 494 305 L 482 305 L 482 318 L 494 318 L 495 304 L 508 304 L 509 318 L 496 319 L 496 332 L 506 332 L 508 331 L 508 319 L 511 318 L 511 305 L 508 304 L 508 292 Z" fill="#fefefe" fill-rule="evenodd"/>
  <path d="M 371 113 L 358 113 L 358 125 L 354 127 L 345 126 L 344 131 L 349 133 L 350 139 L 358 140 L 358 153 L 353 154 L 353 166 L 357 166 L 358 153 L 370 152 L 370 140 L 357 139 L 357 126 L 370 125 Z" fill="#f4f4f4" fill-rule="evenodd"/>
  <path d="M 249 498 L 249 511 L 261 511 L 262 497 L 275 497 L 276 511 L 288 511 L 288 498 L 276 498 L 275 485 L 262 485 L 262 497 Z" fill="#f4f4f4" fill-rule="evenodd"/>
  <path d="M 207 320 L 208 332 L 220 331 L 221 318 L 234 318 L 235 331 L 247 331 L 247 319 L 235 319 L 233 305 L 221 306 L 220 319 Z" fill="#f4f4f4" fill-rule="evenodd"/>
  <path d="M 386 498 L 386 511 L 398 511 L 399 497 L 412 497 L 413 511 L 425 511 L 425 498 L 413 498 L 412 485 L 399 485 L 399 497 Z" fill="#f4f4f4" fill-rule="evenodd"/>
  <path d="M 16 498 L 16 511 L 28 511 L 29 497 L 42 497 L 43 511 L 55 511 L 55 498 L 43 498 L 42 485 L 29 485 L 29 497 L 20 499 Z" fill="#fefefe" fill-rule="evenodd"/>
  <path d="M 404 237 L 404 242 L 408 246 L 438 246 L 442 242 L 442 237 L 438 233 L 408 233 Z" fill="#c79a5b" fill-rule="evenodd"/>
  <path d="M 331 498 L 331 511 L 343 511 L 344 497 L 357 497 L 358 511 L 370 511 L 370 498 L 358 498 L 357 485 L 344 485 L 344 497 Z" fill="#f4f4f4" fill-rule="evenodd"/>
  <path d="M 71 498 L 71 511 L 83 511 L 84 497 L 97 497 L 98 511 L 110 511 L 110 499 L 97 497 L 97 485 L 84 485 L 84 497 Z" fill="#fefefe" fill-rule="evenodd"/>
  <path d="M 70 488 L 71 497 L 84 498 L 84 511 L 97 511 L 97 498 L 110 497 L 110 485 L 98 485 L 97 498 L 84 498 L 83 485 L 71 485 Z" fill="#f4f4f4" fill-rule="evenodd"/>
  <path d="M 16 443 L 16 456 L 28 455 L 29 442 L 42 442 L 43 455 L 55 456 L 55 443 L 43 443 L 42 430 L 29 430 L 29 442 Z" fill="#fefefe" fill-rule="evenodd"/>
  <path d="M 16 485 L 16 497 L 29 498 L 29 511 L 42 511 L 42 498 L 55 497 L 55 485 L 43 485 L 42 498 L 29 498 L 28 485 Z" fill="#f4f4f4" fill-rule="evenodd"/>
  <path d="M 386 485 L 386 497 L 399 498 L 399 511 L 412 511 L 412 498 L 425 497 L 425 485 L 413 485 L 412 498 L 399 498 L 398 485 Z" fill="#fefefe" fill-rule="evenodd"/>
  <path d="M 290 444 L 290 456 L 302 455 L 303 442 L 316 442 L 317 455 L 329 456 L 329 444 L 316 442 L 316 430 L 303 430 L 303 442 Z" fill="#fefefe" fill-rule="evenodd"/>
  <path d="M 290 485 L 290 497 L 302 497 L 304 511 L 316 511 L 316 498 L 329 497 L 329 485 L 317 485 L 316 498 L 303 498 L 302 485 Z" fill="#f4f4f4" fill-rule="evenodd"/>
  <path d="M 454 58 L 454 70 L 441 71 L 441 84 L 453 84 L 454 97 L 467 97 L 466 85 L 453 84 L 453 71 L 466 70 L 466 58 Z" fill="#fefefe" fill-rule="evenodd"/>
  <path d="M 441 292 L 441 304 L 454 305 L 454 318 L 441 319 L 441 331 L 453 331 L 453 319 L 466 318 L 466 305 L 454 305 L 453 292 Z" fill="#fefefe" fill-rule="evenodd"/>
  <path d="M 126 485 L 126 497 L 139 498 L 139 511 L 151 511 L 152 498 L 165 497 L 165 485 L 153 485 L 152 498 L 139 498 L 138 485 Z" fill="#f4f4f4" fill-rule="evenodd"/>
  <path d="M 249 430 L 249 442 L 261 442 L 262 455 L 275 455 L 275 443 L 288 442 L 288 430 L 276 430 L 275 443 L 262 443 L 261 430 Z" fill="#fefefe" fill-rule="evenodd"/>
  <path d="M 454 361 L 454 373 L 441 374 L 441 387 L 453 387 L 454 400 L 466 400 L 466 388 L 453 387 L 453 374 L 466 373 L 466 361 Z" fill="#fefefe" fill-rule="evenodd"/>
  <path d="M 180 430 L 180 442 L 167 443 L 167 456 L 179 456 L 180 469 L 193 469 L 192 457 L 179 456 L 179 443 L 192 442 L 192 430 Z" fill="#f4f4f4" fill-rule="evenodd"/>
  <path d="M 208 361 L 208 373 L 221 374 L 221 387 L 208 388 L 208 401 L 220 400 L 220 388 L 228 386 L 233 387 L 233 374 L 221 374 L 220 361 Z" fill="#fefefe" fill-rule="evenodd"/>
  <path d="M 126 361 L 126 373 L 139 374 L 139 387 L 126 388 L 126 400 L 138 400 L 138 388 L 151 387 L 151 374 L 139 374 L 138 361 Z" fill="#fefefe" fill-rule="evenodd"/>
  <path d="M 208 113 L 208 125 L 221 126 L 221 139 L 208 140 L 208 152 L 220 152 L 220 140 L 233 139 L 233 126 L 221 126 L 220 113 Z" fill="#fefefe" fill-rule="evenodd"/>
  <path d="M 441 430 L 441 442 L 454 443 L 454 456 L 441 457 L 441 469 L 453 469 L 453 457 L 457 455 L 466 456 L 466 443 L 454 443 L 453 430 Z" fill="#fefefe" fill-rule="evenodd"/>
  <path d="M 167 430 L 167 442 L 180 443 L 180 456 L 167 457 L 167 469 L 179 469 L 179 457 L 187 455 L 192 456 L 192 443 L 180 443 L 179 430 Z" fill="#fefefe" fill-rule="evenodd"/>
  <path d="M 180 58 L 180 70 L 167 71 L 167 84 L 179 84 L 180 97 L 192 97 L 192 85 L 179 84 L 179 71 L 192 70 L 192 58 Z" fill="#fefefe" fill-rule="evenodd"/>
  <path d="M 208 58 L 208 70 L 221 71 L 221 84 L 208 85 L 208 97 L 220 97 L 220 85 L 233 83 L 233 71 L 221 71 L 220 58 Z" fill="#fefefe" fill-rule="evenodd"/>
  <path d="M 180 113 L 180 125 L 175 127 L 167 126 L 167 139 L 179 139 L 180 152 L 192 152 L 192 140 L 179 139 L 179 126 L 192 125 L 192 113 Z" fill="#fefefe" fill-rule="evenodd"/>
  <path d="M 139 430 L 139 442 L 126 443 L 126 456 L 138 456 L 139 469 L 151 469 L 151 457 L 138 456 L 138 443 L 151 442 L 151 430 Z" fill="#fefefe" fill-rule="evenodd"/>
  <path d="M 444 237 L 441 249 L 454 250 L 454 263 L 441 264 L 441 276 L 453 276 L 453 264 L 466 263 L 466 250 L 454 250 L 453 237 Z" fill="#fefefe" fill-rule="evenodd"/>
  <path d="M 370 292 L 358 292 L 358 304 L 355 305 L 354 308 L 354 318 L 358 319 L 358 332 L 354 333 L 353 336 L 350 337 L 351 340 L 346 342 L 346 345 L 357 345 L 358 332 L 370 332 L 370 319 L 357 318 L 357 305 L 370 304 Z" fill="#fefefe" fill-rule="evenodd"/>
  <path d="M 192 363 L 185 364 L 184 366 L 180 367 L 179 374 L 167 374 L 167 387 L 179 387 L 180 400 L 192 400 L 192 388 L 179 387 L 179 374 L 192 373 Z" fill="#fefefe" fill-rule="evenodd"/>
  <path d="M 399 237 L 399 249 L 389 250 L 386 257 L 386 262 L 398 263 L 399 267 L 403 267 L 412 272 L 411 266 L 413 263 L 425 263 L 425 251 L 413 250 L 413 263 L 399 264 L 398 250 L 407 249 L 406 246 L 404 246 L 401 243 L 401 237 Z" fill="#f4f4f4" fill-rule="evenodd"/>
  <path d="M 316 113 L 303 113 L 303 125 L 299 127 L 290 126 L 290 139 L 302 139 L 303 144 L 310 141 L 302 139 L 303 125 L 316 125 L 317 133 L 325 128 L 329 128 L 327 126 L 316 125 Z" fill="#f4f4f4" fill-rule="evenodd"/>
  <path d="M 208 305 L 208 318 L 220 318 L 221 331 L 233 331 L 233 319 L 220 318 L 220 305 L 233 304 L 232 300 L 227 301 L 222 298 L 220 305 Z" fill="#fefefe" fill-rule="evenodd"/>
  <path d="M 345 113 L 344 125 L 338 126 L 338 129 L 343 129 L 344 125 L 358 126 L 358 139 L 353 140 L 355 145 L 354 152 L 357 152 L 357 140 L 370 139 L 370 126 L 358 126 L 357 113 Z" fill="#fefefe" fill-rule="evenodd"/>
  <path d="M 358 306 L 358 318 L 353 319 L 353 324 L 355 326 L 354 331 L 357 331 L 358 318 L 371 318 L 372 332 L 384 332 L 384 319 L 372 319 L 370 315 L 370 305 Z" fill="#f4f4f4" fill-rule="evenodd"/>
  <path d="M 467 0 L 454 0 L 454 15 L 441 16 L 441 28 L 453 28 L 453 16 L 466 15 Z" fill="#fefefe" fill-rule="evenodd"/>
  <path d="M 151 0 L 139 0 L 139 15 L 126 16 L 126 28 L 138 28 L 138 16 L 151 15 Z" fill="#f4f4f4" fill-rule="evenodd"/>
  <path d="M 208 0 L 208 15 L 220 15 L 221 28 L 233 28 L 233 16 L 220 15 L 220 0 Z" fill="#fefefe" fill-rule="evenodd"/>
  <path d="M 192 0 L 180 0 L 180 15 L 167 16 L 167 28 L 179 28 L 179 16 L 192 15 Z" fill="#fefefe" fill-rule="evenodd"/>
  <path d="M 126 0 L 126 15 L 138 15 L 139 28 L 151 28 L 151 16 L 138 15 L 138 0 Z" fill="#fefefe" fill-rule="evenodd"/>
  <path d="M 496 237 L 496 249 L 509 250 L 509 263 L 496 264 L 495 276 L 506 277 L 508 276 L 508 264 L 511 263 L 511 250 L 508 249 L 508 237 Z" fill="#fefefe" fill-rule="evenodd"/>
  <path d="M 249 319 L 249 331 L 261 331 L 262 318 L 275 318 L 276 331 L 288 331 L 288 324 L 264 312 L 262 312 L 261 319 Z" fill="#fefefe" fill-rule="evenodd"/>
  <path d="M 496 182 L 496 194 L 509 195 L 509 208 L 496 209 L 496 221 L 508 221 L 508 209 L 511 208 L 511 195 L 508 194 L 508 182 Z" fill="#fefefe" fill-rule="evenodd"/>
  <path d="M 303 485 L 304 497 L 317 498 L 317 511 L 329 511 L 329 498 L 317 498 L 316 485 Z" fill="#fefefe" fill-rule="evenodd"/>
  <path d="M 466 485 L 454 485 L 454 497 L 441 498 L 441 511 L 453 511 L 453 498 L 466 497 Z" fill="#f4f4f4" fill-rule="evenodd"/>
  <path d="M 249 485 L 249 497 L 262 498 L 262 511 L 275 511 L 275 499 L 262 498 L 261 485 Z" fill="#fefefe" fill-rule="evenodd"/>
  <path d="M 208 485 L 208 497 L 221 498 L 221 511 L 233 511 L 233 498 L 221 498 L 220 485 Z" fill="#f4f4f4" fill-rule="evenodd"/>
  <path d="M 399 292 L 399 304 L 412 304 L 413 318 L 425 318 L 425 306 L 413 305 L 412 293 Z" fill="#f4f4f4" fill-rule="evenodd"/>
  <path d="M 466 195 L 454 196 L 453 209 L 441 209 L 441 221 L 453 221 L 453 209 L 467 207 Z" fill="#fefefe" fill-rule="evenodd"/>
  <path d="M 441 485 L 441 497 L 454 498 L 454 511 L 466 511 L 466 498 L 454 498 L 453 485 Z" fill="#fefefe" fill-rule="evenodd"/>
  <path d="M 370 485 L 358 485 L 358 497 L 345 498 L 345 511 L 357 511 L 357 498 L 370 497 Z" fill="#fefefe" fill-rule="evenodd"/>
  <path d="M 233 485 L 221 485 L 221 497 L 208 498 L 208 511 L 220 511 L 220 498 L 233 497 Z" fill="#fefefe" fill-rule="evenodd"/>
  <path d="M 344 58 L 345 70 L 357 70 L 358 83 L 370 84 L 370 71 L 358 71 L 357 58 Z" fill="#fefefe" fill-rule="evenodd"/>
  <path d="M 167 485 L 167 497 L 180 498 L 180 511 L 192 511 L 192 499 L 179 497 L 179 485 Z" fill="#fefefe" fill-rule="evenodd"/>
  <path d="M 151 126 L 139 127 L 138 140 L 126 140 L 126 152 L 138 152 L 138 140 L 151 139 Z" fill="#fefefe" fill-rule="evenodd"/>
  <path d="M 233 430 L 221 430 L 221 442 L 208 444 L 208 456 L 220 455 L 221 442 L 233 442 Z" fill="#fefefe" fill-rule="evenodd"/>
  <path d="M 220 347 L 208 347 L 208 356 L 206 360 L 194 360 L 194 373 L 206 373 L 206 360 L 220 359 Z" fill="#f4f4f4" fill-rule="evenodd"/>
  <path d="M 126 58 L 126 70 L 138 70 L 139 83 L 151 83 L 151 71 L 139 71 L 138 58 Z" fill="#fefefe" fill-rule="evenodd"/>
  <path d="M 148 305 L 139 306 L 138 319 L 126 319 L 126 332 L 138 331 L 138 319 L 148 318 Z" fill="#f4f4f4" fill-rule="evenodd"/>
  <path d="M 358 168 L 358 180 L 353 182 L 353 185 L 355 186 L 353 188 L 353 194 L 357 194 L 358 199 L 360 201 L 365 201 L 370 204 L 370 195 L 357 194 L 357 181 L 370 180 L 371 169 Z" fill="#f4f4f4" fill-rule="evenodd"/>
  <path d="M 372 182 L 372 194 L 384 194 L 386 197 L 386 208 L 395 208 L 392 200 L 394 195 L 384 194 L 384 182 Z" fill="#f4f4f4" fill-rule="evenodd"/>
  <path d="M 398 443 L 412 442 L 413 456 L 399 457 Z" fill="#f4f4f4" fill-rule="evenodd"/>
  <path d="M 261 443 L 275 442 L 276 456 L 262 457 Z" fill="#f4f4f4" fill-rule="evenodd"/>
  <path d="M 453 388 L 467 387 L 468 401 L 454 402 Z" fill="#f4f4f4" fill-rule="evenodd"/>
  <path d="M 439 374 L 453 373 L 454 387 L 440 388 Z" fill="#f4f4f4" fill-rule="evenodd"/>
  <path d="M 398 388 L 412 387 L 413 401 L 399 402 Z" fill="#f4f4f4" fill-rule="evenodd"/>
  <path d="M 302 374 L 316 373 L 317 387 L 303 388 Z" fill="#f4f4f4" fill-rule="evenodd"/>
  <path d="M 261 388 L 275 387 L 276 401 L 262 402 Z" fill="#f4f4f4" fill-rule="evenodd"/>
  <path d="M 28 374 L 42 373 L 43 387 L 29 388 Z" fill="#f4f4f4" fill-rule="evenodd"/>
  <path d="M 494 319 L 508 318 L 509 332 L 495 333 Z" fill="#f4f4f4" fill-rule="evenodd"/>
  <path d="M 28 319 L 42 318 L 43 332 L 29 333 Z" fill="#f4f4f4" fill-rule="evenodd"/>
  <path d="M 83 319 L 97 318 L 98 332 L 84 333 Z" fill="#f4f4f4" fill-rule="evenodd"/>
  <path d="M 494 126 L 508 125 L 509 139 L 495 140 Z" fill="#f4f4f4" fill-rule="evenodd"/>
  <path d="M 398 140 L 412 139 L 413 153 L 399 154 Z" fill="#f4f4f4" fill-rule="evenodd"/>
  <path d="M 138 126 L 152 125 L 153 139 L 139 140 Z" fill="#f4f4f4" fill-rule="evenodd"/>
  <path d="M 83 126 L 97 125 L 98 139 L 84 140 Z" fill="#f4f4f4" fill-rule="evenodd"/>
  <path d="M 28 126 L 42 125 L 43 139 L 29 140 Z" fill="#f4f4f4" fill-rule="evenodd"/>
  <path d="M 28 71 L 42 70 L 43 84 L 29 85 Z" fill="#f4f4f4" fill-rule="evenodd"/>
  <path d="M 398 57 L 412 56 L 413 70 L 399 71 Z" fill="#f4f4f4" fill-rule="evenodd"/>
  <path d="M 302 71 L 316 70 L 317 84 L 303 85 Z" fill="#f4f4f4" fill-rule="evenodd"/>
  <path d="M 83 443 L 97 442 L 98 456 L 84 457 Z" fill="#fefefe" fill-rule="evenodd"/>
  <path d="M 398 374 L 412 373 L 413 387 L 399 388 Z" fill="#fefefe" fill-rule="evenodd"/>
  <path d="M 261 374 L 275 373 L 276 387 L 262 388 Z" fill="#fefefe" fill-rule="evenodd"/>
  <path d="M 83 250 L 97 249 L 98 263 L 84 264 Z" fill="#fefefe" fill-rule="evenodd"/>
  <path d="M 28 250 L 42 249 L 43 263 L 29 264 Z" fill="#fefefe" fill-rule="evenodd"/>
  <path d="M 83 195 L 97 194 L 98 208 L 84 209 Z" fill="#fefefe" fill-rule="evenodd"/>
  <path d="M 28 195 L 42 194 L 43 208 L 29 209 Z" fill="#fefefe" fill-rule="evenodd"/>
  <path d="M 0 0 L 0 15 L 14 15 L 14 0 Z" fill="#f4f4f4" fill-rule="evenodd"/>
  <path d="M 496 0 L 496 15 L 508 15 L 509 28 L 511 28 L 511 16 L 508 15 L 508 0 Z" fill="#f4f4f4" fill-rule="evenodd"/>
  <path d="M 509 58 L 509 70 L 496 71 L 495 78 L 496 84 L 509 85 L 509 97 L 511 97 L 511 85 L 508 84 L 508 71 L 511 70 L 511 58 Z" fill="#fefefe" fill-rule="evenodd"/>
  <path d="M 509 361 L 509 373 L 496 374 L 496 387 L 508 387 L 509 400 L 511 400 L 511 388 L 508 387 L 508 374 L 511 373 L 511 361 Z" fill="#fefefe" fill-rule="evenodd"/>
  <path d="M 509 113 L 509 125 L 496 126 L 496 139 L 508 139 L 509 152 L 511 152 L 511 140 L 508 139 L 508 126 L 511 125 L 511 113 Z" fill="#fefefe" fill-rule="evenodd"/>
  <path d="M 425 200 L 414 205 L 412 209 L 407 209 L 406 211 L 400 210 L 399 221 L 411 221 L 412 209 L 417 207 L 425 208 Z" fill="#f4f4f4" fill-rule="evenodd"/>
  <path d="M 0 443 L 0 456 L 14 456 L 14 443 Z" fill="#f4f4f4" fill-rule="evenodd"/>
  <path d="M 0 195 L 0 208 L 14 208 L 14 195 Z" fill="#f4f4f4" fill-rule="evenodd"/>
  <path d="M 0 374 L 0 387 L 14 387 L 14 374 Z" fill="#fefefe" fill-rule="evenodd"/>
  <path d="M 0 126 L 0 139 L 14 139 L 14 126 Z" fill="#fefefe" fill-rule="evenodd"/>
  <path d="M 511 485 L 509 485 L 508 498 L 496 498 L 496 511 L 508 511 L 508 498 L 511 497 Z" fill="#f4f4f4" fill-rule="evenodd"/>
  <path d="M 57 0 L 57 15 L 69 15 L 69 0 Z" fill="#f4f4f4" fill-rule="evenodd"/>
  <path d="M 482 0 L 482 15 L 494 15 L 494 0 Z" fill="#fefefe" fill-rule="evenodd"/>
  <path d="M 427 0 L 427 15 L 439 15 L 439 0 Z" fill="#fefefe" fill-rule="evenodd"/>
  <path d="M 372 0 L 372 15 L 384 15 L 384 0 Z" fill="#fefefe" fill-rule="evenodd"/>
  <path d="M 235 0 L 235 15 L 247 15 L 247 0 Z" fill="#fefefe" fill-rule="evenodd"/>
  <path d="M 153 0 L 153 15 L 165 15 L 165 0 Z" fill="#fefefe" fill-rule="evenodd"/>
  <path d="M 0 388 L 0 401 L 14 401 L 14 388 Z" fill="#f4f4f4" fill-rule="evenodd"/>
  <path d="M 0 250 L 0 263 L 14 263 L 14 250 Z" fill="#f4f4f4" fill-rule="evenodd"/>
  <path d="M 0 71 L 0 83 L 14 84 L 14 71 Z" fill="#fefefe" fill-rule="evenodd"/>
  <path d="M 0 305 L 0 318 L 14 318 L 14 306 Z" fill="#f4f4f4" fill-rule="evenodd"/>
  <path d="M 0 498 L 0 510 L 14 511 L 14 498 Z" fill="#f4f4f4" fill-rule="evenodd"/>
  <path d="M 0 319 L 0 332 L 14 331 L 14 319 Z" fill="#fefefe" fill-rule="evenodd"/>
  <path d="M 511 0 L 509 0 L 509 15 L 496 16 L 496 28 L 508 28 L 508 16 L 511 15 Z" fill="#fefefe" fill-rule="evenodd"/>
  <path d="M 0 57 L 0 70 L 14 70 L 14 58 Z" fill="#f4f4f4" fill-rule="evenodd"/>
  <path d="M 0 430 L 0 442 L 14 442 L 14 430 Z" fill="#fefefe" fill-rule="evenodd"/>
  <path d="M 0 264 L 0 276 L 14 276 L 14 264 Z" fill="#fefefe" fill-rule="evenodd"/>
  <path d="M 496 485 L 496 497 L 508 497 L 509 511 L 511 511 L 511 498 L 508 497 L 508 485 Z" fill="#fefefe" fill-rule="evenodd"/>
  <path d="M 0 140 L 0 152 L 14 153 L 14 140 Z" fill="#f4f4f4" fill-rule="evenodd"/>
  <path d="M 0 471 L 0 483 L 14 483 L 14 471 Z" fill="#f4f4f4" fill-rule="evenodd"/>
  <path d="M 0 416 L 0 428 L 14 428 L 14 416 Z" fill="#f4f4f4" fill-rule="evenodd"/>
  <path d="M 0 361 L 0 373 L 14 373 L 14 361 Z" fill="#f4f4f4" fill-rule="evenodd"/>
  <path d="M 0 333 L 0 345 L 14 345 L 14 333 Z" fill="#f4f4f4" fill-rule="evenodd"/>
  <path d="M 0 278 L 0 290 L 14 290 L 14 278 Z" fill="#f4f4f4" fill-rule="evenodd"/>
  <path d="M 0 223 L 0 235 L 14 235 L 14 223 Z" fill="#f4f4f4" fill-rule="evenodd"/>
  <path d="M 0 168 L 0 180 L 14 180 L 14 168 Z" fill="#f4f4f4" fill-rule="evenodd"/>
  <path d="M 0 113 L 0 125 L 14 125 L 14 113 Z" fill="#f4f4f4" fill-rule="evenodd"/>
  <path d="M 0 85 L 0 97 L 14 97 L 14 85 Z" fill="#f4f4f4" fill-rule="evenodd"/>
  <path d="M 0 30 L 0 42 L 14 42 L 14 30 Z" fill="#f4f4f4" fill-rule="evenodd"/>
  <path d="M 0 485 L 0 497 L 14 497 L 14 485 Z" fill="#fefefe" fill-rule="evenodd"/>
  <path d="M 0 457 L 0 469 L 14 469 L 14 457 Z" fill="#fefefe" fill-rule="evenodd"/>
  <path d="M 496 430 L 496 442 L 508 442 L 509 455 L 511 455 L 511 443 L 508 442 L 508 430 Z" fill="#fefefe" fill-rule="evenodd"/>
  <path d="M 0 402 L 0 414 L 14 414 L 14 402 Z" fill="#fefefe" fill-rule="evenodd"/>
  <path d="M 0 347 L 0 359 L 14 359 L 14 347 Z" fill="#fefefe" fill-rule="evenodd"/>
  <path d="M 0 292 L 0 304 L 14 304 L 14 292 Z" fill="#fefefe" fill-rule="evenodd"/>
  <path d="M 0 237 L 0 249 L 14 249 L 14 237 Z" fill="#fefefe" fill-rule="evenodd"/>
  <path d="M 0 209 L 0 221 L 14 221 L 14 209 Z" fill="#fefefe" fill-rule="evenodd"/>
  <path d="M 0 182 L 0 194 L 14 194 L 14 182 Z" fill="#fefefe" fill-rule="evenodd"/>
  <path d="M 0 154 L 0 166 L 14 166 L 14 154 Z" fill="#fefefe" fill-rule="evenodd"/>
  <path d="M 0 99 L 0 111 L 14 111 L 14 99 Z" fill="#fefefe" fill-rule="evenodd"/>
  <path d="M 0 44 L 0 56 L 14 56 L 14 44 Z" fill="#fefefe" fill-rule="evenodd"/>
  <path d="M 0 16 L 0 28 L 14 28 L 14 16 Z" fill="#fefefe" fill-rule="evenodd"/>
  <path d="M 233 168 L 221 168 L 221 180 L 218 182 L 208 182 L 208 184 L 220 184 L 221 180 L 233 180 Z" fill="#f4f4f4" fill-rule="evenodd"/>
  <path d="M 468 498 L 468 511 L 480 511 L 480 498 Z" fill="#f4f4f4" fill-rule="evenodd"/>
  <path d="M 194 498 L 194 511 L 206 511 L 206 498 Z" fill="#f4f4f4" fill-rule="evenodd"/>
  <path d="M 112 498 L 112 511 L 124 511 L 124 498 Z" fill="#f4f4f4" fill-rule="evenodd"/>
  <path d="M 57 498 L 57 511 L 69 511 L 69 498 Z" fill="#f4f4f4" fill-rule="evenodd"/>
  <path d="M 495 471 L 495 483 L 508 483 L 508 471 Z" fill="#f4f4f4" fill-rule="evenodd"/>
  <path d="M 303 471 L 303 483 L 316 483 L 316 471 Z" fill="#f4f4f4" fill-rule="evenodd"/>
  <path d="M 84 471 L 84 483 L 97 483 L 97 471 Z" fill="#f4f4f4" fill-rule="evenodd"/>
  <path d="M 29 471 L 29 483 L 42 483 L 42 471 Z" fill="#f4f4f4" fill-rule="evenodd"/>
  <path d="M 112 443 L 112 456 L 124 456 L 124 443 Z" fill="#f4f4f4" fill-rule="evenodd"/>
  <path d="M 303 416 L 303 428 L 316 428 L 316 416 Z" fill="#f4f4f4" fill-rule="evenodd"/>
  <path d="M 84 416 L 84 428 L 97 428 L 97 416 Z" fill="#f4f4f4" fill-rule="evenodd"/>
  <path d="M 29 416 L 29 428 L 42 428 L 42 416 Z" fill="#f4f4f4" fill-rule="evenodd"/>
  <path d="M 112 388 L 112 401 L 124 401 L 124 388 Z" fill="#f4f4f4" fill-rule="evenodd"/>
  <path d="M 399 347 L 399 359 L 412 359 L 412 347 Z" fill="#f4f4f4" fill-rule="evenodd"/>
  <path d="M 262 347 L 262 359 L 275 359 L 275 347 Z" fill="#f4f4f4" fill-rule="evenodd"/>
  <path d="M 427 319 L 427 332 L 439 332 L 439 319 Z" fill="#f4f4f4" fill-rule="evenodd"/>
  <path d="M 495 278 L 495 290 L 508 290 L 508 278 Z" fill="#f4f4f4" fill-rule="evenodd"/>
  <path d="M 29 223 L 29 235 L 42 235 L 42 223 Z" fill="#f4f4f4" fill-rule="evenodd"/>
  <path d="M 84 168 L 84 180 L 97 180 L 97 168 Z" fill="#f4f4f4" fill-rule="evenodd"/>
  <path d="M 29 168 L 29 180 L 42 180 L 42 168 Z" fill="#f4f4f4" fill-rule="evenodd"/>
  <path d="M 372 126 L 372 139 L 384 139 L 384 126 Z" fill="#f4f4f4" fill-rule="evenodd"/>
  <path d="M 262 99 L 262 111 L 275 111 L 275 99 Z" fill="#f4f4f4" fill-rule="evenodd"/>
  <path d="M 427 71 L 427 84 L 439 84 L 439 71 Z" fill="#f4f4f4" fill-rule="evenodd"/>
  <path d="M 235 71 L 235 84 L 247 84 L 247 71 Z" fill="#f4f4f4" fill-rule="evenodd"/>
  <path d="M 262 44 L 262 56 L 275 56 L 275 44 Z" fill="#f4f4f4" fill-rule="evenodd"/>
  <path d="M 495 30 L 495 42 L 508 42 L 508 30 Z" fill="#f4f4f4" fill-rule="evenodd"/>
  <path d="M 303 30 L 303 42 L 316 42 L 316 30 Z" fill="#f4f4f4" fill-rule="evenodd"/>
  <path d="M 84 30 L 84 42 L 97 42 L 97 30 Z" fill="#f4f4f4" fill-rule="evenodd"/>
  <path d="M 427 498 L 427 511 L 439 511 L 439 498 Z" fill="#fefefe" fill-rule="evenodd"/>
  <path d="M 372 498 L 372 511 L 384 511 L 384 498 Z" fill="#fefefe" fill-rule="evenodd"/>
  <path d="M 235 498 L 235 511 L 247 511 L 247 498 Z" fill="#fefefe" fill-rule="evenodd"/>
  <path d="M 29 457 L 29 469 L 42 469 L 42 457 Z" fill="#fefefe" fill-rule="evenodd"/>
  <path d="M 399 416 L 399 428 L 412 428 L 412 416 Z" fill="#fefefe" fill-rule="evenodd"/>
  <path d="M 262 416 L 262 428 L 275 428 L 275 416 Z" fill="#fefefe" fill-rule="evenodd"/>
  <path d="M 84 402 L 84 414 L 97 414 L 97 402 Z" fill="#fefefe" fill-rule="evenodd"/>
  <path d="M 29 402 L 29 414 L 42 414 L 42 402 Z" fill="#fefefe" fill-rule="evenodd"/>
  <path d="M 468 374 L 468 387 L 480 387 L 480 374 Z" fill="#fefefe" fill-rule="evenodd"/>
  <path d="M 194 374 L 194 387 L 206 387 L 206 374 Z" fill="#fefefe" fill-rule="evenodd"/>
  <path d="M 112 374 L 112 387 L 124 387 L 124 374 Z" fill="#fefefe" fill-rule="evenodd"/>
  <path d="M 57 374 L 57 387 L 69 387 L 69 374 Z" fill="#fefefe" fill-rule="evenodd"/>
  <path d="M 84 347 L 84 359 L 97 359 L 97 347 Z" fill="#fefefe" fill-rule="evenodd"/>
  <path d="M 29 347 L 29 359 L 42 359 L 42 347 Z" fill="#fefefe" fill-rule="evenodd"/>
  <path d="M 482 250 L 482 263 L 494 263 L 494 250 Z" fill="#fefefe" fill-rule="evenodd"/>
  <path d="M 482 195 L 482 208 L 494 208 L 494 195 Z" fill="#fefefe" fill-rule="evenodd"/>
  <path d="M 399 168 L 399 180 L 412 180 L 412 168 Z" fill="#fefefe" fill-rule="evenodd"/>
  <path d="M 84 154 L 84 166 L 97 166 L 97 154 Z" fill="#fefefe" fill-rule="evenodd"/>
  <path d="M 29 154 L 29 166 L 42 166 L 42 154 Z" fill="#fefefe" fill-rule="evenodd"/>
  <path d="M 112 126 L 112 139 L 124 139 L 124 126 Z" fill="#fefefe" fill-rule="evenodd"/>
  <path d="M 303 99 L 303 111 L 316 111 L 316 99 Z" fill="#fefefe" fill-rule="evenodd"/>
  <path d="M 84 99 L 84 111 L 97 111 L 97 99 Z" fill="#fefefe" fill-rule="evenodd"/>
  <path d="M 29 99 L 29 111 L 42 111 L 42 99 Z" fill="#fefefe" fill-rule="evenodd"/>
  <path d="M 303 44 L 303 56 L 316 56 L 316 44 Z" fill="#fefefe" fill-rule="evenodd"/>
  <path d="M 84 44 L 84 56 L 97 56 L 97 44 Z" fill="#fefefe" fill-rule="evenodd"/>
  <path d="M 262 30 L 262 42 L 275 42 L 275 30 Z" fill="#fefefe" fill-rule="evenodd"/>
  <path d="M 495 417 L 495 428 L 508 428 L 508 416 Z" fill="#f4f4f4" fill-rule="evenodd"/>
  <path d="M 495 168 L 496 180 L 508 180 L 508 168 Z" fill="#f4f4f4" fill-rule="evenodd"/>
  <path d="M 344 472 L 344 483 L 357 483 L 357 471 Z" fill="#fefefe" fill-rule="evenodd"/>
  <path d="M 262 333 L 262 345 L 275 345 L 274 333 Z" fill="#fefefe" fill-rule="evenodd"/>
  <path d="M 195 126 L 194 139 L 206 139 L 206 126 Z" fill="#fefefe" fill-rule="evenodd"/>
  <path d="M 57 443 L 57 455 L 69 456 L 69 443 Z" fill="#f4f4f4" fill-rule="evenodd"/>
  <path d="M 399 99 L 399 111 L 412 111 L 411 99 Z" fill="#f4f4f4" fill-rule="evenodd"/>
  <path d="M 153 499 L 153 511 L 165 511 L 165 498 Z" fill="#fefefe" fill-rule="evenodd"/>
  <path d="M 126 498 L 126 511 L 138 511 L 138 499 Z" fill="#fefefe" fill-rule="evenodd"/>
  <path d="M 399 471 L 399 483 L 411 483 L 412 471 Z" fill="#fefefe" fill-rule="evenodd"/>
  <path d="M 304 457 L 303 469 L 316 469 L 316 457 Z" fill="#fefefe" fill-rule="evenodd"/>
  <path d="M 454 416 L 454 428 L 466 428 L 467 416 Z" fill="#fefefe" fill-rule="evenodd"/>
  <path d="M 112 319 L 112 331 L 124 332 L 124 319 Z" fill="#fefefe" fill-rule="evenodd"/>
  <path d="M 57 127 L 57 139 L 69 139 L 69 126 Z" fill="#fefefe" fill-rule="evenodd"/>
  <path d="M 84 223 L 84 235 L 97 235 L 97 223 Z" fill="#f4f4f4" fill-rule="evenodd"/>
  <path d="M 344 99 L 344 111 L 357 111 L 357 99 Z" fill="#f4f4f4" fill-rule="evenodd"/>
  <path d="M 372 71 L 372 84 L 384 84 L 384 71 Z" fill="#f4f4f4" fill-rule="evenodd"/>
  <path d="M 372 443 L 372 456 L 384 456 L 384 443 Z" fill="#fefefe" fill-rule="evenodd"/>
  <path d="M 167 498 L 167 511 L 179 511 L 179 499 Z" fill="#f4f4f4" fill-rule="evenodd"/>
  <path d="M 482 498 L 482 511 L 494 511 L 494 499 Z" fill="#fefefe" fill-rule="evenodd"/>
  <path d="M 454 333 L 454 345 L 467 345 L 466 333 Z" fill="#fefefe" fill-rule="evenodd"/>
  <path d="M 373 305 L 372 318 L 384 318 L 384 305 Z" fill="#fefefe" fill-rule="evenodd"/>
  <path d="M 468 71 L 468 83 L 480 84 L 480 71 Z" fill="#fefefe" fill-rule="evenodd"/>
  <path d="M 399 30 L 399 42 L 412 42 L 411 30 Z" fill="#fefefe" fill-rule="evenodd"/>
  <path d="M 139 471 L 139 483 L 152 483 L 152 471 Z" fill="#f4f4f4" fill-rule="evenodd"/>
  <path d="M 262 471 L 262 483 L 275 483 L 275 471 Z" fill="#fefefe" fill-rule="evenodd"/>
  <path d="M 303 347 L 303 359 L 316 359 L 316 347 Z" fill="#fefefe" fill-rule="evenodd"/>
  <path d="M 194 71 L 194 83 L 205 84 L 206 71 Z" fill="#fefefe" fill-rule="evenodd"/>
  <path d="M 57 305 L 57 318 L 69 318 L 69 306 Z" fill="#f4f4f4" fill-rule="evenodd"/>
  <path d="M 495 223 L 496 235 L 508 235 L 508 223 Z" fill="#f4f4f4" fill-rule="evenodd"/>
  <path d="M 427 306 L 427 318 L 439 318 L 439 305 Z" fill="#fefefe" fill-rule="evenodd"/>
  <path d="M 235 305 L 235 318 L 247 318 L 247 306 Z" fill="#fefefe" fill-rule="evenodd"/>
  <path d="M 303 402 L 303 414 L 316 414 L 316 402 Z" fill="#fefefe" fill-rule="evenodd"/>
  <path d="M 454 223 L 454 235 L 466 235 L 466 223 Z" fill="#fefefe" fill-rule="evenodd"/>
  <path d="M 345 347 L 344 359 L 357 359 L 357 347 Z" fill="#f4f4f4" fill-rule="evenodd"/>
  <path d="M 70 292 L 71 304 L 83 304 L 83 292 Z" fill="#f4f4f4" fill-rule="evenodd"/>
  <path d="M 372 374 L 372 387 L 384 387 L 384 374 Z" fill="#f4f4f4" fill-rule="evenodd"/>
  <path d="M 112 57 L 112 70 L 124 70 L 124 57 Z" fill="#f4f4f4" fill-rule="evenodd"/>
  <path d="M 290 498 L 290 511 L 302 511 L 302 498 Z" fill="#fefefe" fill-rule="evenodd"/>
  <path d="M 482 443 L 482 455 L 494 455 L 494 443 Z" fill="#fefefe" fill-rule="evenodd"/>
  <path d="M 153 443 L 153 455 L 165 456 L 165 444 Z" fill="#fefefe" fill-rule="evenodd"/>
  <path d="M 247 374 L 235 375 L 235 387 L 247 387 Z" fill="#f4f4f4" fill-rule="evenodd"/>
  <path d="M 454 347 L 454 359 L 466 359 L 467 347 Z" fill="#f4f4f4" fill-rule="evenodd"/>
  <path d="M 439 250 L 427 251 L 427 263 L 439 263 Z" fill="#fefefe" fill-rule="evenodd"/>
  <path d="M 112 71 L 112 83 L 124 84 L 124 71 Z" fill="#fefefe" fill-rule="evenodd"/>
  <path d="M 454 278 L 454 290 L 467 289 L 466 278 Z" fill="#fefefe" fill-rule="evenodd"/>
  <path d="M 468 57 L 468 70 L 480 70 L 480 58 Z" fill="#f4f4f4" fill-rule="evenodd"/>
  <path d="M 468 319 L 468 331 L 480 332 L 480 319 Z" fill="#fefefe" fill-rule="evenodd"/>
  <path d="M 57 264 L 57 276 L 69 276 L 69 264 Z" fill="#fefefe" fill-rule="evenodd"/>
  <path d="M 57 71 L 57 84 L 69 84 L 69 71 Z" fill="#fefefe" fill-rule="evenodd"/>
  <path d="M 71 99 L 70 111 L 83 111 L 83 99 Z" fill="#f4f4f4" fill-rule="evenodd"/>
  <path d="M 57 319 L 57 331 L 69 332 L 69 319 Z" fill="#fefefe" fill-rule="evenodd"/>
  <path d="M 454 292 L 454 304 L 466 304 L 466 292 Z" fill="#f4f4f4" fill-rule="evenodd"/>
  <path d="M 71 154 L 71 166 L 83 166 L 83 154 Z" fill="#f4f4f4" fill-rule="evenodd"/>
  <path d="M 221 457 L 221 469 L 233 469 L 233 457 Z" fill="#fefefe" fill-rule="evenodd"/>
  <path d="M 427 444 L 427 456 L 439 455 L 439 443 Z" fill="#fefefe" fill-rule="evenodd"/>
  <path d="M 344 417 L 345 428 L 357 428 L 357 416 Z" fill="#fefefe" fill-rule="evenodd"/>
  <path d="M 496 154 L 496 166 L 508 166 L 508 154 Z" fill="#fefefe" fill-rule="evenodd"/>
  <path d="M 331 71 L 331 83 L 343 84 L 343 71 Z" fill="#fefefe" fill-rule="evenodd"/>
  <path d="M 139 416 L 139 428 L 151 428 L 151 416 Z" fill="#f4f4f4" fill-rule="evenodd"/>
  <path d="M 221 333 L 221 345 L 233 345 L 233 333 Z" fill="#f4f4f4" fill-rule="evenodd"/>
  <path d="M 112 140 L 112 152 L 124 152 L 124 140 Z" fill="#f4f4f4" fill-rule="evenodd"/>
  <path d="M 194 58 L 194 70 L 206 70 L 206 58 Z" fill="#f4f4f4" fill-rule="evenodd"/>
  <path d="M 57 58 L 57 70 L 69 70 L 69 58 Z" fill="#f4f4f4" fill-rule="evenodd"/>
  <path d="M 139 30 L 139 42 L 152 42 L 152 30 Z" fill="#f4f4f4" fill-rule="evenodd"/>
  <path d="M 235 443 L 235 455 L 247 456 L 247 444 Z" fill="#fefefe" fill-rule="evenodd"/>
  <path d="M 208 333 L 208 345 L 220 345 L 220 333 Z" fill="#fefefe" fill-rule="evenodd"/>
  <path d="M 454 168 L 454 180 L 466 180 L 466 168 Z" fill="#fefefe" fill-rule="evenodd"/>
  <path d="M 440 416 L 441 428 L 453 428 L 453 416 Z" fill="#f4f4f4" fill-rule="evenodd"/>
  <path d="M 372 388 L 372 400 L 384 401 L 384 388 Z" fill="#fefefe" fill-rule="evenodd"/>
  <path d="M 345 30 L 344 42 L 357 42 L 357 30 Z" fill="#fefefe" fill-rule="evenodd"/>
  <path d="M 221 471 L 221 483 L 233 483 L 233 471 Z" fill="#f4f4f4" fill-rule="evenodd"/>
  <path d="M 167 471 L 166 482 L 179 483 L 179 471 Z" fill="#f4f4f4" fill-rule="evenodd"/>
  <path d="M 221 416 L 221 428 L 233 428 L 233 416 Z" fill="#f4f4f4" fill-rule="evenodd"/>
  <path d="M 126 347 L 126 359 L 138 359 L 138 347 Z" fill="#f4f4f4" fill-rule="evenodd"/>
  <path d="M 180 154 L 180 166 L 192 166 L 192 154 Z" fill="#f4f4f4" fill-rule="evenodd"/>
  <path d="M 57 140 L 57 152 L 69 152 L 69 140 Z" fill="#f4f4f4" fill-rule="evenodd"/>
  <path d="M 358 30 L 358 42 L 370 42 L 370 30 Z" fill="#f4f4f4" fill-rule="evenodd"/>
  <path d="M 496 457 L 496 469 L 508 469 L 508 457 Z" fill="#fefefe" fill-rule="evenodd"/>
  <path d="M 194 430 L 194 442 L 206 442 L 206 430 Z" fill="#fefefe" fill-rule="evenodd"/>
  <path d="M 98 278 L 98 290 L 110 290 L 110 278 Z" fill="#fefefe" fill-rule="evenodd"/>
  <path d="M 370 182 L 358 182 L 358 194 L 370 194 Z" fill="#fefefe" fill-rule="evenodd"/>
  <path d="M 441 99 L 441 111 L 453 111 L 453 99 Z" fill="#fefefe" fill-rule="evenodd"/>
  <path d="M 345 85 L 345 97 L 357 97 L 357 85 Z" fill="#fefefe" fill-rule="evenodd"/>
  <path d="M 496 44 L 496 56 L 508 56 L 508 44 Z" fill="#fefefe" fill-rule="evenodd"/>
  <path d="M 124 305 L 112 306 L 112 318 L 124 318 Z" fill="#f4f4f4" fill-rule="evenodd"/>
  <path d="M 139 168 L 139 180 L 152 180 L 151 168 Z" fill="#f4f4f4" fill-rule="evenodd"/>
  <path d="M 262 154 L 262 166 L 269 166 L 275 163 L 275 154 Z" fill="#f4f4f4" fill-rule="evenodd"/>
  <path d="M 235 16 L 235 29 L 247 28 L 247 16 Z" fill="#f4f4f4" fill-rule="evenodd"/>
  <path d="M 496 402 L 495 414 L 508 414 L 508 402 Z" fill="#fefefe" fill-rule="evenodd"/>
  <path d="M 430 195 L 430 197 L 427 199 L 427 208 L 439 208 L 439 196 Z" fill="#fefefe" fill-rule="evenodd"/>
  <path d="M 413 168 L 413 180 L 426 180 L 425 168 Z" fill="#f4f4f4" fill-rule="evenodd"/>
  <path d="M 482 485 L 482 497 L 494 497 L 494 485 Z" fill="#f4f4f4" fill-rule="evenodd"/>
  <path d="M 427 485 L 427 497 L 439 497 L 439 485 Z" fill="#f4f4f4" fill-rule="evenodd"/>
  <path d="M 372 485 L 372 497 L 384 497 L 384 485 Z" fill="#f4f4f4" fill-rule="evenodd"/>
  <path d="M 235 485 L 235 497 L 247 497 L 247 485 Z" fill="#f4f4f4" fill-rule="evenodd"/>
  <path d="M 180 485 L 180 497 L 192 497 L 192 485 Z" fill="#f4f4f4" fill-rule="evenodd"/>
  <path d="M 468 471 L 468 483 L 480 483 L 480 471 Z" fill="#f4f4f4" fill-rule="evenodd"/>
  <path d="M 441 471 L 441 483 L 453 483 L 453 471 Z" fill="#f4f4f4" fill-rule="evenodd"/>
  <path d="M 413 471 L 413 483 L 425 483 L 425 471 Z" fill="#f4f4f4" fill-rule="evenodd"/>
  <path d="M 386 471 L 386 483 L 398 483 L 398 471 Z" fill="#f4f4f4" fill-rule="evenodd"/>
  <path d="M 358 471 L 358 483 L 370 483 L 370 471 Z" fill="#f4f4f4" fill-rule="evenodd"/>
  <path d="M 331 471 L 331 483 L 343 483 L 343 471 Z" fill="#f4f4f4" fill-rule="evenodd"/>
  <path d="M 276 471 L 276 483 L 288 483 L 288 471 Z" fill="#f4f4f4" fill-rule="evenodd"/>
  <path d="M 249 471 L 249 483 L 261 483 L 261 471 Z" fill="#f4f4f4" fill-rule="evenodd"/>
  <path d="M 194 471 L 194 483 L 206 483 L 206 471 Z" fill="#f4f4f4" fill-rule="evenodd"/>
  <path d="M 112 471 L 112 483 L 124 483 L 124 471 Z" fill="#f4f4f4" fill-rule="evenodd"/>
  <path d="M 57 471 L 57 483 L 69 483 L 69 471 Z" fill="#f4f4f4" fill-rule="evenodd"/>
  <path d="M 427 457 L 427 469 L 439 469 L 439 457 Z" fill="#f4f4f4" fill-rule="evenodd"/>
  <path d="M 372 457 L 372 469 L 384 469 L 384 457 Z" fill="#f4f4f4" fill-rule="evenodd"/>
  <path d="M 235 457 L 235 469 L 247 469 L 247 457 Z" fill="#f4f4f4" fill-rule="evenodd"/>
  <path d="M 427 430 L 427 442 L 439 442 L 439 430 Z" fill="#f4f4f4" fill-rule="evenodd"/>
  <path d="M 372 430 L 372 442 L 384 442 L 384 430 Z" fill="#f4f4f4" fill-rule="evenodd"/>
  <path d="M 153 430 L 153 442 L 165 442 L 165 430 Z" fill="#f4f4f4" fill-rule="evenodd"/>
  <path d="M 468 416 L 468 428 L 480 428 L 480 416 Z" fill="#f4f4f4" fill-rule="evenodd"/>
  <path d="M 413 416 L 413 428 L 425 428 L 425 416 Z" fill="#f4f4f4" fill-rule="evenodd"/>
  <path d="M 386 416 L 386 428 L 398 428 L 398 416 Z" fill="#f4f4f4" fill-rule="evenodd"/>
  <path d="M 358 416 L 358 428 L 370 428 L 370 416 Z" fill="#f4f4f4" fill-rule="evenodd"/>
  <path d="M 331 416 L 331 428 L 343 428 L 343 416 Z" fill="#f4f4f4" fill-rule="evenodd"/>
  <path d="M 276 416 L 276 428 L 288 428 L 288 416 Z" fill="#f4f4f4" fill-rule="evenodd"/>
  <path d="M 249 416 L 249 428 L 261 428 L 261 416 Z" fill="#f4f4f4" fill-rule="evenodd"/>
  <path d="M 194 416 L 194 428 L 206 428 L 206 416 Z" fill="#f4f4f4" fill-rule="evenodd"/>
  <path d="M 167 416 L 167 428 L 179 428 L 179 416 Z" fill="#f4f4f4" fill-rule="evenodd"/>
  <path d="M 112 416 L 112 428 L 124 428 L 124 416 Z" fill="#f4f4f4" fill-rule="evenodd"/>
  <path d="M 57 416 L 57 428 L 69 428 L 69 416 Z" fill="#f4f4f4" fill-rule="evenodd"/>
  <path d="M 372 402 L 372 414 L 384 414 L 384 402 Z" fill="#f4f4f4" fill-rule="evenodd"/>
  <path d="M 317 402 L 317 414 L 329 414 L 329 402 Z" fill="#f4f4f4" fill-rule="evenodd"/>
  <path d="M 235 402 L 235 414 L 247 414 L 247 402 Z" fill="#f4f4f4" fill-rule="evenodd"/>
  <path d="M 153 402 L 153 414 L 165 414 L 165 402 Z" fill="#f4f4f4" fill-rule="evenodd"/>
  <path d="M 98 402 L 98 414 L 110 414 L 110 402 Z" fill="#f4f4f4" fill-rule="evenodd"/>
  <path d="M 331 361 L 331 373 L 343 373 L 343 361 Z" fill="#f4f4f4" fill-rule="evenodd"/>
  <path d="M 112 361 L 112 373 L 124 373 L 124 361 Z" fill="#f4f4f4" fill-rule="evenodd"/>
  <path d="M 57 361 L 57 373 L 69 373 L 69 361 Z" fill="#f4f4f4" fill-rule="evenodd"/>
  <path d="M 482 347 L 482 359 L 494 359 L 494 347 Z" fill="#f4f4f4" fill-rule="evenodd"/>
  <path d="M 427 347 L 427 359 L 439 359 L 439 347 Z" fill="#f4f4f4" fill-rule="evenodd"/>
  <path d="M 372 347 L 372 359 L 384 359 L 384 347 Z" fill="#f4f4f4" fill-rule="evenodd"/>
  <path d="M 290 347 L 290 359 L 302 359 L 302 347 Z" fill="#f4f4f4" fill-rule="evenodd"/>
  <path d="M 235 347 L 235 359 L 247 359 L 247 347 Z" fill="#f4f4f4" fill-rule="evenodd"/>
  <path d="M 98 347 L 98 359 L 110 359 L 110 347 Z" fill="#f4f4f4" fill-rule="evenodd"/>
  <path d="M 71 347 L 71 359 L 83 359 L 83 347 Z" fill="#f4f4f4" fill-rule="evenodd"/>
  <path d="M 43 347 L 43 359 L 55 359 L 55 347 Z" fill="#f4f4f4" fill-rule="evenodd"/>
  <path d="M 16 347 L 16 359 L 28 359 L 28 347 Z" fill="#f4f4f4" fill-rule="evenodd"/>
  <path d="M 468 333 L 468 345 L 480 345 L 480 333 Z" fill="#f4f4f4" fill-rule="evenodd"/>
  <path d="M 358 333 L 358 345 L 370 345 L 370 333 Z" fill="#f4f4f4" fill-rule="evenodd"/>
  <path d="M 57 333 L 57 345 L 69 345 L 69 333 Z" fill="#f4f4f4" fill-rule="evenodd"/>
  <path d="M 482 292 L 482 304 L 494 304 L 494 292 Z" fill="#f4f4f4" fill-rule="evenodd"/>
  <path d="M 372 292 L 372 304 L 384 304 L 384 292 Z" fill="#f4f4f4" fill-rule="evenodd"/>
  <path d="M 126 292 L 126 304 L 138 304 L 138 292 Z" fill="#f4f4f4" fill-rule="evenodd"/>
  <path d="M 98 292 L 98 304 L 110 304 L 110 292 Z" fill="#f4f4f4" fill-rule="evenodd"/>
  <path d="M 43 292 L 43 304 L 55 304 L 55 292 Z" fill="#f4f4f4" fill-rule="evenodd"/>
  <path d="M 16 292 L 16 304 L 28 304 L 28 292 Z" fill="#f4f4f4" fill-rule="evenodd"/>
  <path d="M 468 278 L 468 290 L 480 290 L 480 278 Z" fill="#f4f4f4" fill-rule="evenodd"/>
  <path d="M 57 278 L 57 290 L 69 290 L 69 278 Z" fill="#f4f4f4" fill-rule="evenodd"/>
  <path d="M 468 223 L 468 235 L 480 235 L 480 223 Z" fill="#f4f4f4" fill-rule="evenodd"/>
  <path d="M 57 223 L 57 235 L 69 235 L 69 223 Z" fill="#f4f4f4" fill-rule="evenodd"/>
  <path d="M 427 209 L 427 221 L 439 221 L 439 209 Z" fill="#f4f4f4" fill-rule="evenodd"/>
  <path d="M 441 168 L 441 180 L 453 180 L 453 168 Z" fill="#f4f4f4" fill-rule="evenodd"/>
  <path d="M 386 168 L 386 180 L 398 180 L 398 168 Z" fill="#f4f4f4" fill-rule="evenodd"/>
  <path d="M 194 168 L 194 180 L 206 180 L 206 168 Z" fill="#f4f4f4" fill-rule="evenodd"/>
  <path d="M 167 168 L 167 180 L 179 180 L 179 168 Z" fill="#f4f4f4" fill-rule="evenodd"/>
  <path d="M 112 168 L 112 180 L 124 180 L 124 168 Z" fill="#f4f4f4" fill-rule="evenodd"/>
  <path d="M 57 168 L 57 180 L 69 180 L 69 168 Z" fill="#f4f4f4" fill-rule="evenodd"/>
  <path d="M 482 154 L 482 166 L 494 166 L 494 154 Z" fill="#f4f4f4" fill-rule="evenodd"/>
  <path d="M 427 154 L 427 166 L 439 166 L 439 154 Z" fill="#f4f4f4" fill-rule="evenodd"/>
  <path d="M 372 154 L 372 166 L 384 166 L 384 154 Z" fill="#f4f4f4" fill-rule="evenodd"/>
  <path d="M 235 154 L 235 166 L 247 166 L 247 154 Z" fill="#f4f4f4" fill-rule="evenodd"/>
  <path d="M 153 154 L 153 166 L 165 166 L 165 154 Z" fill="#f4f4f4" fill-rule="evenodd"/>
  <path d="M 126 154 L 126 166 L 138 166 L 138 154 Z" fill="#f4f4f4" fill-rule="evenodd"/>
  <path d="M 98 154 L 98 166 L 110 166 L 110 154 Z" fill="#f4f4f4" fill-rule="evenodd"/>
  <path d="M 43 154 L 43 166 L 55 166 L 55 154 Z" fill="#f4f4f4" fill-rule="evenodd"/>
  <path d="M 16 154 L 16 166 L 28 166 L 28 154 Z" fill="#f4f4f4" fill-rule="evenodd"/>
  <path d="M 194 140 L 194 152 L 206 152 L 206 140 Z" fill="#f4f4f4" fill-rule="evenodd"/>
  <path d="M 331 113 L 331 125 L 343 125 L 343 113 Z" fill="#f4f4f4" fill-rule="evenodd"/>
  <path d="M 57 113 L 57 125 L 69 125 L 69 113 Z" fill="#f4f4f4" fill-rule="evenodd"/>
  <path d="M 482 99 L 482 111 L 494 111 L 494 99 Z" fill="#f4f4f4" fill-rule="evenodd"/>
  <path d="M 454 99 L 454 111 L 466 111 L 466 99 Z" fill="#f4f4f4" fill-rule="evenodd"/>
  <path d="M 427 99 L 427 111 L 439 111 L 439 99 Z" fill="#f4f4f4" fill-rule="evenodd"/>
  <path d="M 372 99 L 372 111 L 384 111 L 384 99 Z" fill="#f4f4f4" fill-rule="evenodd"/>
  <path d="M 317 99 L 317 111 L 329 111 L 329 99 Z" fill="#f4f4f4" fill-rule="evenodd"/>
  <path d="M 290 99 L 290 111 L 302 111 L 302 99 Z" fill="#f4f4f4" fill-rule="evenodd"/>
  <path d="M 235 99 L 235 111 L 247 111 L 247 99 Z" fill="#f4f4f4" fill-rule="evenodd"/>
  <path d="M 208 99 L 208 111 L 220 111 L 220 99 Z" fill="#f4f4f4" fill-rule="evenodd"/>
  <path d="M 180 99 L 180 111 L 192 111 L 192 99 Z" fill="#f4f4f4" fill-rule="evenodd"/>
  <path d="M 153 99 L 153 111 L 165 111 L 165 99 Z" fill="#f4f4f4" fill-rule="evenodd"/>
  <path d="M 126 99 L 126 111 L 138 111 L 138 99 Z" fill="#f4f4f4" fill-rule="evenodd"/>
  <path d="M 98 99 L 98 111 L 110 111 L 110 99 Z" fill="#f4f4f4" fill-rule="evenodd"/>
  <path d="M 43 99 L 43 111 L 55 111 L 55 99 Z" fill="#f4f4f4" fill-rule="evenodd"/>
  <path d="M 16 99 L 16 111 L 28 111 L 28 99 Z" fill="#f4f4f4" fill-rule="evenodd"/>
  <path d="M 468 85 L 468 97 L 480 97 L 480 85 Z" fill="#f4f4f4" fill-rule="evenodd"/>
  <path d="M 331 85 L 331 97 L 343 97 L 343 85 Z" fill="#f4f4f4" fill-rule="evenodd"/>
  <path d="M 194 85 L 194 97 L 206 97 L 206 85 Z" fill="#f4f4f4" fill-rule="evenodd"/>
  <path d="M 112 85 L 112 97 L 124 97 L 124 85 Z" fill="#f4f4f4" fill-rule="evenodd"/>
  <path d="M 57 85 L 57 97 L 69 97 L 69 85 Z" fill="#f4f4f4" fill-rule="evenodd"/>
  <path d="M 482 44 L 482 56 L 494 56 L 494 44 Z" fill="#f4f4f4" fill-rule="evenodd"/>
  <path d="M 427 44 L 427 56 L 439 56 L 439 44 Z" fill="#f4f4f4" fill-rule="evenodd"/>
  <path d="M 372 44 L 372 56 L 384 56 L 384 44 Z" fill="#f4f4f4" fill-rule="evenodd"/>
  <path d="M 317 44 L 317 56 L 329 56 L 329 44 Z" fill="#f4f4f4" fill-rule="evenodd"/>
  <path d="M 235 44 L 235 56 L 247 56 L 247 44 Z" fill="#f4f4f4" fill-rule="evenodd"/>
  <path d="M 98 44 L 98 56 L 110 56 L 110 44 Z" fill="#f4f4f4" fill-rule="evenodd"/>
  <path d="M 43 44 L 43 56 L 55 56 L 55 44 Z" fill="#f4f4f4" fill-rule="evenodd"/>
  <path d="M 16 44 L 16 56 L 28 56 L 28 44 Z" fill="#f4f4f4" fill-rule="evenodd"/>
  <path d="M 468 30 L 468 42 L 480 42 L 480 30 Z" fill="#f4f4f4" fill-rule="evenodd"/>
  <path d="M 441 30 L 441 42 L 453 42 L 453 30 Z" fill="#f4f4f4" fill-rule="evenodd"/>
  <path d="M 413 30 L 413 42 L 425 42 L 425 30 Z" fill="#f4f4f4" fill-rule="evenodd"/>
  <path d="M 386 30 L 386 42 L 398 42 L 398 30 Z" fill="#f4f4f4" fill-rule="evenodd"/>
  <path d="M 331 30 L 331 42 L 343 42 L 343 30 Z" fill="#f4f4f4" fill-rule="evenodd"/>
  <path d="M 276 30 L 276 42 L 288 42 L 288 30 Z" fill="#f4f4f4" fill-rule="evenodd"/>
  <path d="M 249 30 L 249 42 L 261 42 L 261 30 Z" fill="#f4f4f4" fill-rule="evenodd"/>
  <path d="M 221 30 L 221 42 L 233 42 L 233 30 Z" fill="#f4f4f4" fill-rule="evenodd"/>
  <path d="M 194 30 L 194 42 L 206 42 L 206 30 Z" fill="#f4f4f4" fill-rule="evenodd"/>
  <path d="M 167 30 L 167 42 L 179 42 L 179 30 Z" fill="#f4f4f4" fill-rule="evenodd"/>
  <path d="M 112 30 L 112 42 L 124 42 L 124 30 Z" fill="#f4f4f4" fill-rule="evenodd"/>
  <path d="M 57 30 L 57 42 L 69 42 L 69 30 Z" fill="#f4f4f4" fill-rule="evenodd"/>
  <path d="M 482 16 L 482 28 L 494 28 L 494 16 Z" fill="#f4f4f4" fill-rule="evenodd"/>
  <path d="M 427 16 L 427 28 L 439 28 L 439 16 Z" fill="#f4f4f4" fill-rule="evenodd"/>
  <path d="M 372 16 L 372 28 L 384 28 L 384 16 Z" fill="#f4f4f4" fill-rule="evenodd"/>
  <path d="M 153 16 L 153 28 L 165 28 L 165 16 Z" fill="#f4f4f4" fill-rule="evenodd"/>
  <path d="M 468 485 L 468 497 L 480 497 L 480 485 Z" fill="#fefefe" fill-rule="evenodd"/>
  <path d="M 331 485 L 331 497 L 343 497 L 343 485 Z" fill="#fefefe" fill-rule="evenodd"/>
  <path d="M 276 485 L 276 497 L 288 497 L 288 485 Z" fill="#fefefe" fill-rule="evenodd"/>
  <path d="M 194 485 L 194 497 L 206 497 L 206 485 Z" fill="#fefefe" fill-rule="evenodd"/>
  <path d="M 139 485 L 139 497 L 151 497 L 151 485 Z" fill="#fefefe" fill-rule="evenodd"/>
  <path d="M 112 485 L 112 497 L 124 497 L 124 485 Z" fill="#fefefe" fill-rule="evenodd"/>
  <path d="M 57 485 L 57 497 L 69 497 L 69 485 Z" fill="#fefefe" fill-rule="evenodd"/>
  <path d="M 482 471 L 482 483 L 494 483 L 494 471 Z" fill="#fefefe" fill-rule="evenodd"/>
  <path d="M 454 471 L 454 483 L 466 483 L 466 471 Z" fill="#fefefe" fill-rule="evenodd"/>
  <path d="M 427 471 L 427 483 L 439 483 L 439 471 Z" fill="#fefefe" fill-rule="evenodd"/>
  <path d="M 372 471 L 372 483 L 384 483 L 384 471 Z" fill="#fefefe" fill-rule="evenodd"/>
  <path d="M 317 471 L 317 483 L 329 483 L 329 471 Z" fill="#fefefe" fill-rule="evenodd"/>
  <path d="M 290 471 L 290 483 L 302 483 L 302 471 Z" fill="#fefefe" fill-rule="evenodd"/>
  <path d="M 235 471 L 235 483 L 247 483 L 247 471 Z" fill="#fefefe" fill-rule="evenodd"/>
  <path d="M 208 471 L 208 483 L 220 483 L 220 471 Z" fill="#fefefe" fill-rule="evenodd"/>
  <path d="M 180 471 L 180 483 L 192 483 L 192 471 Z" fill="#fefefe" fill-rule="evenodd"/>
  <path d="M 153 471 L 153 483 L 165 483 L 165 471 Z" fill="#fefefe" fill-rule="evenodd"/>
  <path d="M 126 471 L 126 483 L 138 483 L 138 471 Z" fill="#fefefe" fill-rule="evenodd"/>
  <path d="M 98 471 L 98 483 L 110 483 L 110 471 Z" fill="#fefefe" fill-rule="evenodd"/>
  <path d="M 71 471 L 71 483 L 83 483 L 83 471 Z" fill="#fefefe" fill-rule="evenodd"/>
  <path d="M 43 471 L 43 483 L 55 483 L 55 471 Z" fill="#fefefe" fill-rule="evenodd"/>
  <path d="M 16 471 L 16 483 L 28 483 L 28 471 Z" fill="#fefefe" fill-rule="evenodd"/>
  <path d="M 468 457 L 468 469 L 480 469 L 480 457 Z" fill="#fefefe" fill-rule="evenodd"/>
  <path d="M 276 457 L 276 469 L 288 469 L 288 457 Z" fill="#fefefe" fill-rule="evenodd"/>
  <path d="M 249 457 L 249 469 L 261 469 L 261 457 Z" fill="#fefefe" fill-rule="evenodd"/>
  <path d="M 194 457 L 194 469 L 206 469 L 206 457 Z" fill="#fefefe" fill-rule="evenodd"/>
  <path d="M 112 457 L 112 469 L 124 469 L 124 457 Z" fill="#fefefe" fill-rule="evenodd"/>
  <path d="M 57 457 L 57 469 L 69 469 L 69 457 Z" fill="#fefefe" fill-rule="evenodd"/>
  <path d="M 468 430 L 468 442 L 480 442 L 480 430 Z" fill="#fefefe" fill-rule="evenodd"/>
  <path d="M 331 430 L 331 442 L 343 442 L 343 430 Z" fill="#fefefe" fill-rule="evenodd"/>
  <path d="M 112 430 L 112 442 L 124 442 L 124 430 Z" fill="#fefefe" fill-rule="evenodd"/>
  <path d="M 57 430 L 57 442 L 69 442 L 69 430 Z" fill="#fefefe" fill-rule="evenodd"/>
  <path d="M 482 416 L 482 428 L 494 428 L 494 416 Z" fill="#fefefe" fill-rule="evenodd"/>
  <path d="M 427 416 L 427 428 L 439 428 L 439 416 Z" fill="#fefefe" fill-rule="evenodd"/>
  <path d="M 372 416 L 372 428 L 384 428 L 384 416 Z" fill="#fefefe" fill-rule="evenodd"/>
  <path d="M 317 416 L 317 428 L 329 428 L 329 416 Z" fill="#fefefe" fill-rule="evenodd"/>
  <path d="M 290 416 L 290 428 L 302 428 L 302 416 Z" fill="#fefefe" fill-rule="evenodd"/>
  <path d="M 235 416 L 235 428 L 247 428 L 247 416 Z" fill="#fefefe" fill-rule="evenodd"/>
  <path d="M 208 416 L 208 428 L 220 428 L 220 416 Z" fill="#fefefe" fill-rule="evenodd"/>
  <path d="M 180 416 L 180 428 L 192 428 L 192 416 Z" fill="#fefefe" fill-rule="evenodd"/>
  <path d="M 153 416 L 153 428 L 165 428 L 165 416 Z" fill="#fefefe" fill-rule="evenodd"/>
  <path d="M 126 416 L 126 428 L 138 428 L 138 416 Z" fill="#fefefe" fill-rule="evenodd"/>
  <path d="M 98 416 L 98 428 L 110 428 L 110 416 Z" fill="#fefefe" fill-rule="evenodd"/>
  <path d="M 71 416 L 71 428 L 83 428 L 83 416 Z" fill="#fefefe" fill-rule="evenodd"/>
  <path d="M 43 416 L 43 428 L 55 428 L 55 416 Z" fill="#fefefe" fill-rule="evenodd"/>
  <path d="M 16 416 L 16 428 L 28 428 L 28 416 Z" fill="#fefefe" fill-rule="evenodd"/>
  <path d="M 468 402 L 468 414 L 480 414 L 480 402 Z" fill="#fefefe" fill-rule="evenodd"/>
  <path d="M 441 402 L 441 414 L 453 414 L 453 402 Z" fill="#fefefe" fill-rule="evenodd"/>
  <path d="M 413 402 L 413 414 L 425 414 L 425 402 Z" fill="#fefefe" fill-rule="evenodd"/>
  <path d="M 386 402 L 386 414 L 398 414 L 398 402 Z" fill="#fefefe" fill-rule="evenodd"/>
  <path d="M 358 402 L 358 414 L 370 414 L 370 402 Z" fill="#fefefe" fill-rule="evenodd"/>
  <path d="M 331 402 L 331 414 L 343 414 L 343 402 Z" fill="#fefefe" fill-rule="evenodd"/>
  <path d="M 276 402 L 276 414 L 288 414 L 288 402 Z" fill="#fefefe" fill-rule="evenodd"/>
  <path d="M 249 402 L 249 414 L 261 414 L 261 402 Z" fill="#fefefe" fill-rule="evenodd"/>
  <path d="M 221 402 L 221 414 L 233 414 L 233 402 Z" fill="#fefefe" fill-rule="evenodd"/>
  <path d="M 194 402 L 194 414 L 206 414 L 206 402 Z" fill="#fefefe" fill-rule="evenodd"/>
  <path d="M 167 402 L 167 414 L 179 414 L 179 402 Z" fill="#fefefe" fill-rule="evenodd"/>
  <path d="M 139 402 L 139 414 L 151 414 L 151 402 Z" fill="#fefefe" fill-rule="evenodd"/>
  <path d="M 112 402 L 112 414 L 124 414 L 124 402 Z" fill="#fefefe" fill-rule="evenodd"/>
  <path d="M 57 402 L 57 414 L 69 414 L 69 402 Z" fill="#fefefe" fill-rule="evenodd"/>
  <path d="M 482 388 L 482 400 L 494 400 L 494 388 Z" fill="#fefefe" fill-rule="evenodd"/>
  <path d="M 427 388 L 427 400 L 439 400 L 439 388 Z" fill="#fefefe" fill-rule="evenodd"/>
  <path d="M 317 388 L 317 400 L 329 400 L 329 388 Z" fill="#fefefe" fill-rule="evenodd"/>
  <path d="M 235 388 L 235 400 L 247 400 L 247 388 Z" fill="#fefefe" fill-rule="evenodd"/>
  <path d="M 153 388 L 153 400 L 165 400 L 165 388 Z" fill="#fefefe" fill-rule="evenodd"/>
  <path d="M 482 361 L 482 373 L 494 373 L 494 361 Z" fill="#fefefe" fill-rule="evenodd"/>
  <path d="M 427 361 L 427 373 L 439 373 L 439 361 Z" fill="#fefefe" fill-rule="evenodd"/>
  <path d="M 372 361 L 372 373 L 384 373 L 384 361 Z" fill="#fefefe" fill-rule="evenodd"/>
  <path d="M 235 361 L 235 373 L 247 373 L 247 361 Z" fill="#fefefe" fill-rule="evenodd"/>
  <path d="M 496 347 L 496 359 L 508 359 L 508 347 Z" fill="#fefefe" fill-rule="evenodd"/>
  <path d="M 468 347 L 468 359 L 480 359 L 480 347 Z" fill="#fefefe" fill-rule="evenodd"/>
  <path d="M 441 347 L 441 359 L 453 359 L 453 347 Z" fill="#fefefe" fill-rule="evenodd"/>
  <path d="M 413 347 L 413 359 L 425 359 L 425 347 Z" fill="#fefefe" fill-rule="evenodd"/>
  <path d="M 386 347 L 386 359 L 398 359 L 398 347 Z" fill="#fefefe" fill-rule="evenodd"/>
  <path d="M 358 347 L 358 359 L 370 359 L 370 347 Z" fill="#fefefe" fill-rule="evenodd"/>
  <path d="M 276 347 L 276 359 L 288 359 L 288 347 Z" fill="#fefefe" fill-rule="evenodd"/>
  <path d="M 249 347 L 249 359 L 261 359 L 261 347 Z" fill="#fefefe" fill-rule="evenodd"/>
  <path d="M 221 347 L 221 359 L 233 359 L 233 347 Z" fill="#fefefe" fill-rule="evenodd"/>
  <path d="M 112 347 L 112 359 L 124 359 L 124 347 Z" fill="#fefefe" fill-rule="evenodd"/>
  <path d="M 57 347 L 57 359 L 69 359 L 69 347 Z" fill="#fefefe" fill-rule="evenodd"/>
  <path d="M 482 333 L 482 345 L 494 345 L 494 333 Z" fill="#fefefe" fill-rule="evenodd"/>
  <path d="M 427 333 L 427 345 L 439 345 L 439 333 Z" fill="#fefefe" fill-rule="evenodd"/>
  <path d="M 372 333 L 372 345 L 384 345 L 384 333 Z" fill="#fefefe" fill-rule="evenodd"/>
  <path d="M 290 333 L 290 345 L 302 345 L 302 333 Z" fill="#fefefe" fill-rule="evenodd"/>
  <path d="M 235 333 L 235 345 L 247 345 L 247 333 Z" fill="#fefefe" fill-rule="evenodd"/>
  <path d="M 71 333 L 71 345 L 83 345 L 83 333 Z" fill="#fefefe" fill-rule="evenodd"/>
  <path d="M 16 333 L 16 345 L 28 345 L 28 333 Z" fill="#fefefe" fill-rule="evenodd"/>
  <path d="M 468 292 L 468 304 L 480 304 L 480 292 Z" fill="#fefefe" fill-rule="evenodd"/>
  <path d="M 112 292 L 112 304 L 124 304 L 124 292 Z" fill="#fefefe" fill-rule="evenodd"/>
  <path d="M 57 292 L 57 304 L 69 304 L 69 292 Z" fill="#fefefe" fill-rule="evenodd"/>
  <path d="M 482 278 L 482 290 L 494 290 L 494 278 Z" fill="#fefefe" fill-rule="evenodd"/>
  <path d="M 372 278 L 372 290 L 384 290 L 384 278 Z" fill="#fefefe" fill-rule="evenodd"/>
  <path d="M 71 278 L 71 290 L 83 290 L 83 278 Z" fill="#fefefe" fill-rule="evenodd"/>
  <path d="M 43 278 L 43 290 L 55 290 L 55 278 Z" fill="#fefefe" fill-rule="evenodd"/>
  <path d="M 16 278 L 16 290 L 28 290 L 28 278 Z" fill="#fefefe" fill-rule="evenodd"/>
  <path d="M 468 264 L 468 276 L 480 276 L 480 264 Z" fill="#fefefe" fill-rule="evenodd"/>
  <path d="M 468 237 L 468 249 L 480 249 L 480 237 Z" fill="#fefefe" fill-rule="evenodd"/>
  <path d="M 57 237 L 57 249 L 69 249 L 69 237 Z" fill="#fefefe" fill-rule="evenodd"/>
  <path d="M 482 223 L 482 235 L 494 235 L 494 223 Z" fill="#fefefe" fill-rule="evenodd"/>
  <path d="M 71 223 L 71 235 L 83 235 L 83 223 Z" fill="#fefefe" fill-rule="evenodd"/>
  <path d="M 43 223 L 43 235 L 55 235 L 55 223 Z" fill="#fefefe" fill-rule="evenodd"/>
  <path d="M 16 223 L 16 235 L 28 235 L 28 223 Z" fill="#fefefe" fill-rule="evenodd"/>
  <path d="M 468 209 L 468 221 L 480 221 L 480 209 Z" fill="#fefefe" fill-rule="evenodd"/>
  <path d="M 413 209 L 413 221 L 425 221 L 425 209 Z" fill="#fefefe" fill-rule="evenodd"/>
  <path d="M 57 209 L 57 221 L 69 221 L 69 209 Z" fill="#fefefe" fill-rule="evenodd"/>
  <path d="M 372 196 L 372 205 L 377 208 L 384 208 L 384 195 Z" fill="#fefefe" fill-rule="evenodd"/>
  <path d="M 468 182 L 468 194 L 480 194 L 480 182 Z" fill="#fefefe" fill-rule="evenodd"/>
  <path d="M 112 182 L 112 194 L 124 194 L 124 182 Z" fill="#fefefe" fill-rule="evenodd"/>
  <path d="M 57 182 L 57 194 L 69 194 L 69 182 Z" fill="#fefefe" fill-rule="evenodd"/>
  <path d="M 482 168 L 482 180 L 494 180 L 494 168 Z" fill="#fefefe" fill-rule="evenodd"/>
  <path d="M 372 168 L 372 180 L 384 180 L 384 168 Z" fill="#fefefe" fill-rule="evenodd"/>
  <path d="M 208 168 L 208 180 L 220 180 L 220 168 Z" fill="#fefefe" fill-rule="evenodd"/>
  <path d="M 180 168 L 180 180 L 192 180 L 192 168 Z" fill="#fefefe" fill-rule="evenodd"/>
  <path d="M 153 168 L 153 180 L 165 180 L 165 168 Z" fill="#fefefe" fill-rule="evenodd"/>
  <path d="M 126 168 L 126 180 L 138 180 L 138 168 Z" fill="#fefefe" fill-rule="evenodd"/>
  <path d="M 98 168 L 98 180 L 110 180 L 110 168 Z" fill="#fefefe" fill-rule="evenodd"/>
  <path d="M 71 168 L 71 180 L 83 180 L 83 168 Z" fill="#fefefe" fill-rule="evenodd"/>
  <path d="M 43 168 L 43 180 L 55 180 L 55 168 Z" fill="#fefefe" fill-rule="evenodd"/>
  <path d="M 16 168 L 16 180 L 28 180 L 28 168 Z" fill="#fefefe" fill-rule="evenodd"/>
  <path d="M 468 154 L 468 166 L 480 166 L 480 154 Z" fill="#fefefe" fill-rule="evenodd"/>
  <path d="M 441 154 L 441 166 L 453 166 L 453 154 Z" fill="#fefefe" fill-rule="evenodd"/>
  <path d="M 413 154 L 413 166 L 425 166 L 425 154 Z" fill="#fefefe" fill-rule="evenodd"/>
  <path d="M 386 154 L 386 166 L 398 166 L 398 154 Z" fill="#fefefe" fill-rule="evenodd"/>
  <path d="M 358 154 L 358 166 L 370 166 L 370 154 Z" fill="#fefefe" fill-rule="evenodd"/>
  <path d="M 249 154 L 249 166 L 261 166 L 261 154 Z" fill="#fefefe" fill-rule="evenodd"/>
  <path d="M 221 154 L 221 166 L 233 166 L 233 154 Z" fill="#fefefe" fill-rule="evenodd"/>
  <path d="M 194 154 L 194 166 L 206 166 L 206 154 Z" fill="#fefefe" fill-rule="evenodd"/>
  <path d="M 167 154 L 167 166 L 179 166 L 179 154 Z" fill="#fefefe" fill-rule="evenodd"/>
  <path d="M 139 154 L 139 166 L 151 166 L 151 154 Z" fill="#fefefe" fill-rule="evenodd"/>
  <path d="M 112 154 L 112 166 L 124 166 L 124 154 Z" fill="#fefefe" fill-rule="evenodd"/>
  <path d="M 57 154 L 57 166 L 69 166 L 69 154 Z" fill="#fefefe" fill-rule="evenodd"/>
  <path d="M 482 140 L 482 152 L 494 152 L 494 140 Z" fill="#fefefe" fill-rule="evenodd"/>
  <path d="M 427 140 L 427 152 L 439 152 L 439 140 Z" fill="#fefefe" fill-rule="evenodd"/>
  <path d="M 372 140 L 372 152 L 384 152 L 384 140 Z" fill="#fefefe" fill-rule="evenodd"/>
  <path d="M 235 140 L 235 152 L 247 152 L 247 140 Z" fill="#fefefe" fill-rule="evenodd"/>
  <path d="M 153 140 L 153 152 L 165 152 L 165 140 Z" fill="#fefefe" fill-rule="evenodd"/>
  <path d="M 482 113 L 482 125 L 494 125 L 494 113 Z" fill="#fefefe" fill-rule="evenodd"/>
  <path d="M 427 113 L 427 125 L 439 125 L 439 113 Z" fill="#fefefe" fill-rule="evenodd"/>
  <path d="M 372 113 L 372 125 L 384 125 L 384 113 Z" fill="#fefefe" fill-rule="evenodd"/>
  <path d="M 235 113 L 235 125 L 247 125 L 247 113 Z" fill="#fefefe" fill-rule="evenodd"/>
  <path d="M 153 113 L 153 125 L 165 125 L 165 113 Z" fill="#fefefe" fill-rule="evenodd"/>
  <path d="M 126 113 L 126 125 L 138 125 L 138 113 Z" fill="#fefefe" fill-rule="evenodd"/>
  <path d="M 16 113 L 16 125 L 28 125 L 28 113 Z" fill="#fefefe" fill-rule="evenodd"/>
  <path d="M 496 99 L 496 111 L 508 111 L 508 99 Z" fill="#fefefe" fill-rule="evenodd"/>
  <path d="M 468 99 L 468 111 L 480 111 L 480 99 Z" fill="#fefefe" fill-rule="evenodd"/>
  <path d="M 413 99 L 413 111 L 425 111 L 425 99 Z" fill="#fefefe" fill-rule="evenodd"/>
  <path d="M 386 99 L 386 111 L 398 111 L 398 99 Z" fill="#fefefe" fill-rule="evenodd"/>
  <path d="M 358 99 L 358 111 L 370 111 L 370 99 Z" fill="#fefefe" fill-rule="evenodd"/>
  <path d="M 331 99 L 331 111 L 343 111 L 343 99 Z" fill="#fefefe" fill-rule="evenodd"/>
  <path d="M 276 99 L 276 111 L 288 111 L 288 99 Z" fill="#fefefe" fill-rule="evenodd"/>
  <path d="M 249 99 L 249 111 L 261 111 L 261 99 Z" fill="#fefefe" fill-rule="evenodd"/>
  <path d="M 221 99 L 221 111 L 233 111 L 233 99 Z" fill="#fefefe" fill-rule="evenodd"/>
  <path d="M 194 99 L 194 111 L 206 111 L 206 99 Z" fill="#fefefe" fill-rule="evenodd"/>
  <path d="M 167 99 L 167 111 L 179 111 L 179 99 Z" fill="#fefefe" fill-rule="evenodd"/>
  <path d="M 139 99 L 139 111 L 151 111 L 151 99 Z" fill="#fefefe" fill-rule="evenodd"/>
  <path d="M 112 99 L 112 111 L 124 111 L 124 99 Z" fill="#fefefe" fill-rule="evenodd"/>
  <path d="M 57 99 L 57 111 L 69 111 L 69 99 Z" fill="#fefefe" fill-rule="evenodd"/>
  <path d="M 482 85 L 482 97 L 494 97 L 494 85 Z" fill="#fefefe" fill-rule="evenodd"/>
  <path d="M 427 85 L 427 97 L 439 97 L 439 85 Z" fill="#fefefe" fill-rule="evenodd"/>
  <path d="M 372 85 L 372 97 L 384 97 L 384 85 Z" fill="#fefefe" fill-rule="evenodd"/>
  <path d="M 235 85 L 235 97 L 247 97 L 247 85 Z" fill="#fefefe" fill-rule="evenodd"/>
  <path d="M 153 85 L 153 97 L 165 97 L 165 85 Z" fill="#fefefe" fill-rule="evenodd"/>
  <path d="M 126 85 L 126 97 L 138 97 L 138 85 Z" fill="#fefefe" fill-rule="evenodd"/>
  <path d="M 98 85 L 98 97 L 110 97 L 110 85 Z" fill="#fefefe" fill-rule="evenodd"/>
  <path d="M 43 85 L 43 97 L 55 97 L 55 85 Z" fill="#fefefe" fill-rule="evenodd"/>
  <path d="M 16 85 L 16 97 L 28 97 L 28 85 Z" fill="#fefefe" fill-rule="evenodd"/>
  <path d="M 482 58 L 482 70 L 494 70 L 494 58 Z" fill="#fefefe" fill-rule="evenodd"/>
  <path d="M 427 58 L 427 70 L 439 70 L 439 58 Z" fill="#fefefe" fill-rule="evenodd"/>
  <path d="M 372 58 L 372 70 L 384 70 L 384 58 Z" fill="#fefefe" fill-rule="evenodd"/>
  <path d="M 235 58 L 235 70 L 247 70 L 247 58 Z" fill="#fefefe" fill-rule="evenodd"/>
  <path d="M 153 58 L 153 70 L 165 70 L 165 58 Z" fill="#fefefe" fill-rule="evenodd"/>
  <path d="M 468 44 L 468 56 L 480 56 L 480 44 Z" fill="#fefefe" fill-rule="evenodd"/>
  <path d="M 441 44 L 441 56 L 453 56 L 453 44 Z" fill="#fefefe" fill-rule="evenodd"/>
  <path d="M 413 44 L 413 56 L 425 56 L 425 44 Z" fill="#fefefe" fill-rule="evenodd"/>
  <path d="M 386 44 L 386 56 L 398 56 L 398 44 Z" fill="#fefefe" fill-rule="evenodd"/>
  <path d="M 358 44 L 358 56 L 370 56 L 370 44 Z" fill="#fefefe" fill-rule="evenodd"/>
  <path d="M 331 44 L 331 56 L 343 56 L 343 44 Z" fill="#fefefe" fill-rule="evenodd"/>
  <path d="M 276 44 L 276 56 L 288 56 L 288 44 Z" fill="#fefefe" fill-rule="evenodd"/>
  <path d="M 249 44 L 249 56 L 261 56 L 261 44 Z" fill="#fefefe" fill-rule="evenodd"/>
  <path d="M 221 44 L 221 56 L 233 56 L 233 44 Z" fill="#fefefe" fill-rule="evenodd"/>
  <path d="M 194 44 L 194 56 L 206 56 L 206 44 Z" fill="#fefefe" fill-rule="evenodd"/>
  <path d="M 167 44 L 167 56 L 179 56 L 179 44 Z" fill="#fefefe" fill-rule="evenodd"/>
  <path d="M 139 44 L 139 56 L 151 56 L 151 44 Z" fill="#fefefe" fill-rule="evenodd"/>
  <path d="M 112 44 L 112 56 L 124 56 L 124 44 Z" fill="#fefefe" fill-rule="evenodd"/>
  <path d="M 57 44 L 57 56 L 69 56 L 69 44 Z" fill="#fefefe" fill-rule="evenodd"/>
  <path d="M 482 30 L 482 42 L 494 42 L 494 30 Z" fill="#fefefe" fill-rule="evenodd"/>
  <path d="M 454 30 L 454 42 L 466 42 L 466 30 Z" fill="#fefefe" fill-rule="evenodd"/>
  <path d="M 427 30 L 427 42 L 439 42 L 439 30 Z" fill="#fefefe" fill-rule="evenodd"/>
  <path d="M 372 30 L 372 42 L 384 42 L 384 30 Z" fill="#fefefe" fill-rule="evenodd"/>
  <path d="M 317 30 L 317 42 L 329 42 L 329 30 Z" fill="#fefefe" fill-rule="evenodd"/>
  <path d="M 290 30 L 290 42 L 302 42 L 302 30 Z" fill="#fefefe" fill-rule="evenodd"/>
  <path d="M 235 30 L 235 42 L 247 42 L 247 30 Z" fill="#fefefe" fill-rule="evenodd"/>
  <path d="M 208 30 L 208 42 L 220 42 L 220 30 Z" fill="#fefefe" fill-rule="evenodd"/>
  <path d="M 180 30 L 180 42 L 192 42 L 192 30 Z" fill="#fefefe" fill-rule="evenodd"/>
  <path d="M 153 30 L 153 42 L 165 42 L 165 30 Z" fill="#fefefe" fill-rule="evenodd"/>
  <path d="M 126 30 L 126 42 L 138 42 L 138 30 Z" fill="#fefefe" fill-rule="evenodd"/>
  <path d="M 98 30 L 98 42 L 110 42 L 110 30 Z" fill="#fefefe" fill-rule="evenodd"/>
  <path d="M 71 30 L 71 42 L 83 42 L 83 30 Z" fill="#fefefe" fill-rule="evenodd"/>
  <path d="M 43 30 L 43 42 L 55 42 L 55 30 Z" fill="#fefefe" fill-rule="evenodd"/>
  <path d="M 16 30 L 16 42 L 28 42 L 28 30 Z" fill="#fefefe" fill-rule="evenodd"/>
  <path d="M 468 16 L 468 28 L 480 28 L 480 16 Z" fill="#fefefe" fill-rule="evenodd"/>
  <path d="M 194 16 L 194 28 L 206 28 L 206 16 Z" fill="#fefefe" fill-rule="evenodd"/>
  <path d="M 112 16 L 112 28 L 124 28 L 124 16 Z" fill="#fefefe" fill-rule="evenodd"/>
  <path d="M 57 16 L 57 28 L 69 28 L 69 16 Z" fill="#fefefe" fill-rule="evenodd"/>
  <path d="M 358 280 L 358 290 L 371 290 L 370 278 Z" fill="#f4f4f4" fill-rule="evenodd"/>
  <path d="M 441 223 L 440 232 L 443 235 L 453 235 L 453 223 Z" fill="#f4f4f4" fill-rule="evenodd"/>
  <path d="M 139 347 L 139 359 L 152 359 L 151 350 L 149 347 Z" fill="#fefefe" fill-rule="evenodd"/>
  <path d="M 386 209 L 386 221 L 398 221 L 398 210 Z" fill="#fefefe" fill-rule="evenodd"/>
  <path d="M 441 182 L 441 194 L 452 194 L 453 182 Z" fill="#fefefe" fill-rule="evenodd"/>
  <path d="M 427 168 L 427 178 L 429 180 L 439 180 L 439 168 Z" fill="#fefefe" fill-rule="evenodd"/>
  <path d="M 386 182 L 386 194 L 395 194 L 398 192 L 398 182 Z" fill="#fefefe" fill-rule="evenodd"/>
  <path d="M 153 361 L 153 373 L 165 373 L 165 364 L 160 361 Z" fill="#fefefe" fill-rule="evenodd"/>
  <path d="M 317 347 L 317 359 L 329 359 L 329 349 Z" fill="#f4f4f4" fill-rule="evenodd"/>
  <path d="M 138 182 L 126 182 L 126 194 L 129 194 L 138 189 Z" fill="#f4f4f4" fill-rule="evenodd"/>
  <path d="M 343 347 L 340 346 L 336 350 L 331 350 L 331 359 L 343 359 Z" fill="#fefefe" fill-rule="evenodd"/>
  <path d="M 399 223 L 399 235 L 403 235 L 405 232 L 411 231 L 412 223 Z" fill="#fefefe" fill-rule="evenodd"/>
  <path d="M 386 278 L 386 290 L 398 290 L 398 284 L 396 284 L 392 278 Z" fill="#f4f4f4" fill-rule="evenodd"/>
  <path d="M 387 223 L 390 235 L 398 235 L 398 223 Z" fill="#f4f4f4" fill-rule="evenodd"/>
  <path d="M 139 333 L 139 345 L 149 345 L 148 333 Z" fill="#f4f4f4" fill-rule="evenodd"/>
  <path d="M 439 292 L 434 292 L 434 294 L 430 298 L 427 298 L 427 304 L 439 304 Z" fill="#f4f4f4" fill-rule="evenodd"/>
  <path d="M 235 168 L 235 178 L 238 179 L 239 177 L 244 177 L 247 174 L 247 168 Z" fill="#fefefe" fill-rule="evenodd"/>
</svg>
