<svg xmlns="http://www.w3.org/2000/svg" width="512" height="512" viewBox="0 0 512 512" fill="none">
  <path d="M 247 94 L 233 104 L 228 126 L 193 145 L 167 178 L 156 218 L 155 287 L 129 326 L 130 348 L 148 362 L 367 361 L 380 351 L 384 330 L 358 291 L 356 225 L 326 221 L 300 201 L 287 169 L 296 131 L 283 125 L 282 110 L 274 99 Z" fill="#cc985a" fill-rule="evenodd"/>
  <path d="M 342 103 L 317 112 L 303 124 L 291 146 L 289 173 L 298 196 L 314 213 L 333 222 L 356 224 L 382 215 L 397 202 L 408 182 L 410 153 L 401 130 L 387 115 L 367 105 Z M 383 143 L 383 150 L 341 191 L 334 190 L 314 169 L 314 165 L 319 159 L 326 159 L 339 171 L 371 139 L 377 138 Z" fill="#921829" fill-rule="evenodd"/>
  <path d="M 218 380 L 220 392 L 225 400 L 236 410 L 250 415 L 267 414 L 279 408 L 289 397 L 294 385 L 294 380 Z" fill="#cc985a" fill-rule="evenodd"/>
  <path d="M 383 143 L 383 150 L 341 191 L 334 190 L 314 169 L 314 165 L 319 159 L 326 159 L 339 171 L 371 139 L 377 138 Z" fill="#921829" fill-rule="evenodd"/>
  <path d="M 105 369 L 105 383 L 118 383 L 119 397 L 132 397 L 134 383 L 147 383 L 148 368 L 163 369 L 163 383 L 149 384 L 149 397 L 162 397 L 162 384 L 176 383 L 176 369 L 163 369 L 161 364 L 149 364 L 147 369 L 134 369 L 133 384 L 119 384 L 118 369 L 132 368 L 132 355 L 119 355 L 119 368 Z" fill="#fefefe" fill-rule="evenodd"/>
  <path d="M 75 76 L 75 89 L 61 90 L 61 104 L 74 104 L 75 118 L 89 118 L 89 105 L 103 104 L 103 90 L 90 90 L 89 76 Z M 74 90 L 89 89 L 90 104 L 75 105 Z" fill="#fefefe" fill-rule="evenodd"/>
  <path d="M 192 76 L 192 89 L 178 90 L 178 104 L 191 104 L 193 113 L 192 118 L 206 118 L 206 105 L 220 104 L 220 90 L 207 90 L 206 76 Z M 191 90 L 206 89 L 207 104 L 192 105 Z" fill="#fefefe" fill-rule="evenodd"/>
  <path d="M 382 443 L 382 456 L 368 458 L 368 471 L 381 471 L 382 485 L 395 485 L 397 471 L 410 471 L 410 457 L 397 457 L 396 443 Z M 381 457 L 396 456 L 397 471 L 382 472 Z" fill="#fefefe" fill-rule="evenodd"/>
  <path d="M 32 443 L 30 457 L 17 457 L 17 471 L 30 471 L 32 485 L 45 485 L 45 472 L 59 471 L 59 457 L 46 457 L 45 443 Z M 30 457 L 45 456 L 46 471 L 31 472 Z" fill="#fefefe" fill-rule="evenodd"/>
  <path d="M 380 143 L 378 141 L 372 141 L 339 174 L 326 162 L 323 161 L 318 163 L 317 169 L 321 174 L 325 176 L 325 178 L 334 187 L 341 188 L 380 150 Z" fill="#f2f2f2" fill-rule="evenodd"/>
  <path d="M 192 32 L 192 45 L 178 46 L 178 59 L 192 61 L 192 74 L 205 74 L 207 60 L 220 60 L 220 46 L 207 46 L 205 41 L 205 32 Z M 191 46 L 206 45 L 207 60 L 192 61 Z" fill="#f2f2f2" fill-rule="evenodd"/>
  <path d="M 75 443 L 75 456 L 61 457 L 61 471 L 74 471 L 76 481 L 75 485 L 89 485 L 89 472 L 93 470 L 103 471 L 103 457 L 90 457 L 88 453 L 88 443 Z M 74 457 L 89 456 L 90 471 L 75 472 Z" fill="#f2f2f2" fill-rule="evenodd"/>
  <path d="M 368 32 L 368 45 L 382 46 L 382 60 L 368 61 L 368 74 L 381 74 L 382 60 L 396 60 L 397 74 L 410 74 L 410 61 L 396 60 L 396 46 L 410 45 L 410 32 L 397 32 L 396 46 L 382 46 L 381 32 Z" fill="#f2f2f2" fill-rule="evenodd"/>
  <path d="M 251 32 L 251 45 L 265 46 L 265 60 L 251 61 L 251 74 L 264 74 L 265 60 L 279 60 L 280 74 L 293 74 L 293 61 L 279 60 L 279 46 L 293 45 L 293 32 L 280 32 L 279 46 L 265 46 L 264 32 Z" fill="#f2f2f2" fill-rule="evenodd"/>
  <path d="M 61 443 L 61 456 L 75 457 L 75 471 L 61 472 L 61 485 L 74 485 L 75 471 L 89 471 L 90 485 L 103 485 L 103 472 L 89 471 L 89 457 L 103 456 L 103 443 L 90 443 L 89 457 L 75 457 L 74 443 Z" fill="#fefefe" fill-rule="evenodd"/>
  <path d="M 368 399 L 368 412 L 382 413 L 382 427 L 368 428 L 368 441 L 381 441 L 382 427 L 396 427 L 397 441 L 410 441 L 410 428 L 396 427 L 396 413 L 410 412 L 410 399 L 397 399 L 396 413 L 382 413 L 381 399 Z" fill="#fefefe" fill-rule="evenodd"/>
  <path d="M 61 355 L 61 368 L 75 369 L 75 383 L 61 384 L 61 397 L 74 397 L 75 383 L 89 383 L 90 397 L 103 397 L 103 384 L 89 383 L 89 369 L 103 368 L 103 355 L 90 355 L 89 369 L 75 369 L 74 355 Z" fill="#fefefe" fill-rule="evenodd"/>
  <path d="M 61 32 L 61 45 L 75 46 L 75 60 L 61 61 L 61 74 L 74 74 L 75 60 L 89 60 L 90 74 L 103 74 L 103 61 L 89 60 L 89 46 L 103 45 L 103 32 L 90 32 L 89 46 L 75 46 L 74 32 Z" fill="#fefefe" fill-rule="evenodd"/>
  <path d="M 178 443 L 178 456 L 192 457 L 192 471 L 178 472 L 178 485 L 191 485 L 192 471 L 206 471 L 207 485 L 220 485 L 220 472 L 207 472 L 205 466 L 207 456 L 220 456 L 220 443 L 207 443 L 206 457 L 192 457 L 191 443 Z" fill="#fefefe" fill-rule="evenodd"/>
  <path d="M 17 76 L 17 89 L 30 89 L 32 93 L 30 105 L 17 105 L 17 118 L 30 118 L 31 104 L 45 104 L 46 118 L 59 118 L 59 105 L 45 104 L 45 90 L 59 89 L 59 76 L 46 76 L 45 90 L 31 90 L 30 76 Z" fill="#fefefe" fill-rule="evenodd"/>
  <path d="M 61 267 L 61 280 L 75 281 L 75 295 L 61 296 L 61 309 L 74 309 L 74 296 L 81 294 L 90 296 L 90 309 L 103 309 L 103 296 L 89 295 L 89 281 L 103 280 L 103 267 L 90 267 L 89 281 L 75 281 L 74 267 Z" fill="#fefefe" fill-rule="evenodd"/>
  <path d="M 61 311 L 61 324 L 75 325 L 75 339 L 61 340 L 61 353 L 74 353 L 75 339 L 89 339 L 90 353 L 103 353 L 103 340 L 90 340 L 88 334 L 90 324 L 103 324 L 103 311 L 90 311 L 89 325 L 75 325 L 74 311 Z" fill="#f2f2f2" fill-rule="evenodd"/>
  <path d="M 75 399 L 75 412 L 61 413 L 61 427 L 74 427 L 75 412 L 89 412 L 90 427 L 76 428 L 75 430 L 75 441 L 89 441 L 89 428 L 103 427 L 103 413 L 90 413 L 89 399 Z" fill="#fefefe" fill-rule="evenodd"/>
  <path d="M 382 355 L 382 368 L 368 369 L 368 383 L 381 383 L 382 397 L 396 397 L 396 384 L 410 383 L 410 369 L 397 369 L 396 384 L 382 384 L 381 369 L 395 368 L 396 366 L 396 355 Z" fill="#fefefe" fill-rule="evenodd"/>
  <path d="M 382 32 L 382 45 L 368 46 L 368 60 L 381 60 L 382 74 L 396 74 L 396 61 L 410 60 L 410 46 L 397 46 L 396 61 L 382 61 L 381 46 L 395 45 L 396 42 L 395 32 Z" fill="#fefefe" fill-rule="evenodd"/>
  <path d="M 75 223 L 75 236 L 61 237 L 61 251 L 74 251 L 75 265 L 88 265 L 90 251 L 103 251 L 103 237 L 90 237 L 89 252 L 75 252 L 74 237 L 88 236 L 89 234 L 89 223 Z" fill="#fefefe" fill-rule="evenodd"/>
  <path d="M 76 311 L 76 324 L 90 325 L 90 339 L 75 340 L 74 325 L 61 325 L 61 339 L 74 339 L 76 353 L 89 353 L 89 340 L 103 339 L 103 325 L 90 325 L 89 311 Z" fill="#fefefe" fill-rule="evenodd"/>
  <path d="M 192 399 L 192 412 L 178 413 L 178 426 L 191 427 L 191 413 L 206 412 L 207 427 L 193 428 L 192 441 L 206 441 L 206 428 L 220 427 L 220 413 L 207 413 L 206 399 Z" fill="#fefefe" fill-rule="evenodd"/>
  <path d="M 266 443 L 265 455 L 280 457 L 280 471 L 265 472 L 263 457 L 251 457 L 251 471 L 264 471 L 266 475 L 265 485 L 279 485 L 279 472 L 293 471 L 293 457 L 280 457 L 279 443 Z" fill="#fefefe" fill-rule="evenodd"/>
  <path d="M 75 32 L 75 45 L 61 46 L 61 60 L 74 60 L 75 74 L 89 74 L 88 61 L 74 60 L 74 46 L 89 45 L 90 60 L 103 60 L 103 46 L 90 46 L 88 40 L 89 32 Z" fill="#f2f2f2" fill-rule="evenodd"/>
  <path d="M 368 76 L 368 89 L 382 90 L 382 104 L 377 105 L 377 107 L 381 107 L 382 104 L 396 104 L 397 118 L 410 118 L 410 105 L 396 104 L 396 90 L 410 89 L 410 76 L 397 76 L 396 90 L 382 90 L 381 76 Z" fill="#fefefe" fill-rule="evenodd"/>
  <path d="M 426 311 L 426 324 L 412 325 L 412 339 L 425 339 L 426 353 L 439 353 L 439 340 L 425 339 L 425 325 L 440 324 L 441 339 L 454 339 L 454 325 L 441 325 L 439 311 Z" fill="#fefefe" fill-rule="evenodd"/>
  <path d="M 32 223 L 32 234 L 30 237 L 17 237 L 17 251 L 30 250 L 31 236 L 45 236 L 46 251 L 32 252 L 31 254 L 31 265 L 45 265 L 45 252 L 59 251 L 59 237 L 46 237 L 45 223 Z" fill="#f2f2f2" fill-rule="evenodd"/>
  <path d="M 426 355 L 426 368 L 412 369 L 412 383 L 425 383 L 426 397 L 439 397 L 439 384 L 425 383 L 425 369 L 440 368 L 441 383 L 454 383 L 454 369 L 441 369 L 439 366 L 440 355 Z" fill="#f2f2f2" fill-rule="evenodd"/>
  <path d="M 75 355 L 75 368 L 70 370 L 61 369 L 61 383 L 74 383 L 75 397 L 88 397 L 88 384 L 74 383 L 74 369 L 89 368 L 90 383 L 103 383 L 103 369 L 90 369 L 88 366 L 88 355 Z" fill="#f2f2f2" fill-rule="evenodd"/>
  <path d="M 426 32 L 426 45 L 412 46 L 412 60 L 425 60 L 426 74 L 439 74 L 439 64 L 441 60 L 454 60 L 454 46 L 441 46 L 440 61 L 426 61 L 425 46 L 439 45 L 439 32 Z" fill="#f2f2f2" fill-rule="evenodd"/>
  <path d="M 75 179 L 75 192 L 61 193 L 61 207 L 74 207 L 75 221 L 88 221 L 88 208 L 74 207 L 74 193 L 89 192 L 90 206 L 93 207 L 103 206 L 103 193 L 90 193 L 88 189 L 89 179 Z" fill="#f2f2f2" fill-rule="evenodd"/>
  <path d="M 59 223 L 46 223 L 46 236 L 32 237 L 31 251 L 17 252 L 17 265 L 30 265 L 31 251 L 45 251 L 46 265 L 59 265 L 59 252 L 45 251 L 45 237 L 59 236 Z" fill="#fefefe" fill-rule="evenodd"/>
  <path d="M 370 222 L 368 225 L 368 236 L 382 237 L 382 251 L 368 252 L 368 265 L 381 265 L 382 251 L 396 251 L 397 265 L 410 265 L 410 252 L 397 252 L 395 237 L 382 237 L 381 223 Z" fill="#fefefe" fill-rule="evenodd"/>
  <path d="M 251 443 L 251 456 L 264 456 L 265 470 L 279 471 L 280 485 L 293 485 L 293 472 L 280 472 L 278 468 L 280 456 L 293 456 L 293 443 L 280 443 L 279 457 L 265 457 L 264 443 Z" fill="#f2f2f2" fill-rule="evenodd"/>
  <path d="M 103 223 L 90 223 L 89 237 L 75 237 L 74 223 L 61 223 L 61 236 L 75 237 L 75 251 L 61 252 L 61 265 L 74 265 L 74 252 L 88 251 L 89 237 L 103 236 Z" fill="#f2f2f2" fill-rule="evenodd"/>
  <path d="M 178 32 L 178 45 L 191 45 L 193 60 L 206 60 L 207 74 L 220 74 L 220 61 L 207 61 L 205 53 L 207 45 L 220 45 L 220 32 L 207 32 L 206 46 L 192 46 L 191 32 Z" fill="#fefefe" fill-rule="evenodd"/>
  <path d="M 59 443 L 46 443 L 46 456 L 32 457 L 31 471 L 17 472 L 17 485 L 30 485 L 31 471 L 45 471 L 46 485 L 59 485 L 59 472 L 45 471 L 45 457 L 59 456 Z" fill="#f2f2f2" fill-rule="evenodd"/>
  <path d="M 178 399 L 178 412 L 192 413 L 192 427 L 178 428 L 178 441 L 191 441 L 192 427 L 206 427 L 207 441 L 220 441 L 220 428 L 207 428 L 205 421 L 205 413 L 192 413 L 191 399 Z" fill="#f2f2f2" fill-rule="evenodd"/>
  <path d="M 454 443 L 441 443 L 440 457 L 426 457 L 425 443 L 412 443 L 412 456 L 426 457 L 426 471 L 412 472 L 412 485 L 425 485 L 425 472 L 439 471 L 440 457 L 454 456 Z" fill="#fefefe" fill-rule="evenodd"/>
  <path d="M 337 443 L 324 443 L 323 457 L 309 457 L 308 443 L 295 443 L 295 456 L 309 457 L 309 471 L 295 472 L 295 485 L 308 485 L 308 472 L 322 471 L 323 457 L 337 456 Z" fill="#fefefe" fill-rule="evenodd"/>
  <path d="M 105 399 L 105 412 L 119 413 L 119 427 L 105 428 L 105 441 L 118 441 L 119 427 L 133 427 L 134 441 L 147 441 L 147 428 L 134 428 L 132 421 L 132 413 L 119 413 L 118 399 Z" fill="#fefefe" fill-rule="evenodd"/>
  <path d="M 426 267 L 426 280 L 412 281 L 412 294 L 421 294 L 426 296 L 426 309 L 439 309 L 439 298 L 441 295 L 454 295 L 454 281 L 441 281 L 440 296 L 426 296 L 425 281 L 439 280 L 439 267 Z" fill="#f2f2f2" fill-rule="evenodd"/>
  <path d="M 17 179 L 17 192 L 30 192 L 32 197 L 31 206 L 45 207 L 46 221 L 59 221 L 59 208 L 45 207 L 45 193 L 59 192 L 59 179 L 46 179 L 45 193 L 31 193 L 30 179 Z" fill="#f2f2f2" fill-rule="evenodd"/>
  <path d="M 176 32 L 163 32 L 163 45 L 149 46 L 148 60 L 134 61 L 134 74 L 147 74 L 148 60 L 162 60 L 163 74 L 176 74 L 176 61 L 162 60 L 162 46 L 176 45 Z" fill="#f2f2f2" fill-rule="evenodd"/>
  <path d="M 410 267 L 397 267 L 396 281 L 382 281 L 381 267 L 368 267 L 368 280 L 382 281 L 382 295 L 368 296 L 368 305 L 371 309 L 381 309 L 382 295 L 396 294 L 397 280 L 410 280 Z" fill="#f2f2f2" fill-rule="evenodd"/>
  <path d="M 293 399 L 290 399 L 280 409 L 279 413 L 273 413 L 266 416 L 264 428 L 251 428 L 251 441 L 264 441 L 265 427 L 279 427 L 280 441 L 293 441 L 293 428 L 279 427 L 279 413 L 293 412 Z" fill="#fefefe" fill-rule="evenodd"/>
  <path d="M 178 364 L 178 368 L 191 368 L 193 377 L 191 384 L 178 384 L 178 397 L 191 397 L 192 383 L 206 383 L 207 397 L 220 397 L 216 385 L 206 383 L 206 369 L 220 368 L 220 364 L 207 364 L 207 368 L 203 370 L 192 369 L 191 364 Z" fill="#fefefe" fill-rule="evenodd"/>
  <path d="M 251 0 L 251 15 L 261 15 L 265 17 L 265 30 L 279 30 L 279 17 L 282 15 L 293 15 L 293 0 L 280 0 L 279 17 L 265 17 L 264 0 Z" fill="#f2f2f2" fill-rule="evenodd"/>
  <path d="M 324 369 L 324 383 L 337 383 L 338 368 L 353 369 L 353 383 L 339 384 L 339 397 L 352 397 L 352 384 L 366 383 L 366 369 L 353 369 L 352 365 L 339 364 L 337 369 Z" fill="#f2f2f2" fill-rule="evenodd"/>
  <path d="M 368 17 L 368 30 L 381 30 L 382 16 L 396 16 L 397 30 L 410 30 L 410 17 L 396 16 L 396 0 L 382 0 L 382 16 Z" fill="#fefefe" fill-rule="evenodd"/>
  <path d="M 265 32 L 266 45 L 280 46 L 280 60 L 266 61 L 265 74 L 279 74 L 279 61 L 293 60 L 293 46 L 280 46 L 279 32 Z" fill="#fefefe" fill-rule="evenodd"/>
  <path d="M 32 32 L 32 45 L 46 46 L 46 60 L 32 61 L 31 72 L 32 74 L 45 74 L 45 61 L 59 59 L 59 46 L 46 46 L 45 32 Z" fill="#fefefe" fill-rule="evenodd"/>
  <path d="M 32 355 L 32 368 L 46 369 L 46 383 L 32 384 L 31 395 L 32 397 L 45 397 L 45 384 L 59 383 L 59 369 L 46 369 L 45 355 Z" fill="#fefefe" fill-rule="evenodd"/>
  <path d="M 32 267 L 32 280 L 46 281 L 46 295 L 32 296 L 31 309 L 45 309 L 45 296 L 59 295 L 59 281 L 46 281 L 45 267 Z" fill="#fefefe" fill-rule="evenodd"/>
  <path d="M 46 311 L 46 324 L 32 325 L 31 337 L 32 339 L 46 340 L 46 353 L 59 353 L 59 340 L 45 339 L 45 325 L 59 324 L 59 311 Z" fill="#fefefe" fill-rule="evenodd"/>
  <path d="M 192 443 L 192 456 L 178 457 L 178 471 L 191 471 L 192 485 L 206 485 L 205 472 L 191 471 L 191 457 L 205 456 L 205 443 Z" fill="#f2f2f2" fill-rule="evenodd"/>
  <path d="M 32 311 L 32 324 L 46 325 L 46 339 L 32 340 L 32 353 L 45 353 L 45 340 L 59 339 L 59 325 L 46 325 L 45 311 Z" fill="#f2f2f2" fill-rule="evenodd"/>
  <path d="M 119 32 L 119 45 L 105 46 L 105 60 L 118 60 L 119 74 L 133 74 L 132 61 L 118 60 L 118 46 L 132 45 L 132 32 Z" fill="#fefefe" fill-rule="evenodd"/>
  <path d="M 426 76 L 426 89 L 412 90 L 412 104 L 425 104 L 426 118 L 439 118 L 439 105 L 425 104 L 425 90 L 439 89 L 439 76 Z" fill="#fefefe" fill-rule="evenodd"/>
  <path d="M 368 443 L 368 456 L 381 456 L 383 466 L 382 470 L 396 470 L 396 457 L 410 456 L 410 443 L 397 443 L 396 457 L 382 457 L 381 443 Z" fill="#f2f2f2" fill-rule="evenodd"/>
  <path d="M 46 355 L 46 368 L 32 369 L 32 383 L 45 383 L 46 397 L 59 397 L 59 384 L 45 383 L 45 369 L 59 368 L 59 355 Z" fill="#f2f2f2" fill-rule="evenodd"/>
  <path d="M 61 281 L 61 295 L 74 294 L 75 280 L 89 280 L 90 294 L 103 294 L 103 281 L 90 281 L 88 277 L 88 267 L 75 267 L 75 280 Z" fill="#f2f2f2" fill-rule="evenodd"/>
  <path d="M 309 399 L 309 412 L 295 413 L 295 427 L 308 427 L 309 441 L 322 441 L 322 428 L 308 427 L 308 413 L 322 412 L 322 399 Z" fill="#fefefe" fill-rule="evenodd"/>
  <path d="M 46 399 L 46 412 L 32 413 L 31 425 L 32 427 L 46 428 L 46 441 L 59 441 L 59 428 L 45 427 L 45 413 L 59 412 L 59 399 Z" fill="#fefefe" fill-rule="evenodd"/>
  <path d="M 61 179 L 61 192 L 74 192 L 75 206 L 88 207 L 89 193 L 103 192 L 103 179 L 90 179 L 89 193 L 75 193 L 74 179 Z" fill="#fefefe" fill-rule="evenodd"/>
  <path d="M 119 443 L 119 456 L 105 457 L 105 471 L 118 471 L 119 485 L 133 485 L 132 472 L 118 471 L 118 457 L 132 456 L 132 443 Z" fill="#fefefe" fill-rule="evenodd"/>
  <path d="M 412 179 L 412 192 L 426 193 L 426 207 L 412 208 L 412 221 L 425 221 L 425 208 L 439 206 L 440 196 L 439 193 L 425 192 L 425 179 Z" fill="#fefefe" fill-rule="evenodd"/>
  <path d="M 46 32 L 46 45 L 32 46 L 32 60 L 45 60 L 46 74 L 59 74 L 59 61 L 45 60 L 45 46 L 59 45 L 59 32 Z" fill="#f2f2f2" fill-rule="evenodd"/>
  <path d="M 119 267 L 119 280 L 105 281 L 105 295 L 118 295 L 119 309 L 132 309 L 132 296 L 118 295 L 118 281 L 132 280 L 132 267 Z" fill="#fefefe" fill-rule="evenodd"/>
  <path d="M 412 32 L 412 45 L 426 46 L 426 60 L 412 61 L 412 74 L 425 74 L 425 61 L 439 60 L 439 46 L 426 46 L 425 32 Z" fill="#fefefe" fill-rule="evenodd"/>
  <path d="M 412 311 L 412 324 L 426 325 L 426 339 L 412 340 L 412 353 L 425 353 L 425 340 L 439 339 L 439 325 L 426 325 L 425 311 Z" fill="#f2f2f2" fill-rule="evenodd"/>
  <path d="M 426 443 L 426 456 L 412 457 L 412 471 L 425 471 L 426 485 L 439 485 L 439 472 L 425 471 L 425 457 L 439 456 L 439 443 Z" fill="#f2f2f2" fill-rule="evenodd"/>
  <path d="M 339 443 L 339 456 L 353 457 L 353 471 L 339 472 L 339 485 L 352 485 L 352 472 L 366 471 L 366 457 L 353 457 L 352 443 Z" fill="#f2f2f2" fill-rule="evenodd"/>
  <path d="M 222 443 L 222 456 L 236 457 L 236 471 L 222 472 L 222 485 L 235 485 L 235 472 L 249 471 L 249 457 L 236 457 L 235 443 Z" fill="#f2f2f2" fill-rule="evenodd"/>
  <path d="M 105 443 L 105 456 L 119 457 L 119 471 L 105 472 L 105 485 L 118 485 L 118 472 L 132 471 L 132 457 L 119 457 L 118 443 Z" fill="#f2f2f2" fill-rule="evenodd"/>
  <path d="M 119 399 L 119 412 L 105 413 L 105 427 L 118 427 L 119 441 L 132 441 L 132 428 L 118 427 L 118 413 L 132 412 L 132 399 Z" fill="#f2f2f2" fill-rule="evenodd"/>
  <path d="M 61 399 L 61 412 L 74 412 L 76 419 L 74 428 L 61 428 L 61 441 L 74 441 L 74 428 L 88 427 L 88 413 L 75 413 L 74 399 Z" fill="#f2f2f2" fill-rule="evenodd"/>
  <path d="M 456 355 L 456 368 L 470 369 L 470 383 L 456 384 L 456 397 L 469 397 L 469 384 L 483 383 L 483 369 L 470 369 L 469 355 Z" fill="#f2f2f2" fill-rule="evenodd"/>
  <path d="M 470 311 L 470 324 L 456 325 L 456 339 L 469 339 L 470 353 L 483 353 L 483 340 L 469 339 L 469 325 L 483 324 L 483 311 Z" fill="#f2f2f2" fill-rule="evenodd"/>
  <path d="M 456 179 L 456 192 L 470 193 L 470 207 L 456 208 L 456 221 L 469 221 L 469 208 L 483 207 L 483 193 L 470 193 L 469 179 Z" fill="#f2f2f2" fill-rule="evenodd"/>
  <path d="M 426 179 L 426 192 L 412 193 L 412 207 L 425 207 L 426 221 L 439 221 L 439 208 L 425 207 L 425 193 L 439 192 L 439 179 Z" fill="#f2f2f2" fill-rule="evenodd"/>
  <path d="M 105 179 L 105 192 L 119 193 L 119 207 L 105 208 L 105 221 L 118 221 L 118 208 L 132 207 L 132 193 L 119 193 L 118 179 Z" fill="#f2f2f2" fill-rule="evenodd"/>
  <path d="M 456 32 L 456 45 L 470 46 L 470 60 L 456 61 L 456 74 L 469 74 L 469 61 L 483 60 L 483 46 L 470 46 L 469 32 Z" fill="#f2f2f2" fill-rule="evenodd"/>
  <path d="M 309 32 L 309 45 L 295 46 L 295 60 L 308 60 L 309 74 L 322 74 L 322 61 L 308 60 L 308 46 L 322 45 L 322 32 Z" fill="#f2f2f2" fill-rule="evenodd"/>
  <path d="M 222 32 L 222 45 L 236 46 L 236 60 L 222 61 L 222 74 L 235 74 L 235 61 L 249 60 L 249 46 L 236 46 L 235 32 Z" fill="#f2f2f2" fill-rule="evenodd"/>
  <path d="M 105 32 L 105 45 L 119 46 L 119 60 L 105 61 L 105 74 L 118 74 L 118 61 L 132 60 L 132 46 L 119 46 L 118 32 Z" fill="#f2f2f2" fill-rule="evenodd"/>
  <path d="M 470 443 L 470 456 L 456 457 L 456 471 L 469 471 L 470 485 L 483 485 L 483 472 L 469 471 L 469 457 L 483 456 L 483 443 Z" fill="#fefefe" fill-rule="evenodd"/>
  <path d="M 236 443 L 236 456 L 222 457 L 222 471 L 235 471 L 236 485 L 249 485 L 249 472 L 235 471 L 235 457 L 249 456 L 249 443 Z" fill="#fefefe" fill-rule="evenodd"/>
  <path d="M 149 443 L 149 456 L 163 457 L 163 471 L 149 472 L 149 485 L 162 485 L 162 472 L 176 471 L 176 457 L 163 457 L 162 443 Z" fill="#fefefe" fill-rule="evenodd"/>
  <path d="M 456 399 L 456 412 L 470 413 L 470 427 L 456 428 L 456 441 L 469 441 L 469 428 L 483 427 L 483 413 L 470 413 L 469 399 Z" fill="#fefefe" fill-rule="evenodd"/>
  <path d="M 470 355 L 470 368 L 456 369 L 456 383 L 469 383 L 470 397 L 483 397 L 483 384 L 469 383 L 469 369 L 483 368 L 483 355 Z" fill="#fefefe" fill-rule="evenodd"/>
  <path d="M 412 355 L 412 368 L 426 369 L 426 383 L 412 384 L 412 397 L 425 397 L 425 384 L 439 383 L 439 369 L 426 369 L 425 355 Z" fill="#fefefe" fill-rule="evenodd"/>
  <path d="M 456 311 L 456 324 L 470 325 L 470 339 L 456 340 L 456 353 L 469 353 L 469 340 L 483 339 L 483 325 L 470 325 L 469 311 Z" fill="#fefefe" fill-rule="evenodd"/>
  <path d="M 470 267 L 470 280 L 456 281 L 456 295 L 469 295 L 470 309 L 483 309 L 483 296 L 469 295 L 469 281 L 483 280 L 483 267 Z" fill="#fefefe" fill-rule="evenodd"/>
  <path d="M 412 267 L 412 280 L 426 281 L 426 295 L 412 296 L 412 309 L 425 309 L 425 296 L 434 294 L 439 295 L 439 281 L 426 281 L 425 267 Z" fill="#fefefe" fill-rule="evenodd"/>
  <path d="M 456 223 L 456 236 L 470 237 L 470 251 L 456 252 L 456 265 L 469 265 L 469 252 L 483 251 L 483 237 L 470 237 L 469 223 Z" fill="#fefefe" fill-rule="evenodd"/>
  <path d="M 426 223 L 426 236 L 412 237 L 412 251 L 425 251 L 426 265 L 439 265 L 439 252 L 425 251 L 425 237 L 439 236 L 439 223 Z" fill="#fefefe" fill-rule="evenodd"/>
  <path d="M 105 223 L 105 236 L 119 237 L 119 251 L 105 252 L 105 265 L 118 265 L 118 252 L 132 251 L 132 237 L 119 237 L 118 223 Z" fill="#fefefe" fill-rule="evenodd"/>
  <path d="M 163 76 L 163 89 L 149 90 L 149 104 L 162 104 L 163 118 L 176 118 L 176 105 L 162 104 L 162 90 L 176 89 L 176 76 Z" fill="#fefefe" fill-rule="evenodd"/>
  <path d="M 105 76 L 105 89 L 119 90 L 119 104 L 105 105 L 105 118 L 118 118 L 118 105 L 132 104 L 132 90 L 119 90 L 118 76 Z" fill="#fefefe" fill-rule="evenodd"/>
  <path d="M 470 32 L 470 45 L 456 46 L 456 60 L 469 60 L 470 74 L 483 74 L 483 61 L 469 60 L 469 46 L 483 45 L 483 32 Z" fill="#fefefe" fill-rule="evenodd"/>
  <path d="M 353 32 L 353 45 L 339 46 L 339 60 L 352 60 L 353 74 L 366 74 L 366 61 L 352 60 L 352 46 L 366 45 L 366 32 Z" fill="#fefefe" fill-rule="evenodd"/>
  <path d="M 295 32 L 295 45 L 309 46 L 309 60 L 295 61 L 295 74 L 308 74 L 308 61 L 322 60 L 322 46 L 309 46 L 308 32 Z" fill="#fefefe" fill-rule="evenodd"/>
  <path d="M 178 105 L 178 118 L 191 118 L 192 104 L 206 104 L 207 118 L 220 118 L 220 105 L 207 105 L 206 91 L 203 90 L 193 91 L 193 100 L 191 105 Z" fill="#f2f2f2" fill-rule="evenodd"/>
  <path d="M 456 76 L 456 89 L 470 90 L 470 104 L 456 105 L 456 118 L 469 118 L 469 105 L 483 104 L 483 91 L 469 89 L 469 76 Z" fill="#fefefe" fill-rule="evenodd"/>
  <path d="M 456 443 L 456 456 L 470 457 L 470 471 L 456 472 L 456 485 L 469 485 L 469 472 L 472 470 L 483 471 L 483 457 L 470 457 L 469 443 Z" fill="#f2f2f2" fill-rule="evenodd"/>
  <path d="M 163 443 L 163 456 L 149 457 L 149 471 L 162 471 L 163 485 L 176 485 L 176 472 L 162 471 L 162 457 L 176 456 L 176 443 Z" fill="#f2f2f2" fill-rule="evenodd"/>
  <path d="M 119 223 L 119 236 L 105 237 L 105 251 L 118 251 L 119 265 L 132 265 L 132 252 L 118 251 L 118 237 L 132 236 L 132 223 Z" fill="#f2f2f2" fill-rule="evenodd"/>
  <path d="M 236 32 L 236 45 L 222 46 L 222 60 L 235 60 L 236 74 L 249 74 L 249 61 L 235 60 L 235 46 L 249 45 L 249 32 Z" fill="#fefefe" fill-rule="evenodd"/>
  <path d="M 295 399 L 295 412 L 309 413 L 309 427 L 295 428 L 295 441 L 308 441 L 308 428 L 322 426 L 322 413 L 309 413 L 308 399 Z" fill="#f2f2f2" fill-rule="evenodd"/>
  <path d="M 426 399 L 426 412 L 412 413 L 412 426 L 426 428 L 426 441 L 439 441 L 439 428 L 425 427 L 425 413 L 439 412 L 439 399 Z" fill="#fefefe" fill-rule="evenodd"/>
  <path d="M 470 179 L 470 192 L 456 193 L 456 206 L 465 206 L 470 208 L 470 221 L 483 221 L 483 208 L 469 207 L 469 193 L 483 192 L 483 179 Z" fill="#fefefe" fill-rule="evenodd"/>
  <path d="M 309 443 L 309 456 L 295 457 L 295 471 L 308 471 L 309 485 L 322 485 L 322 472 L 308 471 L 308 457 L 322 456 L 322 443 Z" fill="#f2f2f2" fill-rule="evenodd"/>
  <path d="M 339 32 L 339 45 L 353 46 L 353 60 L 339 61 L 339 74 L 352 74 L 352 61 L 360 59 L 366 60 L 366 46 L 353 46 L 352 32 Z" fill="#f2f2f2" fill-rule="evenodd"/>
  <path d="M 339 399 L 339 412 L 353 413 L 353 427 L 339 428 L 339 441 L 352 441 L 352 428 L 357 426 L 366 427 L 366 413 L 353 413 L 352 399 Z" fill="#fefefe" fill-rule="evenodd"/>
  <path d="M 470 399 L 470 412 L 464 414 L 456 413 L 456 427 L 469 427 L 470 441 L 483 441 L 483 428 L 469 427 L 469 413 L 483 412 L 483 399 Z" fill="#f2f2f2" fill-rule="evenodd"/>
  <path d="M 353 399 L 353 412 L 348 414 L 339 413 L 339 427 L 352 427 L 353 441 L 366 441 L 366 428 L 352 427 L 352 413 L 366 412 L 366 399 Z" fill="#f2f2f2" fill-rule="evenodd"/>
  <path d="M 17 149 L 17 162 L 30 162 L 31 148 L 45 148 L 46 162 L 59 162 L 59 149 L 46 149 L 45 135 L 32 135 L 30 149 Z" fill="#f2f2f2" fill-rule="evenodd"/>
  <path d="M 412 223 L 412 236 L 426 237 L 426 251 L 412 252 L 412 265 L 425 265 L 425 252 L 439 250 L 439 237 L 426 237 L 425 223 Z" fill="#f2f2f2" fill-rule="evenodd"/>
  <path d="M 105 267 L 105 280 L 119 281 L 119 295 L 105 296 L 105 309 L 118 309 L 118 296 L 122 294 L 132 294 L 132 281 L 119 281 L 118 267 Z" fill="#f2f2f2" fill-rule="evenodd"/>
  <path d="M 412 399 L 412 412 L 426 413 L 426 427 L 412 428 L 412 441 L 425 441 L 425 428 L 439 426 L 439 413 L 426 413 L 425 399 Z" fill="#f2f2f2" fill-rule="evenodd"/>
  <path d="M 61 135 L 61 148 L 74 148 L 75 162 L 88 162 L 88 151 L 90 148 L 103 148 L 103 135 L 90 135 L 89 149 L 75 149 L 74 135 Z" fill="#f2f2f2" fill-rule="evenodd"/>
  <path d="M 411 150 L 412 155 L 414 156 L 413 162 L 425 162 L 426 148 L 440 148 L 441 162 L 454 162 L 454 149 L 441 149 L 439 143 L 439 135 L 426 135 L 426 148 Z" fill="#fefefe" fill-rule="evenodd"/>
  <path d="M 368 487 L 368 500 L 381 500 L 382 511 L 396 511 L 397 500 L 410 500 L 410 487 L 397 487 L 396 501 L 382 501 L 381 487 Z" fill="#fefefe" fill-rule="evenodd"/>
  <path d="M 251 487 L 251 500 L 264 500 L 265 511 L 279 511 L 280 500 L 293 500 L 293 487 L 280 487 L 279 501 L 265 501 L 264 487 Z" fill="#fefefe" fill-rule="evenodd"/>
  <path d="M 381 355 L 378 355 L 374 360 L 368 363 L 368 368 L 381 368 L 383 374 L 381 384 L 368 384 L 368 397 L 381 397 L 381 384 L 395 383 L 395 369 L 382 369 Z" fill="#f2f2f2" fill-rule="evenodd"/>
  <path d="M 251 501 L 251 511 L 264 511 L 265 500 L 279 500 L 280 511 L 293 511 L 293 501 L 279 500 L 279 487 L 265 487 L 265 500 Z" fill="#f2f2f2" fill-rule="evenodd"/>
  <path d="M 61 501 L 61 511 L 74 511 L 75 500 L 89 500 L 90 511 L 103 511 L 103 501 L 89 500 L 89 487 L 75 487 L 75 500 Z" fill="#fefefe" fill-rule="evenodd"/>
  <path d="M 119 311 L 119 324 L 110 326 L 105 325 L 105 339 L 118 339 L 119 353 L 131 353 L 126 345 L 125 340 L 118 339 L 118 325 L 128 324 L 132 317 L 132 311 Z" fill="#f2f2f2" fill-rule="evenodd"/>
  <path d="M 251 76 L 251 89 L 264 89 L 266 93 L 277 98 L 278 100 L 280 89 L 293 89 L 293 76 L 280 76 L 280 89 L 273 91 L 264 89 L 264 76 Z" fill="#fefefe" fill-rule="evenodd"/>
  <path d="M 322 76 L 309 76 L 309 89 L 295 90 L 295 104 L 308 104 L 309 114 L 311 114 L 314 110 L 317 110 L 318 108 L 322 107 L 322 105 L 308 104 L 308 90 L 322 89 Z" fill="#fefefe" fill-rule="evenodd"/>
  <path d="M 337 364 L 324 364 L 323 369 L 309 370 L 309 383 L 296 384 L 294 390 L 295 397 L 308 397 L 308 384 L 322 383 L 323 369 L 337 368 Z" fill="#fefefe" fill-rule="evenodd"/>
  <path d="M 295 369 L 294 377 L 297 380 L 297 383 L 309 384 L 309 397 L 322 397 L 322 384 L 308 383 L 308 369 L 322 368 L 323 365 L 310 364 L 308 369 Z" fill="#f2f2f2" fill-rule="evenodd"/>
  <path d="M 103 0 L 90 0 L 90 16 L 75 17 L 76 30 L 89 30 L 89 17 L 103 16 Z" fill="#fefefe" fill-rule="evenodd"/>
  <path d="M 220 0 L 207 0 L 207 16 L 193 17 L 192 30 L 206 30 L 206 17 L 220 15 Z" fill="#fefefe" fill-rule="evenodd"/>
  <path d="M 206 0 L 192 0 L 192 16 L 178 17 L 178 30 L 191 30 L 191 17 L 200 15 L 205 16 Z" fill="#f2f2f2" fill-rule="evenodd"/>
  <path d="M 32 0 L 32 15 L 41 15 L 46 17 L 46 30 L 59 30 L 59 17 L 45 16 L 45 0 Z" fill="#fefefe" fill-rule="evenodd"/>
  <path d="M 366 0 L 353 0 L 353 16 L 339 17 L 339 30 L 352 30 L 352 17 L 366 15 Z" fill="#fefefe" fill-rule="evenodd"/>
  <path d="M 149 0 L 149 15 L 163 17 L 163 30 L 176 30 L 176 17 L 162 16 L 162 0 Z" fill="#fefefe" fill-rule="evenodd"/>
  <path d="M 176 0 L 163 0 L 163 16 L 149 17 L 149 30 L 162 30 L 162 17 L 165 15 L 176 15 Z" fill="#f2f2f2" fill-rule="evenodd"/>
  <path d="M 249 0 L 236 0 L 236 16 L 222 17 L 222 30 L 235 30 L 235 17 L 240 15 L 249 15 Z" fill="#fefefe" fill-rule="evenodd"/>
  <path d="M 410 281 L 397 281 L 397 295 L 382 296 L 382 309 L 395 309 L 397 295 L 410 295 Z" fill="#fefefe" fill-rule="evenodd"/>
  <path d="M 396 223 L 382 223 L 382 236 L 368 237 L 368 251 L 381 251 L 381 237 L 396 236 Z" fill="#f2f2f2" fill-rule="evenodd"/>
  <path d="M 382 311 L 384 324 L 397 325 L 397 339 L 410 339 L 410 325 L 397 325 L 396 311 Z" fill="#f2f2f2" fill-rule="evenodd"/>
  <path d="M 410 237 L 397 238 L 397 251 L 383 252 L 382 265 L 396 265 L 396 252 L 401 250 L 410 250 Z" fill="#f2f2f2" fill-rule="evenodd"/>
  <path d="M 382 76 L 382 89 L 396 89 L 397 104 L 410 104 L 410 90 L 397 90 L 396 76 Z" fill="#f2f2f2" fill-rule="evenodd"/>
  <path d="M 32 179 L 32 192 L 45 192 L 46 206 L 59 206 L 59 193 L 46 193 L 45 179 Z" fill="#fefefe" fill-rule="evenodd"/>
  <path d="M 396 267 L 383 267 L 381 281 L 368 281 L 368 294 L 381 294 L 381 281 L 395 280 Z" fill="#fefefe" fill-rule="evenodd"/>
  <path d="M 339 369 L 339 383 L 352 383 L 353 397 L 366 397 L 366 384 L 353 384 L 352 370 Z" fill="#fefefe" fill-rule="evenodd"/>
  <path d="M 59 413 L 46 414 L 45 428 L 32 428 L 32 441 L 45 441 L 45 428 L 59 427 Z" fill="#f2f2f2" fill-rule="evenodd"/>
  <path d="M 410 413 L 397 414 L 397 427 L 383 428 L 382 441 L 396 441 L 396 428 L 400 426 L 410 427 Z" fill="#f2f2f2" fill-rule="evenodd"/>
  <path d="M 45 76 L 32 76 L 30 90 L 17 90 L 17 104 L 30 104 L 30 90 L 45 89 Z" fill="#f2f2f2" fill-rule="evenodd"/>
  <path d="M 339 457 L 339 471 L 352 471 L 353 485 L 366 485 L 366 472 L 353 472 L 352 458 Z" fill="#fefefe" fill-rule="evenodd"/>
  <path d="M 176 399 L 163 399 L 163 412 L 149 413 L 149 427 L 162 426 L 163 412 L 176 412 Z" fill="#fefefe" fill-rule="evenodd"/>
  <path d="M 89 135 L 75 135 L 75 148 L 61 149 L 61 162 L 74 162 L 74 149 L 88 148 Z" fill="#fefefe" fill-rule="evenodd"/>
  <path d="M 483 223 L 470 223 L 470 236 L 466 238 L 456 237 L 456 251 L 469 250 L 470 236 L 483 236 Z" fill="#f2f2f2" fill-rule="evenodd"/>
  <path d="M 149 32 L 149 45 L 162 45 L 163 59 L 176 60 L 176 46 L 163 46 L 162 32 Z" fill="#fefefe" fill-rule="evenodd"/>
  <path d="M 456 267 L 456 280 L 469 280 L 470 294 L 483 295 L 483 281 L 470 281 L 469 267 Z" fill="#f2f2f2" fill-rule="evenodd"/>
  <path d="M 132 179 L 119 179 L 119 192 L 105 193 L 105 207 L 118 206 L 119 192 L 132 192 Z" fill="#fefefe" fill-rule="evenodd"/>
  <path d="M 222 413 L 222 427 L 235 427 L 236 441 L 249 441 L 249 428 L 236 428 L 235 414 Z" fill="#f2f2f2" fill-rule="evenodd"/>
  <path d="M 132 369 L 119 370 L 118 384 L 105 384 L 105 397 L 118 397 L 118 384 L 132 383 Z" fill="#f2f2f2" fill-rule="evenodd"/>
  <path d="M 59 267 L 46 267 L 46 280 L 32 281 L 31 294 L 45 294 L 45 281 L 59 280 Z" fill="#f2f2f2" fill-rule="evenodd"/>
  <path d="M 176 414 L 163 413 L 163 427 L 149 428 L 149 441 L 162 441 L 162 428 L 176 427 Z" fill="#f2f2f2" fill-rule="evenodd"/>
  <path d="M 59 135 L 46 135 L 46 148 L 32 149 L 32 162 L 45 162 L 45 149 L 59 148 Z" fill="#fefefe" fill-rule="evenodd"/>
  <path d="M 456 90 L 456 104 L 469 104 L 470 118 L 483 118 L 483 105 L 470 105 L 469 91 Z" fill="#f2f2f2" fill-rule="evenodd"/>
  <path d="M 176 91 L 163 91 L 163 104 L 149 105 L 149 118 L 162 118 L 162 105 L 176 104 Z" fill="#f2f2f2" fill-rule="evenodd"/>
  <path d="M 89 91 L 75 91 L 75 104 L 61 105 L 61 118 L 74 118 L 74 105 L 88 104 Z" fill="#f2f2f2" fill-rule="evenodd"/>
  <path d="M 149 135 L 149 148 L 162 148 L 163 162 L 174 163 L 176 160 L 176 149 L 163 149 L 162 135 Z" fill="#f2f2f2" fill-rule="evenodd"/>
  <path d="M 59 91 L 46 91 L 46 104 L 32 105 L 31 118 L 45 118 L 45 105 L 59 104 Z" fill="#f2f2f2" fill-rule="evenodd"/>
  <path d="M 412 135 L 412 148 L 425 148 L 426 162 L 439 162 L 439 149 L 426 149 L 425 135 Z" fill="#f2f2f2" fill-rule="evenodd"/>
  <path d="M 439 91 L 426 91 L 426 104 L 412 105 L 412 118 L 425 118 L 425 105 L 439 104 Z" fill="#f2f2f2" fill-rule="evenodd"/>
  <path d="M 105 90 L 105 104 L 118 104 L 119 118 L 132 118 L 132 105 L 119 105 L 118 91 Z" fill="#f2f2f2" fill-rule="evenodd"/>
  <path d="M 483 135 L 470 135 L 470 148 L 456 149 L 456 162 L 469 162 L 469 149 L 483 148 Z" fill="#f2f2f2" fill-rule="evenodd"/>
  <path d="M 132 135 L 119 135 L 119 148 L 105 149 L 105 162 L 118 162 L 118 149 L 132 148 Z" fill="#f2f2f2" fill-rule="evenodd"/>
  <path d="M 322 91 L 309 91 L 309 104 L 295 105 L 295 118 L 306 118 L 308 116 L 309 104 L 322 104 Z" fill="#f2f2f2" fill-rule="evenodd"/>
  <path d="M 456 135 L 456 148 L 469 148 L 470 162 L 483 162 L 483 149 L 470 149 L 469 135 Z" fill="#fefefe" fill-rule="evenodd"/>
  <path d="M 176 135 L 163 135 L 163 148 L 149 149 L 149 162 L 162 162 L 162 149 L 176 148 Z" fill="#fefefe" fill-rule="evenodd"/>
  <path d="M 105 135 L 105 148 L 118 148 L 119 162 L 132 162 L 132 149 L 119 149 L 118 135 Z" fill="#fefefe" fill-rule="evenodd"/>
  <path d="M 249 417 L 239 413 L 236 414 L 236 427 L 222 428 L 222 441 L 235 441 L 235 428 L 249 427 Z" fill="#fefefe" fill-rule="evenodd"/>
  <path d="M 339 76 L 339 89 L 352 89 L 354 101 L 366 103 L 366 90 L 353 90 L 352 76 Z" fill="#fefefe" fill-rule="evenodd"/>
  <path d="M 396 487 L 382 487 L 382 500 L 368 501 L 368 511 L 381 511 L 382 500 L 395 500 Z" fill="#f2f2f2" fill-rule="evenodd"/>
  <path d="M 206 488 L 192 487 L 192 500 L 178 501 L 178 511 L 191 511 L 192 500 L 205 500 Z" fill="#fefefe" fill-rule="evenodd"/>
  <path d="M 59 487 L 46 487 L 46 500 L 32 501 L 31 511 L 45 511 L 46 500 L 59 500 Z" fill="#fefefe" fill-rule="evenodd"/>
  <path d="M 32 487 L 32 500 L 45 500 L 46 511 L 59 511 L 59 501 L 45 500 L 45 487 Z" fill="#f2f2f2" fill-rule="evenodd"/>
  <path d="M 439 487 L 426 487 L 426 500 L 412 501 L 412 511 L 425 511 L 426 500 L 439 500 Z" fill="#fefefe" fill-rule="evenodd"/>
  <path d="M 483 487 L 470 487 L 470 500 L 456 501 L 456 511 L 469 511 L 470 500 L 483 500 Z" fill="#f2f2f2" fill-rule="evenodd"/>
  <path d="M 412 487 L 412 500 L 425 500 L 426 511 L 439 511 L 439 501 L 425 500 L 425 487 Z" fill="#f2f2f2" fill-rule="evenodd"/>
  <path d="M 366 487 L 353 487 L 353 500 L 339 501 L 339 511 L 352 511 L 353 500 L 366 500 Z" fill="#f2f2f2" fill-rule="evenodd"/>
  <path d="M 295 487 L 295 500 L 308 500 L 309 511 L 322 511 L 322 501 L 308 500 L 308 487 Z" fill="#f2f2f2" fill-rule="evenodd"/>
  <path d="M 249 487 L 236 487 L 236 500 L 222 501 L 222 511 L 235 511 L 236 500 L 249 500 Z" fill="#f2f2f2" fill-rule="evenodd"/>
  <path d="M 149 487 L 149 500 L 162 500 L 163 511 L 176 511 L 176 501 L 162 500 L 162 487 Z" fill="#f2f2f2" fill-rule="evenodd"/>
  <path d="M 132 487 L 119 487 L 119 500 L 105 501 L 105 511 L 118 511 L 119 500 L 132 500 Z" fill="#f2f2f2" fill-rule="evenodd"/>
  <path d="M 456 487 L 456 500 L 469 500 L 470 511 L 483 511 L 483 501 L 469 500 L 469 487 Z" fill="#fefefe" fill-rule="evenodd"/>
  <path d="M 339 487 L 339 500 L 352 500 L 353 511 L 366 511 L 366 501 L 352 500 L 352 487 Z" fill="#fefefe" fill-rule="evenodd"/>
  <path d="M 322 487 L 309 487 L 309 500 L 295 501 L 295 511 L 308 511 L 309 500 L 322 500 Z" fill="#fefefe" fill-rule="evenodd"/>
  <path d="M 222 487 L 222 500 L 235 500 L 236 511 L 249 511 L 249 501 L 235 500 L 235 487 Z" fill="#fefefe" fill-rule="evenodd"/>
  <path d="M 176 487 L 163 487 L 163 500 L 149 501 L 149 511 L 162 511 L 163 500 L 176 500 Z" fill="#fefefe" fill-rule="evenodd"/>
  <path d="M 105 487 L 105 500 L 118 500 L 119 511 L 132 511 L 132 501 L 118 500 L 118 487 Z" fill="#fefefe" fill-rule="evenodd"/>
  <path d="M 61 487 L 61 500 L 74 500 L 76 511 L 88 511 L 88 501 L 74 500 L 74 487 Z" fill="#f2f2f2" fill-rule="evenodd"/>
  <path d="M 134 179 L 134 192 L 147 192 L 149 197 L 149 207 L 155 207 L 157 205 L 156 201 L 158 193 L 147 192 L 147 179 Z" fill="#f2f2f2" fill-rule="evenodd"/>
  <path d="M 368 91 L 368 103 L 381 104 L 383 110 L 386 112 L 390 110 L 391 117 L 396 118 L 395 105 L 381 104 L 381 91 Z" fill="#f2f2f2" fill-rule="evenodd"/>
  <path d="M 105 311 L 105 324 L 118 324 L 119 338 L 125 338 L 127 326 L 118 324 L 118 311 Z" fill="#fefefe" fill-rule="evenodd"/>
  <path d="M 74 457 L 89 456 L 90 471 L 75 472 Z" fill="#f2f2f2" fill-rule="evenodd"/>
  <path d="M 191 46 L 206 45 L 207 60 L 192 61 Z" fill="#f2f2f2" fill-rule="evenodd"/>
  <path d="M 381 457 L 396 456 L 397 471 L 382 472 Z" fill="#fefefe" fill-rule="evenodd"/>
  <path d="M 30 457 L 45 456 L 46 471 L 31 472 Z" fill="#fefefe" fill-rule="evenodd"/>
  <path d="M 191 90 L 206 89 L 207 104 L 192 105 Z" fill="#fefefe" fill-rule="evenodd"/>
  <path d="M 74 90 L 89 89 L 90 104 L 75 105 Z" fill="#fefefe" fill-rule="evenodd"/>
  <path d="M 153 223 L 149 223 L 149 234 L 147 237 L 134 237 L 134 251 L 147 251 L 147 237 L 153 236 Z" fill="#f2f2f2" fill-rule="evenodd"/>
  <path d="M 0 0 L 0 15 L 14 16 L 15 0 Z" fill="#fefefe" fill-rule="evenodd"/>
  <path d="M 410 193 L 405 193 L 403 199 L 400 201 L 397 207 L 391 212 L 389 212 L 386 216 L 383 216 L 382 221 L 395 221 L 396 208 L 410 206 Z" fill="#fefefe" fill-rule="evenodd"/>
  <path d="M 205 365 L 193 364 L 191 369 L 178 370 L 178 383 L 191 383 L 191 369 L 205 368 Z" fill="#f2f2f2" fill-rule="evenodd"/>
  <path d="M 176 364 L 163 364 L 162 369 L 149 370 L 149 383 L 162 382 L 162 369 L 176 368 Z" fill="#f2f2f2" fill-rule="evenodd"/>
  <path d="M 265 0 L 266 15 L 279 15 L 279 0 Z" fill="#fefefe" fill-rule="evenodd"/>
  <path d="M 0 46 L 0 60 L 15 60 L 15 46 Z" fill="#f2f2f2" fill-rule="evenodd"/>
  <path d="M 0 413 L 0 427 L 15 427 L 15 413 Z" fill="#fefefe" fill-rule="evenodd"/>
  <path d="M 0 325 L 0 339 L 15 339 L 15 325 Z" fill="#fefefe" fill-rule="evenodd"/>
  <path d="M 0 237 L 0 251 L 15 251 L 15 237 Z" fill="#fefefe" fill-rule="evenodd"/>
  <path d="M 0 90 L 0 104 L 15 104 L 15 90 Z" fill="#fefefe" fill-rule="evenodd"/>
  <path d="M 134 267 L 134 280 L 147 280 L 149 283 L 148 289 L 150 294 L 152 285 L 154 283 L 153 281 L 147 280 L 147 267 Z" fill="#f2f2f2" fill-rule="evenodd"/>
  <path d="M 178 0 L 178 16 L 190 16 L 191 0 Z" fill="#fefefe" fill-rule="evenodd"/>
  <path d="M 412 0 L 412 16 L 425 15 L 425 0 Z" fill="#fefefe" fill-rule="evenodd"/>
  <path d="M 0 369 L 0 383 L 15 383 L 15 369 Z" fill="#f2f2f2" fill-rule="evenodd"/>
  <path d="M 441 0 L 441 15 L 453 16 L 454 0 Z" fill="#fefefe" fill-rule="evenodd"/>
  <path d="M 119 0 L 119 15 L 132 15 L 132 0 Z" fill="#fefefe" fill-rule="evenodd"/>
  <path d="M 75 0 L 75 15 L 89 15 L 88 0 Z" fill="#f2f2f2" fill-rule="evenodd"/>
  <path d="M 61 0 L 61 16 L 74 15 L 74 0 Z" fill="#fefefe" fill-rule="evenodd"/>
  <path d="M 324 0 L 324 15 L 337 16 L 337 0 Z" fill="#fefefe" fill-rule="evenodd"/>
  <path d="M 470 0 L 470 15 L 483 15 L 483 0 Z" fill="#fefefe" fill-rule="evenodd"/>
  <path d="M 0 281 L 0 294 L 15 294 L 15 281 Z" fill="#f2f2f2" fill-rule="evenodd"/>
  <path d="M 426 0 L 426 15 L 439 15 L 439 0 Z" fill="#f2f2f2" fill-rule="evenodd"/>
  <path d="M 295 0 L 295 15 L 308 15 L 308 0 Z" fill="#fefefe" fill-rule="evenodd"/>
  <path d="M 46 0 L 46 15 L 59 15 L 59 0 Z" fill="#f2f2f2" fill-rule="evenodd"/>
  <path d="M 485 0 L 485 15 L 498 16 L 498 0 Z" fill="#f2f2f2" fill-rule="evenodd"/>
  <path d="M 309 0 L 309 15 L 322 15 L 322 0 Z" fill="#f2f2f2" fill-rule="evenodd"/>
  <path d="M 368 0 L 368 15 L 381 15 L 381 0 Z" fill="#f2f2f2" fill-rule="evenodd"/>
  <path d="M 17 0 L 17 15 L 30 15 L 30 0 Z" fill="#f2f2f2" fill-rule="evenodd"/>
  <path d="M 0 487 L 0 500 L 15 500 L 15 487 Z" fill="#f2f2f2" fill-rule="evenodd"/>
  <path d="M 0 457 L 0 470 L 15 470 L 15 457 Z" fill="#f2f2f2" fill-rule="evenodd"/>
  <path d="M 0 428 L 0 441 L 15 441 L 15 428 Z" fill="#f2f2f2" fill-rule="evenodd"/>
  <path d="M 0 399 L 0 412 L 15 412 L 15 399 Z" fill="#f2f2f2" fill-rule="evenodd"/>
  <path d="M 0 340 L 0 353 L 15 353 L 15 340 Z" fill="#f2f2f2" fill-rule="evenodd"/>
  <path d="M 0 311 L 0 324 L 15 324 L 15 311 Z" fill="#f2f2f2" fill-rule="evenodd"/>
  <path d="M 0 252 L 0 265 L 15 265 L 15 252 Z" fill="#f2f2f2" fill-rule="evenodd"/>
  <path d="M 0 223 L 0 236 L 15 236 L 15 223 Z" fill="#f2f2f2" fill-rule="evenodd"/>
  <path d="M 0 193 L 0 206 L 15 206 L 15 193 Z" fill="#f2f2f2" fill-rule="evenodd"/>
  <path d="M 0 164 L 0 177 L 15 177 L 15 164 Z" fill="#f2f2f2" fill-rule="evenodd"/>
  <path d="M 0 135 L 0 148 L 15 148 L 15 135 Z" fill="#f2f2f2" fill-rule="evenodd"/>
  <path d="M 0 105 L 0 118 L 15 118 L 15 105 Z" fill="#f2f2f2" fill-rule="evenodd"/>
  <path d="M 0 76 L 0 89 L 15 89 L 15 76 Z" fill="#f2f2f2" fill-rule="evenodd"/>
  <path d="M 0 17 L 0 30 L 15 30 L 15 17 Z" fill="#f2f2f2" fill-rule="evenodd"/>
  <path d="M 456 0 L 456 15 L 469 15 L 469 0 Z" fill="#f2f2f2" fill-rule="evenodd"/>
  <path d="M 397 0 L 397 15 L 410 15 L 410 0 Z" fill="#f2f2f2" fill-rule="evenodd"/>
  <path d="M 339 0 L 339 15 L 352 15 L 352 0 Z" fill="#f2f2f2" fill-rule="evenodd"/>
  <path d="M 222 0 L 222 15 L 235 15 L 235 0 Z" fill="#f2f2f2" fill-rule="evenodd"/>
  <path d="M 134 0 L 134 15 L 147 15 L 147 0 Z" fill="#f2f2f2" fill-rule="evenodd"/>
  <path d="M 105 0 L 105 15 L 118 15 L 118 0 Z" fill="#f2f2f2" fill-rule="evenodd"/>
  <path d="M 0 472 L 0 485 L 15 485 L 15 472 Z" fill="#fefefe" fill-rule="evenodd"/>
  <path d="M 0 443 L 0 456 L 15 456 L 15 443 Z" fill="#fefefe" fill-rule="evenodd"/>
  <path d="M 0 384 L 0 397 L 15 397 L 15 384 Z" fill="#fefefe" fill-rule="evenodd"/>
  <path d="M 0 355 L 0 368 L 15 368 L 15 355 Z" fill="#fefefe" fill-rule="evenodd"/>
  <path d="M 0 296 L 0 309 L 15 309 L 15 296 Z" fill="#fefefe" fill-rule="evenodd"/>
  <path d="M 0 267 L 0 280 L 15 280 L 15 267 Z" fill="#fefefe" fill-rule="evenodd"/>
  <path d="M 0 208 L 0 221 L 15 221 L 15 208 Z" fill="#fefefe" fill-rule="evenodd"/>
  <path d="M 0 179 L 0 192 L 15 192 L 15 179 Z" fill="#fefefe" fill-rule="evenodd"/>
  <path d="M 0 149 L 0 162 L 15 162 L 15 149 Z" fill="#fefefe" fill-rule="evenodd"/>
  <path d="M 0 120 L 0 133 L 15 133 L 15 120 Z" fill="#fefefe" fill-rule="evenodd"/>
  <path d="M 0 61 L 0 74 L 15 74 L 15 61 Z" fill="#fefefe" fill-rule="evenodd"/>
  <path d="M 0 32 L 0 45 L 15 45 L 15 32 Z" fill="#fefefe" fill-rule="evenodd"/>
  <path d="M 251 364 L 251 368 L 264 368 L 266 372 L 266 377 L 275 378 L 279 377 L 280 368 L 293 368 L 293 364 L 280 365 L 280 368 L 277 370 L 265 369 L 264 365 L 261 364 Z" fill="#f2f2f2" fill-rule="evenodd"/>
  <path d="M 260 92 L 264 92 L 265 89 L 279 89 L 279 76 L 265 76 L 265 89 L 260 90 Z" fill="#f2f2f2" fill-rule="evenodd"/>
  <path d="M 441 457 L 441 471 L 454 471 L 454 457 Z" fill="#f2f2f2" fill-rule="evenodd"/>
  <path d="M 368 413 L 368 427 L 381 427 L 381 413 Z" fill="#f2f2f2" fill-rule="evenodd"/>
  <path d="M 485 325 L 485 339 L 498 339 L 498 325 Z" fill="#f2f2f2" fill-rule="evenodd"/>
  <path d="M 17 325 L 17 339 L 30 339 L 30 325 Z" fill="#f2f2f2" fill-rule="evenodd"/>
  <path d="M 324 46 L 324 60 L 337 60 L 337 46 Z" fill="#f2f2f2" fill-rule="evenodd"/>
  <path d="M 382 17 L 382 30 L 396 30 L 396 17 Z" fill="#f2f2f2" fill-rule="evenodd"/>
  <path d="M 485 457 L 485 471 L 498 471 L 498 457 Z" fill="#fefefe" fill-rule="evenodd"/>
  <path d="M 134 457 L 134 471 L 147 471 L 147 457 Z" fill="#fefefe" fill-rule="evenodd"/>
  <path d="M 441 413 L 441 427 L 454 427 L 454 413 Z" fill="#fefefe" fill-rule="evenodd"/>
  <path d="M 324 413 L 324 427 L 337 427 L 337 413 Z" fill="#fefefe" fill-rule="evenodd"/>
  <path d="M 485 369 L 485 383 L 498 383 L 498 369 Z" fill="#fefefe" fill-rule="evenodd"/>
  <path d="M 75 164 L 75 177 L 89 177 L 89 164 Z" fill="#fefefe" fill-rule="evenodd"/>
  <path d="M 441 90 L 441 104 L 454 104 L 454 90 Z" fill="#fefefe" fill-rule="evenodd"/>
  <path d="M 485 46 L 485 60 L 498 60 L 498 46 Z" fill="#fefefe" fill-rule="evenodd"/>
  <path d="M 134 46 L 134 60 L 147 60 L 147 46 Z" fill="#fefefe" fill-rule="evenodd"/>
  <path d="M 17 46 L 17 60 L 30 60 L 30 46 Z" fill="#fefefe" fill-rule="evenodd"/>
  <path d="M 485 281 L 485 294 L 498 295 L 498 281 Z" fill="#fefefe" fill-rule="evenodd"/>
  <path d="M 251 46 L 251 60 L 263 60 L 264 46 Z" fill="#fefefe" fill-rule="evenodd"/>
  <path d="M 17 281 L 17 294 L 29 295 L 30 281 Z" fill="#fefefe" fill-rule="evenodd"/>
  <path d="M 75 296 L 75 309 L 89 309 L 89 296 Z" fill="#f2f2f2" fill-rule="evenodd"/>
  <path d="M 485 237 L 485 251 L 498 251 L 498 237 Z" fill="#f2f2f2" fill-rule="evenodd"/>
  <path d="M 441 237 L 441 250 L 454 251 L 454 237 Z" fill="#fefefe" fill-rule="evenodd"/>
  <path d="M 134 413 L 134 427 L 147 426 L 147 414 Z" fill="#f2f2f2" fill-rule="evenodd"/>
  <path d="M 382 399 L 383 412 L 396 412 L 395 399 Z" fill="#f2f2f2" fill-rule="evenodd"/>
  <path d="M 17 369 L 17 383 L 30 383 L 30 369 Z" fill="#fefefe" fill-rule="evenodd"/>
  <path d="M 265 428 L 265 441 L 279 441 L 279 428 Z" fill="#f2f2f2" fill-rule="evenodd"/>
  <path d="M 134 281 L 134 294 L 147 294 L 147 281 Z" fill="#fefefe" fill-rule="evenodd"/>
  <path d="M 207 457 L 207 471 L 220 471 L 220 457 Z" fill="#f2f2f2" fill-rule="evenodd"/>
  <path d="M 192 120 L 192 133 L 206 133 L 206 120 Z" fill="#f2f2f2" fill-rule="evenodd"/>
  <path d="M 32 120 L 32 133 L 45 133 L 45 120 Z" fill="#fefefe" fill-rule="evenodd"/>
  <path d="M 193 384 L 192 397 L 205 397 L 206 384 Z" fill="#f2f2f2" fill-rule="evenodd"/>
  <path d="M 324 457 L 324 471 L 337 470 L 337 457 Z" fill="#f2f2f2" fill-rule="evenodd"/>
  <path d="M 485 193 L 485 207 L 498 206 L 498 193 Z" fill="#fefefe" fill-rule="evenodd"/>
  <path d="M 17 193 L 17 206 L 30 206 L 30 193 Z" fill="#fefefe" fill-rule="evenodd"/>
  <path d="M 441 193 L 441 206 L 454 207 L 454 193 Z" fill="#f2f2f2" fill-rule="evenodd"/>
  <path d="M 134 193 L 134 207 L 147 206 L 147 193 Z" fill="#fefefe" fill-rule="evenodd"/>
  <path d="M 485 414 L 485 426 L 498 426 L 498 413 Z" fill="#f2f2f2" fill-rule="evenodd"/>
  <path d="M 31 164 L 32 177 L 45 177 L 45 164 Z" fill="#f2f2f2" fill-rule="evenodd"/>
  <path d="M 32 17 L 31 30 L 45 30 L 45 17 Z" fill="#f2f2f2" fill-rule="evenodd"/>
  <path d="M 249 364 L 236 364 L 235 369 L 222 369 L 221 376 L 222 378 L 235 378 L 235 369 L 249 368 Z" fill="#fefefe" fill-rule="evenodd"/>
  <path d="M 426 120 L 426 133 L 439 133 L 440 120 Z" fill="#f2f2f2" fill-rule="evenodd"/>
  <path d="M 293 91 L 280 91 L 281 104 L 293 104 Z" fill="#f2f2f2" fill-rule="evenodd"/>
  <path d="M 280 414 L 280 426 L 293 427 L 293 413 Z" fill="#f2f2f2" fill-rule="evenodd"/>
  <path d="M 75 120 L 75 133 L 88 133 L 88 120 Z" fill="#f2f2f2" fill-rule="evenodd"/>
  <path d="M 324 90 L 324 104 L 336 103 L 337 91 Z" fill="#fefefe" fill-rule="evenodd"/>
  <path d="M 500 0 L 500 15 L 511 16 L 511 0 Z" fill="#fefefe" fill-rule="evenodd"/>
  <path d="M 441 487 L 441 500 L 454 500 L 454 487 Z" fill="#f2f2f2" fill-rule="evenodd"/>
  <path d="M 324 487 L 324 500 L 337 500 L 337 487 Z" fill="#f2f2f2" fill-rule="evenodd"/>
  <path d="M 207 487 L 207 500 L 220 500 L 220 487 Z" fill="#f2f2f2" fill-rule="evenodd"/>
  <path d="M 178 487 L 178 500 L 191 500 L 191 487 Z" fill="#f2f2f2" fill-rule="evenodd"/>
  <path d="M 90 487 L 90 500 L 103 500 L 103 487 Z" fill="#f2f2f2" fill-rule="evenodd"/>
  <path d="M 485 472 L 485 485 L 498 485 L 498 472 Z" fill="#f2f2f2" fill-rule="evenodd"/>
  <path d="M 397 472 L 397 485 L 410 485 L 410 472 Z" fill="#f2f2f2" fill-rule="evenodd"/>
  <path d="M 368 472 L 368 485 L 381 485 L 381 472 Z" fill="#f2f2f2" fill-rule="evenodd"/>
  <path d="M 251 472 L 251 485 L 264 485 L 264 472 Z" fill="#f2f2f2" fill-rule="evenodd"/>
  <path d="M 134 472 L 134 485 L 147 485 L 147 472 Z" fill="#f2f2f2" fill-rule="evenodd"/>
  <path d="M 485 443 L 485 456 L 498 456 L 498 443 Z" fill="#f2f2f2" fill-rule="evenodd"/>
  <path d="M 134 443 L 134 456 L 147 456 L 147 443 Z" fill="#f2f2f2" fill-rule="evenodd"/>
  <path d="M 17 443 L 17 456 L 30 456 L 30 443 Z" fill="#f2f2f2" fill-rule="evenodd"/>
  <path d="M 441 428 L 441 441 L 454 441 L 454 428 Z" fill="#f2f2f2" fill-rule="evenodd"/>
  <path d="M 324 428 L 324 441 L 337 441 L 337 428 Z" fill="#f2f2f2" fill-rule="evenodd"/>
  <path d="M 90 428 L 90 441 L 103 441 L 103 428 Z" fill="#f2f2f2" fill-rule="evenodd"/>
  <path d="M 441 399 L 441 412 L 454 412 L 454 399 Z" fill="#f2f2f2" fill-rule="evenodd"/>
  <path d="M 324 399 L 324 412 L 337 412 L 337 399 Z" fill="#f2f2f2" fill-rule="evenodd"/>
  <path d="M 207 399 L 207 412 L 220 412 L 220 399 Z" fill="#f2f2f2" fill-rule="evenodd"/>
  <path d="M 90 399 L 90 412 L 103 412 L 103 399 Z" fill="#f2f2f2" fill-rule="evenodd"/>
  <path d="M 32 399 L 32 412 L 45 412 L 45 399 Z" fill="#f2f2f2" fill-rule="evenodd"/>
  <path d="M 485 384 L 485 397 L 498 397 L 498 384 Z" fill="#f2f2f2" fill-rule="evenodd"/>
  <path d="M 397 384 L 397 397 L 410 397 L 410 384 Z" fill="#f2f2f2" fill-rule="evenodd"/>
  <path d="M 163 384 L 163 397 L 176 397 L 176 384 Z" fill="#f2f2f2" fill-rule="evenodd"/>
  <path d="M 134 384 L 134 397 L 147 397 L 147 384 Z" fill="#f2f2f2" fill-rule="evenodd"/>
  <path d="M 17 384 L 17 397 L 30 397 L 30 384 Z" fill="#f2f2f2" fill-rule="evenodd"/>
  <path d="M 485 355 L 485 368 L 498 368 L 498 355 Z" fill="#f2f2f2" fill-rule="evenodd"/>
  <path d="M 397 355 L 397 368 L 410 368 L 410 355 Z" fill="#f2f2f2" fill-rule="evenodd"/>
  <path d="M 105 355 L 105 368 L 118 368 L 118 355 Z" fill="#f2f2f2" fill-rule="evenodd"/>
  <path d="M 17 355 L 17 368 L 30 368 L 30 355 Z" fill="#f2f2f2" fill-rule="evenodd"/>
  <path d="M 441 340 L 441 353 L 454 353 L 454 340 Z" fill="#f2f2f2" fill-rule="evenodd"/>
  <path d="M 441 311 L 441 324 L 454 324 L 454 311 Z" fill="#f2f2f2" fill-rule="evenodd"/>
  <path d="M 485 296 L 485 309 L 498 309 L 498 296 Z" fill="#f2f2f2" fill-rule="evenodd"/>
  <path d="M 456 296 L 456 309 L 469 309 L 469 296 Z" fill="#f2f2f2" fill-rule="evenodd"/>
  <path d="M 397 296 L 397 309 L 410 309 L 410 296 Z" fill="#f2f2f2" fill-rule="evenodd"/>
  <path d="M 46 296 L 46 309 L 59 309 L 59 296 Z" fill="#f2f2f2" fill-rule="evenodd"/>
  <path d="M 17 296 L 17 309 L 30 309 L 30 296 Z" fill="#f2f2f2" fill-rule="evenodd"/>
  <path d="M 485 267 L 485 280 L 498 280 L 498 267 Z" fill="#f2f2f2" fill-rule="evenodd"/>
  <path d="M 17 267 L 17 280 L 30 280 L 30 267 Z" fill="#f2f2f2" fill-rule="evenodd"/>
  <path d="M 470 252 L 470 265 L 483 265 L 483 252 Z" fill="#f2f2f2" fill-rule="evenodd"/>
  <path d="M 441 252 L 441 265 L 454 265 L 454 252 Z" fill="#f2f2f2" fill-rule="evenodd"/>
  <path d="M 90 252 L 90 265 L 103 265 L 103 252 Z" fill="#f2f2f2" fill-rule="evenodd"/>
  <path d="M 441 223 L 441 236 L 454 236 L 454 223 Z" fill="#f2f2f2" fill-rule="evenodd"/>
  <path d="M 485 208 L 485 221 L 498 221 L 498 208 Z" fill="#f2f2f2" fill-rule="evenodd"/>
  <path d="M 397 208 L 397 221 L 410 221 L 410 208 Z" fill="#f2f2f2" fill-rule="evenodd"/>
  <path d="M 134 208 L 134 221 L 147 221 L 147 208 Z" fill="#f2f2f2" fill-rule="evenodd"/>
  <path d="M 17 208 L 17 221 L 30 221 L 30 208 Z" fill="#f2f2f2" fill-rule="evenodd"/>
  <path d="M 485 179 L 485 192 L 498 192 L 498 179 Z" fill="#f2f2f2" fill-rule="evenodd"/>
  <path d="M 470 164 L 470 177 L 483 177 L 483 164 Z" fill="#f2f2f2" fill-rule="evenodd"/>
  <path d="M 441 164 L 441 177 L 454 177 L 454 164 Z" fill="#f2f2f2" fill-rule="evenodd"/>
  <path d="M 149 164 L 149 177 L 162 177 L 162 164 Z" fill="#f2f2f2" fill-rule="evenodd"/>
  <path d="M 119 164 L 119 177 L 132 177 L 132 164 Z" fill="#f2f2f2" fill-rule="evenodd"/>
  <path d="M 90 164 L 90 177 L 103 177 L 103 164 Z" fill="#f2f2f2" fill-rule="evenodd"/>
  <path d="M 61 164 L 61 177 L 74 177 L 74 164 Z" fill="#f2f2f2" fill-rule="evenodd"/>
  <path d="M 485 149 L 485 162 L 498 162 L 498 149 Z" fill="#f2f2f2" fill-rule="evenodd"/>
  <path d="M 134 149 L 134 162 L 147 162 L 147 149 Z" fill="#f2f2f2" fill-rule="evenodd"/>
  <path d="M 441 135 L 441 148 L 454 148 L 454 135 Z" fill="#f2f2f2" fill-rule="evenodd"/>
  <path d="M 485 120 L 485 133 L 498 133 L 498 120 Z" fill="#f2f2f2" fill-rule="evenodd"/>
  <path d="M 456 120 L 456 133 L 469 133 L 469 120 Z" fill="#f2f2f2" fill-rule="evenodd"/>
  <path d="M 163 120 L 163 133 L 176 133 L 176 120 Z" fill="#f2f2f2" fill-rule="evenodd"/>
  <path d="M 134 120 L 134 133 L 147 133 L 147 120 Z" fill="#f2f2f2" fill-rule="evenodd"/>
  <path d="M 105 120 L 105 133 L 118 133 L 118 120 Z" fill="#f2f2f2" fill-rule="evenodd"/>
  <path d="M 46 120 L 46 133 L 59 133 L 59 120 Z" fill="#f2f2f2" fill-rule="evenodd"/>
  <path d="M 17 120 L 17 133 L 30 133 L 30 120 Z" fill="#f2f2f2" fill-rule="evenodd"/>
  <path d="M 441 105 L 441 118 L 454 118 L 454 105 Z" fill="#f2f2f2" fill-rule="evenodd"/>
  <path d="M 90 105 L 90 118 L 103 118 L 103 105 Z" fill="#f2f2f2" fill-rule="evenodd"/>
  <path d="M 485 91 L 485 104 L 498 104 L 498 91 Z" fill="#f2f2f2" fill-rule="evenodd"/>
  <path d="M 134 91 L 134 104 L 147 104 L 147 91 Z" fill="#f2f2f2" fill-rule="evenodd"/>
  <path d="M 470 76 L 470 89 L 483 89 L 483 76 Z" fill="#f2f2f2" fill-rule="evenodd"/>
  <path d="M 441 76 L 441 89 L 454 89 L 454 76 Z" fill="#f2f2f2" fill-rule="evenodd"/>
  <path d="M 412 76 L 412 89 L 425 89 L 425 76 Z" fill="#f2f2f2" fill-rule="evenodd"/>
  <path d="M 353 76 L 353 89 L 366 89 L 366 76 Z" fill="#f2f2f2" fill-rule="evenodd"/>
  <path d="M 324 76 L 324 89 L 337 89 L 337 76 Z" fill="#f2f2f2" fill-rule="evenodd"/>
  <path d="M 295 76 L 295 89 L 308 89 L 308 76 Z" fill="#f2f2f2" fill-rule="evenodd"/>
  <path d="M 236 76 L 236 89 L 249 89 L 249 76 Z" fill="#f2f2f2" fill-rule="evenodd"/>
  <path d="M 207 76 L 207 89 L 220 89 L 220 76 Z" fill="#f2f2f2" fill-rule="evenodd"/>
  <path d="M 178 76 L 178 89 L 191 89 L 191 76 Z" fill="#f2f2f2" fill-rule="evenodd"/>
  <path d="M 149 76 L 149 89 L 162 89 L 162 76 Z" fill="#f2f2f2" fill-rule="evenodd"/>
  <path d="M 119 76 L 119 89 L 132 89 L 132 76 Z" fill="#f2f2f2" fill-rule="evenodd"/>
  <path d="M 90 76 L 90 89 L 103 89 L 103 76 Z" fill="#f2f2f2" fill-rule="evenodd"/>
  <path d="M 61 76 L 61 89 L 74 89 L 74 76 Z" fill="#f2f2f2" fill-rule="evenodd"/>
  <path d="M 485 61 L 485 74 L 498 74 L 498 61 Z" fill="#f2f2f2" fill-rule="evenodd"/>
  <path d="M 17 61 L 17 74 L 30 74 L 30 61 Z" fill="#f2f2f2" fill-rule="evenodd"/>
  <path d="M 485 32 L 485 45 L 498 45 L 498 32 Z" fill="#f2f2f2" fill-rule="evenodd"/>
  <path d="M 134 32 L 134 45 L 147 45 L 147 32 Z" fill="#f2f2f2" fill-rule="evenodd"/>
  <path d="M 17 32 L 17 45 L 30 45 L 30 32 Z" fill="#f2f2f2" fill-rule="evenodd"/>
  <path d="M 470 17 L 470 30 L 483 30 L 483 17 Z" fill="#f2f2f2" fill-rule="evenodd"/>
  <path d="M 441 17 L 441 30 L 454 30 L 454 17 Z" fill="#f2f2f2" fill-rule="evenodd"/>
  <path d="M 412 17 L 412 30 L 425 30 L 425 17 Z" fill="#f2f2f2" fill-rule="evenodd"/>
  <path d="M 353 17 L 353 30 L 366 30 L 366 17 Z" fill="#f2f2f2" fill-rule="evenodd"/>
  <path d="M 324 17 L 324 30 L 337 30 L 337 17 Z" fill="#f2f2f2" fill-rule="evenodd"/>
  <path d="M 295 17 L 295 30 L 308 30 L 308 17 Z" fill="#f2f2f2" fill-rule="evenodd"/>
  <path d="M 236 17 L 236 30 L 249 30 L 249 17 Z" fill="#f2f2f2" fill-rule="evenodd"/>
  <path d="M 207 17 L 207 30 L 220 30 L 220 17 Z" fill="#f2f2f2" fill-rule="evenodd"/>
  <path d="M 119 17 L 119 30 L 132 30 L 132 17 Z" fill="#f2f2f2" fill-rule="evenodd"/>
  <path d="M 90 17 L 90 30 L 103 30 L 103 17 Z" fill="#f2f2f2" fill-rule="evenodd"/>
  <path d="M 61 17 L 61 30 L 74 30 L 74 17 Z" fill="#f2f2f2" fill-rule="evenodd"/>
  <path d="M 485 487 L 485 500 L 498 500 L 498 487 Z" fill="#fefefe" fill-rule="evenodd"/>
  <path d="M 134 487 L 134 500 L 147 500 L 147 487 Z" fill="#fefefe" fill-rule="evenodd"/>
  <path d="M 17 487 L 17 500 L 30 500 L 30 487 Z" fill="#fefefe" fill-rule="evenodd"/>
  <path d="M 441 472 L 441 485 L 454 485 L 454 472 Z" fill="#fefefe" fill-rule="evenodd"/>
  <path d="M 324 472 L 324 485 L 337 485 L 337 472 Z" fill="#fefefe" fill-rule="evenodd"/>
  <path d="M 353 443 L 353 456 L 366 456 L 366 443 Z" fill="#fefefe" fill-rule="evenodd"/>
  <path d="M 485 428 L 485 441 L 498 441 L 498 428 Z" fill="#fefefe" fill-rule="evenodd"/>
  <path d="M 163 428 L 163 441 L 176 441 L 176 428 Z" fill="#fefefe" fill-rule="evenodd"/>
  <path d="M 17 428 L 17 441 L 30 441 L 30 428 Z" fill="#fefefe" fill-rule="evenodd"/>
  <path d="M 485 399 L 485 412 L 498 412 L 498 399 Z" fill="#fefefe" fill-rule="evenodd"/>
  <path d="M 134 399 L 134 412 L 147 412 L 147 399 Z" fill="#fefefe" fill-rule="evenodd"/>
  <path d="M 17 399 L 17 412 L 30 412 L 30 399 Z" fill="#fefefe" fill-rule="evenodd"/>
  <path d="M 441 384 L 441 397 L 454 397 L 454 384 Z" fill="#fefefe" fill-rule="evenodd"/>
  <path d="M 324 384 L 324 397 L 337 397 L 337 384 Z" fill="#fefefe" fill-rule="evenodd"/>
  <path d="M 441 355 L 441 368 L 454 368 L 454 355 Z" fill="#fefefe" fill-rule="evenodd"/>
  <path d="M 485 340 L 485 353 L 498 353 L 498 340 Z" fill="#fefefe" fill-rule="evenodd"/>
  <path d="M 397 340 L 397 353 L 410 353 L 410 340 Z" fill="#fefefe" fill-rule="evenodd"/>
  <path d="M 105 340 L 105 353 L 118 353 L 118 340 Z" fill="#fefefe" fill-rule="evenodd"/>
  <path d="M 17 340 L 17 353 L 30 353 L 30 340 Z" fill="#fefefe" fill-rule="evenodd"/>
  <path d="M 485 311 L 485 324 L 498 324 L 498 311 Z" fill="#fefefe" fill-rule="evenodd"/>
  <path d="M 397 311 L 397 324 L 410 324 L 410 311 Z" fill="#fefefe" fill-rule="evenodd"/>
  <path d="M 17 311 L 17 324 L 30 324 L 30 311 Z" fill="#fefefe" fill-rule="evenodd"/>
  <path d="M 441 296 L 441 309 L 454 309 L 454 296 Z" fill="#fefefe" fill-rule="evenodd"/>
  <path d="M 441 267 L 441 280 L 454 280 L 454 267 Z" fill="#fefefe" fill-rule="evenodd"/>
  <path d="M 485 252 L 485 265 L 498 265 L 498 252 Z" fill="#fefefe" fill-rule="evenodd"/>
  <path d="M 134 252 L 134 265 L 147 265 L 147 252 Z" fill="#fefefe" fill-rule="evenodd"/>
  <path d="M 485 223 L 485 236 L 498 236 L 498 223 Z" fill="#fefefe" fill-rule="evenodd"/>
  <path d="M 397 223 L 397 236 L 410 236 L 410 223 Z" fill="#fefefe" fill-rule="evenodd"/>
  <path d="M 134 223 L 134 236 L 147 236 L 147 223 Z" fill="#fefefe" fill-rule="evenodd"/>
  <path d="M 17 223 L 17 236 L 30 236 L 30 223 Z" fill="#fefefe" fill-rule="evenodd"/>
  <path d="M 441 208 L 441 221 L 454 221 L 454 208 Z" fill="#fefefe" fill-rule="evenodd"/>
  <path d="M 119 208 L 119 221 L 132 221 L 132 208 Z" fill="#fefefe" fill-rule="evenodd"/>
  <path d="M 90 208 L 90 221 L 103 221 L 103 208 Z" fill="#fefefe" fill-rule="evenodd"/>
  <path d="M 61 208 L 61 221 L 74 221 L 74 208 Z" fill="#fefefe" fill-rule="evenodd"/>
  <path d="M 32 208 L 32 221 L 45 221 L 45 208 Z" fill="#fefefe" fill-rule="evenodd"/>
  <path d="M 441 179 L 441 192 L 454 192 L 454 179 Z" fill="#fefefe" fill-rule="evenodd"/>
  <path d="M 485 164 L 485 177 L 498 177 L 498 164 Z" fill="#fefefe" fill-rule="evenodd"/>
  <path d="M 456 164 L 456 177 L 469 177 L 469 164 Z" fill="#fefefe" fill-rule="evenodd"/>
  <path d="M 426 164 L 426 177 L 439 177 L 439 164 Z" fill="#fefefe" fill-rule="evenodd"/>
  <path d="M 134 164 L 134 177 L 147 177 L 147 164 Z" fill="#fefefe" fill-rule="evenodd"/>
  <path d="M 105 164 L 105 177 L 118 177 L 118 164 Z" fill="#fefefe" fill-rule="evenodd"/>
  <path d="M 46 164 L 46 177 L 59 177 L 59 164 Z" fill="#fefefe" fill-rule="evenodd"/>
  <path d="M 17 164 L 17 177 L 30 177 L 30 164 Z" fill="#fefefe" fill-rule="evenodd"/>
  <path d="M 90 149 L 90 162 L 103 162 L 103 149 Z" fill="#fefefe" fill-rule="evenodd"/>
  <path d="M 485 135 L 485 148 L 498 148 L 498 135 Z" fill="#fefefe" fill-rule="evenodd"/>
  <path d="M 134 135 L 134 148 L 147 148 L 147 135 Z" fill="#fefefe" fill-rule="evenodd"/>
  <path d="M 17 135 L 17 148 L 30 148 L 30 135 Z" fill="#fefefe" fill-rule="evenodd"/>
  <path d="M 470 120 L 470 133 L 483 133 L 483 120 Z" fill="#fefefe" fill-rule="evenodd"/>
  <path d="M 441 120 L 441 133 L 454 133 L 454 120 Z" fill="#fefefe" fill-rule="evenodd"/>
  <path d="M 412 120 L 412 133 L 425 133 L 425 120 Z" fill="#fefefe" fill-rule="evenodd"/>
  <path d="M 178 120 L 178 133 L 191 133 L 191 120 Z" fill="#fefefe" fill-rule="evenodd"/>
  <path d="M 149 120 L 149 133 L 162 133 L 162 120 Z" fill="#fefefe" fill-rule="evenodd"/>
  <path d="M 119 120 L 119 133 L 132 133 L 132 120 Z" fill="#fefefe" fill-rule="evenodd"/>
  <path d="M 90 120 L 90 133 L 103 133 L 103 120 Z" fill="#fefefe" fill-rule="evenodd"/>
  <path d="M 61 120 L 61 133 L 74 133 L 74 120 Z" fill="#fefefe" fill-rule="evenodd"/>
  <path d="M 485 105 L 485 118 L 498 118 L 498 105 Z" fill="#fefefe" fill-rule="evenodd"/>
  <path d="M 134 105 L 134 118 L 147 118 L 147 105 Z" fill="#fefefe" fill-rule="evenodd"/>
  <path d="M 485 76 L 485 89 L 498 89 L 498 76 Z" fill="#fefefe" fill-rule="evenodd"/>
  <path d="M 222 76 L 222 89 L 235 89 L 235 76 Z" fill="#fefefe" fill-rule="evenodd"/>
  <path d="M 134 76 L 134 89 L 147 89 L 147 76 Z" fill="#fefefe" fill-rule="evenodd"/>
  <path d="M 441 61 L 441 74 L 454 74 L 454 61 Z" fill="#fefefe" fill-rule="evenodd"/>
  <path d="M 324 61 L 324 74 L 337 74 L 337 61 Z" fill="#fefefe" fill-rule="evenodd"/>
  <path d="M 178 61 L 178 74 L 191 74 L 191 61 Z" fill="#fefefe" fill-rule="evenodd"/>
  <path d="M 149 61 L 149 74 L 162 74 L 162 61 Z" fill="#fefefe" fill-rule="evenodd"/>
  <path d="M 441 32 L 441 45 L 454 45 L 454 32 Z" fill="#fefefe" fill-rule="evenodd"/>
  <path d="M 324 32 L 324 45 L 337 45 L 337 32 Z" fill="#fefefe" fill-rule="evenodd"/>
  <path d="M 485 17 L 485 30 L 498 30 L 498 17 Z" fill="#fefefe" fill-rule="evenodd"/>
  <path d="M 456 17 L 456 30 L 469 30 L 469 17 Z" fill="#fefefe" fill-rule="evenodd"/>
  <path d="M 426 17 L 426 30 L 439 30 L 439 17 Z" fill="#fefefe" fill-rule="evenodd"/>
  <path d="M 309 17 L 309 30 L 322 30 L 322 17 Z" fill="#fefefe" fill-rule="evenodd"/>
  <path d="M 280 17 L 280 30 L 293 30 L 293 17 Z" fill="#fefefe" fill-rule="evenodd"/>
  <path d="M 251 17 L 251 30 L 264 30 L 264 17 Z" fill="#fefefe" fill-rule="evenodd"/>
  <path d="M 134 17 L 134 30 L 147 30 L 147 17 Z" fill="#fefefe" fill-rule="evenodd"/>
  <path d="M 105 17 L 105 30 L 118 30 L 118 17 Z" fill="#fefefe" fill-rule="evenodd"/>
  <path d="M 17 17 L 17 30 L 30 30 L 30 17 Z" fill="#fefefe" fill-rule="evenodd"/>
  <path d="M 149 399 L 149 412 L 161 412 L 162 399 Z" fill="#f2f2f2" fill-rule="evenodd"/>
  <path d="M 278 364 L 266 364 L 264 369 L 251 369 L 251 378 L 264 378 L 264 369 L 278 368 Z" fill="#fefefe" fill-rule="evenodd"/>
  <path d="M 17 414 L 17 426 L 30 426 L 30 414 Z" fill="#f2f2f2" fill-rule="evenodd"/>
  <path d="M 149 179 L 149 192 L 160 192 L 162 187 L 162 179 Z" fill="#fefefe" fill-rule="evenodd"/>
  <path d="M 414 164 L 412 166 L 412 177 L 425 177 L 425 164 Z" fill="#f2f2f2" fill-rule="evenodd"/>
  <path d="M 178 135 L 178 148 L 187 148 L 191 144 L 191 135 Z" fill="#f2f2f2" fill-rule="evenodd"/>
  <path d="M 222 91 L 222 104 L 231 104 L 235 99 L 235 91 Z" fill="#f2f2f2" fill-rule="evenodd"/>
  <path d="M 500 46 L 500 60 L 511 60 L 511 46 Z" fill="#f2f2f2" fill-rule="evenodd"/>
  <path d="M 500 413 L 500 427 L 511 427 L 511 413 Z" fill="#fefefe" fill-rule="evenodd"/>
  <path d="M 500 325 L 500 339 L 511 339 L 511 325 Z" fill="#fefefe" fill-rule="evenodd"/>
  <path d="M 500 237 L 500 251 L 511 251 L 511 237 Z" fill="#fefefe" fill-rule="evenodd"/>
  <path d="M 500 90 L 500 104 L 511 104 L 511 90 Z" fill="#fefefe" fill-rule="evenodd"/>
  <path d="M 500 369 L 500 383 L 511 383 L 511 370 Z" fill="#f2f2f2" fill-rule="evenodd"/>
  <path d="M 0 501 L 0 511 L 15 511 L 15 501 Z" fill="#fefefe" fill-rule="evenodd"/>
  <path d="M 207 369 L 207 382 L 215 383 L 215 379 L 217 377 L 220 377 L 220 369 Z" fill="#f2f2f2" fill-rule="evenodd"/>
  <path d="M 500 281 L 500 295 L 511 295 L 511 281 Z" fill="#f2f2f2" fill-rule="evenodd"/>
  <path d="M 500 457 L 500 471 L 511 470 L 511 457 Z" fill="#f2f2f2" fill-rule="evenodd"/>
  <path d="M 222 365 L 222 368 L 235 368 L 237 378 L 249 377 L 249 369 L 239 370 L 236 369 L 235 365 L 233 364 Z" fill="#f2f2f2" fill-rule="evenodd"/>
  <path d="M 500 193 L 500 207 L 511 206 L 511 193 Z" fill="#f2f2f2" fill-rule="evenodd"/>
  <path d="M 387 340 L 382 353 L 396 353 L 395 340 Z" fill="#f2f2f2" fill-rule="evenodd"/>
  <path d="M 134 296 L 134 309 L 142 309 L 142 307 L 147 301 L 147 296 Z" fill="#f2f2f2" fill-rule="evenodd"/>
  <path d="M 500 487 L 500 500 L 511 500 L 511 487 Z" fill="#f2f2f2" fill-rule="evenodd"/>
  <path d="M 500 428 L 500 441 L 511 441 L 511 428 Z" fill="#f2f2f2" fill-rule="evenodd"/>
  <path d="M 500 399 L 500 412 L 511 412 L 511 399 Z" fill="#f2f2f2" fill-rule="evenodd"/>
  <path d="M 500 340 L 500 353 L 511 353 L 511 340 Z" fill="#f2f2f2" fill-rule="evenodd"/>
  <path d="M 500 311 L 500 324 L 511 324 L 511 311 Z" fill="#f2f2f2" fill-rule="evenodd"/>
  <path d="M 500 252 L 500 265 L 511 265 L 511 252 Z" fill="#f2f2f2" fill-rule="evenodd"/>
  <path d="M 500 223 L 500 236 L 511 236 L 511 223 Z" fill="#f2f2f2" fill-rule="evenodd"/>
  <path d="M 500 164 L 500 177 L 511 177 L 511 164 Z" fill="#f2f2f2" fill-rule="evenodd"/>
  <path d="M 500 135 L 500 148 L 511 148 L 511 135 Z" fill="#f2f2f2" fill-rule="evenodd"/>
  <path d="M 500 105 L 500 118 L 511 118 L 511 105 Z" fill="#f2f2f2" fill-rule="evenodd"/>
  <path d="M 500 76 L 500 89 L 511 89 L 511 76 Z" fill="#f2f2f2" fill-rule="evenodd"/>
  <path d="M 500 17 L 500 30 L 511 30 L 511 17 Z" fill="#f2f2f2" fill-rule="evenodd"/>
  <path d="M 500 472 L 500 485 L 511 485 L 511 472 Z" fill="#fefefe" fill-rule="evenodd"/>
  <path d="M 500 443 L 500 456 L 511 456 L 511 443 Z" fill="#fefefe" fill-rule="evenodd"/>
  <path d="M 500 384 L 500 397 L 511 397 L 511 384 Z" fill="#fefefe" fill-rule="evenodd"/>
  <path d="M 500 355 L 500 368 L 511 368 L 511 355 Z" fill="#fefefe" fill-rule="evenodd"/>
  <path d="M 500 296 L 500 309 L 511 309 L 511 296 Z" fill="#fefefe" fill-rule="evenodd"/>
  <path d="M 500 267 L 500 280 L 511 280 L 511 267 Z" fill="#fefefe" fill-rule="evenodd"/>
  <path d="M 500 208 L 500 221 L 511 221 L 511 208 Z" fill="#fefefe" fill-rule="evenodd"/>
  <path d="M 500 179 L 500 192 L 511 192 L 511 179 Z" fill="#fefefe" fill-rule="evenodd"/>
  <path d="M 500 149 L 500 162 L 511 162 L 511 149 Z" fill="#fefefe" fill-rule="evenodd"/>
  <path d="M 500 120 L 500 133 L 511 133 L 511 120 Z" fill="#fefefe" fill-rule="evenodd"/>
  <path d="M 500 61 L 500 74 L 511 74 L 511 61 Z" fill="#fefefe" fill-rule="evenodd"/>
  <path d="M 500 32 L 500 45 L 511 45 L 511 32 Z" fill="#fefefe" fill-rule="evenodd"/>
  <path d="M 485 501 L 485 511 L 498 511 L 498 501 Z" fill="#f2f2f2" fill-rule="evenodd"/>
  <path d="M 397 501 L 397 511 L 410 511 L 410 501 Z" fill="#f2f2f2" fill-rule="evenodd"/>
  <path d="M 134 501 L 134 511 L 147 511 L 147 501 Z" fill="#f2f2f2" fill-rule="evenodd"/>
  <path d="M 17 501 L 17 511 L 30 511 L 30 501 Z" fill="#f2f2f2" fill-rule="evenodd"/>
  <path d="M 441 501 L 441 511 L 454 511 L 454 501 Z" fill="#fefefe" fill-rule="evenodd"/>
  <path d="M 324 501 L 324 511 L 337 511 L 337 501 Z" fill="#fefefe" fill-rule="evenodd"/>
  <path d="M 207 501 L 207 511 L 220 511 L 220 501 Z" fill="#fefefe" fill-rule="evenodd"/>
  <path d="M 207 120 L 207 133 L 220 127 L 220 120 Z" fill="#fefefe" fill-rule="evenodd"/>
  <path d="M 193 501 L 192 511 L 205 511 L 205 501 Z" fill="#f2f2f2" fill-rule="evenodd"/>
  <path d="M 339 90 L 338 101 L 352 100 L 352 91 Z" fill="#f2f2f2" fill-rule="evenodd"/>
  <path d="M 386 325 L 385 329 L 386 333 L 388 334 L 388 339 L 395 339 L 395 325 Z" fill="#fefefe" fill-rule="evenodd"/>
  <path d="M 282 105 L 285 117 L 293 118 L 293 105 Z" fill="#fefefe" fill-rule="evenodd"/>
  <path d="M 397 120 L 405 133 L 410 133 L 410 120 Z" fill="#f2f2f2" fill-rule="evenodd"/>
  <path d="M 280 369 L 281 378 L 292 378 L 293 369 Z" fill="#fefefe" fill-rule="evenodd"/>
  <path d="M 264 416 L 262 418 L 251 418 L 251 426 L 264 426 Z" fill="#f2f2f2" fill-rule="evenodd"/>
  <path d="M 500 501 L 500 511 L 511 511 L 511 501 Z" fill="#fefefe" fill-rule="evenodd"/>
  <path d="M 358 238 L 358 250 L 366 250 L 366 237 Z" fill="#fefefe" fill-rule="evenodd"/>
  <path d="M 358 267 L 358 280 L 366 280 L 366 267 Z" fill="#fefefe" fill-rule="evenodd"/>
</svg>
