<svg xmlns="http://www.w3.org/2000/svg" width="512" height="512" viewBox="0 0 512 512" fill="none">
  <path d="M 238 77 L 219 89 L 207 132 L 186 138 L 148 120 L 116 146 L 111 165 L 130 205 L 117 219 L 78 230 L 74 280 L 86 296 L 128 309 L 130 324 L 111 360 L 138 395 L 162 399 L 198 382 L 213 392 L 225 434 L 278 439 L 296 427 L 308 386 L 325 381 L 365 400 L 399 373 L 404 354 L 385 313 L 397 300 L 436 290 L 441 239 L 431 224 L 387 210 L 385 194 L 404 159 L 379 125 L 358 120 L 322 138 L 302 126 L 288 81 Z M 249 198 L 271 199 L 292 208 L 311 228 L 319 249 L 319 270 L 316 281 L 307 297 L 289 313 L 267 321 L 243 320 L 220 309 L 204 291 L 196 270 L 196 249 L 206 225 L 226 206 Z" fill="#283451" fill-rule="evenodd"/>
  <path d="M 249 198 L 271 199 L 292 208 L 311 228 L 319 249 L 319 270 L 316 281 L 307 297 L 289 313 L 267 321 L 243 320 L 220 309 L 204 291 L 196 270 L 196 249 L 206 225 L 226 206 Z" fill="#283451" fill-rule="evenodd"/>
  <path d="M 253 199 L 241 201 L 227 207 L 209 223 L 198 246 L 197 268 L 206 292 L 222 309 L 241 318 L 263 320 L 280 316 L 293 309 L 309 292 L 317 273 L 318 252 L 310 229 L 294 211 L 277 202 Z" fill="#c79a5c" fill-rule="evenodd"/>
  <path d="M 71 86 L 71 98 L 58 99 L 56 113 L 44 113 L 44 126 L 56 126 L 57 112 L 71 113 L 71 126 L 58 127 L 56 141 L 44 141 L 44 154 L 56 154 L 57 167 L 64 168 L 70 167 L 71 154 L 84 154 L 85 167 L 95 168 L 98 167 L 98 155 L 110 153 L 112 141 L 119 140 L 125 135 L 127 126 L 139 121 L 139 113 L 127 113 L 126 127 L 113 127 L 112 113 L 125 112 L 125 99 L 113 99 L 112 86 L 99 86 L 98 99 L 85 99 L 84 86 Z M 84 141 L 98 140 L 99 154 L 85 155 Z M 56 141 L 70 140 L 71 154 L 57 155 Z M 98 127 L 112 126 L 113 140 L 99 141 Z M 70 127 L 84 126 L 85 140 L 71 141 Z M 84 113 L 98 112 L 99 126 L 85 127 Z M 98 99 L 112 98 L 113 112 L 99 113 Z M 70 99 L 84 98 L 85 112 L 71 113 Z" fill="#f3f3f3" fill-rule="evenodd"/>
  <path d="M 44 362 L 44 375 L 56 375 L 57 361 L 71 362 L 71 375 L 58 376 L 56 390 L 44 390 L 44 403 L 56 403 L 57 389 L 71 390 L 71 403 L 58 404 L 58 416 L 70 416 L 70 404 L 84 402 L 85 389 L 99 390 L 99 403 L 85 404 L 85 416 L 98 416 L 99 403 L 112 403 L 113 416 L 125 416 L 125 404 L 112 403 L 113 389 L 126 389 L 127 402 L 139 403 L 141 416 L 153 416 L 153 404 L 140 404 L 139 398 L 112 375 L 109 362 L 98 361 L 98 348 L 110 347 L 112 335 L 99 335 L 99 347 L 95 349 L 84 347 L 84 335 L 71 335 L 71 347 L 58 349 L 56 362 Z M 98 376 L 112 375 L 113 389 L 99 390 Z M 70 376 L 84 375 L 85 389 L 71 390 Z M 84 362 L 98 361 L 99 375 L 85 376 Z M 70 348 L 84 347 L 85 361 L 71 362 Z" fill="#f3f3f3" fill-rule="evenodd"/>
  <path d="M 302 418 L 298 430 L 306 431 L 306 444 L 293 445 L 291 459 L 279 459 L 279 472 L 291 472 L 292 458 L 306 459 L 306 472 L 293 473 L 293 485 L 305 485 L 306 472 L 319 472 L 320 485 L 333 485 L 334 472 L 347 472 L 348 486 L 334 487 L 334 499 L 347 499 L 348 511 L 360 511 L 360 501 L 347 499 L 347 487 L 360 485 L 360 473 L 347 472 L 347 459 L 360 458 L 362 444 L 374 444 L 374 431 L 362 432 L 361 445 L 348 445 L 347 432 L 338 431 L 334 432 L 333 445 L 320 445 L 319 431 L 333 430 L 333 418 L 320 418 L 320 430 L 313 432 L 305 430 L 305 418 Z M 319 459 L 333 458 L 334 472 L 320 473 Z M 333 445 L 347 444 L 348 458 L 334 459 Z M 305 445 L 319 444 L 320 458 L 306 459 Z" fill="#f3f3f3" fill-rule="evenodd"/>
  <path d="M 376 86 L 374 99 L 362 99 L 362 112 L 374 112 L 375 98 L 388 98 L 389 112 L 376 113 L 376 121 L 388 126 L 388 113 L 402 112 L 403 126 L 390 127 L 389 132 L 396 140 L 403 141 L 405 154 L 417 155 L 417 167 L 430 167 L 430 155 L 443 154 L 443 141 L 430 140 L 430 127 L 443 126 L 443 113 L 430 112 L 430 99 L 443 98 L 443 86 L 431 86 L 430 99 L 417 99 L 416 86 L 403 86 L 402 99 L 389 99 L 388 86 Z M 416 141 L 430 140 L 431 154 L 417 155 Z M 402 127 L 416 126 L 417 140 L 403 141 Z M 416 113 L 430 112 L 431 126 L 417 127 Z M 402 99 L 416 98 L 417 112 L 403 113 Z" fill="#f3f3f3" fill-rule="evenodd"/>
  <path d="M 459 86 L 459 98 L 472 99 L 472 112 L 459 113 L 459 126 L 472 127 L 472 140 L 459 141 L 458 154 L 445 155 L 445 167 L 457 167 L 458 154 L 471 154 L 472 168 L 459 169 L 459 181 L 471 181 L 471 169 L 485 167 L 486 154 L 499 154 L 500 167 L 511 167 L 511 155 L 499 154 L 499 141 L 511 140 L 511 127 L 499 126 L 499 113 L 511 112 L 511 99 L 499 98 L 499 86 L 486 86 L 486 98 L 479 100 L 471 98 L 471 86 Z M 471 141 L 485 140 L 487 148 L 486 154 L 472 155 Z M 485 127 L 499 126 L 500 140 L 486 141 Z M 471 113 L 485 112 L 486 126 L 472 127 Z M 485 99 L 499 98 L 500 112 L 486 113 Z" fill="#f3f3f3" fill-rule="evenodd"/>
  <path d="M 279 16 L 279 29 L 291 29 L 293 36 L 291 44 L 279 44 L 279 57 L 291 56 L 292 43 L 305 43 L 306 56 L 319 56 L 320 43 L 333 43 L 334 56 L 347 56 L 347 44 L 360 43 L 360 30 L 347 29 L 347 16 L 360 15 L 361 0 L 348 0 L 347 16 L 333 15 L 333 0 L 320 0 L 319 16 L 305 15 L 305 0 L 293 0 L 292 15 Z M 333 30 L 347 29 L 348 43 L 334 44 Z M 305 30 L 319 29 L 320 43 L 306 44 Z M 319 16 L 333 15 L 334 29 L 320 30 Z M 291 16 L 305 15 L 306 29 L 292 30 Z" fill="#f3f3f3" fill-rule="evenodd"/>
  <path d="M 44 485 L 56 485 L 57 472 L 70 472 L 71 485 L 84 485 L 85 472 L 98 472 L 99 485 L 112 485 L 112 473 L 125 472 L 127 458 L 139 458 L 139 445 L 127 445 L 126 459 L 113 459 L 112 445 L 125 444 L 125 432 L 112 430 L 112 418 L 99 418 L 99 430 L 113 431 L 112 445 L 99 445 L 98 432 L 84 430 L 84 418 L 71 418 L 71 430 L 85 431 L 85 444 L 71 445 L 70 432 L 58 431 L 58 444 L 71 445 L 71 458 L 58 459 L 57 472 L 44 473 Z M 98 459 L 112 458 L 113 472 L 99 473 Z M 70 459 L 84 458 L 85 472 L 71 473 Z M 84 445 L 98 444 L 99 458 L 85 459 Z" fill="#f3f3f3" fill-rule="evenodd"/>
  <path d="M 376 418 L 376 430 L 389 431 L 389 444 L 376 445 L 376 458 L 389 459 L 389 472 L 376 473 L 376 485 L 388 485 L 389 472 L 402 472 L 403 485 L 416 485 L 416 473 L 429 472 L 431 458 L 443 458 L 443 445 L 431 445 L 429 441 L 431 430 L 443 430 L 443 418 L 431 418 L 431 430 L 423 432 L 416 430 L 416 418 L 403 418 L 403 430 L 400 432 L 388 430 L 388 418 Z M 402 459 L 416 458 L 417 472 L 403 473 Z M 416 445 L 430 444 L 431 458 L 417 459 Z M 388 445 L 402 444 L 403 458 L 389 459 Z M 402 431 L 416 430 L 417 444 L 403 445 Z" fill="#f3f3f3" fill-rule="evenodd"/>
  <path d="M 195 418 L 182 418 L 182 430 L 196 431 L 195 445 L 182 445 L 181 432 L 177 431 L 168 432 L 167 445 L 154 445 L 153 432 L 141 432 L 141 444 L 154 445 L 154 458 L 141 459 L 141 472 L 153 472 L 154 485 L 167 485 L 168 472 L 181 472 L 182 485 L 195 485 L 195 473 L 208 472 L 208 459 L 195 458 L 195 445 L 208 444 L 208 432 L 195 430 Z M 181 459 L 195 458 L 196 472 L 182 473 Z M 153 459 L 167 458 L 168 472 L 154 473 Z M 167 445 L 181 444 L 182 458 L 168 459 Z" fill="#f3f3f3" fill-rule="evenodd"/>
  <path d="M 58 16 L 58 29 L 71 30 L 71 43 L 58 44 L 58 57 L 70 56 L 71 43 L 84 43 L 85 56 L 98 56 L 99 43 L 112 43 L 113 56 L 125 56 L 125 44 L 112 43 L 112 30 L 125 29 L 125 16 L 112 15 L 112 0 L 99 0 L 98 16 L 85 16 L 84 0 L 71 0 L 71 15 Z M 84 30 L 98 29 L 99 43 L 85 44 Z M 98 16 L 112 15 L 113 29 L 99 30 Z M 70 16 L 84 15 L 85 29 L 71 30 Z" fill="#f3f3f3" fill-rule="evenodd"/>
  <path d="M 141 16 L 141 29 L 154 30 L 154 43 L 141 44 L 141 56 L 153 56 L 154 43 L 167 43 L 168 56 L 181 56 L 182 43 L 195 43 L 196 56 L 208 56 L 208 44 L 195 43 L 195 30 L 208 29 L 208 16 L 195 15 L 195 0 L 182 0 L 181 16 L 168 16 L 167 0 L 154 0 L 154 15 Z M 167 30 L 181 29 L 182 43 L 168 44 Z M 181 16 L 195 15 L 196 29 L 182 30 Z M 153 16 L 167 15 L 168 29 L 154 30 Z" fill="#f3f3f3" fill-rule="evenodd"/>
  <path d="M 459 335 L 459 347 L 471 347 L 473 361 L 486 362 L 486 375 L 472 376 L 471 362 L 459 362 L 459 375 L 472 376 L 472 389 L 458 390 L 457 376 L 445 376 L 445 389 L 457 389 L 459 403 L 472 404 L 472 416 L 485 416 L 485 404 L 472 404 L 471 390 L 485 389 L 487 403 L 499 403 L 500 416 L 511 416 L 511 404 L 499 403 L 499 390 L 511 389 L 511 376 L 499 375 L 499 362 L 511 361 L 511 349 L 499 347 L 499 335 L 486 335 L 486 347 L 500 348 L 500 361 L 486 362 L 485 349 L 472 348 L 471 335 Z M 485 376 L 499 375 L 500 389 L 486 390 Z" fill="#f3f3f3" fill-rule="evenodd"/>
  <path d="M 376 0 L 376 15 L 389 16 L 389 29 L 376 30 L 376 43 L 388 43 L 389 56 L 402 56 L 403 43 L 416 43 L 417 56 L 430 56 L 429 44 L 416 43 L 416 30 L 429 29 L 429 18 L 431 15 L 443 15 L 443 0 L 431 0 L 430 16 L 416 15 L 416 0 L 403 0 L 403 15 L 389 16 L 388 0 Z M 388 30 L 402 29 L 403 43 L 389 44 Z M 402 16 L 416 15 L 417 29 L 403 30 Z" fill="#f3f3f3" fill-rule="evenodd"/>
  <path d="M 16 86 L 15 99 L 0 99 L 0 112 L 16 113 L 15 127 L 0 127 L 0 140 L 15 140 L 16 154 L 0 155 L 0 167 L 15 167 L 16 154 L 29 154 L 30 167 L 42 167 L 42 155 L 30 155 L 28 151 L 30 140 L 42 140 L 42 127 L 29 126 L 29 113 L 42 112 L 42 99 L 30 99 L 28 86 Z M 15 127 L 29 126 L 30 140 L 16 141 Z M 15 99 L 29 98 L 30 112 L 16 113 Z" fill="#f3f3f3" fill-rule="evenodd"/>
  <path d="M 277 0 L 265 0 L 264 16 L 250 15 L 250 0 L 237 0 L 237 15 L 224 16 L 224 29 L 237 30 L 237 43 L 224 44 L 224 57 L 236 56 L 237 43 L 251 44 L 251 57 L 237 58 L 238 70 L 250 70 L 250 58 L 264 56 L 265 43 L 277 43 L 277 30 L 264 29 L 264 16 L 277 15 Z M 250 30 L 264 29 L 265 43 L 251 44 Z M 236 16 L 250 15 L 251 29 L 237 30 Z" fill="#f3f3f3" fill-rule="evenodd"/>
  <path d="M 403 335 L 404 347 L 417 348 L 417 361 L 406 363 L 403 375 L 390 384 L 390 389 L 403 390 L 403 403 L 389 404 L 388 390 L 375 401 L 389 404 L 389 416 L 402 416 L 403 403 L 416 403 L 417 416 L 430 416 L 429 404 L 416 403 L 416 390 L 430 389 L 431 403 L 443 402 L 443 390 L 431 390 L 429 379 L 431 375 L 443 375 L 443 362 L 431 363 L 430 376 L 417 376 L 416 362 L 429 361 L 430 349 L 417 348 L 416 335 Z M 402 376 L 416 375 L 417 389 L 403 390 Z" fill="#f3f3f3" fill-rule="evenodd"/>
  <path d="M 472 266 L 472 278 L 459 279 L 459 292 L 471 292 L 473 306 L 486 307 L 486 320 L 473 321 L 473 333 L 485 333 L 485 321 L 489 319 L 500 321 L 500 333 L 511 333 L 511 321 L 499 320 L 499 307 L 511 306 L 511 293 L 499 292 L 499 279 L 511 278 L 511 266 L 500 266 L 499 279 L 486 279 L 485 266 Z M 485 293 L 499 292 L 500 306 L 486 307 Z M 471 279 L 485 278 L 487 287 L 486 292 L 472 293 Z" fill="#f3f3f3" fill-rule="evenodd"/>
  <path d="M 141 99 L 141 112 L 153 112 L 154 117 L 166 121 L 168 112 L 181 112 L 182 126 L 177 127 L 177 131 L 181 131 L 182 126 L 195 126 L 196 133 L 208 128 L 195 126 L 195 113 L 208 112 L 208 99 L 196 99 L 195 86 L 182 86 L 181 99 L 167 98 L 167 85 L 181 84 L 181 72 L 168 72 L 168 84 L 154 86 L 153 99 Z M 181 99 L 195 98 L 196 112 L 182 113 Z M 153 99 L 167 98 L 168 112 L 154 113 Z" fill="#f3f3f3" fill-rule="evenodd"/>
  <path d="M 486 418 L 486 430 L 483 432 L 473 432 L 471 445 L 459 445 L 459 458 L 471 458 L 473 472 L 486 473 L 486 485 L 499 485 L 499 473 L 511 472 L 511 459 L 499 458 L 499 445 L 511 444 L 511 432 L 500 432 L 499 445 L 486 445 L 485 431 L 499 430 L 499 418 Z M 485 459 L 499 458 L 500 472 L 486 473 Z M 471 445 L 485 444 L 486 458 L 472 459 Z" fill="#f3f3f3" fill-rule="evenodd"/>
  <path d="M 110 169 L 99 169 L 99 181 L 113 182 L 112 196 L 99 196 L 98 183 L 94 182 L 85 183 L 84 196 L 71 196 L 70 183 L 58 183 L 58 195 L 71 196 L 71 209 L 58 210 L 56 224 L 44 224 L 44 237 L 56 236 L 57 223 L 70 223 L 71 236 L 80 224 L 70 223 L 71 209 L 84 209 L 85 220 L 98 217 L 99 209 L 112 209 L 113 217 L 124 211 L 112 209 L 113 195 L 125 195 L 127 200 L 128 197 L 124 188 L 112 181 Z M 84 196 L 98 195 L 99 209 L 85 210 Z" fill="#f3f3f3" fill-rule="evenodd"/>
  <path d="M 44 279 L 44 292 L 56 292 L 58 306 L 71 307 L 71 320 L 58 321 L 58 333 L 70 333 L 70 321 L 84 319 L 85 306 L 99 307 L 99 320 L 85 321 L 85 333 L 98 333 L 99 320 L 112 320 L 113 333 L 120 333 L 126 326 L 126 321 L 112 320 L 112 307 L 123 306 L 113 302 L 112 307 L 99 307 L 98 302 L 85 298 L 84 307 L 70 306 L 70 293 L 77 292 L 70 276 L 70 266 L 58 266 L 56 279 Z M 56 279 L 70 278 L 71 292 L 57 293 Z" fill="#f3f3f3" fill-rule="evenodd"/>
  <path d="M 472 183 L 473 195 L 486 196 L 486 209 L 473 210 L 471 224 L 459 224 L 459 237 L 471 236 L 472 223 L 485 223 L 486 237 L 472 238 L 472 250 L 485 250 L 485 238 L 494 236 L 500 238 L 500 250 L 511 250 L 511 238 L 499 237 L 499 224 L 511 223 L 511 210 L 499 209 L 499 196 L 511 195 L 511 183 L 500 183 L 499 196 L 486 196 L 485 183 Z M 485 210 L 499 209 L 500 223 L 486 224 Z" fill="#f3f3f3" fill-rule="evenodd"/>
  <path d="M 223 436 L 224 444 L 237 445 L 237 458 L 224 459 L 224 472 L 236 472 L 237 485 L 250 485 L 251 472 L 264 472 L 265 485 L 277 485 L 277 473 L 264 472 L 264 459 L 277 458 L 277 446 L 265 445 L 264 442 L 251 442 L 250 445 L 237 445 L 236 441 L 230 440 Z M 236 459 L 250 458 L 251 472 L 237 473 Z M 250 445 L 264 444 L 265 458 L 251 459 Z" fill="#f3f3f3" fill-rule="evenodd"/>
  <path d="M 499 0 L 486 0 L 487 15 L 500 16 L 499 30 L 486 30 L 485 16 L 473 16 L 472 29 L 459 30 L 459 43 L 471 43 L 473 53 L 471 58 L 459 58 L 459 70 L 471 70 L 471 58 L 485 56 L 486 43 L 499 43 L 500 56 L 511 56 L 511 44 L 499 43 L 499 30 L 511 29 L 511 16 L 499 15 Z M 471 30 L 485 29 L 486 43 L 472 44 Z" fill="#f3f3f3" fill-rule="evenodd"/>
  <path d="M 374 72 L 362 72 L 362 84 L 348 86 L 347 99 L 334 99 L 333 86 L 330 85 L 320 86 L 319 99 L 306 99 L 305 86 L 296 85 L 302 98 L 306 99 L 306 112 L 301 115 L 304 124 L 306 112 L 320 113 L 320 126 L 307 128 L 319 133 L 320 126 L 333 126 L 334 132 L 336 132 L 340 127 L 333 126 L 334 112 L 347 112 L 348 121 L 361 117 L 360 113 L 347 112 L 347 99 L 360 98 L 361 85 L 374 84 Z M 319 99 L 333 98 L 334 112 L 320 113 Z" fill="#f3f3f3" fill-rule="evenodd"/>
  <path d="M 42 349 L 30 349 L 29 362 L 16 362 L 15 349 L 0 349 L 0 361 L 16 362 L 15 376 L 0 376 L 0 389 L 15 389 L 16 403 L 0 404 L 0 416 L 15 416 L 15 404 L 28 403 L 28 393 L 30 389 L 42 389 L 42 376 L 29 375 L 29 362 L 42 361 Z M 15 376 L 29 375 L 30 389 L 16 390 Z" fill="#f3f3f3" fill-rule="evenodd"/>
  <path d="M 71 100 L 71 112 L 58 114 L 58 126 L 70 126 L 71 112 L 85 113 L 85 126 L 72 127 L 72 140 L 84 139 L 85 126 L 99 127 L 99 140 L 85 141 L 85 153 L 98 153 L 98 141 L 111 139 L 113 126 L 125 126 L 125 113 L 113 114 L 112 127 L 98 126 L 98 113 L 112 111 L 112 100 L 110 99 L 99 100 L 98 113 L 85 113 L 84 100 L 82 99 Z" fill="#fefefe" fill-rule="evenodd"/>
  <path d="M 42 183 L 31 182 L 29 196 L 16 196 L 15 183 L 0 183 L 0 195 L 16 196 L 15 210 L 0 210 L 0 223 L 15 223 L 16 237 L 0 238 L 0 250 L 15 250 L 15 238 L 28 237 L 28 224 L 15 223 L 16 209 L 29 209 L 30 223 L 42 223 L 42 210 L 30 210 L 28 207 L 30 195 L 42 195 Z" fill="#f3f3f3" fill-rule="evenodd"/>
  <path d="M 42 266 L 30 266 L 29 279 L 16 279 L 15 266 L 0 266 L 0 278 L 16 279 L 15 293 L 0 293 L 0 306 L 15 306 L 16 320 L 0 321 L 0 333 L 15 333 L 15 321 L 28 320 L 30 306 L 42 306 L 42 293 L 30 293 L 29 307 L 15 306 L 15 293 L 28 292 L 29 279 L 42 278 Z" fill="#f3f3f3" fill-rule="evenodd"/>
  <path d="M 406 169 L 403 175 L 403 181 L 398 182 L 390 189 L 390 195 L 403 196 L 403 209 L 392 210 L 392 213 L 402 218 L 403 209 L 416 209 L 417 217 L 430 220 L 431 209 L 443 209 L 443 196 L 431 196 L 429 191 L 430 184 L 427 182 L 417 183 L 416 196 L 403 196 L 402 182 L 416 181 L 416 169 Z M 416 196 L 430 195 L 431 209 L 417 210 Z" fill="#f3f3f3" fill-rule="evenodd"/>
  <path d="M 168 0 L 168 15 L 155 16 L 155 29 L 167 29 L 168 42 L 181 43 L 182 56 L 194 56 L 194 44 L 181 43 L 181 30 L 188 28 L 194 29 L 194 16 L 181 15 L 181 0 Z M 167 16 L 181 15 L 182 29 L 168 30 Z" fill="#fefefe" fill-rule="evenodd"/>
  <path d="M 72 376 L 72 389 L 84 389 L 85 402 L 98 402 L 99 389 L 112 389 L 113 402 L 125 402 L 125 390 L 113 390 L 111 376 L 98 375 L 98 363 L 85 363 L 85 375 Z M 84 376 L 98 375 L 99 389 L 85 390 Z" fill="#fefefe" fill-rule="evenodd"/>
  <path d="M 72 16 L 72 28 L 75 29 L 84 28 L 85 15 L 99 16 L 99 29 L 86 30 L 86 42 L 98 42 L 99 29 L 112 29 L 113 42 L 125 42 L 125 30 L 112 29 L 112 16 L 125 15 L 125 0 L 113 0 L 112 16 L 98 15 L 98 0 L 85 0 L 85 15 Z" fill="#fefefe" fill-rule="evenodd"/>
  <path d="M 376 16 L 376 29 L 388 28 L 389 15 L 403 16 L 403 29 L 390 30 L 389 42 L 402 42 L 402 30 L 413 28 L 417 30 L 417 42 L 429 43 L 429 30 L 416 29 L 416 16 L 429 15 L 429 0 L 417 0 L 416 16 L 402 15 L 402 0 L 389 0 L 389 15 Z" fill="#fefefe" fill-rule="evenodd"/>
  <path d="M 443 307 L 431 307 L 429 303 L 430 298 L 424 301 L 417 302 L 416 307 L 403 307 L 402 302 L 399 302 L 393 306 L 403 307 L 403 320 L 389 321 L 388 318 L 387 320 L 389 321 L 389 324 L 392 326 L 393 333 L 402 333 L 402 321 L 409 319 L 417 321 L 417 333 L 430 333 L 430 321 L 443 319 Z M 416 307 L 430 306 L 431 320 L 417 321 Z" fill="#f3f3f3" fill-rule="evenodd"/>
  <path d="M 16 0 L 16 15 L 0 16 L 0 29 L 15 29 L 16 43 L 0 44 L 0 56 L 15 56 L 16 43 L 29 43 L 30 56 L 42 56 L 42 44 L 30 44 L 28 41 L 28 30 L 15 29 L 15 16 L 28 15 L 29 0 Z" fill="#f3f3f3" fill-rule="evenodd"/>
  <path d="M 0 431 L 0 444 L 16 445 L 16 458 L 0 459 L 0 472 L 15 472 L 16 485 L 28 485 L 28 473 L 15 472 L 15 459 L 29 458 L 30 472 L 42 472 L 42 459 L 30 459 L 28 455 L 28 445 L 15 444 L 15 432 Z" fill="#f3f3f3" fill-rule="evenodd"/>
  <path d="M 293 16 L 293 28 L 303 29 L 305 28 L 306 15 L 319 15 L 320 28 L 333 29 L 334 42 L 346 42 L 346 30 L 333 29 L 333 16 L 346 15 L 346 0 L 334 0 L 333 16 L 319 15 L 319 0 L 307 0 L 306 15 Z" fill="#fefefe" fill-rule="evenodd"/>
  <path d="M 376 99 L 376 112 L 388 112 L 390 116 L 390 126 L 403 127 L 403 139 L 415 139 L 415 129 L 417 126 L 429 126 L 429 113 L 417 114 L 416 127 L 402 126 L 402 113 L 415 112 L 415 99 L 403 100 L 402 113 L 389 113 L 388 100 Z" fill="#fefefe" fill-rule="evenodd"/>
  <path d="M 28 99 L 16 100 L 15 113 L 0 113 L 0 126 L 16 127 L 16 140 L 0 141 L 0 153 L 15 153 L 15 141 L 20 139 L 28 139 L 28 127 L 16 127 L 14 122 L 16 112 L 28 112 Z" fill="#fefefe" fill-rule="evenodd"/>
  <path d="M 72 471 L 84 471 L 85 458 L 98 458 L 99 471 L 112 471 L 112 459 L 125 458 L 125 446 L 113 446 L 112 459 L 99 459 L 98 446 L 96 445 L 85 446 L 85 458 L 72 459 Z" fill="#fefefe" fill-rule="evenodd"/>
  <path d="M 511 86 L 500 86 L 500 98 L 487 100 L 487 112 L 500 113 L 500 126 L 487 127 L 487 140 L 499 139 L 500 126 L 511 126 L 511 113 L 499 112 L 499 99 L 511 98 Z" fill="#fefefe" fill-rule="evenodd"/>
  <path d="M 212 396 L 210 394 L 209 404 L 196 404 L 195 390 L 206 389 L 199 385 L 196 385 L 195 390 L 182 390 L 181 404 L 168 404 L 167 400 L 162 401 L 161 403 L 168 404 L 168 416 L 181 416 L 182 403 L 195 403 L 196 416 L 208 416 L 208 406 L 210 403 L 214 403 L 212 400 Z" fill="#f3f3f3" fill-rule="evenodd"/>
  <path d="M 0 362 L 0 375 L 16 376 L 16 389 L 0 390 L 0 402 L 15 402 L 15 390 L 28 389 L 28 376 L 16 376 L 14 372 L 15 363 Z" fill="#fefefe" fill-rule="evenodd"/>
  <path d="M 0 280 L 0 292 L 16 293 L 16 306 L 0 307 L 0 319 L 15 319 L 15 307 L 28 306 L 28 293 L 16 293 L 15 280 Z" fill="#fefefe" fill-rule="evenodd"/>
  <path d="M 0 446 L 0 458 L 16 459 L 16 472 L 0 473 L 0 485 L 15 485 L 15 473 L 19 471 L 28 471 L 28 459 L 16 459 L 15 446 Z" fill="#fefefe" fill-rule="evenodd"/>
  <path d="M 429 446 L 417 446 L 416 459 L 403 459 L 402 446 L 389 446 L 389 455 L 390 458 L 403 459 L 403 471 L 416 471 L 416 459 L 429 458 Z" fill="#fefefe" fill-rule="evenodd"/>
  <path d="M 155 459 L 155 471 L 167 471 L 168 458 L 181 458 L 182 471 L 194 471 L 194 459 L 182 459 L 180 455 L 181 446 L 168 446 L 168 458 Z" fill="#fefefe" fill-rule="evenodd"/>
  <path d="M 224 487 L 224 499 L 236 499 L 237 511 L 250 511 L 251 499 L 264 499 L 264 487 L 251 487 L 251 499 L 247 501 L 241 501 L 236 499 L 236 487 Z" fill="#f3f3f3" fill-rule="evenodd"/>
  <path d="M 500 363 L 500 375 L 487 376 L 487 389 L 499 389 L 500 402 L 511 402 L 511 390 L 499 389 L 499 376 L 511 375 L 511 363 Z" fill="#fefefe" fill-rule="evenodd"/>
  <path d="M 500 280 L 500 292 L 487 293 L 487 306 L 499 306 L 500 319 L 511 319 L 511 307 L 499 306 L 499 293 L 511 292 L 511 280 Z" fill="#fefefe" fill-rule="evenodd"/>
  <path d="M 500 197 L 500 209 L 487 210 L 487 223 L 499 223 L 500 236 L 511 236 L 511 224 L 499 223 L 499 210 L 511 209 L 511 197 Z" fill="#fefefe" fill-rule="evenodd"/>
  <path d="M 44 501 L 44 511 L 56 511 L 57 499 L 70 499 L 71 511 L 84 511 L 84 501 L 73 501 L 70 499 L 70 487 L 58 487 L 57 499 L 54 501 Z" fill="#f3f3f3" fill-rule="evenodd"/>
  <path d="M 85 197 L 86 209 L 98 209 L 99 216 L 112 216 L 113 209 L 125 208 L 124 196 L 113 197 L 112 210 L 99 210 L 98 197 L 96 196 Z" fill="#fefefe" fill-rule="evenodd"/>
  <path d="M 182 100 L 182 112 L 169 113 L 168 121 L 174 126 L 181 126 L 182 133 L 194 135 L 194 127 L 181 126 L 181 113 L 194 112 L 194 100 Z" fill="#fefefe" fill-rule="evenodd"/>
  <path d="M 0 0 L 0 15 L 15 15 L 16 28 L 28 29 L 28 16 L 15 15 L 15 0 Z" fill="#fefefe" fill-rule="evenodd"/>
  <path d="M 390 196 L 390 209 L 402 209 L 403 216 L 415 216 L 417 209 L 429 209 L 429 197 L 417 197 L 416 210 L 403 210 L 402 197 Z" fill="#fefefe" fill-rule="evenodd"/>
  <path d="M 333 390 L 320 390 L 319 385 L 310 388 L 320 390 L 320 403 L 306 404 L 304 394 L 301 403 L 306 404 L 306 416 L 319 416 L 319 404 L 333 402 Z" fill="#f3f3f3" fill-rule="evenodd"/>
  <path d="M 264 0 L 251 0 L 251 15 L 238 16 L 238 28 L 250 28 L 250 16 L 263 15 Z" fill="#fefefe" fill-rule="evenodd"/>
  <path d="M 85 309 L 85 319 L 98 319 L 99 306 L 112 306 L 113 319 L 125 319 L 125 310 L 122 307 L 113 307 L 112 303 L 99 303 L 98 307 L 86 307 Z" fill="#fefefe" fill-rule="evenodd"/>
  <path d="M 28 210 L 16 210 L 15 224 L 0 224 L 0 236 L 14 236 L 16 223 L 28 223 Z" fill="#fefefe" fill-rule="evenodd"/>
  <path d="M 511 0 L 500 0 L 500 15 L 487 16 L 487 29 L 499 28 L 500 15 L 511 15 Z" fill="#fefefe" fill-rule="evenodd"/>
  <path d="M 333 100 L 320 100 L 320 112 L 307 113 L 306 126 L 319 126 L 319 113 L 332 112 Z" fill="#fefefe" fill-rule="evenodd"/>
  <path d="M 415 376 L 403 377 L 402 390 L 390 390 L 390 402 L 402 402 L 402 390 L 415 389 Z" fill="#fefefe" fill-rule="evenodd"/>
  <path d="M 42 238 L 30 238 L 30 251 L 16 252 L 16 264 L 28 264 L 29 252 L 33 250 L 42 250 Z" fill="#f3f3f3" fill-rule="evenodd"/>
  <path d="M 306 487 L 306 499 L 319 499 L 320 511 L 333 511 L 333 501 L 324 501 L 319 499 L 319 487 Z" fill="#f3f3f3" fill-rule="evenodd"/>
  <path d="M 263 446 L 251 446 L 251 458 L 238 459 L 238 471 L 250 471 L 250 459 L 260 457 L 263 458 Z" fill="#fefefe" fill-rule="evenodd"/>
  <path d="M 168 487 L 168 499 L 181 499 L 182 511 L 195 511 L 195 501 L 184 501 L 181 499 L 181 487 Z" fill="#f3f3f3" fill-rule="evenodd"/>
  <path d="M 125 487 L 113 487 L 113 499 L 99 501 L 99 511 L 112 511 L 113 499 L 125 499 Z" fill="#f3f3f3" fill-rule="evenodd"/>
  <path d="M 402 487 L 389 487 L 389 499 L 376 501 L 376 511 L 388 511 L 389 499 L 402 499 Z" fill="#f3f3f3" fill-rule="evenodd"/>
  <path d="M 58 280 L 58 292 L 70 292 L 72 296 L 72 306 L 84 306 L 84 298 L 79 294 L 70 292 L 70 280 Z" fill="#fefefe" fill-rule="evenodd"/>
  <path d="M 485 487 L 472 487 L 472 499 L 469 501 L 459 501 L 459 511 L 471 511 L 472 499 L 485 499 Z" fill="#f3f3f3" fill-rule="evenodd"/>
  <path d="M 279 487 L 279 499 L 291 499 L 293 505 L 292 511 L 305 511 L 305 501 L 297 501 L 291 499 L 291 487 Z" fill="#f3f3f3" fill-rule="evenodd"/>
  <path d="M 511 446 L 500 446 L 499 459 L 487 459 L 487 471 L 499 471 L 499 459 L 511 458 Z" fill="#fefefe" fill-rule="evenodd"/>
  <path d="M 511 487 L 500 487 L 500 499 L 496 501 L 486 501 L 486 511 L 499 511 L 499 500 L 511 499 Z" fill="#f3f3f3" fill-rule="evenodd"/>
  <path d="M 346 113 L 334 113 L 334 126 L 321 127 L 320 133 L 333 133 L 334 126 L 341 126 L 346 122 Z" fill="#fefefe" fill-rule="evenodd"/>
  <path d="M 471 279 L 485 278 L 487 287 L 486 292 L 472 293 Z" fill="#f3f3f3" fill-rule="evenodd"/>
  <path d="M 471 141 L 485 140 L 487 148 L 486 154 L 472 155 Z" fill="#f3f3f3" fill-rule="evenodd"/>
  <path d="M 236 459 L 250 458 L 251 472 L 237 473 Z" fill="#f3f3f3" fill-rule="evenodd"/>
  <path d="M 250 445 L 264 444 L 265 458 L 251 459 Z" fill="#f3f3f3" fill-rule="evenodd"/>
  <path d="M 485 459 L 499 458 L 500 472 L 486 473 Z" fill="#f3f3f3" fill-rule="evenodd"/>
  <path d="M 471 445 L 485 444 L 486 458 L 472 459 Z" fill="#f3f3f3" fill-rule="evenodd"/>
  <path d="M 402 459 L 416 458 L 417 472 L 403 473 Z" fill="#f3f3f3" fill-rule="evenodd"/>
  <path d="M 416 445 L 430 444 L 431 458 L 417 459 Z" fill="#f3f3f3" fill-rule="evenodd"/>
  <path d="M 388 445 L 402 444 L 403 458 L 389 459 Z" fill="#f3f3f3" fill-rule="evenodd"/>
  <path d="M 402 431 L 416 430 L 417 444 L 403 445 Z" fill="#f3f3f3" fill-rule="evenodd"/>
  <path d="M 319 459 L 333 458 L 334 472 L 320 473 Z" fill="#f3f3f3" fill-rule="evenodd"/>
  <path d="M 333 445 L 347 444 L 348 458 L 334 459 Z" fill="#f3f3f3" fill-rule="evenodd"/>
  <path d="M 305 445 L 319 444 L 320 458 L 306 459 Z" fill="#f3f3f3" fill-rule="evenodd"/>
  <path d="M 181 459 L 195 458 L 196 472 L 182 473 Z" fill="#f3f3f3" fill-rule="evenodd"/>
  <path d="M 153 459 L 167 458 L 168 472 L 154 473 Z" fill="#f3f3f3" fill-rule="evenodd"/>
  <path d="M 167 445 L 181 444 L 182 458 L 168 459 Z" fill="#f3f3f3" fill-rule="evenodd"/>
  <path d="M 98 459 L 112 458 L 113 472 L 99 473 Z" fill="#f3f3f3" fill-rule="evenodd"/>
  <path d="M 70 459 L 84 458 L 85 472 L 71 473 Z" fill="#f3f3f3" fill-rule="evenodd"/>
  <path d="M 84 445 L 98 444 L 99 458 L 85 459 Z" fill="#f3f3f3" fill-rule="evenodd"/>
  <path d="M 15 376 L 29 375 L 30 389 L 16 390 Z" fill="#f3f3f3" fill-rule="evenodd"/>
  <path d="M 485 376 L 499 375 L 500 389 L 486 390 Z" fill="#f3f3f3" fill-rule="evenodd"/>
  <path d="M 402 376 L 416 375 L 417 389 L 403 390 Z" fill="#f3f3f3" fill-rule="evenodd"/>
  <path d="M 98 376 L 112 375 L 113 389 L 99 390 Z" fill="#f3f3f3" fill-rule="evenodd"/>
  <path d="M 70 376 L 84 375 L 85 389 L 71 390 Z" fill="#f3f3f3" fill-rule="evenodd"/>
  <path d="M 84 362 L 98 361 L 99 375 L 85 376 Z" fill="#f3f3f3" fill-rule="evenodd"/>
  <path d="M 70 348 L 84 347 L 85 361 L 71 362 Z" fill="#f3f3f3" fill-rule="evenodd"/>
  <path d="M 416 307 L 430 306 L 431 320 L 417 321 Z" fill="#f3f3f3" fill-rule="evenodd"/>
  <path d="M 485 293 L 499 292 L 500 306 L 486 307 Z" fill="#f3f3f3" fill-rule="evenodd"/>
  <path d="M 56 279 L 70 278 L 71 292 L 57 293 Z" fill="#f3f3f3" fill-rule="evenodd"/>
  <path d="M 485 210 L 499 209 L 500 223 L 486 224 Z" fill="#f3f3f3" fill-rule="evenodd"/>
  <path d="M 416 196 L 430 195 L 431 209 L 417 210 Z" fill="#f3f3f3" fill-rule="evenodd"/>
  <path d="M 84 196 L 98 195 L 99 209 L 85 210 Z" fill="#f3f3f3" fill-rule="evenodd"/>
  <path d="M 485 127 L 499 126 L 500 140 L 486 141 Z" fill="#f3f3f3" fill-rule="evenodd"/>
  <path d="M 471 113 L 485 112 L 486 126 L 472 127 Z" fill="#f3f3f3" fill-rule="evenodd"/>
  <path d="M 485 99 L 499 98 L 500 112 L 486 113 Z" fill="#f3f3f3" fill-rule="evenodd"/>
  <path d="M 84 141 L 98 140 L 99 154 L 85 155 Z" fill="#f3f3f3" fill-rule="evenodd"/>
  <path d="M 56 141 L 70 140 L 71 154 L 57 155 Z" fill="#f3f3f3" fill-rule="evenodd"/>
  <path d="M 98 127 L 112 126 L 113 140 L 99 141 Z" fill="#f3f3f3" fill-rule="evenodd"/>
  <path d="M 70 127 L 84 126 L 85 140 L 71 141 Z" fill="#f3f3f3" fill-rule="evenodd"/>
  <path d="M 84 113 L 98 112 L 99 126 L 85 127 Z" fill="#f3f3f3" fill-rule="evenodd"/>
  <path d="M 98 99 L 112 98 L 113 112 L 99 113 Z" fill="#f3f3f3" fill-rule="evenodd"/>
  <path d="M 70 99 L 84 98 L 85 112 L 71 113 Z" fill="#f3f3f3" fill-rule="evenodd"/>
  <path d="M 15 127 L 29 126 L 30 140 L 16 141 Z" fill="#f3f3f3" fill-rule="evenodd"/>
  <path d="M 15 99 L 29 98 L 30 112 L 16 113 Z" fill="#f3f3f3" fill-rule="evenodd"/>
  <path d="M 416 141 L 430 140 L 431 154 L 417 155 Z" fill="#f3f3f3" fill-rule="evenodd"/>
  <path d="M 402 127 L 416 126 L 417 140 L 403 141 Z" fill="#f3f3f3" fill-rule="evenodd"/>
  <path d="M 416 113 L 430 112 L 431 126 L 417 127 Z" fill="#f3f3f3" fill-rule="evenodd"/>
  <path d="M 402 99 L 416 98 L 417 112 L 403 113 Z" fill="#f3f3f3" fill-rule="evenodd"/>
  <path d="M 319 99 L 333 98 L 334 112 L 320 113 Z" fill="#f3f3f3" fill-rule="evenodd"/>
  <path d="M 181 99 L 195 98 L 196 112 L 182 113 Z" fill="#f3f3f3" fill-rule="evenodd"/>
  <path d="M 153 99 L 167 98 L 168 112 L 154 113 Z" fill="#f3f3f3" fill-rule="evenodd"/>
  <path d="M 471 30 L 485 29 L 486 43 L 472 44 Z" fill="#f3f3f3" fill-rule="evenodd"/>
  <path d="M 388 30 L 402 29 L 403 43 L 389 44 Z" fill="#f3f3f3" fill-rule="evenodd"/>
  <path d="M 402 16 L 416 15 L 417 29 L 403 30 Z" fill="#f3f3f3" fill-rule="evenodd"/>
  <path d="M 333 30 L 347 29 L 348 43 L 334 44 Z" fill="#f3f3f3" fill-rule="evenodd"/>
  <path d="M 305 30 L 319 29 L 320 43 L 306 44 Z" fill="#f3f3f3" fill-rule="evenodd"/>
  <path d="M 319 16 L 333 15 L 334 29 L 320 30 Z" fill="#f3f3f3" fill-rule="evenodd"/>
  <path d="M 291 16 L 305 15 L 306 29 L 292 30 Z" fill="#f3f3f3" fill-rule="evenodd"/>
  <path d="M 250 30 L 264 29 L 265 43 L 251 44 Z" fill="#f3f3f3" fill-rule="evenodd"/>
  <path d="M 236 16 L 250 15 L 251 29 L 237 30 Z" fill="#f3f3f3" fill-rule="evenodd"/>
  <path d="M 167 30 L 181 29 L 182 43 L 168 44 Z" fill="#f3f3f3" fill-rule="evenodd"/>
  <path d="M 181 16 L 195 15 L 196 29 L 182 30 Z" fill="#f3f3f3" fill-rule="evenodd"/>
  <path d="M 153 16 L 167 15 L 168 29 L 154 30 Z" fill="#f3f3f3" fill-rule="evenodd"/>
  <path d="M 84 30 L 98 29 L 99 43 L 85 44 Z" fill="#f3f3f3" fill-rule="evenodd"/>
  <path d="M 98 16 L 112 15 L 113 29 L 99 30 Z" fill="#f3f3f3" fill-rule="evenodd"/>
  <path d="M 70 16 L 84 15 L 85 29 L 71 30 Z" fill="#f3f3f3" fill-rule="evenodd"/>
  <path d="M 84 376 L 98 375 L 99 389 L 85 390 Z" fill="#fefefe" fill-rule="evenodd"/>
  <path d="M 167 16 L 181 15 L 182 29 L 168 30 Z" fill="#fefefe" fill-rule="evenodd"/>
  <path d="M 435 224 L 442 233 L 444 238 L 444 250 L 457 250 L 457 238 L 445 238 L 443 235 L 443 224 Z" fill="#f3f3f3" fill-rule="evenodd"/>
  <path d="M 331 387 L 321 385 L 319 390 L 308 390 L 306 402 L 319 402 L 319 390 L 331 389 Z" fill="#fefefe" fill-rule="evenodd"/>
  <path d="M 0 196 L 0 209 L 14 209 L 15 197 Z" fill="#fefefe" fill-rule="evenodd"/>
  <path d="M 414 301 L 412 303 L 403 303 L 402 307 L 392 307 L 389 313 L 390 319 L 402 319 L 402 307 L 407 305 L 414 306 Z" fill="#fefefe" fill-rule="evenodd"/>
  <path d="M 0 487 L 0 499 L 15 499 L 15 487 Z" fill="#f3f3f3" fill-rule="evenodd"/>
  <path d="M 0 72 L 0 84 L 15 84 L 15 72 Z" fill="#f3f3f3" fill-rule="evenodd"/>
  <path d="M 459 0 L 459 15 L 471 15 L 471 0 Z" fill="#f3f3f3" fill-rule="evenodd"/>
  <path d="M 210 0 L 210 15 L 222 15 L 222 0 Z" fill="#f3f3f3" fill-rule="evenodd"/>
  <path d="M 127 0 L 127 15 L 139 15 L 139 0 Z" fill="#f3f3f3" fill-rule="evenodd"/>
  <path d="M 44 0 L 44 15 L 56 15 L 56 0 Z" fill="#f3f3f3" fill-rule="evenodd"/>
  <path d="M 0 418 L 0 430 L 15 430 L 15 418 Z" fill="#fefefe" fill-rule="evenodd"/>
  <path d="M 0 169 L 0 181 L 15 181 L 15 169 Z" fill="#fefefe" fill-rule="evenodd"/>
  <path d="M 0 86 L 0 98 L 15 98 L 15 86 Z" fill="#fefefe" fill-rule="evenodd"/>
  <path d="M 0 30 L 0 42 L 15 42 L 15 30 Z" fill="#fefefe" fill-rule="evenodd"/>
  <path d="M 473 0 L 473 15 L 485 15 L 485 0 Z" fill="#fefefe" fill-rule="evenodd"/>
  <path d="M 445 0 L 445 15 L 457 15 L 457 0 Z" fill="#fefefe" fill-rule="evenodd"/>
  <path d="M 362 0 L 362 15 L 374 15 L 374 0 Z" fill="#fefefe" fill-rule="evenodd"/>
  <path d="M 279 0 L 279 15 L 291 15 L 291 0 Z" fill="#fefefe" fill-rule="evenodd"/>
  <path d="M 224 0 L 224 15 L 236 15 L 236 0 Z" fill="#fefefe" fill-rule="evenodd"/>
  <path d="M 196 0 L 196 15 L 208 15 L 208 0 Z" fill="#fefefe" fill-rule="evenodd"/>
  <path d="M 141 0 L 141 15 L 153 15 L 153 0 Z" fill="#fefefe" fill-rule="evenodd"/>
  <path d="M 58 0 L 58 15 L 70 15 L 70 0 Z" fill="#fefefe" fill-rule="evenodd"/>
  <path d="M 30 0 L 30 15 L 42 15 L 42 0 Z" fill="#fefefe" fill-rule="evenodd"/>
  <path d="M 0 252 L 0 264 L 15 264 L 14 252 Z" fill="#fefefe" fill-rule="evenodd"/>
  <path d="M 0 335 L 0 347 L 15 347 L 15 335 Z" fill="#fefefe" fill-rule="evenodd"/>
  <path d="M 0 58 L 0 70 L 15 70 L 14 58 Z" fill="#fefefe" fill-rule="evenodd"/>
  <path d="M 353 401 L 348 400 L 347 404 L 334 404 L 334 416 L 347 416 L 347 404 Z" fill="#f3f3f3" fill-rule="evenodd"/>
  <path d="M 250 443 L 237 443 L 234 446 L 224 446 L 224 458 L 236 458 L 236 445 Z" fill="#fefefe" fill-rule="evenodd"/>
  <path d="M 58 238 L 57 250 L 70 250 L 70 238 Z" fill="#f3f3f3" fill-rule="evenodd"/>
  <path d="M 85 487 L 85 499 L 98 499 L 98 487 Z" fill="#f3f3f3" fill-rule="evenodd"/>
  <path d="M 445 459 L 445 472 L 457 472 L 457 459 Z" fill="#f3f3f3" fill-rule="evenodd"/>
  <path d="M 362 459 L 362 472 L 374 472 L 374 459 Z" fill="#f3f3f3" fill-rule="evenodd"/>
  <path d="M 44 445 L 44 458 L 56 458 L 56 445 Z" fill="#f3f3f3" fill-rule="evenodd"/>
  <path d="M 154 418 L 154 430 L 167 430 L 167 418 Z" fill="#f3f3f3" fill-rule="evenodd"/>
  <path d="M 459 307 L 459 320 L 471 320 L 471 307 Z" fill="#f3f3f3" fill-rule="evenodd"/>
  <path d="M 445 293 L 445 306 L 457 306 L 457 293 Z" fill="#f3f3f3" fill-rule="evenodd"/>
  <path d="M 486 252 L 486 264 L 499 264 L 499 252 Z" fill="#f3f3f3" fill-rule="evenodd"/>
  <path d="M 445 210 L 445 223 L 457 223 L 457 210 Z" fill="#f3f3f3" fill-rule="evenodd"/>
  <path d="M 459 196 L 459 209 L 471 209 L 471 196 Z" fill="#f3f3f3" fill-rule="evenodd"/>
  <path d="M 44 196 L 44 209 L 56 209 L 56 196 Z" fill="#f3f3f3" fill-rule="evenodd"/>
  <path d="M 486 169 L 486 181 L 499 181 L 499 169 Z" fill="#f3f3f3" fill-rule="evenodd"/>
  <path d="M 71 169 L 71 181 L 84 181 L 84 169 Z" fill="#f3f3f3" fill-rule="evenodd"/>
  <path d="M 445 127 L 445 140 L 457 140 L 457 127 Z" fill="#f3f3f3" fill-rule="evenodd"/>
  <path d="M 445 99 L 445 112 L 457 112 L 457 99 Z" fill="#f3f3f3" fill-rule="evenodd"/>
  <path d="M 389 72 L 389 84 L 402 84 L 402 72 Z" fill="#f3f3f3" fill-rule="evenodd"/>
  <path d="M 334 72 L 334 84 L 347 84 L 347 72 Z" fill="#f3f3f3" fill-rule="evenodd"/>
  <path d="M 306 72 L 306 84 L 319 84 L 319 72 Z" fill="#f3f3f3" fill-rule="evenodd"/>
  <path d="M 85 72 L 85 84 L 98 84 L 98 72 Z" fill="#f3f3f3" fill-rule="evenodd"/>
  <path d="M 486 58 L 486 70 L 499 70 L 499 58 Z" fill="#f3f3f3" fill-rule="evenodd"/>
  <path d="M 403 58 L 403 70 L 416 70 L 416 58 Z" fill="#f3f3f3" fill-rule="evenodd"/>
  <path d="M 320 58 L 320 70 L 333 70 L 333 58 Z" fill="#f3f3f3" fill-rule="evenodd"/>
  <path d="M 182 58 L 182 70 L 195 70 L 195 58 Z" fill="#f3f3f3" fill-rule="evenodd"/>
  <path d="M 154 58 L 154 70 L 167 70 L 167 58 Z" fill="#f3f3f3" fill-rule="evenodd"/>
  <path d="M 99 58 L 99 70 L 112 70 L 112 58 Z" fill="#f3f3f3" fill-rule="evenodd"/>
  <path d="M 71 58 L 71 70 L 84 70 L 84 58 Z" fill="#f3f3f3" fill-rule="evenodd"/>
  <path d="M 431 30 L 431 43 L 443 43 L 443 30 Z" fill="#f3f3f3" fill-rule="evenodd"/>
  <path d="M 210 30 L 210 43 L 222 43 L 222 30 Z" fill="#f3f3f3" fill-rule="evenodd"/>
  <path d="M 127 30 L 127 43 L 139 43 L 139 30 Z" fill="#f3f3f3" fill-rule="evenodd"/>
  <path d="M 44 30 L 44 43 L 56 43 L 56 30 Z" fill="#f3f3f3" fill-rule="evenodd"/>
  <path d="M 445 16 L 445 29 L 457 29 L 457 16 Z" fill="#f3f3f3" fill-rule="evenodd"/>
  <path d="M 362 16 L 362 29 L 374 29 L 374 16 Z" fill="#f3f3f3" fill-rule="evenodd"/>
  <path d="M 30 16 L 30 29 L 42 29 L 42 16 Z" fill="#f3f3f3" fill-rule="evenodd"/>
  <path d="M 403 487 L 403 499 L 416 499 L 416 487 Z" fill="#fefefe" fill-rule="evenodd"/>
  <path d="M 99 487 L 99 499 L 112 499 L 112 487 Z" fill="#fefefe" fill-rule="evenodd"/>
  <path d="M 168 473 L 168 485 L 181 485 L 181 473 Z" fill="#fefefe" fill-rule="evenodd"/>
  <path d="M 85 473 L 85 485 L 98 485 L 98 473 Z" fill="#fefefe" fill-rule="evenodd"/>
  <path d="M 320 432 L 320 444 L 333 444 L 333 432 Z" fill="#fefefe" fill-rule="evenodd"/>
  <path d="M 99 432 L 99 444 L 112 444 L 112 432 Z" fill="#fefefe" fill-rule="evenodd"/>
  <path d="M 320 404 L 320 416 L 333 416 L 333 404 Z" fill="#fefefe" fill-rule="evenodd"/>
  <path d="M 99 404 L 99 416 L 112 416 L 112 404 Z" fill="#fefefe" fill-rule="evenodd"/>
  <path d="M 459 376 L 459 389 L 471 389 L 471 376 Z" fill="#fefefe" fill-rule="evenodd"/>
  <path d="M 431 376 L 431 389 L 443 389 L 443 376 Z" fill="#fefefe" fill-rule="evenodd"/>
  <path d="M 99 321 L 99 333 L 112 333 L 112 321 Z" fill="#fefefe" fill-rule="evenodd"/>
  <path d="M 44 293 L 44 306 L 56 306 L 56 293 Z" fill="#fefefe" fill-rule="evenodd"/>
  <path d="M 99 183 L 99 195 L 112 195 L 112 183 Z" fill="#fefefe" fill-rule="evenodd"/>
  <path d="M 473 113 L 473 126 L 485 126 L 485 113 Z" fill="#fefefe" fill-rule="evenodd"/>
  <path d="M 445 113 L 445 126 L 457 126 L 457 113 Z" fill="#fefefe" fill-rule="evenodd"/>
  <path d="M 30 113 L 30 126 L 42 126 L 42 113 Z" fill="#fefefe" fill-rule="evenodd"/>
  <path d="M 85 86 L 85 98 L 98 98 L 98 86 Z" fill="#fefefe" fill-rule="evenodd"/>
  <path d="M 320 72 L 320 84 L 333 84 L 333 72 Z" fill="#fefefe" fill-rule="evenodd"/>
  <path d="M 99 72 L 99 84 L 112 84 L 112 72 Z" fill="#fefefe" fill-rule="evenodd"/>
  <path d="M 389 58 L 389 70 L 402 70 L 402 58 Z" fill="#fefefe" fill-rule="evenodd"/>
  <path d="M 85 58 L 85 70 L 98 70 L 98 58 Z" fill="#fefefe" fill-rule="evenodd"/>
  <path d="M 403 44 L 403 56 L 416 56 L 416 44 Z" fill="#fefefe" fill-rule="evenodd"/>
  <path d="M 320 44 L 320 56 L 333 56 L 333 44 Z" fill="#fefefe" fill-rule="evenodd"/>
  <path d="M 444 266 L 445 278 L 457 278 L 457 266 Z" fill="#f3f3f3" fill-rule="evenodd"/>
  <path d="M 320 487 L 321 499 L 333 499 L 333 487 Z" fill="#fefefe" fill-rule="evenodd"/>
  <path d="M 99 44 L 99 56 L 112 55 L 112 44 Z" fill="#fefefe" fill-rule="evenodd"/>
  <path d="M 127 16 L 127 28 L 138 29 L 139 16 Z" fill="#fefefe" fill-rule="evenodd"/>
  <path d="M 210 445 L 210 458 L 222 458 L 222 446 Z" fill="#f3f3f3" fill-rule="evenodd"/>
  <path d="M 292 58 L 293 70 L 305 70 L 305 58 Z" fill="#f3f3f3" fill-rule="evenodd"/>
  <path d="M 320 459 L 320 471 L 333 471 L 332 459 Z" fill="#fefefe" fill-rule="evenodd"/>
  <path d="M 403 432 L 403 444 L 415 444 L 416 432 Z" fill="#fefefe" fill-rule="evenodd"/>
  <path d="M 44 376 L 44 389 L 56 388 L 56 376 Z" fill="#fefefe" fill-rule="evenodd"/>
  <path d="M 86 335 L 85 347 L 98 347 L 98 335 Z" fill="#fefefe" fill-rule="evenodd"/>
  <path d="M 459 293 L 459 306 L 471 305 L 471 293 Z" fill="#fefefe" fill-rule="evenodd"/>
  <path d="M 196 113 L 196 126 L 208 126 L 208 114 Z" fill="#fefefe" fill-rule="evenodd"/>
  <path d="M 459 16 L 459 29 L 471 28 L 471 16 Z" fill="#fefefe" fill-rule="evenodd"/>
  <path d="M 16 335 L 16 347 L 29 347 L 29 335 Z" fill="#f3f3f3" fill-rule="evenodd"/>
  <path d="M 85 418 L 85 430 L 98 430 L 98 418 Z" fill="#fefefe" fill-rule="evenodd"/>
  <path d="M 168 86 L 168 98 L 181 98 L 181 86 Z" fill="#fefefe" fill-rule="evenodd"/>
  <path d="M 168 58 L 168 70 L 181 70 L 181 58 Z" fill="#fefefe" fill-rule="evenodd"/>
  <path d="M 431 16 L 431 29 L 443 29 L 443 16 Z" fill="#fefefe" fill-rule="evenodd"/>
  <path d="M 403 72 L 403 84 L 415 84 L 416 72 Z" fill="#fefefe" fill-rule="evenodd"/>
  <path d="M 44 16 L 44 28 L 55 29 L 56 16 Z" fill="#fefefe" fill-rule="evenodd"/>
  <path d="M 16 169 L 16 181 L 28 181 L 29 169 Z" fill="#f3f3f3" fill-rule="evenodd"/>
  <path d="M 431 99 L 431 112 L 443 112 L 443 100 Z" fill="#fefefe" fill-rule="evenodd"/>
  <path d="M 472 72 L 472 84 L 485 84 L 485 72 Z" fill="#f3f3f3" fill-rule="evenodd"/>
  <path d="M 390 473 L 389 484 L 402 485 L 402 473 Z" fill="#fefefe" fill-rule="evenodd"/>
  <path d="M 403 321 L 403 333 L 415 333 L 415 321 Z" fill="#fefefe" fill-rule="evenodd"/>
  <path d="M 85 169 L 86 181 L 98 181 L 98 169 Z" fill="#fefefe" fill-rule="evenodd"/>
  <path d="M 348 16 L 348 28 L 360 29 L 360 16 Z" fill="#fefefe" fill-rule="evenodd"/>
  <path d="M 44 307 L 44 320 L 56 320 L 56 307 Z" fill="#f3f3f3" fill-rule="evenodd"/>
  <path d="M 16 58 L 16 70 L 28 70 L 29 58 Z" fill="#f3f3f3" fill-rule="evenodd"/>
  <path d="M 445 279 L 445 292 L 457 292 L 457 280 Z" fill="#fefefe" fill-rule="evenodd"/>
  <path d="M 58 196 L 58 209 L 70 209 L 70 197 Z" fill="#fefefe" fill-rule="evenodd"/>
  <path d="M 403 183 L 403 195 L 415 195 L 416 183 Z" fill="#fefefe" fill-rule="evenodd"/>
  <path d="M 446 182 L 445 195 L 457 195 L 457 183 Z" fill="#f3f3f3" fill-rule="evenodd"/>
  <path d="M 0 501 L 0 511 L 15 511 L 15 501 Z" fill="#fefefe" fill-rule="evenodd"/>
  <path d="M 168 418 L 168 430 L 181 430 L 181 418 Z" fill="#fefefe" fill-rule="evenodd"/>
  <path d="M 459 210 L 459 223 L 471 223 L 471 210 Z" fill="#fefefe" fill-rule="evenodd"/>
  <path d="M 431 210 L 431 221 L 434 223 L 443 223 L 443 210 Z" fill="#fefefe" fill-rule="evenodd"/>
  <path d="M 72 210 L 72 223 L 84 221 L 84 210 Z" fill="#fefefe" fill-rule="evenodd"/>
  <path d="M 72 155 L 72 167 L 84 167 L 84 155 Z" fill="#fefefe" fill-rule="evenodd"/>
  <path d="M 44 127 L 44 139 L 56 139 L 56 127 Z" fill="#fefefe" fill-rule="evenodd"/>
  <path d="M 390 86 L 390 98 L 402 98 L 402 86 Z" fill="#fefefe" fill-rule="evenodd"/>
  <path d="M 307 30 L 306 41 L 319 42 L 319 30 Z" fill="#fefefe" fill-rule="evenodd"/>
  <path d="M 44 210 L 44 223 L 56 222 L 56 210 Z" fill="#fefefe" fill-rule="evenodd"/>
  <path d="M 307 58 L 306 70 L 319 70 L 319 58 Z" fill="#fefefe" fill-rule="evenodd"/>
  <path d="M 307 86 L 306 97 L 319 98 L 319 86 Z" fill="#fefefe" fill-rule="evenodd"/>
  <path d="M 417 72 L 417 84 L 430 84 L 429 72 Z" fill="#f3f3f3" fill-rule="evenodd"/>
  <path d="M 348 58 L 348 70 L 360 70 L 361 58 Z" fill="#f3f3f3" fill-rule="evenodd"/>
  <path d="M 403 404 L 403 416 L 415 416 L 416 404 Z" fill="#fefefe" fill-rule="evenodd"/>
  <path d="M 429 362 L 417 363 L 417 375 L 429 375 Z" fill="#fefefe" fill-rule="evenodd"/>
  <path d="M 431 127 L 431 140 L 443 139 L 443 127 Z" fill="#fefefe" fill-rule="evenodd"/>
  <path d="M 251 58 L 251 70 L 264 70 L 263 58 Z" fill="#fefefe" fill-rule="evenodd"/>
  <path d="M 210 16 L 210 29 L 222 28 L 222 16 Z" fill="#fefefe" fill-rule="evenodd"/>
  <path d="M 30 446 L 30 458 L 42 458 L 42 446 Z" fill="#fefefe" fill-rule="evenodd"/>
  <path d="M 72 404 L 72 416 L 84 416 L 84 404 Z" fill="#fefefe" fill-rule="evenodd"/>
  <path d="M 127 100 L 127 112 L 139 112 L 139 100 Z" fill="#fefefe" fill-rule="evenodd"/>
  <path d="M 279 445 L 279 458 L 291 458 L 291 446 Z" fill="#fefefe" fill-rule="evenodd"/>
  <path d="M 459 127 L 459 139 L 471 140 L 471 127 Z" fill="#fefefe" fill-rule="evenodd"/>
  <path d="M 30 432 L 30 444 L 42 444 L 42 432 Z" fill="#f3f3f3" fill-rule="evenodd"/>
  <path d="M 16 418 L 16 430 L 29 430 L 29 418 Z" fill="#f3f3f3" fill-rule="evenodd"/>
  <path d="M 457 197 L 445 197 L 445 209 L 457 209 Z" fill="#fefefe" fill-rule="evenodd"/>
  <path d="M 459 100 L 459 112 L 471 112 L 471 100 Z" fill="#fefefe" fill-rule="evenodd"/>
  <path d="M 155 100 L 155 112 L 167 112 L 167 100 Z" fill="#fefefe" fill-rule="evenodd"/>
  <path d="M 445 30 L 445 42 L 457 42 L 457 30 Z" fill="#fefefe" fill-rule="evenodd"/>
  <path d="M 445 431 L 445 444 L 457 444 L 457 432 Z" fill="#f3f3f3" fill-rule="evenodd"/>
  <path d="M 72 321 L 71 333 L 84 333 L 84 321 Z" fill="#fefefe" fill-rule="evenodd"/>
  <path d="M 360 99 L 348 100 L 348 112 L 360 112 Z" fill="#fefefe" fill-rule="evenodd"/>
  <path d="M 348 418 L 348 430 L 360 430 L 360 418 Z" fill="#f3f3f3" fill-rule="evenodd"/>
  <path d="M 445 349 L 445 361 L 457 361 L 457 349 Z" fill="#f3f3f3" fill-rule="evenodd"/>
  <path d="M 58 72 L 58 84 L 70 84 L 70 72 Z" fill="#f3f3f3" fill-rule="evenodd"/>
  <path d="M 72 487 L 72 499 L 84 499 L 84 487 Z" fill="#fefefe" fill-rule="evenodd"/>
  <path d="M 307 473 L 307 485 L 319 485 L 319 473 Z" fill="#fefefe" fill-rule="evenodd"/>
  <path d="M 208 446 L 196 446 L 196 458 L 208 458 Z" fill="#fefefe" fill-rule="evenodd"/>
  <path d="M 70 446 L 58 446 L 58 458 L 70 458 Z" fill="#fefefe" fill-rule="evenodd"/>
  <path d="M 155 432 L 155 444 L 167 444 L 167 432 Z" fill="#fefefe" fill-rule="evenodd"/>
  <path d="M 390 418 L 390 430 L 402 430 L 402 418 Z" fill="#fefefe" fill-rule="evenodd"/>
  <path d="M 307 418 L 307 430 L 319 430 L 319 418 Z" fill="#fefefe" fill-rule="evenodd"/>
  <path d="M 485 363 L 473 363 L 473 375 L 485 375 Z" fill="#fefefe" fill-rule="evenodd"/>
  <path d="M 72 349 L 72 361 L 84 361 L 84 349 Z" fill="#fefefe" fill-rule="evenodd"/>
  <path d="M 487 321 L 486 332 L 499 333 L 499 321 Z" fill="#fefefe" fill-rule="evenodd"/>
  <path d="M 265 16 L 265 28 L 277 28 L 277 16 Z" fill="#fefefe" fill-rule="evenodd"/>
  <path d="M 417 487 L 417 499 L 430 499 L 429 487 Z" fill="#f3f3f3" fill-rule="evenodd"/>
  <path d="M 307 446 L 307 458 L 319 457 L 319 446 Z" fill="#fefefe" fill-rule="evenodd"/>
  <path d="M 42 196 L 30 197 L 30 209 L 42 209 Z" fill="#fefefe" fill-rule="evenodd"/>
  <path d="M 56 99 L 44 100 L 44 112 L 56 112 Z" fill="#fefefe" fill-rule="evenodd"/>
  <path d="M 473 30 L 473 43 L 485 42 L 485 30 Z" fill="#fefefe" fill-rule="evenodd"/>
  <path d="M 141 30 L 141 43 L 153 42 L 153 30 Z" fill="#fefefe" fill-rule="evenodd"/>
  <path d="M 445 487 L 445 499 L 457 499 L 457 487 Z" fill="#f3f3f3" fill-rule="evenodd"/>
  <path d="M 362 487 L 362 499 L 374 499 L 374 487 Z" fill="#f3f3f3" fill-rule="evenodd"/>
  <path d="M 196 487 L 196 499 L 208 499 L 208 487 Z" fill="#f3f3f3" fill-rule="evenodd"/>
  <path d="M 141 487 L 141 499 L 153 499 L 153 487 Z" fill="#f3f3f3" fill-rule="evenodd"/>
  <path d="M 30 487 L 30 499 L 42 499 L 42 487 Z" fill="#f3f3f3" fill-rule="evenodd"/>
  <path d="M 459 473 L 459 485 L 471 485 L 471 473 Z" fill="#f3f3f3" fill-rule="evenodd"/>
  <path d="M 431 473 L 431 485 L 443 485 L 443 473 Z" fill="#f3f3f3" fill-rule="evenodd"/>
  <path d="M 210 473 L 210 485 L 222 485 L 222 473 Z" fill="#f3f3f3" fill-rule="evenodd"/>
  <path d="M 127 473 L 127 485 L 139 485 L 139 473 Z" fill="#f3f3f3" fill-rule="evenodd"/>
  <path d="M 459 418 L 459 430 L 471 430 L 471 418 Z" fill="#f3f3f3" fill-rule="evenodd"/>
  <path d="M 127 418 L 127 430 L 139 430 L 139 418 Z" fill="#f3f3f3" fill-rule="evenodd"/>
  <path d="M 44 418 L 44 430 L 56 430 L 56 418 Z" fill="#f3f3f3" fill-rule="evenodd"/>
  <path d="M 445 404 L 445 416 L 457 416 L 457 404 Z" fill="#f3f3f3" fill-rule="evenodd"/>
  <path d="M 362 404 L 362 416 L 374 416 L 374 404 Z" fill="#f3f3f3" fill-rule="evenodd"/>
  <path d="M 30 404 L 30 416 L 42 416 L 42 404 Z" fill="#f3f3f3" fill-rule="evenodd"/>
  <path d="M 431 335 L 431 347 L 443 347 L 443 335 Z" fill="#f3f3f3" fill-rule="evenodd"/>
  <path d="M 44 335 L 44 347 L 56 347 L 56 335 Z" fill="#f3f3f3" fill-rule="evenodd"/>
  <path d="M 445 321 L 445 333 L 457 333 L 457 321 Z" fill="#f3f3f3" fill-rule="evenodd"/>
  <path d="M 30 321 L 30 333 L 42 333 L 42 321 Z" fill="#f3f3f3" fill-rule="evenodd"/>
  <path d="M 459 252 L 459 264 L 471 264 L 471 252 Z" fill="#f3f3f3" fill-rule="evenodd"/>
  <path d="M 44 252 L 44 264 L 56 264 L 56 252 Z" fill="#f3f3f3" fill-rule="evenodd"/>
  <path d="M 431 169 L 431 181 L 443 181 L 443 169 Z" fill="#f3f3f3" fill-rule="evenodd"/>
  <path d="M 44 169 L 44 181 L 56 181 L 56 169 Z" fill="#f3f3f3" fill-rule="evenodd"/>
  <path d="M 127 86 L 127 98 L 139 98 L 139 86 Z" fill="#f3f3f3" fill-rule="evenodd"/>
  <path d="M 44 86 L 44 98 L 56 98 L 56 86 Z" fill="#f3f3f3" fill-rule="evenodd"/>
  <path d="M 445 72 L 445 84 L 457 84 L 457 72 Z" fill="#f3f3f3" fill-rule="evenodd"/>
  <path d="M 196 72 L 196 84 L 208 84 L 208 72 Z" fill="#f3f3f3" fill-rule="evenodd"/>
  <path d="M 141 72 L 141 84 L 153 84 L 153 72 Z" fill="#f3f3f3" fill-rule="evenodd"/>
  <path d="M 113 72 L 113 84 L 125 84 L 125 72 Z" fill="#f3f3f3" fill-rule="evenodd"/>
  <path d="M 30 72 L 30 84 L 42 84 L 42 72 Z" fill="#f3f3f3" fill-rule="evenodd"/>
  <path d="M 431 58 L 431 70 L 443 70 L 443 58 Z" fill="#f3f3f3" fill-rule="evenodd"/>
  <path d="M 376 58 L 376 70 L 388 70 L 388 58 Z" fill="#f3f3f3" fill-rule="evenodd"/>
  <path d="M 265 58 L 265 70 L 277 70 L 277 58 Z" fill="#f3f3f3" fill-rule="evenodd"/>
  <path d="M 210 58 L 210 70 L 222 70 L 222 58 Z" fill="#f3f3f3" fill-rule="evenodd"/>
  <path d="M 127 58 L 127 70 L 139 70 L 139 58 Z" fill="#f3f3f3" fill-rule="evenodd"/>
  <path d="M 44 58 L 44 70 L 56 70 L 56 58 Z" fill="#f3f3f3" fill-rule="evenodd"/>
  <path d="M 445 44 L 445 56 L 457 56 L 457 44 Z" fill="#f3f3f3" fill-rule="evenodd"/>
  <path d="M 362 44 L 362 56 L 374 56 L 374 44 Z" fill="#f3f3f3" fill-rule="evenodd"/>
  <path d="M 487 487 L 487 499 L 499 499 L 499 487 Z" fill="#fefefe" fill-rule="evenodd"/>
  <path d="M 459 487 L 459 499 L 471 499 L 471 487 Z" fill="#fefefe" fill-rule="evenodd"/>
  <path d="M 431 487 L 431 499 L 443 499 L 443 487 Z" fill="#fefefe" fill-rule="evenodd"/>
  <path d="M 376 487 L 376 499 L 388 499 L 388 487 Z" fill="#fefefe" fill-rule="evenodd"/>
  <path d="M 348 487 L 348 499 L 360 499 L 360 487 Z" fill="#fefefe" fill-rule="evenodd"/>
  <path d="M 293 487 L 293 499 L 305 499 L 305 487 Z" fill="#fefefe" fill-rule="evenodd"/>
  <path d="M 265 487 L 265 499 L 277 499 L 277 487 Z" fill="#fefefe" fill-rule="evenodd"/>
  <path d="M 238 487 L 238 499 L 250 499 L 250 487 Z" fill="#fefefe" fill-rule="evenodd"/>
  <path d="M 210 487 L 210 499 L 222 499 L 222 487 Z" fill="#fefefe" fill-rule="evenodd"/>
  <path d="M 182 487 L 182 499 L 194 499 L 194 487 Z" fill="#fefefe" fill-rule="evenodd"/>
  <path d="M 155 487 L 155 499 L 167 499 L 167 487 Z" fill="#fefefe" fill-rule="evenodd"/>
  <path d="M 127 487 L 127 499 L 139 499 L 139 487 Z" fill="#fefefe" fill-rule="evenodd"/>
  <path d="M 44 487 L 44 499 L 56 499 L 56 487 Z" fill="#fefefe" fill-rule="evenodd"/>
  <path d="M 16 487 L 16 499 L 28 499 L 28 487 Z" fill="#fefefe" fill-rule="evenodd"/>
  <path d="M 473 473 L 473 485 L 485 485 L 485 473 Z" fill="#fefefe" fill-rule="evenodd"/>
  <path d="M 445 473 L 445 485 L 457 485 L 457 473 Z" fill="#fefefe" fill-rule="evenodd"/>
  <path d="M 417 473 L 417 485 L 429 485 L 429 473 Z" fill="#fefefe" fill-rule="evenodd"/>
  <path d="M 362 473 L 362 485 L 374 485 L 374 473 Z" fill="#fefefe" fill-rule="evenodd"/>
  <path d="M 334 473 L 334 485 L 346 485 L 346 473 Z" fill="#fefefe" fill-rule="evenodd"/>
  <path d="M 279 473 L 279 485 L 291 485 L 291 473 Z" fill="#fefefe" fill-rule="evenodd"/>
  <path d="M 251 473 L 251 485 L 263 485 L 263 473 Z" fill="#fefefe" fill-rule="evenodd"/>
  <path d="M 224 473 L 224 485 L 236 485 L 236 473 Z" fill="#fefefe" fill-rule="evenodd"/>
  <path d="M 196 473 L 196 485 L 208 485 L 208 473 Z" fill="#fefefe" fill-rule="evenodd"/>
  <path d="M 141 473 L 141 485 L 153 485 L 153 473 Z" fill="#fefefe" fill-rule="evenodd"/>
  <path d="M 113 473 L 113 485 L 125 485 L 125 473 Z" fill="#fefefe" fill-rule="evenodd"/>
  <path d="M 58 473 L 58 485 L 70 485 L 70 473 Z" fill="#fefefe" fill-rule="evenodd"/>
  <path d="M 30 473 L 30 485 L 42 485 L 42 473 Z" fill="#fefefe" fill-rule="evenodd"/>
  <path d="M 459 459 L 459 471 L 471 471 L 471 459 Z" fill="#fefefe" fill-rule="evenodd"/>
  <path d="M 431 459 L 431 471 L 443 471 L 443 459 Z" fill="#fefefe" fill-rule="evenodd"/>
  <path d="M 376 459 L 376 471 L 388 471 L 388 459 Z" fill="#fefefe" fill-rule="evenodd"/>
  <path d="M 348 459 L 348 471 L 360 471 L 360 459 Z" fill="#fefefe" fill-rule="evenodd"/>
  <path d="M 293 459 L 293 471 L 305 471 L 305 459 Z" fill="#fefefe" fill-rule="evenodd"/>
  <path d="M 265 459 L 265 471 L 277 471 L 277 459 Z" fill="#fefefe" fill-rule="evenodd"/>
  <path d="M 210 459 L 210 471 L 222 471 L 222 459 Z" fill="#fefefe" fill-rule="evenodd"/>
  <path d="M 127 459 L 127 471 L 139 471 L 139 459 Z" fill="#fefefe" fill-rule="evenodd"/>
  <path d="M 44 459 L 44 471 L 56 471 L 56 459 Z" fill="#fefefe" fill-rule="evenodd"/>
  <path d="M 473 446 L 473 458 L 485 458 L 485 446 Z" fill="#fefefe" fill-rule="evenodd"/>
  <path d="M 445 446 L 445 458 L 457 458 L 457 446 Z" fill="#fefefe" fill-rule="evenodd"/>
  <path d="M 362 446 L 362 458 L 374 458 L 374 446 Z" fill="#fefefe" fill-rule="evenodd"/>
  <path d="M 141 446 L 141 458 L 153 458 L 153 446 Z" fill="#fefefe" fill-rule="evenodd"/>
  <path d="M 487 432 L 487 444 L 499 444 L 499 432 Z" fill="#fefefe" fill-rule="evenodd"/>
  <path d="M 459 432 L 459 444 L 471 444 L 471 432 Z" fill="#fefefe" fill-rule="evenodd"/>
  <path d="M 431 432 L 431 444 L 443 444 L 443 432 Z" fill="#fefefe" fill-rule="evenodd"/>
  <path d="M 376 432 L 376 444 L 388 444 L 388 432 Z" fill="#fefefe" fill-rule="evenodd"/>
  <path d="M 348 432 L 348 444 L 360 444 L 360 432 Z" fill="#fefefe" fill-rule="evenodd"/>
  <path d="M 182 432 L 182 444 L 194 444 L 194 432 Z" fill="#fefefe" fill-rule="evenodd"/>
  <path d="M 127 432 L 127 444 L 139 444 L 139 432 Z" fill="#fefefe" fill-rule="evenodd"/>
  <path d="M 72 432 L 72 444 L 84 444 L 84 432 Z" fill="#fefefe" fill-rule="evenodd"/>
  <path d="M 44 432 L 44 444 L 56 444 L 56 432 Z" fill="#fefefe" fill-rule="evenodd"/>
  <path d="M 16 432 L 16 444 L 28 444 L 28 432 Z" fill="#fefefe" fill-rule="evenodd"/>
  <path d="M 473 418 L 473 430 L 485 430 L 485 418 Z" fill="#fefefe" fill-rule="evenodd"/>
  <path d="M 445 418 L 445 430 L 457 430 L 457 418 Z" fill="#fefefe" fill-rule="evenodd"/>
  <path d="M 417 418 L 417 430 L 429 430 L 429 418 Z" fill="#fefefe" fill-rule="evenodd"/>
  <path d="M 362 418 L 362 430 L 374 430 L 374 418 Z" fill="#fefefe" fill-rule="evenodd"/>
  <path d="M 334 418 L 334 430 L 346 430 L 346 418 Z" fill="#fefefe" fill-rule="evenodd"/>
  <path d="M 196 418 L 196 430 L 208 430 L 208 418 Z" fill="#fefefe" fill-rule="evenodd"/>
  <path d="M 141 418 L 141 430 L 153 430 L 153 418 Z" fill="#fefefe" fill-rule="evenodd"/>
  <path d="M 113 418 L 113 430 L 125 430 L 125 418 Z" fill="#fefefe" fill-rule="evenodd"/>
  <path d="M 58 418 L 58 430 L 70 430 L 70 418 Z" fill="#fefefe" fill-rule="evenodd"/>
  <path d="M 30 418 L 30 430 L 42 430 L 42 418 Z" fill="#fefefe" fill-rule="evenodd"/>
  <path d="M 487 404 L 487 416 L 499 416 L 499 404 Z" fill="#fefefe" fill-rule="evenodd"/>
  <path d="M 459 404 L 459 416 L 471 416 L 471 404 Z" fill="#fefefe" fill-rule="evenodd"/>
  <path d="M 431 404 L 431 416 L 443 416 L 443 404 Z" fill="#fefefe" fill-rule="evenodd"/>
  <path d="M 376 404 L 376 416 L 388 416 L 388 404 Z" fill="#fefefe" fill-rule="evenodd"/>
  <path d="M 348 404 L 348 416 L 360 416 L 360 404 Z" fill="#fefefe" fill-rule="evenodd"/>
  <path d="M 182 404 L 182 416 L 194 416 L 194 404 Z" fill="#fefefe" fill-rule="evenodd"/>
  <path d="M 155 404 L 155 416 L 167 416 L 167 404 Z" fill="#fefefe" fill-rule="evenodd"/>
  <path d="M 127 404 L 127 416 L 139 416 L 139 404 Z" fill="#fefefe" fill-rule="evenodd"/>
  <path d="M 44 404 L 44 416 L 56 416 L 56 404 Z" fill="#fefefe" fill-rule="evenodd"/>
  <path d="M 16 404 L 16 416 L 28 416 L 28 404 Z" fill="#fefefe" fill-rule="evenodd"/>
  <path d="M 473 390 L 473 402 L 485 402 L 485 390 Z" fill="#fefefe" fill-rule="evenodd"/>
  <path d="M 445 390 L 445 402 L 457 402 L 457 390 Z" fill="#fefefe" fill-rule="evenodd"/>
  <path d="M 417 390 L 417 402 L 429 402 L 429 390 Z" fill="#fefefe" fill-rule="evenodd"/>
  <path d="M 58 390 L 58 402 L 70 402 L 70 390 Z" fill="#fefefe" fill-rule="evenodd"/>
  <path d="M 30 390 L 30 402 L 42 402 L 42 390 Z" fill="#fefefe" fill-rule="evenodd"/>
  <path d="M 445 363 L 445 375 L 457 375 L 457 363 Z" fill="#fefefe" fill-rule="evenodd"/>
  <path d="M 58 363 L 58 375 L 70 375 L 70 363 Z" fill="#fefefe" fill-rule="evenodd"/>
  <path d="M 30 363 L 30 375 L 42 375 L 42 363 Z" fill="#fefefe" fill-rule="evenodd"/>
  <path d="M 487 349 L 487 361 L 499 361 L 499 349 Z" fill="#fefefe" fill-rule="evenodd"/>
  <path d="M 459 349 L 459 361 L 471 361 L 471 349 Z" fill="#fefefe" fill-rule="evenodd"/>
  <path d="M 431 349 L 431 361 L 443 361 L 443 349 Z" fill="#fefefe" fill-rule="evenodd"/>
  <path d="M 44 349 L 44 361 L 56 361 L 56 349 Z" fill="#fefefe" fill-rule="evenodd"/>
  <path d="M 16 349 L 16 361 L 28 361 L 28 349 Z" fill="#fefefe" fill-rule="evenodd"/>
  <path d="M 473 335 L 473 347 L 485 347 L 485 335 Z" fill="#fefefe" fill-rule="evenodd"/>
  <path d="M 445 335 L 445 347 L 457 347 L 457 335 Z" fill="#fefefe" fill-rule="evenodd"/>
  <path d="M 417 335 L 417 347 L 429 347 L 429 335 Z" fill="#fefefe" fill-rule="evenodd"/>
  <path d="M 58 335 L 58 347 L 70 347 L 70 335 Z" fill="#fefefe" fill-rule="evenodd"/>
  <path d="M 30 335 L 30 347 L 42 347 L 42 335 Z" fill="#fefefe" fill-rule="evenodd"/>
  <path d="M 459 321 L 459 333 L 471 333 L 471 321 Z" fill="#fefefe" fill-rule="evenodd"/>
  <path d="M 431 321 L 431 333 L 443 333 L 443 321 Z" fill="#fefefe" fill-rule="evenodd"/>
  <path d="M 44 321 L 44 333 L 56 333 L 56 321 Z" fill="#fefefe" fill-rule="evenodd"/>
  <path d="M 16 321 L 16 333 L 28 333 L 28 321 Z" fill="#fefefe" fill-rule="evenodd"/>
  <path d="M 473 307 L 473 319 L 485 319 L 485 307 Z" fill="#fefefe" fill-rule="evenodd"/>
  <path d="M 445 307 L 445 319 L 457 319 L 457 307 Z" fill="#fefefe" fill-rule="evenodd"/>
  <path d="M 417 307 L 417 319 L 429 319 L 429 307 Z" fill="#fefefe" fill-rule="evenodd"/>
  <path d="M 58 307 L 58 319 L 70 319 L 70 307 Z" fill="#fefefe" fill-rule="evenodd"/>
  <path d="M 30 307 L 30 319 L 42 319 L 42 307 Z" fill="#fefefe" fill-rule="evenodd"/>
  <path d="M 473 280 L 473 292 L 485 292 L 485 280 Z" fill="#fefefe" fill-rule="evenodd"/>
  <path d="M 30 280 L 30 292 L 42 292 L 42 280 Z" fill="#fefefe" fill-rule="evenodd"/>
  <path d="M 487 266 L 487 278 L 499 278 L 499 266 Z" fill="#fefefe" fill-rule="evenodd"/>
  <path d="M 459 266 L 459 278 L 471 278 L 471 266 Z" fill="#fefefe" fill-rule="evenodd"/>
  <path d="M 44 266 L 44 278 L 56 278 L 56 266 Z" fill="#fefefe" fill-rule="evenodd"/>
  <path d="M 16 266 L 16 278 L 28 278 L 28 266 Z" fill="#fefefe" fill-rule="evenodd"/>
  <path d="M 473 252 L 473 264 L 485 264 L 485 252 Z" fill="#fefefe" fill-rule="evenodd"/>
  <path d="M 445 252 L 445 264 L 457 264 L 457 252 Z" fill="#fefefe" fill-rule="evenodd"/>
  <path d="M 58 252 L 58 264 L 70 264 L 70 252 Z" fill="#fefefe" fill-rule="evenodd"/>
  <path d="M 30 252 L 30 264 L 42 264 L 42 252 Z" fill="#fefefe" fill-rule="evenodd"/>
  <path d="M 487 238 L 487 250 L 499 250 L 499 238 Z" fill="#fefefe" fill-rule="evenodd"/>
  <path d="M 459 238 L 459 250 L 471 250 L 471 238 Z" fill="#fefefe" fill-rule="evenodd"/>
  <path d="M 44 238 L 44 250 L 56 250 L 56 238 Z" fill="#fefefe" fill-rule="evenodd"/>
  <path d="M 16 238 L 16 250 L 28 250 L 28 238 Z" fill="#fefefe" fill-rule="evenodd"/>
  <path d="M 473 224 L 473 236 L 485 236 L 485 224 Z" fill="#fefefe" fill-rule="evenodd"/>
  <path d="M 445 224 L 445 236 L 457 236 L 457 224 Z" fill="#fefefe" fill-rule="evenodd"/>
  <path d="M 58 224 L 58 236 L 70 236 L 70 224 Z" fill="#fefefe" fill-rule="evenodd"/>
  <path d="M 30 224 L 30 236 L 42 236 L 42 224 Z" fill="#fefefe" fill-rule="evenodd"/>
  <path d="M 473 197 L 473 209 L 485 209 L 485 197 Z" fill="#fefefe" fill-rule="evenodd"/>
  <path d="M 487 183 L 487 195 L 499 195 L 499 183 Z" fill="#fefefe" fill-rule="evenodd"/>
  <path d="M 459 183 L 459 195 L 471 195 L 471 183 Z" fill="#fefefe" fill-rule="evenodd"/>
  <path d="M 431 183 L 431 195 L 443 195 L 443 183 Z" fill="#fefefe" fill-rule="evenodd"/>
  <path d="M 72 183 L 72 195 L 84 195 L 84 183 Z" fill="#fefefe" fill-rule="evenodd"/>
  <path d="M 44 183 L 44 195 L 56 195 L 56 183 Z" fill="#fefefe" fill-rule="evenodd"/>
  <path d="M 16 183 L 16 195 L 28 195 L 28 183 Z" fill="#fefefe" fill-rule="evenodd"/>
  <path d="M 473 169 L 473 181 L 485 181 L 485 169 Z" fill="#fefefe" fill-rule="evenodd"/>
  <path d="M 445 169 L 445 181 L 457 181 L 457 169 Z" fill="#fefefe" fill-rule="evenodd"/>
  <path d="M 417 169 L 417 181 L 429 181 L 429 169 Z" fill="#fefefe" fill-rule="evenodd"/>
  <path d="M 58 169 L 58 181 L 70 181 L 70 169 Z" fill="#fefefe" fill-rule="evenodd"/>
  <path d="M 30 169 L 30 181 L 42 181 L 42 169 Z" fill="#fefefe" fill-rule="evenodd"/>
  <path d="M 487 155 L 487 167 L 499 167 L 499 155 Z" fill="#fefefe" fill-rule="evenodd"/>
  <path d="M 459 155 L 459 167 L 471 167 L 471 155 Z" fill="#fefefe" fill-rule="evenodd"/>
  <path d="M 431 155 L 431 167 L 443 167 L 443 155 Z" fill="#fefefe" fill-rule="evenodd"/>
  <path d="M 44 155 L 44 167 L 56 167 L 56 155 Z" fill="#fefefe" fill-rule="evenodd"/>
  <path d="M 16 155 L 16 167 L 28 167 L 28 155 Z" fill="#fefefe" fill-rule="evenodd"/>
  <path d="M 473 141 L 473 153 L 485 153 L 485 141 Z" fill="#fefefe" fill-rule="evenodd"/>
  <path d="M 445 141 L 445 153 L 457 153 L 457 141 Z" fill="#fefefe" fill-rule="evenodd"/>
  <path d="M 417 141 L 417 153 L 429 153 L 429 141 Z" fill="#fefefe" fill-rule="evenodd"/>
  <path d="M 58 141 L 58 153 L 70 153 L 70 141 Z" fill="#fefefe" fill-rule="evenodd"/>
  <path d="M 30 141 L 30 153 L 42 153 L 42 141 Z" fill="#fefefe" fill-rule="evenodd"/>
  <path d="M 473 86 L 473 98 L 485 98 L 485 86 Z" fill="#fefefe" fill-rule="evenodd"/>
  <path d="M 445 86 L 445 98 L 457 98 L 457 86 Z" fill="#fefefe" fill-rule="evenodd"/>
  <path d="M 417 86 L 417 98 L 429 98 L 429 86 Z" fill="#fefefe" fill-rule="evenodd"/>
  <path d="M 362 86 L 362 98 L 374 98 L 374 86 Z" fill="#fefefe" fill-rule="evenodd"/>
  <path d="M 334 86 L 334 98 L 346 98 L 346 86 Z" fill="#fefefe" fill-rule="evenodd"/>
  <path d="M 196 86 L 196 98 L 208 98 L 208 86 Z" fill="#fefefe" fill-rule="evenodd"/>
  <path d="M 141 86 L 141 98 L 153 98 L 153 86 Z" fill="#fefefe" fill-rule="evenodd"/>
  <path d="M 113 86 L 113 98 L 125 98 L 125 86 Z" fill="#fefefe" fill-rule="evenodd"/>
  <path d="M 58 86 L 58 98 L 70 98 L 70 86 Z" fill="#fefefe" fill-rule="evenodd"/>
  <path d="M 30 86 L 30 98 L 42 98 L 42 86 Z" fill="#fefefe" fill-rule="evenodd"/>
  <path d="M 487 72 L 487 84 L 499 84 L 499 72 Z" fill="#fefefe" fill-rule="evenodd"/>
  <path d="M 459 72 L 459 84 L 471 84 L 471 72 Z" fill="#fefefe" fill-rule="evenodd"/>
  <path d="M 431 72 L 431 84 L 443 84 L 443 72 Z" fill="#fefefe" fill-rule="evenodd"/>
  <path d="M 376 72 L 376 84 L 388 84 L 388 72 Z" fill="#fefefe" fill-rule="evenodd"/>
  <path d="M 348 72 L 348 84 L 360 84 L 360 72 Z" fill="#fefefe" fill-rule="evenodd"/>
  <path d="M 182 72 L 182 84 L 194 84 L 194 72 Z" fill="#fefefe" fill-rule="evenodd"/>
  <path d="M 155 72 L 155 84 L 167 84 L 167 72 Z" fill="#fefefe" fill-rule="evenodd"/>
  <path d="M 127 72 L 127 84 L 139 84 L 139 72 Z" fill="#fefefe" fill-rule="evenodd"/>
  <path d="M 72 72 L 72 84 L 84 84 L 84 72 Z" fill="#fefefe" fill-rule="evenodd"/>
  <path d="M 44 72 L 44 84 L 56 84 L 56 72 Z" fill="#fefefe" fill-rule="evenodd"/>
  <path d="M 16 72 L 16 84 L 28 84 L 28 72 Z" fill="#fefefe" fill-rule="evenodd"/>
  <path d="M 473 58 L 473 70 L 485 70 L 485 58 Z" fill="#fefefe" fill-rule="evenodd"/>
  <path d="M 445 58 L 445 70 L 457 70 L 457 58 Z" fill="#fefefe" fill-rule="evenodd"/>
  <path d="M 417 58 L 417 70 L 429 70 L 429 58 Z" fill="#fefefe" fill-rule="evenodd"/>
  <path d="M 362 58 L 362 70 L 374 70 L 374 58 Z" fill="#fefefe" fill-rule="evenodd"/>
  <path d="M 334 58 L 334 70 L 346 70 L 346 58 Z" fill="#fefefe" fill-rule="evenodd"/>
  <path d="M 279 58 L 279 70 L 291 70 L 291 58 Z" fill="#fefefe" fill-rule="evenodd"/>
  <path d="M 224 58 L 224 70 L 236 70 L 236 58 Z" fill="#fefefe" fill-rule="evenodd"/>
  <path d="M 196 58 L 196 70 L 208 70 L 208 58 Z" fill="#fefefe" fill-rule="evenodd"/>
  <path d="M 141 58 L 141 70 L 153 70 L 153 58 Z" fill="#fefefe" fill-rule="evenodd"/>
  <path d="M 113 58 L 113 70 L 125 70 L 125 58 Z" fill="#fefefe" fill-rule="evenodd"/>
  <path d="M 58 58 L 58 70 L 70 70 L 70 58 Z" fill="#fefefe" fill-rule="evenodd"/>
  <path d="M 30 58 L 30 70 L 42 70 L 42 58 Z" fill="#fefefe" fill-rule="evenodd"/>
  <path d="M 487 44 L 487 56 L 499 56 L 499 44 Z" fill="#fefefe" fill-rule="evenodd"/>
  <path d="M 459 44 L 459 56 L 471 56 L 471 44 Z" fill="#fefefe" fill-rule="evenodd"/>
  <path d="M 431 44 L 431 56 L 443 56 L 443 44 Z" fill="#fefefe" fill-rule="evenodd"/>
  <path d="M 376 44 L 376 56 L 388 56 L 388 44 Z" fill="#fefefe" fill-rule="evenodd"/>
  <path d="M 348 44 L 348 56 L 360 56 L 360 44 Z" fill="#fefefe" fill-rule="evenodd"/>
  <path d="M 293 44 L 293 56 L 305 56 L 305 44 Z" fill="#fefefe" fill-rule="evenodd"/>
  <path d="M 265 44 L 265 56 L 277 56 L 277 44 Z" fill="#fefefe" fill-rule="evenodd"/>
  <path d="M 238 44 L 238 56 L 250 56 L 250 44 Z" fill="#fefefe" fill-rule="evenodd"/>
  <path d="M 210 44 L 210 56 L 222 56 L 222 44 Z" fill="#fefefe" fill-rule="evenodd"/>
  <path d="M 155 44 L 155 56 L 167 56 L 167 44 Z" fill="#fefefe" fill-rule="evenodd"/>
  <path d="M 127 44 L 127 56 L 139 56 L 139 44 Z" fill="#fefefe" fill-rule="evenodd"/>
  <path d="M 72 44 L 72 56 L 84 56 L 84 44 Z" fill="#fefefe" fill-rule="evenodd"/>
  <path d="M 44 44 L 44 56 L 56 56 L 56 44 Z" fill="#fefefe" fill-rule="evenodd"/>
  <path d="M 16 44 L 16 56 L 28 56 L 28 44 Z" fill="#fefefe" fill-rule="evenodd"/>
  <path d="M 362 30 L 362 42 L 374 42 L 374 30 Z" fill="#fefefe" fill-rule="evenodd"/>
  <path d="M 279 30 L 279 42 L 291 42 L 291 30 Z" fill="#fefefe" fill-rule="evenodd"/>
  <path d="M 251 30 L 251 42 L 263 42 L 263 30 Z" fill="#fefefe" fill-rule="evenodd"/>
  <path d="M 224 30 L 224 42 L 236 42 L 236 30 Z" fill="#fefefe" fill-rule="evenodd"/>
  <path d="M 196 30 L 196 42 L 208 42 L 208 30 Z" fill="#fefefe" fill-rule="evenodd"/>
  <path d="M 58 30 L 58 42 L 70 42 L 70 30 Z" fill="#fefefe" fill-rule="evenodd"/>
  <path d="M 30 30 L 30 42 L 42 42 L 42 30 Z" fill="#fefefe" fill-rule="evenodd"/>
  <path d="M 346 446 L 334 446 L 334 457 L 346 458 Z" fill="#fefefe" fill-rule="evenodd"/>
  <path d="M 196 390 L 196 402 L 208 402 L 208 391 Z" fill="#fefefe" fill-rule="evenodd"/>
  <path d="M 293 72 L 293 82 L 296 84 L 305 84 L 305 72 Z" fill="#fefefe" fill-rule="evenodd"/>
  <path d="M 210 72 L 210 84 L 220 84 L 222 81 L 222 72 Z" fill="#fefefe" fill-rule="evenodd"/>
  <path d="M 296 432 L 293 435 L 293 444 L 305 444 L 305 432 Z" fill="#fefefe" fill-rule="evenodd"/>
  <path d="M 443 293 L 437 293 L 435 296 L 431 298 L 431 306 L 443 306 Z" fill="#fefefe" fill-rule="evenodd"/>
  <path d="M 210 432 L 210 444 L 222 444 L 222 436 L 220 435 L 220 433 Z" fill="#fefefe" fill-rule="evenodd"/>
  <path d="M 416 501 L 403 501 L 403 511 L 416 511 Z" fill="#f3f3f3" fill-rule="evenodd"/>
  <path d="M 500 72 L 500 84 L 511 84 L 511 72 Z" fill="#f3f3f3" fill-rule="evenodd"/>
  <path d="M 500 473 L 500 485 L 511 485 L 511 473 Z" fill="#fefefe" fill-rule="evenodd"/>
  <path d="M 500 418 L 500 430 L 511 430 L 511 418 Z" fill="#fefefe" fill-rule="evenodd"/>
  <path d="M 500 335 L 500 347 L 511 347 L 511 335 Z" fill="#fefefe" fill-rule="evenodd"/>
  <path d="M 500 252 L 500 264 L 511 264 L 511 252 Z" fill="#fefefe" fill-rule="evenodd"/>
  <path d="M 500 169 L 500 181 L 511 181 L 511 169 Z" fill="#fefefe" fill-rule="evenodd"/>
  <path d="M 500 141 L 500 153 L 511 153 L 511 141 Z" fill="#fefefe" fill-rule="evenodd"/>
  <path d="M 500 58 L 500 70 L 511 70 L 511 58 Z" fill="#fefefe" fill-rule="evenodd"/>
  <path d="M 500 30 L 500 42 L 511 42 L 511 30 Z" fill="#fefefe" fill-rule="evenodd"/>
  <path d="M 154 501 L 154 511 L 167 511 L 167 501 Z" fill="#f3f3f3" fill-rule="evenodd"/>
  <path d="M 85 501 L 85 511 L 98 511 L 98 501 Z" fill="#fefefe" fill-rule="evenodd"/>
  <path d="M 127 501 L 127 511 L 139 511 L 139 500 Z" fill="#f3f3f3" fill-rule="evenodd"/>
  <path d="M 390 501 L 389 511 L 402 511 L 402 501 Z" fill="#fefefe" fill-rule="evenodd"/>
  <path d="M 168 501 L 168 511 L 181 511 L 180 501 Z" fill="#fefefe" fill-rule="evenodd"/>
  <path d="M 210 501 L 210 511 L 222 511 L 222 500 Z" fill="#f3f3f3" fill-rule="evenodd"/>
  <path d="M 265 501 L 265 511 L 277 511 L 277 501 Z" fill="#f3f3f3" fill-rule="evenodd"/>
  <path d="M 16 501 L 16 511 L 29 511 L 29 501 Z" fill="#f3f3f3" fill-rule="evenodd"/>
  <path d="M 307 501 L 306 511 L 319 511 L 319 501 Z" fill="#fefefe" fill-rule="evenodd"/>
  <path d="M 431 501 L 431 511 L 443 511 L 443 501 Z" fill="#f3f3f3" fill-rule="evenodd"/>
  <path d="M 251 501 L 251 511 L 264 511 L 263 501 Z" fill="#fefefe" fill-rule="evenodd"/>
  <path d="M 473 501 L 473 511 L 485 511 L 485 501 Z" fill="#fefefe" fill-rule="evenodd"/>
  <path d="M 445 501 L 445 511 L 457 511 L 457 501 Z" fill="#fefefe" fill-rule="evenodd"/>
  <path d="M 417 501 L 417 511 L 429 511 L 429 501 Z" fill="#fefefe" fill-rule="evenodd"/>
  <path d="M 362 501 L 362 511 L 374 511 L 374 501 Z" fill="#fefefe" fill-rule="evenodd"/>
  <path d="M 334 501 L 334 511 L 346 511 L 346 501 Z" fill="#fefefe" fill-rule="evenodd"/>
  <path d="M 279 501 L 279 511 L 291 511 L 291 501 Z" fill="#fefefe" fill-rule="evenodd"/>
  <path d="M 224 501 L 224 511 L 236 511 L 236 501 Z" fill="#fefefe" fill-rule="evenodd"/>
  <path d="M 196 501 L 196 511 L 208 511 L 208 501 Z" fill="#fefefe" fill-rule="evenodd"/>
  <path d="M 141 501 L 141 511 L 153 511 L 153 501 Z" fill="#fefefe" fill-rule="evenodd"/>
  <path d="M 113 501 L 113 511 L 125 511 L 125 501 Z" fill="#fefefe" fill-rule="evenodd"/>
  <path d="M 58 501 L 58 511 L 70 511 L 70 501 Z" fill="#fefefe" fill-rule="evenodd"/>
  <path d="M 30 501 L 30 511 L 42 511 L 42 501 Z" fill="#fefefe" fill-rule="evenodd"/>
  <path d="M 99 349 L 99 361 L 108 361 L 108 349 Z" fill="#fefefe" fill-rule="evenodd"/>
  <path d="M 99 155 L 99 167 L 108 167 L 108 155 Z" fill="#fefefe" fill-rule="evenodd"/>
  <path d="M 500 501 L 500 511 L 511 511 L 511 501 Z" fill="#fefefe" fill-rule="evenodd"/>
  <path d="M 406 349 L 406 355 L 408 356 L 406 361 L 415 361 L 415 349 Z" fill="#fefefe" fill-rule="evenodd"/>
  <path d="M 407 155 L 407 167 L 415 167 L 416 155 Z" fill="#fefefe" fill-rule="evenodd"/>
</svg>
