<svg xmlns="http://www.w3.org/2000/svg" width="512" height="512" viewBox="0 0 512 512" fill="none">
  <path d="M 238 77 L 219 89 L 207 132 L 186 138 L 148 120 L 116 146 L 111 165 L 130 205 L 117 219 L 78 230 L 74 280 L 86 296 L 128 309 L 130 324 L 111 360 L 138 395 L 162 399 L 198 382 L 213 392 L 225 434 L 278 439 L 296 427 L 308 386 L 325 381 L 365 400 L 399 373 L 404 354 L 385 313 L 397 300 L 436 290 L 441 239 L 431 224 L 387 210 L 385 194 L 404 159 L 379 125 L 358 120 L 322 138 L 302 126 L 288 81 Z M 249 198 L 271 199 L 292 208 L 311 228 L 319 249 L 319 270 L 316 281 L 307 297 L 289 313 L 267 321 L 243 320 L 220 309 L 204 291 L 196 270 L 196 249 L 206 225 L 226 206 Z" fill="#283451" fill-rule="evenodd"/>
  <path d="M 249 198 L 271 199 L 292 208 L 311 228 L 319 249 L 319 270 L 316 281 L 307 297 L 289 313 L 267 321 L 243 320 L 220 309 L 204 291 L 196 270 L 196 249 L 206 225 L 226 206 Z" fill="#283451" fill-rule="evenodd"/>
  <path d="M 253 199 L 241 201 L 227 207 L 209 223 L 198 246 L 197 268 L 206 292 L 222 309 L 241 318 L 263 320 L 280 316 L 293 309 L 309 292 L 317 273 L 318 252 L 310 229 L 294 211 L 277 202 Z" fill="#c79a5c" fill-rule="evenodd"/>
</svg>
