<svg xmlns="http://www.w3.org/2000/svg" width="1024" height="1024" viewBox="0 0 1024 1024">
<g>
<path d="M 556.17 875.55 C546.59,877.58 476.12,877.47 467.60,875.41 C449.30,870.98 434.52,857.24 428.98,839.50 C428.25,837.17 427.46,826.50 427.08,814.00 C426.45,793.12 426.35,792.32 423.56,786.21 C419.61,777.54 412.79,771.50 401.40,766.58 C394.04,763.39 391.03,762.65 384.00,762.27 C371.75,761.61 367.55,763.48 352.00,776.54 C330.89,794.28 322.43,798.27 306.00,798.23 C294.97,798.20 287.70,796.24 277.51,790.54 C269.97,786.33 265.38,782.08 243.71,759.29 C226.94,741.66 222.32,734.71 219.54,722.90 C216.62,710.52 217.88,699.38 223.55,687.43 C225.99,682.28 230.30,676.51 239.36,666.24 C254.28,649.33 256.42,644.99 255.76,633.00 C255.51,628.51 254.44,623.19 253.10,619.75 C250.15,612.19 242.51,603.89 235.22,600.32 C229.75,597.64 228.84,597.53 208.03,596.85 C184.01,596.08 180.65,595.49 170.55,590.23 C157.15,583.25 146.67,569.50 144.09,555.51 C142.64,547.68 142.64,484.30 144.09,476.46 C147.34,458.91 161.09,443.33 178.25,437.76 C183.37,436.10 188.38,435.62 206.00,435.09 C227.36,434.44 227.54,434.42 234.00,431.34 C248.63,424.38 256.75,410.50 255.80,394.06 C255.19,383.55 253.21,380.03 238.92,364.07 C230.09,354.20 226.01,348.76 223.55,343.57 C216.07,327.80 216.10,313.14 223.63,297.25 C226.54,291.13 229.84,287.09 244.99,271.12 C267.04,247.88 269.49,245.73 279.50,240.88 C289.32,236.12 299.24,234.57 310.63,236.02 C322.33,237.50 330.23,241.82 345.22,254.95 C360.51,268.34 365.53,270.98 375.74,270.99 C382.30,271.00 384.26,270.47 396.57,265.31 C411.36,259.11 417.19,254.94 421.60,247.42 C426.01,239.90 426.98,234.04 426.99,214.89 C427.00,194.29 427.81,189.08 432.51,179.17 C439.04,165.37 452.72,154.65 467.88,151.44 C477.47,149.40 547.64,149.43 557.27,151.47 C575.22,155.27 591.47,171.03 596.03,189.05 C596.65,191.50 597.49,203.62 597.90,216.00 C598.76,241.54 599.42,244.16 607.16,252.56 C611.77,257.56 615.34,259.61 631.78,266.67 C641.04,270.65 643.45,271.28 649.50,271.32 C659.90,271.39 665.03,268.72 679.46,255.74 C698.73,238.41 710.02,234.07 730.46,236.11 C741.19,237.18 750.74,241.91 760.23,250.85 C773.15,263.01 795.89,287.87 798.98,293.22 C808.59,309.88 808.65,331.05 799.13,347.50 C797.53,350.25 790.83,358.43 784.23,365.68 C770.20,381.08 768.50,384.40 768.50,396.50 C768.50,408.28 772.14,417.06 780.04,424.37 C789.45,433.09 793.32,434.15 819.00,435.09 C830.83,435.52 842.21,436.31 844.30,436.84 C855.57,439.72 869.59,450.93 875.26,461.61 C881.11,472.62 881.50,476.05 881.50,516.00 C881.50,548.59 881.30,553.14 879.66,558.50 C874.36,575.79 862.30,588.54 846.00,594.08 C840.38,595.99 836.51,596.38 817.50,596.92 C796.51,597.52 795.24,597.67 789.82,600.19 C781.54,604.03 775.90,609.71 771.91,618.23 C768.87,624.71 768.50,626.42 768.50,634.00 C768.50,646.55 770.03,649.59 784.70,666.27 C799.89,683.52 804.11,691.17 805.96,704.77 C807.60,716.86 803.75,732.40 796.67,742.31 C794.93,744.75 784.88,755.69 774.35,766.63 C753.78,787.98 748.24,792.25 736.00,796.10 C727.34,798.83 713.59,799.02 706.00,796.53 C695.89,793.21 689.51,789.26 674.89,777.29 C666.91,770.75 658.83,764.75 656.94,763.95 C654.75,763.03 650.05,762.50 644.00,762.50 C635.23,762.50 633.74,762.81 624.63,766.50 C612.62,771.37 605.43,777.33 601.35,785.81 C598.72,791.26 598.58,792.39 597.89,812.50 C597.38,827.53 596.70,835.06 595.50,839.00 C589.89,857.45 574.63,871.64 556.17,875.55 ZM 494.50 636.87 C519.96,640.06 543.05,636.46 564.96,625.91 C577.72,619.77 586.03,613.99 596.39,604.06 C623.90,577.70 637.30,542.04 633.84,504.42 C631.30,476.71 618.81,450.75 598.03,429.96 C580.92,412.84 562.16,402.57 537.50,396.81 C525.69,394.06 500.61,393.87 488.50,396.45 C463.63,401.74 443.33,412.63 425.97,429.98 C402.09,453.84 389.63,483.60 389.74,516.50 C389.80,536.73 393.55,552.40 402.66,570.50 C414.30,593.66 433.33,612.79 456.60,624.74 C467.55,630.37 483.61,635.51 494.50,636.87 Z" fill="rgb(39,51,80)"/>
<path d="M 494.50 636.87 C483.61,635.51 467.55,630.37 456.60,624.74 C433.33,612.79 414.30,593.66 402.66,570.50 C393.55,552.40 389.80,536.73 389.74,516.50 C389.63,483.60 402.09,453.84 425.97,429.98 C443.33,412.63 463.63,401.74 488.50,396.45 C500.61,393.87 525.69,394.06 537.50,396.81 C562.16,402.57 580.92,412.84 598.03,429.96 C618.81,450.75 631.30,476.71 633.84,504.42 C637.30,542.04 623.90,577.70 596.39,604.06 C586.03,613.99 577.72,619.77 564.96,625.91 C543.05,636.46 519.96,640.06 494.50,636.87 Z" fill="rgb(199,153,91)"/>
<path d="M 0.00 512.00 L 0.00 0.00 L 512.00 0.00 L 1024.00 0.00 L 1024.00 512.00 L 1024.00 1024.00 L 512.00 1024.00 L 0.00 1024.00 L 0.00 512.00 ZM 556.17 875.55 C574.63,871.64 589.89,857.45 595.50,839.00 C596.70,835.06 597.38,827.53 597.89,812.50 C598.58,792.39 598.72,791.26 601.35,785.81 C605.43,777.33 612.62,771.37 624.63,766.50 C633.74,762.81 635.23,762.50 644.00,762.50 C650.05,762.50 654.75,763.03 656.94,763.95 C658.83,764.75 666.91,770.75 674.89,777.29 C689.51,789.26 695.89,793.21 706.00,796.53 C713.59,799.02 727.34,798.83 736.00,796.10 C748.24,792.25 753.78,787.98 774.35,766.63 C784.88,755.69 794.93,744.75 796.67,742.31 C803.75,732.40 807.60,716.86 805.96,704.77 C804.11,691.17 799.89,683.52 784.70,666.27 C770.03,649.59 768.50,646.55 768.50,634.00 C768.50,626.42 768.87,624.71 771.91,618.23 C775.90,609.71 781.54,604.03 789.82,600.19 C795.24,597.67 796.51,597.52 817.50,596.92 C836.51,596.38 840.38,595.99 846.00,594.08 C862.30,588.54 874.36,575.79 879.66,558.50 C881.30,553.14 881.50,548.59 881.50,516.00 C881.50,476.05 881.11,472.62 875.26,461.61 C869.59,450.93 855.57,439.72 844.30,436.84 C842.21,436.31 830.83,435.52 819.00,435.09 C793.32,434.15 789.45,433.09 780.04,424.37 C772.14,417.06 768.50,408.28 768.50,396.50 C768.50,384.40 770.20,381.08 784.23,365.68 C790.83,358.43 797.53,350.25 799.13,347.50 C808.65,331.05 808.59,309.88 798.98,293.22 C795.89,287.87 773.15,263.01 760.23,250.85 C750.74,241.91 741.19,237.18 730.46,236.11 C710.02,234.07 698.73,238.41 679.46,255.74 C665.03,268.72 659.90,271.39 649.50,271.32 C643.45,271.28 641.04,270.65 631.78,266.67 C615.34,259.61 611.77,257.56 607.16,252.56 C599.42,244.16 598.76,241.54 597.90,216.00 C597.49,203.62 596.65,191.50 596.03,189.05 C591.47,171.03 575.22,155.27 557.27,151.47 C547.64,149.43 477.47,149.40 467.88,151.44 C452.72,154.65 439.04,165.37 432.51,179.17 C427.81,189.08 427.00,194.29 426.99,214.89 C426.98,234.04 426.01,239.90 421.60,247.42 C417.19,254.94 411.36,259.11 396.57,265.31 C384.26,270.47 382.30,271.00 375.74,270.99 C365.53,270.98 360.51,268.34 345.22,254.95 C330.23,241.82 322.33,237.50 310.63,236.02 C299.24,234.57 289.32,236.12 279.50,240.88 C269.49,245.73 267.04,247.88 244.99,271.12 C229.84,287.09 226.54,291.13 223.63,297.25 C216.10,313.14 216.07,327.80 223.55,343.57 C226.01,348.76 230.09,354.20 238.92,364.07 C253.21,380.03 255.19,383.55 255.80,394.06 C256.75,410.50 248.63,424.38 234.00,431.34 C227.54,434.42 227.36,434.44 206.00,435.09 C188.38,435.62 183.37,436.10 178.25,437.76 C161.09,443.33 147.34,458.91 144.09,476.46 C142.64,484.30 142.64,547.68 144.09,555.51 C146.67,569.50 157.15,583.25 170.55,590.23 C180.65,595.49 184.01,596.08 208.03,596.85 C228.84,597.53 229.75,597.64 235.22,600.32 C242.51,603.89 250.15,612.19 253.10,619.75 C254.44,623.19 255.51,628.51 255.76,633.00 C256.42,644.99 254.28,649.33 239.36,666.24 C230.30,676.51 225.99,682.28 223.55,687.43 C217.88,699.38 216.62,710.52 219.54,722.90 C222.32,734.71 226.94,741.66 243.71,759.29 C265.38,782.08 269.97,786.33 277.51,790.54 C287.70,796.24 294.97,798.20 306.00,798.23 C322.43,798.27 330.89,794.28 352.00,776.54 C367.55,763.48 371.75,761.61 384.00,762.27 C391.03,762.65 394.04,763.39 401.40,766.58 C412.79,771.50 419.61,777.54 423.56,786.21 C426.35,792.32 426.45,793.12 427.08,814.00 C427.46,826.50 428.25,837.17 428.98,839.50 C434.52,857.24 449.30,870.98 467.60,875.41 C476.12,877.47 546.59,877.58 556.17,875.55 Z" fill="rgb(248,248,248)"/>
</g>
</svg>