<svg width="18" height="18" viewBox="0 0 18 18" fill="none" xmlns="http://www.w3.org/2000/svg" aria-hidden="true">
  <defs>
    <linearGradient id="g" x1="3" y1="2" x2="15" y2="16" gradientUnits="userSpaceOnUse">
      <stop stop-color="#60A5FA"/>
      <stop offset="1" stop-color="#2563EB"/>
    </linearGradient>
    <linearGradient id="s" x1="9" y1="3.8" x2="9" y2="12.5" gradientUnits="userSpaceOnUse">
      <stop stop-color="#FEF3C7"/>
      <stop offset="1" stop-color="#F59E0B"/>
    </linearGradient>
  </defs>
  <rect x="1.5" y="1.5" width="15" height="15" rx="5" fill="#EFF6FF" stroke="#BFDBFE"/>
  <path d="M11.95 5.25H13.1c.64 0 1.15.51 1.15 1.15v5.2c0 .64-.51 1.15-1.15 1.15H4.9c-.64 0-1.15-.51-1.15-1.15V6.4c0-.64.51-1.15 1.15-1.15h1.15l.55-.9c.2-.32.55-.52.93-.52h2.94c.38 0 .73.2.93.52l.55.9Z" fill="url(#g)"/>
  <circle cx="9" cy="9" r="2.65" fill="#fff" opacity=".96"/>
  <circle cx="9" cy="9" r="1.65" fill="url(#s)"/>
  <path d="M12.38 6.45h.58" stroke="#DBEAFE" stroke-width=".8" stroke-linecap="round"/>
  <path d="M9 5.95l.42.86.95.14-.69.67.17.95L9 8.12l-.85.45.17-.95-.69-.67.95-.14L9 5.95Z" fill="#FFF7ED"/>
</svg>
