<svg width="64" height="64" viewBox="0 0 64 64" fill="none" xmlns="http://www.w3.org/2000/svg">
  <defs>
    <linearGradient id="r1" x1="15" y1="5" x2="32" y2="28" gradientUnits="userSpaceOnUse"><stop stop-color="#7C3AED"/><stop offset="1" stop-color="#C4B5FD"/></linearGradient>
    <linearGradient id="r2" x1="49" y1="5" x2="32" y2="28" gradientUnits="userSpaceOnUse"><stop stop-color="#0EA5E9"/><stop offset="1" stop-color="#BAE6FD"/></linearGradient>
    <linearGradient id="g" x1="17" y1="21" x2="50" y2="56" gradientUnits="userSpaceOnUse"><stop stop-color="#F8FAFC"/><stop offset="0.5" stop-color="#CBD5E1"/><stop offset="1" stop-color="#64748B"/></linearGradient>
    <filter id="s" x="6" y="0" width="52" height="64" filterUnits="userSpaceOnUse" color-interpolation-filters="sRGB"><feDropShadow dx="0" dy="5" stdDeviation="4" flood-color="#475569" flood-opacity=".18"/></filter>
  </defs>
  <path d="M18 5H30L35 24H24L18 5Z" fill="url(#r1)"/>
  <path d="M46 5H34L29 24H40L46 5Z" fill="url(#r2)"/>
  <g filter="url(#s)">
    <circle cx="32" cy="37" r="21" fill="url(#g)"/>
    <circle cx="32" cy="37" r="17" stroke="white" stroke-opacity=".88" stroke-width="2.5"/>
    <path d="M25 32.8C26.2 29.6 29 27.5 32.4 27.5C36.6 27.5 39.6 30.1 39.6 33.8C39.6 36.6 37.9 38.4 35.2 40.4L29.2 44.8H40" stroke="#F8FAFC" stroke-width="4" stroke-linecap="round" stroke-linejoin="round"/>
    <circle cx="25" cy="27" r="4" fill="white" fill-opacity=".5"/>
  </g>
</svg>