<svg xmlns="http://www.w3.org/2000/svg" width="512" height="512" viewBox="0 0 512 512" fill="none">
  <path d="M 130 151 L 117 176 L 121 206 L 130 226 L 151 249 L 185 262 L 208 287 L 240 302 L 234 342 L 281 342 L 275 302 L 307 287 L 330 262 L 369 245 L 387 223 L 397 194 L 398 175 L 391 157 L 375 146 L 347 146 L 344 129 L 332 120 L 183 120 L 171 129 L 168 146 L 144 145 Z M 305 180 L 305 187 L 300 194 L 264 233 L 250 246 L 241 245 L 217 220 L 217 212 L 223 206 L 231 206 L 247 220 L 288 175 L 292 173 L 298 173 Z M 366 165 L 371 167 L 375 171 L 378 178 L 376 197 L 366 219 L 357 229 L 344 237 L 343 232 L 346 218 L 346 168 L 349 166 Z M 146 166 L 159 165 L 166 166 L 169 168 L 169 216 L 173 235 L 172 237 L 163 233 L 153 224 L 146 214 L 141 203 L 138 192 L 137 179 L 140 171 Z" fill="#c6975a" fill-rule="evenodd"/>
  <path d="M 181 381 L 183 394 L 191 399 L 324 399 L 333 393 L 335 387 L 330 375 L 313 371 L 312 352 L 303 344 L 213 344 L 208 346 L 203 353 L 202 371 L 189 373 Z" fill="#222f4c" fill-rule="evenodd"/>
  <path d="M 305 180 L 305 187 L 300 194 L 264 233 L 250 246 L 241 245 L 217 220 L 217 212 L 223 206 L 231 206 L 247 220 L 288 175 L 292 173 L 298 173 Z" fill="#c6975a" fill-rule="evenodd"/>
  <path d="M 303 178 L 297 174 L 290 175 L 247 221 L 245 221 L 230 207 L 224 207 L 219 211 L 218 220 L 240 243 L 244 245 L 249 245 L 258 238 L 303 189 Z" fill="#881a2b" fill-rule="evenodd"/>
  <path d="M 366 165 L 371 167 L 375 171 L 378 178 L 376 197 L 366 219 L 357 229 L 344 237 L 343 232 L 346 218 L 346 168 L 349 166 Z" fill="#c6975a" fill-rule="evenodd"/>
  <path d="M 146 166 L 159 165 L 166 166 L 169 168 L 169 216 L 173 235 L 172 237 L 163 233 L 153 224 L 146 214 L 141 203 L 138 192 L 137 179 L 140 171 Z" fill="#c6975a" fill-rule="evenodd"/>
</svg>
