<svg xmlns="http://www.w3.org/2000/svg" width="1024" height="1024" viewBox="0 0 1024 1024">
<g>
<path d="M 651.00 794.41 C646.51,796.49 646.13,796.50 514.50,796.69 C510.17,796.70 505.97,796.70 501.90,796.71 C385.99,796.88 377.51,796.90 371.32,793.14 C370.61,792.71 369.94,792.24 369.13,791.71 C354.60,782.09 352.79,759.82 365.60,748.02 C372.08,742.05 375.78,740.79 389.00,740.10 L 400.50 739.50 L 401.00 721.00 C401.49,703.05 401.58,702.36 404.25,697.82 C407.74,691.89 413.05,687.50 419.47,685.26 C424.12,683.63 431.16,683.50 513.50,683.50 C601.70,683.50 602.54,683.52 607.00,685.59 C613.78,688.74 617.56,692.43 620.94,699.20 C624.00,705.31 624.00,705.33 624.00,722.54 L 624.00 739.75 L 635.75 740.21 C648.95,740.73 652.65,741.89 658.77,747.41 C664.59,752.67 667.44,759.75 667.44,769.00 C667.45,775.20 666.98,777.39 664.77,781.62 C661.72,787.46 657.49,791.39 651.00,794.41 Z" fill="rgb(35,48,76)"/>
<path d="M 499.66 485.70 C494.04,488.69 486.97,488.67 480.49,485.65 C473.40,482.35 433.67,441.06 432.08,435.35 C430.70,430.37 430.72,427.10 432.17,422.90 C435.77,412.48 446.03,407.33 456.84,410.54 C461.40,411.90 463.89,413.86 476.09,425.73 L 490.10 439.36 L 492.40 436.93 C494.54,434.67 538.04,387.40 563.72,359.41 C572.51,349.84 575.93,346.81 579.48,345.46 C588.87,341.87 599.83,345.88 603.96,354.43 C606.38,359.42 606.65,367.52 604.55,372.53 C603.75,374.44 591.70,388.27 577.76,403.25 C563.82,418.24 541.48,442.42 528.12,457.00 C512.07,474.50 502.40,484.25 499.66,485.70 Z" fill="rgb(134,24,42)"/>
<path d="M 599.65 684.08 C591.09,683.51 570.61,683.50 513.50,683.50 C453.60,683.50 433.55,683.57 425.28,684.23 C429.47,683.73 435.00,683.47 442.80,683.26 L 462.11 682.74 L 465.66 675.69 C472.67,661.75 476.49,637.79 475.81,612.01 C475.52,601.42 475.34,600.50 473.50,600.20 C460.84,598.18 430.08,584.04 415.50,573.54 C398.88,561.58 382.79,545.15 372.08,529.19 C369.75,525.72 367.31,522.73 366.67,522.56 C366.03,522.39 361.90,521.77 357.50,521.19 C333.40,518.02 304.96,503.18 283.06,482.36 C256.17,456.79 238.78,422.89 231.84,382.50 C229.08,366.39 229.59,344.10 232.97,333.50 C238.02,317.64 249.32,302.38 261.38,295.13 C269.29,290.38 282.01,286.28 292.27,285.17 C300.38,284.30 317.80,284.97 328.62,286.58 L 332.74 287.19 L 333.23 276.34 C334.01,259.40 338.91,249.38 350.15,241.75 C351.55,240.80 352.58,239.99 353.68,239.28 C360.49,234.93 370.10,234.95 487.38,235.18 C495.87,235.20 504.93,235.22 514.58,235.23 L 662.54 235.50 L 669.19 238.77 C677.52,242.87 684.98,250.76 688.10,258.75 C689.80,263.10 690.45,267.25 690.78,275.82 L 691.22 287.14 L 697.86 286.32 C701.51,285.87 711.92,285.51 721.00,285.53 C739.85,285.56 745.90,286.73 758.00,292.71 C766.95,297.13 779.91,309.42 784.67,318.00 C796.67,339.64 797.45,368.13 787.05,405.14 C778.70,434.85 765.15,458.02 743.57,479.51 C722.03,500.95 698.71,514.36 673.00,520.07 C668.33,521.11 662.85,521.97 660.83,521.98 C657.70,522.00 656.83,522.53 654.90,525.67 C653.65,527.68 649.93,532.75 646.63,536.92 C629.11,559.07 608.98,575.66 585.40,587.37 C574.82,592.62 554.54,600.00 550.68,600.00 C548.84,600.00 548.79,600.90 549.25,624.25 C549.68,646.11 549.97,649.44 552.25,658.05 C553.65,663.30 556.39,671.00 558.36,675.15 L 561.94 682.69 L 582.41 683.27 C590.81,683.51 596.05,683.73 599.65,684.08 ZM 499.66 485.70 C502.40,484.25 512.07,474.50 528.12,457.00 C541.48,442.42 563.82,418.24 577.76,403.25 C591.70,388.27 603.75,374.44 604.55,372.53 C606.65,367.52 606.38,359.42 603.96,354.43 C599.83,345.88 588.87,341.87 579.48,345.46 C575.93,346.81 572.51,349.84 563.72,359.41 C538.04,387.40 494.54,434.67 492.40,436.93 L 490.10 439.36 L 476.09 425.73 C463.89,413.86 461.40,411.90 456.84,410.54 C446.03,407.33 435.77,412.48 432.17,422.90 C430.72,427.10 430.70,430.37 432.08,435.35 C433.67,441.06 473.40,482.35 480.49,485.65 C486.97,488.67 494.04,488.69 499.66,485.70 ZM 683.01 470.27 C683.01,470.69 685.36,469.84 688.25,468.38 C723.88,450.37 749.88,405.85 750.36,362.00 C750.50,349.58 750.48,349.46 747.11,343.25 C743.40,336.40 737.73,331.82 730.56,329.87 C725.99,328.62 710.80,329.18 698.82,331.03 L 691.14 332.22 L 690.75 383.36 C690.38,430.41 690.18,435.46 688.18,446.50 C686.99,453.10 685.34,460.98 684.52,464.00 C683.70,467.02 683.02,469.85 683.01,470.27 ZM 335.50 468.20 C338.25,469.72 340.75,470.97 341.05,470.98 C341.35,470.99 340.38,466.16 338.90,460.25 C334.50,442.66 333.81,432.81 333.28,380.75 C333.01,353.94 332.50,331.99 332.14,331.97 C331.79,331.95 326.77,331.29 321.00,330.50 C299.92,327.62 290.16,329.05 282.44,336.16 C276.12,341.99 274.00,348.33 274.00,361.43 C274.00,379.80 278.56,398.08 287.98,417.50 C299.15,440.54 313.86,456.23 335.50,468.20 ZM 418.66 685.56 C414.70,687.07 411.19,689.42 408.30,692.45 C409.14,691.52 409.97,690.70 410.69,690.10 C413.28,687.97 415.53,686.54 418.66,685.56 Z" fill="rgb(198,151,90)"/>
<path d="M 0.00 512.00 L 0.00 0.00 L 512.00 0.00 L 1024.00 0.00 L 1024.00 512.00 L 1024.00 1024.00 L 512.00 1024.00 L 0.00 1024.00 L 0.00 512.00 ZM 651.00 794.41 C657.49,791.39 661.72,787.46 664.77,781.62 C666.98,777.39 667.45,775.20 667.44,769.00 C667.44,759.75 664.59,752.67 658.77,747.41 C652.65,741.89 648.95,740.73 635.75,740.21 L 624.00 739.75 L 624.00 722.54 C624.00,705.33 624.00,705.31 620.94,699.20 C617.56,692.43 613.70,688.66 607.19,685.77 C603.57,684.16 599.56,683.76 582.41,683.27 L 561.94 682.69 L 558.36 675.15 C556.39,671.00 553.65,663.30 552.25,658.05 C549.97,649.44 549.68,646.11 549.25,624.25 C548.79,600.90 548.84,600.00 550.68,600.00 C554.54,600.00 574.82,592.62 585.40,587.37 C608.98,575.66 629.11,559.07 646.63,536.92 C649.93,532.75 653.65,527.68 654.90,525.67 C656.83,522.53 657.70,522.00 660.83,521.98 C662.85,521.97 668.33,521.11 673.00,520.07 C698.71,514.36 722.03,500.95 743.57,479.51 C765.15,458.02 778.70,434.85 787.05,405.14 C797.45,368.13 796.67,339.64 784.67,318.00 C779.91,309.42 766.95,297.13 758.00,292.71 C745.90,286.73 739.85,285.56 721.00,285.53 C711.92,285.51 701.51,285.87 697.86,286.32 L 691.22 287.14 L 690.78 275.82 C690.45,267.25 689.80,263.10 688.10,258.75 C684.98,250.76 677.52,242.87 669.19,238.77 L 662.54 235.50 L 514.58 235.23 C349.95,234.94 360.83,234.51 350.15,241.75 C338.91,249.38 334.01,259.40 333.23,276.34 L 332.74 287.19 L 328.62 286.58 C317.80,284.97 300.38,284.30 292.27,285.17 C282.01,286.28 269.29,290.38 261.38,295.13 C249.32,302.38 238.02,317.64 232.97,333.50 C229.59,344.10 229.08,366.39 231.84,382.50 C238.78,422.89 256.17,456.79 283.06,482.36 C304.96,503.18 333.40,518.02 357.50,521.19 C361.90,521.77 366.03,522.39 366.67,522.56 C367.31,522.73 369.75,525.72 372.08,529.19 C382.79,545.15 398.88,561.58 415.50,573.54 C430.08,584.04 460.84,598.18 473.50,600.20 C475.34,600.50 475.52,601.42 475.81,612.01 C476.49,637.79 472.67,661.75 465.66,675.69 L 462.11 682.74 L 442.80 683.26 C421.54,683.83 417.17,684.76 410.69,690.10 C408.66,691.78 405.76,695.25 404.25,697.82 C401.58,702.36 401.49,703.05 401.00,721.00 L 400.50 739.50 L 389.00 740.10 C375.78,740.79 372.08,742.05 365.60,748.02 C352.79,759.82 354.60,782.09 369.13,791.71 C377.22,797.06 372.50,796.90 514.50,796.69 C646.13,796.50 646.51,796.49 651.00,794.41 ZM 335.50 468.20 C313.86,456.23 299.15,440.54 287.98,417.50 C278.56,398.08 274.00,379.80 274.00,361.43 C274.00,348.33 276.12,341.99 282.44,336.16 C290.16,329.05 299.92,327.62 321.00,330.50 C326.77,331.29 331.79,331.95 332.14,331.97 C332.50,331.99 333.01,353.94 333.28,380.75 C333.81,432.81 334.50,442.66 338.90,460.25 C340.38,466.16 341.35,470.99 341.05,470.98 C340.75,470.97 338.25,469.72 335.50,468.20 ZM 683.01 470.27 C683.02,469.85 683.70,467.02 684.52,464.00 C685.34,460.98 686.99,453.10 688.18,446.50 C690.18,435.46 690.38,430.41 690.75,383.36 L 691.14 332.22 L 698.82 331.03 C710.80,329.18 725.99,328.62 730.56,329.87 C737.73,331.82 743.40,336.40 747.11,343.25 C750.48,349.46 750.50,349.58 750.36,362.00 C749.88,405.85 723.88,450.37 688.25,468.38 C685.36,469.84 683.01,470.69 683.01,470.27 Z" fill="rgb(247,247,247)"/>
</g>
</svg>