<svg xmlns="http://www.w3.org/2000/svg" width="512" height="512" viewBox="0 0 512 512" fill="none">
  <path d="M 0 0 L 0 24 L 25 25 L 24 48 L 0 48 L 0 70 L 25 71 L 24 93 L 0 94 L 0 115 L 25 117 L 24 139 L 0 139 L 0 161 L 25 162 L 24 185 L 0 185 L 0 207 L 25 208 L 24 231 L 0 231 L 0 253 L 25 254 L 24 277 L 0 276 L 0 298 L 25 299 L 24 322 L 0 322 L 0 344 L 25 345 L 24 368 L 0 368 L 0 390 L 25 391 L 24 414 L 0 414 L 0 436 L 25 437 L 24 460 L 0 460 L 25 505 L 0 511 L 511 511 L 511 0 L 502 25 L 480 24 L 480 0 L 458 0 L 457 25 L 434 24 L 434 0 L 412 0 L 411 25 L 388 24 L 388 0 L 366 0 L 365 25 L 343 24 L 343 0 L 321 0 L 320 25 L 297 24 L 297 0 L 275 0 L 274 25 L 251 24 L 251 0 L 230 0 L 229 25 L 206 24 L 206 0 L 184 0 L 183 25 L 161 24 L 161 0 L 139 0 L 138 25 L 115 24 L 115 0 L 93 0 L 92 25 L 69 24 L 69 0 L 47 0 L 46 25 Z M 457 483 L 480 482 L 481 505 L 458 506 Z M 411 483 L 434 482 L 435 505 L 412 506 Z M 365 483 L 388 482 L 389 505 L 366 506 Z M 320 483 L 343 482 L 344 505 L 321 506 Z M 274 483 L 297 482 L 298 505 L 275 506 Z M 229 483 L 251 482 L 252 505 L 230 506 Z M 183 483 L 206 482 L 207 505 L 184 506 Z M 138 483 L 161 482 L 162 505 L 139 506 Z M 92 483 L 115 482 L 116 505 L 93 506 Z M 47 483 L 69 482 L 70 505 L 48 506 L 46 503 Z M 480 460 L 502 459 L 503 482 L 481 483 Z M 434 460 L 457 459 L 458 482 L 435 483 Z M 388 460 L 411 459 L 412 482 L 389 483 Z M 343 460 L 365 459 L 366 482 L 344 483 Z M 297 460 L 320 459 L 321 482 L 298 483 Z M 251 460 L 274 459 L 275 482 L 252 483 Z M 206 460 L 229 459 L 230 482 L 207 483 Z M 161 460 L 183 459 L 184 482 L 162 483 Z M 115 460 L 138 459 L 139 482 L 116 483 Z M 69 460 L 92 459 L 93 482 L 70 483 Z M 24 460 L 46 459 L 48 470 L 47 482 L 25 483 Z M 457 437 L 480 436 L 481 459 L 458 460 Z M 411 437 L 434 436 L 435 459 L 412 460 Z M 365 437 L 388 436 L 389 459 L 366 460 Z M 320 437 L 343 436 L 344 459 L 321 460 Z M 274 437 L 297 436 L 298 459 L 275 460 Z M 229 437 L 251 436 L 252 459 L 230 460 Z M 183 437 L 206 436 L 207 459 L 184 460 Z M 138 437 L 161 436 L 162 459 L 139 460 Z M 92 437 L 115 436 L 116 459 L 93 460 Z M 46 437 L 69 436 L 70 459 L 48 460 Z M 480 414 L 502 413 L 503 436 L 481 437 Z M 434 414 L 457 413 L 458 436 L 435 437 Z M 388 414 L 411 413 L 412 436 L 389 437 Z M 343 414 L 365 413 L 366 436 L 344 437 Z M 297 414 L 320 413 L 321 436 L 298 437 Z M 251 414 L 274 413 L 275 436 L 252 437 Z M 206 414 L 229 413 L 230 436 L 207 437 Z M 161 414 L 183 413 L 184 436 L 162 437 Z M 115 414 L 138 413 L 139 436 L 116 437 Z M 69 414 L 92 413 L 93 436 L 70 437 Z M 24 414 L 46 413 L 47 436 L 25 437 Z M 457 391 L 480 390 L 481 413 L 458 414 Z M 411 391 L 434 390 L 435 413 L 412 414 Z M 365 391 L 388 390 L 389 413 L 366 414 Z M 138 391 L 161 390 L 162 413 L 139 414 Z M 92 391 L 115 390 L 116 413 L 93 414 Z M 46 391 L 69 390 L 70 413 L 48 414 L 46 406 Z M 480 368 L 502 367 L 503 390 L 481 391 Z M 434 368 L 457 367 L 458 390 L 435 391 Z M 388 368 L 411 367 L 412 390 L 389 391 Z M 343 368 L 365 367 L 366 390 L 344 391 Z M 115 368 L 138 367 L 139 390 L 116 391 Z M 69 368 L 92 367 L 93 390 L 70 391 Z M 24 368 L 46 367 L 47 390 L 25 391 Z M 457 345 L 480 344 L 481 367 L 458 368 Z M 411 345 L 434 344 L 435 367 L 412 368 Z M 365 345 L 388 344 L 389 367 L 366 368 Z M 320 345 L 343 344 L 344 367 L 321 368 Z M 138 345 L 161 344 L 162 367 L 139 368 Z M 92 345 L 115 344 L 116 367 L 93 368 Z M 47 345 L 69 344 L 70 367 L 48 368 L 46 359 Z M 480 322 L 502 321 L 503 344 L 481 345 Z M 434 322 L 457 321 L 458 344 L 435 345 Z M 388 322 L 411 321 L 412 344 L 389 345 Z M 343 322 L 365 321 L 366 344 L 344 345 Z M 161 322 L 183 321 L 184 344 L 162 345 Z M 115 322 L 138 321 L 139 344 L 116 345 Z M 69 322 L 92 321 L 93 344 L 70 345 Z M 24 322 L 46 321 L 47 344 L 25 345 Z M 457 299 L 479 298 L 481 301 L 481 321 L 458 322 Z M 411 300 L 414 298 L 434 298 L 435 321 L 412 322 Z M 365 299 L 388 298 L 389 321 L 366 322 Z M 320 299 L 343 298 L 344 321 L 321 322 Z M 183 300 L 186 298 L 206 298 L 207 321 L 184 322 Z M 138 299 L 161 298 L 162 321 L 139 322 Z M 92 299 L 115 298 L 116 321 L 93 322 Z M 47 299 L 69 298 L 70 321 L 48 322 L 46 305 Z M 480 277 L 502 276 L 503 298 L 481 299 Z M 434 277 L 457 276 L 458 298 L 435 299 Z M 388 277 L 411 276 L 412 298 L 389 299 Z M 343 277 L 365 276 L 366 298 L 344 299 Z M 161 277 L 183 276 L 184 298 L 162 299 Z M 115 277 L 138 276 L 139 298 L 116 299 Z M 69 277 L 92 276 L 93 298 L 70 299 Z M 24 277 L 46 276 L 47 298 L 25 299 Z M 457 254 L 480 253 L 481 275 L 474 277 L 458 276 Z M 411 254 L 434 253 L 435 276 L 412 276 Z M 365 254 L 388 253 L 389 276 L 366 276 Z M 92 254 L 115 253 L 116 275 L 111 277 L 93 276 Z M 47 254 L 69 253 L 70 276 L 49 277 L 47 275 Z M 480 231 L 502 230 L 503 253 L 481 254 Z M 434 231 L 457 230 L 458 253 L 435 254 Z M 388 231 L 411 230 L 412 253 L 389 254 Z M 69 231 L 92 230 L 93 253 L 70 254 Z M 24 231 L 46 230 L 47 253 L 25 254 Z M 457 208 L 480 207 L 481 230 L 458 231 Z M 411 208 L 434 207 L 435 230 L 412 231 Z M 92 208 L 115 207 L 116 230 L 93 231 Z M 47 208 L 69 207 L 70 230 L 48 231 L 46 224 Z M 480 185 L 502 184 L 503 207 L 481 208 Z M 434 185 L 457 184 L 458 207 L 435 208 Z M 70 185 L 92 184 L 93 207 L 70 208 Z M 24 185 L 46 184 L 47 207 L 25 208 Z M 457 162 L 480 161 L 481 184 L 458 185 Z M 411 162 L 434 161 L 435 184 L 412 185 Z M 46 162 L 69 161 L 70 184 L 48 185 Z M 480 140 L 502 139 L 503 161 L 481 162 Z M 434 140 L 457 139 L 458 161 L 435 162 Z M 69 140 L 92 139 L 93 161 L 70 162 Z M 24 140 L 46 139 L 47 161 L 25 162 Z M 457 116 L 480 115 L 481 138 L 458 139 Z M 411 116 L 434 115 L 435 138 L 412 139 Z M 365 116 L 388 115 L 389 138 L 366 139 Z M 116 139 L 161 142 L 186 115 L 343 115 L 348 138 L 387 151 L 389 139 L 412 140 L 412 161 L 397 162 L 412 207 L 394 209 L 389 230 L 344 262 L 343 277 L 321 277 L 320 299 L 292 297 L 297 322 L 277 324 L 282 341 L 297 341 L 298 321 L 321 322 L 321 344 L 309 345 L 314 367 L 344 391 L 343 414 L 321 414 L 320 402 L 298 402 L 297 414 L 275 414 L 274 402 L 252 402 L 251 414 L 230 414 L 229 402 L 184 414 L 181 393 L 161 390 L 162 367 L 201 371 L 183 367 L 183 345 L 206 344 L 207 321 L 229 321 L 230 341 L 238 322 L 229 321 L 228 300 L 207 299 L 203 284 L 183 276 L 183 263 L 161 258 L 161 276 L 139 277 L 138 254 L 153 252 L 139 242 L 138 254 L 115 253 L 115 231 L 130 228 L 115 207 L 116 185 L 92 184 L 92 162 L 115 161 L 117 170 Z M 138 116 L 161 115 L 162 138 L 139 139 Z M 92 116 L 115 115 L 116 138 L 93 139 Z M 47 116 L 69 115 L 70 138 L 48 139 Z M 480 94 L 502 93 L 503 115 L 481 116 Z M 434 94 L 457 93 L 458 115 L 435 116 Z M 388 94 L 411 93 L 412 115 L 389 116 Z M 343 94 L 365 93 L 366 115 L 344 116 Z M 297 94 L 320 93 L 321 115 L 298 116 Z M 251 94 L 274 93 L 275 115 L 252 116 Z M 206 94 L 229 93 L 230 115 L 207 116 Z M 161 94 L 183 93 L 184 115 L 162 116 Z M 115 94 L 138 93 L 139 115 L 116 116 Z M 69 94 L 92 93 L 93 115 L 70 116 Z M 24 94 L 46 93 L 47 115 L 25 116 Z M 457 71 L 480 70 L 481 92 L 478 94 L 458 94 Z M 411 71 L 434 70 L 435 92 L 431 94 L 412 93 Z M 365 71 L 388 70 L 389 92 L 386 94 L 366 94 Z M 320 71 L 343 70 L 344 92 L 341 94 L 321 94 Z M 274 71 L 297 70 L 298 93 L 275 94 Z M 229 71 L 251 70 L 252 93 L 230 94 Z M 183 71 L 206 70 L 207 93 L 184 93 Z M 138 71 L 161 70 L 162 92 L 159 94 L 139 93 Z M 92 71 L 115 70 L 116 92 L 112 94 L 93 94 Z M 47 71 L 69 70 L 70 92 L 67 94 L 48 94 L 46 81 Z M 480 48 L 502 47 L 503 70 L 481 71 Z M 434 48 L 457 47 L 458 70 L 435 71 Z M 388 48 L 411 47 L 412 70 L 389 71 Z M 343 48 L 365 47 L 366 70 L 344 71 Z M 297 48 L 320 47 L 321 70 L 298 71 Z M 251 48 L 274 47 L 275 70 L 252 71 Z M 206 48 L 229 47 L 230 70 L 207 71 Z M 161 48 L 183 47 L 184 70 L 162 71 Z M 115 48 L 138 47 L 139 70 L 116 71 Z M 69 48 L 92 47 L 93 70 L 70 71 Z M 24 48 L 46 47 L 47 70 L 25 71 Z M 457 25 L 480 24 L 481 47 L 458 48 Z M 411 25 L 434 24 L 435 47 L 412 48 Z M 365 25 L 388 24 L 389 47 L 366 48 Z M 320 25 L 343 24 L 344 47 L 321 48 Z M 274 25 L 297 24 L 298 47 L 275 48 Z M 229 25 L 251 24 L 252 47 L 230 48 Z M 183 25 L 206 24 L 207 47 L 184 48 Z M 138 25 L 161 24 L 162 47 L 139 48 Z M 92 25 L 115 24 L 116 47 L 93 48 Z M 47 25 L 69 24 L 70 47 L 48 48 Z" fill="#f2f2f2" fill-rule="evenodd"/>
  <path d="M 0 162 L 25 185 L 0 505 L 46 511 L 46 436 L 70 511 L 502 511 L 502 322 L 434 276 L 502 253 L 502 140 L 389 140 L 412 230 L 363 251 L 389 298 L 339 262 L 343 299 L 277 303 L 344 368 L 320 414 L 161 413 L 201 367 L 183 322 L 228 342 L 238 303 L 162 322 L 184 264 L 115 321 L 161 260 L 92 185 L 138 140 L 48 162 L 93 184 L 48 208 L 47 391 L 46 140 Z M 434 483 L 457 482 L 458 505 L 435 506 Z M 388 483 L 411 482 L 412 505 L 389 506 Z M 343 483 L 365 482 L 366 505 L 344 506 Z M 297 483 L 320 482 L 321 505 L 298 506 Z M 251 483 L 274 482 L 275 505 L 252 506 Z M 206 483 L 229 482 L 230 505 L 207 506 Z M 161 483 L 183 482 L 184 505 L 162 506 Z M 115 483 L 138 482 L 139 505 L 116 506 Z M 69 483 L 92 482 L 93 505 L 70 506 Z M 457 460 L 480 459 L 481 482 L 458 483 Z M 411 460 L 434 459 L 435 482 L 412 483 Z M 365 460 L 388 459 L 389 482 L 366 483 Z M 320 460 L 343 459 L 344 482 L 321 483 Z M 274 460 L 297 459 L 298 482 L 275 483 Z M 229 460 L 251 459 L 252 482 L 230 483 Z M 183 460 L 206 459 L 207 482 L 184 483 Z M 138 460 L 161 459 L 162 482 L 139 483 Z M 92 460 L 115 459 L 116 482 L 93 483 Z M 434 437 L 457 436 L 458 459 L 435 460 Z M 388 437 L 411 436 L 412 459 L 389 460 Z M 343 437 L 365 436 L 366 459 L 344 460 Z M 297 437 L 320 436 L 321 459 L 298 460 Z M 251 437 L 274 436 L 275 459 L 252 460 Z M 206 437 L 229 436 L 230 459 L 207 460 Z M 161 437 L 183 436 L 184 459 L 162 460 Z M 115 437 L 138 436 L 139 459 L 116 460 Z M 69 437 L 92 436 L 93 459 L 70 460 Z M 457 414 L 480 413 L 481 436 L 458 437 Z M 411 414 L 434 413 L 435 436 L 412 437 Z M 365 414 L 388 413 L 389 436 L 366 437 Z M 320 414 L 343 413 L 344 436 L 321 437 Z M 274 414 L 297 413 L 298 436 L 275 437 Z M 229 414 L 251 413 L 252 436 L 230 437 Z M 183 414 L 206 413 L 207 436 L 184 437 Z M 138 414 L 161 413 L 162 436 L 139 437 Z M 92 414 L 115 413 L 116 436 L 93 437 Z M 434 391 L 457 390 L 458 413 L 435 414 Z M 388 391 L 411 390 L 412 413 L 389 414 Z M 343 391 L 365 390 L 366 413 L 344 414 Z M 115 391 L 138 390 L 139 413 L 116 414 Z M 69 391 L 92 390 L 93 413 L 70 414 Z M 24 391 L 46 390 L 48 396 L 48 413 L 70 414 L 70 436 L 47 437 L 46 414 L 24 413 Z M 457 368 L 480 367 L 481 390 L 458 391 Z M 411 368 L 434 367 L 435 390 L 412 391 Z M 365 368 L 388 367 L 389 390 L 366 391 Z M 138 368 L 161 367 L 162 390 L 139 391 Z M 92 368 L 115 367 L 116 390 L 93 391 Z M 434 345 L 457 344 L 458 367 L 435 368 Z M 388 345 L 411 344 L 412 367 L 389 368 Z M 343 345 L 365 344 L 366 367 L 344 368 Z M 161 345 L 183 344 L 184 367 L 162 368 Z M 115 345 L 138 344 L 139 367 L 116 368 Z M 69 345 L 92 344 L 93 367 L 70 368 Z M 457 322 L 480 321 L 481 344 L 458 345 Z M 411 322 L 434 321 L 435 344 L 412 345 Z M 365 322 L 388 321 L 389 344 L 366 345 Z M 320 322 L 343 321 L 344 344 L 321 345 Z M 138 322 L 161 321 L 162 344 L 139 345 Z M 92 322 L 115 321 L 116 344 L 93 345 Z M 434 299 L 457 298 L 458 321 L 435 322 Z M 343 299 L 365 298 L 366 321 L 344 322 Z M 297 299 L 320 298 L 321 321 L 298 322 Z M 69 299 L 92 298 L 93 321 L 70 322 Z M 389 253 L 411 253 L 412 275 L 429 275 L 435 277 L 435 298 L 412 300 L 411 322 L 388 321 L 388 299 L 411 298 L 411 277 L 388 276 Z M 69 254 L 92 253 L 93 275 L 111 276 L 115 275 L 116 253 L 138 253 L 139 276 L 116 277 L 115 299 L 93 299 L 92 277 L 69 276 Z M 457 231 L 480 230 L 481 253 L 458 254 Z M 411 231 L 434 230 L 435 253 L 412 254 Z M 92 231 L 115 230 L 116 253 L 93 254 Z M 434 208 L 457 207 L 458 230 L 435 231 Z M 69 208 L 92 207 L 93 230 L 70 231 Z M 457 185 L 480 184 L 481 207 L 458 208 Z M 411 185 L 434 184 L 435 207 L 412 208 Z M 434 162 L 457 161 L 458 184 L 435 185 Z" fill="#fefefe" fill-rule="evenodd"/>
  <path d="M 116 139 L 161 142 L 186 115 L 343 115 L 348 138 L 387 151 L 389 139 L 412 140 L 412 161 L 397 162 L 412 207 L 394 209 L 389 230 L 344 262 L 343 277 L 321 277 L 320 299 L 292 297 L 297 322 L 277 324 L 282 341 L 297 341 L 298 321 L 321 322 L 321 344 L 309 345 L 314 367 L 344 391 L 343 414 L 321 414 L 320 402 L 298 402 L 297 414 L 275 414 L 274 402 L 252 402 L 251 414 L 230 414 L 229 402 L 184 414 L 181 393 L 161 390 L 162 367 L 201 371 L 183 367 L 183 345 L 206 344 L 207 321 L 229 321 L 230 341 L 238 322 L 229 321 L 228 300 L 207 299 L 203 284 L 183 276 L 183 263 L 161 258 L 161 276 L 139 277 L 138 254 L 153 252 L 139 242 L 138 254 L 115 253 L 115 231 L 130 228 L 115 207 L 116 185 L 92 184 L 92 162 L 115 161 L 117 170 Z" fill="#f2f2f2" fill-rule="evenodd"/>
  <path d="M 130 151 L 117 176 L 121 206 L 130 226 L 151 249 L 185 262 L 208 287 L 240 302 L 234 342 L 281 342 L 275 302 L 307 287 L 330 262 L 369 245 L 387 223 L 397 194 L 398 175 L 391 157 L 375 146 L 347 146 L 344 129 L 332 120 L 183 120 L 171 129 L 168 146 L 144 145 Z M 305 180 L 305 187 L 300 194 L 264 233 L 250 246 L 241 245 L 217 220 L 217 212 L 223 206 L 231 206 L 247 220 L 288 175 L 292 173 L 298 173 Z M 366 165 L 371 167 L 375 171 L 378 178 L 376 197 L 366 219 L 357 229 L 344 237 L 343 232 L 346 218 L 346 168 L 349 166 Z M 146 166 L 159 165 L 166 166 L 169 168 L 169 216 L 173 235 L 172 237 L 163 233 L 153 224 L 146 214 L 141 203 L 138 192 L 137 179 L 140 171 Z" fill="#c6975a" fill-rule="evenodd"/>
  <path d="M 48 25 L 48 47 L 70 48 L 48 93 L 93 71 L 48 138 L 69 138 L 70 115 L 92 115 L 93 138 L 115 138 L 116 115 L 161 138 L 161 116 L 183 115 L 183 94 L 162 94 L 161 116 L 116 94 L 115 116 L 93 116 L 116 70 L 138 70 L 144 93 L 183 70 L 184 92 L 207 94 L 207 115 L 184 118 L 274 115 L 275 93 L 298 94 L 298 115 L 275 118 L 320 115 L 298 70 L 320 70 L 326 93 L 344 70 L 365 70 L 370 93 L 389 70 L 411 70 L 416 93 L 458 71 L 434 116 L 412 116 L 411 94 L 366 116 L 365 94 L 344 94 L 344 115 L 321 117 L 365 115 L 366 138 L 388 138 L 389 115 L 411 115 L 412 138 L 434 138 L 435 115 L 480 138 L 480 116 L 502 115 L 502 94 L 457 115 L 457 94 L 502 70 L 502 48 L 480 47 L 502 0 L 481 0 L 480 25 L 457 24 L 457 0 L 435 0 L 434 25 L 411 24 L 411 0 L 389 0 L 388 25 L 365 24 L 365 0 L 344 0 L 343 25 L 320 24 L 320 0 L 298 0 L 297 25 L 274 24 L 274 0 L 252 0 L 251 25 L 229 24 L 229 0 L 207 0 L 206 25 L 183 24 L 183 0 L 162 0 L 161 25 L 138 24 L 138 0 L 116 0 L 115 25 L 70 0 L 70 24 Z M 230 93 L 237 92 L 252 94 L 251 116 L 229 115 Z M 251 71 L 274 70 L 275 93 L 252 94 Z M 457 48 L 480 47 L 481 70 L 458 71 Z M 411 48 L 434 47 L 435 70 L 412 71 Z M 365 48 L 388 47 L 389 70 L 366 71 Z M 320 48 L 343 47 L 344 70 L 321 71 Z M 274 48 L 297 47 L 298 70 L 275 71 Z M 251 47 L 252 70 L 230 71 L 229 94 L 207 94 L 206 71 L 228 70 L 230 47 Z M 183 48 L 206 47 L 207 70 L 184 71 Z M 138 48 L 161 47 L 162 70 L 139 71 Z M 92 48 L 115 47 L 116 70 L 93 71 Z M 434 25 L 457 24 L 458 47 L 435 48 Z M 388 25 L 411 24 L 412 47 L 389 48 Z M 343 25 L 365 24 L 366 47 L 344 48 Z M 297 25 L 320 24 L 321 47 L 298 48 Z M 251 25 L 274 24 L 275 47 L 252 48 Z M 206 25 L 229 24 L 230 47 L 207 48 Z M 161 25 L 183 24 L 184 47 L 162 48 Z M 115 25 L 138 24 L 139 47 L 116 48 Z M 69 25 L 92 24 L 93 47 L 70 48 Z" fill="#fefefe" fill-rule="evenodd"/>
  <path d="M 181 381 L 183 394 L 191 399 L 324 399 L 333 393 L 335 387 L 330 375 L 313 371 L 312 352 L 303 344 L 213 344 L 208 346 L 203 353 L 202 371 L 189 373 Z" fill="#222f4c" fill-rule="evenodd"/>
  <path d="M 305 180 L 305 187 L 300 194 L 264 233 L 250 246 L 241 245 L 217 220 L 217 212 L 223 206 L 231 206 L 247 220 L 288 175 L 292 173 L 298 173 Z" fill="#c6975a" fill-rule="evenodd"/>
  <path d="M 303 178 L 297 174 L 290 175 L 247 221 L 245 221 L 230 207 L 224 207 L 219 211 L 218 220 L 240 243 L 244 245 L 249 245 L 258 238 L 303 189 Z" fill="#881a2b" fill-rule="evenodd"/>
  <path d="M 46 0 L 25 0 L 24 25 L 0 25 L 0 47 L 25 48 L 25 70 L 0 71 L 0 93 L 24 92 L 24 71 L 46 70 L 46 48 L 24 47 L 24 25 L 46 24 Z" fill="#fefefe" fill-rule="evenodd"/>
  <path d="M 366 165 L 371 167 L 375 171 L 378 178 L 376 197 L 366 219 L 357 229 L 344 237 L 343 232 L 346 218 L 346 168 L 349 166 Z" fill="#c6975a" fill-rule="evenodd"/>
  <path d="M 146 166 L 159 165 L 166 166 L 169 168 L 169 216 L 173 235 L 172 237 L 163 233 L 153 224 L 146 214 L 141 203 L 138 192 L 137 179 L 140 171 Z" fill="#c6975a" fill-rule="evenodd"/>
  <path d="M 69 254 L 92 253 L 93 275 L 111 276 L 115 275 L 116 253 L 138 253 L 139 276 L 116 277 L 115 299 L 93 299 L 92 277 L 69 276 Z" fill="#fefefe" fill-rule="evenodd"/>
  <path d="M 389 253 L 411 253 L 412 275 L 429 275 L 435 277 L 435 298 L 412 300 L 411 322 L 388 321 L 388 299 L 411 298 L 411 277 L 388 276 Z" fill="#fefefe" fill-rule="evenodd"/>
  <path d="M 24 391 L 46 390 L 48 396 L 48 413 L 70 414 L 70 436 L 47 437 L 46 414 L 24 413 Z" fill="#fefefe" fill-rule="evenodd"/>
  <path d="M 251 47 L 252 70 L 230 71 L 229 94 L 207 94 L 206 71 L 228 70 L 230 47 Z" fill="#fefefe" fill-rule="evenodd"/>
  <path d="M 363 167 L 354 167 L 348 170 L 348 184 L 366 185 L 366 207 L 348 208 L 348 223 L 346 225 L 346 230 L 352 230 L 361 223 L 365 216 L 365 208 L 371 206 L 372 200 L 374 198 L 376 185 L 365 184 L 365 168 Z" fill="#f2f2f2" fill-rule="evenodd"/>
  <path d="M 149 167 L 142 171 L 139 183 L 162 185 L 162 207 L 146 208 L 152 220 L 161 228 L 161 208 L 167 207 L 167 185 L 161 184 L 160 167 Z" fill="#fefefe" fill-rule="evenodd"/>
  <path d="M 162 168 L 161 185 L 139 185 L 139 187 L 141 190 L 140 193 L 142 201 L 145 207 L 162 208 L 162 229 L 169 230 L 169 224 L 167 223 L 167 208 L 161 207 L 161 185 L 167 184 L 167 172 L 166 169 Z" fill="#f2f2f2" fill-rule="evenodd"/>
  <path d="M 511 254 L 504 254 L 504 273 L 502 277 L 481 277 L 481 298 L 502 298 L 502 277 L 511 276 Z" fill="#fefefe" fill-rule="evenodd"/>
  <path d="M 457 483 L 480 482 L 481 505 L 458 506 Z" fill="#f2f2f2" fill-rule="evenodd"/>
  <path d="M 411 483 L 434 482 L 435 505 L 412 506 Z" fill="#f2f2f2" fill-rule="evenodd"/>
  <path d="M 365 483 L 388 482 L 389 505 L 366 506 Z" fill="#f2f2f2" fill-rule="evenodd"/>
  <path d="M 320 483 L 343 482 L 344 505 L 321 506 Z" fill="#f2f2f2" fill-rule="evenodd"/>
  <path d="M 274 483 L 297 482 L 298 505 L 275 506 Z" fill="#f2f2f2" fill-rule="evenodd"/>
  <path d="M 183 483 L 206 482 L 207 505 L 184 506 Z" fill="#f2f2f2" fill-rule="evenodd"/>
  <path d="M 138 483 L 161 482 L 162 505 L 139 506 Z" fill="#f2f2f2" fill-rule="evenodd"/>
  <path d="M 92 483 L 115 482 L 116 505 L 93 506 Z" fill="#f2f2f2" fill-rule="evenodd"/>
  <path d="M 434 460 L 457 459 L 458 482 L 435 483 Z" fill="#f2f2f2" fill-rule="evenodd"/>
  <path d="M 388 460 L 411 459 L 412 482 L 389 483 Z" fill="#f2f2f2" fill-rule="evenodd"/>
  <path d="M 297 460 L 320 459 L 321 482 L 298 483 Z" fill="#f2f2f2" fill-rule="evenodd"/>
  <path d="M 251 460 L 274 459 L 275 482 L 252 483 Z" fill="#f2f2f2" fill-rule="evenodd"/>
  <path d="M 206 460 L 229 459 L 230 482 L 207 483 Z" fill="#f2f2f2" fill-rule="evenodd"/>
  <path d="M 115 460 L 138 459 L 139 482 L 116 483 Z" fill="#f2f2f2" fill-rule="evenodd"/>
  <path d="M 69 460 L 92 459 L 93 482 L 70 483 Z" fill="#f2f2f2" fill-rule="evenodd"/>
  <path d="M 457 437 L 480 436 L 481 459 L 458 460 Z" fill="#f2f2f2" fill-rule="evenodd"/>
  <path d="M 411 437 L 434 436 L 435 459 L 412 460 Z" fill="#f2f2f2" fill-rule="evenodd"/>
  <path d="M 365 437 L 388 436 L 389 459 L 366 460 Z" fill="#f2f2f2" fill-rule="evenodd"/>
  <path d="M 320 437 L 343 436 L 344 459 L 321 460 Z" fill="#f2f2f2" fill-rule="evenodd"/>
  <path d="M 274 437 L 297 436 L 298 459 L 275 460 Z" fill="#f2f2f2" fill-rule="evenodd"/>
  <path d="M 183 437 L 206 436 L 207 459 L 184 460 Z" fill="#f2f2f2" fill-rule="evenodd"/>
  <path d="M 138 437 L 161 436 L 162 459 L 139 460 Z" fill="#f2f2f2" fill-rule="evenodd"/>
  <path d="M 92 437 L 115 436 L 116 459 L 93 460 Z" fill="#f2f2f2" fill-rule="evenodd"/>
  <path d="M 434 414 L 457 413 L 458 436 L 435 437 Z" fill="#f2f2f2" fill-rule="evenodd"/>
  <path d="M 388 414 L 411 413 L 412 436 L 389 437 Z" fill="#f2f2f2" fill-rule="evenodd"/>
  <path d="M 297 414 L 320 413 L 321 436 L 298 437 Z" fill="#f2f2f2" fill-rule="evenodd"/>
  <path d="M 251 414 L 274 413 L 275 436 L 252 437 Z" fill="#f2f2f2" fill-rule="evenodd"/>
  <path d="M 206 414 L 229 413 L 230 436 L 207 437 Z" fill="#f2f2f2" fill-rule="evenodd"/>
  <path d="M 115 414 L 138 413 L 139 436 L 116 437 Z" fill="#f2f2f2" fill-rule="evenodd"/>
  <path d="M 69 414 L 92 413 L 93 436 L 70 437 Z" fill="#f2f2f2" fill-rule="evenodd"/>
  <path d="M 457 391 L 480 390 L 481 413 L 458 414 Z" fill="#f2f2f2" fill-rule="evenodd"/>
  <path d="M 411 391 L 434 390 L 435 413 L 412 414 Z" fill="#f2f2f2" fill-rule="evenodd"/>
  <path d="M 365 391 L 388 390 L 389 413 L 366 414 Z" fill="#f2f2f2" fill-rule="evenodd"/>
  <path d="M 138 391 L 161 390 L 162 413 L 139 414 Z" fill="#f2f2f2" fill-rule="evenodd"/>
  <path d="M 92 391 L 115 390 L 116 413 L 93 414 Z" fill="#f2f2f2" fill-rule="evenodd"/>
  <path d="M 434 368 L 457 367 L 458 390 L 435 391 Z" fill="#f2f2f2" fill-rule="evenodd"/>
  <path d="M 388 368 L 411 367 L 412 390 L 389 391 Z" fill="#f2f2f2" fill-rule="evenodd"/>
  <path d="M 115 368 L 138 367 L 139 390 L 116 391 Z" fill="#f2f2f2" fill-rule="evenodd"/>
  <path d="M 69 368 L 92 367 L 93 390 L 70 391 Z" fill="#f2f2f2" fill-rule="evenodd"/>
  <path d="M 457 345 L 480 344 L 481 367 L 458 368 Z" fill="#f2f2f2" fill-rule="evenodd"/>
  <path d="M 411 345 L 434 344 L 435 367 L 412 368 Z" fill="#f2f2f2" fill-rule="evenodd"/>
  <path d="M 365 345 L 388 344 L 389 367 L 366 368 Z" fill="#f2f2f2" fill-rule="evenodd"/>
  <path d="M 320 345 L 343 344 L 344 367 L 321 368 Z" fill="#f2f2f2" fill-rule="evenodd"/>
  <path d="M 138 345 L 161 344 L 162 367 L 139 368 Z" fill="#f2f2f2" fill-rule="evenodd"/>
  <path d="M 92 345 L 115 344 L 116 367 L 93 368 Z" fill="#f2f2f2" fill-rule="evenodd"/>
  <path d="M 434 322 L 457 321 L 458 344 L 435 345 Z" fill="#f2f2f2" fill-rule="evenodd"/>
  <path d="M 388 322 L 411 321 L 412 344 L 389 345 Z" fill="#f2f2f2" fill-rule="evenodd"/>
  <path d="M 115 322 L 138 321 L 139 344 L 116 345 Z" fill="#f2f2f2" fill-rule="evenodd"/>
  <path d="M 69 322 L 92 321 L 93 344 L 70 345 Z" fill="#f2f2f2" fill-rule="evenodd"/>
  <path d="M 365 299 L 388 298 L 389 321 L 366 322 Z" fill="#f2f2f2" fill-rule="evenodd"/>
  <path d="M 320 299 L 343 298 L 344 321 L 321 322 Z" fill="#f2f2f2" fill-rule="evenodd"/>
  <path d="M 138 299 L 161 298 L 162 321 L 139 322 Z" fill="#f2f2f2" fill-rule="evenodd"/>
  <path d="M 92 299 L 115 298 L 116 321 L 93 322 Z" fill="#f2f2f2" fill-rule="evenodd"/>
  <path d="M 434 231 L 457 230 L 458 253 L 435 254 Z" fill="#f2f2f2" fill-rule="evenodd"/>
  <path d="M 388 231 L 411 230 L 412 253 L 389 254 Z" fill="#f2f2f2" fill-rule="evenodd"/>
  <path d="M 69 231 L 92 230 L 93 253 L 70 254 Z" fill="#f2f2f2" fill-rule="evenodd"/>
  <path d="M 457 208 L 480 207 L 481 230 L 458 231 Z" fill="#f2f2f2" fill-rule="evenodd"/>
  <path d="M 411 208 L 434 207 L 435 230 L 412 231 Z" fill="#f2f2f2" fill-rule="evenodd"/>
  <path d="M 92 208 L 115 207 L 116 230 L 93 231 Z" fill="#f2f2f2" fill-rule="evenodd"/>
  <path d="M 434 185 L 457 184 L 458 207 L 435 208 Z" fill="#f2f2f2" fill-rule="evenodd"/>
  <path d="M 457 162 L 480 161 L 481 184 L 458 185 Z" fill="#f2f2f2" fill-rule="evenodd"/>
  <path d="M 411 162 L 434 161 L 435 184 L 412 185 Z" fill="#f2f2f2" fill-rule="evenodd"/>
  <path d="M 457 116 L 480 115 L 481 138 L 458 139 Z" fill="#f2f2f2" fill-rule="evenodd"/>
  <path d="M 411 116 L 434 115 L 435 138 L 412 139 Z" fill="#f2f2f2" fill-rule="evenodd"/>
  <path d="M 365 116 L 388 115 L 389 138 L 366 139 Z" fill="#f2f2f2" fill-rule="evenodd"/>
  <path d="M 138 116 L 161 115 L 162 138 L 139 139 Z" fill="#f2f2f2" fill-rule="evenodd"/>
  <path d="M 92 116 L 115 115 L 116 138 L 93 139 Z" fill="#f2f2f2" fill-rule="evenodd"/>
  <path d="M 274 71 L 297 70 L 298 93 L 275 94 Z" fill="#f2f2f2" fill-rule="evenodd"/>
  <path d="M 434 48 L 457 47 L 458 70 L 435 71 Z" fill="#f2f2f2" fill-rule="evenodd"/>
  <path d="M 388 48 L 411 47 L 412 70 L 389 71 Z" fill="#f2f2f2" fill-rule="evenodd"/>
  <path d="M 297 48 L 320 47 L 321 70 L 298 71 Z" fill="#f2f2f2" fill-rule="evenodd"/>
  <path d="M 251 48 L 274 47 L 275 70 L 252 71 Z" fill="#f2f2f2" fill-rule="evenodd"/>
  <path d="M 206 48 L 229 47 L 230 70 L 207 71 Z" fill="#f2f2f2" fill-rule="evenodd"/>
  <path d="M 115 48 L 138 47 L 139 70 L 116 71 Z" fill="#f2f2f2" fill-rule="evenodd"/>
  <path d="M 69 48 L 92 47 L 93 70 L 70 71 Z" fill="#f2f2f2" fill-rule="evenodd"/>
  <path d="M 457 25 L 480 24 L 481 47 L 458 48 Z" fill="#f2f2f2" fill-rule="evenodd"/>
  <path d="M 411 25 L 434 24 L 435 47 L 412 48 Z" fill="#f2f2f2" fill-rule="evenodd"/>
  <path d="M 365 25 L 388 24 L 389 47 L 366 48 Z" fill="#f2f2f2" fill-rule="evenodd"/>
  <path d="M 320 25 L 343 24 L 344 47 L 321 48 Z" fill="#f2f2f2" fill-rule="evenodd"/>
  <path d="M 274 25 L 297 24 L 298 47 L 275 48 Z" fill="#f2f2f2" fill-rule="evenodd"/>
  <path d="M 183 25 L 206 24 L 207 47 L 184 48 Z" fill="#f2f2f2" fill-rule="evenodd"/>
  <path d="M 138 25 L 161 24 L 162 47 L 139 48 Z" fill="#f2f2f2" fill-rule="evenodd"/>
  <path d="M 92 25 L 115 24 L 116 47 L 93 48 Z" fill="#f2f2f2" fill-rule="evenodd"/>
  <path d="M 434 483 L 457 482 L 458 505 L 435 506 Z" fill="#fefefe" fill-rule="evenodd"/>
  <path d="M 388 483 L 411 482 L 412 505 L 389 506 Z" fill="#fefefe" fill-rule="evenodd"/>
  <path d="M 297 483 L 320 482 L 321 505 L 298 506 Z" fill="#fefefe" fill-rule="evenodd"/>
  <path d="M 251 483 L 274 482 L 275 505 L 252 506 Z" fill="#fefefe" fill-rule="evenodd"/>
  <path d="M 206 483 L 229 482 L 230 505 L 207 506 Z" fill="#fefefe" fill-rule="evenodd"/>
  <path d="M 115 483 L 138 482 L 139 505 L 116 506 Z" fill="#fefefe" fill-rule="evenodd"/>
  <path d="M 69 483 L 92 482 L 93 505 L 70 506 Z" fill="#fefefe" fill-rule="evenodd"/>
  <path d="M 457 460 L 480 459 L 481 482 L 458 483 Z" fill="#fefefe" fill-rule="evenodd"/>
  <path d="M 411 460 L 434 459 L 435 482 L 412 483 Z" fill="#fefefe" fill-rule="evenodd"/>
  <path d="M 365 460 L 388 459 L 389 482 L 366 483 Z" fill="#fefefe" fill-rule="evenodd"/>
  <path d="M 320 460 L 343 459 L 344 482 L 321 483 Z" fill="#fefefe" fill-rule="evenodd"/>
  <path d="M 274 460 L 297 459 L 298 482 L 275 483 Z" fill="#fefefe" fill-rule="evenodd"/>
  <path d="M 183 460 L 206 459 L 207 482 L 184 483 Z" fill="#fefefe" fill-rule="evenodd"/>
  <path d="M 138 460 L 161 459 L 162 482 L 139 483 Z" fill="#fefefe" fill-rule="evenodd"/>
  <path d="M 92 460 L 115 459 L 116 482 L 93 483 Z" fill="#fefefe" fill-rule="evenodd"/>
  <path d="M 434 437 L 457 436 L 458 459 L 435 460 Z" fill="#fefefe" fill-rule="evenodd"/>
  <path d="M 388 437 L 411 436 L 412 459 L 389 460 Z" fill="#fefefe" fill-rule="evenodd"/>
  <path d="M 297 437 L 320 436 L 321 459 L 298 460 Z" fill="#fefefe" fill-rule="evenodd"/>
  <path d="M 251 437 L 274 436 L 275 459 L 252 460 Z" fill="#fefefe" fill-rule="evenodd"/>
  <path d="M 206 437 L 229 436 L 230 459 L 207 460 Z" fill="#fefefe" fill-rule="evenodd"/>
  <path d="M 115 437 L 138 436 L 139 459 L 116 460 Z" fill="#fefefe" fill-rule="evenodd"/>
  <path d="M 69 437 L 92 436 L 93 459 L 70 460 Z" fill="#fefefe" fill-rule="evenodd"/>
  <path d="M 457 414 L 480 413 L 481 436 L 458 437 Z" fill="#fefefe" fill-rule="evenodd"/>
  <path d="M 411 414 L 434 413 L 435 436 L 412 437 Z" fill="#fefefe" fill-rule="evenodd"/>
  <path d="M 365 414 L 388 413 L 389 436 L 366 437 Z" fill="#fefefe" fill-rule="evenodd"/>
  <path d="M 320 414 L 343 413 L 344 436 L 321 437 Z" fill="#fefefe" fill-rule="evenodd"/>
  <path d="M 274 414 L 297 413 L 298 436 L 275 437 Z" fill="#fefefe" fill-rule="evenodd"/>
  <path d="M 183 414 L 206 413 L 207 436 L 184 437 Z" fill="#fefefe" fill-rule="evenodd"/>
  <path d="M 138 414 L 161 413 L 162 436 L 139 437 Z" fill="#fefefe" fill-rule="evenodd"/>
  <path d="M 92 414 L 115 413 L 116 436 L 93 437 Z" fill="#fefefe" fill-rule="evenodd"/>
  <path d="M 434 391 L 457 390 L 458 413 L 435 414 Z" fill="#fefefe" fill-rule="evenodd"/>
  <path d="M 388 391 L 411 390 L 412 413 L 389 414 Z" fill="#fefefe" fill-rule="evenodd"/>
  <path d="M 115 391 L 138 390 L 139 413 L 116 414 Z" fill="#fefefe" fill-rule="evenodd"/>
  <path d="M 69 391 L 92 390 L 93 413 L 70 414 Z" fill="#fefefe" fill-rule="evenodd"/>
  <path d="M 457 368 L 480 367 L 481 390 L 458 391 Z" fill="#fefefe" fill-rule="evenodd"/>
  <path d="M 411 368 L 434 367 L 435 390 L 412 391 Z" fill="#fefefe" fill-rule="evenodd"/>
  <path d="M 365 368 L 388 367 L 389 390 L 366 391 Z" fill="#fefefe" fill-rule="evenodd"/>
  <path d="M 138 368 L 161 367 L 162 390 L 139 391 Z" fill="#fefefe" fill-rule="evenodd"/>
  <path d="M 92 368 L 115 367 L 116 390 L 93 391 Z" fill="#fefefe" fill-rule="evenodd"/>
  <path d="M 434 345 L 457 344 L 458 367 L 435 368 Z" fill="#fefefe" fill-rule="evenodd"/>
  <path d="M 388 345 L 411 344 L 412 367 L 389 368 Z" fill="#fefefe" fill-rule="evenodd"/>
  <path d="M 115 345 L 138 344 L 139 367 L 116 368 Z" fill="#fefefe" fill-rule="evenodd"/>
  <path d="M 69 345 L 92 344 L 93 367 L 70 368 Z" fill="#fefefe" fill-rule="evenodd"/>
  <path d="M 457 322 L 480 321 L 481 344 L 458 345 Z" fill="#fefefe" fill-rule="evenodd"/>
  <path d="M 411 322 L 434 321 L 435 344 L 412 345 Z" fill="#fefefe" fill-rule="evenodd"/>
  <path d="M 365 322 L 388 321 L 389 344 L 366 345 Z" fill="#fefefe" fill-rule="evenodd"/>
  <path d="M 320 322 L 343 321 L 344 344 L 321 345 Z" fill="#fefefe" fill-rule="evenodd"/>
  <path d="M 138 322 L 161 321 L 162 344 L 139 345 Z" fill="#fefefe" fill-rule="evenodd"/>
  <path d="M 92 322 L 115 321 L 116 344 L 93 345 Z" fill="#fefefe" fill-rule="evenodd"/>
  <path d="M 434 299 L 457 298 L 458 321 L 435 322 Z" fill="#fefefe" fill-rule="evenodd"/>
  <path d="M 297 299 L 320 298 L 321 321 L 298 322 Z" fill="#fefefe" fill-rule="evenodd"/>
  <path d="M 69 299 L 92 298 L 93 321 L 70 322 Z" fill="#fefefe" fill-rule="evenodd"/>
  <path d="M 457 231 L 480 230 L 481 253 L 458 254 Z" fill="#fefefe" fill-rule="evenodd"/>
  <path d="M 411 231 L 434 230 L 435 253 L 412 254 Z" fill="#fefefe" fill-rule="evenodd"/>
  <path d="M 92 231 L 115 230 L 116 253 L 93 254 Z" fill="#fefefe" fill-rule="evenodd"/>
  <path d="M 434 208 L 457 207 L 458 230 L 435 231 Z" fill="#fefefe" fill-rule="evenodd"/>
  <path d="M 69 208 L 92 207 L 93 230 L 70 231 Z" fill="#fefefe" fill-rule="evenodd"/>
  <path d="M 457 185 L 480 184 L 481 207 L 458 208 Z" fill="#fefefe" fill-rule="evenodd"/>
  <path d="M 411 185 L 434 184 L 435 207 L 412 208 Z" fill="#fefefe" fill-rule="evenodd"/>
  <path d="M 434 162 L 457 161 L 458 184 L 435 185 Z" fill="#fefefe" fill-rule="evenodd"/>
  <path d="M 251 71 L 274 70 L 275 93 L 252 94 Z" fill="#fefefe" fill-rule="evenodd"/>
  <path d="M 457 48 L 480 47 L 481 70 L 458 71 Z" fill="#fefefe" fill-rule="evenodd"/>
  <path d="M 411 48 L 434 47 L 435 70 L 412 71 Z" fill="#fefefe" fill-rule="evenodd"/>
  <path d="M 365 48 L 388 47 L 389 70 L 366 71 Z" fill="#fefefe" fill-rule="evenodd"/>
  <path d="M 320 48 L 343 47 L 344 70 L 321 71 Z" fill="#fefefe" fill-rule="evenodd"/>
  <path d="M 274 48 L 297 47 L 298 70 L 275 71 Z" fill="#fefefe" fill-rule="evenodd"/>
  <path d="M 183 48 L 206 47 L 207 70 L 184 71 Z" fill="#fefefe" fill-rule="evenodd"/>
  <path d="M 138 48 L 161 47 L 162 70 L 139 71 Z" fill="#fefefe" fill-rule="evenodd"/>
  <path d="M 92 48 L 115 47 L 116 70 L 93 71 Z" fill="#fefefe" fill-rule="evenodd"/>
  <path d="M 434 25 L 457 24 L 458 47 L 435 48 Z" fill="#fefefe" fill-rule="evenodd"/>
  <path d="M 388 25 L 411 24 L 412 47 L 389 48 Z" fill="#fefefe" fill-rule="evenodd"/>
  <path d="M 297 25 L 320 24 L 321 47 L 298 48 Z" fill="#fefefe" fill-rule="evenodd"/>
  <path d="M 251 25 L 274 24 L 275 47 L 252 48 Z" fill="#fefefe" fill-rule="evenodd"/>
  <path d="M 206 25 L 229 24 L 230 47 L 207 48 Z" fill="#fefefe" fill-rule="evenodd"/>
  <path d="M 115 25 L 138 24 L 139 47 L 116 48 Z" fill="#fefefe" fill-rule="evenodd"/>
  <path d="M 69 25 L 92 24 L 93 47 L 70 48 Z" fill="#fefefe" fill-rule="evenodd"/>
  <path d="M 457 299 L 479 298 L 481 301 L 481 321 L 458 322 Z" fill="#f2f2f2" fill-rule="evenodd"/>
  <path d="M 411 300 L 414 298 L 434 298 L 435 321 L 412 322 Z" fill="#f2f2f2" fill-rule="evenodd"/>
  <path d="M 183 300 L 186 298 L 206 298 L 207 321 L 184 322 Z" fill="#f2f2f2" fill-rule="evenodd"/>
  <path d="M 457 71 L 480 70 L 481 92 L 478 94 L 458 94 Z" fill="#f2f2f2" fill-rule="evenodd"/>
  <path d="M 70 185 L 92 184 L 93 207 L 70 208 Z" fill="#f2f2f2" fill-rule="evenodd"/>
  <path d="M 92 71 L 115 70 L 116 92 L 112 94 L 93 94 Z" fill="#f2f2f2" fill-rule="evenodd"/>
  <path d="M 365 254 L 388 253 L 389 276 L 366 276 Z" fill="#f2f2f2" fill-rule="evenodd"/>
  <path d="M 183 71 L 206 70 L 207 93 L 184 93 Z" fill="#f2f2f2" fill-rule="evenodd"/>
  <path d="M 411 254 L 434 253 L 435 276 L 412 276 Z" fill="#f2f2f2" fill-rule="evenodd"/>
  <path d="M 365 71 L 388 70 L 389 92 L 386 94 L 366 94 Z" fill="#f2f2f2" fill-rule="evenodd"/>
  <path d="M 457 254 L 480 253 L 481 275 L 474 277 L 458 276 Z" fill="#f2f2f2" fill-rule="evenodd"/>
  <path d="M 47 483 L 69 482 L 70 505 L 48 506 L 46 503 Z" fill="#f2f2f2" fill-rule="evenodd"/>
  <path d="M 92 254 L 115 253 L 116 275 L 111 277 L 93 276 Z" fill="#f2f2f2" fill-rule="evenodd"/>
  <path d="M 411 71 L 434 70 L 435 92 L 431 94 L 412 93 Z" fill="#f2f2f2" fill-rule="evenodd"/>
  <path d="M 138 71 L 161 70 L 162 92 L 159 94 L 139 93 Z" fill="#f2f2f2" fill-rule="evenodd"/>
  <path d="M 320 71 L 343 70 L 344 92 L 341 94 L 321 94 Z" fill="#f2f2f2" fill-rule="evenodd"/>
  <path d="M 46 391 L 69 390 L 70 413 L 48 414 L 46 406 Z" fill="#f2f2f2" fill-rule="evenodd"/>
  <path d="M 46 437 L 69 436 L 70 459 L 48 460 Z" fill="#f2f2f2" fill-rule="evenodd"/>
  <path d="M 47 345 L 69 344 L 70 367 L 48 368 L 46 359 Z" fill="#f2f2f2" fill-rule="evenodd"/>
  <path d="M 47 299 L 69 298 L 70 321 L 48 322 L 46 305 Z" fill="#f2f2f2" fill-rule="evenodd"/>
  <path d="M 47 208 L 69 207 L 70 230 L 48 231 L 46 224 Z" fill="#f2f2f2" fill-rule="evenodd"/>
  <path d="M 46 162 L 69 161 L 70 184 L 48 185 Z" fill="#f2f2f2" fill-rule="evenodd"/>
  <path d="M 24 460 L 46 459 L 48 470 L 47 482 L 25 483 Z" fill="#f2f2f2" fill-rule="evenodd"/>
  <path d="M 229 483 L 251 482 L 252 505 L 230 506 Z" fill="#f2f2f2" fill-rule="evenodd"/>
  <path d="M 480 460 L 502 459 L 503 482 L 481 483 Z" fill="#f2f2f2" fill-rule="evenodd"/>
  <path d="M 343 460 L 365 459 L 366 482 L 344 483 Z" fill="#f2f2f2" fill-rule="evenodd"/>
  <path d="M 161 460 L 183 459 L 184 482 L 162 483 Z" fill="#f2f2f2" fill-rule="evenodd"/>
  <path d="M 229 437 L 251 436 L 252 459 L 230 460 Z" fill="#f2f2f2" fill-rule="evenodd"/>
  <path d="M 480 414 L 502 413 L 503 436 L 481 437 Z" fill="#f2f2f2" fill-rule="evenodd"/>
  <path d="M 343 414 L 365 413 L 366 436 L 344 437 Z" fill="#f2f2f2" fill-rule="evenodd"/>
  <path d="M 161 414 L 183 413 L 184 436 L 162 437 Z" fill="#f2f2f2" fill-rule="evenodd"/>
  <path d="M 24 414 L 46 413 L 47 436 L 25 437 Z" fill="#f2f2f2" fill-rule="evenodd"/>
  <path d="M 480 368 L 502 367 L 503 390 L 481 391 Z" fill="#f2f2f2" fill-rule="evenodd"/>
  <path d="M 343 368 L 365 367 L 366 390 L 344 391 Z" fill="#f2f2f2" fill-rule="evenodd"/>
  <path d="M 24 368 L 46 367 L 47 390 L 25 391 Z" fill="#f2f2f2" fill-rule="evenodd"/>
  <path d="M 480 322 L 502 321 L 503 344 L 481 345 Z" fill="#f2f2f2" fill-rule="evenodd"/>
  <path d="M 343 322 L 365 321 L 366 344 L 344 345 Z" fill="#f2f2f2" fill-rule="evenodd"/>
  <path d="M 161 322 L 183 321 L 184 344 L 162 345 Z" fill="#f2f2f2" fill-rule="evenodd"/>
  <path d="M 24 322 L 46 321 L 47 344 L 25 345 Z" fill="#f2f2f2" fill-rule="evenodd"/>
  <path d="M 434 277 L 457 276 L 458 298 L 435 299 Z" fill="#f2f2f2" fill-rule="evenodd"/>
  <path d="M 388 277 L 411 276 L 412 298 L 389 299 Z" fill="#f2f2f2" fill-rule="evenodd"/>
  <path d="M 115 277 L 138 276 L 139 298 L 116 299 Z" fill="#f2f2f2" fill-rule="evenodd"/>
  <path d="M 69 277 L 92 276 L 93 298 L 70 299 Z" fill="#f2f2f2" fill-rule="evenodd"/>
  <path d="M 480 231 L 502 230 L 503 253 L 481 254 Z" fill="#f2f2f2" fill-rule="evenodd"/>
  <path d="M 24 231 L 46 230 L 47 253 L 25 254 Z" fill="#f2f2f2" fill-rule="evenodd"/>
  <path d="M 480 185 L 502 184 L 503 207 L 481 208 Z" fill="#f2f2f2" fill-rule="evenodd"/>
  <path d="M 24 185 L 46 184 L 47 207 L 25 208 Z" fill="#f2f2f2" fill-rule="evenodd"/>
  <path d="M 434 140 L 457 139 L 458 161 L 435 162 Z" fill="#f2f2f2" fill-rule="evenodd"/>
  <path d="M 69 140 L 92 139 L 93 161 L 70 162 Z" fill="#f2f2f2" fill-rule="evenodd"/>
  <path d="M 47 116 L 69 115 L 70 138 L 48 139 Z" fill="#f2f2f2" fill-rule="evenodd"/>
  <path d="M 434 94 L 457 93 L 458 115 L 435 116 Z" fill="#f2f2f2" fill-rule="evenodd"/>
  <path d="M 388 94 L 411 93 L 412 115 L 389 116 Z" fill="#f2f2f2" fill-rule="evenodd"/>
  <path d="M 297 94 L 320 93 L 321 115 L 298 116 Z" fill="#f2f2f2" fill-rule="evenodd"/>
  <path d="M 251 94 L 274 93 L 275 115 L 252 116 Z" fill="#f2f2f2" fill-rule="evenodd"/>
  <path d="M 206 94 L 229 93 L 230 115 L 207 116 Z" fill="#f2f2f2" fill-rule="evenodd"/>
  <path d="M 115 94 L 138 93 L 139 115 L 116 116 Z" fill="#f2f2f2" fill-rule="evenodd"/>
  <path d="M 69 94 L 92 93 L 93 115 L 70 116 Z" fill="#f2f2f2" fill-rule="evenodd"/>
  <path d="M 480 48 L 502 47 L 503 70 L 481 71 Z" fill="#f2f2f2" fill-rule="evenodd"/>
  <path d="M 343 48 L 365 47 L 366 70 L 344 71 Z" fill="#f2f2f2" fill-rule="evenodd"/>
  <path d="M 161 48 L 183 47 L 184 70 L 162 71 Z" fill="#f2f2f2" fill-rule="evenodd"/>
  <path d="M 24 48 L 46 47 L 47 70 L 25 71 Z" fill="#f2f2f2" fill-rule="evenodd"/>
  <path d="M 229 25 L 251 24 L 252 47 L 230 48 Z" fill="#f2f2f2" fill-rule="evenodd"/>
  <path d="M 47 25 L 69 24 L 70 47 L 48 48 Z" fill="#f2f2f2" fill-rule="evenodd"/>
  <path d="M 343 483 L 365 482 L 366 505 L 344 506 Z" fill="#fefefe" fill-rule="evenodd"/>
  <path d="M 161 483 L 183 482 L 184 505 L 162 506 Z" fill="#fefefe" fill-rule="evenodd"/>
  <path d="M 229 460 L 251 459 L 252 482 L 230 483 Z" fill="#fefefe" fill-rule="evenodd"/>
  <path d="M 343 437 L 365 436 L 366 459 L 344 460 Z" fill="#fefefe" fill-rule="evenodd"/>
  <path d="M 161 437 L 183 436 L 184 459 L 162 460 Z" fill="#fefefe" fill-rule="evenodd"/>
  <path d="M 229 414 L 251 413 L 252 436 L 230 437 Z" fill="#fefefe" fill-rule="evenodd"/>
  <path d="M 343 391 L 365 390 L 366 413 L 344 414 Z" fill="#fefefe" fill-rule="evenodd"/>
  <path d="M 343 345 L 365 344 L 366 367 L 344 368 Z" fill="#fefefe" fill-rule="evenodd"/>
  <path d="M 161 345 L 183 344 L 184 367 L 162 368 Z" fill="#fefefe" fill-rule="evenodd"/>
  <path d="M 343 299 L 365 298 L 366 321 L 344 322 Z" fill="#fefefe" fill-rule="evenodd"/>
  <path d="M 343 25 L 365 24 L 366 47 L 344 48 Z" fill="#fefefe" fill-rule="evenodd"/>
  <path d="M 161 25 L 183 24 L 184 47 L 162 48 Z" fill="#fefefe" fill-rule="evenodd"/>
  <path d="M 47 71 L 69 70 L 70 92 L 67 94 L 48 94 L 46 81 Z" fill="#f2f2f2" fill-rule="evenodd"/>
  <path d="M 47 254 L 69 253 L 70 276 L 49 277 L 47 275 Z" fill="#f2f2f2" fill-rule="evenodd"/>
  <path d="M 229 71 L 251 70 L 252 93 L 230 94 Z" fill="#f2f2f2" fill-rule="evenodd"/>
  <path d="M 230 93 L 237 92 L 252 94 L 251 116 L 229 115 Z" fill="#fefefe" fill-rule="evenodd"/>
  <path d="M 480 277 L 502 276 L 503 298 L 481 299 Z" fill="#f2f2f2" fill-rule="evenodd"/>
  <path d="M 343 277 L 365 276 L 366 298 L 344 299 Z" fill="#f2f2f2" fill-rule="evenodd"/>
  <path d="M 161 277 L 183 276 L 184 298 L 162 299 Z" fill="#f2f2f2" fill-rule="evenodd"/>
  <path d="M 24 277 L 46 276 L 47 298 L 25 299 Z" fill="#f2f2f2" fill-rule="evenodd"/>
  <path d="M 480 140 L 502 139 L 503 161 L 481 162 Z" fill="#f2f2f2" fill-rule="evenodd"/>
  <path d="M 24 140 L 46 139 L 47 161 L 25 162 Z" fill="#f2f2f2" fill-rule="evenodd"/>
  <path d="M 480 94 L 502 93 L 503 115 L 481 116 Z" fill="#f2f2f2" fill-rule="evenodd"/>
  <path d="M 343 94 L 365 93 L 366 115 L 344 116 Z" fill="#f2f2f2" fill-rule="evenodd"/>
  <path d="M 161 94 L 183 93 L 184 115 L 162 116 Z" fill="#f2f2f2" fill-rule="evenodd"/>
  <path d="M 24 94 L 46 93 L 47 115 L 25 116 Z" fill="#f2f2f2" fill-rule="evenodd"/>
  <path d="M 0 116 L 0 138 L 24 138 L 24 117 Z" fill="#fefefe" fill-rule="evenodd"/>
  <path d="M 369 168 L 366 168 L 365 185 L 348 185 L 348 207 L 365 207 L 366 213 L 368 212 L 369 208 L 365 207 L 365 185 L 376 184 L 375 174 Z" fill="#fefefe" fill-rule="evenodd"/>
  <path d="M 25 94 L 25 115 L 46 115 L 46 94 Z" fill="#fefefe" fill-rule="evenodd"/>
  <path d="M 504 391 L 504 413 L 511 413 L 511 391 Z" fill="#fefefe" fill-rule="evenodd"/>
  <path d="M 504 71 L 504 93 L 510 93 L 511 71 Z" fill="#fefefe" fill-rule="evenodd"/>
  <path d="M 504 483 L 504 505 L 511 505 L 511 483 Z" fill="#fefefe" fill-rule="evenodd"/>
  <path d="M 504 437 L 504 459 L 511 459 L 511 437 Z" fill="#fefefe" fill-rule="evenodd"/>
  <path d="M 504 345 L 504 367 L 511 367 L 511 345 Z" fill="#fefefe" fill-rule="evenodd"/>
  <path d="M 504 299 L 504 321 L 511 321 L 511 299 Z" fill="#fefefe" fill-rule="evenodd"/>
  <path d="M 504 208 L 504 230 L 511 230 L 511 208 Z" fill="#fefefe" fill-rule="evenodd"/>
  <path d="M 504 162 L 504 184 L 511 184 L 511 162 Z" fill="#fefefe" fill-rule="evenodd"/>
  <path d="M 504 25 L 504 47 L 511 47 L 511 25 Z" fill="#fefefe" fill-rule="evenodd"/>
  <path d="M 505 116 L 504 138 L 511 138 L 511 116 Z" fill="#fefefe" fill-rule="evenodd"/>
</svg>
